<svg width="749" height="487" viewBox="0 0 749 487" fill="none" xmlns="http://www.w3.org/2000/svg">
<path d="M690.232 390.776C689.765 392.763 689.24 394.806 688.657 396.85C688.128 398.894 687.429 401.057 686.67 403.217C686.318 404.266 685.911 405.32 685.561 406.369C684.334 409.7 682.932 413.143 681.238 416.707C680.713 417.875 680.187 419.103 679.604 420.271C679.455 420.636 679.286 421.003 679.11 421.367C679.004 421.585 678.892 421.804 678.785 422.02H609.341L589.016 421.965H407.031L381.316 421.938H381.237L354.143 421.905H213.767L155.247 421.848H49.4179C49.4179 421.848 49.3827 421.752 49.309 421.563C49.2899 421.506 49.2676 421.442 49.2388 421.367C49.1525 421.142 49.0375 420.834 48.8901 420.445L48.8328 420.328C48.8328 420.328 48.8328 420.328 48.8328 420.271C48.8328 420.271 48.7753 420.211 48.7753 420.154C48.5419 419.686 48.3661 419.16 48.1327 418.52C48.0144 418.225 47.8993 417.875 47.7237 417.525C47.7237 417.468 47.7237 417.468 47.7237 417.406C47.6661 417.349 47.6661 417.349 47.6661 417.349C46.8635 415.266 45.8697 412.552 44.7218 409.271C44.6197 408.973 44.514 408.673 44.4054 408.371C43.5452 405.893 42.5993 403.118 41.5923 400.062C39.1979 392.646 36.4518 383.591 33.7664 373.372C32.7148 369.342 31.6629 365.138 30.6688 360.755C30.0838 358.225 29.4954 355.591 28.9329 352.933C28.77 352.151 28.6102 351.373 28.4505 350.591C27.4175 345.611 26.4457 340.479 25.57 335.239C24.4159 328.351 23.4251 321.275 22.6706 314.087C22.2963 310.563 21.9801 307.006 21.7273 303.437C21.7209 303.343 21.7115 303.249 21.7082 303.154C21.6988 303.06 21.6921 302.963 21.6859 302.867C21.3407 297.837 21.1232 292.77 21.0592 287.705C21.0081 283.63 21.053 279.552 21.2097 275.487C21.3246 272.742 21.5004 269.996 21.6763 267.248C22.143 261.409 22.8432 255.569 23.8373 249.904C24.4799 246.047 25.2949 242.193 26.2317 238.455C28.5078 229.288 31.6056 220.525 35.6911 212.234C37.1519 209.372 38.6703 206.567 40.3648 203.821C44.1591 197.573 48.0144 191.732 51.9306 186.243H51.9879C54.0307 183.324 56.0769 180.579 58.1193 177.947C65.7691 168.021 73.5375 159.492 81.3663 152.133C133.788 103.089 190.401 106.628 242.098 110.167C285.145 113.114 324.781 116.06 355.752 88.6487C422.389 29.7184 547.085 28.8428 602.858 83.217C603.91 84.2686 605.018 85.3203 606.07 86.4884C615.1 96.0721 622.067 107.263 626.346 120.048C629.64 129.89 631.341 140.677 631.16 152.396C631.14 153.626 631.1 154.871 631.041 156.124C630.78 161.468 630.143 166.999 629.086 172.714C628.394 176.499 627.519 180.363 626.452 184.316C623.883 193.778 620.264 203.65 615.475 214.101C615.006 215.094 614.54 216.088 614.071 217.083C598.83 248.969 611.387 268.066 630.602 285.532C642.455 296.336 656.768 306.498 668.683 318.646C670.258 320.28 671.776 321.917 673.297 323.611C673.877 324.286 674.45 324.961 675.015 325.645C676.608 327.565 678.138 329.529 679.604 331.553C680.345 332.6 681.06 333.664 681.752 334.748C683.79 337.942 685.604 341.293 687.134 344.827C688.198 347.293 689.125 349.85 689.899 352.504C690.884 355.882 691.616 359.423 692.05 363.149C693.022 371.386 692.556 380.52 690.232 390.776Z" fill="#B3DDD4" fill-opacity="0.4"/>
<path d="M500.019 423.636H293.076L206.808 423.58H50.7969C50.7969 423.58 50.706 423.422 50.5305 423.109C50.4052 422.887 50.236 422.586 50.0165 422.204L49.9319 422.09C49.9319 422.09 49.9319 422.09 49.9319 422.034C49.9319 422.034 49.8475 421.976 49.8475 421.92C49.5028 421.46 49.2458 420.945 48.901 420.318C48.7255 420.028 48.5565 419.685 48.2964 419.343C48.2964 419.287 48.2964 419.287 48.2964 419.226C48.2118 419.17 48.2118 419.17 48.2118 419.17C47.0302 417.128 45.5639 414.468 43.8717 411.251C43.7181 410.96 43.5644 410.665 43.4079 410.369C42.565 407.94 41.6374 405.219 40.6503 402.224C38.3032 394.955 35.6113 386.078 32.979 376.061C31.9482 372.111 30.9171 367.99 29.9426 363.694C29.3691 361.214 28.7927 358.632 28.2412 356.026C28.0813 355.26 27.9244 354.496 27.7679 353.73C26.7557 348.848 25.8032 343.818 24.9445 338.681C23.2586 328.618 21.9268 318.132 21.1777 307.508C88.1874 310.96 217.359 320.05 314.519 341.752C451.62 372.371 485.5 377.314 543.58 382.808C576.081 385.881 538.994 406.272 500.019 423.636Z" fill="#82B378"/>
<path d="M382.644 289.874L377.786 384.897H382.644L384.829 289.874H382.644Z" fill="#ADC8FE"/>
<path d="M383.027 281.269L384.262 287.121L406.367 260.885L383.027 281.269Z" fill="#ADC8FE"/>
<path d="M390.971 288.298L385.007 287.853L404.041 316.393L390.971 288.298Z" fill="#ADC8FE"/>
<path d="M378.778 292.958L382.24 288.084L347.969 289.637L378.778 292.958Z" fill="#ADC8FE"/>
<path d="M380.925 287.85C380.925 286.375 382.121 285.179 383.597 285.179C385.07 285.179 386.269 286.375 386.269 287.85C386.269 289.326 385.07 290.522 383.597 290.522C382.121 290.522 380.925 289.326 380.925 287.85Z" fill="#ADC8FE"/>
<path d="M368.177 371.476C368.177 371.476 190.827 322.846 134.917 317.947C79.0078 313.05 132.567 324.497 132.567 324.497C132.567 324.497 284.342 364.425 319.851 380.887C355.357 397.349 368.177 371.476 368.177 371.476Z" fill="#6E9E63"/>
<path d="M314.091 410.275C314.091 410.275 160.746 336.698 110.67 322.889C60.5935 309.077 107.442 328.383 107.442 328.383C107.442 328.383 238.955 389.828 268.536 410.608C298.12 431.388 314.091 410.275 314.091 410.275Z" fill="#6E9E63"/>
<path d="M258.243 307.668L254.266 385.446H258.243L260.033 307.668H258.243Z" fill="#ADC8FE"/>
<path d="M258.559 300.622L259.57 305.412L277.663 283.939L258.559 300.622Z" fill="#ADC8FE"/>
<path d="M265.059 306.37L260.177 306.005L275.756 329.367L265.059 306.37Z" fill="#ADC8FE"/>
<path d="M255.08 310.19L257.913 306.198L229.863 307.47L255.08 310.19Z" fill="#ADC8FE"/>
<path d="M256.837 306.008C256.837 304.802 257.814 303.822 259.023 303.822C260.231 303.822 261.211 304.802 261.211 306.008C261.211 307.216 260.231 308.196 259.023 308.196C257.814 308.196 256.837 307.216 256.837 306.008Z" fill="#ADC8FE"/>
<path d="M678.261 366.042C677.898 370.783 677.31 375.711 676.479 380.848C676.459 380.965 676.442 381.077 676.42 381.196C675.978 383.819 675.482 386.508 674.935 389.197C674.417 392.008 673.731 394.974 672.987 397.945C672.642 399.386 672.243 400.836 671.901 402.275C670.697 406.855 669.326 411.584 667.663 416.481C667.147 418.085 666.632 419.77 666.061 421.38C665.915 421.88 665.749 422.384 665.577 422.887H48.1454C48.0608 422.573 47.9479 422.153 47.8038 421.618L47.7474 421.457C47.7474 421.457 47.7474 421.457 47.7474 421.38C47.7474 421.38 47.691 421.294 47.691 421.217C47.4622 420.577 47.2898 419.85 47.061 418.973C46.9453 418.567 46.8322 418.085 46.6601 417.606C46.6601 417.528 46.6601 417.528 46.6601 417.443C46.6037 417.366 46.6037 417.366 46.6037 417.366C45.817 414.502 44.8425 410.772 43.7176 406.264C42.79 402.552 41.759 398.322 40.6498 393.607C38.3027 383.418 35.6108 370.98 32.9785 356.934C31.9476 351.398 30.9166 345.619 29.9421 339.6C29.3686 336.125 28.7921 332.505 28.2407 328.851C84.8371 350.351 230.388 398.667 334.334 371.648C353.013 366.793 373.623 362.449 395.249 358.561C400.079 357.691 404.966 356.844 409.89 356.023C465.959 346.641 527.258 340.139 578.628 335.659H578.64C579.233 335.608 579.822 335.554 580.415 335.505C580.994 335.454 581.57 335.403 582.151 335.355C582.851 335.294 583.554 335.233 584.254 335.172C585.708 335.051 587.152 334.924 588.589 334.805C588.779 334.791 588.963 334.774 589.15 334.759C590.254 334.664 591.351 334.574 592.445 334.482C596.481 334.144 600.441 333.823 604.317 333.512C605.189 333.444 606.06 333.373 606.92 333.305C607.881 333.227 608.834 333.152 609.777 333.077C611.051 332.977 612.318 332.88 613.575 332.778C614.35 332.719 615.124 332.658 615.889 332.6C617.263 332.493 618.625 332.391 619.974 332.286C620.638 332.235 621.297 332.187 621.953 332.136C622.86 332.068 623.759 332.002 624.652 331.931C624.725 331.927 624.795 331.919 624.87 331.917C626.334 331.807 627.783 331.698 629.215 331.591C629.67 331.557 630.127 331.525 630.577 331.491C630.603 331.487 630.62 331.487 630.637 331.484L630.671 331.482C642.256 330.623 652.66 329.896 661.563 329.279C663.124 331.161 664.624 333.086 666.061 335.07C666.788 336.096 667.488 337.139 668.166 338.202C670.165 341.333 671.942 344.618 673.442 348.082C674.485 350.499 675.394 353.006 676.153 355.607C677.118 358.918 677.835 362.39 678.261 366.042Z" fill="#82B378"/>
<path d="M409.89 356.017C395.218 364.266 363.585 385.381 344.144 422.878C344.008 423.138 343.872 423.401 343.738 423.666L328.959 422.878L324.337 422.633C324.782 421.381 345.396 390.134 395.249 358.555C400.08 357.687 404.967 356.838 409.89 356.017Z" fill="#6E9E63"/>
<path d="M355.331 422.691C355.8 421.373 379.77 384.909 438.993 351.912L443.656 355.559C443.656 355.559 398.102 375.576 373.66 423.673L355.331 422.691Z" fill="#6E9E63"/>
<path d="M398.143 422.691C398.612 421.373 422.584 384.909 481.807 351.912L486.467 355.559C486.467 355.559 440.913 375.576 416.474 423.673L398.143 422.691Z" fill="#6E9E63"/>
<path d="M630.672 331.479C630.672 331.479 547.694 339.923 495.877 393.304L463.184 383.936C464.086 382.618 499.579 354.963 578.629 335.656H578.641C597.588 334.005 615.185 332.627 630.672 331.479Z" fill="#6E9E63"/>
<path d="M673.443 348.082C636.17 357.083 576.5 377.705 531.879 422.887H503.312L482.32 416.809C483.653 414.752 540.544 367.151 668.167 338.202C670.166 341.333 671.943 344.618 673.443 348.082Z" fill="#6E9E63"/>
<path d="M375.794 422.029L376.22 421.919C376.047 421.161 375.624 405.861 380.423 396.941L380.034 396.734C375.172 405.771 375.629 421.401 375.794 422.029Z" fill="#6E9E63"/>
<path d="M381.246 388.751C381.246 388.751 382.756 391.919 381.837 393.339C380.915 394.759 380.157 390.706 381.246 388.751Z" fill="#FFCF83"/>
<path d="M382.184 402.122C382.184 402.122 380.674 398.951 381.596 397.532C382.515 396.112 383.273 400.165 382.184 402.122Z" fill="#FFCF83"/>
<path d="M378.22 389.717C378.22 389.717 381.018 391.835 380.855 393.517C380.693 395.202 378.154 391.954 378.22 389.717Z" fill="#FFCF83"/>
<path d="M385.214 401.154C385.214 401.154 382.413 399.037 382.576 397.352C382.739 395.67 385.28 398.915 385.214 401.154Z" fill="#FFCF83"/>
<path d="M376.006 391.997C376.006 391.997 379.463 392.615 380.081 394.188C380.701 395.763 376.964 394.023 376.006 391.997Z" fill="#FFCF83"/>
<path d="M387.426 399.011C387.426 399.011 383.971 398.393 383.351 396.82C382.733 395.245 386.468 396.985 387.426 399.011Z" fill="#FFCF83"/>
<path d="M375.29 397.555C375.29 397.555 378.057 395.396 379.642 395.987C381.227 396.58 377.434 398.194 375.29 397.555Z" fill="#FFCF83"/>
<path d="M388.401 394.874C388.401 394.874 385.301 396.525 383.843 395.669C382.384 394.813 386.398 393.875 388.401 394.874Z" fill="#FFCF83"/>
<path d="M376.815 399.967C376.815 399.967 378.537 396.906 380.226 396.841C381.916 396.778 379.04 399.729 376.815 399.967Z" fill="#FFCF83"/>
<path d="M387.204 391.496C387.204 391.496 385.483 394.557 383.791 394.62C382.101 394.685 384.977 391.731 387.204 391.496Z" fill="#FFCF83"/>
<path d="M379.082 401.77C379.082 401.77 379.308 398.267 380.803 397.474C382.299 396.684 380.986 400.591 379.082 401.77Z" fill="#FFCF83"/>
<path d="M384.777 389.639C384.777 389.639 384.549 393.142 383.054 393.932C381.558 394.723 382.871 390.815 384.777 389.639Z" fill="#FFCF83"/>
<path d="M375.114 395.29C375.114 395.29 378.392 394.036 379.734 395.066C381.076 396.097 376.977 396.53 375.114 395.29Z" fill="#FFCF83"/>
<path d="M384.159 395.503C384.159 394.154 383.065 393.06 381.716 393.06C380.367 393.06 379.272 394.154 379.272 395.503C379.272 396.853 380.367 397.947 381.716 397.947C383.065 397.947 384.159 396.853 384.159 395.503Z" fill="#365DA4"/>
<path d="M376.634 407.944C376.634 407.944 378.759 405.78 381.691 405.635C384.623 405.486 385.525 405.635 385.525 405.635C385.525 405.635 383.721 407.541 381.569 407.944C379.418 408.345 376.634 407.944 376.634 407.944Z" fill="#6E9E63"/>
<path d="M377.076 405.846C376.704 405.522 376.424 402.887 374.151 402.226C371.88 401.567 370.266 401.44 370.266 401.44C370.266 401.44 372.235 404.866 373.669 405.379C375.104 405.892 377.076 405.846 377.076 405.846Z" fill="#6E9E63"/>
<path d="M364.306 422.029L364.806 421.9C364.605 421.005 364.106 403.002 369.754 392.506L369.297 392.26C363.574 402.897 364.113 421.29 364.306 422.029Z" fill="#6E9E63"/>
<path d="M370.723 382.864C370.723 382.864 372.501 386.593 371.419 388.264C370.334 389.934 369.442 385.166 370.723 382.864Z" fill="#FFCF83"/>
<path d="M371.831 398.597C371.831 398.597 370.053 394.868 371.135 393.198C372.217 391.527 373.112 396.295 371.831 398.597Z" fill="#FFCF83"/>
<path d="M367.163 384.003C367.163 384.003 370.457 386.495 370.265 388.476C370.073 390.46 367.085 386.638 367.163 384.003Z" fill="#FFCF83"/>
<path d="M375.39 397.458C375.39 397.458 372.095 394.966 372.287 392.984C372.479 391.003 375.467 394.825 375.39 397.458Z" fill="#FFCF83"/>
<path d="M364.559 386.685C364.559 386.685 368.626 387.409 369.355 389.262C370.082 391.115 365.687 389.065 364.559 386.685Z" fill="#FFCF83"/>
<path d="M377.998 394.937C377.998 394.937 373.93 394.213 373.201 392.36C372.474 390.508 376.87 392.557 377.998 394.937Z" fill="#FFCF83"/>
<path d="M363.713 393.221C363.713 393.221 366.973 390.681 368.838 391.378C370.703 392.076 366.239 393.975 363.713 393.221Z" fill="#FFCF83"/>
<path d="M379.143 390.07C379.143 390.07 375.499 392.012 373.78 391.006C372.063 389.999 376.785 388.893 379.143 390.07Z" fill="#FFCF83"/>
<path d="M365.508 396.063C365.508 396.063 367.536 392.462 369.524 392.385C371.513 392.309 368.129 395.783 365.508 396.063Z" fill="#FFCF83"/>
<path d="M377.736 386.098C377.736 386.098 375.711 389.698 373.722 389.776C371.731 389.852 375.117 386.377 377.736 386.098Z" fill="#FFCF83"/>
<path d="M368.178 398.186C368.178 398.186 368.445 394.062 370.205 393.131C371.966 392.2 370.419 396.8 368.178 398.186Z" fill="#FFCF83"/>
<path d="M374.882 383.906C374.882 383.906 374.615 388.03 372.855 388.961C371.095 389.892 372.641 385.292 374.882 383.906Z" fill="#FFCF83"/>
<path d="M363.503 390.565C363.503 390.565 367.364 389.091 368.942 390.302C370.522 391.515 365.696 392.026 363.503 390.565Z" fill="#FFCF83"/>
<path d="M374.152 390.813C374.152 389.223 372.863 387.937 371.276 387.937C369.688 387.937 368.399 389.223 368.399 390.813C368.399 392.401 369.688 393.687 371.276 393.687C372.863 393.687 374.152 392.401 374.152 390.813Z" fill="#365DA4"/>
<path d="M364.49 412.711C364.49 412.711 366.992 410.166 370.442 409.993C373.894 409.821 374.954 409.993 374.954 409.993C374.954 409.993 372.832 412.237 370.301 412.711C367.768 413.185 364.49 412.711 364.49 412.711Z" fill="#6E9E63"/>
<path d="M365.008 410.24C364.57 409.861 364.242 406.759 361.567 405.981C358.893 405.205 356.994 405.055 356.994 405.055C356.994 405.055 359.314 409.088 361.001 409.691C362.688 410.296 365.008 410.24 365.008 410.24Z" fill="#6E9E63"/>
<path d="M378.163 422.029L378.462 421.951C378.343 421.416 378.041 410.614 381.43 404.315L381.158 404.166C377.723 410.551 378.046 421.586 378.163 422.029Z" fill="#6E9E63"/>
<path d="M382.01 398.53C382.01 398.53 383.078 400.767 382.429 401.768C381.777 402.772 381.242 399.911 382.01 398.53Z" fill="#FFCF83"/>
<path d="M382.678 407.971C382.678 407.971 381.611 405.732 382.26 404.73C382.909 403.729 383.447 406.588 382.678 407.971Z" fill="#FFCF83"/>
<path d="M379.874 399.21C379.874 399.21 381.853 400.705 381.736 401.894C381.622 403.083 379.83 400.791 379.874 399.21Z" fill="#FFCF83"/>
<path d="M384.813 407.285C384.813 407.285 382.837 405.79 382.951 404.601C383.068 403.412 384.86 405.705 384.813 407.285Z" fill="#FFCF83"/>
<path d="M378.312 400.824C378.312 400.824 380.753 401.259 381.19 402.37C381.628 403.481 378.99 402.253 378.312 400.824Z" fill="#FFCF83"/>
<path d="M386.377 405.776C386.377 405.776 383.938 405.341 383.501 404.23C383.063 403.119 385.701 404.349 386.377 405.776Z" fill="#FFCF83"/>
<path d="M377.811 404.744C377.811 404.744 379.765 403.222 380.884 403.641C382.002 404.059 379.325 405.199 377.811 404.744Z" fill="#FFCF83"/>
<path d="M387.068 402.855C387.068 402.855 384.88 404.022 383.849 403.416C382.818 402.813 385.653 402.149 387.068 402.855Z" fill="#FFCF83"/>
<path d="M378.887 406.45C378.887 406.45 380.102 404.289 381.296 404.245C382.49 404.199 380.457 406.282 378.887 406.45Z" fill="#FFCF83"/>
<path d="M386.223 400.47C386.223 400.47 385.007 402.631 383.813 402.675C382.62 402.721 384.652 400.638 386.223 400.47Z" fill="#FFCF83"/>
<path d="M380.485 407.722C380.485 407.722 380.646 405.247 381.701 404.69C382.756 404.131 381.83 406.89 380.485 407.722Z" fill="#FFCF83"/>
<path d="M384.507 399.155C384.507 399.155 384.349 401.63 383.292 402.189C382.237 402.746 383.163 399.986 384.507 399.155Z" fill="#FFCF83"/>
<path d="M377.682 403.15C377.682 403.15 379.996 402.265 380.944 402.992C381.893 403.722 378.997 404.026 377.682 403.15Z" fill="#FFCF83"/>
<path d="M384.073 403.3C384.073 402.347 383.3 401.574 382.347 401.574C381.394 401.574 380.621 402.347 380.621 403.3C380.621 404.253 381.394 405.024 382.347 405.024C383.3 405.024 384.073 404.253 384.073 403.3Z" fill="#365DA4"/>
<path d="M378.273 416.441C378.273 416.441 379.776 414.915 381.845 414.813C383.916 414.708 384.553 414.813 384.553 414.813C384.553 414.813 383.279 416.157 381.76 416.441C380.24 416.726 378.273 416.441 378.273 416.441Z" fill="#6E9E63"/>
<path d="M378.584 414.961C378.321 414.733 378.124 412.871 376.52 412.404C374.915 411.939 373.777 411.849 373.777 411.849C373.777 411.849 375.168 414.269 376.179 414.631C377.193 414.993 378.584 414.961 378.584 414.961Z" fill="#6E9E63"/>
<path d="M394.874 422.029L395.377 421.9C395.175 421.005 394.674 403.002 400.322 392.506L399.867 392.26C394.144 402.897 394.681 421.29 394.874 422.029Z" fill="#6E9E63"/>
<path d="M401.29 382.864C401.29 382.864 403.07 386.593 401.985 388.264C400.903 389.934 400.011 385.166 401.29 382.864Z" fill="#FFCF83"/>
<path d="M402.4 398.597C402.4 398.597 400.623 394.868 401.707 393.198C402.789 391.527 403.681 396.295 402.4 398.597Z" fill="#FFCF83"/>
<path d="M397.731 384.003C397.731 384.003 401.028 386.495 400.836 388.476C400.644 390.46 397.656 386.638 397.731 384.003Z" fill="#FFCF83"/>
<path d="M405.96 397.458C405.96 397.458 402.664 394.966 402.856 392.984C403.048 391.003 406.036 394.825 405.96 397.458Z" fill="#FFCF83"/>
<path d="M395.125 386.685C395.125 386.685 399.195 387.409 399.922 389.262C400.651 391.115 396.253 389.065 395.125 386.685Z" fill="#FFCF83"/>
<path d="M408.564 394.937C408.564 394.937 404.497 394.213 403.77 392.36C403.04 390.508 407.438 392.557 408.564 394.937Z" fill="#FFCF83"/>
<path d="M394.284 393.221C394.284 393.221 397.542 390.681 399.407 391.378C401.272 392.076 396.808 393.975 394.284 393.221Z" fill="#FFCF83"/>
<path d="M409.714 390.07C409.714 390.07 406.067 392.012 404.351 391.006C402.632 389.999 407.356 388.893 409.714 390.07Z" fill="#FFCF83"/>
<path d="M396.082 396.063C396.082 396.063 398.107 392.462 400.096 392.385C402.087 392.309 398.703 395.783 396.082 396.063Z" fill="#FFCF83"/>
<path d="M408.306 386.098C408.306 386.098 406.281 389.698 404.289 389.776C402.301 389.852 405.685 386.377 408.306 386.098Z" fill="#FFCF83"/>
<path d="M398.748 398.186C398.748 398.186 399.013 394.062 400.773 393.131C402.534 392.2 400.987 396.8 398.748 398.186Z" fill="#FFCF83"/>
<path d="M405.449 383.906C405.449 383.906 405.181 388.03 403.424 388.961C401.663 389.892 403.207 385.292 405.449 383.906Z" fill="#FFCF83"/>
<path d="M394.073 390.565C394.073 390.565 397.932 389.091 399.512 390.302C401.09 391.515 396.266 392.026 394.073 390.565Z" fill="#FFCF83"/>
<path d="M404.72 390.813C404.72 389.223 403.433 387.937 401.843 387.937C400.256 387.937 398.97 389.223 398.97 390.813C398.97 392.401 400.256 393.687 401.843 393.687C403.433 393.687 404.72 392.401 404.72 390.813Z" fill="#365DA4"/>
<path d="M395.865 405.455C395.865 405.455 398.367 402.909 401.817 402.737C405.269 402.564 406.329 402.737 406.329 402.737C406.329 402.737 404.207 404.981 401.674 405.455C399.143 405.929 395.865 405.455 395.865 405.455Z" fill="#6E9E63"/>
<path d="M396.385 402.981C395.948 402.599 395.62 399.497 392.945 398.721C390.271 397.943 388.372 397.795 388.372 397.795C388.372 397.795 390.689 401.826 392.379 402.431C394.066 403.034 396.385 402.981 396.385 402.981Z" fill="#6E9E63"/>
<path d="M385.619 422.029L386.12 421.89C385.918 420.922 385.42 401.443 391.067 390.087L390.61 389.822C384.887 401.329 385.427 421.229 385.619 422.029Z" fill="#6E9E63"/>
<path d="M392.034 379.656C392.034 379.656 393.811 383.692 392.729 385.498C391.645 387.307 390.753 382.148 392.034 379.656Z" fill="#FFCF83"/>
<path d="M393.143 396.679C393.143 396.679 391.366 392.643 392.448 390.836C393.53 389.027 394.424 394.187 393.143 396.679Z" fill="#FFCF83"/>
<path d="M388.475 380.888C388.475 380.888 391.77 383.585 391.577 385.729C391.385 387.873 388.397 383.738 388.475 380.888Z" fill="#FFCF83"/>
<path d="M396.702 395.444C396.702 395.444 393.408 392.748 393.6 390.603C393.792 388.459 396.78 392.595 396.702 395.444Z" fill="#FFCF83"/>
<path d="M385.867 383.788C385.867 383.788 389.935 384.571 390.664 386.577C391.391 388.582 386.995 386.365 385.867 383.788Z" fill="#FFCF83"/>
<path d="M399.308 392.721C399.308 392.721 395.241 391.936 394.511 389.93C393.784 387.927 398.18 390.144 399.308 392.721Z" fill="#FFCF83"/>
<path d="M385.024 390.866C385.024 390.866 388.285 388.117 390.149 388.87C392.014 389.627 387.55 391.681 385.024 390.866Z" fill="#FFCF83"/>
<path d="M400.456 387.449C400.456 387.449 396.812 389.552 395.093 388.461C393.377 387.371 398.1 386.175 400.456 387.449Z" fill="#FFCF83"/>
<path d="M386.822 393.933C386.822 393.933 388.85 390.036 390.839 389.953C392.827 389.871 389.443 393.632 386.822 393.933Z" fill="#FFCF83"/>
<path d="M399.046 383.153C399.046 383.153 397.021 387.048 395.032 387.131C393.041 387.214 396.428 383.452 399.046 383.153Z" fill="#FFCF83"/>
<path d="M389.488 396.23C389.488 396.23 389.756 391.771 391.516 390.762C393.276 389.756 391.73 394.732 389.488 396.23Z" fill="#FFCF83"/>
<path d="M396.195 380.785C396.195 380.785 395.927 385.247 394.167 386.253C392.407 387.26 393.953 382.285 396.195 380.785Z" fill="#FFCF83"/>
<path d="M384.815 387.982C384.815 387.982 388.676 386.387 390.254 387.698C391.834 389.011 387.008 389.563 384.815 387.982Z" fill="#FFCF83"/>
<path d="M395.466 388.256C395.466 386.537 394.178 385.144 392.59 385.144C391.002 385.144 389.714 386.537 389.714 388.256C389.714 389.972 391.002 391.365 392.59 391.365C394.178 391.365 395.466 389.972 395.466 388.256Z" fill="#365DA4"/>
<path d="M385.804 411.947C385.804 411.947 388.305 409.194 391.755 409.007C395.208 408.82 396.268 409.007 396.268 409.007C396.268 409.007 394.145 411.434 391.614 411.947C389.081 412.46 385.804 411.947 385.804 411.947Z" fill="#6E9E63"/>
<path d="M386.32 409.28C385.882 408.869 385.554 405.512 382.88 404.673C380.205 403.832 378.307 403.671 378.307 403.671C378.307 403.671 380.626 408.033 382.313 408.687C384.001 409.339 386.32 409.28 386.32 409.28Z" fill="#6E9E63"/>
<path d="M397.665 422.029L398.02 421.939C397.877 421.307 397.524 408.594 401.511 401.181L401.19 401.008C397.147 408.521 397.529 421.506 397.665 422.029Z" fill="#6E9E63"/>
<path d="M402.195 394.376C402.195 394.376 403.452 397.011 402.686 398.19C401.923 399.369 401.291 396.002 402.195 394.376Z" fill="#FFCF83"/>
<path d="M402.977 405.483C402.977 405.483 401.722 402.85 402.486 401.67C403.251 400.489 403.881 403.856 402.977 405.483Z" fill="#FFCF83"/>
<path d="M399.681 395.179C399.681 395.179 402.01 396.939 401.874 398.337C401.738 399.738 399.627 397.039 399.681 395.179Z" fill="#FFCF83"/>
<path d="M405.49 404.681C405.49 404.681 403.164 402.92 403.3 401.523C403.436 400.122 405.546 402.821 405.49 404.681Z" fill="#FFCF83"/>
<path d="M397.843 397.072C397.843 397.072 400.714 397.585 401.23 398.893C401.743 400.201 398.638 398.754 397.843 397.072Z" fill="#FFCF83"/>
<path d="M407.332 402.903C407.332 402.903 404.461 402.39 403.946 401.082C403.433 399.774 406.537 401.22 407.332 402.903Z" fill="#FFCF83"/>
<path d="M397.246 401.691C397.246 401.691 399.546 399.899 400.864 400.39C402.182 400.884 399.028 402.224 397.246 401.691Z" fill="#FFCF83"/>
<path d="M408.144 399.458C408.144 399.458 405.57 400.832 404.357 400.119C403.143 399.41 406.479 398.629 408.144 399.458Z" fill="#FFCF83"/>
<path d="M398.516 403.696C398.516 403.696 399.945 401.153 401.351 401.099C402.756 401.046 400.366 403.499 398.516 403.696Z" fill="#FFCF83"/>
<path d="M407.149 396.659C407.149 396.659 405.717 399.202 404.314 399.256C402.909 399.309 405.299 396.856 407.149 396.659Z" fill="#FFCF83"/>
<path d="M400.396 405.193C400.396 405.193 400.585 402.282 401.828 401.623C403.07 400.967 401.978 404.215 400.396 405.193Z" fill="#FFCF83"/>
<path d="M405.13 395.112C405.13 395.112 404.943 398.022 403.7 398.679C402.458 399.338 403.547 396.089 405.13 395.112Z" fill="#FFCF83"/>
<path d="M397.101 399.813C397.101 399.813 399.826 398.77 400.942 399.628C402.055 400.484 398.649 400.844 397.101 399.813Z" fill="#FFCF83"/>
<path d="M404.62 399.986C404.62 398.865 403.711 397.956 402.588 397.956C401.467 397.956 400.558 398.865 400.558 399.986C400.558 401.107 401.467 402.016 402.588 402.016C403.711 402.016 404.62 401.107 404.62 399.986Z" fill="#365DA4"/>
<path d="M397.797 415.454C397.797 415.454 399.562 413.655 402.001 413.534C404.437 413.412 405.185 413.534 405.185 413.534C405.185 413.534 403.685 415.119 401.898 415.454C400.111 415.787 397.797 415.454 397.797 415.454Z" fill="#6E9E63"/>
<path d="M398.16 413.707C397.852 413.44 397.621 411.249 395.732 410.7C393.843 410.153 392.503 410.046 392.503 410.046C392.503 410.046 394.139 412.893 395.33 413.321C396.524 413.746 398.16 413.707 398.16 413.707Z" fill="#6E9E63"/>
<path d="M410.614 422.029L410.869 421.963C410.767 421.508 410.512 412.357 413.383 407.018L413.152 406.894C410.242 412.304 410.517 421.652 410.614 422.029Z" fill="#6E9E63"/>
<path d="M413.878 402.116C413.878 402.116 414.78 404.013 414.231 404.861C413.679 405.71 413.227 403.286 413.878 402.116Z" fill="#FFCF83"/>
<path d="M414.44 410.117C414.44 410.117 413.538 408.221 414.088 407.372C414.637 406.521 415.092 408.945 414.44 410.117Z" fill="#FFCF83"/>
<path d="M412.066 402.697C412.066 402.697 413.741 403.964 413.644 404.971C413.547 405.98 412.027 404.037 412.066 402.697Z" fill="#FFCF83"/>
<path d="M416.25 409.54C416.25 409.54 414.575 408.273 414.672 407.264C414.769 406.258 416.289 408.2 416.25 409.54Z" fill="#FFCF83"/>
<path d="M410.739 404.063C410.739 404.063 412.808 404.43 413.178 405.373C413.547 406.314 411.313 405.274 410.739 404.063Z" fill="#FFCF83"/>
<path d="M417.576 408.258C417.576 408.258 415.507 407.891 415.137 406.948C414.765 406.007 417.002 407.047 417.576 408.258Z" fill="#FFCF83"/>
<path d="M410.312 407.387C410.312 407.387 411.967 406.096 412.915 406.451C413.864 406.805 411.595 407.771 410.312 407.387Z" fill="#FFCF83"/>
<path d="M418.16 405.782C418.16 405.782 416.305 406.769 415.432 406.256C414.559 405.746 416.961 405.184 418.16 405.782Z" fill="#FFCF83"/>
<path d="M411.227 408.83C411.227 408.83 412.255 406.999 413.266 406.96C414.278 406.921 412.559 408.689 411.227 408.83Z" fill="#FFCF83"/>
<path d="M417.44 403.762C417.44 403.762 416.412 405.593 415.4 405.632C414.389 405.67 416.11 403.903 417.44 403.762Z" fill="#FFCF83"/>
<path d="M412.58 409.909C412.58 409.909 412.716 407.811 413.611 407.34C414.506 406.865 413.72 409.204 412.58 409.909Z" fill="#FFCF83"/>
<path d="M415.987 402.649C415.987 402.649 415.851 404.745 414.956 405.219C414.062 405.693 414.849 403.355 415.987 402.649Z" fill="#FFCF83"/>
<path d="M410.204 406.036C410.204 406.036 412.166 405.287 412.971 405.902C413.773 406.519 411.32 406.777 410.204 406.036Z" fill="#FFCF83"/>
<path d="M415.618 406.16C415.618 405.353 414.964 404.699 414.155 404.699C413.347 404.699 412.693 405.353 412.693 406.16C412.693 406.967 413.347 407.621 414.155 407.621C414.964 407.621 415.618 406.967 415.618 406.16Z" fill="#365DA4"/>
<path d="M411.117 413.601C411.117 413.601 412.389 412.308 414.144 412.22C415.897 412.133 416.437 412.22 416.437 412.22C416.437 412.22 415.357 413.361 414.071 413.601C412.783 413.842 411.117 413.601 411.117 413.601Z" fill="#6E9E63"/>
<path d="M411.378 412.348C411.157 412.154 410.989 410.576 409.63 410.182C408.271 409.788 407.306 409.71 407.306 409.71C407.306 409.71 408.482 411.762 409.341 412.069C410.199 412.375 411.378 412.348 411.378 412.348Z" fill="#6E9E63"/>
<path d="M403.74 422.029L404.041 421.951C403.92 421.416 403.621 410.646 407 404.366L406.728 404.217C403.302 410.582 403.625 421.586 403.74 422.029Z" fill="#6E9E63"/>
<path d="M407.579 398.597C407.579 398.597 408.644 400.829 407.995 401.829C407.348 402.83 406.813 399.976 407.579 398.597Z" fill="#FFCF83"/>
<path d="M408.245 408.01C408.245 408.01 407.18 405.781 407.829 404.779C408.476 403.78 409.011 406.634 408.245 408.01Z" fill="#FFCF83"/>
<path d="M405.451 399.282C405.451 399.282 407.423 400.773 407.309 401.959C407.194 403.143 405.405 400.858 405.451 399.282Z" fill="#FFCF83"/>
<path d="M410.375 407.331C410.375 407.331 408.403 405.841 408.517 404.654C408.632 403.468 410.421 405.756 410.375 407.331Z" fill="#FFCF83"/>
<path d="M403.891 400.882C403.891 400.882 406.324 401.315 406.76 402.424C407.195 403.532 404.564 402.307 403.891 400.882Z" fill="#FFCF83"/>
<path d="M411.931 405.822C411.931 405.822 409.497 405.389 409.062 404.281C408.627 403.172 411.257 404.397 411.931 405.822Z" fill="#FFCF83"/>
<path d="M403.386 404.796C403.386 404.796 405.336 403.277 406.452 403.692C407.567 404.111 404.898 405.248 403.386 404.796Z" fill="#FFCF83"/>
<path d="M412.619 402.91C412.619 402.91 410.436 404.073 409.41 403.47C408.381 402.867 411.209 402.205 412.619 402.91Z" fill="#FFCF83"/>
<path d="M404.464 406.496C404.464 406.496 405.675 404.339 406.866 404.295C408.055 404.249 406.03 406.328 404.464 406.496Z" fill="#FFCF83"/>
<path d="M411.775 400.529C411.775 400.529 410.565 402.683 409.373 402.73C408.185 402.776 410.21 400.697 411.775 400.529Z" fill="#FFCF83"/>
<path d="M406.058 407.766C406.058 407.766 406.216 405.298 407.268 404.741C408.324 404.184 407.397 406.936 406.058 407.766Z" fill="#FFCF83"/>
<path d="M410.068 399.221C410.068 399.221 409.908 401.688 408.855 402.245C407.803 402.802 408.726 400.05 410.068 399.221Z" fill="#FFCF83"/>
<path d="M403.261 403.204C403.261 403.204 405.57 402.321 406.514 403.048C407.459 403.773 404.574 404.079 403.261 403.204Z" fill="#FFCF83"/>
<path d="M409.632 403.354C409.632 402.403 408.861 401.633 407.91 401.633C406.962 401.633 406.191 402.403 406.191 403.354C406.191 404.305 406.962 405.073 407.91 405.073C408.861 405.073 409.632 404.305 409.632 403.354Z" fill="#365DA4"/>
<path d="M403.854 416.456C403.854 416.456 405.349 414.934 407.415 414.829C409.479 414.727 410.114 414.829 410.114 414.829C410.114 414.829 408.842 416.171 407.328 416.456C405.813 416.74 403.854 416.456 403.854 416.456Z" fill="#6E9E63"/>
<path d="M404.164 414.979C403.903 414.753 403.706 412.895 402.104 412.431C400.505 411.967 399.369 411.877 399.369 411.877C399.369 411.877 400.757 414.289 401.766 414.651C402.778 415.011 404.164 414.979 404.164 414.979Z" fill="#6E9E63"/>
<path d="M412.029 422.029L412.209 421.983C412.139 421.662 411.959 415.199 413.986 411.431L413.821 411.343C411.767 415.16 411.961 421.764 412.029 422.029Z" fill="#6E9E63"/>
<path d="M414.337 407.973C414.337 407.973 414.974 409.31 414.585 409.911C414.196 410.511 413.878 408.8 414.337 407.973Z" fill="#FFCF83"/>
<path d="M414.732 413.619C414.732 413.619 414.095 412.279 414.484 411.681C414.873 411.08 415.192 412.792 414.732 413.619Z" fill="#FFCF83"/>
<path d="M413.057 408.38C413.057 408.38 414.241 409.274 414.171 409.984C414.103 410.697 413.03 409.325 413.057 408.38Z" fill="#FFCF83"/>
<path d="M416.009 413.21C416.009 413.21 414.825 412.316 414.896 411.603C414.964 410.894 416.036 412.265 416.009 413.21Z" fill="#FFCF83"/>
<path d="M412.121 409.342C412.121 409.342 413.582 409.602 413.842 410.268C414.105 410.932 412.527 410.197 412.121 409.342Z" fill="#FFCF83"/>
<path d="M416.948 412.307C416.948 412.307 415.487 412.046 415.227 411.38C414.964 410.716 416.542 411.451 416.948 412.307Z" fill="#FFCF83"/>
<path d="M411.818 411.688C411.818 411.688 412.988 410.776 413.656 411.026C414.327 411.277 412.725 411.96 411.818 411.688Z" fill="#FFCF83"/>
<path d="M417.358 410.558C417.358 410.558 416.05 411.256 415.432 410.894C414.817 410.531 416.512 410.135 417.358 410.558Z" fill="#FFCF83"/>
<path d="M412.463 412.706C412.463 412.706 413.19 411.412 413.905 411.386C414.619 411.356 413.404 412.606 412.463 412.706Z" fill="#FFCF83"/>
<path d="M416.854 409.13C416.854 409.13 416.127 410.424 415.415 410.451C414.7 410.48 415.915 409.23 416.854 409.13Z" fill="#FFCF83"/>
<path d="M413.423 413.471C413.423 413.471 413.518 411.99 414.15 411.657C414.782 411.322 414.228 412.972 413.423 413.471Z" fill="#FFCF83"/>
<path d="M415.83 408.345C415.83 408.345 415.733 409.825 415.1 410.158C414.471 410.494 415.025 408.843 415.83 408.345Z" fill="#FFCF83"/>
<path d="M411.745 410.739C411.745 410.739 413.131 410.209 413.697 410.644C414.264 411.079 412.533 411.261 411.745 410.739Z" fill="#FFCF83"/>
<path d="M415.566 410.825C415.566 410.254 415.104 409.792 414.533 409.792C413.964 409.792 413.502 410.254 413.502 410.825C413.502 411.394 413.964 411.856 414.533 411.856C415.104 411.856 415.566 411.394 415.566 410.825Z" fill="#365DA4"/>
<path d="M412.101 418.687C412.101 418.687 412.998 417.773 414.235 417.712C415.475 417.649 415.857 417.712 415.857 417.712C415.857 417.712 415.093 418.517 414.184 418.687C413.277 418.857 412.101 418.687 412.101 418.687Z" fill="#6E9E63"/>
<path d="M412.283 417.8C412.128 417.662 412.009 416.548 411.048 416.271C410.088 415.991 409.407 415.938 409.407 415.938C409.407 415.938 410.239 417.385 410.844 417.601C411.452 417.82 412.283 417.8 412.283 417.8Z" fill="#6E9E63"/>
<path d="M422.032 422.029L422.331 421.951C422.212 421.416 421.913 410.646 425.29 404.366L425.017 404.217C421.594 410.582 421.915 421.586 422.032 422.029Z" fill="#6E9E63"/>
<path d="M425.869 398.597C425.869 398.597 426.931 400.829 426.285 401.829C425.635 402.83 425.103 399.976 425.869 398.597Z" fill="#FFCF83"/>
<path d="M426.534 408.01C426.534 408.01 425.469 405.781 426.118 404.779C426.765 403.78 427.3 406.634 426.534 408.01Z" fill="#FFCF83"/>
<path d="M423.742 399.282C423.742 399.282 425.714 400.773 425.597 401.959C425.483 403.143 423.696 400.858 423.742 399.282Z" fill="#FFCF83"/>
<path d="M428.665 407.331C428.665 407.331 426.693 405.841 426.808 404.654C426.922 403.468 428.711 405.756 428.665 407.331Z" fill="#FFCF83"/>
<path d="M422.182 400.882C422.182 400.882 424.615 401.315 425.053 402.424C425.488 403.532 422.858 402.307 422.182 400.882Z" fill="#FFCF83"/>
<path d="M430.222 405.822C430.222 405.822 427.789 405.389 427.354 404.281C426.916 403.172 429.546 404.397 430.222 405.822Z" fill="#FFCF83"/>
<path d="M421.677 404.796C421.677 404.796 423.627 403.277 424.743 403.692C425.858 404.111 423.187 405.248 421.677 404.796Z" fill="#FFCF83"/>
<path d="M430.907 402.91C430.907 402.91 428.726 404.073 427.698 403.47C426.672 402.867 429.497 402.205 430.907 402.91Z" fill="#FFCF83"/>
<path d="M422.749 406.496C422.749 406.496 423.962 404.339 425.151 404.295C426.342 404.249 424.317 406.328 422.749 406.496Z" fill="#FFCF83"/>
<path d="M430.066 400.529C430.066 400.529 428.855 402.683 427.664 402.73C426.472 402.776 428.498 400.697 430.066 400.529Z" fill="#FFCF83"/>
<path d="M424.346 407.766C424.346 407.766 424.504 405.298 425.556 404.741C426.609 404.184 425.685 406.936 424.346 407.766Z" fill="#FFCF83"/>
<path d="M428.356 399.221C428.356 399.221 428.198 401.688 427.146 402.245C426.09 402.802 427.017 400.05 428.356 399.221Z" fill="#FFCF83"/>
<path d="M421.552 403.204C421.552 403.204 423.861 402.321 424.805 403.048C425.751 403.773 422.862 404.079 421.552 403.204Z" fill="#FFCF83"/>
<path d="M427.922 403.354C427.922 402.403 427.151 401.633 426.201 401.633C425.25 401.633 424.479 402.403 424.479 403.354C424.479 404.305 425.25 405.073 426.201 405.073C427.151 405.073 427.922 404.305 427.922 403.354Z" fill="#365DA4"/>
<path d="M422.624 412.113C422.624 412.113 424.119 410.591 426.183 410.487C428.25 410.385 428.884 410.487 428.884 410.487C428.884 410.487 427.613 411.829 426.098 412.113C424.584 412.398 422.624 412.113 422.624 412.113Z" fill="#6E9E63"/>
<path d="M422.932 410.631C422.672 410.405 422.475 408.548 420.873 408.083C419.273 407.619 418.138 407.529 418.138 407.529C418.138 407.529 419.526 409.941 420.535 410.303C421.544 410.665 422.932 410.631 422.932 410.631Z" fill="#6E9E63"/>
<path d="M416.494 422.029L416.793 421.946C416.674 421.367 416.374 409.714 419.751 402.919L419.479 402.759C416.056 409.644 416.377 421.55 416.494 422.029Z" fill="#6E9E63"/>
<path d="M420.331 396.677C420.331 396.677 421.393 399.091 420.747 400.173C420.097 401.255 419.565 398.167 420.331 396.677Z" fill="#FFCF83"/>
<path d="M420.996 406.86C420.996 406.86 419.931 404.446 420.58 403.364C421.227 402.282 421.761 405.369 420.996 406.86Z" fill="#FFCF83"/>
<path d="M418.202 397.414C418.202 397.414 420.174 399.028 420.057 400.31C419.943 401.593 418.156 399.118 418.202 397.414Z" fill="#FFCF83"/>
<path d="M423.125 406.126C423.125 406.126 421.153 404.512 421.267 403.231C421.382 401.947 423.171 404.42 423.125 406.126Z" fill="#FFCF83"/>
<path d="M416.642 399.15C416.642 399.15 419.075 399.62 419.513 400.821C419.948 402.019 417.317 400.692 416.642 399.15Z" fill="#FFCF83"/>
<path d="M424.682 404.496C424.682 404.496 422.249 404.027 421.813 402.828C421.376 401.63 424.006 402.955 424.682 404.496Z" fill="#FFCF83"/>
<path d="M416.139 403.386C416.139 403.386 418.089 401.743 419.204 402.192C420.32 402.645 417.648 403.875 416.139 403.386Z" fill="#FFCF83"/>
<path d="M425.369 401.339C425.369 401.339 423.188 402.599 422.16 401.947C421.134 401.295 423.959 400.578 425.369 401.339Z" fill="#FFCF83"/>
<path d="M417.213 405.219C417.213 405.219 418.426 402.887 419.615 402.839C420.806 402.79 418.781 405.039 417.213 405.219Z" fill="#FFCF83"/>
<path d="M424.531 398.774C424.531 398.774 423.317 401.105 422.129 401.154C420.937 401.202 422.962 398.953 424.531 398.774Z" fill="#FFCF83"/>
<path d="M418.807 406.598C418.807 406.598 418.967 403.928 420.02 403.328C421.073 402.725 420.149 405.701 418.807 406.598Z" fill="#FFCF83"/>
<path d="M422.818 397.354C422.818 397.354 422.66 400.024 421.607 400.624C420.552 401.227 421.479 398.251 422.818 397.354Z" fill="#FFCF83"/>
<path d="M416.017 401.661C416.017 401.661 418.324 400.705 419.27 401.49C420.215 402.276 417.327 402.606 416.017 401.661Z" fill="#FFCF83"/>
<path d="M422.384 401.823C422.384 400.795 421.613 399.963 420.663 399.963C419.712 399.963 418.941 400.795 418.941 401.823C418.941 402.851 419.712 403.685 420.663 403.685C421.613 403.685 422.384 402.851 422.384 401.823Z" fill="#365DA4"/>
<path d="M416.603 415.999C416.603 415.999 418.1 414.351 420.164 414.241C422.228 414.129 422.865 414.241 422.865 414.241C422.865 414.241 421.594 415.693 420.079 415.999C418.565 416.305 416.603 415.999 416.603 415.999Z" fill="#6E9E63"/>
<path d="M416.914 414.397C416.651 414.151 416.454 412.143 414.854 411.64C413.255 411.139 412.119 411.042 412.119 411.042C412.119 411.042 413.505 413.65 414.516 414.042C415.525 414.433 416.914 414.397 416.914 414.397Z" fill="#6E9E63"/>
<path d="M423.698 422.029L423.912 421.975C423.827 421.596 423.616 413.991 426.001 409.556L425.809 409.452C423.389 413.947 423.618 421.718 423.698 422.029Z" fill="#6E9E63"/>
<path d="M426.409 405.485C426.409 405.485 427.161 407.061 426.703 407.766C426.246 408.473 425.87 406.458 426.409 405.485Z" fill="#FFCF83"/>
<path d="M426.879 412.129C426.879 412.129 426.128 410.553 426.585 409.848C427.042 409.141 427.419 411.156 426.879 412.129Z" fill="#FFCF83"/>
<path d="M424.908 405.962C424.908 405.962 426.299 407.015 426.218 407.851C426.138 408.69 424.874 407.076 424.908 405.962Z" fill="#FFCF83"/>
<path d="M428.385 411.649C428.385 411.649 426.991 410.596 427.072 409.76C427.154 408.921 428.416 410.535 428.385 411.649Z" fill="#FFCF83"/>
<path d="M423.805 407.096C423.805 407.096 425.524 407.402 425.83 408.185C426.139 408.968 424.281 408.102 423.805 407.096Z" fill="#FFCF83"/>
<path d="M429.482 410.586C429.482 410.586 427.763 410.28 427.456 409.497C427.148 408.714 429.005 409.58 429.482 410.586Z" fill="#FFCF83"/>
<path d="M423.449 409.857C423.449 409.857 424.828 408.785 425.616 409.079C426.403 409.373 424.517 410.176 423.449 409.857Z" fill="#FFCF83"/>
<path d="M429.967 408.529C429.967 408.529 428.425 409.351 427.701 408.925C426.974 408.5 428.97 408.033 429.967 408.529Z" fill="#FFCF83"/>
<path d="M424.209 411.061C424.209 411.061 425.065 409.539 425.904 409.508C426.745 409.474 425.315 410.942 424.209 411.061Z" fill="#FFCF83"/>
<path d="M429.372 406.852C429.372 406.852 428.516 408.374 427.677 408.405C426.836 408.437 428.266 406.968 429.372 406.852Z" fill="#FFCF83"/>
<path d="M425.336 411.955C425.336 411.955 425.448 410.214 426.192 409.82C426.936 409.426 426.284 411.371 425.336 411.955Z" fill="#FFCF83"/>
<path d="M428.165 405.925C428.165 405.925 428.053 407.668 427.309 408.062C426.565 408.454 427.219 406.511 428.165 405.925Z" fill="#FFCF83"/>
<path d="M423.361 408.736C423.361 408.736 424.993 408.113 425.659 408.626C426.327 409.137 424.288 409.353 423.361 408.736Z" fill="#FFCF83"/>
<path d="M427.86 408.843C427.86 408.172 427.318 407.63 426.647 407.63C425.976 407.63 425.432 408.172 425.432 408.843C425.432 409.514 425.976 410.059 426.647 410.059C427.318 410.059 427.86 409.514 427.86 408.843Z" fill="#365DA4"/>
<path d="M423.778 418.096C423.778 418.096 424.836 417.021 426.295 416.948C427.753 416.875 428.201 416.948 428.201 416.948C428.201 416.948 427.304 417.894 426.234 418.096C425.164 418.295 423.778 418.096 423.778 418.096Z" fill="#6E9E63"/>
<path d="M423.997 417.051C423.814 416.891 423.673 415.578 422.545 415.25C421.415 414.924 420.612 414.861 420.612 414.861C420.612 414.861 421.592 416.562 422.304 416.818C423.019 417.073 423.997 417.051 423.997 417.051Z" fill="#6E9E63"/>
<path d="M73.8025 307.23V423.3H48.198C48.1854 423.266 48.1727 423.225 48.1572 423.184C48.1477 423.159 48.1382 423.135 48.129 423.108C48.0444 422.887 47.9315 422.585 47.7874 422.204L47.731 422.089C47.731 422.089 47.731 422.089 47.731 422.034C47.731 422.034 47.6746 421.975 47.6746 421.919C47.4458 421.46 47.2734 420.944 47.0446 420.317C46.9286 420.028 46.8158 419.685 46.6435 419.342C46.6435 419.286 46.6435 419.286 46.6435 419.225C46.5871 419.17 46.5871 419.17 46.5871 419.17C45.8003 417.127 44.8256 414.468 43.7007 411.251C43.6003 410.959 43.4969 410.665 43.3904 410.368C42.5473 407.94 41.6198 405.219 40.6324 402.224C40.178 400.816 39.711 399.348 39.2316 397.821C37.2447 391.473 35.0821 384.14 32.9606 376.061C31.9293 372.11 30.8984 367.989 29.9238 363.693C29.3502 361.213 28.7735 358.631 28.2219 356.025C28.0621 355.259 27.9053 354.496 27.7488 353.73C26.7366 348.848 25.7838 343.818 24.9251 338.681C23.7936 331.929 22.8221 324.993 22.0825 317.947C21.7159 314.492 21.4056 311.006 21.1581 307.507C21.1518 307.415 21.1423 307.322 21.1392 307.23H73.8025Z" fill="#FFF3E9"/>
<path d="M52.7578 259.01L79.8828 314.849H162.29L119.326 259.215L52.7578 259.01Z" fill="#16A086"/>
<path d="M159.037 314.848L156.588 311.678L116.074 259.214L49.5059 259.009L73.8013 309.025V423.291H156.588V314.848H159.037Z" fill="#F9DDBF"/>
<path d="M115.333 286.928H117.065C122.944 286.928 127.71 291.693 127.71 297.572V324.622H105.033V297.227C105.033 291.538 109.645 286.928 115.333 286.928Z" fill="#EFCDAF"/>
<path d="M119.545 259.014L119.36 259.262L117.756 261.399L79.0076 313.053L75.3344 317.95H22.082C21.7154 314.495 21.4052 311.008 21.1577 307.51C21.1513 307.417 21.1419 307.325 21.1387 307.233C21.1295 307.14 21.1231 307.045 21.1168 306.951C20.7784 302.02 20.5652 297.053 20.5024 292.088L46.0318 259.026H56.8535L94.6553 259.019L119.545 259.014Z" fill="#16A086"/>
<path d="M125.059 330.446L144.37 370.199H203.039L172.452 330.592L125.059 330.446Z" fill="#16A086"/>
<path d="M201.28 370.2L170.693 330.592L123.3 330.447L142.611 370.2H142.739V423.184L201.28 423.298V370.2H201.28Z" fill="#F9DDBF"/>
<path d="M93.168 370.198V423.182H142.74V370.198H93.168Z" fill="#FFF3E9"/>
<path d="M87.7207 372.547H140.974L172.453 330.586L156.59 330.589L120.114 330.598L87.7207 372.547Z" fill="#16A086"/>
<path d="M160.118 379.025V423.298H184.781V379.434C184.781 375.78 183.218 372.49 180.723 370.2C178.493 368.148 175.516 366.898 172.246 366.898C169.027 366.898 166.099 368.155 163.931 370.2C161.582 372.41 160.118 375.546 160.118 379.025Z" fill="#EFCDAF"/>
<path d="M175.218 352.659C175.218 351.13 173.979 349.893 172.45 349.893C170.922 349.893 169.683 351.13 169.683 352.659C169.683 354.189 170.922 355.426 172.45 355.426C173.979 355.426 175.218 354.189 175.218 352.659Z" fill="#EFCDAF"/>
<path d="M87.7207 372.547H97.8277L156.59 330.589L120.114 330.598L87.7207 372.547Z" fill="#0E6656"/>
<path d="M78.4324 298.166H29.7622L55.4367 266.679H104.107L78.4324 298.166Z" fill="#0C5144"/>
<path d="M97.4798 274.972H48.8096L49.1115 274.6H97.7817L97.4798 274.972Z" fill="#AEC3FF"/>
<path d="M66.8768 266.677L41.2018 298.164H40.8315L66.5063 266.677H66.8768Z" fill="#AEC3FF"/>
<path d="M79.7716 266.677L54.0968 298.164H53.7266L79.4013 266.677H79.7716Z" fill="#AEC3FF"/>
<path d="M92.1807 266.677L66.506 298.164H66.1357L91.8105 266.677H92.1807Z" fill="#AEC3FF"/>
<path d="M91.1185 282.606H42.4482L42.7502 282.237H91.4204L91.1185 282.606Z" fill="#AEC3FF"/>
<path d="M84.4017 290.846H35.7314L36.0336 290.476H84.7036L84.4017 290.846Z" fill="#AEC3FF"/>
<path d="M58.7762 276.328L58.4961 274.811L61.2492 273.294L61.5291 274.811L58.7762 276.328Z" fill="#AEC3FF"/>
<path d="M71.5357 276.328L71.2559 274.811L74.009 273.294L74.2888 274.811L71.5357 276.328Z" fill="#AEC3FF"/>
<path d="M84.1268 276.328L83.8467 274.811L86.6001 273.294L86.8799 274.811L84.1268 276.328Z" fill="#AEC3FF"/>
<path d="M52.5701 283.941L52.29 282.424L55.0434 280.907L55.3233 282.424L52.5701 283.941Z" fill="#AEC3FF"/>
<path d="M65.3277 283.941L65.0479 282.424L67.801 280.907L68.0811 282.424L65.3277 283.941Z" fill="#AEC3FF"/>
<path d="M77.9234 283.941L77.6436 282.424L80.3967 280.907L80.6768 282.424L77.9234 283.941Z" fill="#AEC3FF"/>
<path d="M45.8563 292.176L45.5762 290.659L48.3293 289.141L48.6092 290.659L45.8563 292.176Z" fill="#AEC3FF"/>
<path d="M58.6138 292.176L58.334 290.659L61.0869 289.141L61.367 290.659L58.6138 292.176Z" fill="#AEC3FF"/>
<path d="M71.2068 292.176L70.9268 290.659L73.6801 289.141L73.96 290.659L71.2068 292.176Z" fill="#AEC3FF"/>
<path d="M678.344 381.755C677.989 385.382 677.376 389.168 676.479 393.123C676.46 393.204 676.443 393.286 676.421 393.369C656.293 400.663 635.544 410.337 617.072 423.11H567.124C574.364 418.454 609.647 398.919 678.344 381.755Z" fill="#6E9E63"/>
<path d="M567.401 371.121C567.401 371.121 605.729 367.761 616.147 371.121C626.568 374.484 631.778 390.112 630.287 401.522C628.799 412.934 625.328 422.608 618.63 422.36C611.931 422.112 564.549 422.36 564.549 422.36L567.401 371.121Z" fill="#EDBD77"/>
<path d="M575.23 370.536C575.23 370.536 583.344 369.026 588.863 368.467C588.863 368.467 584.52 369.357 583.983 369.812C583.983 369.812 595.767 368.034 600.066 368.467C604.367 368.902 610.258 369.629 610.258 369.629L616.812 369.192C616.812 369.192 611.354 369.853 611.643 369.936C611.933 370.018 616.977 370.638 618.589 371.672C618.589 371.672 623.59 373.242 624.668 374.193C624.668 374.193 620.656 372.168 619.085 372.292C619.085 372.292 628.173 378.596 628.198 384.601C628.222 390.609 589.11 375.559 589.11 375.559L575.23 370.536Z" fill="#EDBD77"/>
<path d="M572.883 370.82C572.883 370.82 557.627 369.661 547.953 381.941C538.279 394.219 546.093 422.652 558.743 422.761C571.395 422.871 586.977 420.926 590.349 404.41C593.721 387.895 586.651 371.236 572.883 370.82Z" fill="#FFCF83"/>
<path d="M541.646 395.319C541.646 395.319 547.104 389.037 547.682 387.298L548.509 389.037L541.646 395.319Z" fill="#FFCF83"/>
<path d="M545.583 386.017C545.583 386.017 546.276 381.509 548.26 379.856C548.26 379.856 546.456 382.878 546.923 385.397C547.387 387.916 545.583 386.017 545.583 386.017Z" fill="#FFCF83"/>
<path d="M548.26 417.891C548.36 418.134 545.326 409.644 546.318 408.032L546.894 408.037C546.894 408.037 547.288 415.535 548.26 417.891Z" fill="#FFCF83"/>
<path d="M545.822 406.853C545.822 406.853 543.548 406.109 542.265 406.853C542.265 406.853 544.373 406.263 545.656 407.515C546.938 408.767 545.822 406.853 545.822 406.853Z" fill="#FFCF83"/>
<path d="M566.848 422.331C563.342 422.331 559.119 421.736 555.513 419.53C551.618 417.145 549.073 413.299 547.95 408.101C546.036 399.254 546.977 391.992 550.741 386.524C554.261 381.408 560.203 378.08 567.927 376.894C573.14 376.091 577.655 377.776 580.98 381.766C585.785 387.528 587.166 397.263 584.338 405.439C582.34 411.216 577.001 414.785 570.059 414.986C569.86 414.991 569.663 414.994 569.466 414.994C562.474 414.994 556.17 411.42 554.003 406.166C551.798 400.81 551.912 395.57 554.327 391.413C556.777 387.192 561.406 384.445 567.363 383.682C572.753 382.986 575.661 385.498 577.151 387.725C580.025 392.021 580.018 399.001 578.092 402.371C576.235 405.616 571.097 408.123 566.639 407.967C563.417 407.851 560.962 406.36 559.719 403.771C558.119 400.44 558.224 397 560.006 394.333C561.441 392.186 563.757 390.876 565.907 390.992C568.374 391.126 569.427 393.188 569.58 394.914C569.712 396.434 569.194 398.123 567.947 398.415C565.625 398.957 564.803 397.69 564.769 397.635C564.769 397.635 563.514 395.566 565.073 395.269C566.86 394.929 566.391 396.314 566.391 396.314C566.415 396.353 565.948 398.225 567.801 397.793C568.564 397.615 569.067 396.375 568.943 394.97C568.81 393.429 567.93 391.741 565.873 391.629C563.94 391.52 561.847 392.723 560.536 394.688C558.883 397.163 558.795 400.372 560.293 403.496C561.749 406.528 564.56 407.253 566.66 407.328C570.905 407.474 575.787 405.116 577.538 402.055C579.159 399.215 579.595 392.527 576.621 388.08C574.628 385.101 571.455 383.798 567.443 384.314C561.691 385.053 557.227 387.688 554.879 391.734C552.566 395.716 552.464 400.754 554.594 405.923C556.721 411.084 563.077 414.549 570.04 414.347C576.706 414.155 581.827 410.746 583.735 405.23C586.495 397.255 585.16 387.773 580.489 382.174C578.277 379.519 574.316 376.558 568.024 377.523C560.478 378.683 554.684 381.919 551.266 386.884C547.604 392.203 546.7 399.298 548.572 407.967C549.659 412.988 552.105 416.696 555.846 418.986C563.407 423.612 575.333 420.812 575.437 420.785L574.088 421.512C574.03 421.529 570.92 422.331 566.848 422.331Z" fill="#EDBD77"/>
<path d="M626.693 353.326C626.693 353.326 678.231 348.806 692.242 353.326C706.251 357.843 713.256 378.859 711.255 394.203C709.254 409.546 704.583 422.556 695.578 422.223C686.57 421.89 622.859 422.223 622.859 422.223L626.693 353.326Z" fill="#EDBD77"/>
<path d="M637.218 352.533C637.218 352.533 648.127 350.5 655.549 349.752C655.549 349.752 649.712 350.945 648.987 351.558C648.987 351.558 664.832 349.168 670.613 349.752C676.397 350.335 684.318 351.315 684.318 351.315L693.132 350.724C693.132 350.724 685.792 351.614 686.181 351.726C686.57 351.835 693.353 352.669 695.522 354.06C695.522 354.06 702.249 356.173 703.693 357.451C703.693 357.451 698.3 354.726 696.188 354.894C696.188 354.894 708.41 363.371 708.441 371.446C708.475 379.522 655.882 359.285 655.882 359.285L637.218 352.533Z" fill="#EDBD77"/>
<path d="M634.065 352.918C634.065 352.918 613.55 351.357 600.543 367.868C587.533 384.381 598.041 422.612 615.052 422.758C632.064 422.906 653.016 420.293 657.551 398.083C662.082 375.874 652.576 353.477 634.065 352.918Z" fill="#FFCF83"/>
<path d="M592.06 385.861C592.06 385.861 599.397 377.41 600.175 375.076L601.289 377.41L592.06 385.861Z" fill="#FFCF83"/>
<path d="M597.354 373.348C597.354 373.348 598.286 367.29 600.953 365.067C600.953 365.067 598.529 369.128 599.154 372.517C599.781 375.903 597.354 373.348 597.354 373.348Z" fill="#FFCF83"/>
<path d="M600.952 416.216C601.086 416.542 597.006 405.125 598.341 402.956L599.116 402.964C599.116 402.964 599.646 413.048 600.952 416.216Z" fill="#FFCF83"/>
<path d="M597.674 401.368C597.674 401.368 594.616 400.367 592.895 401.368C592.895 401.368 595.727 400.576 597.453 402.256C599.177 403.938 597.674 401.368 597.674 401.368Z" fill="#FFCF83"/>
<path d="M625.949 422.178C621.232 422.178 615.555 421.378 610.709 418.412C605.47 415.205 602.047 410.037 600.537 403.047C597.965 391.146 599.229 381.384 604.291 374.03C609.022 367.152 617.014 362.676 627.4 361.081C634.409 360.001 640.48 362.27 644.951 367.631C651.413 375.381 653.271 388.471 649.466 399.465C646.78 407.233 639.602 412.033 630.266 412.302C629.999 412.31 629.734 412.312 629.469 412.312C620.065 412.312 611.59 407.506 608.679 400.44C605.711 393.239 605.866 386.196 609.112 380.604C612.409 374.929 618.633 371.236 626.641 370.208C633.889 369.274 637.801 372.651 639.802 375.644C643.668 381.423 643.658 390.808 641.066 395.34C638.572 399.704 631.664 403.073 625.667 402.864C621.336 402.709 618.032 400.705 616.362 397.224C614.213 392.743 614.352 388.119 616.749 384.533C618.677 381.644 621.791 379.882 624.684 380.04C628.003 380.22 629.418 382.991 629.622 385.311C629.8 387.355 629.104 389.629 627.427 390.02C624.305 390.747 623.199 389.045 623.153 388.972C623.153 388.972 621.468 386.188 623.563 385.79C625.966 385.333 625.333 387.195 625.333 387.195C625.367 387.246 624.74 389.767 627.232 389.184C628.258 388.945 628.932 387.278 628.766 385.386C628.586 383.315 627.405 381.046 624.636 380.896C622.039 380.747 619.224 382.369 617.461 385.009C615.239 388.338 615.12 392.653 617.135 396.852C619.092 400.929 622.871 401.904 625.696 402.006C631.407 402.201 637.969 399.028 640.322 394.912C642.503 391.097 643.091 382.101 639.089 376.123C636.41 372.116 632.143 370.366 626.751 371.059C619.015 372.053 613.014 375.595 609.854 381.037C606.744 386.39 606.608 393.166 609.472 400.115C612.331 407.056 620.879 411.714 630.242 411.444C639.206 411.184 646.089 406.601 648.656 399.183C652.366 388.459 650.572 375.71 644.292 368.18C641.316 364.611 635.992 360.631 627.531 361.927C617.383 363.485 609.591 367.84 604.996 374.516C600.075 381.669 598.855 391.207 601.376 402.864C602.835 409.616 606.124 414.6 611.157 417.68C621.322 423.902 637.358 420.136 637.497 420.099L635.683 421.079C635.605 421.099 631.426 422.178 625.949 422.178Z" fill="#EDBD77"/>
<path d="M253.611 373.286C253.611 373.286 244.766 407.416 245.558 410.112C246.354 412.808 250.795 421.974 250.795 421.974H246.521C246.521 421.974 244.793 421.128 244.863 419.013C244.934 416.898 238.941 408.649 238.941 408.649C238.941 408.649 241.292 395.546 238.941 390.385C228.814 368.158 245.775 368.37 253.611 373.286Z" fill="#CCA283"/>
<path d="M299.044 385.097C299.044 385.097 296.505 403.431 296.364 404.559C296.223 405.687 295.025 407.097 295.095 408.931C295.166 410.764 295.8 416.968 297.774 418.519C299.749 420.071 299.96 421.974 299.96 421.974H294.599C294.599 421.974 293.683 420.141 293.824 418.872C293.967 417.603 292.343 416.263 292.272 413.654C292.202 411.046 292.272 406.181 291.567 404.489C290.862 402.794 291.074 391.161 288.747 388.552C286.42 385.943 299.044 385.097 299.044 385.097Z" fill="#CCA283"/>
<path d="M240.738 378.964C240.682 379.81 240.653 380.598 240.653 381.383C240.796 401.232 260.441 395.287 261.141 394.762C261.9 394.237 263.268 394.295 263.268 394.295C273.091 398.202 286.847 394.616 289.703 393.449C292.56 392.285 300.168 395.171 303.693 394.908C305.122 394.791 306.316 393.303 307.221 391.439C308.502 388.786 309.231 385.378 309.348 384.181C309.406 383.513 310.311 380.948 311.534 377.799C312.03 376.574 312.584 375.234 313.167 373.866C313.282 373.632 313.369 373.37 313.486 373.136C313.197 372.815 312.934 372.465 312.671 372.115C311.125 370.075 310.048 367.685 308.852 365.295C307.629 362.789 306.316 360.224 304.364 357.921C301.478 357.017 298.04 358.651 296.611 358.563C294.95 358.505 293.319 358.213 291.831 357.98C291.221 357.863 290.666 357.776 290.141 357.688C287.226 357.25 269.565 359.526 257.091 359.874C254.526 359.961 252.194 359.932 250.242 359.815C250.096 359.815 249.95 359.786 249.804 359.786C244.587 359.494 241.818 359.815 240.361 360.282C238.757 360.778 238.727 361.391 238.727 361.391C233.743 366.258 240.738 378.964 240.738 378.964Z" fill="#EFCDAF"/>
<path d="M305.464 385.097C305.464 385.097 302.926 403.431 302.785 404.559C302.644 405.687 301.446 407.097 301.516 408.931C301.587 410.764 302.221 416.968 304.195 418.519C306.17 420.071 306.381 421.974 306.381 421.974H301.023C301.023 421.974 300.106 420.141 300.247 418.872C300.388 417.603 298.766 416.263 298.696 413.654C298.625 411.046 298.696 406.181 297.991 404.489C297.286 402.794 297.497 391.161 295.171 388.552C292.841 385.943 305.464 385.097 305.464 385.097Z" fill="#EFCDAF"/>
<path d="M259.128 380.92C259.128 380.92 251.99 407.416 252.783 410.112C253.575 412.808 258.017 421.974 258.017 421.974H253.743C253.743 421.974 252.017 421.128 252.087 419.013C252.158 416.898 246.162 408.649 246.162 408.649C246.162 408.649 245.678 393.691 242.153 389.25C238.628 384.808 251.292 376.004 259.128 380.92Z" fill="#EFCDAF"/>
<path d="M331.855 387.699C332.144 388.088 332.399 388.363 332.399 388.363C332.44 388.346 332.988 388.453 333.668 388.426C334.218 388.404 334.855 388.295 335.377 387.961C335.725 387.738 336.022 387.419 336.214 386.965C336.214 386.965 335.971 386.34 334.702 386.175C333.766 386.053 332.846 385.404 332.064 385.321H332.061C331.782 385.294 331.514 385.338 331.273 385.508C330.685 385.922 331.327 386.994 331.855 387.699Z" fill="#EFCDAF"/>
<path d="M333.205 390.172C333.241 390.155 333.686 390.241 334.27 390.238C335.203 390.236 336.502 390.01 337.022 388.774C337.022 388.774 336.779 388.15 335.51 387.984C335.466 387.979 335.42 387.972 335.376 387.962C334.559 387.817 333.754 387.304 333.052 387.16C332.699 387.09 332.373 387.111 332.082 387.316C331.943 387.411 331.872 387.542 331.853 387.7C331.739 388.575 333.205 390.172 333.205 390.172Z" fill="#EFCDAF"/>
<path d="M304.13 363.401C304.48 372.494 306.169 389.894 307.22 391.438C309.785 391.555 311.854 391.788 313.543 392.138C318.79 393.215 320.249 395.197 320.742 396.13C321.676 397.997 326.047 402.252 326.806 402.398C327.594 402.541 328.058 403.563 328.875 405.226C329.663 406.857 331.236 407.003 332.546 407.09C333.859 407.149 334.938 405.573 334.965 405.196C334.994 404.788 334.297 403.563 334.413 401.931C334.501 400.297 333.45 395.432 334.326 394.12C334.88 393.274 334.559 391.467 334.267 390.244C334.092 389.515 333.917 389.019 333.917 389.019C333.859 388.844 333.771 388.64 333.655 388.435C333.48 388.059 333.275 387.621 333.042 387.154C332.779 386.6 332.432 385.987 332.053 385.318C330.477 382.52 328.116 378.876 325.029 375.059C321.938 371.21 318.148 367.247 313.66 363.751C310.833 361.536 307.716 359.525 304.363 357.921C304.071 358.037 304.013 360.223 304.13 363.401Z" fill="#EFCDAF"/>
<path d="M300.06 380.596C299.875 380.127 299.97 372.147 294.21 370.509C288.451 368.87 285.3 371.391 278.113 368.493C270.926 365.593 263.36 363.198 262.604 366.349C261.848 369.5 263.236 378.328 262.604 382.361C261.975 386.395 275.619 387.824 281.215 385.344C286.812 382.864 302.083 385.765 300.06 380.596Z" fill="#0C5144"/>
<path d="M238.724 361.398C238.724 361.398 234.994 364.583 234.364 370.258C233.735 375.93 235.5 400.857 235.5 400.857L236.939 400.777L238.483 373.199L238.724 361.398Z" fill="#0C5144"/>
<path d="M237.18 404.032C237.18 404.032 234.07 400.686 236.003 399.93C237.936 399.172 237.18 401.442 237.18 402.325C237.18 403.208 237.18 404.032 237.18 404.032Z" fill="#2B478B"/>
<path d="M240.361 360.284C243.974 362.061 247.969 363.695 250.329 363.753C255.486 363.841 268.019 360.867 273.12 360.546C278.221 360.225 298.884 365.005 303.751 363.461C303.868 363.403 303.985 363.403 304.131 363.403C305.21 363.316 306.841 364.072 308.852 365.297C309.99 366.026 311.242 366.899 312.555 367.891C321.035 374.302 332.053 385.321 332.053 385.321C330.478 382.522 328.117 378.878 325.03 375.061C321.939 371.212 318.149 367.249 313.661 363.753C310.834 361.538 307.717 359.528 304.364 357.923C301.478 357.019 298.04 358.652 296.611 358.565C294.95 358.507 293.319 358.215 291.831 357.981C291.221 357.865 290.666 357.777 290.141 357.69C287.226 357.252 269.566 359.528 257.091 359.875C254.526 359.963 252.194 359.934 250.242 359.817C250.096 359.817 249.95 359.788 249.804 359.788C244.587 359.496 241.818 359.817 240.361 360.284Z" fill="#FFE7D7"/>
<path d="M257.096 359.876C259.349 361.716 263.677 362.448 269.792 361.31C277.231 359.922 278.996 363.202 285.174 363.452C290.625 363.673 291.658 359.069 291.826 357.977C291.226 357.88 290.657 357.783 290.129 357.702C287.233 357.262 269.556 359.518 257.096 359.876Z" fill="#0C5144"/>
<path d="M312.672 372.114C312.788 372.698 312.963 373.279 313.168 373.865C313.428 374.504 313.749 375.117 314.128 375.759C317.422 381.005 314.303 387.3 313.545 392.138C318.791 393.215 320.25 395.197 320.743 396.13C321.677 397.997 326.048 402.252 326.807 402.398C327.595 402.541 328.059 403.563 328.876 405.226C329.664 406.857 331.237 407.003 332.547 407.09C333.86 407.149 334.94 405.573 334.966 405.196C334.995 404.788 334.298 403.563 334.414 401.931C334.502 400.297 333.452 395.432 334.327 394.12C334.881 393.274 334.56 391.467 334.268 390.244C335.2 390.244 336.513 390.011 337.038 388.785C337.038 388.785 336.775 388.144 335.521 387.969H335.375C335.725 387.738 336.017 387.417 336.221 386.95C336.221 386.95 335.958 386.337 334.706 386.162C333.773 386.045 332.839 385.406 332.054 385.318C330.478 382.52 328.117 378.876 325.03 375.059C321.94 371.21 318.149 367.247 313.661 363.751C313.197 364.915 312.759 366.345 312.555 367.889C312.38 369.228 312.38 370.687 312.672 372.114Z" fill="#0C5144"/>
<path d="M240.732 378.958C240.676 379.804 240.654 380.608 240.659 381.374C247.058 386.122 258.283 383.728 259.127 378.017C260.097 371.438 251.257 370.509 251.906 365.09C252.168 362.88 251.128 361.107 249.803 359.787C238.826 359.136 238.721 361.399 238.721 361.399C233.752 366.266 240.732 378.958 240.732 378.958Z" fill="#0C5144"/>
<path d="M409.999 298.977H395.942L390.972 288.294L386.265 287.941C386.265 287.91 386.268 287.88 386.268 287.849C386.268 287.044 385.91 286.322 385.349 285.831L406.367 260.884L383.027 281.267L383.856 285.189C383.768 285.179 383.683 285.177 383.596 285.177C382.12 285.177 380.924 286.373 380.924 287.849C380.924 287.946 380.929 288.046 380.938 288.14L347.971 289.636L378.779 292.957L381.364 289.317C381.665 289.774 382.103 290.134 382.618 290.336L382.178 298.977H264.987L277.661 283.937L260.441 298.977H183.835C175.829 298.977 169.339 292.485 169.339 284.479V143.797C169.339 135.791 175.829 129.3 183.835 129.3H409.999C418.005 129.3 424.494 135.791 424.494 143.797V284.479C424.494 292.485 418.005 298.977 409.999 298.977ZM392.431 298.977H384.619L384.821 290.222C385.273 289.988 385.65 289.631 385.905 289.191L392.431 298.977Z" fill="#EDF5FF"/>
<path d="M384.62 298.977H382.179L382.619 290.336C382.923 290.455 383.251 290.521 383.596 290.521C384.036 290.521 384.454 290.414 384.822 290.222L384.62 298.977Z" fill="#DAE7FF"/>
<path d="M385.349 285.83C384.941 285.475 384.423 285.242 383.856 285.188L383.027 281.267L406.367 260.883L385.349 285.83Z" fill="#DAE7FF"/>
<path d="M395.941 298.977H392.43L385.904 289.191C386.118 288.824 386.247 288.396 386.264 287.941L390.971 288.294L395.941 298.977Z" fill="#DAE7FF"/>
<path d="M378.778 292.958L347.969 289.637L380.936 288.142C380.983 288.575 381.133 288.976 381.362 289.319L378.778 292.958Z" fill="#DAE7FF"/>
<path d="M383.597 290.522C383.252 290.522 382.923 290.457 382.619 290.338C382.104 290.136 381.666 289.776 381.365 289.319C381.136 288.976 380.986 288.575 380.939 288.142C380.93 288.047 380.925 287.948 380.925 287.85C380.925 286.375 382.121 285.179 383.597 285.179C383.684 285.179 383.769 285.181 383.857 285.191C384.423 285.244 384.941 285.478 385.35 285.833C385.911 286.324 386.269 287.046 386.269 287.85C386.269 287.882 386.266 287.911 386.266 287.943C386.249 288.398 386.12 288.825 385.906 289.193C385.651 289.633 385.274 289.99 384.822 290.223C384.455 290.415 384.037 290.522 383.597 290.522Z" fill="#DAE7FF"/>
<path d="M264.989 298.977H260.442L277.663 283.937L264.989 298.977Z" fill="#DAE7FF"/>
<path d="M262.743 184.547C262.743 204.824 246.308 221.259 226.029 221.259C205.75 221.259 189.316 204.824 189.316 184.547C189.316 164.268 205.75 147.833 226.029 147.833C228.334 147.833 230.595 148.044 232.78 148.455C228.197 165.155 222.114 187.272 221.708 188.651C222.465 187.46 244.791 177.453 260.037 170.706C261.785 174.978 262.743 179.65 262.743 184.547Z" fill="#7FA4F4"/>
<path d="M262.078 166.7C248.613 172.632 226.311 182.576 225.597 183.701C225.983 182.389 232.154 159.963 236.287 144.93C247.728 148.072 257.137 156.136 262.078 166.7Z" fill="#16A086"/>
<path d="M351.221 140.413C351.221 138.728 352.585 137.361 354.269 137.361C355.954 137.361 357.321 138.728 357.321 140.413C357.321 142.097 355.954 143.464 354.269 143.464C352.585 143.464 351.221 142.097 351.221 140.413Z" fill="#AEC3FF"/>
<path d="M367.056 140.413C367.056 138.728 368.42 137.361 370.104 137.361C371.789 137.361 373.156 138.728 373.156 140.413C373.156 142.097 371.789 143.464 370.104 143.464C368.42 143.464 367.056 142.097 367.056 140.413Z" fill="#AEC3FF"/>
<path d="M383.399 140.413C383.399 138.728 384.763 137.361 386.448 137.361C388.133 137.361 389.499 138.728 389.499 140.413C389.499 142.097 388.133 143.464 386.448 143.464C384.763 143.464 383.399 142.097 383.399 140.413Z" fill="#16A086"/>
<path d="M186.413 285.47H255.707V264.607H186.413V285.47ZM256.58 286.34H185.541V263.737H256.58V286.34Z" fill="#AEC3FF"/>
<path d="M218.162 271.6H190.685V269.809H218.162V271.6Z" fill="#AEC3FF"/>
<path d="M240.554 271.6H221.056V269.809H240.554V271.6Z" fill="#AEC3FF"/>
<path d="M205.849 276.716H190.685V274.927H205.849V276.716Z" fill="#AEC3FF"/>
<path d="M227.911 276.716H208.414V274.927H227.911V276.716Z" fill="#AEC3FF"/>
<path d="M249.431 276.716H229.935V274.927H249.431V276.716Z" fill="#AEC3FF"/>
<path d="M311.015 274.493H345.323V264.165H311.015V274.493ZM345.753 274.926H310.585V263.735H345.753V274.926Z" fill="#AEC3FF"/>
<path d="M326.735 267.633H313.132V266.748H326.735V267.633Z" fill="#AEC3FF"/>
<path d="M337.823 267.633H328.169V266.748H337.823V267.633Z" fill="#AEC3FF"/>
<path d="M320.64 270.16H313.132V269.275H320.64V270.16Z" fill="#AEC3FF"/>
<path d="M331.562 270.16H321.91V269.275H331.562V270.16Z" fill="#AEC3FF"/>
<path d="M342.215 270.16H332.562V269.275H342.215V270.16Z" fill="#AEC3FF"/>
<path d="M352.952 274.493H387.259V264.165H352.952V274.493ZM387.69 274.926H352.521V263.735H387.69V274.926Z" fill="#AEC3FF"/>
<path d="M368.673 267.633H355.07V266.748H368.673V267.633Z" fill="#AEC3FF"/>
<path d="M379.758 267.633H370.104V266.748H379.758V267.633Z" fill="#AEC3FF"/>
<path d="M362.578 270.16H355.07V269.275H362.578V270.16Z" fill="#AEC3FF"/>
<path d="M373.499 270.16H363.847V269.275H373.499V270.16Z" fill="#AEC3FF"/>
<path d="M384.151 270.16H374.499V269.275H384.151V270.16Z" fill="#AEC3FF"/>
<path d="M311.015 224.722H345.323V214.394H311.015V224.722ZM345.753 225.154H310.585V213.961H345.753V225.154Z" fill="#AEC3FF"/>
<path d="M326.735 217.852H313.132V216.965H326.735V217.852Z" fill="#AEC3FF"/>
<path d="M337.823 217.852H328.169V216.965H337.823V217.852Z" fill="#AEC3FF"/>
<path d="M320.64 220.388H313.132V219.501H320.64V220.388Z" fill="#AEC3FF"/>
<path d="M331.562 220.388H321.91V219.501H331.562V220.388Z" fill="#AEC3FF"/>
<path d="M342.215 220.388H332.562V219.501H342.215V220.388Z" fill="#AEC3FF"/>
<path d="M352.952 224.722H387.259V214.394H352.952V224.722ZM387.69 225.154H352.521V213.961H387.69V225.154Z" fill="#AEC3FF"/>
<path d="M368.673 217.852H355.07V216.965H368.673V217.852Z" fill="#AEC3FF"/>
<path d="M379.758 217.852H370.104V216.965H379.758V217.852Z" fill="#AEC3FF"/>
<path d="M362.578 220.388H355.07V219.501H362.578V220.388Z" fill="#AEC3FF"/>
<path d="M373.499 220.388H363.847V219.501H373.499V220.388Z" fill="#AEC3FF"/>
<path d="M384.151 220.388H374.499V219.501H384.151V220.388Z" fill="#AEC3FF"/>
<path d="M311.015 181.391H345.323V171.063H311.015V181.391ZM345.753 181.821H310.585V170.63H345.753V181.821Z" fill="#AEC3FF"/>
<path d="M326.735 174.525H313.132V173.637H326.735V174.525Z" fill="#AEC3FF"/>
<path d="M337.823 174.525H328.169V173.637H337.823V174.525Z" fill="#AEC3FF"/>
<path d="M320.64 177.059H313.132V176.171H320.64V177.059Z" fill="#AEC3FF"/>
<path d="M331.562 177.059H321.91V176.171H331.562V177.059Z" fill="#AEC3FF"/>
<path d="M342.215 177.059H332.562V176.171H342.215V177.059Z" fill="#AEC3FF"/>
<path d="M352.952 181.391H387.259V171.063H352.952V181.391ZM387.69 181.821H352.521V170.63H387.69V181.821Z" fill="#AEC3FF"/>
<path d="M368.673 174.525H355.07V173.637H368.673V174.525Z" fill="#AEC3FF"/>
<path d="M379.758 174.525H370.104V173.637H379.758V174.525Z" fill="#AEC3FF"/>
<path d="M362.578 177.059H355.07V176.171H362.578V177.059Z" fill="#AEC3FF"/>
<path d="M373.499 177.059H363.847V176.171H373.499V177.059Z" fill="#AEC3FF"/>
<path d="M384.151 177.059H374.499V176.171H384.151V177.059Z" fill="#AEC3FF"/>
<path d="M287.414 163.642C287.414 161.444 289.196 159.662 291.394 159.662C293.589 159.662 295.372 161.444 295.372 163.642C295.372 165.838 293.589 167.62 291.394 167.62C289.196 167.62 287.414 165.838 287.414 163.642Z" fill="#16A086"/>
<path d="M291.676 157.82H291.289C290.939 157.82 290.652 157.533 290.652 157.183V149.758C290.652 149.408 290.939 149.121 291.289 149.121H291.676C292.028 149.121 292.315 149.408 292.315 149.758V157.183C292.315 157.533 292.028 157.82 291.676 157.82Z" fill="#16A086"/>
<path d="M291.676 178.418H291.289C290.939 178.418 290.652 178.131 290.652 177.781V170.356C290.652 170.006 290.939 169.719 291.289 169.719H291.676C292.028 169.719 292.315 170.006 292.315 170.356V177.781C292.315 178.131 292.028 178.418 291.676 178.418Z" fill="#16A086"/>
<path d="M296.172 167.435L296.4 167.122C296.607 166.837 297.008 166.776 297.29 166.983L303.29 171.359C303.572 171.566 303.635 171.967 303.429 172.249L303.2 172.563C302.994 172.847 302.592 172.908 302.308 172.701L296.31 168.325C296.028 168.118 295.965 167.717 296.172 167.435Z" fill="#16A086"/>
<path d="M279.536 155.293L279.764 154.98C279.971 154.695 280.372 154.634 280.654 154.841L286.652 159.217C286.936 159.424 287 159.825 286.793 160.107L286.565 160.421C286.358 160.705 285.957 160.766 285.672 160.559L279.674 156.183C279.392 155.976 279.329 155.575 279.536 155.293Z" fill="#16A086"/>
<path d="M286.832 167.588L287.09 167.878C287.323 168.14 287.301 168.544 287.039 168.78L281.503 173.727C281.24 173.961 280.837 173.936 280.603 173.676L280.343 173.387C280.11 173.127 280.134 172.721 280.394 172.487L285.93 167.54C286.193 167.304 286.599 167.328 286.832 167.588Z" fill="#16A086"/>
<path d="M302.188 153.865L302.445 154.154C302.679 154.415 302.657 154.821 302.394 155.054L296.858 160.004C296.596 160.237 296.192 160.213 295.956 159.953L295.699 159.664C295.465 159.401 295.49 158.997 295.75 158.764L301.286 153.814C301.548 153.581 301.954 153.605 302.188 153.865Z" fill="#16A086"/>
<path d="M285.362 163.379L285.357 163.768C285.355 164.118 285.063 164.403 284.713 164.398L277.288 164.315C276.938 164.31 276.653 164.021 276.658 163.668L276.663 163.282C276.666 162.932 276.957 162.647 277.307 162.652L284.732 162.735C285.083 162.74 285.367 163.029 285.362 163.379Z" fill="#16A086"/>
<path d="M305.957 163.613L305.952 164C305.948 164.35 305.658 164.634 305.308 164.632L297.883 164.547C297.531 164.542 297.249 164.252 297.251 163.902L297.256 163.516C297.261 163.163 297.55 162.879 297.9 162.884L305.325 162.969C305.678 162.971 305.96 163.263 305.957 163.613Z" fill="#16A086"/>
<path d="M311.336 165.444H389.124V160.518H311.336V165.444ZM389.875 166.195H310.585V159.765H389.875V166.195Z" fill="#AEC3FF"/>
<path d="M372.507 165.817H310.96V160.138H372.507V165.817Z" fill="#AEC3FF"/>
<path d="M285.982 208.219C285.982 203.023 293.952 193.225 293.952 193.225C293.952 193.225 301.922 203.023 301.922 208.219C301.922 213.414 298.353 217.625 293.952 217.625C289.551 217.625 285.982 213.414 285.982 208.219Z" fill="#AEC3FF"/>
<path d="M311.336 207.886H389.124V202.961H311.336V207.886ZM389.875 208.64H310.585V202.209H389.875V208.64Z" fill="#16A086"/>
<path d="M348.574 208.264H310.96V202.587H348.574V208.264Z" fill="#16A086"/>
<path d="M297.35 259.454V238.655H292.859V259.454C291.376 260.254 290.367 261.823 290.367 263.627C290.367 266.243 292.49 268.363 295.106 268.363C297.722 268.363 299.842 266.243 299.842 263.627C299.842 261.823 298.833 260.254 297.35 259.454Z" fill="#AEC3FF"/>
<path d="M311.336 255.97H389.124V251.044H311.336V255.97ZM389.875 256.723H310.585V250.293H389.875V256.723Z" fill="#AEC3FF"/>
<path d="M362.566 256.347H310.96V250.67H362.566V256.347Z" fill="#AEC3FF"/>
<path d="M292.032 263.605C292.032 261.908 293.408 260.534 295.105 260.534C296.802 260.534 298.176 261.908 298.176 263.605C298.176 265.302 296.802 266.678 295.105 266.678C293.408 266.678 292.032 265.302 292.032 263.605Z" fill="#16A086"/>
<path d="M295.953 262.226H294.122V252.601H295.953V262.226Z" fill="#16A086"/>
<path d="M193.382 256.836H185.974V246.537H193.382V256.836Z" fill="#AEC3FF"/>
<path d="M206.075 256.836H198.666V239.708H206.075V256.836Z" fill="#AEC3FF"/>
<path d="M218.766 256.836H211.356V234.113H218.766V256.836Z" fill="#16A086"/>
<path d="M231.458 256.836H224.048V238.655H231.458V256.836Z" fill="#AEC3FF"/>
<path d="M244.146 256.836H236.738V228.976H244.146V256.836Z" fill="#AEC3FF"/>
<path d="M256.838 256.836H249.43V224.007H256.838V256.836Z" fill="#16A086"/>
<path d="M224.046 202.212H208.414V200.778H224.046V202.212Z" fill="white"/>
<path d="M232.37 205.495H208.414V204.061H232.37V205.495Z" fill="white"/>
<path d="M251.795 158.839H236.162V157.404H251.795V158.839Z" fill="white"/>
<path d="M245.948 162.122H236.162V160.688H245.948V162.122Z" fill="white"/>
<path d="M542.072 189.415C542.072 189.415 571.719 223.107 582.064 243.906C582.064 243.906 569.626 270.983 529.311 292.981C529.311 292.981 527.519 292.59 524.784 290.635C520.517 287.589 525.243 285.357 526.177 284.751C536.407 278.126 554.28 249.588 554.795 247.111C555.313 244.633 532.396 222.424 525.43 214.211C518.467 206.001 531.246 185.184 542.072 189.415Z" fill="#FFB27D"/>
<path d="M464.605 188.457C464.605 188.457 425.802 225.397 416.831 224.42C407.857 223.44 372.762 214.965 372.762 214.965L369.835 221.69C369.835 221.69 405.054 242.365 421.966 242.068C438.88 241.772 461.017 225.657 461.017 225.657L464.605 188.457Z" fill="#FFB27D"/>
<path d="M492.769 139.865C492.769 139.865 492.964 144.02 490.472 144.832C487.982 145.644 493.039 154.608 492.643 160.662C492.246 166.718 489.567 169.147 489.567 169.147C489.567 169.147 490.853 165.816 490.134 163.757C490.134 163.757 490.248 168.041 487.121 170.202C483.992 172.361 484.834 174.231 484.834 174.231C484.834 174.231 477.764 172.113 477.567 166.813C477.567 166.813 477.263 169.208 477.508 170.2C477.508 170.2 471.403 165.617 471.112 160.336C470.82 155.056 475.918 150.599 478.238 150.519C480.559 150.439 485.738 145.882 485.599 144.159C485.458 142.435 492.769 139.865 492.769 139.865Z" fill="#2C3A64"/>
<path d="M473.233 110.183C477.346 103.937 493.677 107.434 509.709 117.992C525.74 128.549 535.402 142.171 531.289 148.417C527.177 154.663 510.847 151.167 494.813 140.61C478.781 130.051 469.119 116.429 473.233 110.183Z" fill="#E2AF64"/>
<path d="M509.06 332.768C504.613 356.332 498.887 388.391 494.47 413.469C493.947 416.43 493.441 419.289 492.96 422.029C492.848 422.662 492.739 423.291 492.629 423.909H448.468C448.405 423.279 448.347 422.652 448.288 422.029C446.314 400.671 446.581 381.795 447.817 366.111C448.288 360.03 448.915 354.428 449.608 349.345C452.514 319.329 453.491 306.608 453.785 302.402L453.848 301.476C453.851 301.42 453.853 301.366 453.858 301.318L453.868 301.177C453.873 301.094 453.88 301.019 453.882 300.953L453.892 300.768C453.895 300.705 453.897 300.676 453.897 300.676L468.951 305.154L476.316 307.345L478.052 312.859L481.523 323.887L506.728 332.02L509.06 332.768Z" fill="#0C5144"/>
<path d="M538.022 338.703C537.262 350.947 536.007 394.119 534.607 422.029C534.575 422.666 534.546 423.291 534.514 423.909H488.726C488.585 423.286 488.444 422.659 488.303 422.029C483.443 400.172 479.466 375.629 476.614 355.71C476.111 355.732 470.886 320.133 457.786 304.44C457.667 304.299 457.653 304.187 457.723 304.102C458.372 303.268 466.685 304.709 466.685 304.709C467.39 304.897 468.146 305.045 468.951 305.154C475.238 306.015 484.365 304.627 493.421 302.516H493.426C495.872 301.945 498.31 301.323 500.688 300.676C507.394 298.855 513.603 296.857 518.03 295.352C519.129 294.98 520.116 294.634 520.977 294.333C521.672 294.09 522.283 293.871 522.796 293.686H522.8C524.036 293.241 524.724 292.981 524.724 292.981C524.724 292.981 525.035 293.253 525.562 293.817C527.323 295.689 531.482 300.773 534.553 309.638C537.031 316.773 538.793 326.362 538.022 338.703Z" fill="#0E6656"/>
<path d="M482.261 110.892L511.078 154.616C511.078 154.616 514.375 148.161 518.034 150.478C523.743 154.086 536.008 141.737 533.451 124.303C533.281 123.163 533.081 122.081 532.86 121.052C527.108 112.769 520.723 103.545 516.143 97.0584C502.907 89.0669 482.261 110.892 482.261 110.892Z" fill="#2C3A64"/>
<path d="M469.596 199.22C473.627 202.916 478.864 206.222 485.654 208.792C511.102 218.437 524.192 197.601 530.046 182.87C526.742 180.335 523.431 179.423 521.515 178.927C520.02 178.54 518.457 178.195 517.049 177.913C516.307 177.765 515.646 177.339 515.228 176.71C512.799 173.046 510.343 163.766 511.226 150.717L509.947 150.88L488.469 153.732C488.469 153.732 488.523 160.444 488.141 166.729C487.973 169.425 487.726 172.049 487.358 174.03C487.006 175.927 485.44 177.361 483.519 177.546L483.507 177.565C483.167 177.981 475.817 187.045 469.596 199.22Z" fill="#FFB27D"/>
<path d="M488.468 153.738C488.468 153.738 488.526 160.444 488.14 166.733C500.031 167.154 506.994 156.726 509.946 150.886L488.468 153.738Z" fill="#ED985F"/>
<path d="M484.124 159.437C484.124 159.437 512.178 161.688 513.309 144.196C514.442 126.703 518.826 115.213 500.963 113.037C483.098 110.861 479.182 117.308 477.385 123.056C475.586 128.803 476.855 158.401 484.124 159.437Z" fill="#FFB27D"/>
<path d="M478.841 113.385C483.516 108.401 486.723 109.763 488.461 111.462C504.349 104.001 513.445 117.108 513.445 117.108C514.524 129.779 523.119 137.545 523.119 137.545C523.119 137.545 517.799 140.382 506.192 136.597C502.645 135.439 499.591 132.673 497.053 129.39C501.32 137.7 507.452 143.881 507.452 143.881C493.771 136.468 489.358 116.505 488.928 114.394C487.114 115.826 483.521 118.955 482.283 122.167C480.601 126.534 479.385 135.663 476.733 135.182C476.733 135.182 471.829 120.862 478.841 113.385Z" fill="#2C3A64"/>
<path d="M534.048 132.915C534.048 132.915 547.094 106.944 528.862 96.6797C510.63 86.4125 497.287 90.4435 487.256 102.998L534.048 132.915Z" fill="#EDBD77"/>
<path d="M534.792 229.567C535.791 230.607 536.413 231.196 536.413 231.196C557.665 228.548 558.664 206.728 558.664 206.728C558.664 206.728 542.03 184.79 526.499 179.964C522.718 178.79 517.049 177.917 517.049 177.917C512.191 181.946 506.594 187.849 501.328 192.651C495.26 198.187 484.815 200.068 480.949 190.248C479.401 186.315 483.123 178.153 483.505 177.565L483.517 177.545C483.118 177.572 482.732 177.601 482.35 177.625C480.446 177.779 478.732 178.012 477.174 178.168C469.595 178.929 459.126 183.952 437.975 210.724C437.975 210.724 449.404 224.84 461.016 225.66C460.549 248.022 462.951 284.45 462.951 284.45C457.879 294.423 533.231 317.527 536.484 308.013C541.361 300.571 536.494 286.322 532.278 275.401C531.245 272.734 531.016 269.891 530.097 267.83C529.509 266.507 529.04 265.143 528.694 263.752C527.817 260.264 527.724 256.602 528.451 253.043C530.224 244.397 532.645 236.321 534.792 229.567Z" fill="#16A086"/>
<path d="M535.472 129.591C534.923 129.027 534.359 128.461 533.778 127.89L533.773 127.887C528.149 122.388 520.977 116.769 512.745 111.634C506.12 107.504 499.519 104.124 493.329 101.593H493.324C492.099 101.088 490.89 100.621 489.699 100.186C475.503 94.9948 464.064 94.5985 460.599 100.149C456.948 106.001 463.128 116.903 475.238 127.963L475.24 127.965C475.231 127.868 475.218 127.775 475.209 127.681C475.199 127.586 475.194 127.488 475.184 127.391C475.175 127.282 475.165 127.17 475.155 127.058C475.15 126.975 475.143 126.893 475.138 126.81C475.131 126.672 475.121 126.533 475.112 126.392C475.102 126.217 475.092 126.042 475.087 125.862C475.087 125.845 475.085 125.823 475.085 125.801C475.077 125.672 475.075 125.541 475.07 125.41V125.286C475.068 125.201 475.068 125.118 475.068 125.03C475.065 124.722 475.068 124.41 475.075 124.099C475.075 123.99 475.077 123.876 475.085 123.766C475.087 123.705 475.09 123.642 475.09 123.579C475.097 123.474 475.099 123.372 475.109 123.273C475.119 123.081 475.131 122.893 475.146 122.704C475.163 122.517 475.182 122.329 475.199 122.137L475.204 122.106C475.209 122.038 475.219 121.967 475.226 121.901C475.231 121.858 475.233 121.814 475.24 121.773C475.26 121.641 475.274 121.51 475.294 121.379C475.323 121.162 475.357 120.948 475.398 120.737C475.403 120.703 475.411 120.664 475.415 120.63C475.459 120.377 475.51 120.124 475.569 119.874C475.595 119.75 475.627 119.623 475.659 119.502L475.666 119.456C474.372 116.728 474.137 114.372 475.194 112.68C476.415 110.718 479.198 109.925 482.974 110.173H482.982C483.084 110.18 483.188 110.188 483.295 110.197H483.298C484.691 110.304 486.215 110.55 487.842 110.929H487.844C488.226 111.017 488.612 111.109 489.006 111.214C490.436 111.591 491.936 112.057 493.492 112.617H493.509C498.157 114.294 503.265 116.786 508.403 119.99C510.537 121.323 512.56 122.709 514.449 124.114H514.452C514.639 124.255 514.828 124.396 515.013 124.537C523.746 131.162 529.516 138.278 530.177 143.194C530.352 144.502 530.17 145.655 529.574 146.601C529.528 146.676 529.477 146.749 529.421 146.822L529.401 146.851C529.017 147.381 528.507 147.814 527.882 148.159L527.877 148.161C527.792 148.212 527.707 148.256 527.619 148.298H527.617C526.977 148.611 526.229 148.835 525.392 148.973H525.387H525.385C525.305 149.039 525.222 149.102 525.139 149.165C525.081 149.212 525.018 149.258 524.955 149.302C524.896 149.345 524.835 149.392 524.775 149.435L524.716 149.474C524.612 149.545 524.507 149.615 524.405 149.686C524.242 149.793 524.074 149.892 523.912 149.99C523.831 150.036 523.749 150.082 523.668 150.126C523.586 150.17 523.506 150.213 523.423 150.255C523.313 150.311 523.207 150.364 523.097 150.415C523.056 150.437 523.017 150.456 522.976 150.471C522.934 150.491 522.893 150.505 522.854 150.525L522.847 150.527L522.818 150.542C522.769 150.563 522.718 150.58 522.669 150.602C522.594 150.632 522.521 150.663 522.446 150.687C522.351 150.721 522.261 150.756 522.171 150.785C522.083 150.814 521.993 150.841 521.911 150.862L521.884 150.872C521.813 150.892 521.743 150.911 521.672 150.926C521.646 150.935 521.621 150.94 521.592 150.948C521.527 150.965 521.461 150.979 521.393 150.991C521.31 151.008 521.23 151.023 521.145 151.035C521.096 151.045 521.045 151.052 520.994 151.057C520.936 151.067 520.875 151.074 520.817 151.079C520.739 151.089 520.663 151.096 520.583 151.098C520.554 151.101 520.522 151.101 520.491 151.101H520.452L520.394 151.106H520.372C520.342 151.108 520.318 151.108 520.289 151.108C520.087 151.108 519.883 151.096 519.684 151.069C519.487 151.045 519.292 151.004 519.105 150.955C519.01 150.926 518.918 150.899 518.825 150.867C518.757 150.841 518.689 150.814 518.624 150.785C518.573 150.765 518.521 150.743 518.473 150.719C518.432 150.7 518.39 150.683 518.349 150.658C518.315 150.644 518.278 150.624 518.244 150.602C518.171 150.566 518.103 150.525 518.033 150.481C517.889 150.391 517.746 150.311 517.605 150.25C517.556 150.228 517.51 150.208 517.466 150.189L517.41 150.167C517.34 150.14 517.272 150.116 517.204 150.099C516.931 150.016 516.662 149.98 516.394 149.98H516.389H516.358L516.329 149.982H516.292C516.258 149.982 516.226 149.985 516.19 149.99C516.168 149.99 516.146 149.99 516.124 149.992C516.066 149.999 516.01 150.004 515.952 150.014L515.935 150.016C515.908 150.021 515.881 150.026 515.854 150.033C515.808 150.038 515.764 150.048 515.721 150.06C515.677 150.07 515.633 150.082 515.587 150.097C515.533 150.109 515.482 150.123 515.429 150.143C515.395 150.155 515.361 150.167 515.327 150.179C515.276 150.196 515.222 150.218 515.174 150.24H515.169C515.127 150.255 515.091 150.272 515.05 150.289C515.013 150.308 514.974 150.325 514.94 150.342C514.897 150.362 514.855 150.386 514.811 150.408L514.69 150.473C514.646 150.5 514.605 150.525 514.563 150.549C514.525 150.576 514.486 150.6 514.444 150.624C514.405 150.651 514.364 150.675 514.323 150.704C514.281 150.729 514.242 150.756 514.204 150.787C514.126 150.841 514.048 150.901 513.973 150.965C513.931 150.991 513.895 151.023 513.858 151.055C513.822 151.086 513.785 151.118 513.746 151.152C513.671 151.215 513.598 151.281 513.528 151.346C513.455 151.41 513.384 151.478 513.314 151.551C513.28 151.585 513.246 151.619 513.212 151.655C513.175 151.692 513.141 151.726 513.11 151.76C513.071 151.796 513.037 151.835 513 151.871H513.005C514.376 152.44 515.728 152.963 517.055 153.444C521.315 154.991 525.319 156.102 528.935 156.753C537.313 158.261 543.583 157.281 545.992 153.42C549.201 148.271 544.808 139.224 535.472 129.591Z" fill="#FFCF83"/>
<path d="M518.644 276.84C529.498 280.317 524.428 274.365 532.814 274.97C531.78 272.306 531.015 269.889 530.096 267.827C529.507 266.505 529.038 265.141 528.693 263.75C527.815 260.261 527.723 256.6 528.45 253.04C530.385 243.595 532.51 236.666 534.79 229.564C532.391 223.262 522.155 233.595 522.155 233.595C522.155 233.595 512.678 243.551 515.158 260.482C517.47 276.256 509.279 273.837 518.644 276.84Z" fill="#16A086"/>
<path d="M526.499 179.964C526.499 179.964 508.974 191.165 504.493 214.774L499.193 213.092C499.193 213.092 501.428 196.078 521.697 178.768C521.697 178.768 523.224 179.072 523.737 179.198C524.425 179.371 526.499 179.964 526.499 179.964Z" fill="#0E6656"/>
<path d="M464.604 215.368L470.155 215.733C469.044 195.262 479.316 181.287 482.353 177.623C480.449 177.776 478.725 177.961 477.176 178.165C465.912 195.362 464.604 215.368 464.604 215.368Z" fill="#0E6656"/>
<path d="M503.962 227.871C504.305 226.413 507.701 212.239 507.701 212.239C507.701 212.239 508.481 207.809 500.697 207.371C492.909 206.931 465.285 205.475 465.285 205.475C465.285 205.475 461.522 207.748 461.464 212.409C461.408 217.072 457.649 243.745 457.649 243.745L453.783 302.404L538.024 338.702C538.024 338.702 543.798 309.056 537.331 288.39C533.56 276.338 528.697 263.754 528.697 263.754C528.697 263.754 498.72 250.144 503.962 227.871Z" fill="#0E6656"/>
<path d="M504.713 212.716C505.102 211.491 504.423 210.183 503.198 209.794C501.973 209.405 500.665 210.083 500.276 211.306C499.887 212.531 500.565 213.839 501.79 214.228C503.013 214.617 504.324 213.941 504.713 212.716Z" fill="#ED7D2B"/>
<path d="M504.315 212.59C504.704 211.364 504.026 210.056 502.801 209.667C501.575 209.278 500.267 209.954 499.878 211.179C499.489 212.405 500.168 213.713 501.393 214.102C502.618 214.491 503.926 213.815 504.315 212.59Z" fill="#F99746"/>
<path d="M503.539 211.881C503.536 211.694 503.386 211.543 503.198 211.543C503.011 211.543 502.86 211.696 502.86 211.884C502.863 212.068 503.014 212.219 503.201 212.219C503.388 212.219 503.539 212.068 503.539 211.881Z" fill="#2B478B"/>
<path d="M501.329 211.886C501.329 211.699 501.178 211.548 500.991 211.548C500.804 211.548 500.653 211.699 500.653 211.886C500.653 212.074 500.806 212.224 500.994 212.224C501.178 212.224 501.329 212.071 501.329 211.886Z" fill="#2B478B"/>
<path d="M470.459 209.76C470.848 208.534 470.17 207.226 468.944 206.837C467.721 206.448 466.413 207.127 466.022 208.35C465.635 209.575 466.311 210.883 467.537 211.272C468.762 211.661 470.07 210.985 470.459 209.76Z" fill="#ED7D2B"/>
<path d="M470.059 209.633C470.448 208.408 469.77 207.1 468.545 206.711C467.322 206.322 466.014 207 465.625 208.223C465.236 209.449 465.911 210.757 467.137 211.146C468.362 211.535 469.67 210.856 470.059 209.633Z" fill="#F99746"/>
<path d="M469.285 208.925C469.285 208.738 469.135 208.587 468.947 208.587C468.76 208.587 468.609 208.74 468.609 208.927C468.609 209.112 468.76 209.263 468.947 209.263C469.135 209.263 469.285 209.112 469.285 208.925Z" fill="#2B478B"/>
<path d="M467.076 208.928C467.076 208.743 466.923 208.592 466.736 208.592C466.551 208.592 466.398 208.743 466.4 208.93C466.4 209.117 466.551 209.268 466.738 209.268C466.926 209.268 467.076 209.115 467.076 208.928Z" fill="#2B478B"/>
<path d="M530.173 143.196C530.173 143.196 530.367 147.349 527.875 148.163C525.383 148.975 530.442 157.939 530.046 163.993C529.647 170.047 526.968 172.478 526.968 172.478C526.968 172.478 528.254 169.147 527.537 167.088C527.537 167.088 527.651 171.372 524.522 173.533C521.396 175.692 522.237 177.562 522.237 177.562C522.237 177.562 515.167 175.444 514.97 170.142C514.97 170.142 514.666 172.539 514.909 173.531C514.909 173.531 508.807 168.948 508.515 163.667C508.223 158.387 513.319 153.93 515.641 153.85C517.963 153.77 523.141 149.211 523.003 147.49C522.862 145.766 530.173 143.196 530.173 143.196Z" fill="#2C3A64"/>
<path d="M492.773 149.662C492.773 149.662 488.594 152.197 485.618 151.901C482.671 151.609 481.066 148.057 481.066 148.057C481.066 148.057 486.782 147.213 492.773 149.662Z" fill="#FFF2E9"/>
<path d="M519.282 300.675H462.979C460.623 300.675 457.937 298.765 456.979 296.409L442.805 261.518C441.849 259.159 442.982 257.248 445.341 257.248H501.641C503.999 257.248 506.686 259.159 507.644 261.518L521.816 296.409C522.773 298.765 521.641 300.675 519.282 300.675Z" fill="#A4C9FF"/>
<path d="M515.925 300.675H459.622C457.266 300.675 454.579 298.765 453.622 296.409L439.447 261.518C438.492 259.159 439.625 257.248 441.983 257.248H498.284C500.642 257.248 503.329 259.159 504.286 261.518L518.458 296.409C519.416 298.765 518.283 300.675 515.925 300.675Z" fill="#71A4FF"/>
<path d="M445.07 259.928C446.142 259.928 447.375 260.805 447.81 261.875C448.245 262.947 447.725 263.825 446.655 263.825C445.583 263.825 444.348 262.947 443.913 261.875C443.477 260.805 443.998 259.928 445.07 259.928Z" fill="#2B478B"/>
<path d="M451.259 260.739C451.884 260.739 452.604 261.25 452.857 261.875C453.112 262.502 452.808 263.013 452.183 263.013C451.556 263.013 450.836 262.502 450.584 261.875C450.328 261.25 450.632 260.739 451.259 260.739Z" fill="#2B478B"/>
<path d="M473.285 277.861C472.347 275.546 473.46 273.672 475.772 273.672C478.084 273.672 480.722 275.546 481.661 277.861C482.602 280.173 481.488 282.047 479.174 282.047C476.861 282.047 474.226 280.173 473.285 277.861Z" fill="#A4C9FF"/>
<path d="M525.99 285.175C525.99 285.175 518.249 280.759 516.382 278.72C515.178 277.404 515.105 279.097 515.183 279.573C515.339 280.526 515.48 282.418 517.682 284.219C520.855 286.811 525.99 285.175 525.99 285.175Z" fill="#FFB27D"/>
<path d="M525.99 285.176C525.99 285.176 512.024 280.982 508.808 281.345C505.594 281.709 498.249 284 497.656 284.595C497.065 285.193 499.593 285.823 501.517 285.261C503.982 284.539 507.865 285.349 507.865 285.349C507.865 285.349 500.036 287.048 498.076 287.911C497.879 287.997 497.845 288.264 498.013 288.398C498.482 288.77 499.686 289.001 501.419 288.76C503.904 288.415 508.268 288.478 508.268 288.478L499.37 290.411C499.258 290.435 499.175 290.532 499.18 290.647C499.192 291.07 499.905 291.522 501.983 291.617C503.586 291.69 509.012 290.887 509.012 290.887L504.179 293.438C504.179 293.438 505.351 294.276 507.818 293.462C509.511 292.903 514.563 291.639 515.727 291.884C516.894 292.13 522.712 294.187 525.46 293.834C528.144 293.491 529.311 292.983 529.311 292.983L525.99 285.176Z" fill="#FFB27D"/>
<path d="M372.762 214.968C372.762 214.968 365.756 207.482 363.181 206.59C360.606 205.698 351.416 204.147 351.416 204.147C351.416 204.147 351.452 206.347 355.566 207.864C359.68 209.381 360.54 216.514 362.974 218.532C365.405 220.553 371.836 222.298 371.836 222.298L372.762 214.968Z" fill="#FFB27D"/>
<path d="M369.837 221.69C369.837 221.69 363.013 221.391 360.795 219.998C358.578 218.604 354.965 216.781 355.661 215.672C356.358 214.564 363.886 215.4 363.886 215.4L369.837 221.69Z" fill="#FFB27D"/>
<path d="M362.628 207.894C362.268 207.734 353.165 201.648 353.165 201.648C353.165 201.648 352.399 204.532 353.739 205.079C355.081 205.628 362.628 207.894 362.628 207.894Z" fill="#FFB27D"/>
<path d="M564.802 266.704C556.635 274.953 545.116 284.357 529.311 292.981C529.311 292.981 527.519 292.59 524.784 290.633C520.517 287.586 525.243 285.357 526.177 284.751C530.811 281.749 537.02 274.243 542.469 266.704H564.802Z" fill="#FFB27D"/>
<path d="M116.374 423.182H48.1566C48.1471 423.158 48.1376 423.134 48.1284 423.107C48.0438 422.886 47.9309 422.584 47.7868 422.203L47.7304 422.088C47.7304 422.088 47.7304 422.088 47.7304 422.032C47.7304 422.032 47.674 421.974 47.674 421.918C47.4452 421.459 47.2728 420.943 47.044 420.316C46.9281 420.027 46.8152 419.684 46.6429 419.341C46.6429 419.285 46.6429 419.285 46.6429 419.224C46.5865 419.168 46.5865 419.168 46.5865 419.168C45.7997 417.126 44.825 414.466 43.7001 411.25C43.5997 410.958 43.4963 410.664 43.3899 410.367C42.5467 407.938 41.6192 405.218 40.6318 402.223C40.1774 400.815 39.7104 399.346 39.231 397.82C45.9721 395.943 54.7849 394.649 62.6325 397.195C67.7062 398.843 71.1411 401.282 73.8019 403.706C79.2017 408.619 81.4331 413.474 87.7198 411.585C89.2804 411.116 91.1452 410.837 93.1665 410.749C103.286 410.294 117.279 414.566 116.374 423.182Z" fill="#82B378"/>
<path d="M718.055 422.834V423.106C718.055 423.549 717.695 423.909 717.253 423.909H9.75544C9.31344 423.909 8.95312 423.549 8.95312 423.106V422.834C8.95312 422.392 9.31344 422.029 9.75544 422.029H717.253C717.695 422.029 718.055 422.392 718.055 422.834Z" fill="url(#paint0_linear)"/>
<defs>
<linearGradient id="paint0_linear" x1="8.95313" y1="422.029" x2="10.7835" y2="458.962" gradientUnits="userSpaceOnUse">
<stop stop-color="#1BBC9B"/>
<stop offset="0.0001" stop-color="#1BBC9B"/>
<stop offset="1" stop-color="#16A086"/>
</linearGradient>
</defs>
</svg>
