<svg width="24" height="25" viewBox="0 0 24 25" fill="none" xmlns="http://www.w3.org/2000/svg">
<path d="M9.08685 13.6341C9.08685 14.4718 8.75958 15.2606 8.16524 15.8552C7.57118 16.4499 6.78267 16.7771 5.94527 16.7771H5.94411C4.2123 16.7771 2.80255 15.3683 2.80197 13.6364C2.80168 12.7985 3.12866 12.0094 3.723 11.4147C4.31705 10.8204 5.10613 10.4928 5.94411 10.4925C7.67621 10.4925 9.08569 11.902 9.08685 13.6341ZM4.91401 5.09514C4.83906 4.97911 4.81388 4.8405 4.84253 4.70479C4.87204 4.56908 4.95161 4.45305 5.06764 4.3781C5.30202 4.22735 5.63566 4.30085 5.78526 4.53175L8.59059 8.87012L9.31226 9.98617L9.35797 10.0307C9.55705 10.1528 9.76163 10.259 9.96592 10.3479C10.1337 10.4202 10.3111 10.4836 10.4923 10.5368C12.2845 11.0614 13.9229 10.3189 14.6373 9.90863C14.7973 10.0901 14.9385 10.2833 15.0662 10.4836C15.0251 10.5221 14.9817 10.5568 14.942 10.5964C14.1292 11.4098 13.6816 12.4894 13.6816 13.637C13.6819 13.7614 13.6903 13.8838 13.7007 14.0057L10.226 14.0062C10.2365 13.883 10.2443 13.7588 10.2443 13.6335C10.2431 12.0047 9.33165 10.5843 7.9922 9.85568L7.93085 9.76048L4.91401 5.09514ZM15.7603 11.4147C16.355 10.8204 17.1438 10.4928 17.982 10.4925C19.7135 10.4925 21.1236 11.902 21.1242 13.6341C21.1248 14.4718 20.7972 15.2606 20.2023 15.8552C19.6091 16.4499 18.8206 16.7771 17.9829 16.7771H17.982C16.2496 16.7771 14.8399 15.3683 14.839 13.6364C14.839 12.7985 15.1663 12.0094 15.7603 11.4147ZM9.63489 2.08581C10.2284 1.49204 11.0163 1.16478 11.8537 1.16478C13.5832 1.16478 14.9915 2.57222 14.9924 4.3023C14.9927 5.13942 14.6657 5.92705 14.0716 6.52081C13.4787 7.11458 12.6914 7.44185 11.8537 7.44185C10.1233 7.44185 8.7153 6.03441 8.71472 4.30462C8.71443 3.46779 9.04142 2.67928 9.63489 2.08581ZM2.9041 10.5964C2.09158 11.4098 1.64424 12.4894 1.64453 13.637C1.6454 16.0069 3.57455 17.9346 5.94411 17.9346H5.94527C7.09258 17.9346 8.17132 17.4869 8.98384 16.6736C9.41816 16.2389 9.74427 15.7273 9.95753 15.1712L13.9701 15.1703C14.5905 16.7841 16.1524 17.9346 17.982 17.9346H17.9829C19.1296 17.9346 20.2089 17.4869 21.0212 16.6736C21.8346 15.8602 22.2822 14.7806 22.2816 13.6335C22.2805 11.2634 20.3516 9.33511 17.9817 9.33511C17.2884 9.3354 16.6215 9.50149 16.0219 9.81024C15.7716 9.42655 15.4727 9.06225 15.1153 8.73499C14.9067 8.54343 14.5922 8.52983 14.3671 8.702C14.3436 8.72081 11.9761 10.4836 9.71765 8.8707L8.52548 7.02719C9.31514 7.99076 10.514 8.60652 11.8537 8.60652H11.8548C13.003 8.60652 14.0829 8.15829 14.8957 7.34403C15.7094 6.53035 16.1576 5.4499 16.1573 4.30172C16.1559 1.92985 14.2253 -0.000175476 11.8537 -0.000175476C10.7052 -0.000175476 9.62476 0.448328 8.81108 1.26229C7.99741 2.07597 7.54976 3.15672 7.55005 4.3049C7.55034 5.00052 7.72021 5.65533 8.01448 6.23723L6.57954 4.01814C6.14116 3.34017 5.23258 3.14544 4.55403 3.5841C3.87635 4.02248 3.68133 4.93078 4.11971 5.60904L6.56132 9.38489C6.35934 9.35537 6.15448 9.33511 5.94411 9.33511C4.7968 9.3354 3.7172 9.78334 2.9041 10.5964Z" fill="white"/>
<path d="M3.28948 19.2577C5.33409 20.6096 7.52598 19.9698 8.73637 19.2447C9.87818 20.5427 10.1493 22.4157 10.2127 23.3408L1.68498 23.3423C1.86062 21.1973 2.79005 19.8416 3.28948 19.2577ZM0.666729 24.3275C0.775238 24.4378 0.923686 24.5 1.07878 24.5L10.8088 24.498C11.1213 24.498 11.3768 24.2503 11.3875 23.9383C11.3924 23.785 11.4847 20.159 9.20369 18.0699C8.99738 17.8806 8.68429 17.8673 8.46119 18.0363C8.35847 18.1144 5.90847 19.9307 3.58897 18.0424C3.3708 17.8644 3.05654 17.8693 2.84415 18.054C2.75069 18.1353 0.554754 20.087 0.500065 23.9129C0.49775 24.0677 0.55764 24.2173 0.666729 24.3275Z" fill="white"/>
<path d="M22.2498 23.3408L13.7224 23.3423C13.8977 21.1973 14.8274 19.8416 15.3272 19.2577C17.3712 20.6096 19.5628 19.9698 20.774 19.2447C21.9156 20.5427 22.187 22.4157 22.2498 23.3408ZM20.4989 18.0363C20.3956 18.1144 17.9461 19.9307 15.6263 18.0424C15.4082 17.8644 15.0936 17.8693 14.8812 18.054C14.7878 18.1353 12.5918 20.087 12.5372 23.9129C12.5351 24.0677 12.595 24.2173 12.7035 24.3275C12.8126 24.4378 12.9611 24.5 13.1162 24.5L22.8464 24.498C23.1584 24.498 23.4144 24.2503 23.4246 23.9383C23.4298 23.785 23.5221 20.159 21.2408 18.0699C21.0345 17.8806 20.7214 17.8673 20.4989 18.0363Z" fill="white"/>
</svg>
