<svg width="563" height="616" viewBox="0 0 563 616" fill="none" xmlns="http://www.w3.org/2000/svg">
<g clip-path="url(#clip0)">
<g opacity="0.4">
<path opacity="0.4" d="M547.549 493.058C559.393 435.048 555.115 381.415 524.78 330.36C503.178 293.993 465.631 263.593 422.709 262.816C382.227 262.075 345.741 286.931 305.753 293.216C239.922 303.561 171.898 262.887 107.975 281.494C73.7511 291.451 45.9617 317.932 30.2286 349.356C14.5307 380.815 10.076 416.793 12.5508 451.713C16.9349 513.749 44.8304 575.431 92.4188 615.576H480.197C512.724 578.291 539.877 530.59 547.549 493.058Z" fill="#E8F3FF"/>
</g>
<path d="M227.441 561.414H195.869C194.561 561.414 193.465 560.355 193.465 559.013V550.539C193.465 549.233 194.526 548.138 195.869 548.138H227.406C228.714 548.138 229.81 549.197 229.81 550.539V559.013C229.846 560.319 228.75 561.414 227.441 561.414Z" fill="#CFDFDC"/>
<path d="M268.666 561.414H237.129C235.821 561.414 234.725 560.355 234.725 559.013V550.539C234.725 549.233 235.785 548.138 237.129 548.138H268.666C269.974 548.138 271.07 549.197 271.07 550.539V559.013C271.07 560.319 270.009 561.414 268.666 561.414Z" fill="#CFDFDC"/>
<path d="M247.771 543.16H216.234C214.926 543.16 213.83 542.101 213.83 540.759V532.285C213.83 530.979 214.89 529.884 216.234 529.884H247.771C249.079 529.884 250.175 530.943 250.175 532.285V540.759C250.175 542.101 249.079 543.16 247.771 543.16Z" fill="#CFDFDC"/>
<path d="M423.381 232.169C423.381 227.614 419.669 223.907 415.108 223.907H139.972C135.411 223.907 131.699 227.614 131.699 232.169V238.948H423.381V232.169Z" fill="white"/>
<path d="M423.841 239.372H131.274V232.169C131.274 227.367 135.164 223.483 139.972 223.483H415.108C419.916 223.483 423.805 227.367 423.805 232.169V239.372H423.841ZM132.158 238.489H422.957V232.169C422.957 227.861 419.457 224.366 415.143 224.366H139.972C135.658 224.366 132.158 227.861 132.158 232.169V238.489Z" fill="#16A086"/>
<path d="M131.699 238.912V414.216C131.699 418.77 135.411 422.478 139.972 422.478H415.108C419.669 422.478 423.381 418.77 423.381 414.216V238.912H131.699Z" fill="white"/>
<path d="M415.143 422.901H139.972C135.164 422.901 131.274 419.018 131.274 414.216V238.489H423.841V414.216C423.841 419.018 419.916 422.901 415.143 422.901ZM132.158 239.372V414.216C132.158 418.523 135.658 422.019 139.972 422.019H415.108C419.421 422.019 422.921 418.523 422.921 414.216V239.372H132.158Z" fill="#16A086"/>
<path d="M146.111 234.351C147.725 234.205 148.916 232.781 148.77 231.169C148.625 229.557 147.198 228.368 145.584 228.513C143.97 228.658 142.779 230.083 142.925 231.695C143.07 233.307 144.497 234.496 146.111 234.351Z" fill="white"/>
<path d="M145.841 234.817C143.967 234.817 142.447 233.299 142.447 231.427C142.447 229.556 143.967 228.038 145.841 228.038C147.715 228.038 149.235 229.556 149.235 231.427C149.235 233.299 147.715 234.817 145.841 234.817ZM145.841 228.92C144.462 228.92 143.331 230.05 143.331 231.427C143.331 232.804 144.462 233.934 145.841 233.934C147.22 233.934 148.351 232.804 148.351 231.427C148.351 230.05 147.255 228.92 145.841 228.92Z" fill="#16A086"/>
<path d="M157.603 234.351C159.217 234.205 160.407 232.781 160.262 231.169C160.116 229.557 158.69 228.368 157.076 228.513C155.461 228.658 154.271 230.083 154.416 231.695C154.562 233.307 155.988 234.496 157.603 234.351Z" fill="white"/>
<path d="M157.332 234.817C155.458 234.817 153.938 233.299 153.938 231.427C153.938 229.556 155.458 228.038 157.332 228.038C159.205 228.038 160.726 229.556 160.726 231.427C160.726 233.299 159.205 234.817 157.332 234.817ZM157.332 228.92C155.953 228.92 154.821 230.05 154.821 231.427C154.821 232.804 155.953 233.934 157.332 233.934C158.711 233.934 159.842 232.804 159.842 231.427C159.842 230.05 158.746 228.92 157.332 228.92Z" fill="#16A086"/>
<path d="M169.093 234.351C170.707 234.205 171.898 232.781 171.752 231.169C171.607 229.557 170.18 228.368 168.566 228.513C166.952 228.658 165.761 230.083 165.907 231.695C166.052 233.307 167.479 234.496 169.093 234.351Z" fill="white"/>
<path d="M168.822 234.817C166.948 234.817 165.428 233.299 165.428 231.427C165.428 229.556 166.948 228.038 168.822 228.038C170.696 228.038 172.216 229.556 172.216 231.427C172.216 233.299 170.696 234.817 168.822 234.817ZM168.822 228.92C167.443 228.92 166.312 230.05 166.312 231.427C166.312 232.804 167.443 233.934 168.822 233.934C170.201 233.934 171.332 232.804 171.332 231.427C171.332 230.05 170.236 228.92 168.822 228.92Z" fill="#16A086"/>
<path opacity="0.4" d="M392.975 258.049H162.104V396.456H392.975V258.049Z" fill="#CFDFDC"/>
<path d="M319.507 421.984H244.129C241.336 395.997 240.629 372.694 243.104 357.194C243.775 352.957 244.695 349.32 245.861 346.39L277.61 339.928L314.522 343.247C320.744 359.242 321.734 388.088 319.507 421.984Z" fill="#0E6656"/>
<path d="M280.439 347.131H279.555V377.143H280.439V347.131Z" fill="#0E6656"/>
<path opacity="0.2" d="M314.557 343.212C314.557 343.212 284.859 364.008 243.139 357.194C243.811 352.957 244.73 349.32 245.897 346.39L277.646 339.928L314.557 343.212Z" fill="#404040"/>
<path d="M262.69 225.602C262.69 225.602 248.371 243.821 251.836 259.321L302.112 257.238C302.112 257.238 302.536 226.908 291.54 224.331L262.69 225.602Z" fill="#0E6656"/>
<path d="M306.001 255.401H305.117C305.117 235.523 294.758 226.414 294.652 226.308L295.218 225.637C295.324 225.743 306.001 235.135 306.001 255.401Z" fill="#0E6656"/>
<path d="M250.422 329.159C250.351 331.242 249.963 333.22 249.255 335.091C247.417 340.034 243.599 344.024 238.684 345.966C237.517 346.46 236.245 346.813 234.936 347.025C232.568 347.413 229.81 347.661 226.557 347.661C210.294 347.661 198.485 335.338 197.106 331.56C195.727 327.782 199.652 329.124 199.652 329.124C201.101 325.911 204.283 328.488 204.283 328.488C205.238 325.134 208.278 328.277 208.278 328.277C208.278 328.277 208.385 326.441 210.117 326.547C211.178 326.617 214.642 328.736 217.153 330.324C218.461 331.137 219.946 331.56 221.431 331.56C222.032 331.56 222.633 331.49 223.234 331.348C226.31 330.642 228.679 328.171 229.244 325.064L234.123 298.547H245.649L249.361 303.279C250.811 309.175 250.705 321.144 250.422 329.159Z" fill="#FFBC96"/>
<path opacity="0.4" d="M249.256 335.091C247.417 340.034 243.599 344.024 238.684 345.966C238.295 344.977 238.048 343.918 238.048 342.788C238.048 338.234 241.725 334.562 246.286 334.562C247.346 334.562 248.336 334.738 249.256 335.091Z" fill="#FE5B52"/>
<path d="M275.348 247.845L251.66 252.683C242.962 254.448 236.103 261.227 234.265 269.913L227.83 300.348L249.362 303.349L275.348 247.845Z" fill="#16A086"/>
<path d="M283.621 247.845L307.309 252.683C316.007 254.448 322.866 261.227 324.704 269.913L327.639 291.521L306.744 295.193L283.621 247.845Z" fill="#16A086"/>
<path d="M249.362 303.349C249.362 303.349 248.23 338.057 245.932 346.389C245.932 346.389 278.106 357.582 314.592 343.247L311.729 279.269L283.656 247.845H275.383L247.382 284.142L249.362 303.349Z" fill="#16A086"/>
<path d="M355.18 248.728C355.322 250.988 351.574 257.873 348.71 262.781C346.589 266.382 345.245 270.407 344.75 274.574C341.038 305.644 338.599 331.631 327.78 338.94C325.27 340.634 322.3 341.305 318.8 340.846C316.325 340.493 314.274 339.505 312.612 338.022C301.192 327.888 306.743 295.264 306.743 295.264L320.885 292.828C320.885 292.828 324.032 266.135 326.047 256.955C328.063 247.775 331.209 252.647 331.209 252.647C332.376 249.788 335.523 251.482 335.523 251.482C337.821 247.775 340.685 250.635 340.685 250.635C342.417 247.21 347.296 253.212 347.296 253.212C350.443 251.729 354.897 243.962 355.18 248.728Z" fill="#FFBC96"/>
<path d="M250.299 274.18L248.907 303.312L249.79 303.354L251.182 274.222L250.299 274.18Z" fill="#0E6656"/>
<path d="M306.319 295.688L304.516 272.491L305.4 272.455L307.132 294.664L320.779 292.298L320.956 293.181L306.319 295.688Z" fill="#0E6656"/>
<path d="M323.828 268.034L317.353 316.86L318.229 316.976L324.705 268.15L323.828 268.034Z" fill="#D28572"/>
<path opacity="0.4" d="M327.78 338.904C325.269 340.599 322.3 341.27 318.799 340.811C316.325 340.458 314.274 339.469 312.612 337.986C313.956 335.268 316.784 333.432 320.002 333.432C323.572 333.396 326.648 335.691 327.78 338.904Z" fill="#FE5B52"/>
<path d="M331.649 252.523L330.776 252.657L331.591 257.926L332.465 257.792L331.649 252.523Z" fill="#D28572"/>
<path d="M336.078 251.336L335.238 251.612L336.938 256.778L337.777 256.502L336.078 251.336Z" fill="#D28572"/>
<path d="M341.122 250.009L340.289 250.305L342.21 255.694L343.043 255.398L341.122 250.009Z" fill="#D28572"/>
<path d="M297.799 273.867H288.571C288.288 273.867 288.041 273.62 288.041 273.338V271.184C288.041 270.902 288.288 270.654 288.571 270.654H297.799C298.082 270.654 298.329 270.902 298.329 271.184V273.338C298.329 273.62 298.082 273.867 297.799 273.867Z" fill="#B3DDD4"/>
<path d="M278.742 263.911C272.661 263.911 268.489 260.203 268.418 260.168L269.019 259.497C269.373 259.815 278.035 267.371 288.5 259.462L289.03 260.168C285.318 262.957 281.818 263.911 278.742 263.911Z" fill="#0E6656"/>
<path d="M213.652 332.973C211.779 332.231 209.728 330.678 207.748 328.453L208.42 327.853C210.329 329.971 212.238 331.454 214.006 332.16L213.652 332.973Z" fill="#D28572"/>
<path d="M208.597 334.279C206.793 333.149 205.202 331.278 203.682 328.594L204.46 328.171C205.874 330.713 207.394 332.478 209.056 333.537L208.597 334.279Z" fill="#D28572"/>
<path d="M205.026 335.903C202.869 334.314 200.889 332.055 198.945 329.054L199.687 328.595C201.561 331.49 203.47 333.679 205.556 335.197L205.026 335.903Z" fill="#D28572"/>
<path d="M278.742 258.191C273.792 258.191 269.762 254.166 269.762 249.222V234.075H287.722V249.222C287.687 254.166 283.692 258.191 278.742 258.191Z" fill="#FFBC96"/>
<path d="M269.762 235.629C275.313 244.951 281.252 245.692 287.722 235.7L269.762 235.629Z" fill="#D28572"/>
<path d="M278.742 239.477C271.883 239.477 266.297 233.899 266.297 227.049V206.076H291.187V227.049C291.187 233.899 285.601 239.477 278.742 239.477Z" fill="#FFBC96"/>
<path d="M278.494 227.332C277.045 225.955 276.479 224.86 276.833 224.013C277.151 223.201 278.176 222.918 278.742 222.848L278.707 220.129H279.59L279.626 223.695H279.202C278.777 223.695 277.823 223.872 277.646 224.331C277.575 224.542 277.54 225.213 279.095 226.696L278.494 227.332Z" fill="#0E6656"/>
<path d="M283.161 230.05C283.692 229.203 283.974 228.497 283.974 228.497C280.969 228.744 274.57 228.744 274.57 228.744C274.57 228.744 274.747 229.485 275.277 230.333C277.186 230.403 280.297 230.439 283.161 230.05Z" fill="white"/>
<path d="M275.277 230.333C275.913 231.356 277.115 232.486 279.131 232.557C281.075 232.628 282.383 231.215 283.161 230.05C280.297 230.438 277.186 230.403 275.277 230.333Z" fill="#0E6656"/>
<path d="M291.046 219.246C291.046 219.741 291.505 209.325 275.242 207.1C275.242 207.1 266.085 212.326 267.11 219.917L262.125 218.964C260.216 213.738 260.852 199.721 272.13 200.71C272.13 200.71 274.57 197.25 278.53 197.179C298.753 196.861 295.571 219.246 295.076 219.882L291.046 219.246Z" fill="#0E6656"/>
<path d="M297.448 224.051C298.402 221.162 297.237 218.181 294.844 217.393C292.452 216.605 289.74 218.309 288.786 221.198C287.832 224.086 288.997 227.067 291.39 227.855C293.782 228.643 296.494 226.94 297.448 224.051Z" fill="#FFBC96"/>
<path d="M292.495 224.224L291.611 224.119C291.753 222.918 292.637 220.552 294.864 220.447L294.899 221.329C292.849 221.435 292.495 224.189 292.495 224.224Z" fill="#0E6656"/>
<path d="M265.976 227.873C268.368 227.085 269.534 224.104 268.58 221.215C267.626 218.326 264.913 216.623 262.521 217.411C260.129 218.199 258.963 221.179 259.917 224.068C260.871 226.957 263.584 228.661 265.976 227.873Z" fill="#FFBC96"/>
<path d="M264.882 224.225C264.882 224.119 264.493 221.435 262.443 221.294L262.478 220.411C264.706 220.553 265.59 222.883 265.731 224.083L264.882 224.225Z" fill="#0E6656"/>
<path d="M285.142 217.552C285.142 218.364 284.541 218.999 283.798 218.999C283.056 218.999 282.455 218.364 282.455 217.552C282.455 216.739 283.056 216.104 283.798 216.104C284.541 216.104 285.142 216.739 285.142 217.552Z" fill="#0E6656"/>
<path d="M286.202 214.409L282.065 213.915C281.676 213.879 281.393 213.526 281.429 213.103L281.464 212.891C281.499 212.502 281.853 212.22 282.277 212.255L286.414 212.749C286.803 212.785 287.086 213.138 287.05 213.562L287.015 213.773C286.944 214.162 286.591 214.444 286.202 214.409Z" fill="#0E6656"/>
<path d="M272.236 217.552C272.236 218.364 272.837 218.999 273.58 218.999C274.322 218.999 274.923 218.364 274.923 217.552C274.923 216.739 274.322 216.104 273.58 216.104C272.837 216.104 272.236 216.739 272.236 217.552Z" fill="#0E6656"/>
<path d="M271.176 214.409L275.313 213.915C275.702 213.879 275.985 213.526 275.949 213.103L275.914 212.891C275.879 212.502 275.525 212.22 275.101 212.255L270.964 212.749C270.575 212.785 270.292 213.138 270.328 213.562L270.363 213.773C270.398 214.162 270.787 214.444 271.176 214.409Z" fill="#0E6656"/>
<path opacity="0.4" d="M286.308 226.131C287.909 226.131 289.207 224.835 289.207 223.236C289.207 221.637 287.909 220.341 286.308 220.341C284.707 220.341 283.409 221.637 283.409 223.236C283.409 224.835 284.707 226.131 286.308 226.131Z" fill="#FE5B52"/>
<path opacity="0.4" d="M271.07 226.131C272.671 226.131 273.969 224.835 273.969 223.236C273.969 221.637 272.671 220.341 271.07 220.341C269.468 220.341 268.17 221.637 268.17 223.236C268.17 224.835 269.468 226.131 271.07 226.131Z" fill="#FE5B52"/>
<path d="M197.071 315.425H110.768C108.293 315.425 106.313 313.448 106.313 310.976V275.527C106.313 273.055 108.293 271.078 110.768 271.078H197.071C199.546 271.078 201.526 273.055 201.526 275.527V310.976C201.526 313.448 199.546 315.425 197.071 315.425Z" fill="white"/>
<path d="M197.071 315.849H110.768C108.081 315.849 105.889 313.659 105.889 310.976V275.527C105.889 272.844 108.081 270.655 110.768 270.655H197.071C199.758 270.655 201.95 272.844 201.95 275.527V310.976C201.95 313.659 199.758 315.849 197.071 315.849ZM110.768 271.537C108.541 271.537 106.738 273.338 106.738 275.562V311.011C106.738 313.236 108.541 315.036 110.768 315.036H197.071C199.298 315.036 201.101 313.236 201.101 311.011V275.527C201.101 273.303 199.298 271.502 197.071 271.502H110.768V271.537Z" fill="#16A086"/>
<path d="M190.954 282.024H116.92V282.906H190.954V282.024Z" fill="#CFDFDC"/>
<path d="M190.954 292.828H116.92V293.711H190.954V292.828Z" fill="#CFDFDC"/>
<path d="M190.954 303.632H116.92V304.515H190.954V303.632Z" fill="#CFDFDC"/>
<path d="M118.157 304.585L117.45 304.056L122.718 297.418L131.804 300.49L139.618 292.016L147.573 298.407L156.907 287.991L165.392 297.736L172.923 278.175L180.772 290.498L189.893 277.363L190.636 277.857L180.772 292.086L173.135 280.152L165.675 299.43L156.907 289.332L147.679 299.642L139.724 293.216L132.052 301.514L123.036 298.442L118.157 304.585Z" fill="#16A086"/>
<path d="M356.771 195.131L352.529 160.706C335.346 162.789 322.052 177.406 322.052 195.131C322.052 214.303 337.609 229.803 356.771 229.803C375.969 229.803 391.49 214.268 391.49 195.131C391.49 194.107 391.455 193.118 391.349 192.13L356.771 195.131Z" fill="white"/>
<path d="M356.771 230.262C337.361 230.262 321.593 214.515 321.593 195.131C321.593 177.407 334.851 162.436 352.458 160.282L352.882 160.212L357.16 194.637L391.773 191.636L391.809 192.059C391.915 193.154 391.95 194.142 391.95 195.096C391.95 214.48 376.182 230.262 356.771 230.262ZM352.14 161.2C335.205 163.495 322.512 178.007 322.512 195.131C322.512 214.021 337.892 229.38 356.807 229.38C375.722 229.38 391.102 214.021 391.102 195.131C391.102 194.319 391.066 193.507 390.995 192.589L356.418 195.59L352.14 161.2Z" fill="#16A086"/>
<path d="M374.909 188.07L409.487 185.068C408.921 178.607 406.588 172.64 402.981 167.662L374.909 188.07Z" fill="#1BBC9B"/>
<path d="M384.844 174.723C378.515 166.073 368.298 160.459 356.772 160.459C355.322 160.459 353.908 160.565 352.494 160.741L356.772 195.166L384.844 174.723Z" fill="#CFDFDC"/>
<path d="M356.418 195.908L352.034 160.318L352.458 160.247C353.943 160.071 355.358 159.965 356.772 159.965C367.979 159.965 378.586 165.367 385.198 174.405L385.445 174.759L356.418 195.908ZM353.024 161.094L357.125 194.319L384.243 174.617C377.773 166.002 367.555 160.883 356.772 160.883C355.534 160.883 354.297 160.953 353.024 161.094Z" fill="#16A086"/>
<path d="M443.922 374.565H380.494C377.454 374.565 375.014 372.129 375.014 369.093V299.607C375.014 296.57 377.454 294.134 380.494 294.134H443.922C446.962 294.134 449.402 296.57 449.402 299.607V369.128C449.402 372.129 446.962 374.565 443.922 374.565Z" fill="white"/>
<path d="M443.922 374.989H380.495C377.242 374.989 374.59 372.341 374.59 369.093V299.607C374.59 296.359 377.242 293.71 380.495 293.71H443.922C447.175 293.71 449.827 296.359 449.827 299.607V369.128C449.827 372.341 447.175 374.989 443.922 374.989ZM380.495 294.523C377.702 294.523 375.439 296.782 375.439 299.572V369.093C375.439 371.882 377.702 374.142 380.495 374.142H443.922C446.715 374.142 448.978 371.882 448.978 369.093V299.607C448.978 296.818 446.715 294.558 443.922 294.558H380.495V294.523Z" fill="#16A086"/>
<path d="M440.952 305.645H383.5V306.563H440.952V305.645Z" fill="#CFDFDC"/>
<path d="M440.952 319.768H383.5V320.686H440.952V319.768Z" fill="#CFDFDC"/>
<path d="M440.952 333.891H383.5V334.809H440.952V333.891Z" fill="#CFDFDC"/>
<path d="M440.952 348.014H383.5V348.932H440.952V348.014Z" fill="#CFDFDC"/>
<path d="M440.952 362.137H383.5V363.055H440.952V362.137Z" fill="#CFDFDC"/>
<path d="M388.379 324.605H383.5V363.055H388.379V324.605Z" fill="#B3DDD4"/>
<path d="M398.985 338.904H394.106V363.055H398.985V338.904Z" fill="#CFDFDC"/>
<path d="M409.627 330.006H404.748V363.055H409.627V330.006Z" fill="#B3DDD4"/>
<path d="M420.269 324.075H415.39V363.055H420.269V324.075Z" fill="#CFDFDC"/>
<path d="M430.911 316.872H426.032V363.055H430.911V316.872Z" fill="#B3DDD4"/>
<path d="M441.553 309.21H436.674V363.055H441.553V309.21Z" fill="#CFDFDC"/>
<path d="M232.638 165.508H189.292C186.464 165.508 184.13 167.803 184.13 170.663V188.175C184.13 191 186.428 193.33 189.292 193.33H218.885L230.269 203.04V193.33H232.638C235.466 193.33 237.8 191.035 237.8 188.175V170.663C237.765 167.838 235.466 165.508 232.638 165.508Z" fill="white"/>
<path d="M230.729 204.028L218.708 193.789H189.292C186.181 193.789 183.671 191.282 183.671 188.175V170.663C183.671 167.556 186.181 165.049 189.292 165.049H232.638C235.749 165.049 238.26 167.556 238.26 170.663V188.175C238.26 191.282 235.749 193.789 232.638 193.789H230.729V204.028ZM189.292 165.967C186.711 165.967 184.59 168.05 184.59 170.663V188.175C184.59 190.753 186.676 192.871 189.292 192.871H219.062L229.81 202.051V192.871H232.638C235.219 192.871 237.34 190.788 237.34 188.175V170.663C237.34 168.085 235.254 165.967 232.638 165.967H189.292Z" fill="#16A086"/>
<path d="M225.39 172.569H190.707V173.452H225.39V172.569Z" fill="#1BBC9B"/>
<path d="M230.057 178.536H190.707V179.419H230.057V178.536Z" fill="#1BBC9B"/>
<path d="M218.319 184.504H190.707V185.386H218.319V184.504Z" fill="#1BBC9B"/>
<path d="M221.077 465.447H208.703V615.505H221.077V465.447Z" fill="#B3DDD4"/>
<path d="M347.014 465.447H334.639V615.505H347.014V465.447Z" fill="#B3DDD4"/>
<path opacity="0.3" d="M221.077 465.059H208.703V491.504H221.077V465.059Z" fill="#0E6656"/>
<path opacity="0.3" d="M347.014 465.059H334.639V491.504H347.014V465.059Z" fill="#0E6656"/>
<path d="M416.84 460.328H138.911V472.756H416.84V460.328Z" fill="#B3DDD4"/>
<path d="M384.136 456.091H351.963V460.363H384.136V456.091Z" fill="#0E6656"/>
<path d="M356.7 460.363H351.927L332.942 410.367C332.376 408.92 333.472 407.366 335.027 407.366C335.947 407.366 336.795 407.931 337.113 408.814L356.7 460.363Z" fill="#0E6656"/>
<path d="M178.927 460.353H211.101V456.081H178.927V460.353Z" fill="#0E6656"/>
<path d="M206.333 460.363H211.106L230.092 410.367C230.658 408.92 229.562 407.366 228.006 407.366C227.087 407.366 226.239 407.931 225.92 408.814L206.333 460.363Z" fill="#0E6656"/>
<path d="M115.647 402.811L133.219 405.636L133.396 396.032L133.608 386.464L133.749 378.272L128.87 375.977L120.527 385.758L115.647 402.811Z" fill="#D28572"/>
<path d="M126.219 386.358C126.219 386.358 128.34 390.807 133.396 396.032L133.573 386.464L126.219 386.358Z" fill="#925D4F"/>
<path d="M145.77 374.53C145.982 374.636 151.321 382.827 148.917 383.569C146.513 384.31 143.472 384.028 143.472 384.028L145.77 374.53Z" fill="#925D4F"/>
<path d="M147.503 367.574L145.275 387.947C145.098 389.677 143.967 391.16 142.341 391.795C141.209 392.219 139.936 392.219 138.84 391.725L126.219 386.358L124.521 374.883L134.739 364.185L147.503 367.574Z" fill="#D28572"/>
<path d="M117.168 391.619L111.122 405.036L134.563 408.708L136.189 398.257L117.168 391.619Z" fill="#B3DDD4"/>
<path d="M132.547 374.848C132.547 374.848 142.906 373.118 147.503 367.574C147.503 367.574 149.2 356.841 133.431 355.428C116.284 353.875 100.232 378.096 100.232 378.096L121.163 396.35L132.547 374.848Z" fill="#0E6656"/>
<path d="M134.007 379.907C135.761 379.006 136.228 376.42 135.049 374.131C133.87 371.842 131.493 370.717 129.739 371.617C127.985 372.518 127.519 375.104 128.698 377.393C129.876 379.682 132.254 380.807 134.007 379.907Z" fill="#D28572"/>
<path d="M132.618 377.425C132.547 376.931 132.194 375.554 131.451 375.024C131.169 374.812 130.85 374.777 130.461 374.847L130.285 374C130.921 373.859 131.487 373.965 131.982 374.318C133.219 375.165 133.537 377.213 133.537 377.319L132.618 377.425Z" fill="#0E6656"/>
<path opacity="0.3" d="M140.042 383.392C141.936 383.392 143.472 381.859 143.472 379.967C143.472 378.076 141.936 376.542 140.042 376.542C138.148 376.542 136.613 378.076 136.613 379.967C136.613 381.859 138.148 383.392 140.042 383.392Z" fill="#BE443D"/>
<path d="M142.199 435.048C140.82 440.132 137.249 444.475 132.194 446.558C131.911 446.664 131.593 446.805 131.274 446.911C130.956 447.017 130.673 447.123 130.391 447.229C120.951 450.936 113.561 458.704 110.591 468.449C110.415 469.014 110.273 469.543 110.167 470.038C110.167 470.038 90.5096 472.897 70.6045 461.881C70.6045 461.881 81.5647 423.043 105.748 404.577C111.334 400.305 118.688 399.069 125.405 401.187C128.34 402.141 131.098 403.518 133.573 405.283C136.047 407.049 138.239 409.238 140.043 411.709L140.467 412.309L142.588 427.88C142.977 430.352 142.8 432.753 142.199 435.048Z" fill="#0E6656"/>
<path d="M142.199 435.047C140.82 440.132 137.249 444.475 132.193 446.558C131.911 446.664 131.592 446.805 131.274 446.911C130.956 447.017 130.673 447.123 130.39 447.229C127.35 439.743 124.804 427.809 124.804 427.809L139.547 429.751L142.199 435.047Z" fill="#0C584A"/>
<path d="M174.019 418.418C174.019 418.418 186.959 404.612 191.025 405.601C192.793 406.06 187.489 411.568 187.489 411.568C187.489 411.568 192.545 411.674 200.642 407.472C201.526 407.013 202.622 407.402 203.01 408.32C203.258 408.885 203.152 409.555 202.763 410.05C201.031 412.168 195.939 417.888 188.798 420.395L185.792 424.279L178.191 427.88L174.019 418.418Z" fill="#D28572"/>
<path d="M185.827 424.314L168.892 454.467C166.771 458.21 162.846 460.505 158.533 460.505C156.801 460.505 155.139 460.116 153.619 459.446C152.098 458.739 150.72 457.715 149.588 456.409L124.839 427.845L140.537 412.345L157.72 435.86L174.089 418.418L185.827 424.314Z" fill="#0E6656"/>
<path d="M162.493 444.581C152.558 429.116 139.371 410.791 132.3 404.753L132.865 404.083C141.033 411.038 155.776 432.541 163.236 444.122L162.493 444.581Z" fill="#16A086"/>
<path d="M158.993 461.317C157.19 461.317 155.316 460.822 153.407 459.798C147.997 456.868 125.44 429.292 124.486 428.092L125.158 427.527C125.405 427.81 148.528 456.162 153.795 458.986C159.771 462.199 163.836 459.269 165.746 457.256C168.751 454.008 185.262 424.349 185.403 424.067L186.181 424.491C185.509 425.726 169.458 454.538 166.382 457.856C164.296 460.151 161.715 461.317 158.993 461.317Z" fill="#16A086"/>
<path d="M131.168 580.692L115.93 610.704L119.254 611.163L124.769 603.324L142.093 615.541L152.24 615.505C152.24 615.505 154.291 613.458 149.023 607.985C142.836 601.559 139.265 593.12 139.442 584.293V583.517L135.27 579.28L131.168 580.692Z" fill="#0E6656"/>
<path d="M131.805 590.049L128.446 615.47H131.805L136.189 606.926L152.346 615.117H165.109C165.109 615.117 166.877 612.822 160.867 608.126C153.831 602.618 149.129 594.745 148.033 586.023L147.927 585.282L143.224 581.681L131.805 590.049Z" fill="#12806B"/>
<path d="M149.73 593.191L173.383 510.112C175.292 503.403 172.11 496.306 165.817 493.305L144.497 483.066L143.225 581.716L149.73 593.191Z" fill="#0E6656"/>
<path d="M70.6044 461.881L65.8314 484.549C63.0383 497.789 73.15 510.218 86.6911 510.218H131.274C126.82 532.003 129.719 561.944 131.274 592.767L149.695 593.226L162.387 514.031C164.508 500.791 157.013 487.868 144.462 483.101L110.132 470.108L70.6044 461.881Z" fill="#16A086"/>
<path opacity="0.4" d="M144.427 593.226L143.543 593.12C143.649 592.379 153.23 518.303 150.614 504.71C147.927 490.657 120.774 486.597 106.208 484.408C104.899 484.231 103.733 484.019 102.637 483.878C98.995 483.313 96.3787 481.724 94.9292 479.182C92.03 474.204 94.5403 467.389 94.6463 467.071L95.4595 467.389C95.4241 467.46 92.9846 474.133 95.6716 478.723C97.0151 481.018 99.384 482.43 102.778 482.96C103.839 483.136 105.041 483.313 106.314 483.49C121.092 485.714 148.634 489.81 151.463 504.498C152.559 510.288 151.71 526.953 148.917 554.105C146.866 574.301 144.427 593.05 144.427 593.226Z" fill="white"/>
<path d="M80.7517 513.784L77.7112 531.403L63.1094 615.647H56.9575L71.5593 531.403L74.5999 513.784H80.7517Z" fill="#B3DDD4"/>
<path d="M121.41 615.647H115.259L100.692 531.403L97.6162 513.784H103.768L106.809 531.403L121.41 615.647Z" fill="#B3DDD4"/>
<path opacity="0.3" d="M80.752 513.784L77.7114 531.403H71.5596L74.6001 513.784H80.752Z" fill="#0E6656"/>
<path opacity="0.3" d="M106.809 531.403H100.692L97.6162 513.784H103.768L106.809 531.403Z" fill="#0E6656"/>
<path d="M116.283 518.586H58.8662V510.182H116.283C118.617 510.182 120.491 512.054 120.491 514.384C120.491 516.714 118.582 518.586 116.283 518.586Z" fill="#B3DDD4"/>
<path d="M66.9628 518.586H58.8664L31.5013 451.607C30.7234 449.736 31.572 447.617 33.4105 446.734C35.3904 445.816 37.7238 446.735 38.537 448.747L66.9628 518.586Z" fill="#B3DDD4"/>
<path d="M439.822 373.965C439.609 374.071 433.953 381.98 436.286 382.828C438.655 383.675 441.66 383.534 441.66 383.534L439.822 373.965Z" fill="#D28572"/>
<path d="M468.495 403.376L449.58 405.601L449.933 396.032L450.287 386.499L450.605 378.343L455.944 376.225L464.287 386.217L468.495 403.376Z" fill="#FFBC96"/>
<path d="M458.171 386.641C458.171 386.641 455.661 390.984 449.969 396.033L450.322 386.5L458.171 386.641Z" fill="#D28572"/>
<path d="M438.372 366.939L439.68 387.276C439.786 389.006 440.846 390.524 442.437 391.23C443.533 391.725 444.806 391.76 445.938 391.336L458.701 386.57L460.893 375.236L451.206 364.185L438.372 366.939Z" fill="#FFBC96"/>
<path d="M453.15 375.201C453.15 375.201 450.004 369.128 446.751 368.175C446.751 368.175 434.164 372.27 431.407 362.631C431.407 362.631 438.478 362.702 444.559 358.465C450.64 354.228 456.969 356.241 461.353 360.23C461.353 360.23 475.672 360.937 464.393 386.182C464.393 386.182 461.565 387.135 454.317 377.037L453.15 375.201Z" fill="#0E6656"/>
<path d="M456.686 377.284C455.413 379.508 453.009 380.532 451.312 379.544C449.615 378.59 449.261 375.977 450.534 373.788C451.807 371.599 454.211 370.54 455.908 371.529C457.605 372.482 457.959 375.059 456.686 377.284Z" fill="#FFBC96"/>
<path opacity="0.4" d="M445.761 382.439C447.675 382.439 449.226 380.858 449.226 378.908C449.226 376.958 447.675 375.378 445.761 375.378C443.848 375.378 442.296 376.958 442.296 378.908C442.296 380.858 443.848 382.439 445.761 382.439Z" fill="#FE5B52"/>
<path d="M452.585 377.108C452.408 375.978 452.727 373.612 455.166 372.906L455.414 373.753C453.115 374.424 453.434 376.86 453.469 376.966L452.585 377.108Z" fill="#0E6656"/>
<path d="M449.58 405.601L449.792 395.75L466.444 391.478L471.323 403.694L449.58 405.601Z" fill="#B3DDD4"/>
<path d="M452.16 401.646C443.817 409.767 437.735 421.948 430.063 434.306C430.063 434.306 404.112 441.015 396.652 448.429L410.017 455.208L455.696 442.568L452.16 401.646Z" fill="#0E6656"/>
<path d="M384.632 585.918L374.202 615.435L341.604 607.314C341.604 607.314 346.66 600.394 361.969 602.371L370.101 579.562L384.632 585.918Z" fill="#0E6656"/>
<path d="M449.792 469.155L402.734 484.443C391.667 488.045 383.253 497.013 380.389 508.276L361.438 586.589L387.071 593.227C397.112 569.429 406.87 541.042 413.588 513.502L449.792 469.155Z" fill="#12806B"/>
<path d="M432.715 588.177L436.533 615.541H400.895C400.895 615.541 404.148 607.597 419.457 605.831L418.573 589.343L432.715 588.177Z" fill="#0E6656"/>
<path d="M492.465 461.352L497.238 484.02C500.031 497.26 490.096 510.43 476.555 510.43H433.669C436.073 532.427 438.407 561.414 436.851 592.238L413.375 592.697L400.683 513.502C398.561 500.261 406.057 487.338 418.608 482.572L449.827 469.19L492.465 461.352Z" fill="#16A086"/>
<path d="M493.986 468.731C490.133 431.905 484.617 397.162 456.828 398.751C455.166 398.857 453.646 399.599 452.479 400.764C447.706 405.53 445.267 412.168 445.797 418.877L449.828 469.19C449.792 469.155 471.465 473.145 493.986 468.731Z" fill="#0E6656"/>
<path d="M396.652 448.076C396.652 448.076 380.283 451.183 377.631 460.434H400.824L405.243 457.327L396.652 448.076Z" fill="#FFBC96"/>
<path d="M456.969 406.837L435.755 439.708L396.652 448.111L400.86 460.469L433.669 460.293C442.473 460.116 450.004 455.526 454.918 448.217L473.162 422.054L456.969 406.837Z" fill="#0E6656"/>
<path d="M396.758 448.535L396.582 447.688L435.437 439.355C436.463 436.425 437.488 433.424 438.513 430.493C442.579 418.488 446.468 407.155 451.241 400.976L451.948 401.505C447.246 407.578 443.428 418.842 439.362 430.776C438.336 433.777 437.276 436.884 436.215 439.885L436.144 440.132L435.897 440.167L396.758 448.535Z" fill="#16A086"/>
<path d="M420.093 461.069C411.007 461.069 401.567 460.893 400.86 460.893V460.01C401.178 460.01 432.786 460.54 436.675 459.692L436.781 459.657C446.15 457.574 453.928 451.007 457.605 442.109L461.989 431.482L462.803 431.835L458.418 442.462C454.635 451.642 446.645 458.386 436.958 460.54L436.852 460.575C435.049 460.964 427.695 461.069 420.093 461.069Z" fill="#16A086"/>
<path d="M501.906 615.612H508.058L490.416 513.784H484.264L501.906 615.612Z" fill="#B3DDD4"/>
<path d="M449.757 615.612H443.605L461.247 513.784H467.399L449.757 615.612Z" fill="#B3DDD4"/>
<path opacity="0.3" d="M467.398 513.784L464.323 531.403H458.206L461.247 513.784H467.398Z" fill="#0E6656"/>
<path opacity="0.3" d="M493.456 531.403H487.304L484.263 513.784H490.415L493.456 531.403Z" fill="#0E6656"/>
<path d="M448.732 518.586H506.149V510.182H448.732C446.398 510.182 444.524 512.054 444.524 514.384C444.56 516.714 446.434 518.586 448.732 518.586Z" fill="#B3DDD4"/>
<path d="M498.052 518.586H506.149L533.514 451.607C534.292 449.736 533.443 447.617 531.605 446.734C529.625 445.816 527.291 446.735 526.478 448.747L498.052 518.586Z" fill="#B3DDD4"/>
</g>
<path d="M180.162 24.72C180.162 26.2133 179.802 27.6133 179.082 28.92C178.389 30.2267 177.282 31.28 175.762 32.08C174.269 32.88 172.376 33.28 170.082 33.28H165.402V44H159.802V16.08H170.082C172.242 16.08 174.082 16.4533 175.602 17.2C177.122 17.9467 178.256 18.9733 179.002 20.28C179.776 21.5867 180.162 23.0667 180.162 24.72ZM169.842 28.76C171.389 28.76 172.536 28.4133 173.282 27.72C174.029 27 174.402 26 174.402 24.72C174.402 22 172.882 20.64 169.842 20.64H165.402V28.76H169.842ZM186.978 19.2C185.992 19.2 185.165 18.8933 184.498 18.28C183.858 17.64 183.538 16.8533 183.538 15.92C183.538 14.9867 183.858 14.2133 184.498 13.6C185.165 12.96 185.992 12.64 186.978 12.64C187.965 12.64 188.778 12.96 189.418 13.6C190.085 14.2133 190.418 14.9867 190.418 15.92C190.418 16.8533 190.085 17.64 189.418 18.28C188.778 18.8933 187.965 19.2 186.978 19.2ZM189.738 21.84V44H184.138V21.84H189.738ZM193.831 32.92C193.831 30.6267 194.298 28.6267 195.231 26.92C196.165 25.1867 197.458 23.8533 199.111 22.92C200.765 21.96 202.658 21.48 204.791 21.48C207.538 21.48 209.805 22.1733 211.591 23.56C213.405 24.92 214.618 26.84 215.231 29.32H209.191C208.871 28.36 208.325 27.6133 207.551 27.08C206.805 26.52 205.871 26.24 204.751 26.24C203.151 26.24 201.885 26.8267 200.951 28C200.018 29.1467 199.551 30.7867 199.551 32.92C199.551 35.0267 200.018 36.6667 200.951 37.84C201.885 38.9867 203.151 39.56 204.751 39.56C207.018 39.56 208.498 38.5467 209.191 36.52H215.231C214.618 38.92 213.405 40.8267 211.591 42.24C209.778 43.6533 207.511 44.36 204.791 44.36C202.658 44.36 200.765 43.8933 199.111 42.96C197.458 42 196.165 40.6667 195.231 38.96C194.298 37.2267 193.831 35.2133 193.831 32.92ZM232.454 44L224.934 34.56V44H219.334V14.4H224.934V31.24L232.374 21.84H239.654L229.894 32.96L239.734 44H232.454ZM250.784 32.84C250.784 30.6 251.224 28.6133 252.104 26.88C253.011 25.1467 254.224 23.8133 255.744 22.88C257.291 21.9467 259.011 21.48 260.904 21.48C262.558 21.48 263.998 21.8133 265.224 22.48C266.478 23.1467 267.478 23.9867 268.224 25V21.84H273.864V44H268.224V40.76C267.504 41.8 266.504 42.6667 265.224 43.36C263.971 44.0267 262.518 44.36 260.864 44.36C258.998 44.36 257.291 43.88 255.744 42.92C254.224 41.96 253.011 40.6133 252.104 38.88C251.224 37.12 250.784 35.1067 250.784 32.84ZM268.224 32.92C268.224 31.56 267.958 30.4 267.424 29.44C266.891 28.4533 266.171 27.7067 265.264 27.2C264.358 26.6667 263.384 26.4 262.344 26.4C261.304 26.4 260.344 26.6533 259.464 27.16C258.584 27.6667 257.864 28.4133 257.304 29.4C256.771 30.36 256.504 31.5067 256.504 32.84C256.504 34.1733 256.771 35.3467 257.304 36.36C257.864 37.3467 258.584 38.1067 259.464 38.64C260.371 39.1733 261.331 39.44 262.344 39.44C263.384 39.44 264.358 39.1867 265.264 38.68C266.171 38.1467 266.891 37.4 267.424 36.44C267.958 35.4533 268.224 34.28 268.224 32.92ZM295.385 26.44V37.16C295.385 37.9067 295.558 38.4533 295.905 38.8C296.278 39.12 296.892 39.28 297.745 39.28H300.345V44H296.825C292.105 44 289.745 41.7067 289.745 37.12V26.44H287.105V21.84H289.745V16.36H295.385V21.84H300.345V26.44H295.385ZM314.213 44.36C312.079 44.36 310.159 43.8933 308.453 42.96C306.746 42 305.399 40.6533 304.413 38.92C303.453 37.1867 302.973 35.1867 302.973 32.92C302.973 30.6533 303.466 28.6533 304.453 26.92C305.466 25.1867 306.839 23.8533 308.573 22.92C310.306 21.96 312.239 21.48 314.373 21.48C316.506 21.48 318.439 21.96 320.173 22.92C321.906 23.8533 323.266 25.1867 324.253 26.92C325.266 28.6533 325.773 30.6533 325.773 32.92C325.773 35.1867 325.253 37.1867 324.213 38.92C323.199 40.6533 321.813 42 320.053 42.96C318.319 43.8933 316.373 44.36 314.213 44.36ZM314.213 39.48C315.226 39.48 316.173 39.24 317.053 38.76C317.959 38.2533 318.679 37.5067 319.213 36.52C319.746 35.5333 320.013 34.3333 320.013 32.92C320.013 30.8133 319.453 29.2 318.333 28.08C317.239 26.9333 315.893 26.36 314.293 26.36C312.693 26.36 311.346 26.9333 310.253 28.08C309.186 29.2 308.653 30.8133 308.653 32.92C308.653 35.0267 309.173 36.6533 310.213 37.8C311.279 38.92 312.613 39.48 314.213 39.48ZM335.481 25.04C336.201 24.0267 337.187 23.1867 338.441 22.52C339.721 21.8267 341.174 21.48 342.801 21.48C344.694 21.48 346.401 21.9467 347.921 22.88C349.467 23.8133 350.681 25.1467 351.561 26.88C352.467 28.5867 352.921 30.5733 352.921 32.84C352.921 35.1067 352.467 37.12 351.561 38.88C350.681 40.6133 349.467 41.96 347.921 42.92C346.401 43.88 344.694 44.36 342.801 44.36C341.174 44.36 339.734 44.0267 338.481 43.36C337.254 42.6933 336.254 41.8533 335.481 40.84V54.56H329.881V21.84H335.481V25.04ZM347.201 32.84C347.201 31.5067 346.921 30.36 346.361 29.4C345.827 28.4133 345.107 27.6667 344.201 27.16C343.321 26.6533 342.361 26.4 341.321 26.4C340.307 26.4 339.347 26.6667 338.441 27.2C337.561 27.7067 336.841 28.4533 336.281 29.44C335.747 30.4267 335.481 31.5867 335.481 32.92C335.481 34.2533 335.747 35.4133 336.281 36.4C336.841 37.3867 337.561 38.1467 338.441 38.68C339.347 39.1867 340.307 39.44 341.321 39.44C342.361 39.44 343.321 39.1733 344.201 38.64C345.107 38.1067 345.827 37.3467 346.361 36.36C346.921 35.3733 347.201 34.2 347.201 32.84ZM359.83 19.2C358.843 19.2 358.017 18.8933 357.35 18.28C356.71 17.64 356.39 16.8533 356.39 15.92C356.39 14.9867 356.71 14.2133 357.35 13.6C358.017 12.96 358.843 12.64 359.83 12.64C360.817 12.64 361.63 12.96 362.27 13.6C362.937 14.2133 363.27 14.9867 363.27 15.92C363.27 16.8533 362.937 17.64 362.27 18.28C361.63 18.8933 360.817 19.2 359.83 19.2ZM362.59 21.84V44H356.99V21.84H362.59ZM366.683 32.92C366.683 30.6267 367.149 28.6267 368.083 26.92C369.016 25.1867 370.309 23.8533 371.963 22.92C373.616 21.96 375.509 21.48 377.643 21.48C380.389 21.48 382.656 22.1733 384.443 23.56C386.256 24.92 387.469 26.84 388.083 29.32H382.043C381.723 28.36 381.176 27.6133 380.403 27.08C379.656 26.52 378.723 26.24 377.603 26.24C376.003 26.24 374.736 26.8267 373.803 28C372.869 29.1467 372.403 30.7867 372.403 32.92C372.403 35.0267 372.869 36.6667 373.803 37.84C374.736 38.9867 376.003 39.56 377.603 39.56C379.869 39.56 381.349 38.5467 382.043 36.52H388.083C387.469 38.92 386.256 40.8267 384.443 42.24C382.629 43.6533 380.363 44.36 377.643 44.36C375.509 44.36 373.616 43.8933 371.963 42.96C370.309 42 369.016 40.6667 368.083 38.96C367.149 37.2267 366.683 35.2133 366.683 32.92ZM148.71 104L145.07 100.32C143.71 101.733 142.257 102.787 140.71 103.48C139.163 104.147 137.417 104.48 135.47 104.48C133.55 104.48 131.843 104.133 130.35 103.44C128.883 102.747 127.737 101.76 126.91 100.48C126.11 99.2 125.71 97.7067 125.71 96C125.71 94.0533 126.257 92.3467 127.35 90.88C128.47 89.3867 130.11 88.2133 132.27 87.36C131.417 86.3467 130.803 85.4133 130.43 84.56C130.057 83.7067 129.87 82.7733 129.87 81.76C129.87 80.5867 130.163 79.5333 130.75 78.6C131.363 77.64 132.23 76.8933 133.35 76.36C134.47 75.8267 135.763 75.56 137.23 75.56C138.67 75.56 139.923 75.84 140.99 76.4C142.057 76.96 142.857 77.7467 143.39 78.76C143.923 79.7467 144.163 80.8533 144.11 82.08H140.47C140.497 80.9867 140.19 80.1333 139.55 79.52C138.91 78.88 138.083 78.56 137.07 78.56C136.003 78.56 135.137 78.8667 134.47 79.48C133.83 80.0667 133.51 80.8267 133.51 81.76C133.51 82.56 133.723 83.3333 134.15 84.08C134.603 84.8267 135.35 85.7467 136.39 86.84L144.71 95.2L145.43 94.08L148.15 89.52H152.07L148.79 95.2C148.337 96 147.803 96.84 147.19 97.72L153.47 104H148.71ZM135.47 101.36C136.91 101.36 138.203 101.08 139.35 100.52C140.523 99.96 141.63 99.0933 142.67 97.92L134.47 89.68C131.057 90.9867 129.35 93.0533 129.35 95.88C129.35 97.4533 129.91 98.76 131.03 99.8C132.177 100.84 133.657 101.36 135.47 101.36ZM175.304 104.36C173.624 104.36 172.118 104.08 170.784 103.52C169.451 102.933 168.398 102.133 167.624 101.12C166.851 100.08 166.424 98.8933 166.344 97.56H170.104C170.211 98.6533 170.718 99.5467 171.624 100.24C172.558 100.933 173.771 101.28 175.264 101.28C176.651 101.28 177.744 100.973 178.544 100.36C179.344 99.7467 179.744 98.9733 179.744 98.04C179.744 97.08 179.318 96.3733 178.464 95.92C177.611 95.44 176.291 94.9733 174.504 94.52C172.878 94.0933 171.544 93.6667 170.504 93.24C169.491 92.7867 168.611 92.1333 167.864 91.28C167.144 90.4 166.784 89.2533 166.784 87.84C166.784 86.72 167.118 85.6933 167.784 84.76C168.451 83.8267 169.398 83.0933 170.624 82.56C171.851 82 173.251 81.72 174.824 81.72C177.251 81.72 179.211 82.3333 180.704 83.56C182.198 84.7867 182.998 86.4667 183.104 88.6H179.464C179.384 87.4533 178.918 86.5333 178.064 85.84C177.238 85.1467 176.118 84.8 174.704 84.8C173.398 84.8 172.358 85.08 171.584 85.64C170.811 86.2 170.424 86.9333 170.424 87.84C170.424 88.56 170.651 89.16 171.104 89.64C171.584 90.0933 172.171 90.4667 172.864 90.76C173.584 91.0267 174.571 91.3333 175.824 91.68C177.398 92.1067 178.678 92.5333 179.664 92.96C180.651 93.36 181.491 93.9733 182.184 94.8C182.904 95.6267 183.278 96.7067 183.304 98.04C183.304 99.24 182.971 100.32 182.304 101.28C181.638 102.24 180.691 103 179.464 103.56C178.264 104.093 176.878 104.36 175.304 104.36ZM192.883 85.08V98C192.883 99.0667 193.109 99.8267 193.563 100.28C194.016 100.707 194.803 100.92 195.923 100.92H198.603V104H195.323C193.296 104 191.776 103.533 190.763 102.6C189.749 101.667 189.243 100.133 189.243 98V85.08H186.403V82.08H189.243V76.56H192.883V82.08H198.603V85.08H192.883ZM201.653 92.96C201.653 90.72 202.106 88.76 203.013 87.08C203.92 85.3733 205.16 84.0533 206.733 83.12C208.333 82.1867 210.106 81.72 212.053 81.72C213.973 81.72 215.64 82.1333 217.053 82.96C218.466 83.7867 219.52 84.8267 220.213 86.08V82.08H223.893V104H220.213V99.92C219.493 101.2 218.413 102.267 216.973 103.12C215.56 103.947 213.906 104.36 212.013 104.36C210.066 104.36 208.306 103.88 206.733 102.92C205.16 101.96 203.92 100.613 203.013 98.88C202.106 97.1467 201.653 95.1733 201.653 92.96ZM220.213 93C220.213 91.3467 219.88 89.9067 219.213 88.68C218.546 87.4533 217.64 86.52 216.493 85.88C215.373 85.2133 214.133 84.88 212.773 84.88C211.413 84.88 210.173 85.2 209.053 85.84C207.933 86.48 207.04 87.4133 206.373 88.64C205.706 89.8667 205.373 91.3067 205.373 92.96C205.373 94.64 205.706 96.1067 206.373 97.36C207.04 98.5867 207.933 99.5333 209.053 100.2C210.173 100.84 211.413 101.16 212.773 101.16C214.133 101.16 215.373 100.84 216.493 100.2C217.64 99.5333 218.546 98.5867 219.213 97.36C219.88 96.1067 220.213 94.6533 220.213 93ZM233.684 85.64C234.324 84.3867 235.231 83.4133 236.404 82.72C237.604 82.0267 239.058 81.68 240.764 81.68V85.44H239.804C235.724 85.44 233.684 87.6533 233.684 92.08V104H230.044V82.08H233.684V85.64ZM249.406 85.08V98C249.406 99.0667 249.633 99.8267 250.086 100.28C250.54 100.707 251.326 100.92 252.446 100.92H255.126V104H251.846C249.82 104 248.3 103.533 247.286 102.6C246.273 101.667 245.766 100.133 245.766 98V85.08H242.926V82.08H245.766V76.56H249.406V82.08H255.126V85.08H249.406ZM273.841 74.4V104H270.201V74.4H273.841ZM300.044 92.2C300.044 92.8933 300.004 93.6267 299.924 94.4H282.404C282.538 96.56 283.271 98.2533 284.604 99.48C285.964 100.68 287.604 101.28 289.524 101.28C291.098 101.28 292.404 100.92 293.444 100.2C294.511 99.4533 295.258 98.4667 295.684 97.24H299.604C299.018 99.3467 297.844 101.067 296.084 102.4C294.324 103.707 292.138 104.36 289.524 104.36C287.444 104.36 285.578 103.893 283.924 102.96C282.298 102.027 281.018 100.707 280.084 99C279.151 97.2667 278.684 95.2667 278.684 93C278.684 90.7333 279.138 88.7467 280.044 87.04C280.951 85.3333 282.218 84.0267 283.844 83.12C285.498 82.1867 287.391 81.72 289.524 81.72C291.604 81.72 293.444 82.1733 295.044 83.08C296.644 83.9867 297.871 85.24 298.724 86.84C299.604 88.4133 300.044 90.2 300.044 92.2ZM296.284 91.44C296.284 90.0533 295.978 88.8667 295.364 87.88C294.751 86.8667 293.911 86.1067 292.844 85.6C291.804 85.0667 290.644 84.8 289.364 84.8C287.524 84.8 285.951 85.3867 284.644 86.56C283.364 87.7333 282.631 89.36 282.444 91.44H296.284ZM303.489 92.96C303.489 90.72 303.942 88.76 304.849 87.08C305.756 85.3733 306.996 84.0533 308.569 83.12C310.169 82.1867 311.942 81.72 313.889 81.72C315.809 81.72 317.476 82.1333 318.889 82.96C320.302 83.7867 321.356 84.8267 322.049 86.08V82.08H325.729V104H322.049V99.92C321.329 101.2 320.249 102.267 318.809 103.12C317.396 103.947 315.742 104.36 313.849 104.36C311.902 104.36 310.142 103.88 308.569 102.92C306.996 101.96 305.756 100.613 304.849 98.88C303.942 97.1467 303.489 95.1733 303.489 92.96ZM322.049 93C322.049 91.3467 321.716 89.9067 321.049 88.68C320.382 87.4533 319.476 86.52 318.329 85.88C317.209 85.2133 315.969 84.88 314.609 84.88C313.249 84.88 312.009 85.2 310.889 85.84C309.769 86.48 308.876 87.4133 308.209 88.64C307.542 89.8667 307.209 91.3067 307.209 92.96C307.209 94.64 307.542 96.1067 308.209 97.36C308.876 98.5867 309.769 99.5333 310.889 100.2C312.009 100.84 313.249 101.16 314.609 101.16C315.969 101.16 317.209 100.84 318.329 100.2C319.476 99.5333 320.382 98.5867 321.049 97.36C321.716 96.1067 322.049 94.6533 322.049 93ZM335.52 85.64C336.16 84.3867 337.067 83.4133 338.24 82.72C339.44 82.0267 340.894 81.68 342.6 81.68V85.44H341.64C337.56 85.44 335.52 87.6533 335.52 92.08V104H331.88V82.08H335.52V85.64ZM357.482 81.68C360.149 81.68 362.309 82.4933 363.962 84.12C365.616 85.72 366.442 88.04 366.442 91.08V104H362.842V91.6C362.842 89.4133 362.296 87.7467 361.202 86.6C360.109 85.4267 358.616 84.84 356.722 84.84C354.802 84.84 353.269 85.44 352.122 86.64C351.002 87.84 350.442 89.5867 350.442 91.88V104H346.802V82.08H350.442V85.2C351.162 84.08 352.136 83.2133 353.362 82.6C354.616 81.9867 355.989 81.68 357.482 81.68ZM374.268 78.52C373.575 78.52 372.988 78.28 372.508 77.8C372.028 77.32 371.788 76.7333 371.788 76.04C371.788 75.3467 372.028 74.76 372.508 74.28C372.988 73.8 373.575 73.56 374.268 73.56C374.935 73.56 375.495 73.8 375.948 74.28C376.428 74.76 376.668 75.3467 376.668 76.04C376.668 76.7333 376.428 77.32 375.948 77.8C375.495 78.28 374.935 78.52 374.268 78.52ZM376.028 82.08V104H372.388V82.08H376.028ZM392.912 81.68C395.579 81.68 397.739 82.4933 399.392 84.12C401.045 85.72 401.872 88.04 401.872 91.08V104H398.272V91.6C398.272 89.4133 397.725 87.7467 396.632 86.6C395.539 85.4267 394.045 84.84 392.152 84.84C390.232 84.84 388.699 85.44 387.552 86.64C386.432 87.84 385.872 89.5867 385.872 91.88V104H382.232V82.08H385.872V85.2C386.592 84.08 387.565 83.2133 388.792 82.6C390.045 81.9867 391.419 81.68 392.912 81.68ZM416.858 81.72C418.751 81.72 420.404 82.1333 421.818 82.96C423.258 83.7867 424.324 84.8267 425.018 86.08V82.08H428.698V104.48C428.698 106.48 428.271 108.253 427.418 109.8C426.564 111.373 425.338 112.6 423.738 113.48C422.164 114.36 420.324 114.8 418.218 114.8C415.338 114.8 412.938 114.12 411.018 112.76C409.098 111.4 407.964 109.547 407.618 107.2H411.218C411.618 108.533 412.444 109.6 413.698 110.4C414.951 111.227 416.458 111.64 418.218 111.64C420.218 111.64 421.844 111.013 423.098 109.76C424.378 108.507 425.018 106.747 425.018 104.48V99.88C424.298 101.16 423.231 102.227 421.818 103.08C420.404 103.933 418.751 104.36 416.858 104.36C414.911 104.36 413.138 103.88 411.538 102.92C409.964 101.96 408.724 100.613 407.818 98.88C406.911 97.1467 406.458 95.1733 406.458 92.96C406.458 90.72 406.911 88.76 407.818 87.08C408.724 85.3733 409.964 84.0533 411.538 83.12C413.138 82.1867 414.911 81.72 416.858 81.72ZM425.018 93C425.018 91.3467 424.684 89.9067 424.018 88.68C423.351 87.4533 422.444 86.52 421.298 85.88C420.178 85.2133 418.938 84.88 417.578 84.88C416.218 84.88 414.978 85.2 413.858 85.84C412.738 86.48 411.844 87.4133 411.178 88.64C410.511 89.8667 410.178 91.3067 410.178 92.96C410.178 94.64 410.511 96.1067 411.178 97.36C411.844 98.5867 412.738 99.5333 413.858 100.2C414.978 100.84 416.218 101.16 417.578 101.16C418.938 101.16 420.178 100.84 421.298 100.2C422.444 99.5333 423.351 98.5867 424.018 97.36C424.684 96.1067 425.018 94.6533 425.018 93Z" fill="url(#paint0_linear)"/>
<defs>
<linearGradient id="paint0_linear" x1="124" y1="120" x2="442.471" y2="76.2878" gradientUnits="userSpaceOnUse">
<stop stop-color="#1BBC9B"/>
<stop offset="0.0001" stop-color="#1BBC9B"/>
<stop offset="1" stop-color="#16A086"/>
</linearGradient>
<clipPath id="clip0">
<rect width="563" height="456" fill="white" transform="translate(0 160)"/>
</clipPath>
</defs>
</svg>
