<svg width="30" height="28" viewBox="0 0 30 28" fill="none" xmlns="http://www.w3.org/2000/svg">
<path d="M28.6211 25.546C28.6211 25.9557 28.2597 26.2889 27.8137 26.2889H17.3089V21.217C17.3089 20.9883 17.1077 20.8028 16.8599 20.8028H13.4537C13.2059 20.8028 13.0047 20.9883 13.0047 21.217V26.2889H2.14487C1.70093 26.2889 1.33981 25.9557 1.33981 25.546V18.1351C1.33981 17.7255 1.70093 17.3924 2.14487 17.3924H10.1857C10.3103 17.3924 10.4297 17.3444 10.5143 17.2605C10.5994 17.1768 10.643 17.0639 10.634 16.949C10.6314 16.9157 10.6294 16.8824 10.6294 16.8479V14.0918C10.6294 13.5497 10.9982 13.0918 11.435 13.0918H19.2915C19.728 13.0918 20.0966 13.5497 20.0966 14.0918V16.8479C20.0966 16.8819 20.0951 16.9152 20.0923 16.9483C20.0833 17.0632 20.1264 17.1759 20.2114 17.26C20.2963 17.3444 20.4155 17.3924 20.5403 17.3924H27.8137C28.2597 17.3924 28.6211 17.7255 28.6211 18.1351V25.546ZM16.4106 26.2273H13.9028V21.6313H16.4106V26.2273ZM15.3633 6.18397L19.7291 12.2633H10.9972L15.3633 6.18397ZM15.7516 1.84722L17.6258 2.55898L15.7516 3.27051V1.84722ZM27.8137 16.5639H20.995V14.0918C20.995 13.7144 20.8876 13.3628 20.7041 13.071C20.8125 13.0386 20.9053 12.9686 20.9607 12.8732C21.0391 12.7392 21.0309 12.5759 20.9394 12.4485L15.7998 5.29119V4.14792L18.976 2.94204C19.1442 2.87776 19.2541 2.72724 19.2541 2.55898C19.2541 2.39144 19.1442 2.24019 18.976 2.17639L15.4735 0.845741C15.3348 0.793045 15.1769 0.807463 15.0526 0.884972C14.9281 0.961536 14.8532 1.09056 14.8532 1.22857V3.8894C14.8532 3.95415 14.8711 4.01654 14.9014 4.07278V5.32687L9.78664 12.4485C9.69539 12.5759 9.68718 12.7392 9.76561 12.8732C9.82098 12.9686 9.91376 13.0386 10.0219 13.071C9.83841 13.3628 9.73102 13.7144 9.73102 14.0918V16.5639H2.14487C1.20548 16.5639 0.441406 17.269 0.441406 18.1351V25.546C0.441406 26.4123 1.20548 27.1172 2.14487 27.1172H27.8137C28.7544 27.1172 29.5182 26.4123 29.5182 25.546V18.1351C29.5182 17.269 28.7544 16.5639 27.8137 16.5639Z" fill="white"/>
<path d="M14.3508 16.8965H12.5545V15.2409H14.3508V16.8965ZM14.5753 14.8267H12.33C12.2059 14.8267 12.1055 14.9191 12.1055 15.0337V17.1033C12.1055 17.2177 12.2059 17.3105 12.33 17.3105H14.5753C14.6994 17.3105 14.7999 17.2177 14.7999 17.1033V15.0337C14.7999 14.9191 14.6994 14.8267 14.5753 14.8267Z" fill="white"/>
<path d="M17.9521 16.8965H16.1561V15.2409H17.9521V16.8965ZM18.1766 14.8267H15.9316C15.8075 14.8267 15.707 14.9191 15.707 15.0337V17.1033C15.707 17.2177 15.8075 17.3105 15.9316 17.3105H18.1766C18.3007 17.3105 18.4011 17.2177 18.4011 17.1033V15.0337C18.4011 14.9191 18.3007 14.8267 18.1766 14.8267Z" fill="white"/>
<path d="M5.92892 22.7452H4.13267V21.0896H5.92892V22.7452ZM6.15344 20.6753H3.90814C3.78434 20.6753 3.68359 20.7677 3.68359 20.8823V22.9519C3.68359 23.0663 3.78434 23.1592 3.90814 23.1592H6.15344C6.27724 23.1592 6.37797 23.0663 6.37797 22.9519V20.8823C6.37797 20.7677 6.27724 20.6753 6.15344 20.6753Z" fill="white"/>
<path d="M9.52996 22.7452H7.73423V21.0896H9.52996V22.7452ZM9.75449 20.6753H7.50968C7.38563 20.6753 7.28516 20.7677 7.28516 20.8823V22.9519C7.28516 23.0663 7.38563 23.1592 7.50968 23.1592H9.75449C9.8788 23.1592 9.97929 23.0663 9.97929 22.9519V20.8823C9.97929 20.7677 9.8788 20.6753 9.75449 20.6753Z" fill="white"/>
<path d="M22.6291 22.7452H20.8321V21.0896H22.6291V22.7452ZM22.8521 20.6753H20.6076C20.4835 20.6753 20.3828 20.7677 20.3828 20.8823V22.9519C20.3828 23.0663 20.4835 23.1592 20.6076 23.1592H22.8521C22.9777 23.1592 23.0777 23.0663 23.0777 22.9519V20.8823C23.0777 20.7677 22.9777 20.6753 22.8521 20.6753Z" fill="white"/>
<path d="M26.2258 22.7452H24.429V21.0896H26.2258V22.7452ZM26.4513 20.6753H24.206C24.0805 20.6753 23.9805 20.7677 23.9805 20.8823V22.9519C23.9805 23.0663 24.0805 23.1592 24.206 23.1592H26.4513C26.5744 23.1592 26.6743 23.0663 26.6743 22.9519V20.8823C26.6743 20.7677 26.5744 20.6753 26.4513 20.6753Z" fill="white"/>
</svg>
