<svg width="41" height="42" viewBox="0 0 41 42" fill="none" xmlns="http://www.w3.org/2000/svg">
<circle cx="20.5" cy="21.4313" r="20" fill="white" stroke="url(#paint0_linear)"/>
<path d="M16.81 31.5788H11.275C11.0304 31.5788 10.7957 31.4816 10.6227 31.3086C10.4497 31.1356 10.3525 30.901 10.3525 30.6563V25.5034C10.3525 25.3823 10.3764 25.2623 10.4228 25.1504C10.4691 25.0385 10.5371 24.9368 10.6227 24.8511L24.4602 11.0136C24.6332 10.8406 24.8679 10.7434 25.1125 10.7434C25.3572 10.7434 25.5918 10.8406 25.7648 11.0136L30.9177 16.1665C31.0907 16.3395 31.1879 16.5741 31.1879 16.8188C31.1879 17.0635 31.0907 17.2981 30.9177 17.4711L16.81 31.5788Z" stroke="url(#paint1_linear)" stroke-width="2" stroke-linecap="round" stroke-linejoin="round"/>
<path d="M21.4226 14.0513L27.8801 20.5088" stroke="url(#paint2_linear)" stroke-width="2" stroke-linecap="round" stroke-linejoin="round"/>
<defs>
<linearGradient id="paint0_linear" x1="1.52737e-07" y1="41.9313" x2="43.0694" y2="39.6281" gradientUnits="userSpaceOnUse">
<stop stop-color="#1BBC9B"/>
<stop offset="0.0001" stop-color="#1BBC9B"/>
<stop offset="1" stop-color="#16A086"/>
</linearGradient>
<linearGradient id="paint1_linear" x1="10.3525" y1="31.5788" x2="32.2395" y2="30.4084" gradientUnits="userSpaceOnUse">
<stop stop-color="#1BBC9B"/>
<stop offset="0.0001" stop-color="#1BBC9B"/>
<stop offset="1" stop-color="#16A086"/>
</linearGradient>
<linearGradient id="paint2_linear" x1="21.4226" y1="20.5088" x2="28.206" y2="20.146" gradientUnits="userSpaceOnUse">
<stop stop-color="#1BBC9B"/>
<stop offset="0.0001" stop-color="#1BBC9B"/>
<stop offset="1" stop-color="#16A086"/>
</linearGradient>
</defs>
</svg>
