<svg width="35" height="48" viewBox="0 0 35 48" fill="none" xmlns="http://www.w3.org/2000/svg">
<path d="M33.665 8.59394L28.3201 16.6735C28.2472 16.7838 28.1416 16.857 28.0245 16.8778C27.9546 16.8894 27.8481 16.8881 27.738 16.8125C27.6752 16.7685 27.6294 16.7092 27.5942 16.6438L33.3483 7.7885C33.4076 7.79221 33.4765 7.80658 33.5478 7.85664C33.7725 8.01281 33.8263 8.34971 33.665 8.59394ZM24.9859 17.0498C24.6064 17.6346 24.0012 18.0494 23.2839 18.2149C22.565 18.3817 21.8206 18.2788 21.1857 17.928C20.5514 17.5776 20.1015 17.0197 19.922 16.3579C19.7421 15.6961 19.8521 15.0098 20.2322 14.4249L27.1222 3.82242C27.641 3.02392 28.5619 2.58087 29.5049 2.58087C29.9889 2.58087 30.479 2.69767 30.9239 2.94329C31.5583 3.29365 32.0071 3.85114 32.1871 4.51386C32.3671 5.17564 32.256 5.86293 31.876 6.44825L24.9859 17.0498ZM8.10026 43.0323C7.72075 43.6176 7.11553 44.0315 6.39873 44.1974C5.68142 44.3637 4.93647 44.2613 4.30109 43.9105C3.66623 43.5601 3.21735 43.0026 3.0379 42.3408C2.85744 41.6781 2.96802 40.9923 3.34854 40.4065L18.2325 17.5016C18.6271 18.3386 19.2871 19.0407 20.1527 19.5185C20.9052 19.9337 21.7462 20.1465 22.6017 20.1465C22.7299 20.1465 22.8596 20.1349 22.9888 20.1247L8.10026 43.0323ZM4.0181 46.1535V46.154C3.87986 46.3667 3.65969 46.5173 3.39881 46.578C3.13792 46.6374 2.86598 46.6003 2.63526 46.4738C2.40504 46.3463 2.24166 46.1438 2.17581 45.9023C2.11047 45.6618 2.15118 45.412 2.28942 45.1993L2.45932 44.9375C2.70463 45.1483 2.97305 45.3379 3.26712 45.5005C3.56218 45.6637 3.87383 45.786 4.19202 45.8861L4.0181 46.1535ZM34.137 4.06294C33.8268 2.92057 33.0532 1.95849 31.9564 1.35324C29.6934 0.103359 26.7523 0.785057 25.3976 2.86959L18.508 13.4716C18.4914 13.4971 18.4788 13.5226 18.4633 13.5485C18.4462 13.5736 18.4266 13.5953 18.411 13.6204L1.62388 39.4532C0.966898 40.4635 0.776389 41.6489 1.08654 42.7913C1.22527 43.3002 1.46053 43.771 1.77118 44.1932L1.42684 44.7234C1.15038 45.1483 1.06995 45.6475 1.20115 46.128C1.33234 46.6086 1.65757 47.0141 2.11851 47.2685C2.4352 47.4437 2.79058 47.5327 3.14949 47.5327C3.31436 47.5327 3.47974 47.5151 3.64311 47.4766C4.16438 47.3561 4.60421 47.0554 4.88067 46.6304L5.22601 46.0988C5.38888 46.1146 5.55224 46.1299 5.71662 46.1299C6.10669 46.1299 6.49926 46.0849 6.88732 45.9955C8.12589 45.7091 9.16994 44.9945 9.82593 43.9847L26.6145 18.1528C26.6316 18.1264 26.6442 18.0981 26.6608 18.0721C26.6769 18.0485 26.6955 18.0267 26.711 18.0022L27.0498 17.4817C27.078 17.5054 27.1031 17.5318 27.1343 17.5535C27.3781 17.7227 27.6631 17.8103 27.9556 17.8103C28.0411 17.8103 28.1276 17.8033 28.213 17.7876C28.6066 17.7181 28.9585 17.4887 29.1786 17.1559L34.5235 9.07639C34.9558 8.42202 34.7929 7.5605 34.152 7.11514C34.0565 7.05026 33.9545 7.00019 33.8494 6.95941C34.2983 6.05432 34.4039 5.0431 34.137 4.06294Z" fill="white"/>
</svg>
