<svg width="100" height="100" viewBox="0 0 100 100" fill="none" xmlns="http://www.w3.org/2000/svg">
<circle cx="50" cy="50" r="50" fill="url(#paint0_linear)"/>
<path d="M46.8631 44.1118C46.8631 43.671 48.0853 43.0302 50.0009 43.0302C51.9159 43.0302 53.1381 43.671 53.1381 44.1118C53.1381 44.5531 51.9159 45.1933 50.0009 45.1933C48.0853 45.1933 46.8631 44.5531 46.8631 44.1118ZM19.4225 43.4592C26.8257 41.332 44.6044 35.1607 49.4573 33.4682L80.8522 43.3499L50.0014 55.6903L29.6285 47.5411L46.8299 45.4483C47.5811 45.8741 48.7025 46.1362 50.0009 46.1362C52.3721 46.1362 54.1608 45.2659 54.1608 44.1118C54.1608 42.9581 52.3721 42.0864 50.0009 42.0864C47.9549 42.0864 46.3461 42.737 45.9416 43.6545L25.9814 46.0825L19.4225 43.4592ZM66.99 65.4833C66.99 66.2278 66.3345 66.8322 65.5275 66.8322H36.6849C35.8784 66.8322 35.2223 66.2278 35.2223 65.4833V51.8342L49.5943 57.5831C49.7242 57.635 49.8623 57.6609 50.0014 57.6609C50.14 57.6609 50.2785 57.635 50.4079 57.5831L66.99 50.9502V65.4833ZM24.209 61.3317L25.2635 55.5752C25.3238 55.2447 25.1893 54.9095 24.9101 54.695C24.7362 54.5602 24.6365 54.3641 24.6365 54.1557C24.6365 53.7691 24.9781 53.4541 25.3974 53.4541C25.8178 53.4541 26.1599 53.7691 26.1599 54.1557C26.1599 54.3716 26.0566 54.5253 25.9707 54.6167C25.7769 54.8218 25.6884 55.0948 25.7293 55.3645L26.6232 61.3317H24.209ZM24.8114 51.6258C23.5442 51.8752 22.5909 52.9143 22.5909 54.1557C22.5909 54.728 22.7943 55.2744 23.1622 55.72L21.9909 62.1176C21.9404 62.3911 22.0237 62.6716 22.218 62.8832C22.4122 63.0954 22.6978 63.2175 22.9991 63.2175H27.7968C28.0923 63.2175 28.3736 63.0997 28.5679 62.8936C28.7617 62.6886 28.8502 62.4156 28.8093 62.145L27.8106 55.4762C28.0673 55.0788 28.2054 54.6229 28.2054 54.1557C28.2054 53.2222 27.6638 52.4047 26.8569 51.9492V48.4888L33.1769 51.0162V65.4833C33.1769 67.2673 34.7503 68.718 36.6849 68.718H65.5275C67.462 68.718 69.0355 67.2673 69.0355 65.4833V50.1322L84.0912 44.1099C84.4783 43.9548 84.7227 43.5965 84.7059 43.2066C84.689 42.8172 84.4139 42.4777 84.0145 42.3551L49.7697 31.5729C49.5447 31.5022 49.2998 31.5069 49.0773 31.5871C37.3527 35.6793 18.0981 42.2043 16.3097 42.3033C15.8283 42.308 15.4144 42.6192 15.3162 43.0529C15.2183 43.4909 15.4657 43.9322 15.9108 44.1099L24.8114 47.6698V51.6258Z" fill="white"/>
<defs>
<linearGradient id="paint0_linear" x1="3.72529e-07" y1="100" x2="105.047" y2="94.3825" gradientUnits="userSpaceOnUse">
<stop stop-color="#1BBC9B"/>
<stop offset="0.0001" stop-color="#1BBC9B"/>
<stop offset="1" stop-color="#16A086"/>
</linearGradient>
</defs>
</svg>
