<svg width="100" height="100" viewBox="0 0 100 100" fill="none" xmlns="http://www.w3.org/2000/svg">
<circle cx="50" cy="50" r="50" fill="url(#paint0_linear)"/>
<path d="M65.665 35.5939L60.3201 43.6735C60.2472 43.7838 60.1416 43.857 60.0245 43.8778C59.9546 43.8894 59.8481 43.8881 59.738 43.8125C59.6752 43.7685 59.6294 43.7092 59.5942 43.6438L65.3483 34.7885C65.4076 34.7922 65.4765 34.8066 65.5478 34.8566C65.7725 35.0128 65.8263 35.3497 65.665 35.5939ZM56.9859 44.0498C56.6064 44.6346 56.0012 45.0494 55.2839 45.2149C54.565 45.3817 53.8206 45.2788 53.1857 44.928C52.5514 44.5776 52.1015 44.0197 51.922 43.3579C51.7421 42.6961 51.8521 42.0098 52.2322 41.4249L59.1222 30.8224C59.641 30.0239 60.5619 29.5809 61.5049 29.5809C61.9889 29.5809 62.479 29.6977 62.9239 29.9433C63.5583 30.2936 64.0071 30.8511 64.1871 31.5139C64.3671 32.1756 64.256 32.8629 63.876 33.4482L56.9859 44.0498ZM40.1003 70.0323C39.7207 70.6176 39.1155 71.0315 38.3987 71.1974C37.6814 71.3637 36.9365 71.2613 36.3011 70.9105C35.6662 70.5601 35.2173 70.0026 35.0379 69.3408C34.8574 68.6781 34.968 67.9923 35.3485 67.4065L50.2325 44.5016C50.6271 45.3386 51.2871 46.0407 52.1527 46.5185C52.9052 46.9337 53.7462 47.1465 54.6017 47.1465C54.7299 47.1465 54.8596 47.1349 54.9888 47.1247L40.1003 70.0323ZM36.0181 73.1535V73.154C35.8799 73.3667 35.6597 73.5173 35.3988 73.578C35.1379 73.6374 34.866 73.6003 34.6353 73.4738C34.405 73.3463 34.2417 73.1438 34.1758 72.9023C34.1105 72.6618 34.1512 72.412 34.2894 72.1993L34.4593 71.9375C34.7046 72.1483 34.9731 72.3379 35.2671 72.5005C35.5622 72.6637 35.8738 72.786 36.192 72.8861L36.0181 73.1535ZM66.137 31.0629C65.8268 29.9206 65.0532 28.9585 63.9564 28.3532C61.6934 27.1034 58.7523 27.7851 57.3976 29.8696L50.508 40.4716C50.4914 40.4971 50.4788 40.5226 50.4633 40.5485C50.4462 40.5736 50.4266 40.5953 50.411 40.6204L33.6239 66.4532C32.9669 67.4635 32.7764 68.6489 33.0865 69.7913C33.2253 70.3002 33.4605 70.771 33.7712 71.1932L33.4268 71.7234C33.1504 72.1483 33.0699 72.6475 33.2011 73.128C33.3323 73.6086 33.6576 74.0141 34.1185 74.2685C34.4352 74.4437 34.7906 74.5327 35.1495 74.5327C35.3144 74.5327 35.4797 74.5151 35.6431 74.4766C36.1644 74.3561 36.6042 74.0554 36.8807 73.6304L37.226 73.0988C37.3889 73.1146 37.5522 73.1299 37.7166 73.1299C38.1067 73.1299 38.4993 73.0849 38.8873 72.9955C40.1259 72.7091 41.1699 71.9945 41.8259 70.9847L58.6145 45.1528C58.6316 45.1264 58.6442 45.0981 58.6608 45.0721C58.6769 45.0485 58.6955 45.0267 58.711 45.0022L59.0498 44.4817C59.078 44.5054 59.1031 44.5318 59.1343 44.5535C59.3781 44.7227 59.6631 44.8103 59.9556 44.8103C60.0411 44.8103 60.1276 44.8033 60.213 44.7876C60.6066 44.7181 60.9585 44.4887 61.1786 44.1559L66.5235 36.0764C66.9558 35.422 66.7929 34.5605 66.152 34.1151C66.0565 34.0503 65.9545 34.0002 65.8494 33.9594C66.2983 33.0543 66.4039 32.0431 66.137 31.0629Z" fill="white"/>
<defs>
<linearGradient id="paint0_linear" x1="3.72529e-07" y1="100" x2="105.047" y2="94.3825" gradientUnits="userSpaceOnUse">
<stop stop-color="#1BBC9B"/>
<stop offset="0.0001" stop-color="#1BBC9B"/>
<stop offset="1" stop-color="#16A086"/>
</linearGradient>
</defs>
</svg>
