<svg width="79" height="79" viewBox="0 0 79 79" fill="none" xmlns="http://www.w3.org/2000/svg">
<path d="M22.194 20.1694C22.1938 20.1693 22.1936 20.1694 22.1935 20.1695C17.4295 27.3514 13.542 35.5551 13.542 43.2035C13.542 50.0784 16.273 56.6717 21.1343 61.533C25.9956 66.3943 32.589 69.1253 39.4639 69.1253C46.3388 69.1253 52.9321 66.3943 57.7934 61.533C62.6547 56.6717 65.3857 50.0784 65.3857 43.2035C65.3857 27.1567 54.2765 14.813 45.2729 5.82419C45.2728 5.82407 45.2726 5.82407 45.2725 5.82418C45.2725 5.82421 45.2724 5.82424 45.2724 5.82428L40.8987 15.0091C37.5374 22.0678 28.6991 24.5061 22.194 20.1694Z" fill="#FF6610" stroke="black" stroke-width="2" stroke-linecap="round" stroke-linejoin="round"/>
<path d="M29.4519 34.2001C29.4518 34.2 29.4516 34.2 29.4516 34.2001C26.6798 38.3787 24.418 43.1518 24.418 47.6017C24.418 51.6017 26.0069 55.4378 28.8353 58.2662C31.6637 61.0946 35.4998 62.6835 39.4998 62.6835C43.4997 62.6835 47.3359 61.0946 50.1642 58.2662C52.9926 55.4378 54.5816 51.6017 54.5816 47.6017C54.5816 38.2654 48.1181 31.0836 42.8796 25.8538C42.8795 25.8537 42.8794 25.8537 42.8793 25.8538C42.8793 25.8538 42.8793 25.8538 42.8793 25.8538L40.3346 31.1977C38.3789 35.3046 33.2367 36.7233 29.4519 34.2001Z" fill="#E1D91C" stroke="black" stroke-width="2" stroke-linecap="round" stroke-linejoin="round"/>
</svg>
