<svg width="1346" height="648" viewBox="0 0 1346 648" fill="none" xmlns="http://www.w3.org/2000/svg">
<g filter="url(#filter0_d_23_5835)">
<path d="M16 52C16 29.9086 33.9086 12 56 12H1290C1312.09 12 1330 29.9086 1330 52V588C1330 610.091 1312.09 628 1290 628H56C33.9086 628 16 610.091 16 588V52Z" fill="white"/>
</g>
<path d="M182.23 324.344L191.605 344.236L201.039 324.344H209.887L195.707 351.385V367H187.533V351.385L173.324 324.344H182.23ZM210.268 351.473V350.857C210.268 348.533 210.6 346.395 211.264 344.441C211.928 342.469 212.895 340.76 214.164 339.314C215.434 337.869 216.986 336.746 218.822 335.945C220.658 335.125 222.748 334.715 225.092 334.715C227.475 334.715 229.584 335.125 231.42 335.945C233.275 336.746 234.838 337.869 236.107 339.314C237.377 340.76 238.344 342.469 239.008 344.441C239.672 346.395 240.004 348.533 240.004 350.857V351.473C240.004 353.777 239.672 355.916 239.008 357.889C238.344 359.842 237.377 361.551 236.107 363.016C234.838 364.461 233.285 365.584 231.449 366.385C229.613 367.186 227.514 367.586 225.15 367.586C222.807 367.586 220.707 367.186 218.852 366.385C216.996 365.584 215.434 364.461 214.164 363.016C212.895 361.551 211.928 359.842 211.264 357.889C210.6 355.916 210.268 353.777 210.268 351.473ZM218.002 350.857V351.473C218.002 352.859 218.139 354.158 218.412 355.369C218.686 356.58 219.105 357.645 219.672 358.562C220.238 359.48 220.971 360.203 221.869 360.73C222.787 361.238 223.881 361.492 225.15 361.492C226.4 361.492 227.475 361.238 228.373 360.73C229.271 360.203 230.004 359.48 230.57 358.562C231.156 357.645 231.586 356.58 231.859 355.369C232.133 354.158 232.27 352.859 232.27 351.473V350.857C232.27 349.49 232.133 348.211 231.859 347.02C231.586 345.809 231.156 344.744 230.57 343.826C230.004 342.889 229.262 342.156 228.344 341.629C227.445 341.082 226.361 340.809 225.092 340.809C223.842 340.809 222.768 341.082 221.869 341.629C220.971 342.156 220.238 342.889 219.672 343.826C219.105 344.744 218.686 345.809 218.412 347.02C218.139 348.211 218.002 349.49 218.002 350.857ZM264.496 359.471V335.301H272.289V367H264.965L264.496 359.471ZM265.492 352.908L267.895 352.85C267.895 354.979 267.66 356.941 267.191 358.738C266.723 360.535 265.99 362.098 264.994 363.426C264.018 364.734 262.777 365.76 261.273 366.502C259.77 367.225 257.992 367.586 255.941 367.586C254.379 367.586 252.953 367.371 251.664 366.941C250.375 366.492 249.262 365.799 248.324 364.861C247.406 363.904 246.693 362.684 246.186 361.199C245.678 359.695 245.424 357.889 245.424 355.779V335.301H253.158V355.838C253.158 356.893 253.275 357.771 253.51 358.475C253.764 359.178 254.105 359.754 254.535 360.203C254.984 360.633 255.502 360.945 256.088 361.141C256.693 361.316 257.338 361.404 258.021 361.404C259.896 361.404 261.371 361.033 262.445 360.291C263.539 359.529 264.32 358.514 264.789 357.244C265.258 355.955 265.492 354.51 265.492 352.908ZM307.094 361.492C308.188 361.492 309.164 361.277 310.023 360.848C310.883 360.418 311.566 359.812 312.074 359.031C312.602 358.25 312.885 357.342 312.924 356.307H320.219C320.18 358.455 319.574 360.379 318.402 362.078C317.23 363.777 315.668 365.125 313.715 366.121C311.781 367.098 309.613 367.586 307.211 367.586C304.77 367.586 302.641 367.176 300.824 366.355C299.008 365.535 297.494 364.393 296.283 362.928C295.092 361.463 294.193 359.764 293.588 357.83C293.002 355.896 292.709 353.826 292.709 351.619V350.682C292.709 348.475 293.002 346.404 293.588 344.471C294.193 342.537 295.092 340.838 296.283 339.373C297.494 337.908 299.008 336.766 300.824 335.945C302.641 335.125 304.76 334.715 307.182 334.715C309.74 334.715 311.986 335.213 313.92 336.209C315.873 337.205 317.396 338.611 318.49 340.428C319.604 342.244 320.18 344.383 320.219 346.844H312.924C312.885 345.711 312.631 344.695 312.162 343.797C311.693 342.898 311.029 342.176 310.17 341.629C309.311 341.082 308.266 340.809 307.035 340.809C305.727 340.809 304.633 341.082 303.754 341.629C302.895 342.176 302.221 342.928 301.732 343.885C301.264 344.822 300.932 345.877 300.736 347.049C300.561 348.201 300.473 349.412 300.473 350.682V351.619C300.473 352.908 300.561 354.139 300.736 355.311C300.932 356.482 301.264 357.537 301.732 358.475C302.221 359.393 302.895 360.125 303.754 360.672C304.633 361.219 305.746 361.492 307.094 361.492ZM342.836 360.262V345.643C342.836 344.568 342.65 343.641 342.279 342.859C341.908 342.078 341.342 341.473 340.58 341.043C339.818 340.613 338.852 340.398 337.68 340.398C336.645 340.398 335.736 340.574 334.955 340.926C334.193 341.277 333.607 341.775 333.197 342.42C332.787 343.045 332.582 343.768 332.582 344.588H324.818C324.818 343.279 325.131 342.039 325.756 340.867C326.381 339.676 327.27 338.621 328.422 337.703C329.594 336.766 330.99 336.033 332.611 335.506C334.252 334.979 336.088 334.715 338.119 334.715C340.521 334.715 342.66 335.125 344.535 335.945C346.43 336.746 347.914 337.957 348.988 339.578C350.082 341.199 350.629 343.24 350.629 345.701V359.529C350.629 361.111 350.727 362.469 350.922 363.602C351.137 364.715 351.449 365.682 351.859 366.502V367H343.979C343.607 366.199 343.324 365.184 343.129 363.953C342.934 362.703 342.836 361.473 342.836 360.262ZM343.92 347.693L343.979 352.293H339.086C337.875 352.293 336.811 352.42 335.893 352.674C334.975 352.908 334.223 353.26 333.637 353.729C333.051 354.178 332.611 354.725 332.318 355.369C332.025 355.994 331.879 356.707 331.879 357.508C331.879 358.289 332.055 358.992 332.406 359.617C332.777 360.242 333.305 360.74 333.988 361.111C334.691 361.463 335.512 361.639 336.449 361.639C337.816 361.639 339.008 361.365 340.023 360.818C341.039 360.252 341.83 359.568 342.396 358.768C342.963 357.967 343.266 357.205 343.305 356.482L345.531 359.822C345.258 360.623 344.848 361.473 344.301 362.371C343.754 363.27 343.051 364.109 342.191 364.891C341.332 365.672 340.297 366.316 339.086 366.824C337.875 367.332 336.469 367.586 334.867 367.586C332.816 367.586 330.98 367.176 329.359 366.355C327.738 365.535 326.459 364.412 325.521 362.986C324.584 361.561 324.115 359.939 324.115 358.123C324.115 356.443 324.428 354.959 325.053 353.67C325.678 352.381 326.605 351.297 327.836 350.418C329.066 349.52 330.59 348.846 332.406 348.396C334.242 347.928 336.342 347.693 338.705 347.693H343.92ZM365.189 342.068V367H357.455V335.301H364.721L365.189 342.068ZM363.959 350.008H361.674C361.693 347.703 362.006 345.613 362.611 343.738C363.217 341.863 364.066 340.252 365.16 338.904C366.273 337.557 367.592 336.521 369.115 335.799C370.639 335.076 372.338 334.715 374.213 334.715C375.736 334.715 377.113 334.93 378.344 335.359C379.574 335.789 380.629 336.473 381.508 337.41C382.406 338.348 383.09 339.578 383.559 341.102C384.047 342.605 384.291 344.461 384.291 346.668V367H376.498V346.609C376.498 345.164 376.283 344.021 375.854 343.182C375.443 342.342 374.838 341.746 374.037 341.395C373.256 341.043 372.289 340.867 371.137 340.867C369.945 340.867 368.9 341.111 368.002 341.6C367.123 342.068 366.381 342.723 365.775 343.562C365.189 344.402 364.74 345.369 364.428 346.463C364.115 347.557 363.959 348.738 363.959 350.008ZM406.029 322H413.793V359.998L413.031 367H406.029V322ZM434.184 350.828V351.443C434.184 353.807 433.92 355.975 433.393 357.947C432.885 359.92 432.113 361.629 431.078 363.074C430.043 364.5 428.754 365.613 427.211 366.414C425.688 367.195 423.9 367.586 421.85 367.586C419.896 367.586 418.197 367.205 416.752 366.443C415.326 365.682 414.125 364.607 413.148 363.221C412.172 361.814 411.391 360.164 410.805 358.27C410.219 356.355 409.779 354.266 409.486 352V350.33C409.779 348.045 410.219 345.955 410.805 344.061C411.391 342.166 412.172 340.516 413.148 339.109C414.125 337.703 415.326 336.619 416.752 335.857C418.178 335.096 419.857 334.715 421.791 334.715C423.861 334.715 425.668 335.115 427.211 335.916C428.773 336.697 430.062 337.811 431.078 339.256C432.113 340.682 432.885 342.381 433.393 344.354C433.92 346.307 434.184 348.465 434.184 350.828ZM426.42 351.443V350.828C426.42 349.48 426.312 348.211 426.098 347.02C425.883 345.809 425.531 344.744 425.043 343.826C424.555 342.908 423.891 342.186 423.051 341.658C422.211 341.131 421.156 340.867 419.887 340.867C418.676 340.867 417.641 341.072 416.781 341.482C415.941 341.893 415.238 342.459 414.672 343.182C414.125 343.904 413.695 344.754 413.383 345.73C413.09 346.707 412.895 347.762 412.797 348.895V353.465C412.934 354.969 413.256 356.326 413.764 357.537C414.271 358.729 415.023 359.676 416.02 360.379C417.035 361.082 418.344 361.434 419.945 361.434C421.195 361.434 422.24 361.189 423.08 360.701C423.92 360.193 424.584 359.49 425.072 358.592C425.561 357.674 425.902 356.609 426.098 355.398C426.312 354.188 426.42 352.869 426.42 351.443ZM454.047 367.586C451.645 367.586 449.486 367.195 447.572 366.414C445.658 365.633 444.027 364.549 442.68 363.162C441.352 361.756 440.326 360.125 439.604 358.27C438.9 356.395 438.549 354.383 438.549 352.234V351.062C438.549 348.621 438.9 346.404 439.604 344.412C440.307 342.4 441.303 340.672 442.592 339.227C443.881 337.781 445.424 336.668 447.221 335.887C449.018 335.105 451 334.715 453.168 334.715C455.414 334.715 457.396 335.096 459.115 335.857C460.834 336.6 462.27 337.654 463.422 339.021C464.574 340.389 465.443 342.029 466.029 343.943C466.615 345.838 466.908 347.938 466.908 350.242V353.494H442.064V348.162H459.291V347.576C459.252 346.346 459.018 345.223 458.588 344.207C458.158 343.172 457.494 342.352 456.596 341.746C455.697 341.121 454.535 340.809 453.109 340.809C451.957 340.809 450.951 341.062 450.092 341.57C449.252 342.059 448.549 342.762 447.982 343.68C447.436 344.578 447.025 345.652 446.752 346.902C446.479 348.152 446.342 349.539 446.342 351.062V352.234C446.342 353.562 446.518 354.793 446.869 355.926C447.24 357.059 447.777 358.045 448.48 358.885C449.203 359.705 450.062 360.35 451.059 360.818C452.074 361.268 453.227 361.492 454.516 361.492C456.137 361.492 457.602 361.18 458.91 360.555C460.238 359.91 461.391 358.963 462.367 357.713L466.264 361.756C465.6 362.732 464.701 363.67 463.568 364.568C462.455 365.467 461.107 366.199 459.525 366.766C457.943 367.312 456.117 367.586 454.047 367.586ZM521.898 324.344V367H513.812L495.678 337.41V367H487.621V324.344H495.678L513.871 353.963V324.344H521.898ZM543.754 367.586C541.352 367.586 539.193 367.195 537.279 366.414C535.365 365.633 533.734 364.549 532.387 363.162C531.059 361.756 530.033 360.125 529.311 358.27C528.607 356.395 528.256 354.383 528.256 352.234V351.062C528.256 348.621 528.607 346.404 529.311 344.412C530.014 342.4 531.01 340.672 532.299 339.227C533.588 337.781 535.131 336.668 536.928 335.887C538.725 335.105 540.707 334.715 542.875 334.715C545.121 334.715 547.104 335.096 548.822 335.857C550.541 336.6 551.977 337.654 553.129 339.021C554.281 340.389 555.15 342.029 555.736 343.943C556.322 345.838 556.615 347.938 556.615 350.242V353.494H531.771V348.162H548.998V347.576C548.959 346.346 548.725 345.223 548.295 344.207C547.865 343.172 547.201 342.352 546.303 341.746C545.404 341.121 544.242 340.809 542.816 340.809C541.664 340.809 540.658 341.062 539.799 341.57C538.959 342.059 538.256 342.762 537.689 343.68C537.143 344.578 536.732 345.652 536.459 346.902C536.186 348.152 536.049 349.539 536.049 351.062V352.234C536.049 353.562 536.225 354.793 536.576 355.926C536.947 357.059 537.484 358.045 538.188 358.885C538.91 359.705 539.77 360.35 540.766 360.818C541.781 361.268 542.934 361.492 544.223 361.492C545.844 361.492 547.309 361.18 548.617 360.555C549.945 359.91 551.098 358.963 552.074 357.713L555.971 361.756C555.307 362.732 554.408 363.67 553.275 364.568C552.162 365.467 550.814 366.199 549.232 366.766C547.65 367.312 545.824 367.586 543.754 367.586ZM567.865 335.301L573.52 345.379L579.262 335.301H587.67L578.354 350.828L588.051 367H579.643L573.578 356.424L567.484 367H559.076L568.744 350.828L559.486 335.301H567.865ZM607.152 335.301V340.867H588.988V335.301H607.152ZM593.852 327.508H601.615V357.859C601.615 358.797 601.742 359.52 601.996 360.027C602.25 360.535 602.631 360.877 603.139 361.053C603.646 361.229 604.252 361.316 604.955 361.316C605.463 361.316 605.932 361.287 606.361 361.229C606.791 361.17 607.152 361.111 607.445 361.053L607.475 366.854C606.83 367.068 606.098 367.244 605.277 367.381C604.477 367.518 603.568 367.586 602.553 367.586C600.814 367.586 599.291 367.293 597.982 366.707C596.674 366.102 595.658 365.135 594.936 363.807C594.213 362.459 593.852 360.682 593.852 358.475V327.508Z" fill="white"/>
<g filter="url(#filter1_d_23_5835)">
<rect x="816" y="246" width="332" height="106" rx="12" fill="#DDDDDD"/>
</g>
<path d="M862.218 304.641V280.875H868.663V304.641C868.663 306.906 868.171 308.852 867.187 310.477C866.202 312.086 864.858 313.32 863.155 314.18C861.452 315.039 859.53 315.469 857.39 315.469C855.187 315.469 853.233 315.102 851.53 314.367C849.827 313.617 848.491 312.477 847.522 310.945C846.569 309.414 846.093 307.469 846.093 305.109H852.562C852.562 306.391 852.757 307.422 853.147 308.203C853.538 308.984 854.093 309.547 854.812 309.891C855.546 310.234 856.405 310.406 857.39 310.406C858.343 310.406 859.179 310.188 859.897 309.75C860.632 309.297 861.202 308.641 861.608 307.781C862.015 306.922 862.218 305.875 862.218 304.641ZM908.454 297.07V298.828C908.454 301.406 908.111 303.727 907.423 305.789C906.736 307.836 905.759 309.578 904.493 311.016C903.228 312.453 901.72 313.555 899.97 314.32C898.22 315.086 896.275 315.469 894.134 315.469C892.025 315.469 890.087 315.086 888.322 314.32C886.572 313.555 885.056 312.453 883.775 311.016C882.493 309.578 881.501 307.836 880.798 305.789C880.095 303.727 879.743 301.406 879.743 298.828V297.07C879.743 294.477 880.095 292.156 880.798 290.109C881.501 288.062 882.486 286.32 883.751 284.883C885.017 283.43 886.525 282.32 888.275 281.555C890.04 280.789 891.978 280.406 894.087 280.406C896.228 280.406 898.173 280.789 899.923 281.555C901.673 282.32 903.181 283.43 904.447 284.883C905.728 286.32 906.712 288.062 907.4 290.109C908.103 292.156 908.454 294.477 908.454 297.07ZM901.939 298.828V297.023C901.939 295.164 901.767 293.531 901.423 292.125C901.079 290.703 900.572 289.508 899.9 288.539C899.228 287.57 898.4 286.844 897.415 286.359C896.431 285.859 895.322 285.609 894.087 285.609C892.837 285.609 891.728 285.859 890.759 286.359C889.806 286.844 888.993 287.57 888.322 288.539C887.65 289.508 887.134 290.703 886.775 292.125C886.431 293.531 886.259 295.164 886.259 297.023V298.828C886.259 300.672 886.431 302.305 886.775 303.727C887.134 305.148 887.65 306.352 888.322 307.336C889.009 308.305 889.837 309.039 890.806 309.539C891.775 310.039 892.884 310.289 894.134 310.289C895.384 310.289 896.493 310.039 897.462 309.539C898.431 309.039 899.243 308.305 899.9 307.336C900.572 306.352 901.079 305.148 901.423 303.727C901.767 302.305 901.939 300.672 901.939 298.828ZM926.542 280.875V315H920.097V280.875H926.542ZM966.685 280.875V315H960.217L945.709 291.328V315H939.263V280.875H945.709L960.263 304.57V280.875H966.685ZM1024.14 280.875V315H1017.67L1003.17 291.328V315H996.721V280.875H1003.17L1017.72 304.57V280.875H1024.14ZM1064.1 297.07V298.828C1064.1 301.406 1063.75 303.727 1063.07 305.789C1062.38 307.836 1061.4 309.578 1060.14 311.016C1058.87 312.453 1057.36 313.555 1055.61 314.32C1053.86 315.086 1051.92 315.469 1049.78 315.469C1047.67 315.469 1045.73 315.086 1043.97 314.32C1042.22 313.555 1040.7 312.453 1039.42 311.016C1038.14 309.578 1037.14 307.836 1036.44 305.789C1035.74 303.727 1035.39 301.406 1035.39 298.828V297.07C1035.39 294.477 1035.74 292.156 1036.44 290.109C1037.14 288.062 1038.13 286.32 1039.39 284.883C1040.66 283.43 1042.17 282.32 1043.92 281.555C1045.68 280.789 1047.62 280.406 1049.73 280.406C1051.87 280.406 1053.82 280.789 1055.57 281.555C1057.32 282.32 1058.82 283.43 1060.09 284.883C1061.37 286.32 1062.36 288.062 1063.04 290.109C1063.75 292.156 1064.1 294.477 1064.1 297.07ZM1057.58 298.828V297.023C1057.58 295.164 1057.41 293.531 1057.07 292.125C1056.72 290.703 1056.22 289.508 1055.54 288.539C1054.87 287.57 1054.04 286.844 1053.06 286.359C1052.07 285.859 1050.97 285.609 1049.73 285.609C1048.48 285.609 1047.37 285.859 1046.4 286.359C1045.45 286.844 1044.64 287.57 1043.97 288.539C1043.29 289.508 1042.78 290.703 1042.42 292.125C1042.07 293.531 1041.9 295.164 1041.9 297.023V298.828C1041.9 300.672 1042.07 302.305 1042.42 303.727C1042.78 305.148 1043.29 306.352 1043.97 307.336C1044.65 308.305 1045.48 309.039 1046.45 309.539C1047.42 310.039 1048.53 310.289 1049.78 310.289C1051.03 310.289 1052.14 310.039 1053.11 309.539C1054.07 309.039 1054.89 308.305 1055.54 307.336C1056.22 306.352 1056.72 305.148 1057.07 303.727C1057.41 302.305 1057.58 300.672 1057.58 298.828ZM1083.71 308.461L1090.51 280.875H1094.19L1094.42 286.688L1087.15 315H1083.26L1083.71 308.461ZM1079.42 280.875L1085 308.367V315H1080.76L1073.02 280.875H1079.42ZM1101.48 308.25L1106.96 280.875H1113.38L1105.65 315H1101.4L1101.48 308.25ZM1095.94 280.875L1102.74 308.555L1103.14 315H1099.25L1092.01 286.664L1092.29 280.875H1095.94Z" fill="white"/>
<path d="M449 251.822L451.244 252.672L449.297 253.216C448.978 253.308 448.686 253.477 448.447 253.708C448.209 253.94 448.031 254.226 447.929 254.542L447.223 256.684L446.373 254.534C446.268 254.269 446.107 254.03 445.902 253.832C445.697 253.634 445.452 253.482 445.183 253.386L443.22 252.672L445.353 251.822C445.607 251.717 445.837 251.561 446.028 251.363C446.22 251.166 446.369 250.932 446.467 250.675L447.24 248.677L447.793 250.53C447.885 250.822 448.041 251.09 448.25 251.313C448.459 251.537 448.715 251.711 449 251.822Z" fill="#0B6E4F"/>
<path d="M416.479 175.985L418.714 176.835L416.776 177.388C416.456 177.477 416.163 177.644 415.923 177.874C415.683 178.104 415.503 178.39 415.399 178.705L414.702 180.856L413.852 178.697C413.747 178.432 413.586 178.193 413.381 177.995C413.176 177.797 412.931 177.645 412.662 177.549L410.699 176.835L412.824 175.985C413.079 175.88 413.31 175.724 413.503 175.527C413.695 175.329 413.846 175.095 413.946 174.838L414.719 172.84L415.263 174.702C415.357 174.993 415.515 175.259 415.726 175.481C415.936 175.704 416.193 175.876 416.479 175.985Z" fill="#0B6E4F"/>
<path d="M261.15 262.294L265.876 264.071L261.771 265.235C261.095 265.425 260.476 265.778 259.971 266.265C259.465 266.751 259.087 267.356 258.872 268.023L257.385 272.562L255.557 268.006C255.335 267.447 254.997 266.941 254.565 266.521C254.132 266.102 253.616 265.78 253.05 265.575L248.893 264.071L253.39 262.218C253.929 261.999 254.418 261.672 254.826 261.257C255.234 260.842 255.552 260.347 255.761 259.804L257.385 255.554L258.549 259.481C258.732 260.121 259.063 260.709 259.515 261.197C259.966 261.686 260.527 262.062 261.15 262.294Z" fill="#0B6E4F"/>
<path d="M247.014 142.733L252.905 144.943L247.805 146.397C246.957 146.629 246.179 147.067 245.542 147.672C244.904 148.277 244.426 149.03 244.15 149.865L242.297 155.526L240.027 149.848C239.746 149.153 239.322 148.526 238.783 148.005C238.244 147.483 237.603 147.081 236.899 146.822L231.723 144.943L237.35 142.64C238.02 142.366 238.628 141.957 239.135 141.44C239.642 140.922 240.039 140.307 240.299 139.631L242.322 134.369L243.776 139.257C244.011 140.047 244.426 140.772 244.988 141.375C245.55 141.978 246.243 142.443 247.014 142.733Z" fill="#0B6E4F"/>
<path d="M264.55 115.95L267.21 116.953L264.907 117.608C264.528 117.715 264.18 117.913 263.896 118.186C263.611 118.459 263.398 118.797 263.275 119.172L262.425 121.722L261.396 119.172C261.272 118.856 261.082 118.571 260.838 118.335C260.595 118.099 260.304 117.918 259.985 117.803L257.648 116.953L260.198 115.908C260.502 115.785 260.777 115.6 261.007 115.366C261.236 115.132 261.415 114.854 261.532 114.548L262.442 112.176L263.096 114.386C263.203 114.741 263.389 115.066 263.641 115.337C263.893 115.609 264.204 115.818 264.55 115.95Z" fill="#0B6E4F"/>
<path d="M484.011 276.6L488.737 278.376L484.632 279.541C483.956 279.73 483.338 280.084 482.832 280.57C482.326 281.057 481.949 281.661 481.733 282.329L480.246 286.876L478.418 282.32C478.196 281.761 477.858 281.255 477.426 280.835C476.994 280.416 476.477 280.094 475.911 279.889L471.754 278.376L476.251 276.532C476.789 276.309 477.277 275.98 477.685 275.564C478.092 275.147 478.411 274.653 478.622 274.109L480.246 269.859L481.41 273.786C481.593 274.426 481.924 275.014 482.376 275.503C482.828 275.992 483.388 276.367 484.011 276.6Z" fill="#0B6E4F"/>
<path d="M414.286 155.05L418.817 156.75L414.881 157.872C414.234 158.054 413.642 158.393 413.157 158.858C412.672 159.324 412.31 159.902 412.102 160.541L410.682 164.893L408.931 160.524C408.716 159.989 408.39 159.505 407.976 159.104C407.562 158.702 407.067 158.393 406.526 158.195L402.539 156.75L406.849 154.982C407.366 154.772 407.835 154.457 408.225 154.058C408.616 153.659 408.92 153.183 409.118 152.661L410.682 148.615L411.796 152.381C411.976 152.988 412.295 153.545 412.727 154.008C413.159 154.471 413.693 154.828 414.286 155.05Z" fill="#0B6E4F"/>
<path d="M201.82 356.109C196.465 353.347 190.158 352.99 184.217 353.967C181.021 354.494 177.697 355.455 175.521 357.852C173.345 360.249 172.971 364.473 175.436 366.53C176.915 367.754 178.989 367.941 180.919 367.924C185.568 367.865 190.728 367.074 194.451 369.845C196.567 371.443 197.978 374.095 200.52 374.886C203.061 375.676 205.798 374.189 207.107 371.953C208.317 369.62 208.584 366.912 207.855 364.388C207.555 362.636 206.854 360.978 205.807 359.542C204.76 358.106 203.396 356.931 201.82 356.109Z" fill="#EBEBEB"/>
<path d="M214.085 332.428C210.813 337.103 204.446 335.556 201.497 332.7C198.547 329.844 197.298 325.713 196.167 321.769C193.617 312.759 190.957 303.298 192.886 294.127C193.351 291.343 194.571 288.741 196.414 286.604C198.343 284.573 201.31 283.366 204.064 284.054C207.268 284.904 209.266 288.041 210.702 291.033C214.954 299.856 217.179 309.518 217.213 319.312C217.213 323.868 216.695 328.662 214.128 332.402" fill="#EBEBEB"/>
<path d="M223.07 339.134C219.517 334.884 218.82 328.764 220.427 323.486C222.033 318.207 225.578 313.702 229.7 310.03C234.547 305.72 240.185 302.391 246.301 300.23C248.672 299.278 251.22 298.846 253.772 298.963C255.046 299.038 256.282 299.423 257.374 300.083C258.465 300.744 259.379 301.661 260.037 302.754C261.788 306.086 260.113 310.132 258.294 313.43C255.103 319.246 251.457 324.8 247.389 330.039C244.125 334.289 240.376 338.412 235.395 340.316C230.414 342.22 225.195 342.016 222.645 338.539" fill="#EBEBEB"/>
<path d="M214.307 402.961C214.135 402.265 214.035 401.553 214.009 400.836C213.856 399.289 213.669 397.342 213.448 395.039C213.157 392.185 212.72 389.348 212.139 386.539C211.379 383.116 210.347 379.759 209.054 376.5C207.786 373.251 206.07 370.195 203.954 367.422C202.216 365.169 200.001 363.329 197.468 362.033C195.75 361.183 193.908 360.609 192.011 360.333C191.297 360.307 190.587 360.204 189.895 360.027C190.612 359.952 191.336 359.952 192.054 360.027C194.022 360.179 195.947 360.679 197.74 361.506C200.395 362.772 202.722 364.634 204.54 366.946C206.765 369.751 208.555 372.875 209.853 376.211C211.171 379.515 212.197 382.928 212.921 386.411C213.475 389.255 213.853 392.131 214.052 395.022C214.239 397.487 214.307 399.476 214.341 400.853C214.404 401.555 214.393 402.261 214.307 402.961Z" fill="#0B6E4F"/>
<path d="M213.907 398.499C213.845 398.174 213.825 397.842 213.847 397.513C213.847 396.773 213.847 395.813 213.847 394.691C213.847 392.243 213.847 388.741 213.72 384.338C213.507 375.591 212.751 366.182 211.297 352.888C209.92 340.41 208.076 325.892 206.121 316.457C205.704 314.306 205.271 312.377 204.888 310.685C204.506 308.994 204.2 307.557 203.885 306.35C203.571 305.143 203.401 304.336 203.222 303.613C203.127 303.298 203.07 302.973 203.052 302.644C203.2 302.936 203.314 303.244 203.392 303.562C203.605 304.276 203.877 305.169 204.242 306.265C204.608 307.362 204.982 308.892 205.407 310.583C205.832 312.275 206.316 314.187 206.775 316.338C209.19 327.501 211.006 338.785 212.215 350.142C213.669 363.436 214.323 375.54 214.383 384.304C214.434 388.69 214.383 392.234 214.23 394.682C214.162 395.83 214.102 396.765 214.06 397.504C214.044 397.84 213.993 398.173 213.907 398.499Z" fill="#0B6E4F"/>
<path d="M213.848 375.149C213.772 374.17 213.772 373.187 213.848 372.208C213.958 370.313 214.222 367.576 214.749 364.227C215.397 360.308 216.266 356.428 217.35 352.607C218.616 347.902 220.241 343.302 222.212 338.846C226.3 329.3 231.732 321.463 236.5 316.618C237.568 315.509 238.703 314.467 239.9 313.499C240.419 313.065 240.869 312.649 241.337 312.283L242.637 311.391C243.42 310.794 244.25 310.263 245.119 309.801C245.255 309.988 241.609 312.139 236.993 317.052C231.127 323.587 226.419 331.076 223.07 339.194C221.142 343.614 219.509 348.158 218.183 352.794C216.908 357.044 216.066 360.988 215.42 364.303C214.774 367.618 214.46 370.321 214.247 372.2C214.192 373.192 214.059 374.178 213.848 375.149Z" fill="#0B6E4F"/>
<path d="M236.415 416.332L234.078 448.385H192.895L190.558 416.332H236.415Z" fill="#0B6E4F"/>
<path d="M240.385 403.7H185.645V416.331H240.385V403.7Z" fill="#0B6E4F"/>
<path d="M240.393 447.161V450.663H237.817H186.554V447.161H240.393Z" fill="#EBEBEB"/>
<path d="M235.293 456.826L237.818 450.663H188.509L191.459 456.826H235.293Z" fill="#0B6E4F"/>
<path d="M191.323 426.812C191.377 426.915 191.442 427.012 191.518 427.101L192.13 427.951L194.527 431.028L194.638 431.164L194.74 431.019L200.63 422.8H200.29L206.096 431.011L206.274 431.274L206.478 431.028L213.363 422.842H212.964L213.346 423.31L219.5 431.062L219.704 431.317L219.891 431.053L225.697 422.8H225.357L232.505 430.951L232.633 431.096L232.726 430.926L234.97 427.169C235.2 426.761 235.395 426.429 235.54 426.166C235.612 426.054 235.672 425.934 235.718 425.809C235.625 425.906 235.545 426.014 235.48 426.132C235.31 426.378 235.106 426.701 234.843 427.092L232.497 430.781H232.718C230.882 428.639 228.468 425.834 225.68 422.536L225.51 422.332L225.348 422.553C223.563 425.035 221.6 427.789 219.492 430.73H219.883L213.746 423.004L213.363 422.528L213.168 422.281L212.972 422.519L206.104 430.722H206.495C204.379 427.772 202.407 425.018 200.63 422.553L200.46 422.307L200.29 422.553L194.527 430.79H194.731L192.241 427.798L191.569 427.024C191.45 426.888 191.331 426.803 191.323 426.812Z" fill="#F5F5F5"/>
<path d="M189.988 416.127C189.988 416.263 200.307 416.382 213.032 416.382C225.756 416.382 236.075 416.263 236.075 416.127C236.075 415.991 225.756 415.864 213.032 415.864C200.307 415.864 189.988 416 189.988 416.127Z" fill="#F5F5F5"/>
<path d="M187.906 451.003C187.906 451.148 199.117 451.267 212.947 451.267C226.776 451.267 237.988 451.148 237.988 451.003C237.988 450.859 226.785 450.748 212.947 450.748C199.109 450.748 187.906 450.85 187.906 451.003Z" fill="#F5F5F5"/>
<path d="M532.495 91.5039H437.533V229.153H532.495V91.5039Z" fill="#0B6E4F"/>
<path d="M527.735 91.5039H432.773V229.153H527.735V91.5039Z" fill="#F5F5F5"/>
<path d="M515.938 106.413H444.572V214.244H515.938V106.413Z" fill="white"/>
<path d="M515.937 214.235C515.937 214.235 515.937 214.057 515.937 213.708C515.937 213.36 515.937 212.858 515.937 212.187C515.937 210.827 515.937 208.846 515.937 206.237C515.937 201.069 515.938 193.538 515.87 184.018C515.87 165.012 515.802 138.118 515.759 106.379L515.988 106.608H444.631L444.894 106.353C444.894 147.026 444.852 184.553 444.843 214.176L444.631 213.972L496.583 214.082L510.931 214.133H514.697H515.997C515.997 214.133 515.58 214.133 514.739 214.133H511.016L496.71 214.184L444.631 214.295H444.427V214.082C444.427 184.443 444.427 146.932 444.376 106.26V105.996H444.639H515.997H516.15V106.234C516.15 137.999 516.065 164.978 516.039 184.035C516.039 193.521 515.989 201.035 515.972 206.194C515.972 208.744 515.972 210.716 515.972 212.059C515.972 212.714 515.972 213.215 515.972 213.564C515.972 213.912 515.937 214.235 515.937 214.235Z" fill="#0B6E4F"/>
<path d="M528.05 91.5039C527.557 92.371 526.988 93.193 526.35 93.9604C525.245 95.4394 523.681 97.4454 521.896 99.6129C520.111 101.78 518.437 103.701 517.196 105.07C516.564 105.839 515.867 106.553 515.113 107.203C515.643 106.36 516.249 105.566 516.924 104.832L521.497 99.2814L526.061 93.7309C526.656 92.9309 527.322 92.1856 528.05 91.5039Z" fill="#0B6E4F"/>
<path d="M516.303 213.896C519.855 219.535 524.032 224.756 528.755 229.459L516.303 213.896Z" fill="white"/>
<path d="M528.755 229.459C527.961 228.882 527.231 228.221 526.579 227.487C524.924 225.805 523.358 224.037 521.887 222.192C520.414 220.347 519.035 218.43 517.756 216.446C517.189 215.646 516.702 214.791 516.303 213.896C516.948 214.63 517.533 215.415 518.054 216.242C519.099 217.712 520.604 219.718 522.304 221.869C524.004 224.019 525.661 225.889 526.868 227.232C527.547 227.931 528.177 228.675 528.755 229.459Z" fill="#0B6E4F"/>
<path d="M432.765 229.042L445.201 213.7L432.765 229.042Z" fill="white"/>
<path d="M445.201 213.7C445.311 213.794 442.651 217.296 439.183 221.537C437.174 224.151 435.032 226.659 432.765 229.051C432.655 228.957 435.315 225.447 438.783 221.214C442.251 216.981 445.09 213.598 445.201 213.7Z" fill="#0B6E4F"/>
<path d="M432.773 91.5039C432.884 91.4104 435.587 94.6404 438.817 98.7204C442.047 102.8 444.554 106.166 444.444 106.26C442.303 103.963 440.288 101.551 438.409 99.0349C436.397 96.6274 434.516 94.1134 432.773 91.5039Z" fill="#0B6E4F"/>
<path d="M493.702 128.301H469.808V196.148H493.702V128.301Z" fill="#0B6E4F"/>
<path d="M439.854 274.245L444.223 275.886L440.432 276.965C439.811 277.139 439.242 277.462 438.775 277.906C438.308 278.351 437.958 278.904 437.755 279.515L436.386 283.714L434.686 279.507C434.481 278.991 434.169 278.524 433.77 278.138C433.372 277.751 432.896 277.453 432.374 277.263L428.532 275.869L432.689 274.169C433.185 273.963 433.634 273.659 434.01 273.275C434.385 272.891 434.679 272.434 434.873 271.933L436.378 268.032L437.449 271.653C437.621 272.242 437.928 272.783 438.345 273.233C438.763 273.683 439.279 274.03 439.854 274.245Z" fill="#0B6E4F"/>
<path d="M290.764 173.027L295.133 174.668L291.342 175.739C290.722 175.914 290.154 176.238 289.688 176.682C289.221 177.127 288.87 177.678 288.665 178.289L287.296 182.479L285.596 178.28C285.39 177.763 285.077 177.296 284.677 176.909C284.277 176.522 283.799 176.225 283.276 176.036L279.442 174.642L283.599 172.942C284.096 172.738 284.546 172.434 284.921 172.05C285.297 171.665 285.59 171.209 285.783 170.707L287.288 166.814L288.359 170.435C288.531 171.024 288.838 171.565 289.255 172.015C289.673 172.465 290.189 172.812 290.764 173.027Z" fill="#0B6E4F"/>
<path d="M278.762 277.569L280.879 278.359L279.043 278.886C278.741 278.972 278.465 279.129 278.238 279.345C278.012 279.562 277.841 279.83 277.742 280.127L277.079 282.159L276.229 280.127C276.129 279.877 275.978 279.651 275.784 279.464C275.591 279.276 275.36 279.132 275.107 279.039L273.246 278.359L275.26 277.509C275.5 277.408 275.717 277.261 275.899 277.076C276.081 276.89 276.225 276.671 276.323 276.43L277.045 274.534L277.564 276.294C277.649 276.586 277.803 276.853 278.011 277.074C278.219 277.296 278.476 277.465 278.762 277.569Z" fill="#0B6E4F"/>
<path d="M428.124 253.097L430.36 253.947L428.413 254.5C428.095 254.592 427.805 254.76 427.566 254.99C427.328 255.219 427.149 255.503 427.045 255.817L426.339 257.968L425.489 255.817C425.383 255.553 425.223 255.314 425.02 255.116C424.816 254.917 424.574 254.762 424.308 254.661L422.336 253.947L424.469 253.097C424.723 252.991 424.954 252.834 425.146 252.637C425.339 252.44 425.49 252.206 425.591 251.95L426.356 249.952L426.909 251.805C426.999 252.1 427.155 252.369 427.366 252.593C427.577 252.817 427.836 252.99 428.124 253.097Z" fill="#0B6E4F"/>
<path d="M281.236 198.4L283.471 199.25L281.533 199.794C281.212 199.885 280.919 200.054 280.679 200.285C280.439 200.516 280.259 200.803 280.156 201.12L279.451 203.262L278.601 201.111C278.492 200.848 278.33 200.609 278.125 200.41C277.921 200.211 277.677 200.057 277.411 199.955L275.43 199.25L277.564 198.4C277.819 198.294 278.049 198.138 278.242 197.941C278.435 197.744 278.586 197.51 278.686 197.252L279.451 195.255L280.003 197.108C280.095 197.404 280.254 197.674 280.468 197.899C280.682 198.123 280.944 198.294 281.236 198.4Z" fill="#0B6E4F"/>
<path d="M387.979 154.055C387.979 154.055 371.778 141.305 352.194 145.351C334.208 149.091 316.069 162.751 316.069 162.751L313.74 138.245C313.74 138.245 317.743 143.014 320.081 142.011C322.418 141.008 322.427 122.945 322.427 122.945C322.427 122.945 331.122 134.318 336.137 133.315C341.152 132.312 348.182 109.566 348.182 109.566C348.182 109.566 358.552 129.303 364.57 129.966C370.588 130.629 375.62 117.259 375.62 117.259C375.62 117.259 379.3 135.321 383.635 136.154C387.97 136.987 389.985 128.632 389.985 128.632L387.979 154.055Z" fill="#0B6E4F"/>
<path d="M387.469 128.479C387.469 128.983 387.618 129.476 387.898 129.896C388.178 130.315 388.577 130.642 389.043 130.835C389.509 131.028 390.021 131.078 390.516 130.98C391.011 130.882 391.465 130.639 391.822 130.282C392.178 129.925 392.421 129.471 392.519 128.976C392.618 128.482 392.567 127.969 392.374 127.503C392.181 127.037 391.855 126.639 391.435 126.359C391.016 126.079 390.523 125.929 390.018 125.929C389.342 125.929 388.694 126.198 388.215 126.676C387.737 127.154 387.469 127.803 387.469 128.479Z" fill="#0B6E4F"/>
<path d="M375.671 118.177C377.06 118.177 378.187 117.051 378.187 115.661C378.187 114.271 377.06 113.145 375.671 113.145C374.281 113.145 373.155 114.271 373.155 115.661C373.155 117.051 374.281 118.177 375.671 118.177Z" fill="#0B6E4F"/>
<path d="M348.054 110.722C349.594 110.722 350.842 109.474 350.842 107.934C350.842 106.395 349.594 105.146 348.054 105.146C346.514 105.146 345.266 106.395 345.266 107.934C345.266 109.474 346.514 110.722 348.054 110.722Z" fill="#0B6E4F"/>
<path d="M322.715 124.747C324.255 124.747 325.503 123.499 325.503 121.959C325.503 120.42 324.255 119.171 322.715 119.171C321.176 119.171 319.927 120.42 319.927 121.959C319.927 123.499 321.176 124.747 322.715 124.747Z" fill="#0B6E4F"/>
<path d="M310.705 137.004C310.705 137.47 310.843 137.925 311.102 138.312C311.361 138.7 311.728 139.001 312.159 139.18C312.589 139.358 313.062 139.405 313.519 139.314C313.976 139.223 314.395 138.999 314.724 138.669C315.054 138.34 315.278 137.92 315.369 137.464C315.46 137.007 315.413 136.534 315.235 136.103C315.057 135.673 314.755 135.305 314.368 135.047C313.98 134.788 313.525 134.65 313.06 134.65C312.435 134.65 311.836 134.898 311.395 135.34C310.953 135.781 310.705 136.38 310.705 137.004Z" fill="#0B6E4F"/>
<path d="M388.31 149.89C388.31 149.89 388.242 149.89 388.132 149.788L387.639 149.457C387.197 149.168 386.602 148.675 385.752 148.165C383.397 146.638 380.897 145.348 378.289 144.314C374.417 142.79 370.357 141.798 366.219 141.365C363.776 141.112 361.319 141.033 358.866 141.127C356.236 141.244 353.617 141.545 351.029 142.028C346.024 143.007 341.14 144.523 336.46 146.55C332.639 148.201 328.928 150.098 325.351 152.228C322.291 154.047 319.877 155.628 318.228 156.741L316.332 158.033L315.839 158.356C315.72 158.433 315.661 158.467 315.652 158.458C315.698 158.408 315.75 158.362 315.805 158.322L316.281 157.957C316.706 157.651 317.318 157.175 318.134 156.605C319.749 155.441 322.138 153.817 325.189 151.964C328.754 149.781 332.467 147.847 336.299 146.176C340.997 144.114 345.908 142.577 350.944 141.594C353.555 141.108 356.196 140.806 358.849 140.693C361.323 140.607 363.8 140.695 366.261 140.957C370.429 141.402 374.514 142.426 378.399 144C381.018 145.059 383.514 146.399 385.845 147.995C386.695 148.53 387.265 149.049 387.69 149.355L388.157 149.729C388.268 149.839 388.319 149.89 388.31 149.89Z" fill="#263238"/>
<g opacity="0.3">
<path opacity="0.3" d="M353.647 130.051C353.425 129.349 353.03 128.713 352.498 128.202C351.966 127.691 351.315 127.322 350.604 127.127C350.005 127.005 349.385 127.046 348.807 127.246C348.23 127.447 347.717 127.799 347.323 128.266L347.366 128.19C346.394 129.297 345.867 130.725 345.888 132.198C345.908 133.67 346.474 135.083 347.476 136.163C347.87 136.627 348.373 136.986 348.939 137.207C349.506 137.428 350.119 137.505 350.723 137.429C352.143 137.149 353.069 135.729 353.528 134.378C354.029 132.986 354.071 131.469 353.647 130.051Z" fill="black"/>
</g>
<path d="M348.054 135.687C348.012 135.687 347.663 135.381 347.315 134.684C346.866 133.763 346.675 132.738 346.762 131.717C346.849 130.697 347.21 129.719 347.808 128.887C348.267 128.258 348.658 127.986 348.709 128.037C348.76 128.088 348.445 128.436 348.071 129.074C347.581 129.895 347.285 130.817 347.204 131.77C347.123 132.722 347.259 133.681 347.604 134.573C347.775 134.935 347.926 135.307 348.054 135.687Z" fill="white"/>
<g opacity="0.3">
<path opacity="0.3" d="M331.249 139.044C330.997 138.668 330.653 138.362 330.25 138.154C329.848 137.946 329.399 137.843 328.946 137.854C328.578 137.889 328.227 138.022 327.928 138.238C327.629 138.455 327.393 138.748 327.246 139.087V139.036C326.868 139.86 326.807 140.794 327.075 141.66C327.344 142.526 327.922 143.262 328.699 143.728C329.012 143.932 329.371 144.056 329.744 144.087C330.116 144.118 330.49 144.056 330.833 143.906C331.204 143.657 331.503 143.315 331.7 142.913C331.897 142.512 331.985 142.066 331.955 141.62C332.003 140.708 331.755 139.805 331.249 139.044Z" fill="black"/>
</g>
<path d="M328.989 143.32C328.989 143.32 328.683 143.243 328.334 142.895C327.895 142.421 327.6 141.831 327.484 141.195C327.351 140.564 327.404 139.909 327.637 139.308C327.816 138.849 328.02 138.628 328.071 138.653C327.878 139.454 327.826 140.283 327.918 141.101C328.146 141.896 328.508 142.647 328.989 143.32Z" fill="white"/>
<g opacity="0.3">
<path opacity="0.3" d="M376.087 134.522C375.989 134.081 375.782 133.671 375.485 133.329C375.188 132.988 374.811 132.726 374.387 132.567C374.028 132.457 373.646 132.447 373.282 132.538C372.918 132.63 372.586 132.819 372.322 133.086C371.672 133.716 371.276 134.563 371.21 135.466C371.145 136.369 371.413 137.264 371.965 137.982C372.187 138.281 372.479 138.521 372.815 138.681C373.151 138.841 373.522 138.916 373.894 138.9C374.327 138.8 374.727 138.591 375.058 138.294C375.388 137.997 375.637 137.62 375.781 137.2C376.171 136.364 376.278 135.424 376.087 134.522Z" fill="black"/>
</g>
<path d="M372.279 137.744C372.228 137.744 372.016 137.548 371.82 137.106C371.58 136.508 371.51 135.855 371.616 135.219C371.732 134.583 372.027 133.994 372.466 133.519C372.798 133.162 373.078 133.035 373.112 133.077C372.636 133.75 372.282 134.501 372.067 135.296C371.998 136.118 372.07 136.946 372.279 137.744Z" fill="white"/>
<g opacity="0.3">
<path opacity="0.3" d="M320.403 148.658C320.173 148.435 319.891 148.274 319.582 148.188C319.273 148.102 318.948 148.094 318.635 148.165C318.379 148.24 318.148 148.383 317.967 148.579C317.785 148.775 317.661 149.017 317.607 149.278C317.467 149.906 317.563 150.563 317.877 151.124C318.19 151.685 318.699 152.111 319.307 152.321C319.554 152.415 319.82 152.447 320.082 152.414C320.345 152.382 320.595 152.286 320.811 152.134C321.029 151.905 321.184 151.623 321.261 151.317C321.339 151.01 321.336 150.689 321.253 150.383C321.172 149.729 320.873 149.121 320.403 148.658Z" fill="black"/>
</g>
<path d="M319.409 152.049C319.409 152.1 319.162 152.049 318.856 151.879C318.478 151.624 318.182 151.264 318.006 150.842C317.818 150.415 317.764 149.941 317.853 149.482C317.921 149.134 318.049 148.947 318.1 148.964C318.151 148.981 318.032 149.814 318.414 150.664C318.797 151.514 319.468 151.939 319.409 152.049Z" fill="white"/>
<g opacity="0.3">
<path opacity="0.3" d="M387.324 142.699C387.39 142.385 387.375 142.059 387.282 141.751C387.188 141.443 387.019 141.165 386.789 140.94C386.587 140.763 386.341 140.645 386.078 140.599C385.814 140.552 385.542 140.579 385.293 140.676C384.689 140.896 384.188 141.331 383.884 141.897C383.58 142.462 383.494 143.12 383.644 143.745C383.696 144.005 383.811 144.249 383.98 144.453C384.15 144.658 384.367 144.818 384.613 144.918C384.921 144.974 385.239 144.951 385.536 144.851C385.833 144.752 386.1 144.579 386.313 144.348C386.823 143.926 387.179 143.346 387.324 142.699Z" fill="black"/>
</g>
<path d="M383.933 143.677C383.873 143.677 383.78 143.481 383.78 143.124C383.782 142.658 383.924 142.203 384.186 141.817C384.447 141.431 384.818 141.132 385.25 140.957C385.582 140.829 385.803 140.838 385.82 140.897C385.837 140.957 385.072 141.288 384.553 142.07C384.035 142.852 384.06 143.668 383.933 143.677Z" fill="white"/>
<path d="M304.542 144.357C302.703 144.061 300.89 143.62 299.119 143.039C297.311 142.597 295.54 142.011 293.824 141.288C295.661 141.586 297.472 142.029 299.238 142.614C301.05 143.053 302.824 143.635 304.542 144.357Z" fill="#263238"/>
<path d="M314.743 127C312.981 124.889 311.336 122.684 309.813 120.395C308.163 118.195 306.636 115.905 305.24 113.536C306.997 115.649 308.643 117.854 310.17 120.14C311.819 122.341 313.346 124.631 314.743 127Z" fill="#263238"/>
<path d="M335.236 117.446C335.117 117.446 334.284 112.932 333.375 107.331C332.465 101.729 331.828 97.1309 331.947 97.1309C332.066 97.1309 332.899 101.636 333.808 107.237C334.718 112.839 335.355 117.42 335.236 117.446Z" fill="#263238"/>
<path d="M368.343 89.3789C368.378 89.7152 368.378 90.0541 368.343 90.3904C368.343 91.0449 368.25 91.9799 368.148 93.1359C367.952 95.4564 367.604 98.6524 367.085 102.163C366.567 105.673 365.989 108.835 365.513 111.105C365.283 112.244 365.071 113.162 364.918 113.799C364.864 114.134 364.767 114.459 364.629 114.768C364.635 114.431 364.675 114.095 364.748 113.765C364.875 113.026 365.028 112.125 365.207 111.054C365.606 108.759 366.133 105.597 366.652 102.095C367.17 98.5929 367.561 95.4139 367.842 93.1019C367.972 92.0252 368.083 91.1157 368.173 90.3734C368.19 90.0363 368.247 89.7025 368.343 89.3789Z" fill="#263238"/>
<path d="M393.444 109.651C392.032 111.774 390.496 113.812 388.846 115.754C387.308 117.789 385.653 119.734 383.89 121.577C385.307 119.456 386.845 117.418 388.497 115.474C390.033 113.44 391.685 111.496 393.444 109.651Z" fill="#263238"/>
<path d="M408.412 136.401C406.308 136.836 404.174 137.12 402.029 137.251C399.896 137.533 397.746 137.669 395.594 137.659C397.703 137.231 399.839 136.947 401.986 136.809C404.117 136.53 406.264 136.393 408.412 136.401Z" fill="#263238"/>
<path d="M468.856 322.806C468.856 322.806 461.342 323.375 461.827 326.384C462.311 329.393 465.949 331.076 470.403 330.405L474.373 325.492L468.856 322.806Z" fill="#EB996E"/>
<path d="M459.268 358.2L468.023 394.495L495.299 353.695L514.849 359.815C514.849 359.815 476.242 447.696 466.909 446.234C457.576 444.772 449.909 444.152 445.285 434.334C440.661 424.517 429.645 388.256 429.645 388.256L426.313 372.208L458.222 358.2" fill="#FFBE9D"/>
<path d="M455.52 307.667C455.52 307.667 490.123 312.904 491.526 313.907C492.928 314.91 517.076 339.661 517.28 346.699C517.339 351.176 516.519 355.62 514.866 359.781L495.75 355.352L486.902 344.489C486.902 344.489 479.66 344.685 477.849 343.478C476.039 342.271 474.024 339.228 474.449 337.647C474.449 337.647 469.018 337.443 470.429 330.405C470.429 330.405 464.19 326.58 468.414 323.163C472.639 319.746 480.484 318.53 480.484 318.53C480.484 318.53 459.166 315.317 456.752 312.903C456.06 312.245 455.574 311.399 455.356 310.469C455.137 309.539 455.194 308.566 455.52 307.667Z" fill="#FFBE9D"/>
<path d="M482.754 325.806C482.754 325.942 479.923 326.384 476.617 327.634C473.31 328.883 470.862 330.396 470.794 330.277C471.254 329.841 471.775 329.475 472.341 329.189C473.655 328.412 475.034 327.752 476.464 327.217C477.892 326.678 479.365 326.269 480.867 325.993C481.483 325.837 482.119 325.774 482.754 325.806Z" fill="#EB996E"/>
<path d="M485.788 334.57C485.788 334.697 483.281 335.063 480.255 335.862C477.229 336.661 474.84 337.562 474.789 337.443C475.251 337.121 475.758 336.869 476.294 336.695C478.804 335.688 481.431 335.002 484.114 334.655C484.664 334.541 485.229 334.513 485.788 334.57Z" fill="#EB996E"/>
<path d="M502.711 358.412C501.36 357.936 500.058 357.327 498.827 356.593C497.527 355.986 496.293 355.246 495.146 354.383C496.5 354.855 497.802 355.465 499.031 356.202C500.331 356.809 501.565 357.55 502.711 358.412Z" fill="#EB996E"/>
<path d="M467.198 411.792C467.146 408.882 467.248 405.971 467.504 403.071C467.602 400.162 467.852 397.259 468.252 394.376C468.371 394.376 468.252 398.286 467.946 403.097C467.64 407.908 467.317 411.801 467.198 411.792Z" fill="#EB996E"/>
<path d="M421.8 293.37C418.757 288.984 414.788 285.202 412.535 280.365C411.19 277.145 410.25 273.77 409.739 270.318L394.362 189.568L313.417 180.805C301.289 202.67 294.779 227.204 294.47 252.205C294.334 265.082 295.269 279.626 286.404 288.967C282.664 292.911 277.249 295.767 275.804 301.054C274.572 305.525 276.722 310.285 276.153 314.892C275.49 320.298 271.299 324.463 268.307 329.011C263.992 335.602 261.977 343.435 262.578 351.289C262.884 355.029 264.074 359.135 267.33 361.005C269.344 362.161 271.775 362.229 274.13 362.271C324.926 363.232 376.266 364.141 425.897 353.312C427.937 343.206 429.986 333.023 429.969 322.712C429.952 312.402 427.665 301.836 421.8 293.37Z" fill="#263238"/>
<path d="M299.536 366.436C299.536 366.436 299.451 366.326 299.307 366.105C299.162 365.884 298.95 365.527 298.678 365.102C297.908 363.8 297.227 362.448 296.638 361.056C295.729 358.835 295.049 356.529 294.606 354.171C294.033 351.04 293.875 347.848 294.139 344.676C294.483 340.827 295.481 337.064 297.088 333.55C298.788 329.767 301.296 326.053 302.877 321.701C303.267 320.593 303.568 319.456 303.778 318.301C303.974 317.127 304.06 315.938 304.033 314.748C303.908 312.28 303.482 309.837 302.766 307.472C302.095 305.049 301.253 302.61 300.548 300.077C299.796 297.517 299.348 294.878 299.213 292.214C298.992 286.791 300.063 281.572 301.27 276.659C302.477 271.746 303.905 267.063 304.866 262.515C306.61 254.468 307.64 246.281 307.943 238.052C308.133 232.504 308 226.95 307.543 221.418C307.373 219.463 307.229 217.941 307.101 216.913C307.05 216.411 307.008 216.02 306.982 215.74C306.957 215.459 306.982 215.34 306.982 215.34C307.012 215.469 307.035 215.6 307.05 215.731C307.093 216.012 307.144 216.403 307.22 216.896C307.373 217.924 307.543 219.446 307.739 221.401C308.266 226.94 308.448 232.507 308.283 238.069C308.024 246.322 307.023 254.535 305.291 262.609C304.339 267.165 302.953 271.865 301.721 276.77C300.488 281.674 299.46 286.842 299.681 292.189C299.902 297.535 301.857 302.482 303.217 307.361C303.944 309.768 304.375 312.254 304.5 314.765C304.525 315.983 304.434 317.202 304.228 318.403C304.012 319.559 303.702 320.696 303.302 321.803C301.687 326.223 299.179 329.92 297.462 333.703C295.859 337.176 294.853 340.894 294.487 344.702C294.206 347.845 294.343 351.012 294.895 354.12C295.316 356.467 295.965 358.767 296.833 360.988C297.407 362.382 298.063 363.742 298.797 365.059C299.052 365.49 299.247 365.83 299.383 366.079C299.477 366.309 299.536 366.436 299.536 366.436Z" fill="#455A64"/>
<path d="M364.179 152.406C348.743 151.913 333.774 155.407 322.767 166.236C312.669 176.181 308.172 185.403 307.348 199.981C307.067 204.979 309.209 215.986 311.232 220.559C313.255 225.132 318.882 236.709 323.566 238.409C328.249 240.109 330.536 232.102 333.766 228.311C335.763 225.999 336.664 222.956 337.548 220.032C341.28 207.656 345.793 195.289 353.52 184.919C361.246 174.549 372.619 166.321 385.48 164.961L393.691 164.774C383.244 154.642 374.362 152.738 364.179 152.406Z" fill="#455A64"/>
<path d="M376.962 168.701L335.007 184.392C333.005 184.83 331.242 186.003 330.064 187.68C328.887 189.356 328.382 191.413 328.649 193.444L343.26 287.148C344.253 293.549 347.334 299.442 352.024 303.91L356.954 308.619C368.199 319.355 387.103 315.266 392.262 300.595C392.578 299.758 392.79 298.884 392.891 297.994C392.96 297.268 392.988 296.539 392.976 295.81C393.02 291.004 392.558 286.206 391.599 281.496C390.749 273.089 390.384 269.638 390.392 269.715C390.401 269.791 407.792 264.81 408.905 241.282C409.458 229.578 406.789 210.784 404.111 195.484C401.697 181.706 390.622 165.709 376.962 168.701Z" fill="#FFBE9D"/>
<path d="M397.329 212.331C397.421 213.107 397.205 213.887 396.728 214.505C396.252 215.123 395.552 215.53 394.779 215.638C394.404 215.71 394.019 215.706 393.646 215.627C393.273 215.548 392.92 215.395 392.607 215.177C392.294 214.959 392.028 214.681 391.824 214.359C391.62 214.036 391.483 213.677 391.421 213.3C391.331 212.526 391.548 211.746 392.024 211.129C392.5 210.511 393.199 210.104 393.971 209.994C394.346 209.921 394.731 209.923 395.104 210.002C395.478 210.081 395.832 210.233 396.145 210.451C396.458 210.67 396.724 210.948 396.928 211.271C397.131 211.594 397.267 211.955 397.329 212.331Z" fill="#263238"/>
<path d="M401.91 205.744C401.579 206.169 399.148 204.758 395.96 205.123C392.773 205.489 390.605 207.342 390.223 206.985C390.027 206.832 390.325 206.135 391.26 205.234C392.537 204.125 394.125 203.436 395.807 203.262C397.466 203.075 399.142 203.42 400.593 204.248C401.655 204.885 402.072 205.548 401.91 205.744Z" fill="#263238"/>
<path d="M367.213 215.196C367.305 215.971 367.09 216.751 366.613 217.37C366.136 217.988 365.436 218.394 364.663 218.502C364.289 218.574 363.904 218.571 363.531 218.492C363.158 218.413 362.804 218.26 362.491 218.042C362.178 217.824 361.912 217.546 361.709 217.223C361.505 216.901 361.368 216.541 361.305 216.165C361.213 215.39 361.429 214.609 361.906 213.991C362.382 213.373 363.082 212.966 363.855 212.858C364.23 212.786 364.615 212.79 364.988 212.869C365.361 212.948 365.714 213.101 366.027 213.319C366.34 213.537 366.606 213.815 366.81 214.138C367.014 214.46 367.151 214.82 367.213 215.196Z" fill="#263238"/>
<path d="M369.806 208.719C369.483 209.152 367.043 207.733 363.856 208.098C360.668 208.464 358.509 210.317 358.118 209.96C357.931 209.807 358.22 209.11 359.164 208.209C360.436 207.098 362.022 206.409 363.703 206.237C365.365 206.05 367.043 206.395 368.497 207.223C369.551 207.869 369.95 208.532 369.806 208.719Z" fill="#263238"/>
<path d="M384.009 232.196C384.009 232.017 385.921 231.456 389.109 230.691C389.908 230.513 390.664 230.266 390.741 229.697C390.706 228.843 390.41 228.021 389.891 227.342C388.913 225.455 387.876 223.475 386.797 221.392C382.47 212.935 379.24 205.931 379.589 205.761C379.937 205.591 383.711 212.314 388.038 220.78L391.038 226.73C391.446 227.623 392.092 228.617 391.812 229.884C391.726 230.184 391.572 230.46 391.363 230.691C391.154 230.922 390.894 231.103 390.605 231.218C390.169 231.394 389.712 231.511 389.245 231.567C386.049 232.145 384.043 232.4 384.009 232.196Z" fill="#263238"/>
<path d="M390.393 269.715C379.523 271.088 368.485 269.417 358.509 264.887C358.509 264.887 368.072 280.034 390.979 275.308L390.393 269.715Z" fill="#EB996E"/>
<path d="M383.55 240.05C382.86 239.351 382.002 238.84 381.059 238.566C380.116 238.293 379.118 238.265 378.161 238.486C377.465 238.626 376.805 238.907 376.22 239.31C375.636 239.713 375.139 240.231 374.761 240.832C374.4 241.414 374.223 242.091 374.254 242.775C374.284 243.459 374.52 244.118 374.931 244.665C375.926 245.779 377.753 245.855 379.232 245.252C380.68 244.554 381.975 243.574 383.04 242.37C383.385 242.077 383.674 241.723 383.89 241.325C383.986 241.135 384.025 240.921 384.001 240.709C383.976 240.498 383.891 240.298 383.754 240.135" fill="#EB996E"/>
<path d="M374.863 235.443C375.382 235.358 375.764 238.843 379.003 240.951C382.241 243.059 385.888 242.294 385.964 242.778C386.041 242.982 385.216 243.535 383.669 243.756C381.641 244.007 379.589 243.538 377.872 242.43C376.23 241.362 375.066 239.698 374.625 237.789C374.328 236.352 374.625 235.451 374.863 235.443Z" fill="#263238"/>
<path d="M369.584 193.589C369.21 194.439 366.04 193.793 362.249 193.972C358.458 194.15 355.347 194.958 354.905 194.142C354.709 193.751 355.296 192.969 356.605 192.221C358.314 191.303 360.21 190.788 362.149 190.715C364.087 190.641 366.017 191.011 367.791 191.796C369.1 192.45 369.754 193.181 369.584 193.589Z" fill="#263238"/>
<path d="M387.027 198.162C387.622 197.355 390.427 197.746 393.691 197.312C396.955 196.879 399.641 196.029 400.372 196.7C400.703 197.032 400.372 197.814 399.25 198.655C397.694 199.735 395.883 200.392 393.997 200.559C392.13 200.794 390.234 200.536 388.497 199.811C387.248 199.25 386.763 198.562 387.027 198.162Z" fill="#263238"/>
<path d="M339.495 231.456C339.299 229.756 336.86 225.897 335.126 225.821C330.502 225.617 322.376 226.892 323.566 238.435C325.206 254.211 340.702 249.306 340.685 248.847C340.668 248.388 340.2 237.406 339.495 231.456Z" fill="#FFBE9D"/>
<path d="M335.245 243.373C335.168 243.373 334.99 243.594 334.548 243.858C333.923 244.204 333.189 244.295 332.499 244.113C330.799 243.671 329.099 241.172 328.717 238.341C328.532 236.991 328.654 235.617 329.074 234.321C329.173 233.814 329.393 233.338 329.716 232.934C330.038 232.53 330.454 232.21 330.927 232C331.233 231.886 331.57 231.881 331.88 231.986C332.189 232.092 332.453 232.301 332.627 232.578C332.882 233.003 332.814 233.326 332.899 233.343C332.984 233.36 333.213 233.046 333.018 232.408C332.887 232.028 332.633 231.701 332.295 231.482C331.825 231.202 331.263 231.116 330.731 231.244C329.524 231.448 328.547 232.68 328.113 233.981C327.586 235.42 327.417 236.966 327.62 238.486C328.054 241.648 329.992 244.436 332.338 244.878C332.774 244.956 333.223 244.936 333.651 244.818C334.079 244.701 334.476 244.489 334.811 244.198C335.253 243.756 335.304 243.399 335.245 243.373Z" fill="#EB996E"/>
<path d="M393.75 164.239C388.276 159.292 381.128 156.495 373.869 155.152C367.59 153.94 361.133 153.984 354.871 155.28C340.795 156.13 323.88 177.048 321.373 190.92C320.174 197.533 321.109 204.342 322.316 210.955C322.928 214.355 323.634 217.755 325.291 220.721C326.949 223.688 329.711 226.272 333.069 226.884C336.426 227.496 340.302 225.66 341.305 222.387C342.062 219.939 341.169 217.211 341.875 214.737C343.49 209.093 351.956 208.235 354.395 202.888C356.155 199.038 354.106 194.184 356.044 190.419C357.982 186.653 362.649 185.778 366.431 184.069C369.546 182.606 372.268 180.424 374.376 177.704C376.483 174.984 377.914 171.802 378.552 168.421H378.867C394.243 167.945 401.171 184.154 403.474 190.776C404.087 185.897 403.525 180.943 401.833 176.327C400.141 171.71 397.37 167.566 393.75 164.239Z" fill="#263238"/>
<path d="M330.06 173.512C330.223 173.489 330.389 173.489 330.553 173.512L331.955 173.682C332.567 173.767 333.315 173.852 334.182 173.928C335.049 174.005 336.035 174.124 337.132 174.183C339.316 174.362 341.934 174.438 344.833 174.43C347.731 174.421 350.919 174.234 354.251 173.903C357.583 173.571 360.728 173.053 363.601 172.475C366.474 171.897 368.981 171.259 371.081 170.63C372.143 170.35 373.087 170.035 373.911 169.78C374.736 169.525 375.458 169.287 376.036 169.075L377.379 168.624C377.531 168.559 377.691 168.513 377.855 168.488C377.718 168.578 377.569 168.65 377.413 168.701L376.096 169.236C375.526 169.474 374.821 169.738 373.996 170.018C373.172 170.299 372.228 170.639 371.174 170.945C369.075 171.608 366.525 172.254 363.677 172.883C360.83 173.512 357.668 173.988 354.327 174.353C350.987 174.719 347.782 174.829 344.867 174.846C341.951 174.863 339.333 174.727 337.14 174.506C336.044 174.43 335.058 174.294 334.191 174.183C333.324 174.073 332.576 173.971 331.972 173.86L330.57 173.605C330.397 173.59 330.226 173.558 330.06 173.512Z" fill="#455A64"/>
<path d="M323.957 182.785C324.155 182.803 324.352 182.84 324.543 182.896L326.243 183.287L327.45 183.576C327.892 183.678 328.377 183.746 328.895 183.839C329.941 184.001 331.114 184.273 332.44 184.375L334.505 184.596C335.228 184.681 335.984 184.664 336.766 184.706C338.322 184.817 339.988 184.706 341.739 184.706C345.524 184.463 349.279 183.86 352.95 182.904C356.621 181.886 360.189 180.529 363.609 178.85L365.887 177.66C366.627 177.294 367.29 176.81 367.97 176.436C368.65 176.062 369.296 175.671 369.882 175.246L371.582 174.056C372.696 173.333 373.597 172.534 374.438 171.888C374.846 171.565 375.246 171.268 375.586 170.97L376.504 170.12L377.796 168.99C377.941 168.853 378.097 168.727 378.263 168.616C378.145 168.776 378.008 168.922 377.855 169.049L376.64 170.35L375.739 171.2C375.407 171.506 375.016 171.812 374.608 172.152C373.758 172.815 372.908 173.631 371.778 174.379L370.078 175.594C369.491 176.028 368.82 176.393 368.157 176.818C367.494 177.243 366.822 177.668 366.074 178.068L363.796 179.283C360.358 180.984 356.767 182.353 353.069 183.372C349.356 184.325 345.558 184.911 341.73 185.123C340.059 185.208 338.386 185.208 336.715 185.123C335.933 185.072 335.168 185.123 334.446 184.987L332.363 184.74C331.029 184.621 329.856 184.315 328.81 184.128C328.292 184.026 327.807 183.95 327.365 183.831L326.175 183.499L324.518 183.032C324.323 182.969 324.135 182.887 323.957 182.785Z" fill="#455A64"/>
<path d="M337.905 252.8C337.905 252.8 337.905 252.876 337.905 253.021C337.909 253.235 337.889 253.449 337.846 253.658C337.662 254.429 337.232 255.118 336.622 255.622C335.722 256.388 334.59 256.828 333.409 256.872C332.682 256.889 331.962 256.74 331.302 256.437C330.642 256.133 330.06 255.683 329.601 255.121C329.124 254.573 328.771 253.931 328.562 253.236C328.354 252.541 328.297 251.81 328.394 251.092C328.586 249.931 329.139 248.86 329.975 248.031C330.523 247.471 331.183 247.034 331.913 246.748C332.181 246.628 332.469 246.562 332.763 246.552C331.804 246.937 330.936 247.516 330.213 248.252C329.466 249.059 328.98 250.072 328.819 251.16C328.744 251.822 328.811 252.492 329.015 253.126C329.219 253.761 329.554 254.345 330 254.84C330.417 255.354 330.945 255.768 331.544 256.05C332.143 256.333 332.797 256.477 333.46 256.472C334.558 256.448 335.62 256.069 336.486 255.393C337.074 254.942 337.514 254.326 337.752 253.625C337.871 253.115 337.854 252.8 337.905 252.8Z" fill="#0B6E4F"/>
<path d="M376.223 232.349C376.223 232.485 374.608 232.918 372.823 233.981C371.038 235.043 369.865 236.25 369.771 236.157C370.534 235.122 371.498 234.251 372.605 233.596C373.712 232.942 374.94 232.518 376.214 232.349H376.223Z" fill="#EB996E"/>
<path d="M332.108 289.579L342.869 285.729L392.05 283.867L408.982 288.806C408.982 288.806 387.46 316.32 368.786 314.425C350.111 312.529 332.108 289.579 332.108 289.579Z" fill="#FFBE9D"/>
<path d="M437.517 300.451L434.236 315.929L426.331 379.186C426.331 379.186 454.117 375.888 463.017 360.078V357.443C463.017 357.443 444.869 302.576 437.517 300.451Z" fill="#0B6E4F"/>
<path d="M437.516 300.451L407.545 286.944C407.545 286.944 401.289 299.456 375.594 303.094C349.898 306.732 331.011 288.644 331.011 288.644C331.011 288.644 321.78 293.251 308.605 298.19L310.365 377.554L315.635 394.027C315.635 394.027 311.028 417.088 309.379 424.007C307.73 430.926 312.345 433.85 312.345 433.85L310.033 456.8H438.188L430.3 411.469L437.516 300.451Z" fill="#0B6E4F"/>
<path d="M308.606 298.173C308.606 298.173 292.252 305.398 286.361 318.802C281.346 330.218 271.495 359.084 271.495 359.084L313 379.186V322.5L308.606 298.173Z" fill="#0B6E4F"/>
<path d="M301.568 339.109C301.687 339.109 304.118 348.714 306.94 360.622C309.762 372.531 311.989 382.204 311.87 382.238C311.751 382.272 309.32 372.633 306.506 360.724C303.693 348.816 301.449 339.134 301.568 339.109Z" fill="#263238"/>
<path d="M436.25 326.546C436.261 326.616 436.261 326.688 436.25 326.758C436.25 326.928 436.25 327.141 436.25 327.404C436.216 327.999 436.174 328.815 436.123 329.852C435.987 332.011 435.791 335.08 435.562 338.854C435.043 346.504 434.338 356.976 433.556 368.561C432.774 380.147 431.966 390.661 431.414 398.26C431.125 402.034 430.887 405.06 430.717 407.253C430.623 408.29 430.555 409.106 430.504 409.701C430.504 409.956 430.453 410.169 430.436 410.33C430.445 410.404 430.445 410.478 430.436 410.551C430.427 410.478 430.427 410.404 430.436 410.33C430.436 410.16 430.436 409.948 430.436 409.693C430.436 409.098 430.513 408.282 430.572 407.245C430.7 405.077 430.895 402.009 431.125 398.235C431.643 390.585 432.357 380.113 433.139 368.485C433.921 356.857 434.729 346.427 435.273 338.794C435.57 335.02 435.808 331.994 435.97 329.793C436.063 328.764 436.131 327.948 436.182 327.353C436.182 327.098 436.233 326.886 436.25 326.716C436.242 326.66 436.242 326.602 436.25 326.546Z" fill="#263238"/>
<path d="M414.15 289.758C414.15 289.758 414.108 289.834 413.997 289.962L413.521 290.506C413.079 290.973 412.501 291.73 411.609 292.563C409.176 294.997 406.482 297.155 403.576 298.997C402.675 299.626 401.655 300.145 400.635 300.757C399.615 301.369 398.485 301.879 397.329 302.457C394.848 303.598 392.292 304.566 389.679 305.355C383.671 307.14 377.423 307.986 371.157 307.863C364.896 307.68 358.687 306.662 352.695 304.837C347.812 303.352 343.079 301.412 338.56 299.04C335.509 297.452 332.555 295.687 329.711 293.753C328.7 293.081 327.952 292.503 327.425 292.129L326.838 291.696C326.768 291.651 326.705 291.597 326.651 291.534L326.872 291.662L327.476 292.061C328.02 292.41 328.776 292.962 329.805 293.608C332.677 295.483 335.648 297.203 338.704 298.759C343.224 301.082 347.947 302.985 352.814 304.446C358.774 306.239 364.944 307.239 371.166 307.421C380.116 307.617 388.997 305.798 397.15 302.1C398.298 301.547 399.411 301.012 400.448 300.451C401.485 299.89 402.488 299.346 403.381 298.751C406.286 296.937 408.995 294.826 411.464 292.452C412.374 291.645 412.969 290.905 413.428 290.463L413.938 289.945C414.001 289.874 414.072 289.812 414.15 289.758Z" fill="#263238"/>
<path d="M308.75 371.723C308.254 371.612 307.768 371.461 307.296 371.273C306.37 370.95 305.044 370.465 303.412 369.845C300.139 368.604 295.651 366.793 290.764 364.643C285.876 362.492 281.516 360.393 278.396 358.803C276.832 358.013 275.583 357.358 274.724 356.891C274.266 356.671 273.825 356.415 273.407 356.126C273.887 356.293 274.353 356.498 274.801 356.738L278.532 358.523C281.686 360.027 286.063 362.084 290.942 364.235C295.821 366.385 300.292 368.238 303.522 369.556L307.356 371.111C307.835 371.281 308.301 371.485 308.75 371.723Z" fill="#263238"/>
<path d="M463.144 357.443C462.847 357.781 462.523 358.094 462.175 358.378C461.529 358.956 460.569 359.764 459.362 360.733C456.184 363.226 452.829 365.485 449.323 367.49C445.812 369.485 442.158 371.218 438.392 372.675C436.939 373.228 435.757 373.644 434.933 373.899C434.509 374.051 434.074 374.17 433.632 374.256C434.031 374.05 434.446 373.877 434.873 373.738C435.681 373.432 436.845 372.973 438.273 372.386C445.721 369.335 452.743 365.336 459.166 360.486C460.399 359.56 461.385 358.786 462.065 358.251C462.398 357.948 462.759 357.677 463.144 357.443Z" fill="#263238"/>
<path d="M403.551 385.544C403.551 385.587 402.837 385.111 401.443 384.55C399.458 383.802 397.35 383.43 395.229 383.453C392.084 383.527 388.977 384.154 386.049 385.306C382.717 386.53 379.181 388.239 375.424 389.905L356.172 398.498L350.315 401.048L348.709 401.72C348.527 401.812 348.336 401.883 348.139 401.932C348.309 401.821 348.488 401.724 348.675 401.643L350.239 400.895L356.044 398.209L375.237 389.497C379.003 387.797 382.539 386.097 385.913 384.915C388.897 383.763 392.065 383.159 395.263 383.13C397.416 383.134 399.547 383.559 401.536 384.38C402.066 384.614 402.58 384.884 403.075 385.187C403.242 385.294 403.402 385.413 403.551 385.544Z" fill="#263238"/>
<g opacity="0.3">
<path opacity="0.3" d="M349.219 401.456C356.979 406.344 367.306 406.284 375.568 402.264C383.831 398.243 390.095 390.95 394.456 382.884C378.722 387.754 364.06 395.022 349.219 401.456Z" fill="black"/>
</g>
<g opacity="0.3">
<path opacity="0.3" d="M301.95 341.2C300.327 352.862 303.82 366.572 310.603 376.194C308.415 364.357 305.485 352.67 301.831 341.2" fill="black"/>
</g>
<path d="M306.2 358.821C306.141 358.931 299.536 355.684 291.436 351.57C283.335 347.456 276.816 344.03 276.875 343.92C276.935 343.809 283.539 347.056 291.64 351.171C299.74 355.285 306.268 358.71 306.2 358.821Z" fill="white"/>
<path d="M301.567 337.358C301.508 337.46 297.317 335.157 292.217 332.207C287.117 329.257 283.063 326.784 283.122 326.682C283.182 326.58 287.372 328.875 292.472 331.824C297.572 334.774 301.635 337.248 301.567 337.358Z" fill="white"/>
<path d="M448.209 317.238C448.209 317.238 448.073 317.238 447.801 317.315L446.603 317.493L441.987 318.131C439.981 318.411 437.525 318.734 434.669 319.049C431.813 319.363 428.557 319.78 424.953 320.103L419.301 320.655C417.329 320.842 415.28 320.987 413.155 321.165C408.905 321.531 404.375 321.794 399.598 322.092C390.035 322.61 379.512 322.942 368.471 323.018C357.429 323.095 346.889 322.738 337.327 322.279C332.541 322.007 327.977 321.769 323.727 321.429C321.602 321.267 319.553 321.131 317.581 320.953L311.92 320.443C308.316 320.137 305.061 319.746 302.205 319.44C299.349 319.134 296.884 318.828 294.878 318.59L290.254 317.978L289.055 317.808L288.647 317.731H289.064L290.271 317.859L294.895 318.386C296.909 318.624 299.366 318.904 302.23 319.185C305.095 319.465 308.342 319.831 311.954 320.12L317.607 320.604C319.579 320.774 321.627 320.893 323.752 321.055C328.002 321.378 332.533 321.599 337.31 321.862C346.872 322.296 357.387 322.585 368.428 322.568C379.47 322.551 389.984 322.168 399.538 321.718C404.315 321.429 408.888 321.182 413.096 320.868C415.212 320.698 417.269 320.562 419.233 320.383L424.885 319.865C428.498 319.559 431.745 319.168 434.601 318.87C437.457 318.573 439.922 318.275 441.928 318.02L446.56 317.459L447.767 317.332L448.209 317.238Z" fill="white"/>
<path d="M433.445 351.009C433.445 351.128 404.809 351.23 369.483 351.23C334.157 351.23 305.52 351.128 305.52 351.009C305.52 350.89 334.157 350.779 369.483 350.779C404.809 350.779 433.445 350.881 433.445 351.009Z" fill="white"/>
<path d="M385.446 383.947C385.446 384.066 369.44 384.168 349.695 384.168C329.949 384.168 313.995 384.066 313.995 383.947C313.995 383.828 329.992 383.726 349.695 383.726C369.398 383.726 385.446 383.819 385.446 383.947Z" fill="white"/>
<path d="M432.06 384.201C432.06 384.32 425.455 384.422 417.304 384.422C409.152 384.422 402.548 384.32 402.548 384.201C402.548 384.082 409.152 383.98 417.304 383.98C425.455 383.98 432.06 384.074 432.06 384.201Z" fill="white"/>
<path d="M430.121 411.75C430.121 411.869 403.831 411.971 371.403 411.971C338.976 411.971 312.668 411.869 312.668 411.75C312.668 411.631 338.959 411.529 371.403 411.529C403.848 411.529 430.121 411.656 430.121 411.75Z" fill="white"/>
<path d="M435.23 444.458C435.23 444.577 407.911 444.679 374.208 444.679C340.506 444.679 313.178 444.577 313.178 444.458C313.178 444.339 340.497 444.237 374.208 444.237C407.919 444.237 435.23 444.339 435.23 444.458Z" fill="white"/>
<path d="M453.114 332.955C452.926 333.183 452.709 333.386 452.468 333.558C452.043 333.932 451.406 334.451 450.615 335.08C449.034 336.338 446.799 338.029 444.266 339.806C441.733 341.582 439.387 343.104 437.661 344.158C436.811 344.693 436.089 345.11 435.596 345.39C435.349 345.552 435.084 345.684 434.805 345.781C435.013 345.571 435.248 345.388 435.502 345.237L437.491 343.894C439.191 342.772 441.486 341.208 444.011 339.44C446.535 337.672 448.796 336.04 450.428 334.833L452.366 333.422C452.592 333.232 452.844 333.074 453.114 332.955Z" fill="white"/>
<path d="M461.401 349.793C461.092 350.093 460.753 350.361 460.39 350.592C459.727 351.085 458.749 351.774 457.534 352.615C455.103 354.315 451.686 356.534 447.844 358.888C444.002 361.243 440.44 363.249 437.839 364.651C436.539 365.348 435.476 365.901 434.737 366.275C434.362 366.486 433.969 366.665 433.564 366.81C433.902 366.545 434.267 366.314 434.652 366.122L437.686 364.379C440.236 362.909 443.764 360.86 447.614 358.506C451.465 356.151 454.882 353.958 457.364 352.352L460.296 350.448C460.646 350.199 461.015 349.98 461.401 349.793Z" fill="white"/>
<path d="M278.269 362.365L267.874 406.199L246.785 362.713H224.685C224.685 362.713 233.78 409.259 250.415 435.609C263.224 455.907 274.903 456.528 282.477 453.663C290.05 450.799 297.496 440.174 304.415 414.785C308.436 400.02 310.96 388.876 311.844 382.238C312.006 381.048 310.34 377.537 310.34 377.537L278.269 362.365Z" fill="#FFBE9D"/>
<path d="M277.759 333.091C277.759 333.091 286.361 332.445 286.361 336.882C286.361 341.319 274.283 341.863 274.283 341.863L272.583 335.649L277.759 333.091Z" fill="#EB996E"/>
<path d="M224.71 362.713C224.71 362.713 224.71 350.193 228.663 344.923C231.859 340.673 249.156 327.311 255.71 322.321C257.323 321.09 259.341 320.51 261.362 320.698L296.782 323.911C296.782 323.911 297.436 328.518 294.147 329.181C290.857 329.844 277.096 329.767 277.096 329.767C277.096 329.767 278.507 335.301 277.835 337.655C277.164 340.01 274.129 341.463 274.129 341.463C274.129 341.463 275.982 344.727 270.381 348.68C270.381 348.68 270.84 355.301 264.575 355.48C262.587 355.511 260.598 355.401 258.625 355.148C258.625 355.148 248.425 362.399 246.725 362.73C245.025 363.062 224.71 362.713 224.71 362.713Z" fill="#FFBE9D"/>
<path d="M237.35 364.941C238.859 364.382 240.415 363.961 242 363.683C243.552 363.256 245.139 362.971 246.743 362.833C245.235 363.398 243.679 363.822 242.093 364.099C240.542 364.526 238.954 364.807 237.35 364.941Z" fill="#EB996E"/>
<path d="M261.762 343.376C263.35 343.961 264.858 344.743 266.25 345.705C267.723 346.549 269.085 347.575 270.304 348.756C270.228 348.858 268.375 347.566 266.012 346.087C263.649 344.608 261.711 343.495 261.762 343.376Z" fill="#EB996E"/>
<path d="M274.283 341.2C274.198 341.302 272.489 339.746 270.109 338.233C267.729 336.72 265.621 335.794 265.672 335.683C267.349 336.132 268.934 336.871 270.356 337.868C271.851 338.738 273.181 339.866 274.283 341.2Z" fill="#EB996E"/>
<path d="M268.01 328.05C269.55 328.108 271.081 328.313 272.583 328.662C274.111 328.863 275.617 329.21 277.079 329.699C275.538 329.651 274.006 329.449 272.506 329.096C270.978 328.889 269.472 328.539 268.01 328.05Z" fill="#EB996E"/>
<path d="M277.079 420.309C275.289 418.03 273.615 415.661 272.064 413.212C270.392 410.848 268.843 408.4 267.423 405.876C269.21 408.154 270.881 410.52 272.43 412.965C274.103 415.333 275.655 417.784 277.079 420.309Z" fill="#EB996E"/>
<path d="M265.4 221.163C265.4 231.646 261.236 241.699 253.823 249.112C246.411 256.524 236.358 260.688 225.875 260.688C215.392 260.688 205.339 256.524 197.926 249.112C190.514 241.699 186.35 231.646 186.35 221.163C186.35 199.335 204.038 181.069 225.866 181.069C247.694 181.069 265.4 199.335 265.4 221.163Z" fill="white"/>
<path d="M218.828 217.1H221.378L226.895 209.45V206.05C226.912 205.832 226.988 205.622 227.115 205.444C227.243 205.265 227.416 205.125 227.617 205.038C227.818 204.95 228.039 204.919 228.256 204.948C228.473 204.976 228.678 205.064 228.85 205.2C229.7 206.05 230.507 207.597 230.286 210.759C229.827 217.372 230.286 215.689 230.286 215.689C230.286 215.689 238.582 215.689 239.279 216.437C239.781 216.964 240.002 225.201 240.129 229.672C240.187 230.747 239.884 231.812 239.268 232.695C238.652 233.579 237.759 234.232 236.729 234.551C236.452 234.624 236.166 234.664 235.879 234.67C233.805 234.67 223.231 232.97 223.231 232.97H218.828V217.1Z" fill="#455A64"/>
<path d="M211.586 215.698V233.259L217.468 232.995V216.046L211.586 215.698Z" fill="#455A64"/>
<path d="M275.362 231.287C275.362 231.287 274.996 231.516 274.452 232.052C273.707 232.82 273.214 233.799 273.041 234.857C272.916 235.575 272.951 236.312 273.143 237.015C273.376 237.818 273.837 238.536 274.469 239.081C275.169 239.733 276.05 240.158 276.996 240.299C277.942 240.44 278.909 240.291 279.768 239.871C280.627 239.451 281.339 238.78 281.809 237.947C282.279 237.114 282.485 236.158 282.4 235.205C282.361 234.37 282.08 233.564 281.592 232.885C281.158 232.298 280.597 231.816 279.952 231.474C279.014 230.95 277.934 230.735 276.866 230.862C276.11 230.955 275.727 231.142 275.71 231.108C275.693 231.074 275.795 231.04 275.982 230.964C276.095 230.905 276.215 230.863 276.339 230.836C276.505 230.779 276.676 230.739 276.849 230.717C277.783 230.576 278.737 230.686 279.614 231.036C280.49 231.385 281.258 231.962 281.839 232.706C282.372 233.426 282.685 234.285 282.74 235.18C282.802 236.166 282.594 237.151 282.136 238.027C281.657 238.985 280.882 239.763 279.926 240.245C278.958 240.695 277.872 240.826 276.824 240.619C275.853 240.44 274.95 239.996 274.214 239.336C273.54 238.744 273.055 237.966 272.82 237.101C272.621 236.351 272.598 235.566 272.752 234.806C272.954 233.709 273.506 232.707 274.325 231.95C274.449 231.828 274.582 231.717 274.724 231.618C274.826 231.543 274.934 231.478 275.047 231.423C275.145 231.361 275.251 231.316 275.362 231.287Z" fill="#263238"/>
<path d="M263.7 208.6C263.7 208.6 263.615 208.405 263.453 208.005L262.756 206.254L262.246 204.954C262.042 204.486 261.77 204.002 261.498 203.458L260.606 201.758C260.454 201.43 260.272 201.117 260.062 200.823C259.866 200.508 259.654 200.185 259.441 199.854C257.411 196.607 254.897 193.689 251.987 191.201C248.159 187.867 243.723 185.304 238.922 183.653L236.899 182.973C236.211 182.786 235.497 182.633 234.783 182.463L233.695 182.216C233.336 182.115 232.969 182.044 232.598 182.004L230.337 181.706L229.19 181.562H228.025L225.611 181.4C224.821 181.4 224.013 181.494 223.206 181.536L221.982 181.613C221.778 181.613 221.574 181.613 221.37 181.613L220.758 181.715C219.093 181.938 217.446 182.276 215.828 182.726C214.978 182.964 214.128 183.151 213.346 183.432L210.898 184.375C210.49 184.537 210.048 184.673 209.674 184.868L208.45 185.48C207.659 185.888 206.843 186.271 206.061 186.713C204.485 187.65 202.972 188.689 201.531 189.824L200.434 190.674C200.247 190.818 200.06 190.963 199.882 191.116L199.38 191.6L197.4 193.589C196.745 194.278 196.15 195.026 195.521 195.748C195.215 196.122 194.875 196.462 194.595 196.862L193.745 198.052C192.61 199.656 191.582 201.335 190.668 203.075C190.26 203.976 189.86 204.886 189.444 205.804L189.138 206.484C189.053 206.722 188.976 206.96 188.9 207.198L188.39 208.6L187.905 210.037L187.548 211.524L187.2 213.046L187.03 213.794C187.03 214.049 186.953 214.304 186.919 214.559L186.511 217.627C186.511 218.656 186.443 219.701 186.401 220.738C186.34 229.278 189.068 237.605 194.17 244.453L196.099 246.901L198.25 249.137L198.785 249.689L199.372 250.182L200.536 251.185L201.65 252.171L202.899 253.021L204.132 253.871L204.752 254.305L205.407 254.67L208.042 256.2C209.806 257.065 211.626 257.809 213.49 258.427L214.867 258.895C215.326 259.056 215.802 259.133 216.27 259.252C217.205 259.456 218.131 259.711 219.066 259.881L221.88 260.255L222.577 260.348H223.282L224.676 260.391C226.509 260.458 228.343 260.401 230.167 260.221C231.068 260.119 231.952 259.94 232.828 259.804L234.145 259.583C234.587 259.507 234.995 259.362 235.429 259.252L237.979 258.572C238.829 258.308 239.594 257.968 240.393 257.671C241.964 257.075 243.492 256.371 244.966 255.563L245.518 255.282C245.705 255.18 245.867 255.07 246.045 254.959L247.074 254.296C247.754 253.854 248.459 253.446 249.097 252.979L250.958 251.517L251.876 250.794L252.726 249.995L254.367 248.423C254.645 248.161 254.901 247.876 255.132 247.573L255.854 246.723C256.33 246.162 256.823 245.626 257.265 245.023L258.498 243.28C261.375 239.137 263.43 234.48 264.55 229.561C264.677 229.017 264.813 228.49 264.924 227.963C265.034 227.436 265.068 226.901 265.136 226.382C265.204 225.864 265.272 225.362 265.34 224.869C265.34 224.623 265.417 224.376 265.434 224.138V223.407C265.434 222.455 265.502 221.537 265.536 220.662C265.57 219.786 265.451 218.962 265.417 218.171L265.349 217.032C265.336 216.67 265.296 216.309 265.23 215.953C265.119 215.264 265.017 214.618 264.915 214.023C264.813 213.428 264.745 212.867 264.635 212.366C264.524 211.864 264.388 211.422 264.278 211.023C264.074 210.224 263.912 209.62 263.802 209.195C263.691 208.77 263.7 208.6 263.7 208.6C263.7 208.6 263.768 208.813 263.887 209.221C264.006 209.629 264.176 210.249 264.405 211.04L264.779 212.383C264.89 212.884 264.966 213.437 265.077 214.083L265.408 216.012C265.475 216.369 265.514 216.729 265.527 217.092C265.527 217.466 265.587 217.848 265.612 218.239C265.612 219.03 265.748 219.863 265.748 220.738C265.748 221.614 265.689 222.532 265.663 223.501V224.223C265.663 224.47 265.604 224.716 265.578 224.963L265.374 226.493C265.306 227.003 265.238 227.538 265.17 228.074C265.102 228.609 264.932 229.136 264.805 229.689C263.702 234.673 261.647 239.398 258.753 243.603L257.52 245.363C257.07 245.924 256.585 246.468 256.109 247.063L255.378 247.913C255.144 248.214 254.889 248.498 254.613 248.763L252.896 250.25C252.616 250.514 252.335 250.794 252.046 251.049L251.128 251.78L249.25 253.242C248.604 253.727 247.898 254.092 247.218 254.577L246.181 255.248L245.654 255.571L245.102 255.852C243.618 256.67 242.079 257.383 240.495 257.985C239.645 258.283 238.888 258.64 238.055 258.895L235.505 259.592C235.08 259.702 234.655 259.847 234.213 259.932L232.887 260.153C232.037 260.289 231.111 260.476 230.201 260.578C228.363 260.757 226.514 260.816 224.668 260.756L223.257 260.714H222.551L221.846 260.62L219.007 260.246C218.063 260.076 217.128 259.821 216.185 259.609C215.717 259.49 215.233 259.413 214.774 259.26L213.38 258.75C211.5 258.123 209.663 257.373 207.88 256.506L205.254 255.01L204.591 254.636L203.97 254.203L202.721 253.353L201.463 252.503L200.29 251.5L199.1 250.454L198.513 249.953L197.969 249.392L195.81 247.139C195.156 246.289 194.51 245.499 193.855 244.666C188.706 237.757 185.954 229.355 186.018 220.738C186.018 219.684 186.095 218.639 186.129 217.593C186.163 216.548 186.409 215.528 186.545 214.499C186.545 214.244 186.613 213.981 186.656 213.726L186.826 212.978L187.183 211.465L187.54 209.969L188.05 208.515L188.543 207.07L188.789 206.356L189.104 205.659C189.512 204.741 189.954 203.823 190.336 202.914C191.257 201.147 192.294 199.444 193.439 197.814L194.289 196.615C194.561 196.216 194.909 195.867 195.215 195.493C195.853 194.762 196.456 194.006 197.119 193.309L199.185 191.328L199.695 190.835C199.873 190.682 200.06 190.546 200.247 190.393L201.352 189.543C202.799 188.408 204.318 187.369 205.9 186.432C206.69 185.973 207.523 185.582 208.314 185.183L209.521 184.579C209.92 184.384 210.371 184.248 210.762 184.086L213.227 183.134C214.077 182.854 214.927 182.667 215.726 182.429C217.366 181.972 219.036 181.628 220.724 181.4L221.336 181.298C221.54 181.298 221.744 181.298 221.956 181.298L223.18 181.213C224.03 181.213 224.812 181.086 225.611 181.086L228 181.171H229.173C229.564 181.213 229.946 181.273 230.329 181.324L232.607 181.63C232.98 181.671 233.35 181.742 233.712 181.842L234.8 182.097C235.514 182.276 236.236 182.42 236.933 182.616L238.965 183.304C243.789 184.985 248.242 187.583 252.08 190.954C254.991 193.47 257.499 196.417 259.518 199.692L260.138 200.67C260.341 200.967 260.52 201.28 260.674 201.605L261.524 203.364C261.796 203.908 262.059 204.41 262.263 204.877C262.467 205.345 262.612 205.795 262.756 206.178L263.419 207.954C263.589 208.362 263.7 208.6 263.7 208.6Z" fill="#263238"/>
<path d="M537.672 456.8C537.672 456.919 456.072 457.021 355.508 457.021C254.945 457.021 173.328 456.945 173.328 456.8C173.328 456.656 254.877 456.579 355.508 456.579C456.14 456.579 537.672 456.707 537.672 456.8Z" fill="#263238"/>
<path d="M147.23 505.344L156.605 525.236L166.039 505.344H174.887L160.707 532.385V548H152.533V532.385L138.324 505.344H147.23ZM175.268 532.473V531.857C175.268 529.533 175.6 527.395 176.264 525.441C176.928 523.469 177.895 521.76 179.164 520.314C180.434 518.869 181.986 517.746 183.822 516.945C185.658 516.125 187.748 515.715 190.092 515.715C192.475 515.715 194.584 516.125 196.42 516.945C198.275 517.746 199.838 518.869 201.107 520.314C202.377 521.76 203.344 523.469 204.008 525.441C204.672 527.395 205.004 529.533 205.004 531.857V532.473C205.004 534.777 204.672 536.916 204.008 538.889C203.344 540.842 202.377 542.551 201.107 544.016C199.838 545.461 198.285 546.584 196.449 547.385C194.613 548.186 192.514 548.586 190.15 548.586C187.807 548.586 185.707 548.186 183.852 547.385C181.996 546.584 180.434 545.461 179.164 544.016C177.895 542.551 176.928 540.842 176.264 538.889C175.6 536.916 175.268 534.777 175.268 532.473ZM183.002 531.857V532.473C183.002 533.859 183.139 535.158 183.412 536.369C183.686 537.58 184.105 538.645 184.672 539.562C185.238 540.48 185.971 541.203 186.869 541.73C187.787 542.238 188.881 542.492 190.15 542.492C191.4 542.492 192.475 542.238 193.373 541.73C194.271 541.203 195.004 540.48 195.57 539.562C196.156 538.645 196.586 537.58 196.859 536.369C197.133 535.158 197.27 533.859 197.27 532.473V531.857C197.27 530.49 197.133 529.211 196.859 528.02C196.586 526.809 196.156 525.744 195.57 524.826C195.004 523.889 194.262 523.156 193.344 522.629C192.445 522.082 191.361 521.809 190.092 521.809C188.842 521.809 187.768 522.082 186.869 522.629C185.971 523.156 185.238 523.889 184.672 524.826C184.105 525.744 183.686 526.809 183.412 528.02C183.139 529.211 183.002 530.49 183.002 531.857ZM229.496 540.471V516.301H237.289V548H229.965L229.496 540.471ZM230.492 533.908L232.895 533.85C232.895 535.979 232.66 537.941 232.191 539.738C231.723 541.535 230.99 543.098 229.994 544.426C229.018 545.734 227.777 546.76 226.273 547.502C224.77 548.225 222.992 548.586 220.941 548.586C219.379 548.586 217.953 548.371 216.664 547.941C215.375 547.492 214.262 546.799 213.324 545.861C212.406 544.904 211.693 543.684 211.186 542.199C210.678 540.695 210.424 538.889 210.424 536.779V516.301H218.158V536.838C218.158 537.893 218.275 538.771 218.51 539.475C218.764 540.178 219.105 540.754 219.535 541.203C219.984 541.633 220.502 541.945 221.088 542.141C221.693 542.316 222.338 542.404 223.021 542.404C224.896 542.404 226.371 542.033 227.445 541.291C228.539 540.529 229.32 539.514 229.789 538.244C230.258 536.955 230.492 535.51 230.492 533.908ZM272.094 542.492C273.188 542.492 274.164 542.277 275.023 541.848C275.883 541.418 276.566 540.812 277.074 540.031C277.602 539.25 277.885 538.342 277.924 537.307H285.219C285.18 539.455 284.574 541.379 283.402 543.078C282.23 544.777 280.668 546.125 278.715 547.121C276.781 548.098 274.613 548.586 272.211 548.586C269.77 548.586 267.641 548.176 265.824 547.355C264.008 546.535 262.494 545.393 261.283 543.928C260.092 542.463 259.193 540.764 258.588 538.83C258.002 536.896 257.709 534.826 257.709 532.619V531.682C257.709 529.475 258.002 527.404 258.588 525.471C259.193 523.537 260.092 521.838 261.283 520.373C262.494 518.908 264.008 517.766 265.824 516.945C267.641 516.125 269.76 515.715 272.182 515.715C274.74 515.715 276.986 516.213 278.92 517.209C280.873 518.205 282.396 519.611 283.49 521.428C284.604 523.244 285.18 525.383 285.219 527.844H277.924C277.885 526.711 277.631 525.695 277.162 524.797C276.693 523.898 276.029 523.176 275.17 522.629C274.311 522.082 273.266 521.809 272.035 521.809C270.727 521.809 269.633 522.082 268.754 522.629C267.895 523.176 267.221 523.928 266.732 524.885C266.264 525.822 265.932 526.877 265.736 528.049C265.561 529.201 265.473 530.412 265.473 531.682V532.619C265.473 533.908 265.561 535.139 265.736 536.311C265.932 537.482 266.264 538.537 266.732 539.475C267.221 540.393 267.895 541.125 268.754 541.672C269.633 542.219 270.746 542.492 272.094 542.492ZM307.836 541.262V526.643C307.836 525.568 307.65 524.641 307.279 523.859C306.908 523.078 306.342 522.473 305.58 522.043C304.818 521.613 303.852 521.398 302.68 521.398C301.645 521.398 300.736 521.574 299.955 521.926C299.193 522.277 298.607 522.775 298.197 523.42C297.787 524.045 297.582 524.768 297.582 525.588H289.818C289.818 524.279 290.131 523.039 290.756 521.867C291.381 520.676 292.27 519.621 293.422 518.703C294.594 517.766 295.99 517.033 297.611 516.506C299.252 515.979 301.088 515.715 303.119 515.715C305.521 515.715 307.66 516.125 309.535 516.945C311.43 517.746 312.914 518.957 313.988 520.578C315.082 522.199 315.629 524.24 315.629 526.701V540.529C315.629 542.111 315.727 543.469 315.922 544.602C316.137 545.715 316.449 546.682 316.859 547.502V548H308.979C308.607 547.199 308.324 546.184 308.129 544.953C307.934 543.703 307.836 542.473 307.836 541.262ZM308.92 528.693L308.979 533.293H304.086C302.875 533.293 301.811 533.42 300.893 533.674C299.975 533.908 299.223 534.26 298.637 534.729C298.051 535.178 297.611 535.725 297.318 536.369C297.025 536.994 296.879 537.707 296.879 538.508C296.879 539.289 297.055 539.992 297.406 540.617C297.777 541.242 298.305 541.74 298.988 542.111C299.691 542.463 300.512 542.639 301.449 542.639C302.816 542.639 304.008 542.365 305.023 541.818C306.039 541.252 306.83 540.568 307.396 539.768C307.963 538.967 308.266 538.205 308.305 537.482L310.531 540.822C310.258 541.623 309.848 542.473 309.301 543.371C308.754 544.27 308.051 545.109 307.191 545.891C306.332 546.672 305.297 547.316 304.086 547.824C302.875 548.332 301.469 548.586 299.867 548.586C297.816 548.586 295.98 548.176 294.359 547.355C292.738 546.535 291.459 545.412 290.521 543.986C289.584 542.561 289.115 540.939 289.115 539.123C289.115 537.443 289.428 535.959 290.053 534.67C290.678 533.381 291.605 532.297 292.836 531.418C294.066 530.52 295.59 529.846 297.406 529.396C299.242 528.928 301.342 528.693 303.705 528.693H308.92ZM330.189 523.068V548H322.455V516.301H329.721L330.189 523.068ZM328.959 531.008H326.674C326.693 528.703 327.006 526.613 327.611 524.738C328.217 522.863 329.066 521.252 330.16 519.904C331.273 518.557 332.592 517.521 334.115 516.799C335.639 516.076 337.338 515.715 339.213 515.715C340.736 515.715 342.113 515.93 343.344 516.359C344.574 516.789 345.629 517.473 346.508 518.41C347.406 519.348 348.09 520.578 348.559 522.102C349.047 523.605 349.291 525.461 349.291 527.668V548H341.498V527.609C341.498 526.164 341.283 525.021 340.854 524.182C340.443 523.342 339.838 522.746 339.037 522.395C338.256 522.043 337.289 521.867 336.137 521.867C334.945 521.867 333.9 522.111 333.002 522.6C332.123 523.068 331.381 523.723 330.775 524.562C330.189 525.402 329.74 526.369 329.428 527.463C329.115 528.557 328.959 529.738 328.959 531.008ZM371.029 503H378.793V540.998L378.031 548H371.029V503ZM399.184 531.828V532.443C399.184 534.807 398.92 536.975 398.393 538.947C397.885 540.92 397.113 542.629 396.078 544.074C395.043 545.5 393.754 546.613 392.211 547.414C390.688 548.195 388.9 548.586 386.85 548.586C384.896 548.586 383.197 548.205 381.752 547.443C380.326 546.682 379.125 545.607 378.148 544.221C377.172 542.814 376.391 541.164 375.805 539.27C375.219 537.355 374.779 535.266 374.486 533V531.33C374.779 529.045 375.219 526.955 375.805 525.061C376.391 523.166 377.172 521.516 378.148 520.109C379.125 518.703 380.326 517.619 381.752 516.857C383.178 516.096 384.857 515.715 386.791 515.715C388.861 515.715 390.668 516.115 392.211 516.916C393.773 517.697 395.062 518.811 396.078 520.256C397.113 521.682 397.885 523.381 398.393 525.354C398.92 527.307 399.184 529.465 399.184 531.828ZM391.42 532.443V531.828C391.42 530.48 391.312 529.211 391.098 528.02C390.883 526.809 390.531 525.744 390.043 524.826C389.555 523.908 388.891 523.186 388.051 522.658C387.211 522.131 386.156 521.867 384.887 521.867C383.676 521.867 382.641 522.072 381.781 522.482C380.941 522.893 380.238 523.459 379.672 524.182C379.125 524.904 378.695 525.754 378.383 526.73C378.09 527.707 377.895 528.762 377.797 529.895V534.465C377.934 535.969 378.256 537.326 378.764 538.537C379.271 539.729 380.023 540.676 381.02 541.379C382.035 542.082 383.344 542.434 384.945 542.434C386.195 542.434 387.24 542.189 388.08 541.701C388.92 541.193 389.584 540.49 390.072 539.592C390.561 538.674 390.902 537.609 391.098 536.398C391.312 535.188 391.42 533.869 391.42 532.443ZM419.047 548.586C416.645 548.586 414.486 548.195 412.572 547.414C410.658 546.633 409.027 545.549 407.68 544.162C406.352 542.756 405.326 541.125 404.604 539.27C403.9 537.395 403.549 535.383 403.549 533.234V532.062C403.549 529.621 403.9 527.404 404.604 525.412C405.307 523.4 406.303 521.672 407.592 520.227C408.881 518.781 410.424 517.668 412.221 516.887C414.018 516.105 416 515.715 418.168 515.715C420.414 515.715 422.396 516.096 424.115 516.857C425.834 517.6 427.27 518.654 428.422 520.021C429.574 521.389 430.443 523.029 431.029 524.943C431.615 526.838 431.908 528.938 431.908 531.242V534.494H407.064V529.162H424.291V528.576C424.252 527.346 424.018 526.223 423.588 525.207C423.158 524.172 422.494 523.352 421.596 522.746C420.697 522.121 419.535 521.809 418.109 521.809C416.957 521.809 415.951 522.062 415.092 522.57C414.252 523.059 413.549 523.762 412.982 524.68C412.436 525.578 412.025 526.652 411.752 527.902C411.479 529.152 411.342 530.539 411.342 532.062V533.234C411.342 534.562 411.518 535.793 411.869 536.926C412.24 538.059 412.777 539.045 413.48 539.885C414.203 540.705 415.062 541.35 416.059 541.818C417.074 542.268 418.227 542.492 419.516 542.492C421.137 542.492 422.602 542.18 423.91 541.555C425.238 540.91 426.391 539.963 427.367 538.713L431.264 542.756C430.6 543.732 429.701 544.67 428.568 545.568C427.455 546.467 426.107 547.199 424.525 547.766C422.943 548.312 421.117 548.586 419.047 548.586ZM486.898 505.344V548H478.812L460.678 518.41V548H452.621V505.344H460.678L478.871 534.963V505.344H486.898ZM508.754 548.586C506.352 548.586 504.193 548.195 502.279 547.414C500.365 546.633 498.734 545.549 497.387 544.162C496.059 542.756 495.033 541.125 494.311 539.27C493.607 537.395 493.256 535.383 493.256 533.234V532.062C493.256 529.621 493.607 527.404 494.311 525.412C495.014 523.4 496.01 521.672 497.299 520.227C498.588 518.781 500.131 517.668 501.928 516.887C503.725 516.105 505.707 515.715 507.875 515.715C510.121 515.715 512.104 516.096 513.822 516.857C515.541 517.6 516.977 518.654 518.129 520.021C519.281 521.389 520.15 523.029 520.736 524.943C521.322 526.838 521.615 528.938 521.615 531.242V534.494H496.771V529.162H513.998V528.576C513.959 527.346 513.725 526.223 513.295 525.207C512.865 524.172 512.201 523.352 511.303 522.746C510.404 522.121 509.242 521.809 507.816 521.809C506.664 521.809 505.658 522.062 504.799 522.57C503.959 523.059 503.256 523.762 502.689 524.68C502.143 525.578 501.732 526.652 501.459 527.902C501.186 529.152 501.049 530.539 501.049 532.062V533.234C501.049 534.562 501.225 535.793 501.576 536.926C501.947 538.059 502.484 539.045 503.188 539.885C503.91 540.705 504.77 541.35 505.766 541.818C506.781 542.268 507.934 542.492 509.223 542.492C510.844 542.492 512.309 542.18 513.617 541.555C514.945 540.91 516.098 539.963 517.074 538.713L520.971 542.756C520.307 543.732 519.408 544.67 518.275 545.568C517.162 546.467 515.814 547.199 514.232 547.766C512.65 548.312 510.824 548.586 508.754 548.586ZM532.865 516.301L538.52 526.379L544.262 516.301H552.67L543.354 531.828L553.051 548H544.643L538.578 537.424L532.484 548H524.076L533.744 531.828L524.486 516.301H532.865ZM572.152 516.301V521.867H553.988V516.301H572.152ZM558.852 508.508H566.615V538.859C566.615 539.797 566.742 540.52 566.996 541.027C567.25 541.535 567.631 541.877 568.139 542.053C568.646 542.229 569.252 542.316 569.955 542.316C570.463 542.316 570.932 542.287 571.361 542.229C571.791 542.17 572.152 542.111 572.445 542.053L572.475 547.854C571.83 548.068 571.098 548.244 570.277 548.381C569.477 548.518 568.568 548.586 567.553 548.586C565.814 548.586 564.291 548.293 562.982 547.707C561.674 547.102 560.658 546.135 559.936 544.807C559.213 543.459 558.852 541.682 558.852 539.475V508.508Z" fill="#0B6E4F"/>
<g filter="url(#filter2_d_23_5835)">
<rect x="816" y="246" width="332" height="106" rx="12" fill="#13AE7E"/>
</g>
<path d="M862.218 304.641V280.875H868.663V304.641C868.663 306.906 868.171 308.852 867.187 310.477C866.202 312.086 864.858 313.32 863.155 314.18C861.452 315.039 859.53 315.469 857.39 315.469C855.187 315.469 853.233 315.102 851.53 314.367C849.827 313.617 848.491 312.477 847.522 310.945C846.569 309.414 846.093 307.469 846.093 305.109H852.562C852.562 306.391 852.757 307.422 853.147 308.203C853.538 308.984 854.093 309.547 854.812 309.891C855.546 310.234 856.405 310.406 857.39 310.406C858.343 310.406 859.179 310.188 859.897 309.75C860.632 309.297 861.202 308.641 861.608 307.781C862.015 306.922 862.218 305.875 862.218 304.641ZM908.454 297.07V298.828C908.454 301.406 908.111 303.727 907.423 305.789C906.736 307.836 905.759 309.578 904.493 311.016C903.228 312.453 901.72 313.555 899.97 314.32C898.22 315.086 896.275 315.469 894.134 315.469C892.025 315.469 890.087 315.086 888.322 314.32C886.572 313.555 885.056 312.453 883.775 311.016C882.493 309.578 881.501 307.836 880.798 305.789C880.095 303.727 879.743 301.406 879.743 298.828V297.07C879.743 294.477 880.095 292.156 880.798 290.109C881.501 288.062 882.486 286.32 883.751 284.883C885.017 283.43 886.525 282.32 888.275 281.555C890.04 280.789 891.978 280.406 894.087 280.406C896.228 280.406 898.173 280.789 899.923 281.555C901.673 282.32 903.181 283.43 904.447 284.883C905.728 286.32 906.712 288.062 907.4 290.109C908.103 292.156 908.454 294.477 908.454 297.07ZM901.939 298.828V297.023C901.939 295.164 901.767 293.531 901.423 292.125C901.079 290.703 900.572 289.508 899.9 288.539C899.228 287.57 898.4 286.844 897.415 286.359C896.431 285.859 895.322 285.609 894.087 285.609C892.837 285.609 891.728 285.859 890.759 286.359C889.806 286.844 888.993 287.57 888.322 288.539C887.65 289.508 887.134 290.703 886.775 292.125C886.431 293.531 886.259 295.164 886.259 297.023V298.828C886.259 300.672 886.431 302.305 886.775 303.727C887.134 305.148 887.65 306.352 888.322 307.336C889.009 308.305 889.837 309.039 890.806 309.539C891.775 310.039 892.884 310.289 894.134 310.289C895.384 310.289 896.493 310.039 897.462 309.539C898.431 309.039 899.243 308.305 899.9 307.336C900.572 306.352 901.079 305.148 901.423 303.727C901.767 302.305 901.939 300.672 901.939 298.828ZM926.542 280.875V315H920.097V280.875H926.542ZM966.685 280.875V315H960.217L945.709 291.328V315H939.263V280.875H945.709L960.263 304.57V280.875H966.685ZM1024.14 280.875V315H1017.67L1003.17 291.328V315H996.721V280.875H1003.17L1017.72 304.57V280.875H1024.14ZM1064.1 297.07V298.828C1064.1 301.406 1063.75 303.727 1063.07 305.789C1062.38 307.836 1061.4 309.578 1060.14 311.016C1058.87 312.453 1057.36 313.555 1055.61 314.32C1053.86 315.086 1051.92 315.469 1049.78 315.469C1047.67 315.469 1045.73 315.086 1043.97 314.32C1042.22 313.555 1040.7 312.453 1039.42 311.016C1038.14 309.578 1037.14 307.836 1036.44 305.789C1035.74 303.727 1035.39 301.406 1035.39 298.828V297.07C1035.39 294.477 1035.74 292.156 1036.44 290.109C1037.14 288.062 1038.13 286.32 1039.39 284.883C1040.66 283.43 1042.17 282.32 1043.92 281.555C1045.68 280.789 1047.62 280.406 1049.73 280.406C1051.87 280.406 1053.82 280.789 1055.57 281.555C1057.32 282.32 1058.82 283.43 1060.09 284.883C1061.37 286.32 1062.36 288.062 1063.04 290.109C1063.75 292.156 1064.1 294.477 1064.1 297.07ZM1057.58 298.828V297.023C1057.58 295.164 1057.41 293.531 1057.07 292.125C1056.72 290.703 1056.22 289.508 1055.54 288.539C1054.87 287.57 1054.04 286.844 1053.06 286.359C1052.07 285.859 1050.97 285.609 1049.73 285.609C1048.48 285.609 1047.37 285.859 1046.4 286.359C1045.45 286.844 1044.64 287.57 1043.97 288.539C1043.29 289.508 1042.78 290.703 1042.42 292.125C1042.07 293.531 1041.9 295.164 1041.9 297.023V298.828C1041.9 300.672 1042.07 302.305 1042.42 303.727C1042.78 305.148 1043.29 306.352 1043.97 307.336C1044.65 308.305 1045.48 309.039 1046.45 309.539C1047.42 310.039 1048.53 310.289 1049.78 310.289C1051.03 310.289 1052.14 310.039 1053.11 309.539C1054.07 309.039 1054.89 308.305 1055.54 307.336C1056.22 306.352 1056.72 305.148 1057.07 303.727C1057.41 302.305 1057.58 300.672 1057.58 298.828ZM1083.71 308.461L1090.51 280.875H1094.19L1094.42 286.688L1087.15 315H1083.26L1083.71 308.461ZM1079.42 280.875L1085 308.367V315H1080.76L1073.02 280.875H1079.42ZM1101.48 308.25L1106.96 280.875H1113.38L1105.65 315H1101.4L1101.48 308.25ZM1095.94 280.875L1102.74 308.555L1103.14 315H1099.25L1092.01 286.664L1092.29 280.875H1095.94Z" fill="white"/>
<defs>
<filter id="filter0_d_23_5835" x="0" y="0" width="1346" height="648" filterUnits="userSpaceOnUse" color-interpolation-filters="sRGB">
<feFlood flood-opacity="0" result="BackgroundImageFix"/>
<feColorMatrix in="SourceAlpha" type="matrix" values="0 0 0 0 0 0 0 0 0 0 0 0 0 0 0 0 0 0 127 0" result="hardAlpha"/>
<feOffset dy="4"/>
<feGaussianBlur stdDeviation="8"/>
<feComposite in2="hardAlpha" operator="out"/>
<feColorMatrix type="matrix" values="0 0 0 0 0 0 0 0 0 0 0 0 0 0 0 0 0 0 0.25 0"/>
<feBlend mode="normal" in2="BackgroundImageFix" result="effect1_dropShadow_23_5835"/>
<feBlend mode="normal" in="SourceGraphic" in2="effect1_dropShadow_23_5835" result="shape"/>
</filter>
<filter id="filter1_d_23_5835" x="808" y="242" width="348" height="122" filterUnits="userSpaceOnUse" color-interpolation-filters="sRGB">
<feFlood flood-opacity="0" result="BackgroundImageFix"/>
<feColorMatrix in="SourceAlpha" type="matrix" values="0 0 0 0 0 0 0 0 0 0 0 0 0 0 0 0 0 0 127 0" result="hardAlpha"/>
<feOffset dy="4"/>
<feGaussianBlur stdDeviation="4"/>
<feComposite in2="hardAlpha" operator="out"/>
<feColorMatrix type="matrix" values="0 0 0 0 0 0 0 0 0 0 0 0 0 0 0 0 0 0 0.25 0"/>
<feBlend mode="normal" in2="BackgroundImageFix" result="effect1_dropShadow_23_5835"/>
<feBlend mode="normal" in="SourceGraphic" in2="effect1_dropShadow_23_5835" result="shape"/>
</filter>
<filter id="filter2_d_23_5835" x="800" y="234" width="364" height="138" filterUnits="userSpaceOnUse" color-interpolation-filters="sRGB">
<feFlood flood-opacity="0" result="BackgroundImageFix"/>
<feColorMatrix in="SourceAlpha" type="matrix" values="0 0 0 0 0 0 0 0 0 0 0 0 0 0 0 0 0 0 127 0" result="hardAlpha"/>
<feOffset dy="4"/>
<feGaussianBlur stdDeviation="8"/>
<feComposite in2="hardAlpha" operator="out"/>
<feColorMatrix type="matrix" values="0 0 0 0 0 0 0 0 0 0 0 0 0 0 0 0 0 0 0.25 0"/>
<feBlend mode="normal" in2="BackgroundImageFix" result="effect1_dropShadow_23_5835"/>
<feBlend mode="normal" in="SourceGraphic" in2="effect1_dropShadow_23_5835" result="shape"/>
</filter>
</defs>
</svg>
