<svg width="1346" height="680" viewBox="0 0 1346 680" fill="none" xmlns="http://www.w3.org/2000/svg">
<g filter="url(#filter0_d_23_5835)">
<path d="M16 52C16 29.9086 33.9086 12 56 12H1290C1312.09 12 1330 29.9086 1330 52V619.891C1330 641.982 1312.09 659.891 1290 659.891H56C33.9086 659.891 16 641.982 16 619.891V52Z" fill="white"/>
</g>
<g filter="url(#filter1_d_23_5835)">
<ellipse cx="249" cy="246.989" rx="135" ry="141.989" fill="white"/>
</g>
<g clip-path="url(#clip0_23_5835)">
<path d="M149 240C149 184.772 193.772 140 249 140C304.228 140 349 184.772 349 240V250.354C349 305.583 304.228 350.354 249 350.354C193.772 350.354 149 305.583 149 250.354V240Z" fill="url(#paint0_linear_23_5835)"/>
<path d="M297.333 251.838C302.741 232.948 306.075 200.652 283.333 178.565C265.953 161.685 219 159.984 202.667 196.796C199.94 202.941 203.667 212.572 211 212.222C213.882 212.081 215.667 221.688 217.333 227.648C215 251.838 194.212 252.285 183.667 270.77C170.667 293.559 186.667 327.215 225 327.215C263.333 327.215 285.308 293.843 297.333 251.838Z" fill="url(#paint1_linear_23_5835)"/>
<path d="M310.333 307.179C315.222 317.083 317.667 353.159 317.667 353.159H180.333C180.333 353.159 182.778 317.083 187.667 307.179C195 292.324 249 273.224 249 273.224C249 273.224 303 292.324 310.333 307.179Z" fill="url(#paint2_linear_23_5835)"/>
<path d="M265 281.638C265 281.638 256.489 286.547 248.66 286.547C240.831 286.547 233 281.638 233 281.638V266.212C231.316 266.492 229.609 266.599 227.905 266.531C211.913 266.529 205.883 242.029 209 212.222C211 212.222 215.667 212.222 222.333 202.405C220.667 216.078 240 213.975 247.333 203.106C243.667 216.078 253.333 224.843 261.667 219.584C278.007 209.272 281.681 240.708 265 240.97V281.638Z" fill="url(#paint3_linear_23_5835)"/>
<g style="mix-blend-mode:multiply" opacity="0.782">
<path d="M233 266.213C241.27 264.611 249.183 261.401 256.333 256.747C256.333 256.747 248 271.822 233 271.822V266.213Z" fill="#FFD7B8"/>
</g>
<path d="M249.022 285.828C253.84 285.599 265 283.117 265 277.754V273.224C266.223 273.224 269.723 276.262 271.524 278.834C278.641 289.001 270.747 298.116 264.308 298.116C256.184 298.116 250.8 290.977 249 287.542C247.2 290.978 241.816 298.116 233.692 298.116C227.253 298.116 219.359 289.001 226.476 278.834C228.277 276.262 231.777 273.224 233 273.224V277.754C233 283.117 244.461 285.599 249.022 285.828Z" fill="white"/>
<path d="M246.333 333.526C246.333 332.971 246.49 332.429 246.783 331.968C247.076 331.506 247.492 331.147 247.979 330.935C248.467 330.722 249.003 330.667 249.52 330.775C250.037 330.883 250.513 331.15 250.886 331.543C251.259 331.935 251.513 332.435 251.615 332.979C251.718 333.523 251.665 334.087 251.464 334.599C251.262 335.112 250.92 335.55 250.481 335.858C250.043 336.166 249.527 336.331 249 336.331C248.293 336.331 247.614 336.035 247.114 335.509C246.614 334.983 246.333 334.27 246.333 333.526ZM246.333 319.502C246.333 318.947 246.49 318.405 246.783 317.944C247.076 317.483 247.492 317.123 247.979 316.911C248.467 316.699 249.003 316.643 249.52 316.751C250.037 316.86 250.513 317.127 250.886 317.519C251.259 317.911 251.513 318.411 251.615 318.955C251.718 319.499 251.665 320.063 251.464 320.575C251.262 321.088 250.92 321.526 250.481 321.834C250.043 322.142 249.527 322.307 249 322.307C248.293 322.307 247.614 322.011 247.114 321.485C246.614 320.959 246.333 320.246 246.333 319.502ZM246.333 305.479C246.333 304.924 246.49 304.382 246.783 303.92C247.076 303.459 247.492 303.1 247.979 302.887C248.467 302.675 249.003 302.62 249.52 302.728C250.037 302.836 250.513 303.103 250.886 303.495C251.259 303.888 251.513 304.387 251.615 304.931C251.718 305.475 251.665 306.039 251.464 306.552C251.262 307.064 250.92 307.502 250.481 307.811C250.043 308.119 249.527 308.283 249 308.283C248.293 308.283 247.614 307.988 247.114 307.462C246.614 306.936 246.333 306.222 246.333 305.479Z" fill="url(#paint4_linear_23_5835)"/>
</g>
<g filter="url(#filter2_d_23_5835)">
<ellipse cx="609" cy="246.989" rx="135" ry="141.989" fill="white"/>
</g>
<g clip-path="url(#clip1_23_5835)">
<path d="M509 240C509 184.772 553.772 140 609 140C664.228 140 709 184.772 709 240V250.354C709 305.583 664.228 350.354 609 350.354C553.772 350.354 509 305.583 509 250.354V240Z" fill="url(#paint5_linear_23_5835)"/>
<path d="M670.333 304.777C675.222 314.594 677.667 350.354 677.667 350.354H540.333C540.333 350.354 542.778 314.594 547.667 304.777C555 290.052 609 271.121 609 271.121C609 271.121 663 290.052 670.333 304.777Z" fill="url(#paint6_linear_23_5835)"/>
<path d="M606.333 333.526C606.333 332.971 606.49 332.429 606.783 331.968C607.076 331.506 607.492 331.147 607.979 330.935C608.467 330.722 609.003 330.667 609.52 330.775C610.037 330.883 610.513 331.15 610.886 331.543C611.259 331.935 611.513 332.435 611.615 332.979C611.718 333.523 611.665 334.087 611.464 334.599C611.262 335.112 610.92 335.55 610.481 335.858C610.043 336.166 609.527 336.33 609 336.33C608.293 336.33 607.614 336.035 607.114 335.509C606.614 334.983 606.333 334.27 606.333 333.526ZM606.333 319.502C606.333 318.947 606.49 318.405 606.783 317.944C607.076 317.483 607.492 317.123 607.979 316.911C608.467 316.699 609.003 316.643 609.52 316.751C610.037 316.86 610.513 317.127 610.886 317.519C611.259 317.911 611.513 318.411 611.615 318.955C611.718 319.499 611.665 320.063 611.464 320.575C611.262 321.088 610.92 321.526 610.481 321.834C610.043 322.142 609.527 322.307 609 322.307C608.293 322.307 607.614 322.011 607.114 321.485C606.614 320.959 606.333 320.246 606.333 319.502ZM606.333 305.479C606.333 304.924 606.49 304.382 606.783 303.92C607.076 303.459 607.492 303.1 607.979 302.887C608.467 302.675 609.003 302.62 609.52 302.728C610.037 302.836 610.513 303.103 610.886 303.495C611.259 303.888 611.513 304.387 611.615 304.931C611.718 305.475 611.665 306.039 611.464 306.552C611.262 307.064 610.92 307.502 610.481 307.811C610.043 308.119 609.527 308.283 609 308.283C608.293 308.283 607.614 307.988 607.114 307.462C606.614 306.936 606.333 306.222 606.333 305.479Z" fill="white"/>
<path d="M665.981 262.995L557.676 249.229C552.336 219.415 558.67 200.631 576.676 192.877C585 164.191 617.398 166.524 626.581 168.863C657.832 176.822 670.965 208.199 665.981 262.995Z" fill="url(#paint7_linear_23_5835)"/>
<path d="M593 279.535V237.464C576.319 237.202 579.573 206.8 596.333 216.078C599.333 217.481 607 213.624 604.333 204.158C622.333 218.182 647.416 193.57 649 208.716C652.117 238.524 646.086 263.024 630.095 263.025C628.391 263.093 626.684 262.987 625 262.707V279.535C619.78 282.807 614.56 284.443 609.34 284.443C604.12 284.443 598.673 282.807 593 279.535Z" fill="#FFDBC9"/>
<path d="M625 262.707V268.316C615 268.316 607.222 263.291 601.667 253.241C608.333 257.915 616.111 261.071 625 262.707Z" fill="#FFBC9E"/>
<path d="M608.978 283.724C613.539 283.495 625 281.013 625 275.65V271.121C626.223 271.121 629.723 274.158 631.524 276.73C638.641 286.897 630.747 296.013 624.308 296.013C616.184 296.013 610.8 288.873 609 285.439C607.2 288.875 601.816 296.013 593.692 296.013C587.253 296.013 579.359 286.897 586.476 276.73C588.277 274.158 591.777 271.121 593 271.121V275.65C593 281.013 604.16 283.495 608.978 283.724Z" fill="white"/>
</g>
<rect x="845" y="12" width="434" height="648" fill="#0B6E4F"/>
<g filter="url(#filter3_d_23_5835)">
<path d="M892.129 222.344V265H884.072V222.344H892.129ZM909.326 240.771V247.129H890.02V240.771H909.326ZM911.582 222.344V228.701H890.02V222.344H911.582ZM924.678 233.301V265H916.914V233.301H924.678ZM916.387 225.01C916.387 223.857 916.777 222.9 917.559 222.139C918.359 221.377 919.434 220.996 920.781 220.996C922.129 220.996 923.193 221.377 923.975 222.139C924.775 222.9 925.176 223.857 925.176 225.01C925.176 226.143 924.775 227.09 923.975 227.852C923.193 228.613 922.129 228.994 920.781 228.994C919.434 228.994 918.359 228.613 917.559 227.852C916.777 227.09 916.387 226.143 916.387 225.01ZM939.648 240.068V265H931.914V233.301H939.18L939.648 240.068ZM938.418 248.008H936.133C936.152 245.703 936.465 243.613 937.07 241.738C937.676 239.863 938.525 238.252 939.619 236.904C940.732 235.557 942.051 234.521 943.574 233.799C945.098 233.076 946.797 232.715 948.672 232.715C950.195 232.715 951.572 232.93 952.803 233.359C954.033 233.789 955.088 234.473 955.967 235.41C956.865 236.348 957.549 237.578 958.018 239.102C958.506 240.605 958.75 242.461 958.75 244.668V265H950.957V244.609C950.957 243.164 950.742 242.021 950.312 241.182C949.902 240.342 949.297 239.746 948.496 239.395C947.715 239.043 946.748 238.867 945.596 238.867C944.404 238.867 943.359 239.111 942.461 239.6C941.582 240.068 940.84 240.723 940.234 241.562C939.648 242.402 939.199 243.369 938.887 244.463C938.574 245.557 938.418 246.738 938.418 248.008ZM984.59 258.262V220H992.383V265H985.352L984.59 258.262ZM964.229 249.531V248.916C964.229 246.494 964.502 244.297 965.049 242.324C965.615 240.332 966.436 238.623 967.51 237.197C968.584 235.771 969.883 234.668 971.406 233.887C972.949 233.105 974.697 232.715 976.65 232.715C978.545 232.715 980.195 233.096 981.602 233.857C983.027 234.619 984.238 235.703 985.234 237.109C986.25 238.516 987.061 240.186 987.666 242.119C988.271 244.033 988.711 246.143 988.984 248.447V250.117C988.711 252.363 988.271 254.424 987.666 256.299C987.061 258.174 986.25 259.814 985.234 261.221C984.238 262.607 983.027 263.682 981.602 264.443C980.176 265.205 978.506 265.586 976.592 265.586C974.658 265.586 972.92 265.186 971.377 264.385C969.854 263.584 968.555 262.461 967.48 261.016C966.426 259.57 965.615 257.871 965.049 255.918C964.502 253.965 964.229 251.836 964.229 249.531ZM971.992 248.916V249.531C971.992 250.898 972.109 252.178 972.344 253.369C972.578 254.561 972.959 255.615 973.486 256.533C974.014 257.432 974.688 258.135 975.508 258.643C976.348 259.15 977.363 259.404 978.555 259.404C980.078 259.404 981.328 259.072 982.305 258.408C983.301 257.725 984.072 256.797 984.619 255.625C985.166 254.434 985.518 253.096 985.674 251.611V247.012C985.596 245.84 985.391 244.756 985.059 243.76C984.746 242.764 984.297 241.904 983.711 241.182C983.145 240.459 982.441 239.893 981.602 239.482C980.762 239.072 979.766 238.867 978.613 238.867C977.422 238.867 976.406 239.131 975.566 239.658C974.727 240.166 974.043 240.879 973.516 241.797C972.988 242.715 972.598 243.779 972.344 244.99C972.109 246.201 971.992 247.51 971.992 248.916ZM1007.59 233.301V265H999.824V233.301H1007.59ZM999.297 225.01C999.297 223.857 999.688 222.9 1000.47 222.139C1001.27 221.377 1002.34 220.996 1003.69 220.996C1005.04 220.996 1006.1 221.377 1006.88 222.139C1007.69 222.9 1008.09 223.857 1008.09 225.01C1008.09 226.143 1007.69 227.09 1006.88 227.852C1006.1 228.613 1005.04 228.994 1003.69 228.994C1002.34 228.994 1001.27 228.613 1000.47 227.852C999.688 227.09 999.297 226.143 999.297 225.01ZM1022.56 240.068V265H1014.82V233.301H1022.09L1022.56 240.068ZM1021.33 248.008H1019.04C1019.06 245.703 1019.38 243.613 1019.98 241.738C1020.59 239.863 1021.44 238.252 1022.53 236.904C1023.64 235.557 1024.96 234.521 1026.48 233.799C1028.01 233.076 1029.71 232.715 1031.58 232.715C1033.11 232.715 1034.48 232.93 1035.71 233.359C1036.94 233.789 1038 234.473 1038.88 235.41C1039.78 236.348 1040.46 237.578 1040.93 239.102C1041.42 240.605 1041.66 242.461 1041.66 244.668V265H1033.87V244.609C1033.87 243.164 1033.65 242.021 1033.22 241.182C1032.81 240.342 1032.21 239.746 1031.41 239.395C1030.62 239.043 1029.66 238.867 1028.51 238.867C1027.31 238.867 1026.27 239.111 1025.37 239.6C1024.49 240.068 1023.75 240.723 1023.14 241.562C1022.56 242.402 1022.11 243.369 1021.8 244.463C1021.48 245.557 1021.33 246.738 1021.33 248.008ZM1068.64 233.301H1075.67V264.033C1075.67 266.904 1075.05 269.336 1073.8 271.328C1072.57 273.34 1070.84 274.863 1068.61 275.898C1066.39 276.953 1063.8 277.48 1060.85 277.48C1059.58 277.48 1058.2 277.305 1056.72 276.953C1055.25 276.602 1053.84 276.045 1052.47 275.283C1051.12 274.541 1050 273.574 1049.1 272.383L1052.59 267.812C1053.64 269.043 1054.83 269.971 1056.16 270.596C1057.49 271.24 1058.93 271.562 1060.47 271.562C1062.03 271.562 1063.36 271.27 1064.45 270.684C1065.57 270.117 1066.42 269.277 1067 268.164C1067.61 267.07 1067.91 265.723 1067.91 264.121V240.537L1068.64 233.301ZM1047.23 249.531V248.916C1047.23 246.494 1047.52 244.297 1048.11 242.324C1048.69 240.332 1049.53 238.623 1050.62 237.197C1051.74 235.771 1053.08 234.668 1054.64 233.887C1056.22 233.105 1058 232.715 1059.97 232.715C1062.06 232.715 1063.82 233.096 1065.24 233.857C1066.69 234.619 1067.88 235.703 1068.82 237.109C1069.78 238.516 1070.52 240.186 1071.04 242.119C1071.59 244.033 1072.01 246.143 1072.3 248.447V250.117C1072.03 252.363 1071.59 254.424 1070.99 256.299C1070.4 258.174 1069.62 259.814 1068.64 261.221C1067.67 262.607 1066.46 263.682 1065.01 264.443C1063.56 265.205 1061.87 265.586 1059.91 265.586C1057.96 265.586 1056.2 265.186 1054.64 264.385C1053.08 263.584 1051.74 262.461 1050.62 261.016C1049.53 259.57 1048.69 257.871 1048.11 255.918C1047.52 253.965 1047.23 251.836 1047.23 249.531ZM1054.96 248.916V249.531C1054.96 250.898 1055.1 252.178 1055.37 253.369C1055.64 254.561 1056.06 255.615 1056.63 256.533C1057.2 257.432 1057.91 258.135 1058.77 258.643C1059.63 259.15 1060.65 259.404 1061.85 259.404C1063.45 259.404 1064.76 259.072 1065.77 258.408C1066.81 257.725 1067.59 256.797 1068.12 255.625C1068.66 254.434 1069.01 253.096 1069.17 251.611V247.012C1069.07 245.84 1068.86 244.756 1068.53 243.76C1068.21 242.764 1067.77 241.904 1067.21 241.182C1066.64 240.459 1065.92 239.893 1065.04 239.482C1064.16 239.072 1063.12 238.867 1061.9 238.867C1060.73 238.867 1059.71 239.131 1058.83 239.658C1057.95 240.166 1057.23 240.879 1056.66 241.797C1056.09 242.715 1055.66 243.779 1055.37 244.99C1055.1 246.201 1054.96 247.51 1054.96 248.916ZM891.074 290V335H883.311V290H891.074ZM889.844 318.008H887.559C887.559 315.801 887.852 313.77 888.438 311.914C889.023 310.059 889.854 308.447 890.928 307.08C892.002 305.693 893.281 304.619 894.766 303.857C896.27 303.096 897.93 302.715 899.746 302.715C901.309 302.715 902.725 302.939 903.994 303.389C905.283 303.818 906.387 304.512 907.305 305.469C908.223 306.426 908.926 307.676 909.414 309.219C909.922 310.742 910.176 312.598 910.176 314.785V335H902.383V314.727C902.383 313.262 902.168 312.109 901.738 311.27C901.309 310.41 900.693 309.795 899.893 309.424C899.111 309.053 898.145 308.867 896.992 308.867C895.742 308.867 894.668 309.111 893.77 309.6C892.871 310.068 892.129 310.723 891.543 311.562C890.977 312.402 890.547 313.369 890.254 314.463C889.98 315.557 889.844 316.738 889.844 318.008ZM934.463 328.262V313.643C934.463 312.568 934.277 311.641 933.906 310.859C933.535 310.078 932.969 309.473 932.207 309.043C931.445 308.613 930.479 308.398 929.307 308.398C928.271 308.398 927.363 308.574 926.582 308.926C925.82 309.277 925.234 309.775 924.824 310.42C924.414 311.045 924.209 311.768 924.209 312.588H916.445C916.445 311.279 916.758 310.039 917.383 308.867C918.008 307.676 918.896 306.621 920.049 305.703C921.221 304.766 922.617 304.033 924.238 303.506C925.879 302.979 927.715 302.715 929.746 302.715C932.148 302.715 934.287 303.125 936.162 303.945C938.057 304.746 939.541 305.957 940.615 307.578C941.709 309.199 942.256 311.24 942.256 313.701V327.529C942.256 329.111 942.354 330.469 942.549 331.602C942.764 332.715 943.076 333.682 943.486 334.502V335H935.605C935.234 334.199 934.951 333.184 934.756 331.953C934.561 330.703 934.463 329.473 934.463 328.262ZM935.547 315.693L935.605 320.293H930.713C929.502 320.293 928.438 320.42 927.52 320.674C926.602 320.908 925.85 321.26 925.264 321.729C924.678 322.178 924.238 322.725 923.945 323.369C923.652 323.994 923.506 324.707 923.506 325.508C923.506 326.289 923.682 326.992 924.033 327.617C924.404 328.242 924.932 328.74 925.615 329.111C926.318 329.463 927.139 329.639 928.076 329.639C929.443 329.639 930.635 329.365 931.65 328.818C932.666 328.252 933.457 327.568 934.023 326.768C934.59 325.967 934.893 325.205 934.932 324.482L937.158 327.822C936.885 328.623 936.475 329.473 935.928 330.371C935.381 331.27 934.678 332.109 933.818 332.891C932.959 333.672 931.924 334.316 930.713 334.824C929.502 335.332 928.096 335.586 926.494 335.586C924.443 335.586 922.607 335.176 920.986 334.355C919.365 333.535 918.086 332.412 917.148 330.986C916.211 329.561 915.742 327.939 915.742 326.123C915.742 324.443 916.055 322.959 916.68 321.67C917.305 320.381 918.232 319.297 919.463 318.418C920.693 317.52 922.217 316.846 924.033 316.396C925.869 315.928 927.969 315.693 930.332 315.693H935.547ZM956.963 309.395V347.188H949.199V303.301H956.377L956.963 309.395ZM977.324 318.828V319.443C977.324 321.748 977.051 323.887 976.504 325.859C975.977 327.812 975.195 329.521 974.16 330.986C973.125 332.432 971.836 333.564 970.293 334.385C968.77 335.186 967.012 335.586 965.02 335.586C963.066 335.586 961.367 335.215 959.922 334.473C958.477 333.711 957.256 332.637 956.26 331.25C955.264 329.863 954.463 328.252 953.857 326.416C953.271 324.561 952.832 322.539 952.539 320.352V318.389C952.832 316.064 953.271 313.955 953.857 312.061C954.463 310.146 955.264 308.496 956.26 307.109C957.256 305.703 958.467 304.619 959.893 303.857C961.338 303.096 963.027 302.715 964.961 302.715C966.973 302.715 968.74 303.096 970.264 303.857C971.807 304.619 973.105 305.713 974.16 307.139C975.215 308.564 976.006 310.264 976.533 312.236C977.061 314.209 977.324 316.406 977.324 318.828ZM969.561 319.443V318.828C969.561 317.422 969.434 316.123 969.18 314.932C968.926 313.721 968.535 312.666 968.008 311.768C967.48 310.85 966.797 310.137 965.957 309.629C965.117 309.121 964.102 308.867 962.91 308.867C961.719 308.867 960.693 309.062 959.834 309.453C958.975 309.844 958.271 310.4 957.725 311.123C957.178 311.846 956.748 312.705 956.436 313.701C956.143 314.678 955.947 315.762 955.85 316.953V321.816C956.025 323.262 956.367 324.561 956.875 325.713C957.383 326.865 958.125 327.783 959.102 328.467C960.098 329.15 961.387 329.492 962.969 329.492C964.16 329.492 965.176 329.229 966.016 328.701C966.855 328.174 967.539 327.451 968.066 326.533C968.594 325.596 968.975 324.521 969.209 323.311C969.443 322.1 969.561 320.811 969.561 319.443ZM990.713 309.395V347.188H982.949V303.301H990.127L990.713 309.395ZM1011.07 318.828V319.443C1011.07 321.748 1010.8 323.887 1010.25 325.859C1009.73 327.812 1008.95 329.521 1007.91 330.986C1006.88 332.432 1005.59 333.564 1004.04 334.385C1002.52 335.186 1000.76 335.586 998.77 335.586C996.816 335.586 995.117 335.215 993.672 334.473C992.227 333.711 991.006 332.637 990.01 331.25C989.014 329.863 988.213 328.252 987.607 326.416C987.021 324.561 986.582 322.539 986.289 320.352V318.389C986.582 316.064 987.021 313.955 987.607 312.061C988.213 310.146 989.014 308.496 990.01 307.109C991.006 305.703 992.217 304.619 993.643 303.857C995.088 303.096 996.777 302.715 998.711 302.715C1000.72 302.715 1002.49 303.096 1004.01 303.857C1005.56 304.619 1006.86 305.713 1007.91 307.139C1008.96 308.564 1009.76 310.264 1010.28 312.236C1010.81 314.209 1011.07 316.406 1011.07 318.828ZM1003.31 319.443V318.828C1003.31 317.422 1003.18 316.123 1002.93 314.932C1002.68 313.721 1002.29 312.666 1001.76 311.768C1001.23 310.85 1000.55 310.137 999.707 309.629C998.867 309.121 997.852 308.867 996.66 308.867C995.469 308.867 994.443 309.062 993.584 309.453C992.725 309.844 992.021 310.4 991.475 311.123C990.928 311.846 990.498 312.705 990.186 313.701C989.893 314.678 989.697 315.762 989.6 316.953V321.816C989.775 323.262 990.117 324.561 990.625 325.713C991.133 326.865 991.875 327.783 992.852 328.467C993.848 329.15 995.137 329.492 996.719 329.492C997.91 329.492 998.926 329.229 999.766 328.701C1000.61 328.174 1001.29 327.451 1001.82 326.533C1002.34 325.596 1002.72 324.521 1002.96 323.311C1003.19 322.1 1003.31 320.811 1003.31 319.443ZM1024.93 303.301V335H1017.17V303.301H1024.93ZM1016.64 295.01C1016.64 293.857 1017.03 292.9 1017.81 292.139C1018.61 291.377 1019.69 290.996 1021.04 290.996C1022.38 290.996 1023.45 291.377 1024.23 292.139C1025.03 292.9 1025.43 293.857 1025.43 295.01C1025.43 296.143 1025.03 297.09 1024.23 297.852C1023.45 298.613 1022.38 298.994 1021.04 298.994C1019.69 298.994 1018.61 298.613 1017.81 297.852C1017.03 297.09 1016.64 296.143 1016.64 295.01ZM1039.9 310.068V335H1032.17V303.301H1039.43L1039.9 310.068ZM1038.67 318.008H1036.39C1036.41 315.703 1036.72 313.613 1037.32 311.738C1037.93 309.863 1038.78 308.252 1039.87 306.904C1040.99 305.557 1042.3 304.521 1043.83 303.799C1045.35 303.076 1047.05 302.715 1048.93 302.715C1050.45 302.715 1051.83 302.93 1053.06 303.359C1054.29 303.789 1055.34 304.473 1056.22 305.41C1057.12 306.348 1057.8 307.578 1058.27 309.102C1058.76 310.605 1059 312.461 1059 314.668V335H1051.21V314.609C1051.21 313.164 1051 312.021 1050.57 311.182C1050.16 310.342 1049.55 309.746 1048.75 309.395C1047.97 309.043 1047 308.867 1045.85 308.867C1044.66 308.867 1043.61 309.111 1042.71 309.6C1041.84 310.068 1041.09 310.723 1040.49 311.562C1039.9 312.402 1039.45 313.369 1039.14 314.463C1038.83 315.557 1038.67 316.738 1038.67 318.008ZM1080.07 335.586C1077.67 335.586 1075.51 335.195 1073.59 334.414C1071.68 333.633 1070.05 332.549 1068.7 331.162C1067.37 329.756 1066.35 328.125 1065.62 326.27C1064.92 324.395 1064.57 322.383 1064.57 320.234V319.062C1064.57 316.621 1064.92 314.404 1065.62 312.412C1066.33 310.4 1067.32 308.672 1068.61 307.227C1069.9 305.781 1071.45 304.668 1073.24 303.887C1075.04 303.105 1077.02 302.715 1079.19 302.715C1081.44 302.715 1083.42 303.096 1085.14 303.857C1086.86 304.6 1088.29 305.654 1089.44 307.021C1090.6 308.389 1091.46 310.029 1092.05 311.943C1092.64 313.838 1092.93 315.938 1092.93 318.242V321.494H1068.09V316.162H1085.31V315.576C1085.27 314.346 1085.04 313.223 1084.61 312.207C1084.18 311.172 1083.52 310.352 1082.62 309.746C1081.72 309.121 1080.56 308.809 1079.13 308.809C1077.98 308.809 1076.97 309.062 1076.11 309.57C1075.27 310.059 1074.57 310.762 1074 311.68C1073.46 312.578 1073.05 313.652 1072.77 314.902C1072.5 316.152 1072.36 317.539 1072.36 319.062V320.234C1072.36 321.562 1072.54 322.793 1072.89 323.926C1073.26 325.059 1073.8 326.045 1074.5 326.885C1075.22 327.705 1076.08 328.35 1077.08 328.818C1078.1 329.268 1079.25 329.492 1080.54 329.492C1082.16 329.492 1083.62 329.18 1084.93 328.555C1086.26 327.91 1087.41 326.963 1088.39 325.713L1092.29 329.756C1091.62 330.732 1090.72 331.67 1089.59 332.568C1088.48 333.467 1087.13 334.199 1085.55 334.766C1083.96 335.312 1082.14 335.586 1080.07 335.586ZM1115.55 326.328C1115.55 325.664 1115.37 325.068 1115.02 324.541C1114.67 324.014 1114 323.535 1113.03 323.105C1112.07 322.656 1110.66 322.236 1108.81 321.846C1107.17 321.494 1105.65 321.055 1104.27 320.527C1102.88 320 1101.69 319.365 1100.69 318.623C1099.7 317.861 1098.92 316.973 1098.35 315.957C1097.8 314.922 1097.53 313.73 1097.53 312.383C1097.53 311.074 1097.81 309.844 1098.38 308.691C1098.95 307.52 1099.77 306.494 1100.84 305.615C1101.91 304.717 1103.22 304.014 1104.77 303.506C1106.31 302.979 1108.05 302.715 1109.98 302.715C1112.68 302.715 1114.99 303.154 1116.92 304.033C1118.88 304.912 1120.37 306.123 1121.41 307.666C1122.44 309.189 1122.96 310.908 1122.96 312.822H1115.22C1115.22 311.982 1115.03 311.221 1114.64 310.537C1114.27 309.854 1113.69 309.307 1112.91 308.896C1112.13 308.467 1111.14 308.252 1109.95 308.252C1108.88 308.252 1107.97 308.428 1107.23 308.779C1106.5 309.131 1105.96 309.59 1105.59 310.156C1105.21 310.723 1105.03 311.348 1105.03 312.031C1105.03 312.539 1105.13 312.998 1105.32 313.408C1105.54 313.799 1105.88 314.16 1106.35 314.492C1106.82 314.824 1107.45 315.127 1108.25 315.4C1109.07 315.674 1110.08 315.938 1111.27 316.191C1113.63 316.66 1115.69 317.285 1117.45 318.066C1119.23 318.828 1120.62 319.844 1121.61 321.113C1122.61 322.383 1123.11 324.004 1123.11 325.977C1123.11 327.383 1122.8 328.672 1122.2 329.844C1121.59 330.996 1120.71 332.002 1119.56 332.861C1118.41 333.721 1117.03 334.395 1115.43 334.883C1113.83 335.352 1112.02 335.586 1110.01 335.586C1107.1 335.586 1104.64 335.068 1102.63 334.033C1100.62 332.979 1099.09 331.65 1098.06 330.049C1097.02 328.428 1096.5 326.748 1096.5 325.01H1103.92C1103.97 326.24 1104.31 327.227 1104.91 327.969C1105.52 328.711 1106.28 329.248 1107.2 329.58C1108.13 329.893 1109.12 330.049 1110.16 330.049C1111.33 330.049 1112.31 329.893 1113.12 329.58C1113.92 329.248 1114.52 328.809 1114.93 328.262C1115.34 327.695 1115.55 327.051 1115.55 326.328ZM1146.43 326.328C1146.43 325.664 1146.25 325.068 1145.9 324.541C1145.55 324.014 1144.88 323.535 1143.91 323.105C1142.95 322.656 1141.54 322.236 1139.69 321.846C1138.05 321.494 1136.53 321.055 1135.15 320.527C1133.76 320 1132.57 319.365 1131.57 318.623C1130.58 317.861 1129.79 316.973 1129.23 315.957C1128.68 314.922 1128.41 313.73 1128.41 312.383C1128.41 311.074 1128.69 309.844 1129.26 308.691C1129.82 307.52 1130.64 306.494 1131.72 305.615C1132.79 304.717 1134.1 304.014 1135.64 303.506C1137.19 302.979 1138.93 302.715 1140.86 302.715C1143.55 302.715 1145.87 303.154 1147.8 304.033C1149.76 304.912 1151.25 306.123 1152.29 307.666C1153.32 309.189 1153.84 310.908 1153.84 312.822H1146.1C1146.1 311.982 1145.91 311.221 1145.52 310.537C1145.15 309.854 1144.57 309.307 1143.79 308.896C1143.01 308.467 1142.02 308.252 1140.83 308.252C1139.76 308.252 1138.85 308.428 1138.11 308.779C1137.38 309.131 1136.84 309.59 1136.46 310.156C1136.09 310.723 1135.91 311.348 1135.91 312.031C1135.91 312.539 1136.01 312.998 1136.2 313.408C1136.42 313.799 1136.76 314.16 1137.23 314.492C1137.7 314.824 1138.33 315.127 1139.13 315.4C1139.95 315.674 1140.96 315.938 1142.15 316.191C1144.51 316.66 1146.57 317.285 1148.33 318.066C1150.11 318.828 1151.49 319.844 1152.49 321.113C1153.49 322.383 1153.98 324.004 1153.98 325.977C1153.98 327.383 1153.68 328.672 1153.08 329.844C1152.47 330.996 1151.59 332.002 1150.44 332.861C1149.29 333.721 1147.91 334.395 1146.31 334.883C1144.71 335.352 1142.9 335.586 1140.89 335.586C1137.98 335.586 1135.52 335.068 1133.51 334.033C1131.49 332.979 1129.97 331.65 1128.94 330.049C1127.9 328.428 1127.38 326.748 1127.38 325.01H1134.79C1134.85 326.24 1135.19 327.227 1135.79 327.969C1136.4 328.711 1137.16 329.248 1138.08 329.58C1139.01 329.893 1140 330.049 1141.04 330.049C1142.21 330.049 1143.19 329.893 1143.99 329.58C1144.79 329.248 1145.4 328.809 1145.81 328.262C1146.22 327.695 1146.43 327.051 1146.43 326.328ZM1183.02 303.301V335H1175.25V303.301H1183.02ZM1174.73 295.01C1174.73 293.857 1175.12 292.9 1175.9 292.139C1176.7 291.377 1177.77 290.996 1179.12 290.996C1180.47 290.996 1181.53 291.377 1182.31 292.139C1183.12 292.9 1183.52 293.857 1183.52 295.01C1183.52 296.143 1183.12 297.09 1182.31 297.852C1181.53 298.613 1180.47 298.994 1179.12 298.994C1177.77 298.994 1176.7 298.613 1175.9 297.852C1175.12 297.09 1174.73 296.143 1174.73 295.01ZM1197.99 310.068V335H1190.25V303.301H1197.52L1197.99 310.068ZM1196.76 318.008H1194.47C1194.49 315.703 1194.8 313.613 1195.41 311.738C1196.02 309.863 1196.87 308.252 1197.96 306.904C1199.07 305.557 1200.39 304.521 1201.91 303.799C1203.44 303.076 1205.14 302.715 1207.01 302.715C1208.54 302.715 1209.91 302.93 1211.14 303.359C1212.37 303.789 1213.43 304.473 1214.31 305.41C1215.21 306.348 1215.89 307.578 1216.36 309.102C1216.85 310.605 1217.09 312.461 1217.09 314.668V335H1209.3V314.609C1209.3 313.164 1209.08 312.021 1208.65 311.182C1208.24 310.342 1207.64 309.746 1206.84 309.395C1206.05 309.043 1205.09 308.867 1203.94 308.867C1202.74 308.867 1201.7 309.111 1200.8 309.6C1199.92 310.068 1199.18 310.723 1198.57 311.562C1197.99 312.402 1197.54 313.369 1197.23 314.463C1196.91 315.557 1196.76 316.738 1196.76 318.008ZM892.773 401.484L901.27 373.301H909.561L896.846 409.805C896.553 410.586 896.172 411.436 895.703 412.354C895.254 413.271 894.648 414.141 893.887 414.961C893.125 415.801 892.168 416.484 891.016 417.012C889.883 417.539 888.506 417.803 886.885 417.803C886.182 417.803 885.557 417.754 885.01 417.656C884.463 417.559 883.887 417.432 883.281 417.275V411.475C883.477 411.494 883.701 411.504 883.955 411.504C884.229 411.523 884.463 411.533 884.658 411.533C885.791 411.533 886.729 411.396 887.471 411.123C888.213 410.869 888.809 410.449 889.258 409.863C889.727 409.297 890.117 408.555 890.43 407.637L892.773 401.484ZM888.584 373.301L895.762 396.65L897.021 404.824L891.689 405.791L880.234 373.301H888.584ZM911.465 389.473V388.857C911.465 386.533 911.797 384.395 912.461 382.441C913.125 380.469 914.092 378.76 915.361 377.314C916.631 375.869 918.184 374.746 920.02 373.945C921.855 373.125 923.945 372.715 926.289 372.715C928.672 372.715 930.781 373.125 932.617 373.945C934.473 374.746 936.035 375.869 937.305 377.314C938.574 378.76 939.541 380.469 940.205 382.441C940.869 384.395 941.201 386.533 941.201 388.857V389.473C941.201 391.777 940.869 393.916 940.205 395.889C939.541 397.842 938.574 399.551 937.305 401.016C936.035 402.461 934.482 403.584 932.646 404.385C930.811 405.186 928.711 405.586 926.348 405.586C924.004 405.586 921.904 405.186 920.049 404.385C918.193 403.584 916.631 402.461 915.361 401.016C914.092 399.551 913.125 397.842 912.461 395.889C911.797 393.916 911.465 391.777 911.465 389.473ZM919.199 388.857V389.473C919.199 390.859 919.336 392.158 919.609 393.369C919.883 394.58 920.303 395.645 920.869 396.562C921.436 397.48 922.168 398.203 923.066 398.73C923.984 399.238 925.078 399.492 926.348 399.492C927.598 399.492 928.672 399.238 929.57 398.73C930.469 398.203 931.201 397.48 931.768 396.562C932.354 395.645 932.783 394.58 933.057 393.369C933.33 392.158 933.467 390.859 933.467 389.473V388.857C933.467 387.49 933.33 386.211 933.057 385.02C932.783 383.809 932.354 382.744 931.768 381.826C931.201 380.889 930.459 380.156 929.541 379.629C928.643 379.082 927.559 378.809 926.289 378.809C925.039 378.809 923.965 379.082 923.066 379.629C922.168 380.156 921.436 380.889 920.869 381.826C920.303 382.744 919.883 383.809 919.609 385.02C919.336 386.211 919.199 387.49 919.199 388.857ZM965.693 397.471V373.301H973.486V405H966.162L965.693 397.471ZM966.689 390.908L969.092 390.85C969.092 392.979 968.857 394.941 968.389 396.738C967.92 398.535 967.188 400.098 966.191 401.426C965.215 402.734 963.975 403.76 962.471 404.502C960.967 405.225 959.189 405.586 957.139 405.586C955.576 405.586 954.15 405.371 952.861 404.941C951.572 404.492 950.459 403.799 949.521 402.861C948.604 401.904 947.891 400.684 947.383 399.199C946.875 397.695 946.621 395.889 946.621 393.779V373.301H954.355V393.838C954.355 394.893 954.473 395.771 954.707 396.475C954.961 397.178 955.303 397.754 955.732 398.203C956.182 398.633 956.699 398.945 957.285 399.141C957.891 399.316 958.535 399.404 959.219 399.404C961.094 399.404 962.568 399.033 963.643 398.291C964.736 397.529 965.518 396.514 965.986 395.244C966.455 393.955 966.689 392.51 966.689 390.908ZM988.076 379.775V405H980.342V373.301H987.666L988.076 379.775ZM997.715 373.096L997.598 380.303C997.168 380.225 996.68 380.166 996.133 380.127C995.605 380.088 995.107 380.068 994.639 380.068C993.447 380.068 992.402 380.234 991.504 380.566C990.605 380.879 989.854 381.338 989.248 381.943C988.662 382.549 988.213 383.291 987.9 384.17C987.588 385.029 987.412 386.006 987.373 387.1L985.703 386.895C985.703 384.883 985.908 383.018 986.318 381.299C986.729 379.58 987.324 378.076 988.105 376.787C988.887 375.498 989.863 374.502 991.035 373.799C992.227 373.076 993.594 372.715 995.137 372.715C995.566 372.715 996.025 372.754 996.514 372.832C997.021 372.891 997.422 372.979 997.715 373.096ZM1034.34 396.328C1034.34 395.664 1034.16 395.068 1033.81 394.541C1033.46 394.014 1032.79 393.535 1031.82 393.105C1030.86 392.656 1029.45 392.236 1027.6 391.846C1025.96 391.494 1024.44 391.055 1023.06 390.527C1021.67 390 1020.48 389.365 1019.48 388.623C1018.49 387.861 1017.71 386.973 1017.14 385.957C1016.59 384.922 1016.32 383.73 1016.32 382.383C1016.32 381.074 1016.6 379.844 1017.17 378.691C1017.73 377.52 1018.55 376.494 1019.63 375.615C1020.7 374.717 1022.01 374.014 1023.55 373.506C1025.1 372.979 1026.84 372.715 1028.77 372.715C1031.46 372.715 1033.78 373.154 1035.71 374.033C1037.67 374.912 1039.16 376.123 1040.2 377.666C1041.23 379.189 1041.75 380.908 1041.75 382.822H1034.01C1034.01 381.982 1033.82 381.221 1033.43 380.537C1033.06 379.854 1032.48 379.307 1031.7 378.896C1030.92 378.467 1029.93 378.252 1028.74 378.252C1027.67 378.252 1026.76 378.428 1026.02 378.779C1025.29 379.131 1024.75 379.59 1024.38 380.156C1024 380.723 1023.82 381.348 1023.82 382.031C1023.82 382.539 1023.92 382.998 1024.11 383.408C1024.33 383.799 1024.67 384.16 1025.14 384.492C1025.61 384.824 1026.24 385.127 1027.04 385.4C1027.86 385.674 1028.87 385.938 1030.06 386.191C1032.42 386.66 1034.48 387.285 1036.24 388.066C1038.02 388.828 1039.4 389.844 1040.4 391.113C1041.4 392.383 1041.89 394.004 1041.89 395.977C1041.89 397.383 1041.59 398.672 1040.99 399.844C1040.38 400.996 1039.5 402.002 1038.35 402.861C1037.2 403.721 1035.82 404.395 1034.22 404.883C1032.62 405.352 1030.81 405.586 1028.8 405.586C1025.89 405.586 1023.43 405.068 1021.42 404.033C1019.4 402.979 1017.88 401.65 1016.85 400.049C1015.81 398.428 1015.29 396.748 1015.29 395.01H1022.71C1022.76 396.24 1023.1 397.227 1023.7 397.969C1024.31 398.711 1025.07 399.248 1025.99 399.58C1026.92 399.893 1027.91 400.049 1028.95 400.049C1030.12 400.049 1031.1 399.893 1031.9 399.58C1032.71 399.248 1033.31 398.809 1033.72 398.262C1034.13 397.695 1034.34 397.051 1034.34 396.328ZM1066.65 397.471V373.301H1074.44V405H1067.12L1066.65 397.471ZM1067.65 390.908L1070.05 390.85C1070.05 392.979 1069.81 394.941 1069.35 396.738C1068.88 398.535 1068.14 400.098 1067.15 401.426C1066.17 402.734 1064.93 403.76 1063.43 404.502C1061.92 405.225 1060.15 405.586 1058.1 405.586C1056.53 405.586 1055.11 405.371 1053.82 404.941C1052.53 404.492 1051.42 403.799 1050.48 402.861C1049.56 401.904 1048.85 400.684 1048.34 399.199C1047.83 397.695 1047.58 395.889 1047.58 393.779V373.301H1055.31V393.838C1055.31 394.893 1055.43 395.771 1055.66 396.475C1055.92 397.178 1056.26 397.754 1056.69 398.203C1057.14 398.633 1057.66 398.945 1058.24 399.141C1058.85 399.316 1059.49 399.404 1060.18 399.404C1062.05 399.404 1063.53 399.033 1064.6 398.291C1065.69 397.529 1066.47 396.514 1066.94 395.244C1067.41 393.955 1067.65 392.51 1067.65 390.908ZM1094.31 399.492C1095.4 399.492 1096.38 399.277 1097.24 398.848C1098.1 398.418 1098.78 397.812 1099.29 397.031C1099.81 396.25 1100.1 395.342 1100.14 394.307H1107.43C1107.39 396.455 1106.79 398.379 1105.62 400.078C1104.44 401.777 1102.88 403.125 1100.93 404.121C1098.99 405.098 1096.83 405.586 1094.42 405.586C1091.98 405.586 1089.85 405.176 1088.04 404.355C1086.22 403.535 1084.71 402.393 1083.5 400.928C1082.3 399.463 1081.41 397.764 1080.8 395.83C1080.21 393.896 1079.92 391.826 1079.92 389.619V388.682C1079.92 386.475 1080.21 384.404 1080.8 382.471C1081.41 380.537 1082.3 378.838 1083.5 377.373C1084.71 375.908 1086.22 374.766 1088.04 373.945C1089.85 373.125 1091.97 372.715 1094.39 372.715C1096.95 372.715 1099.2 373.213 1101.13 374.209C1103.09 375.205 1104.61 376.611 1105.7 378.428C1106.82 380.244 1107.39 382.383 1107.43 384.844H1100.14C1100.1 383.711 1099.84 382.695 1099.38 381.797C1098.91 380.898 1098.24 380.176 1097.38 379.629C1096.52 379.082 1095.48 378.809 1094.25 378.809C1092.94 378.809 1091.85 379.082 1090.97 379.629C1090.11 380.176 1089.43 380.928 1088.95 381.885C1088.48 382.822 1088.14 383.877 1087.95 385.049C1087.77 386.201 1087.69 387.412 1087.69 388.682V389.619C1087.69 390.908 1087.77 392.139 1087.95 393.311C1088.14 394.482 1088.48 395.537 1088.95 396.475C1089.43 397.393 1090.11 398.125 1090.97 398.672C1091.85 399.219 1092.96 399.492 1094.31 399.492ZM1125.6 399.492C1126.69 399.492 1127.67 399.277 1128.53 398.848C1129.38 398.418 1130.07 397.812 1130.58 397.031C1131.1 396.25 1131.39 395.342 1131.43 394.307H1138.72C1138.68 396.455 1138.08 398.379 1136.9 400.078C1135.73 401.777 1134.17 403.125 1132.22 404.121C1130.28 405.098 1128.12 405.586 1125.71 405.586C1123.27 405.586 1121.14 405.176 1119.33 404.355C1117.51 403.535 1116 402.393 1114.79 400.928C1113.59 399.463 1112.7 397.764 1112.09 395.83C1111.5 393.896 1111.21 391.826 1111.21 389.619V388.682C1111.21 386.475 1111.5 384.404 1112.09 382.471C1112.7 380.537 1113.59 378.838 1114.79 377.373C1116 375.908 1117.51 374.766 1119.33 373.945C1121.14 373.125 1123.26 372.715 1125.68 372.715C1128.24 372.715 1130.49 373.213 1132.42 374.209C1134.38 375.205 1135.9 376.611 1136.99 378.428C1138.11 380.244 1138.68 382.383 1138.72 384.844H1131.43C1131.39 383.711 1131.13 382.695 1130.66 381.797C1130.2 380.898 1129.53 380.176 1128.67 379.629C1127.81 379.082 1126.77 378.809 1125.54 378.809C1124.23 378.809 1123.13 379.082 1122.26 379.629C1121.4 380.176 1120.72 380.928 1120.23 381.885C1119.77 382.822 1119.43 383.877 1119.24 385.049C1119.06 386.201 1118.97 387.412 1118.97 388.682V389.619C1118.97 390.908 1119.06 392.139 1119.24 393.311C1119.43 394.482 1119.77 395.537 1120.23 396.475C1120.72 397.393 1121.4 398.125 1122.26 398.672C1123.13 399.219 1124.25 399.492 1125.6 399.492ZM1158.12 405.586C1155.71 405.586 1153.55 405.195 1151.64 404.414C1149.73 403.633 1148.1 402.549 1146.75 401.162C1145.42 399.756 1144.39 398.125 1143.67 396.27C1142.97 394.395 1142.62 392.383 1142.62 390.234V389.062C1142.62 386.621 1142.97 384.404 1143.67 382.412C1144.38 380.4 1145.37 378.672 1146.66 377.227C1147.95 375.781 1149.49 374.668 1151.29 373.887C1153.09 373.105 1155.07 372.715 1157.24 372.715C1159.48 372.715 1161.46 373.096 1163.18 373.857C1164.9 374.6 1166.34 375.654 1167.49 377.021C1168.64 378.389 1169.51 380.029 1170.1 381.943C1170.68 383.838 1170.98 385.938 1170.98 388.242V391.494H1146.13V386.162H1163.36V385.576C1163.32 384.346 1163.09 383.223 1162.66 382.207C1162.23 381.172 1161.56 380.352 1160.66 379.746C1159.77 379.121 1158.6 378.809 1157.18 378.809C1156.03 378.809 1155.02 379.062 1154.16 379.57C1153.32 380.059 1152.62 380.762 1152.05 381.68C1151.5 382.578 1151.09 383.652 1150.82 384.902C1150.55 386.152 1150.41 387.539 1150.41 389.062V390.234C1150.41 391.562 1150.59 392.793 1150.94 393.926C1151.31 395.059 1151.85 396.045 1152.55 396.885C1153.27 397.705 1154.13 398.35 1155.13 398.818C1156.14 399.268 1157.29 399.492 1158.58 399.492C1160.21 399.492 1161.67 399.18 1162.98 398.555C1164.31 397.91 1165.46 396.963 1166.44 395.713L1170.33 399.756C1169.67 400.732 1168.77 401.67 1167.64 402.568C1166.52 403.467 1165.18 404.199 1163.59 404.766C1162.01 405.312 1160.19 405.586 1158.12 405.586ZM1193.59 396.328C1193.59 395.664 1193.42 395.068 1193.07 394.541C1192.71 394.014 1192.05 393.535 1191.07 393.105C1190.12 392.656 1188.71 392.236 1186.86 391.846C1185.21 391.494 1183.7 391.055 1182.31 390.527C1180.93 390 1179.74 389.365 1178.74 388.623C1177.74 387.861 1176.96 386.973 1176.4 385.957C1175.85 384.922 1175.58 383.73 1175.58 382.383C1175.58 381.074 1175.86 379.844 1176.43 378.691C1176.99 377.52 1177.81 376.494 1178.89 375.615C1179.96 374.717 1181.27 374.014 1182.81 373.506C1184.36 372.979 1186.09 372.715 1188.03 372.715C1190.72 372.715 1193.04 373.154 1194.97 374.033C1196.92 374.912 1198.42 376.123 1199.45 377.666C1200.49 379.189 1201.01 380.908 1201.01 382.822H1193.27C1193.27 381.982 1193.08 381.221 1192.69 380.537C1192.31 379.854 1191.74 379.307 1190.96 378.896C1190.18 378.467 1189.19 378.252 1188 378.252C1186.92 378.252 1186.02 378.428 1185.27 378.779C1184.55 379.131 1184 379.59 1183.63 380.156C1183.26 380.723 1183.08 381.348 1183.08 382.031C1183.08 382.539 1183.17 382.998 1183.37 383.408C1183.58 383.799 1183.93 384.16 1184.39 384.492C1184.86 384.824 1185.5 385.127 1186.3 385.4C1187.12 385.674 1188.12 385.938 1189.32 386.191C1191.68 386.66 1193.74 387.285 1195.5 388.066C1197.28 388.828 1198.66 389.844 1199.66 391.113C1200.65 392.383 1201.15 394.004 1201.15 395.977C1201.15 397.383 1200.85 398.672 1200.24 399.844C1199.64 400.996 1198.76 402.002 1197.61 402.861C1196.46 403.721 1195.08 404.395 1193.48 404.883C1191.88 405.352 1190.07 405.586 1188.06 405.586C1185.15 405.586 1182.69 405.068 1180.67 404.033C1178.66 402.979 1177.14 401.65 1176.1 400.049C1175.07 398.428 1174.55 396.748 1174.55 395.01H1181.96C1182.02 396.24 1182.35 397.227 1182.96 397.969C1183.56 398.711 1184.33 399.248 1185.24 399.58C1186.18 399.893 1187.17 400.049 1188.2 400.049C1189.38 400.049 1190.36 399.893 1191.16 399.58C1191.96 399.248 1192.57 398.809 1192.98 398.262C1193.39 397.695 1193.59 397.051 1193.59 396.328ZM1224.47 396.328C1224.47 395.664 1224.3 395.068 1223.95 394.541C1223.59 394.014 1222.93 393.535 1221.95 393.105C1221 392.656 1219.59 392.236 1217.73 391.846C1216.09 391.494 1214.58 391.055 1213.19 390.527C1211.81 390 1210.62 389.365 1209.62 388.623C1208.62 387.861 1207.84 386.973 1207.28 385.957C1206.73 384.922 1206.46 383.73 1206.46 382.383C1206.46 381.074 1206.74 379.844 1207.3 378.691C1207.87 377.52 1208.69 376.494 1209.77 375.615C1210.84 374.717 1212.15 374.014 1213.69 373.506C1215.23 372.979 1216.97 372.715 1218.91 372.715C1221.6 372.715 1223.92 373.154 1225.85 374.033C1227.8 374.912 1229.3 376.123 1230.33 377.666C1231.37 379.189 1231.88 380.908 1231.88 382.822H1224.15C1224.15 381.982 1223.96 381.221 1223.56 380.537C1223.19 379.854 1222.62 379.307 1221.84 378.896C1221.05 378.467 1220.07 378.252 1218.88 378.252C1217.8 378.252 1216.89 378.428 1216.15 378.779C1215.43 379.131 1214.88 379.59 1214.51 380.156C1214.14 380.723 1213.96 381.348 1213.96 382.031C1213.96 382.539 1214.05 382.998 1214.25 383.408C1214.46 383.799 1214.8 384.16 1215.27 384.492C1215.74 384.824 1216.38 385.127 1217.18 385.4C1218 385.674 1219 385.938 1220.2 386.191C1222.56 386.66 1224.62 387.285 1226.38 388.066C1228.15 388.828 1229.54 389.844 1230.54 391.113C1231.53 392.383 1232.03 394.004 1232.03 395.977C1232.03 397.383 1231.73 398.672 1231.12 399.844C1230.52 400.996 1229.64 402.002 1228.49 402.861C1227.33 403.721 1225.96 404.395 1224.36 404.883C1222.75 405.352 1220.95 405.586 1218.94 405.586C1216.03 405.586 1213.56 405.068 1211.55 404.033C1209.54 402.979 1208.02 401.65 1206.98 400.049C1205.95 398.428 1205.43 396.748 1205.43 395.01H1212.84C1212.9 396.24 1213.23 397.227 1213.84 397.969C1214.44 398.711 1215.21 399.248 1216.12 399.58C1217.06 399.893 1218.05 400.049 1219.08 400.049C1220.25 400.049 1221.24 399.893 1222.04 399.58C1222.84 399.248 1223.45 398.809 1223.86 398.262C1224.27 397.695 1224.47 397.051 1224.47 396.328Z" fill="white"/>
</g>
<path d="M151.06 422.962L144.485 443H139.189L148.171 418.828H151.541L151.06 422.962ZM156.521 443L149.931 422.962L149.399 418.828H152.803L161.834 443H156.521ZM156.223 434.002V437.903H143.456V434.002H156.223ZM167.927 428.872V443H163.146V425.037H167.628L167.927 428.872ZM167.229 433.388H165.935C165.935 432.06 166.106 430.864 166.449 429.802C166.792 428.728 167.274 427.815 167.894 427.062C168.513 426.299 169.249 425.718 170.102 425.319C170.965 424.91 171.928 424.705 172.99 424.705C173.831 424.705 174.601 424.827 175.298 425.07C175.995 425.314 176.593 425.701 177.091 426.232C177.6 426.764 177.987 427.466 178.253 428.341C178.53 429.215 178.668 430.283 178.668 431.545V443H173.854V431.528C173.854 430.731 173.743 430.112 173.521 429.669C173.3 429.226 172.974 428.916 172.542 428.739C172.121 428.551 171.601 428.457 170.981 428.457C170.34 428.457 169.781 428.584 169.305 428.839C168.84 429.093 168.452 429.448 168.143 429.901C167.844 430.344 167.617 430.864 167.462 431.462C167.307 432.06 167.229 432.701 167.229 433.388ZM192.929 438.7V425.037H197.71V443H193.211L192.929 438.7ZM193.46 435.015L194.871 434.981C194.871 436.177 194.733 437.289 194.456 438.318C194.179 439.337 193.764 440.222 193.211 440.975C192.658 441.716 191.96 442.297 191.119 442.718C190.278 443.127 189.287 443.332 188.147 443.332C187.273 443.332 186.465 443.21 185.724 442.967C184.993 442.712 184.362 442.319 183.831 441.788C183.311 441.246 182.901 440.554 182.603 439.713C182.315 438.861 182.171 437.837 182.171 436.642V425.037H186.952V436.675C186.952 437.206 187.013 437.654 187.135 438.02C187.268 438.385 187.45 438.684 187.683 438.916C187.915 439.148 188.186 439.314 188.496 439.414C188.817 439.514 189.171 439.563 189.559 439.563C190.544 439.563 191.318 439.364 191.883 438.966C192.458 438.567 192.862 438.025 193.095 437.339C193.338 436.642 193.46 435.867 193.46 435.015ZM211.074 438.036C211.074 437.693 210.975 437.383 210.775 437.106C210.576 436.83 210.205 436.575 209.663 436.343C209.132 436.099 208.363 435.878 207.355 435.679C206.448 435.479 205.601 435.23 204.815 434.932C204.041 434.622 203.366 434.251 202.79 433.819C202.226 433.388 201.783 432.879 201.462 432.292C201.141 431.694 200.98 431.014 200.98 430.25C200.98 429.497 201.141 428.789 201.462 428.125C201.794 427.461 202.264 426.874 202.873 426.365C203.493 425.845 204.245 425.441 205.131 425.153C206.027 424.854 207.035 424.705 208.152 424.705C209.713 424.705 211.052 424.954 212.17 425.452C213.299 425.95 214.162 426.636 214.76 427.511C215.368 428.374 215.673 429.359 215.673 430.466H210.892C210.892 430.001 210.792 429.586 210.593 429.221C210.405 428.844 210.106 428.551 209.696 428.341C209.298 428.119 208.778 428.009 208.136 428.009C207.604 428.009 207.145 428.103 206.758 428.291C206.37 428.468 206.072 428.712 205.861 429.021C205.662 429.32 205.562 429.652 205.562 430.018C205.562 430.294 205.618 430.543 205.729 430.765C205.85 430.975 206.044 431.169 206.31 431.346C206.575 431.523 206.918 431.689 207.339 431.844C207.771 431.988 208.302 432.12 208.933 432.242C210.228 432.508 211.384 432.856 212.402 433.288C213.421 433.709 214.229 434.284 214.826 435.015C215.424 435.734 215.723 436.68 215.723 437.854C215.723 438.65 215.546 439.381 215.191 440.045C214.837 440.709 214.328 441.29 213.664 441.788C213 442.275 212.203 442.657 211.273 442.934C210.355 443.199 209.32 443.332 208.169 443.332C206.498 443.332 205.081 443.033 203.919 442.436C202.768 441.838 201.894 441.08 201.296 440.161C200.709 439.231 200.416 438.28 200.416 437.306H204.948C204.97 437.959 205.136 438.484 205.446 438.883C205.767 439.281 206.171 439.569 206.658 439.746C207.156 439.923 207.693 440.012 208.269 440.012C208.888 440.012 209.403 439.929 209.812 439.763C210.222 439.586 210.532 439.353 210.742 439.065C210.964 438.767 211.074 438.424 211.074 438.036ZM223.492 417.5V443H218.711V417.5H223.492ZM222.812 433.388H221.5C221.511 432.137 221.677 430.986 221.998 429.935C222.319 428.872 222.778 427.953 223.376 427.179C223.974 426.393 224.688 425.784 225.518 425.353C226.359 424.921 227.288 424.705 228.307 424.705C229.192 424.705 229.994 424.832 230.714 425.087C231.444 425.33 232.07 425.729 232.59 426.282C233.121 426.825 233.531 427.538 233.818 428.424C234.106 429.309 234.25 430.383 234.25 431.645V443H229.436V431.611C229.436 430.814 229.319 430.189 229.087 429.735C228.866 429.271 228.539 428.944 228.107 428.756C227.687 428.557 227.167 428.457 226.547 428.457C225.861 428.457 225.274 428.584 224.787 428.839C224.311 429.093 223.929 429.448 223.642 429.901C223.354 430.344 223.144 430.864 223.011 431.462C222.878 432.06 222.812 432.701 222.812 433.388ZM242.667 417.483V443H237.886V417.483H242.667ZM253.989 425.037L246.187 433.936L242.003 438.169L240.26 434.716L243.58 430.499L248.245 425.037H253.989ZM249.025 443L243.713 434.699L247.017 431.811L254.537 443H249.025ZM265.743 438.949V430.947C265.743 430.372 265.649 429.879 265.461 429.47C265.273 429.049 264.979 428.723 264.581 428.49C264.194 428.258 263.69 428.142 263.07 428.142C262.539 428.142 262.08 428.236 261.692 428.424C261.305 428.601 261.006 428.861 260.796 429.204C260.586 429.536 260.48 429.929 260.48 430.383H255.699C255.699 429.619 255.876 428.894 256.23 428.208C256.585 427.522 257.099 426.919 257.774 426.398C258.45 425.867 259.252 425.452 260.182 425.153C261.122 424.854 262.174 424.705 263.336 424.705C264.73 424.705 265.97 424.938 267.055 425.402C268.139 425.867 268.992 426.564 269.611 427.494C270.242 428.424 270.558 429.586 270.558 430.98V438.667C270.558 439.652 270.618 440.46 270.74 441.091C270.862 441.711 271.039 442.253 271.271 442.718V443H266.44C266.208 442.513 266.031 441.904 265.909 441.174C265.799 440.432 265.743 439.691 265.743 438.949ZM266.374 432.06L266.407 434.766H263.734C263.104 434.766 262.556 434.838 262.091 434.981C261.626 435.125 261.244 435.33 260.945 435.596C260.646 435.85 260.425 436.149 260.281 436.492C260.148 436.835 260.082 437.212 260.082 437.621C260.082 438.031 260.176 438.401 260.364 438.733C260.552 439.054 260.824 439.309 261.178 439.497C261.532 439.674 261.947 439.763 262.423 439.763C263.142 439.763 263.768 439.619 264.299 439.331C264.83 439.043 265.24 438.689 265.527 438.269C265.826 437.848 265.981 437.45 265.992 437.073L267.254 439.099C267.077 439.552 266.833 440.023 266.523 440.51C266.225 440.997 265.843 441.456 265.378 441.888C264.913 442.308 264.354 442.657 263.701 442.934C263.048 443.199 262.273 443.332 261.377 443.332C260.237 443.332 259.202 443.105 258.272 442.651C257.354 442.187 256.623 441.55 256.081 440.742C255.55 439.923 255.284 438.993 255.284 437.953C255.284 437.012 255.461 436.177 255.815 435.446C256.17 434.716 256.69 434.102 257.376 433.604C258.073 433.094 258.942 432.713 259.982 432.458C261.023 432.192 262.229 432.06 263.602 432.06H266.374ZM302.167 430.366V439.945C301.791 440.399 301.21 440.892 300.424 441.423C299.638 441.943 298.625 442.391 297.386 442.768C296.146 443.144 294.646 443.332 292.887 443.332C291.326 443.332 289.904 443.077 288.62 442.568C287.336 442.048 286.229 441.29 285.3 440.294C284.381 439.298 283.673 438.08 283.175 436.642C282.677 435.192 282.428 433.537 282.428 431.678V430.167C282.428 428.308 282.666 426.653 283.142 425.203C283.629 423.753 284.32 422.53 285.217 421.534C286.113 420.538 287.181 419.78 288.421 419.26C289.66 418.74 291.038 418.479 292.555 418.479C294.658 418.479 296.384 418.823 297.734 419.509C299.085 420.184 300.114 421.125 300.822 422.331C301.542 423.526 301.984 424.899 302.15 426.448H297.319C297.198 425.629 296.965 424.915 296.622 424.307C296.279 423.698 295.786 423.222 295.145 422.879C294.514 422.536 293.695 422.364 292.688 422.364C291.857 422.364 291.116 422.536 290.463 422.879C289.821 423.211 289.279 423.703 288.836 424.356C288.393 425.009 288.056 425.817 287.823 426.78C287.591 427.743 287.475 428.861 287.475 430.134V431.678C287.475 432.939 287.596 434.057 287.84 435.031C288.083 435.994 288.443 436.808 288.919 437.472C289.406 438.125 290.004 438.617 290.712 438.949C291.42 439.281 292.245 439.447 293.186 439.447C293.971 439.447 294.624 439.381 295.145 439.248C295.676 439.115 296.102 438.955 296.423 438.767C296.755 438.567 297.009 438.379 297.187 438.202V433.919H292.638V430.366H302.167ZM316.511 438.7V425.037H321.292V443H316.793L316.511 438.7ZM317.042 435.015L318.453 434.981C318.453 436.177 318.315 437.289 318.038 438.318C317.761 439.337 317.346 440.222 316.793 440.975C316.24 441.716 315.542 442.297 314.701 442.718C313.86 443.127 312.869 443.332 311.729 443.332C310.855 443.332 310.047 443.21 309.306 442.967C308.575 442.712 307.944 442.319 307.413 441.788C306.893 441.246 306.483 440.554 306.185 439.713C305.897 438.861 305.753 437.837 305.753 436.642V425.037H310.534V436.675C310.534 437.206 310.595 437.654 310.717 438.02C310.85 438.385 311.032 438.684 311.265 438.916C311.497 439.148 311.768 439.314 312.078 439.414C312.399 439.514 312.753 439.563 313.141 439.563C314.126 439.563 314.9 439.364 315.465 438.966C316.04 438.567 316.444 438.025 316.677 437.339C316.92 436.642 317.042 435.867 317.042 435.015ZM329.726 428.49V449.906H324.944V425.037H329.377L329.726 428.49ZM341.098 433.819V434.168C341.098 435.474 340.943 436.686 340.633 437.804C340.334 438.922 339.891 439.896 339.305 440.726C338.718 441.545 337.988 442.187 337.113 442.651C336.25 443.105 335.254 443.332 334.125 443.332C333.029 443.332 332.077 443.111 331.27 442.668C330.462 442.225 329.781 441.605 329.228 440.809C328.685 440.001 328.248 439.065 327.916 438.003C327.584 436.94 327.329 435.8 327.152 434.583V433.67C327.329 432.364 327.584 431.169 327.916 430.084C328.248 428.988 328.685 428.042 329.228 427.245C329.781 426.437 330.456 425.812 331.253 425.369C332.061 424.926 333.007 424.705 334.092 424.705C335.232 424.705 336.233 424.921 337.097 425.353C337.971 425.784 338.701 426.404 339.288 427.212C339.886 428.02 340.334 428.983 340.633 430.101C340.943 431.218 341.098 432.458 341.098 433.819ZM336.3 434.168V433.819C336.3 433.056 336.233 432.353 336.101 431.711C335.979 431.058 335.78 430.488 335.503 430.001C335.237 429.514 334.883 429.138 334.44 428.872C334.009 428.595 333.483 428.457 332.863 428.457C332.21 428.457 331.651 428.562 331.187 428.772C330.733 428.983 330.362 429.287 330.074 429.686C329.786 430.084 329.571 430.56 329.427 431.113C329.283 431.667 329.194 432.292 329.161 432.989V435.297C329.216 436.116 329.371 436.852 329.626 437.505C329.881 438.147 330.273 438.656 330.805 439.032C331.336 439.409 332.033 439.597 332.896 439.597C333.527 439.597 334.059 439.458 334.49 439.182C334.922 438.894 335.271 438.501 335.536 438.003C335.813 437.505 336.007 436.929 336.117 436.276C336.239 435.623 336.3 434.921 336.3 434.168ZM352.868 425.037V428.424H342.409V425.037H352.868ZM344.999 420.604H349.78V437.588C349.78 438.108 349.847 438.507 349.979 438.783C350.123 439.06 350.334 439.254 350.61 439.364C350.887 439.464 351.236 439.514 351.656 439.514C351.955 439.514 352.221 439.503 352.453 439.48C352.697 439.447 352.901 439.414 353.067 439.381L353.084 442.9C352.674 443.033 352.232 443.138 351.756 443.216C351.28 443.293 350.754 443.332 350.179 443.332C349.127 443.332 348.209 443.16 347.423 442.817C346.648 442.463 346.05 441.899 345.63 441.124C345.209 440.349 344.999 439.331 344.999 438.069V420.604ZM365.286 438.949V430.947C365.286 430.372 365.192 429.879 365.004 429.47C364.816 429.049 364.522 428.723 364.124 428.49C363.737 428.258 363.233 428.142 362.613 428.142C362.082 428.142 361.623 428.236 361.235 428.424C360.848 428.601 360.549 428.861 360.339 429.204C360.129 429.536 360.023 429.929 360.023 430.383H355.242C355.242 429.619 355.419 428.894 355.773 428.208C356.128 427.522 356.642 426.919 357.317 426.398C357.993 425.867 358.795 425.452 359.725 425.153C360.665 424.854 361.717 424.705 362.879 424.705C364.273 424.705 365.513 424.938 366.598 425.402C367.682 425.867 368.535 426.564 369.154 427.494C369.785 428.424 370.101 429.586 370.101 430.98V438.667C370.101 439.652 370.161 440.46 370.283 441.091C370.405 441.711 370.582 442.253 370.814 442.718V443H365.983C365.751 442.513 365.574 441.904 365.452 441.174C365.341 440.432 365.286 439.691 365.286 438.949ZM365.917 432.06L365.95 434.766H363.277C362.646 434.766 362.099 434.838 361.634 434.981C361.169 435.125 360.787 435.33 360.488 435.596C360.189 435.85 359.968 436.149 359.824 436.492C359.691 436.835 359.625 437.212 359.625 437.621C359.625 438.031 359.719 438.401 359.907 438.733C360.095 439.054 360.367 439.309 360.721 439.497C361.075 439.674 361.49 439.763 361.966 439.763C362.685 439.763 363.311 439.619 363.842 439.331C364.373 439.043 364.783 438.689 365.07 438.269C365.369 437.848 365.524 437.45 365.535 437.073L366.797 439.099C366.62 439.552 366.376 440.023 366.066 440.51C365.768 440.997 365.386 441.456 364.921 441.888C364.456 442.308 363.897 442.657 363.244 442.934C362.591 443.199 361.816 443.332 360.92 443.332C359.78 443.332 358.745 443.105 357.815 442.651C356.897 442.187 356.166 441.55 355.624 440.742C355.093 439.923 354.827 438.993 354.827 437.953C354.827 437.012 355.004 436.177 355.358 435.446C355.713 434.716 356.233 434.102 356.919 433.604C357.616 433.094 358.485 432.713 359.525 432.458C360.566 432.192 361.772 432.06 363.145 432.06H365.917ZM223.808 480.477V483H207.986V480.792L215.905 471.977C216.879 470.892 217.632 469.973 218.163 469.221C218.705 468.457 219.082 467.776 219.292 467.179C219.513 466.57 219.624 465.95 219.624 465.319C219.624 464.522 219.458 463.803 219.126 463.161C218.805 462.508 218.329 461.988 217.698 461.601C217.067 461.213 216.304 461.02 215.407 461.02C214.334 461.02 213.437 461.23 212.718 461.65C212.009 462.06 211.478 462.635 211.124 463.377C210.77 464.118 210.593 464.971 210.593 465.934H207.521C207.521 464.572 207.82 463.327 208.418 462.198C209.016 461.069 209.901 460.173 211.074 459.509C212.247 458.834 213.692 458.496 215.407 458.496C216.935 458.496 218.241 458.767 219.325 459.31C220.41 459.841 221.24 460.593 221.815 461.567C222.402 462.53 222.695 463.659 222.695 464.954C222.695 465.662 222.574 466.382 222.33 467.112C222.098 467.832 221.771 468.551 221.351 469.271C220.941 469.99 220.46 470.698 219.906 471.396C219.364 472.093 218.783 472.779 218.163 473.454L211.688 480.477H223.808ZM230.979 471.495L228.522 470.864L229.734 458.828H242.136V461.667H232.341L231.61 468.241C232.053 467.987 232.612 467.749 233.287 467.527C233.973 467.306 234.759 467.195 235.645 467.195C236.762 467.195 237.764 467.389 238.649 467.776C239.535 468.153 240.287 468.695 240.907 469.403C241.538 470.112 242.02 470.964 242.352 471.96C242.684 472.956 242.85 474.068 242.85 475.297C242.85 476.459 242.689 477.527 242.368 478.501C242.058 479.475 241.588 480.327 240.957 481.058C240.326 481.777 239.529 482.336 238.566 482.734C237.615 483.133 236.491 483.332 235.196 483.332C234.222 483.332 233.298 483.199 232.424 482.934C231.561 482.657 230.786 482.242 230.1 481.688C229.424 481.124 228.871 480.427 228.439 479.597C228.019 478.756 227.753 477.771 227.643 476.642H230.564C230.697 477.549 230.963 478.313 231.361 478.933C231.76 479.552 232.28 480.023 232.922 480.344C233.575 480.654 234.333 480.809 235.196 480.809C235.927 480.809 236.574 480.681 237.139 480.427C237.703 480.172 238.179 479.807 238.566 479.331C238.954 478.855 239.247 478.28 239.446 477.604C239.657 476.929 239.762 476.171 239.762 475.33C239.762 474.566 239.657 473.858 239.446 473.205C239.236 472.552 238.921 471.982 238.5 471.495C238.09 471.008 237.587 470.632 236.989 470.366C236.392 470.09 235.705 469.951 234.931 469.951C233.901 469.951 233.121 470.09 232.59 470.366C232.07 470.643 231.533 471.019 230.979 471.495ZM264.398 460.97L256.396 483H253.126L262.34 458.828H264.448L264.398 460.97ZM271.105 483L263.087 460.97L263.037 458.828H265.146L274.393 483H271.105ZM270.69 474.052V476.675H257.11V474.052H270.69ZM281.066 458.828V483H277.862V458.828H281.066ZM286.894 458.828H294.896C296.711 458.828 298.243 459.105 299.494 459.658C300.756 460.212 301.713 461.031 302.366 462.115C303.03 463.189 303.362 464.511 303.362 466.083C303.362 467.19 303.135 468.202 302.682 469.121C302.239 470.029 301.597 470.803 300.756 471.445C299.926 472.076 298.93 472.547 297.768 472.856L296.871 473.205H289.351L289.317 470.599H294.995C296.146 470.599 297.104 470.399 297.867 470.001C298.631 469.591 299.206 469.044 299.594 468.357C299.981 467.671 300.175 466.913 300.175 466.083C300.175 465.153 299.992 464.34 299.627 463.643C299.262 462.945 298.686 462.409 297.9 462.032C297.126 461.645 296.124 461.451 294.896 461.451H290.098V483H286.894V458.828ZM301.021 483L295.145 472.043L298.481 472.026L304.441 482.801V483H301.021ZM240.758 510.964V519.812C240.459 520.255 239.983 520.753 239.33 521.307C238.677 521.849 237.775 522.325 236.624 522.734C235.484 523.133 234.012 523.332 232.208 523.332C230.736 523.332 229.38 523.077 228.141 522.568C226.912 522.048 225.844 521.296 224.937 520.311C224.04 519.314 223.343 518.108 222.845 516.691C222.358 515.264 222.114 513.648 222.114 511.844V509.968C222.114 508.164 222.325 506.553 222.745 505.137C223.177 503.72 223.808 502.519 224.638 501.534C225.468 500.538 226.486 499.785 227.692 499.276C228.899 498.756 230.282 498.496 231.843 498.496C233.691 498.496 235.235 498.817 236.475 499.459C237.725 500.09 238.699 500.964 239.396 502.082C240.105 503.2 240.559 504.473 240.758 505.9H237.554C237.41 505.026 237.122 504.229 236.69 503.51C236.27 502.79 235.667 502.215 234.881 501.783C234.095 501.34 233.082 501.119 231.843 501.119C230.725 501.119 229.757 501.324 228.938 501.733C228.118 502.143 227.443 502.729 226.912 503.493C226.381 504.257 225.982 505.181 225.717 506.266C225.462 507.35 225.335 508.573 225.335 509.935V511.844C225.335 513.238 225.495 514.483 225.816 515.579C226.148 516.675 226.619 517.61 227.228 518.385C227.836 519.148 228.561 519.729 229.402 520.128C230.255 520.526 231.195 520.726 232.225 520.726C233.365 520.726 234.289 520.632 234.997 520.443C235.705 520.244 236.259 520.012 236.657 519.746C237.056 519.469 237.36 519.209 237.57 518.966V513.554H231.976V510.964H240.758ZM256.197 519.929V510.682C256.197 509.973 256.053 509.359 255.766 508.839C255.489 508.308 255.068 507.898 254.504 507.61C253.939 507.323 253.242 507.179 252.412 507.179C251.637 507.179 250.957 507.312 250.37 507.577C249.795 507.843 249.341 508.191 249.009 508.623C248.688 509.055 248.527 509.52 248.527 510.018H245.456C245.456 509.376 245.622 508.739 245.954 508.108C246.286 507.478 246.762 506.908 247.382 506.398C248.013 505.878 248.765 505.469 249.64 505.17C250.525 504.86 251.51 504.705 252.595 504.705C253.901 504.705 255.052 504.926 256.048 505.369C257.055 505.812 257.841 506.481 258.405 507.378C258.981 508.263 259.269 509.376 259.269 510.715V519.082C259.269 519.68 259.318 520.316 259.418 520.991C259.529 521.666 259.689 522.247 259.899 522.734V523H256.695C256.54 522.646 256.419 522.175 256.33 521.589C256.242 520.991 256.197 520.438 256.197 519.929ZM256.729 512.109L256.762 514.268H253.657C252.783 514.268 252.003 514.34 251.316 514.483C250.63 514.616 250.055 514.821 249.59 515.098C249.125 515.374 248.771 515.723 248.527 516.144C248.284 516.553 248.162 517.035 248.162 517.588C248.162 518.152 248.289 518.667 248.544 519.132C248.799 519.597 249.18 519.967 249.689 520.244C250.21 520.51 250.846 520.643 251.599 520.643C252.539 520.643 253.369 520.443 254.089 520.045C254.808 519.646 255.378 519.16 255.799 518.584C256.23 518.008 256.463 517.45 256.496 516.907L257.808 518.385C257.73 518.85 257.52 519.364 257.177 519.929C256.834 520.493 256.374 521.035 255.799 521.556C255.234 522.065 254.559 522.491 253.773 522.834C252.999 523.166 252.124 523.332 251.15 523.332C249.933 523.332 248.865 523.094 247.946 522.618C247.039 522.142 246.33 521.506 245.821 520.709C245.323 519.901 245.074 518.999 245.074 518.003C245.074 517.04 245.262 516.193 245.639 515.463C246.015 514.721 246.557 514.107 247.266 513.62C247.974 513.122 248.826 512.746 249.822 512.491C250.818 512.237 251.931 512.109 253.159 512.109H256.729ZM271.62 505.037V507.395H261.908V505.037H271.62ZM265.195 500.671H268.267V518.551C268.267 519.16 268.361 519.619 268.549 519.929C268.737 520.239 268.98 520.443 269.279 520.543C269.578 520.643 269.899 520.692 270.242 520.692C270.497 520.692 270.762 520.67 271.039 520.626C271.327 520.571 271.543 520.526 271.687 520.493L271.703 523C271.46 523.077 271.139 523.149 270.74 523.216C270.353 523.293 269.882 523.332 269.329 523.332C268.576 523.332 267.885 523.183 267.254 522.884C266.623 522.585 266.119 522.087 265.743 521.39C265.378 520.681 265.195 519.729 265.195 518.534V500.671ZM282.677 523.332C281.426 523.332 280.292 523.122 279.273 522.701C278.266 522.27 277.397 521.666 276.667 520.892C275.948 520.117 275.394 519.198 275.007 518.136C274.619 517.073 274.426 515.911 274.426 514.649V513.952C274.426 512.491 274.642 511.191 275.073 510.051C275.505 508.9 276.091 507.926 276.833 507.129C277.575 506.332 278.416 505.729 279.356 505.319C280.297 504.91 281.271 504.705 282.278 504.705C283.562 504.705 284.669 504.926 285.599 505.369C286.539 505.812 287.309 506.432 287.906 507.229C288.504 508.014 288.947 508.944 289.234 510.018C289.522 511.08 289.666 512.242 289.666 513.504V514.882H276.252V512.375H286.595V512.143C286.55 511.346 286.384 510.571 286.097 509.818C285.82 509.066 285.377 508.446 284.769 507.959C284.16 507.472 283.33 507.229 282.278 507.229C281.581 507.229 280.939 507.378 280.353 507.677C279.766 507.965 279.262 508.396 278.842 508.972C278.421 509.547 278.095 510.25 277.862 511.08C277.63 511.91 277.514 512.868 277.514 513.952V514.649C277.514 515.502 277.63 516.304 277.862 517.057C278.106 517.798 278.454 518.451 278.908 519.016C279.373 519.58 279.932 520.023 280.585 520.344C281.249 520.665 282.002 520.825 282.843 520.825C283.927 520.825 284.846 520.604 285.599 520.161C286.351 519.718 287.01 519.126 287.574 518.385L289.434 519.862C289.046 520.449 288.554 521.008 287.956 521.539C287.358 522.07 286.622 522.502 285.748 522.834C284.885 523.166 283.861 523.332 282.677 523.332Z" fill="#696F79"/>
<path d="M528.273 422.962L521.699 443H516.403L525.385 418.828H528.755L528.273 422.962ZM533.735 443L527.145 422.962L526.613 418.828H530.017L539.048 443H533.735ZM533.437 434.002V437.903H520.67V434.002H533.437ZM545.771 428.955V443H540.99V425.037H545.489L545.771 428.955ZM551.184 424.921L551.101 429.354C550.868 429.32 550.586 429.293 550.254 429.271C549.933 429.237 549.64 429.221 549.374 429.221C548.699 429.221 548.112 429.309 547.614 429.486C547.127 429.652 546.718 429.901 546.386 430.233C546.065 430.565 545.821 430.969 545.655 431.445C545.5 431.921 545.412 432.464 545.39 433.072L544.427 432.773C544.427 431.611 544.543 430.543 544.775 429.569C545.008 428.584 545.345 427.727 545.788 426.996C546.242 426.266 546.795 425.701 547.448 425.303C548.101 424.904 548.848 424.705 549.689 424.705C549.955 424.705 550.226 424.727 550.503 424.771C550.78 424.805 551.007 424.854 551.184 424.921ZM559.069 440.975L563.834 425.037H568.964L561.742 445.706C561.587 446.16 561.377 446.647 561.111 447.167C560.857 447.687 560.508 448.18 560.065 448.645C559.634 449.12 559.086 449.508 558.422 449.807C557.769 450.105 556.966 450.255 556.015 450.255C555.561 450.255 555.19 450.227 554.902 450.172C554.615 450.117 554.271 450.039 553.873 449.939V446.437C553.995 446.437 554.122 446.437 554.255 446.437C554.388 446.448 554.515 446.453 554.637 446.453C555.268 446.453 555.782 446.381 556.181 446.237C556.579 446.093 556.9 445.872 557.144 445.573C557.387 445.285 557.581 444.909 557.725 444.444L559.069 440.975ZM557.077 425.037L560.979 438.053L561.659 443.116L558.405 443.465L551.947 425.037H557.077ZM580.303 438.949V430.947C580.303 430.372 580.209 429.879 580.021 429.47C579.832 429.049 579.539 428.723 579.141 428.49C578.753 428.258 578.25 428.142 577.63 428.142C577.099 428.142 576.639 428.236 576.252 428.424C575.865 428.601 575.566 428.861 575.355 429.204C575.145 429.536 575.04 429.929 575.04 430.383H570.259C570.259 429.619 570.436 428.894 570.79 428.208C571.144 427.522 571.659 426.919 572.334 426.398C573.009 425.867 573.812 425.452 574.741 425.153C575.682 424.854 576.733 424.705 577.896 424.705C579.29 424.705 580.53 424.938 581.614 425.402C582.699 425.867 583.551 426.564 584.171 427.494C584.802 428.424 585.117 429.586 585.117 430.98V438.667C585.117 439.652 585.178 440.46 585.3 441.091C585.422 441.711 585.599 442.253 585.831 442.718V443H581C580.768 442.513 580.59 441.904 580.469 441.174C580.358 440.432 580.303 439.691 580.303 438.949ZM580.934 432.06L580.967 434.766H578.294C577.663 434.766 577.115 434.838 576.65 434.981C576.186 435.125 575.804 435.33 575.505 435.596C575.206 435.85 574.985 436.149 574.841 436.492C574.708 436.835 574.642 437.212 574.642 437.621C574.642 438.031 574.736 438.401 574.924 438.733C575.112 439.054 575.383 439.309 575.737 439.497C576.091 439.674 576.507 439.763 576.982 439.763C577.702 439.763 578.327 439.619 578.858 439.331C579.39 439.043 579.799 438.689 580.087 438.269C580.386 437.848 580.541 437.45 580.552 437.073L581.813 439.099C581.636 439.552 581.393 440.023 581.083 440.51C580.784 440.997 580.402 441.456 579.938 441.888C579.473 442.308 578.914 442.657 578.261 442.934C577.608 443.199 576.833 443.332 575.937 443.332C574.797 443.332 573.762 443.105 572.832 442.651C571.913 442.187 571.183 441.55 570.641 440.742C570.109 439.923 569.844 438.993 569.844 437.953C569.844 437.012 570.021 436.177 570.375 435.446C570.729 434.716 571.249 434.102 571.936 433.604C572.633 433.094 573.502 432.713 574.542 432.458C575.582 432.192 576.789 432.06 578.161 432.06H580.934ZM610.152 436.675C610.152 436.243 610.086 435.856 609.953 435.513C609.831 435.159 609.599 434.838 609.256 434.55C608.913 434.251 608.431 433.958 607.812 433.67C607.192 433.382 606.389 433.083 605.404 432.773C604.309 432.419 603.268 432.021 602.283 431.578C601.309 431.135 600.446 430.621 599.693 430.034C598.952 429.437 598.365 428.745 597.934 427.959C597.513 427.173 597.303 426.26 597.303 425.22C597.303 424.213 597.524 423.299 597.967 422.48C598.41 421.65 599.029 420.942 599.826 420.355C600.623 419.758 601.564 419.299 602.648 418.978C603.744 418.657 604.945 418.496 606.251 418.496C608.033 418.496 609.588 418.817 610.916 419.459C612.244 420.101 613.273 420.981 614.004 422.099C614.745 423.216 615.116 424.495 615.116 425.934H610.169C610.169 425.225 610.02 424.605 609.721 424.074C609.433 423.532 608.99 423.106 608.393 422.796C607.806 422.486 607.064 422.331 606.168 422.331C605.305 422.331 604.585 422.464 604.01 422.729C603.434 422.984 603.003 423.333 602.715 423.775C602.427 424.207 602.283 424.694 602.283 425.236C602.283 425.646 602.383 426.017 602.582 426.349C602.792 426.681 603.102 426.991 603.512 427.278C603.921 427.566 604.425 427.837 605.022 428.092C605.62 428.346 606.312 428.595 607.098 428.839C608.415 429.237 609.571 429.686 610.567 430.184C611.575 430.682 612.416 431.241 613.091 431.86C613.766 432.48 614.275 433.183 614.618 433.969C614.961 434.755 615.133 435.646 615.133 436.642C615.133 437.693 614.928 438.634 614.519 439.464C614.109 440.294 613.517 440.997 612.742 441.572C611.967 442.148 611.043 442.585 609.97 442.884C608.896 443.183 607.695 443.332 606.367 443.332C605.172 443.332 603.993 443.177 602.831 442.867C601.669 442.546 600.612 442.065 599.66 441.423C598.719 440.781 597.967 439.962 597.402 438.966C596.838 437.97 596.556 436.791 596.556 435.43H601.553C601.553 436.182 601.669 436.819 601.901 437.339C602.134 437.859 602.46 438.28 602.881 438.601C603.312 438.922 603.822 439.154 604.408 439.298C605.006 439.442 605.659 439.514 606.367 439.514C607.23 439.514 607.939 439.392 608.492 439.148C609.057 438.905 609.472 438.567 609.737 438.136C610.014 437.704 610.152 437.217 610.152 436.675ZM622.886 417.5V443H618.104V417.5H622.886ZM622.205 433.388H620.894C620.905 432.137 621.071 430.986 621.392 429.935C621.713 428.872 622.172 427.953 622.77 427.179C623.367 426.393 624.081 425.784 624.911 425.353C625.752 424.921 626.682 424.705 627.7 424.705C628.586 424.705 629.388 424.832 630.107 425.087C630.838 425.33 631.463 425.729 631.983 426.282C632.515 426.825 632.924 427.538 633.212 428.424C633.5 429.309 633.644 430.383 633.644 431.645V443H628.829V431.611C628.829 430.814 628.713 430.189 628.48 429.735C628.259 429.271 627.933 428.944 627.501 428.756C627.08 428.557 626.56 428.457 625.94 428.457C625.254 428.457 624.668 428.584 624.181 428.839C623.705 429.093 623.323 429.448 623.035 429.901C622.747 430.344 622.537 430.864 622.404 431.462C622.271 432.06 622.205 432.701 622.205 433.388ZM646.975 438.949V430.947C646.975 430.372 646.881 429.879 646.692 429.47C646.504 429.049 646.211 428.723 645.812 428.49C645.425 428.258 644.922 428.142 644.302 428.142C643.771 428.142 643.311 428.236 642.924 428.424C642.536 428.601 642.238 428.861 642.027 429.204C641.817 429.536 641.712 429.929 641.712 430.383H636.931C636.931 429.619 637.108 428.894 637.462 428.208C637.816 427.522 638.331 426.919 639.006 426.398C639.681 425.867 640.483 425.452 641.413 425.153C642.354 424.854 643.405 424.705 644.567 424.705C645.962 424.705 647.201 424.938 648.286 425.402C649.371 425.867 650.223 426.564 650.843 427.494C651.474 428.424 651.789 429.586 651.789 430.98V438.667C651.789 439.652 651.85 440.46 651.972 441.091C652.093 441.711 652.271 442.253 652.503 442.718V443H647.672C647.439 442.513 647.262 441.904 647.141 441.174C647.03 440.432 646.975 439.691 646.975 438.949ZM647.605 432.06L647.639 434.766H644.966C644.335 434.766 643.787 434.838 643.322 434.981C642.857 435.125 642.476 435.33 642.177 435.596C641.878 435.85 641.657 436.149 641.513 436.492C641.38 436.835 641.313 437.212 641.313 437.621C641.313 438.031 641.408 438.401 641.596 438.733C641.784 439.054 642.055 439.309 642.409 439.497C642.763 439.674 643.178 439.763 643.654 439.763C644.374 439.763 644.999 439.619 645.53 439.331C646.062 439.043 646.471 438.689 646.759 438.269C647.058 437.848 647.213 437.45 647.224 437.073L648.485 439.099C648.308 439.552 648.065 440.023 647.755 440.51C647.456 440.997 647.074 441.456 646.609 441.888C646.145 442.308 645.586 442.657 644.933 442.934C644.28 443.199 643.505 443.332 642.608 443.332C641.468 443.332 640.434 443.105 639.504 442.651C638.585 442.187 637.855 441.55 637.312 440.742C636.781 439.923 636.516 438.993 636.516 437.953C636.516 437.012 636.693 436.177 637.047 435.446C637.401 434.716 637.921 434.102 638.607 433.604C639.305 433.094 640.174 432.713 641.214 432.458C642.254 432.192 643.461 432.06 644.833 432.06H647.605ZM660.256 428.955V443H655.475V425.037H659.974L660.256 428.955ZM665.668 424.921L665.585 429.354C665.353 429.32 665.07 429.293 664.738 429.271C664.417 429.237 664.124 429.221 663.858 429.221C663.183 429.221 662.597 429.309 662.099 429.486C661.612 429.652 661.202 429.901 660.87 430.233C660.549 430.565 660.306 430.969 660.14 431.445C659.985 431.921 659.896 432.464 659.874 433.072L658.911 432.773C658.911 431.611 659.027 430.543 659.26 429.569C659.492 428.584 659.83 427.727 660.272 426.996C660.726 426.266 661.28 425.701 661.933 425.303C662.586 424.904 663.333 424.705 664.174 424.705C664.439 424.705 664.711 424.727 664.987 424.771C665.264 424.805 665.491 424.854 665.668 424.921ZM672.707 428.756V443H667.909V425.037H672.408L672.707 428.756ZM672.043 433.388H670.715C670.715 432.137 670.864 430.986 671.163 429.935C671.473 428.872 671.921 427.953 672.508 427.179C673.105 426.393 673.841 425.784 674.716 425.353C675.59 424.921 676.603 424.705 677.754 424.705C678.551 424.705 679.281 424.827 679.945 425.07C680.609 425.303 681.179 425.674 681.655 426.183C682.142 426.681 682.519 427.334 682.784 428.142C683.05 428.938 683.183 429.896 683.183 431.014V443H678.401V431.545C678.401 430.726 678.291 430.095 678.069 429.652C677.848 429.21 677.533 428.9 677.123 428.723C676.725 428.546 676.243 428.457 675.679 428.457C675.059 428.457 674.517 428.584 674.052 428.839C673.598 429.093 673.222 429.448 672.923 429.901C672.624 430.344 672.403 430.864 672.259 431.462C672.115 432.06 672.043 432.701 672.043 433.388ZM682.734 432.84L681.024 433.056C681.024 431.882 681.168 430.792 681.456 429.785C681.755 428.778 682.192 427.893 682.768 427.129C683.354 426.365 684.079 425.773 684.942 425.353C685.806 424.921 686.802 424.705 687.931 424.705C688.794 424.705 689.58 424.832 690.288 425.087C690.996 425.33 691.6 425.723 692.098 426.266C692.607 426.797 692.994 427.494 693.26 428.357C693.536 429.221 693.675 430.278 693.675 431.528V443H688.877V431.528C688.877 430.698 688.766 430.067 688.545 429.636C688.335 429.193 688.025 428.889 687.615 428.723C687.217 428.546 686.741 428.457 686.188 428.457C685.612 428.457 685.108 428.573 684.677 428.806C684.245 429.027 683.885 429.337 683.598 429.735C683.31 430.134 683.094 430.599 682.95 431.13C682.806 431.65 682.734 432.22 682.734 432.84ZM707.072 438.949V430.947C707.072 430.372 706.978 429.879 706.79 429.47C706.602 429.049 706.309 428.723 705.91 428.49C705.523 428.258 705.019 428.142 704.399 428.142C703.868 428.142 703.409 428.236 703.021 428.424C702.634 428.601 702.335 428.861 702.125 429.204C701.915 429.536 701.81 429.929 701.81 430.383H697.028C697.028 429.619 697.205 428.894 697.56 428.208C697.914 427.522 698.428 426.919 699.104 426.398C699.779 425.867 700.581 425.452 701.511 425.153C702.451 424.854 703.503 424.705 704.665 424.705C706.06 424.705 707.299 424.938 708.384 425.402C709.468 425.867 710.321 426.564 710.94 427.494C711.571 428.424 711.887 429.586 711.887 430.98V438.667C711.887 439.652 711.948 440.46 712.069 441.091C712.191 441.711 712.368 442.253 712.601 442.718V443H707.77C707.537 442.513 707.36 441.904 707.238 441.174C707.128 440.432 707.072 439.691 707.072 438.949ZM707.703 432.06L707.736 434.766H705.063C704.433 434.766 703.885 434.838 703.42 434.981C702.955 435.125 702.573 435.33 702.274 435.596C701.976 435.85 701.754 436.149 701.61 436.492C701.478 436.835 701.411 437.212 701.411 437.621C701.411 438.031 701.505 438.401 701.693 438.733C701.882 439.054 702.153 439.309 702.507 439.497C702.861 439.674 703.276 439.763 703.752 439.763C704.471 439.763 705.097 439.619 705.628 439.331C706.159 439.043 706.569 438.689 706.856 438.269C707.155 437.848 707.31 437.45 707.321 437.073L708.583 439.099C708.406 439.552 708.162 440.023 707.853 440.51C707.554 440.997 707.172 441.456 706.707 441.888C706.242 442.308 705.683 442.657 705.03 442.934C704.377 443.199 703.603 443.332 702.706 443.332C701.566 443.332 700.531 443.105 699.602 442.651C698.683 442.187 697.952 441.55 697.41 440.742C696.879 439.923 696.613 438.993 696.613 437.953C696.613 437.012 696.79 436.177 697.145 435.446C697.499 434.716 698.019 434.102 698.705 433.604C699.402 433.094 700.271 432.713 701.312 432.458C702.352 432.192 703.558 432.06 704.931 432.06H707.703ZM583.806 474.865V477.389H566.341V475.579L577.165 458.828H579.672L576.982 463.676L569.827 474.865H583.806ZM580.436 458.828V483H577.364V458.828H580.436ZM602.217 458.828V460.555L592.206 483H588.969L598.963 461.352H585.881V458.828H602.217ZM623.898 460.97L615.896 483H612.626L621.84 458.828H623.948L623.898 460.97ZM630.605 483L622.587 460.97L622.537 458.828H624.646L633.893 483H630.605ZM630.19 474.052V476.675H616.61V474.052H630.19ZM640.566 458.828V483H637.362V458.828H640.566ZM646.394 458.828H654.396C656.211 458.828 657.743 459.105 658.994 459.658C660.256 460.212 661.213 461.031 661.866 462.115C662.53 463.189 662.862 464.511 662.862 466.083C662.862 467.19 662.635 468.202 662.182 469.121C661.739 470.029 661.097 470.803 660.256 471.445C659.426 472.076 658.43 472.547 657.268 472.856L656.371 473.205H648.851L648.817 470.599H654.495C655.646 470.599 656.604 470.399 657.367 470.001C658.131 469.591 658.706 469.044 659.094 468.357C659.481 467.671 659.675 466.913 659.675 466.083C659.675 465.153 659.492 464.34 659.127 463.643C658.762 462.945 658.186 462.409 657.4 462.032C656.626 461.645 655.624 461.451 654.396 461.451H649.598V483H646.394V458.828ZM660.521 483L654.645 472.043L657.981 472.026L663.941 482.801V483H660.521ZM600.258 510.964V519.812C599.959 520.255 599.483 520.753 598.83 521.307C598.177 521.849 597.275 522.325 596.124 522.734C594.984 523.133 593.512 523.332 591.708 523.332C590.236 523.332 588.88 523.077 587.641 522.568C586.412 522.048 585.344 521.296 584.437 520.311C583.54 519.314 582.843 518.108 582.345 516.691C581.858 515.264 581.614 513.648 581.614 511.844V509.968C581.614 508.164 581.825 506.553 582.245 505.137C582.677 503.72 583.308 502.519 584.138 501.534C584.968 500.538 585.986 499.785 587.192 499.276C588.399 498.756 589.782 498.496 591.343 498.496C593.191 498.496 594.735 498.817 595.975 499.459C597.225 500.09 598.199 500.964 598.896 502.082C599.605 503.2 600.059 504.473 600.258 505.9H597.054C596.91 505.026 596.622 504.229 596.19 503.51C595.77 502.79 595.167 502.215 594.381 501.783C593.595 501.34 592.582 501.119 591.343 501.119C590.225 501.119 589.257 501.324 588.438 501.733C587.618 502.143 586.943 502.729 586.412 503.493C585.881 504.257 585.482 505.181 585.217 506.266C584.962 507.35 584.835 508.573 584.835 509.935V511.844C584.835 513.238 584.995 514.483 585.316 515.579C585.648 516.675 586.119 517.61 586.728 518.385C587.336 519.148 588.061 519.729 588.902 520.128C589.755 520.526 590.695 520.726 591.725 520.726C592.865 520.726 593.789 520.632 594.497 520.443C595.205 520.244 595.759 520.012 596.157 519.746C596.556 519.469 596.86 519.209 597.07 518.966V513.554H591.476V510.964H600.258ZM615.697 519.929V510.682C615.697 509.973 615.553 509.359 615.266 508.839C614.989 508.308 614.568 507.898 614.004 507.61C613.439 507.323 612.742 507.179 611.912 507.179C611.137 507.179 610.457 507.312 609.87 507.577C609.295 507.843 608.841 508.191 608.509 508.623C608.188 509.055 608.027 509.52 608.027 510.018H604.956C604.956 509.376 605.122 508.739 605.454 508.108C605.786 507.478 606.262 506.908 606.882 506.398C607.513 505.878 608.265 505.469 609.14 505.17C610.025 504.86 611.01 504.705 612.095 504.705C613.401 504.705 614.552 504.926 615.548 505.369C616.555 505.812 617.341 506.481 617.905 507.378C618.481 508.263 618.769 509.376 618.769 510.715V519.082C618.769 519.68 618.818 520.316 618.918 520.991C619.029 521.666 619.189 522.247 619.399 522.734V523H616.195C616.04 522.646 615.919 522.175 615.83 521.589C615.742 520.991 615.697 520.438 615.697 519.929ZM616.229 512.109L616.262 514.268H613.157C612.283 514.268 611.503 514.34 610.816 514.483C610.13 514.616 609.555 514.821 609.09 515.098C608.625 515.374 608.271 515.723 608.027 516.144C607.784 516.553 607.662 517.035 607.662 517.588C607.662 518.152 607.789 518.667 608.044 519.132C608.299 519.597 608.68 519.967 609.189 520.244C609.71 520.51 610.346 520.643 611.099 520.643C612.039 520.643 612.869 520.443 613.589 520.045C614.308 519.646 614.878 519.16 615.299 518.584C615.73 518.008 615.963 517.45 615.996 516.907L617.308 518.385C617.23 518.85 617.02 519.364 616.677 519.929C616.334 520.493 615.874 521.035 615.299 521.556C614.734 522.065 614.059 522.491 613.273 522.834C612.499 523.166 611.624 523.332 610.65 523.332C609.433 523.332 608.365 523.094 607.446 522.618C606.539 522.142 605.83 521.506 605.321 520.709C604.823 519.901 604.574 518.999 604.574 518.003C604.574 517.04 604.762 516.193 605.139 515.463C605.515 514.721 606.057 514.107 606.766 513.62C607.474 513.122 608.326 512.746 609.322 512.491C610.318 512.237 611.431 512.109 612.659 512.109H616.229ZM631.12 505.037V507.395H621.408V505.037H631.12ZM624.695 500.671H627.767V518.551C627.767 519.16 627.861 519.619 628.049 519.929C628.237 520.239 628.48 520.443 628.779 520.543C629.078 520.643 629.399 520.692 629.742 520.692C629.997 520.692 630.262 520.67 630.539 520.626C630.827 520.571 631.043 520.526 631.187 520.493L631.203 523C630.96 523.077 630.639 523.149 630.24 523.216C629.853 523.293 629.382 523.332 628.829 523.332C628.076 523.332 627.385 523.183 626.754 522.884C626.123 522.585 625.619 522.087 625.243 521.39C624.878 520.681 624.695 519.729 624.695 518.534V500.671ZM642.177 523.332C640.926 523.332 639.792 523.122 638.773 522.701C637.766 522.27 636.897 521.666 636.167 520.892C635.448 520.117 634.894 519.198 634.507 518.136C634.119 517.073 633.926 515.911 633.926 514.649V513.952C633.926 512.491 634.142 511.191 634.573 510.051C635.005 508.9 635.591 507.926 636.333 507.129C637.075 506.332 637.916 505.729 638.856 505.319C639.797 504.91 640.771 504.705 641.778 504.705C643.062 504.705 644.169 504.926 645.099 505.369C646.039 505.812 646.809 506.432 647.406 507.229C648.004 508.014 648.447 508.944 648.734 510.018C649.022 511.08 649.166 512.242 649.166 513.504V514.882H635.752V512.375H646.095V512.143C646.05 511.346 645.884 510.571 645.597 509.818C645.32 509.066 644.877 508.446 644.269 507.959C643.66 507.472 642.83 507.229 641.778 507.229C641.081 507.229 640.439 507.378 639.853 507.677C639.266 507.965 638.762 508.396 638.342 508.972C637.921 509.547 637.595 510.25 637.362 511.08C637.13 511.91 637.014 512.868 637.014 513.952V514.649C637.014 515.502 637.13 516.304 637.362 517.057C637.606 517.798 637.954 518.451 638.408 519.016C638.873 519.58 639.432 520.023 640.085 520.344C640.749 520.665 641.502 520.825 642.343 520.825C643.427 520.825 644.346 520.604 645.099 520.161C645.851 519.718 646.51 519.126 647.074 518.385L648.934 519.862C648.546 520.449 648.054 521.008 647.456 521.539C646.858 522.07 646.122 522.502 645.248 522.834C644.385 523.166 643.361 523.332 642.177 523.332Z" fill="#696F79"/>
<defs>
<filter id="filter0_d_23_5835" x="0" y="0" width="1346" height="679.891" filterUnits="userSpaceOnUse" color-interpolation-filters="sRGB">
<feFlood flood-opacity="0" result="BackgroundImageFix"/>
<feColorMatrix in="SourceAlpha" type="matrix" values="0 0 0 0 0 0 0 0 0 0 0 0 0 0 0 0 0 0 127 0" result="hardAlpha"/>
<feOffset dy="4"/>
<feGaussianBlur stdDeviation="8"/>
<feComposite in2="hardAlpha" operator="out"/>
<feColorMatrix type="matrix" values="0 0 0 0 0 0 0 0 0 0 0 0 0 0 0 0 0 0 0.25 0"/>
<feBlend mode="normal" in2="BackgroundImageFix" result="effect1_dropShadow_23_5835"/>
<feBlend mode="normal" in="SourceGraphic" in2="effect1_dropShadow_23_5835" result="shape"/>
</filter>
<filter id="filter1_d_23_5835" x="98" y="93" width="302" height="315.978" filterUnits="userSpaceOnUse" color-interpolation-filters="sRGB">
<feFlood flood-opacity="0" result="BackgroundImageFix"/>
<feColorMatrix in="SourceAlpha" type="matrix" values="0 0 0 0 0 0 0 0 0 0 0 0 0 0 0 0 0 0 127 0" result="hardAlpha"/>
<feOffset dy="4"/>
<feGaussianBlur stdDeviation="8"/>
<feComposite in2="hardAlpha" operator="out"/>
<feColorMatrix type="matrix" values="0 0 0 0 0 0 0 0 0 0 0 0 0 0 0 0 0 0 0.25 0"/>
<feBlend mode="normal" in2="BackgroundImageFix" result="effect1_dropShadow_23_5835"/>
<feBlend mode="normal" in="SourceGraphic" in2="effect1_dropShadow_23_5835" result="shape"/>
</filter>
<filter id="filter2_d_23_5835" x="458" y="93" width="302" height="315.978" filterUnits="userSpaceOnUse" color-interpolation-filters="sRGB">
<feFlood flood-opacity="0" result="BackgroundImageFix"/>
<feColorMatrix in="SourceAlpha" type="matrix" values="0 0 0 0 0 0 0 0 0 0 0 0 0 0 0 0 0 0 127 0" result="hardAlpha"/>
<feOffset dy="4"/>
<feGaussianBlur stdDeviation="8"/>
<feComposite in2="hardAlpha" operator="out"/>
<feColorMatrix type="matrix" values="0 0 0 0 0 0 0 0 0 0 0 0 0 0 0 0 0 0 0.25 0"/>
<feBlend mode="normal" in2="BackgroundImageFix" result="effect1_dropShadow_23_5835"/>
<feBlend mode="normal" in="SourceGraphic" in2="effect1_dropShadow_23_5835" result="shape"/>
</filter>
<filter id="filter3_d_23_5835" x="864.234" y="208" width="383.797" height="229.803" filterUnits="userSpaceOnUse" color-interpolation-filters="sRGB">
<feFlood flood-opacity="0" result="BackgroundImageFix"/>
<feColorMatrix in="SourceAlpha" type="matrix" values="0 0 0 0 0 0 0 0 0 0 0 0 0 0 0 0 0 0 127 0" result="hardAlpha"/>
<feOffset dy="4"/>
<feGaussianBlur stdDeviation="8"/>
<feComposite in2="hardAlpha" operator="out"/>
<feColorMatrix type="matrix" values="0 0 0 0 0 0 0 0 0 0 0 0 0 0 0 0 0 0 0.25 0"/>
<feBlend mode="normal" in2="BackgroundImageFix" result="effect1_dropShadow_23_5835"/>
<feBlend mode="normal" in="SourceGraphic" in2="effect1_dropShadow_23_5835" result="shape"/>
</filter>
<linearGradient id="paint0_linear_23_5835" x1="249" y1="350.354" x2="249" y2="140" gradientUnits="userSpaceOnUse">
<stop stop-color="#FFC9B3"/>
<stop offset="1" stop-color="#FFD2C2"/>
</linearGradient>
<linearGradient id="paint1_linear_23_5835" x1="240.255" y1="167.057" x2="240.255" y2="327.215" gradientUnits="userSpaceOnUse">
<stop stop-color="#130027"/>
<stop offset="1" stop-color="#130017"/>
</linearGradient>
<linearGradient id="paint2_linear_23_5835" x1="249" y1="353.159" x2="249" y2="273.224" gradientUnits="userSpaceOnUse">
<stop stop-color="#E6864E"/>
<stop offset="1" stop-color="#E67240"/>
</linearGradient>
<linearGradient id="paint3_linear_23_5835" x1="242.031" y1="202.405" x2="242.031" y2="286.547" gradientUnits="userSpaceOnUse">
<stop stop-color="#FFE0CC"/>
<stop offset="1" stop-color="#FFEADB"/>
</linearGradient>
<linearGradient id="paint4_linear_23_5835" x1="249" y1="302.674" x2="249" y2="336.331" gradientUnits="userSpaceOnUse">
<stop stop-color="#130027"/>
<stop offset="1" stop-color="#130017"/>
</linearGradient>
<linearGradient id="paint5_linear_23_5835" x1="609" y1="350.354" x2="609" y2="140" gradientUnits="userSpaceOnUse">
<stop stop-color="#FFC9B3"/>
<stop offset="1" stop-color="#FFD2C2"/>
</linearGradient>
<linearGradient id="paint6_linear_23_5835" x1="609" y1="271.121" x2="609" y2="350.354" gradientUnits="userSpaceOnUse">
<stop stop-color="#1D0024"/>
<stop offset="1" stop-color="#100014"/>
</linearGradient>
<linearGradient id="paint7_linear_23_5835" x1="611.427" y1="262.995" x2="611.427" y2="167.58" gradientUnits="userSpaceOnUse">
<stop stop-color="#E6864E"/>
<stop offset="1" stop-color="#E67240"/>
</linearGradient>
<clipPath id="clip0_23_5835">
<path d="M149 240C149 184.772 193.772 140 249 140C304.228 140 349 184.772 349 240V250.354C349 305.583 304.228 350.354 249 350.354C193.772 350.354 149 305.583 149 250.354V240Z" fill="white"/>
</clipPath>
<clipPath id="clip1_23_5835">
<path d="M509 240C509 184.772 553.772 140 609 140C664.228 140 709 184.772 709 240V250.354C709 305.583 664.228 350.354 609 350.354C553.772 350.354 509 305.583 509 250.354V240Z" fill="white"/>
</clipPath>
</defs>
</svg>
