<svg width="200" height="200" viewBox="0 0 200 200" fill="none" xmlns="http://www.w3.org/2000/svg">
<path d="M0 100C0 44.7715 44.7715 0 100 0C155.228 0 200 44.7715 200 100C200 155.228 155.228 200 100 200C44.7715 200 0 155.228 0 100Z" fill="url(#paint0_linear_270_6402)"/>
<path d="M161.333 156.667C166.222 166 168.667 200 168.667 200H31.3333C31.3333 200 33.7779 166 38.6666 156.667C45.9999 142.667 99.9999 124.667 99.9999 124.667C99.9999 124.667 154 142.667 161.333 156.667Z" fill="url(#paint1_linear_270_6402)"/>
<path d="M97.3333 184C97.3333 183.473 97.4896 182.957 97.7827 182.519C98.0757 182.08 98.4922 181.738 98.9794 181.536C99.4667 181.335 100.003 181.282 100.52 181.385C101.037 181.488 101.513 181.742 101.886 182.114C102.258 182.487 102.512 182.963 102.615 183.48C102.718 183.997 102.665 184.533 102.464 185.021C102.262 185.508 101.92 185.924 101.481 186.217C101.043 186.51 100.527 186.667 99.9999 186.667C99.2927 186.667 98.6144 186.386 98.1143 185.886C97.6142 185.386 97.3333 184.707 97.3333 184ZM97.3333 170.667C97.3333 170.139 97.4896 169.624 97.7827 169.185C98.0757 168.747 98.4922 168.405 98.9794 168.203C99.4667 168.001 100.003 167.948 100.52 168.051C101.037 168.154 101.513 168.408 101.886 168.781C102.258 169.154 102.512 169.629 102.615 170.147C102.718 170.664 102.665 171.2 102.464 171.687C102.262 172.175 101.92 172.591 101.481 172.884C101.043 173.177 100.527 173.333 99.9999 173.333C99.2927 173.333 98.6144 173.052 98.1143 172.552C97.6142 172.052 97.3333 171.374 97.3333 170.667ZM97.3333 157.333C97.3333 156.806 97.4896 156.29 97.7827 155.852C98.0757 155.413 98.4922 155.072 98.9794 154.87C99.4667 154.668 100.003 154.615 100.52 154.718C101.037 154.821 101.513 155.075 101.886 155.448C102.258 155.821 102.512 156.296 102.615 156.813C102.718 157.33 102.665 157.867 102.464 158.354C102.262 158.841 101.92 159.258 101.481 159.551C101.043 159.844 100.527 160 99.9999 160C99.2927 160 98.6144 159.719 98.1143 159.219C97.6142 158.719 97.3333 158.041 97.3333 157.333Z" fill="white"/>
<path d="M156.981 116.941L48.6759 103.852C43.3363 75.5063 49.6696 57.647 67.6759 50.2741C75.9999 23.0001 108.398 25.2188 117.581 27.4421C148.831 35.0092 161.965 64.8421 156.981 116.941Z" fill="url(#paint2_linear_270_6402)"/>
<path d="M83.9998 132.667V92.6667C67.3192 92.4174 70.5725 63.5121 87.3332 72.3334C90.3332 73.6667 97.9998 70.0001 95.3332 61.0001C113.333 74.3334 138.416 50.9334 140 65.3334C143.116 93.6741 137.086 116.968 121.094 116.969C119.39 117.034 117.684 116.933 116 116.667V132.667C110.78 135.778 105.56 137.333 100.34 137.333C95.1198 137.333 89.6732 135.778 83.9998 132.667Z" fill="#FFDBC9"/>
<path d="M116 116.667V122C106 122 98.2221 117.222 92.6665 107.667C99.3332 112.111 107.111 115.111 116 116.667Z" fill="#FFBC9E"/>
<path d="M99.978 136.65C104.539 136.432 116 134.072 116 128.973V124.667C117.223 124.667 120.723 127.555 122.524 130C129.641 139.667 121.747 148.333 115.308 148.333C107.184 148.333 101.8 141.545 100 138.28C98.2 141.547 92.816 148.333 84.692 148.333C78.2533 148.333 70.3587 139.667 77.476 130C79.2767 127.555 82.7773 124.667 84 124.667V128.973C84 134.072 95.16 136.432 99.978 136.65Z" fill="white"/>
<defs>
<linearGradient id="paint0_linear_270_6402" x1="100" y1="200" x2="100" y2="0" gradientUnits="userSpaceOnUse">
<stop stop-color="#FFC9B3"/>
<stop offset="1" stop-color="#FFD2C2"/>
</linearGradient>
<linearGradient id="paint1_linear_270_6402" x1="99.9999" y1="124.667" x2="99.9999" y2="200" gradientUnits="userSpaceOnUse">
<stop stop-color="#1D0024"/>
<stop offset="1" stop-color="#100014"/>
</linearGradient>
<linearGradient id="paint2_linear_270_6402" x1="102.426" y1="116.941" x2="102.426" y2="26.2222" gradientUnits="userSpaceOnUse">
<stop stop-color="#E6864E"/>
<stop offset="1" stop-color="#E67240"/>
</linearGradient>
</defs>
</svg>
