<svg width="150" height="157" viewBox="0 0 150 157" fill="none" xmlns="http://www.w3.org/2000/svg">
<path d="M92.7734 82.7597V89.6397C92.7734 98.813 105.96 102.826 105.96 102.826C105.96 102.826 90.7667 114.293 75 114.293C59.2334 114.293 44.04 102.826 44.04 102.826C44.04 102.826 57.3305 98.813 57.2267 89.6397C57.1229 80.4663 57.1923 75.077 57.1229 59.3608C48.9059 48.71 49.4334 41.5617 53.9266 36.5347C68.98 19.693 109.973 25.4263 109.973 25.4263C109.973 25.4263 113.799 66.7023 105.1 78.7463C101.373 83.9063 92.7734 82.7597 92.7734 82.7597Z" fill="url(#paint0_linear_682_8158)"/>
<path d="M92.7734 82.7597C80.16 81.3263 72.7067 75.8798 72.7067 75.8798C77.4123 82.8414 84.5837 87.7589 92.7734 89.6397V82.7597Z" fill="#DB6F3D"/>
<path d="M135.2 120.203C140.658 131.301 143.8 156.896 143.8 156.896H6.20003C6.20003 156.896 9.34304 131.298 14.8 120.203C20.257 109.108 52.124 98.8171 52.124 98.8171C58.2662 111.426 91.9753 111.426 97.8594 98.8131C97.8594 98.8131 129.742 109.105 135.2 120.203Z" fill="url(#paint1_linear_682_8158)"/>
<path d="M135.2 120.203C140.658 131.301 143.8 156.896 143.8 156.896H6.20003C6.20003 156.896 9.34304 131.298 14.8 120.203C20.257 109.108 52.124 98.8171 52.124 98.8171C58.2662 111.426 91.9753 111.426 97.8594 98.8131C97.8594 98.8131 129.742 109.105 135.2 120.203Z" fill="url(#paint2_linear_682_8158)"/>
<path d="M0.466675 148.12V143.533H149.533V148.12H0.466675ZM0.466675 136.653V132.066H149.533V136.653H0.466675ZM0.466675 125.186V120.6H149.533V125.186H0.466675Z" fill="#FFA789"/>
<path d="M64.1956 42.1728C62.3724 40.6071 60.157 39.5527 57.0255 41.1798C49.6014 45.0344 55.22 59.8264 61.8134 59.8264C63.5334 59.8264 64.3888 65.2283 56.7308 68.9997C56.7308 62.9797 47.5574 48.073 46.7548 34.5011C37.5241 31.0639 39.8174 17.3114 46.1545 17.3114C45.1431 4.70495 65.3308 -1.80697 73.1476 5.42792C81.0974 -4.1003 101.164 0.773028 102.376 9.03935C116.174 1.67374 125.244 22.8464 112.324 31.0657C107.007 34.4483 94.5708 35.7355 76.618 35.7355C73.9078 35.7355 72.3896 36.4086 73.1476 39.7597C74.6147 46.2533 71.2086 50.3434 64.1956 42.1728Z" fill="url(#paint3_linear_682_8158)"/>
<defs>
<linearGradient id="paint0_linear_682_8158" x1="75" y1="0.198242" x2="75" y2="156.896" gradientUnits="userSpaceOnUse">
<stop stop-color="#E6864E"/>
<stop offset="1" stop-color="#EB965E"/>
</linearGradient>
<linearGradient id="paint1_linear_682_8158" x1="75" y1="156.896" x2="75" y2="0.198242" gradientUnits="userSpaceOnUse">
<stop stop-color="#FFC9B3"/>
<stop offset="1" stop-color="#FFD2C2"/>
</linearGradient>
<linearGradient id="paint2_linear_682_8158" x1="75" y1="156.896" x2="75" y2="0.198242" gradientUnits="userSpaceOnUse">
<stop stop-color="#FFC9B3"/>
<stop offset="1" stop-color="#FFD2C2"/>
</linearGradient>
<linearGradient id="paint3_linear_682_8158" x1="75" y1="0.198242" x2="75" y2="156.896" gradientUnits="userSpaceOnUse">
<stop stop-color="#1D0024"/>
<stop offset="1" stop-color="#100014"/>
</linearGradient>
</defs>
</svg>
