<svg width="425" height="425" viewBox="0 0 425 425" fill="none" xmlns="http://www.w3.org/2000/svg">
<path d="M306 192.822L308.244 193.672L306.297 194.216C305.978 194.308 305.686 194.477 305.447 194.708C305.209 194.939 305.031 195.226 304.929 195.542L304.223 197.684L303.373 195.534C303.268 195.269 303.107 195.03 302.902 194.832C302.697 194.634 302.452 194.482 302.183 194.386L300.22 193.672L302.353 192.822C302.607 192.717 302.837 192.56 303.028 192.363C303.22 192.166 303.369 191.932 303.467 191.675L304.24 189.677L304.793 191.53C304.885 191.822 305.041 192.09 305.25 192.313C305.459 192.537 305.715 192.711 306 192.822V192.822Z" fill="#0B6E4F"/>
<path d="M273.479 116.985L275.714 117.835L273.776 118.388C273.456 118.477 273.163 118.644 272.923 118.874C272.683 119.104 272.503 119.39 272.399 119.705L271.702 121.856L270.852 119.697C270.747 119.432 270.586 119.193 270.381 118.995C270.176 118.797 269.931 118.645 269.662 118.549L267.699 117.835L269.824 116.985C270.079 116.88 270.31 116.724 270.503 116.527C270.695 116.329 270.846 116.095 270.946 115.838L271.719 113.84L272.263 115.702C272.357 115.993 272.515 116.259 272.726 116.481C272.936 116.704 273.193 116.876 273.479 116.985V116.985Z" fill="#0B6E4F"/>
<path d="M118.15 203.294L122.876 205.071L118.771 206.235C118.095 206.425 117.476 206.778 116.971 207.265C116.465 207.751 116.087 208.355 115.872 209.023L114.385 213.562L112.557 209.006C112.335 208.447 111.997 207.94 111.565 207.521C111.132 207.102 110.616 206.78 110.05 206.575L105.893 205.071L110.39 203.218C110.929 202.999 111.418 202.672 111.826 202.257C112.234 201.842 112.552 201.347 112.761 200.804L114.385 196.554L115.549 200.481C115.732 201.121 116.063 201.709 116.515 202.197C116.966 202.686 117.527 203.062 118.15 203.294V203.294Z" fill="#0B6E4F"/>
<path d="M104.014 83.7336L109.905 85.9436L104.805 87.3971C103.957 87.6289 103.179 88.0668 102.542 88.6719C101.904 89.277 101.426 90.0305 101.15 90.8651L99.2969 96.5261L97.0274 90.8481C96.7455 90.1537 96.3217 89.5258 95.783 89.0048C95.2444 88.4837 94.6028 88.0809 93.8994 87.8221L88.7229 85.9436L94.3499 83.6401C95.0205 83.3658 95.628 82.9574 96.1352 82.44C96.6424 81.9226 97.0385 81.3071 97.2994 80.6311L99.3224 75.3696L100.776 80.2571C101.011 81.047 101.426 81.7718 101.988 82.3749C102.55 82.978 103.243 83.443 104.014 83.7336V83.7336Z" fill="#0B6E4F"/>
<path d="M121.55 56.9498L124.21 57.9528L121.907 58.6073C121.528 58.7143 121.18 58.9129 120.896 59.1856C120.611 59.4584 120.398 59.7968 120.275 60.1713L119.425 62.7213L118.396 60.1713C118.272 59.8561 118.082 59.5711 117.838 59.3352C117.595 59.0992 117.304 58.9177 116.985 58.8028L114.648 57.9528L117.198 56.9073C117.502 56.7843 117.777 56.6001 118.007 56.3661C118.236 56.1321 118.415 55.8534 118.532 55.5473L119.442 53.1758L120.096 55.3858C120.203 55.7405 120.389 56.066 120.641 56.3372C120.893 56.6084 121.204 56.818 121.55 56.9498Z" fill="#0B6E4F"/>
<path d="M341.011 217.6L345.737 219.376L341.632 220.541C340.956 220.73 340.338 221.084 339.832 221.57C339.326 222.057 338.949 222.661 338.733 223.329L337.246 227.876L335.418 223.32C335.196 222.761 334.858 222.255 334.426 221.835C333.994 221.416 333.477 221.094 332.911 220.889L328.754 219.376L333.251 217.532C333.789 217.309 334.277 216.98 334.685 216.564C335.092 216.147 335.411 215.653 335.622 215.109L337.246 210.859L338.41 214.786C338.593 215.426 338.924 216.014 339.376 216.503C339.828 216.992 340.388 217.367 341.011 217.6V217.6Z" fill="#0B6E4F"/>
<path d="M271.286 96.0497L275.817 97.7497L271.881 98.8717C271.234 99.0539 270.642 99.3927 270.157 99.8582C269.672 100.324 269.31 100.902 269.102 101.541L267.682 105.893L265.931 101.524C265.716 100.989 265.39 100.505 264.976 100.103C264.562 99.7022 264.067 99.3926 263.526 99.1947L259.539 97.7497L263.849 95.9817C264.366 95.7717 264.835 95.4572 265.225 95.058C265.616 94.6587 265.92 94.1832 266.118 93.6612L267.682 89.6152L268.796 93.3807C268.976 93.9879 269.295 94.5448 269.727 95.0079C270.159 95.471 270.693 95.8276 271.286 96.0497V96.0497Z" fill="#0B6E4F"/>
<path d="M58.82 297.109C53.465 294.347 47.158 293.99 41.2165 294.967C38.0205 295.494 34.697 296.455 32.521 298.852C30.345 301.249 29.971 305.473 32.436 307.53C33.915 308.754 35.989 308.941 37.9185 308.924C42.568 308.865 47.7275 308.074 51.4505 310.845C53.567 312.443 54.978 315.095 57.5195 315.886C60.061 316.676 62.798 315.189 64.107 312.953C65.3167 310.62 65.5845 307.912 64.855 305.388C64.5548 303.636 63.854 301.978 62.8071 300.542C61.7603 299.106 60.3957 297.931 58.82 297.109V297.109Z" fill="#EBEBEB"/>
<path d="M71.0855 273.428C67.813 278.103 61.4465 276.556 58.497 273.7C55.5475 270.844 54.298 266.713 53.1675 262.769C50.6175 253.759 47.957 244.298 49.8865 235.127C50.3506 232.343 51.5709 229.741 53.414 227.604C55.3435 225.573 58.31 224.366 61.064 225.054C64.2685 225.904 66.266 229.041 67.7025 232.033C71.9545 240.856 74.1792 250.518 74.2135 260.312C74.2135 264.868 73.695 269.662 71.128 273.402" fill="#EBEBEB"/>
<path d="M80.0701 280.134C76.5171 275.884 75.8201 269.764 77.4266 264.486C79.0331 259.207 82.5776 254.702 86.7001 251.03C91.547 246.72 97.1849 243.391 103.301 241.23C105.672 240.278 108.22 239.846 110.772 239.963C112.046 240.038 113.282 240.422 114.374 241.083C115.465 241.744 116.379 242.661 117.037 243.754C118.788 247.086 117.113 251.132 115.294 254.43C112.103 260.246 108.457 265.799 104.389 271.039C101.125 275.289 97.3761 279.412 92.3951 281.316C87.4141 283.22 82.1951 283.016 79.6451 279.539" fill="#EBEBEB"/>
<path d="M71.3065 343.961C71.1346 343.265 71.0349 342.553 71.009 341.836C70.856 340.289 70.669 338.343 70.448 336.039C70.1574 333.185 69.7204 330.348 69.139 327.539C68.379 324.116 67.3472 320.759 66.0535 317.501C64.7864 314.251 63.0696 311.195 60.9535 308.423C59.2159 306.17 57.0011 304.329 54.468 303.034C52.7499 302.183 50.9082 301.609 49.011 301.334C48.2967 301.307 47.5872 301.204 46.8945 301.028C47.6122 300.952 48.3358 300.952 49.0535 301.028C51.0219 301.179 52.9475 301.68 54.74 302.507C57.3952 303.772 59.7223 305.634 61.54 307.947C63.7646 310.752 65.5554 313.875 66.8525 317.212C68.1706 320.516 69.1974 323.929 69.921 327.412C70.4752 330.256 70.8527 333.131 71.0515 336.022C71.2385 338.487 71.3065 340.476 71.3405 341.853C71.4044 342.555 71.393 343.262 71.3065 343.961V343.961Z" fill="#0B6E4F"/>
<path d="M70.907 339.499C70.8451 339.174 70.8251 338.842 70.8475 338.513C70.8475 337.773 70.8475 336.813 70.8475 335.691C70.8475 333.243 70.8475 329.741 70.72 325.338C70.5075 316.591 69.751 307.182 68.2975 293.888C66.9205 281.41 65.076 266.892 63.121 257.457C62.7045 255.306 62.271 253.377 61.8885 251.685C61.506 249.994 61.2 248.557 60.8855 247.35C60.571 246.143 60.401 245.336 60.2225 244.613C60.1271 244.298 60.07 243.973 60.0525 243.644C60.2001 243.936 60.3142 244.244 60.3925 244.562C60.605 245.276 60.877 246.169 61.2425 247.265C61.608 248.362 61.982 249.892 62.407 251.583C62.832 253.275 63.3165 255.187 63.7755 257.338C66.1901 268.501 68.006 279.785 69.2155 291.142C70.669 304.436 71.3235 316.54 71.383 325.304C71.434 329.69 71.383 333.234 71.23 335.682C71.162 336.83 71.1025 337.765 71.06 338.504C71.044 338.84 70.9927 339.173 70.907 339.499V339.499Z" fill="#0B6E4F"/>
<path d="M70.8476 316.149C70.7715 315.17 70.7715 314.187 70.8476 313.208C70.9581 311.312 71.2216 308.575 71.7486 305.226C72.3974 301.307 73.2658 297.428 74.3496 293.607C75.6157 288.902 77.2411 284.301 79.2116 279.845C83.3001 270.3 88.7316 262.463 93.5001 257.618C94.5679 256.509 95.7035 255.467 96.9001 254.498C97.4186 254.065 97.8691 253.648 98.3366 253.283L99.6371 252.39C100.42 251.794 101.25 251.262 102.119 250.801C102.255 250.988 98.6086 253.138 93.9931 258.051C88.1273 264.587 83.4188 272.075 80.07 280.194C78.1421 284.614 76.5094 289.157 75.1825 293.794C73.9075 298.044 73.066 301.988 72.42 305.303C71.774 308.618 71.4596 311.321 71.2471 313.199C71.1925 314.192 71.0589 315.178 70.8476 316.149V316.149Z" fill="#0B6E4F"/>
<path d="M93.415 357.332L91.0775 389.385H49.895L47.5575 357.332H93.415Z" fill="#0B6E4F"/>
<path d="M97.3845 344.7H42.6445V357.331H97.3845V344.7Z" fill="#0B6E4F"/>
<path d="M97.393 388.161V391.663H94.8175H43.554V388.161H97.393Z" fill="#EBEBEB"/>
<path d="M92.293 397.826L94.8175 391.663H45.509L48.4585 397.826H92.293Z" fill="#0B6E4F"/>
<path d="M48.3225 367.812C48.3768 367.915 48.4423 368.012 48.518 368.101L49.13 368.951L51.527 372.028L51.6375 372.164L51.7395 372.019L57.63 363.8H57.29L63.0955 372.011L63.274 372.274L63.478 372.028L70.363 363.842H69.9635L70.346 364.31L76.5 372.062L76.704 372.317L76.891 372.053L82.6965 363.8H82.3565L89.505 371.951L89.6325 372.096L89.726 371.926L91.97 368.169C92.1995 367.761 92.395 367.429 92.5395 367.166C92.6122 367.054 92.672 366.934 92.718 366.809C92.6248 366.906 92.5448 367.014 92.48 367.132C92.31 367.378 92.106 367.701 91.8425 368.092L89.4965 371.781H89.7175C87.8815 369.639 85.4675 366.834 82.6795 363.536L82.5095 363.332L82.348 363.553C80.563 366.035 78.5995 368.789 76.4915 371.73H76.8825L70.7455 364.004L70.363 363.528L70.1675 363.281L69.972 363.519L63.104 371.722H63.495C61.3785 368.772 59.4065 366.018 57.63 363.553L57.46 363.307L57.29 363.553L51.527 371.79H51.731L49.2405 368.798L48.569 368.024C48.45 367.888 48.331 367.803 48.3225 367.812Z" fill="#F5F5F5"/>
<path d="M46.988 357.127C46.988 357.263 57.307 357.382 70.0315 357.382C82.756 357.382 93.075 357.263 93.075 357.127C93.075 356.991 82.756 356.864 70.0315 356.864C57.307 356.864 46.988 357 46.988 357.127Z" fill="#F5F5F5"/>
<path d="M44.9055 392.003C44.9055 392.148 56.117 392.267 69.9465 392.267C83.776 392.267 94.9875 392.148 94.9875 392.003C94.9875 391.859 83.7845 391.748 69.9465 391.748C56.1085 391.748 44.9055 391.85 44.9055 392.003Z" fill="#F5F5F5"/>
<path d="M389.495 32.5039H294.533V170.153H389.495V32.5039Z" fill="#0B6E4F"/>
<path d="M384.735 32.5039H289.773V170.153H384.735V32.5039Z" fill="#F5F5F5"/>
<path d="M372.938 47.4131H301.572V155.244H372.938V47.4131Z" fill="white"/>
<path d="M372.937 155.236C372.937 155.236 372.937 155.057 372.937 154.709C372.937 154.36 372.937 153.859 372.937 153.187C372.937 151.827 372.937 149.847 372.937 147.237C372.937 142.069 372.938 134.538 372.87 125.018C372.87 106.012 372.802 79.1181 372.759 47.3791L372.988 47.6086H301.631L301.894 47.3536C301.894 88.0261 301.852 125.554 301.843 155.176L301.631 154.972L353.583 155.083L367.931 155.134H371.697H372.997C372.997 155.134 372.58 155.134 371.739 155.134H368.016L353.71 155.185L301.631 155.295H301.427V155.083C301.427 125.443 301.427 87.9326 301.376 47.2601V46.9966H301.639H372.997H373.15V47.2346C373.15 78.9991 373.065 105.978 373.039 125.035C373.039 134.521 372.989 142.035 372.972 147.195C372.972 149.745 372.972 151.717 372.972 153.06C372.972 153.714 372.972 154.216 372.972 154.564C372.972 154.913 372.937 155.236 372.937 155.236Z" fill="#0B6E4F"/>
<path d="M385.05 32.5039C384.557 33.371 383.988 34.193 383.35 34.9604C382.245 36.4394 380.681 38.4454 378.896 40.6129C377.111 42.7804 375.437 44.7014 374.196 46.0699C373.564 46.8392 372.867 47.5529 372.113 48.2034C372.643 47.3597 373.249 46.5659 373.924 45.8319L378.497 40.2814L383.061 34.7309C383.656 33.9309 384.322 33.1856 385.05 32.5039V32.5039Z" fill="#0B6E4F"/>
<path d="M373.303 154.896C376.855 160.535 381.032 165.756 385.755 170.459Z" fill="white"/>
<path d="M385.755 170.459C384.961 169.882 384.231 169.221 383.579 168.487C381.924 166.805 380.358 165.037 378.887 163.192C377.414 161.347 376.035 159.43 374.756 157.446C374.189 156.646 373.702 155.791 373.303 154.896C373.948 155.63 374.533 156.415 375.054 157.242C376.099 158.712 377.604 160.718 379.304 162.869C381.004 165.019 382.661 166.889 383.868 168.232C384.547 168.931 385.177 169.675 385.755 170.459V170.459Z" fill="#0B6E4F"/>
<path d="M289.765 170.042L302.201 154.7Z" fill="white"/>
<path d="M302.201 154.7C302.311 154.794 299.651 158.296 296.183 162.537C294.174 165.151 292.032 167.659 289.765 170.051C289.655 169.957 292.315 166.447 295.783 162.214C299.251 157.981 302.09 154.598 302.201 154.7Z" fill="#0B6E4F"/>
<path d="M289.773 32.5039C289.884 32.4104 292.587 35.6404 295.817 39.7204C299.047 43.8004 301.554 47.1664 301.444 47.2599C299.303 44.9626 297.288 42.5507 295.409 40.0349C293.397 37.6274 291.516 35.1134 289.773 32.5039V32.5039Z" fill="#0B6E4F"/>
<path d="M350.702 69.3003H326.808V137.147H350.702V69.3003Z" fill="#0B6E4F"/>
<path d="M296.854 215.245L301.223 216.886L297.432 217.965C296.811 218.138 296.242 218.462 295.775 218.906C295.308 219.351 294.958 219.903 294.755 220.515L293.386 224.714L291.686 220.507C291.481 219.991 291.169 219.524 290.77 219.137C290.372 218.751 289.896 218.452 289.374 218.263L285.532 216.869L289.689 215.169C290.185 214.963 290.634 214.659 291.01 214.275C291.385 213.89 291.679 213.434 291.873 212.933L293.378 209.032L294.449 212.653C294.621 213.242 294.928 213.783 295.345 214.233C295.763 214.683 296.279 215.03 296.854 215.245V215.245Z" fill="#0B6E4F"/>
<path d="M147.764 114.027L152.133 115.668L148.342 116.739C147.722 116.914 147.154 117.238 146.688 117.682C146.221 118.127 145.87 118.678 145.665 119.289L144.296 123.479L142.596 119.28C142.39 118.763 142.077 118.296 141.677 117.909C141.277 117.522 140.799 117.225 140.276 117.036L136.442 115.642L140.599 113.942C141.096 113.738 141.546 113.434 141.921 113.05C142.297 112.665 142.59 112.209 142.783 111.707L144.288 107.814L145.359 111.435C145.531 112.024 145.838 112.565 146.255 113.015C146.673 113.465 147.189 113.812 147.764 114.027V114.027Z" fill="#0B6E4F"/>
<path d="M135.762 218.569L137.879 219.36L136.043 219.887C135.741 219.972 135.465 220.129 135.238 220.346C135.012 220.562 134.841 220.83 134.742 221.128L134.079 223.159L133.229 221.128C133.129 220.878 132.978 220.651 132.784 220.464C132.591 220.276 132.36 220.132 132.107 220.04L130.246 219.36L132.26 218.51C132.5 218.409 132.717 218.261 132.899 218.076C133.081 217.891 133.225 217.671 133.323 217.43L134.045 215.535L134.564 217.294C134.649 217.586 134.803 217.853 135.011 218.075C135.219 218.296 135.476 218.466 135.762 218.569Z" fill="#0B6E4F"/>
<path d="M285.124 194.098L287.36 194.948L285.413 195.5C285.095 195.592 284.805 195.76 284.566 195.99C284.328 196.219 284.149 196.504 284.045 196.818L283.339 198.968L282.489 196.818C282.383 196.554 282.223 196.315 282.02 196.116C281.816 195.917 281.574 195.762 281.308 195.662L279.336 194.948L281.469 194.098C281.723 193.991 281.954 193.834 282.146 193.637C282.339 193.44 282.49 193.207 282.591 192.95L283.356 190.953L283.909 192.806C283.999 193.1 284.155 193.369 284.366 193.593C284.577 193.817 284.836 193.99 285.124 194.098V194.098Z" fill="#0B6E4F"/>
<path d="M138.236 139.4L140.471 140.25L138.533 140.794C138.212 140.885 137.919 141.054 137.679 141.285C137.439 141.516 137.259 141.803 137.156 142.12L136.451 144.262L135.601 142.111C135.492 141.848 135.33 141.609 135.125 141.41C134.921 141.211 134.677 141.057 134.411 140.955L132.43 140.25L134.564 139.4C134.819 139.294 135.049 139.138 135.242 138.941C135.435 138.744 135.586 138.51 135.686 138.252L136.451 136.255L137.003 138.108C137.095 138.404 137.254 138.674 137.468 138.899C137.682 139.123 137.944 139.294 138.236 139.4V139.4Z" fill="#0B6E4F"/>
<path d="M244.979 95.0554C244.979 95.0554 228.778 82.3054 209.194 86.3514C191.208 90.0914 173.069 103.751 173.069 103.751L170.74 79.2454C170.74 79.2454 174.743 84.0139 177.081 83.0109C179.418 82.0079 179.427 63.9454 179.427 63.9454C179.427 63.9454 188.122 75.3184 193.137 74.3154C198.152 73.3124 205.182 50.5664 205.182 50.5664C205.182 50.5664 215.552 70.3034 221.57 70.9664C227.588 71.6294 232.62 58.2589 232.62 58.2589C232.62 58.2589 236.3 76.3214 240.635 77.1544C244.97 77.9874 246.985 69.6319 246.985 69.6319L244.979 95.0554Z" fill="#0B6E4F"/>
<path d="M244.469 69.4787C244.469 69.9831 244.618 70.4761 244.898 70.8954C245.178 71.3148 245.577 71.6416 246.043 71.8346C246.509 72.0276 247.021 72.0781 247.516 71.9797C248.011 71.8813 248.465 71.6385 248.822 71.2818C249.178 70.9252 249.421 70.4708 249.519 69.9762C249.618 69.4815 249.567 68.9688 249.374 68.5029C249.181 68.0369 248.855 67.6387 248.435 67.3585C248.016 67.0783 247.523 66.9287 247.018 66.9287C246.342 66.9287 245.694 67.1974 245.215 67.6756C244.737 68.1538 244.469 68.8024 244.469 69.4787V69.4787Z" fill="#0B6E4F"/>
<path d="M232.671 59.177C234.06 59.177 235.187 58.0506 235.187 56.661C235.187 55.2715 234.06 54.145 232.671 54.145C231.281 54.145 230.155 55.2715 230.155 56.661C230.155 58.0506 231.281 59.177 232.671 59.177Z" fill="#0B6E4F"/>
<path d="M205.054 51.7225C206.594 51.7225 207.842 50.4743 207.842 48.9345C207.842 47.3947 206.594 46.1465 205.054 46.1465C203.514 46.1465 202.266 47.3947 202.266 48.9345C202.266 50.4743 203.514 51.7225 205.054 51.7225Z" fill="#0B6E4F"/>
<path d="M179.715 65.7474C181.255 65.7474 182.503 64.4992 182.503 62.9594C182.503 61.4196 181.255 60.1714 179.715 60.1714C178.176 60.1714 176.927 61.4196 176.927 62.9594C176.927 64.4992 178.176 65.7474 179.715 65.7474Z" fill="#0B6E4F"/>
<path d="M167.705 78.0044C167.705 78.4701 167.843 78.9253 168.102 79.3125C168.361 79.6997 168.728 80.0015 169.159 80.1797C169.589 80.3579 170.062 80.4045 170.519 80.3137C170.976 80.2228 171.395 79.9986 171.724 79.6693C172.054 79.34 172.278 78.9205 172.369 78.4637C172.46 78.007 172.413 77.5336 172.235 77.1034C172.057 76.6731 171.755 76.3054 171.368 76.0467C170.98 75.788 170.525 75.6499 170.06 75.6499C169.435 75.6499 168.836 75.898 168.395 76.3395C167.953 76.7811 167.705 77.3799 167.705 78.0044V78.0044Z" fill="#0B6E4F"/>
<path d="M245.31 90.8905C245.31 90.8905 245.242 90.8905 245.132 90.7885L244.639 90.457C244.197 90.168 243.602 89.675 242.752 89.165C240.397 87.6383 237.897 86.3485 235.289 85.3145C231.417 83.7905 227.357 82.7983 223.219 82.365C220.776 82.1125 218.319 82.0329 215.866 82.127C213.236 82.2445 210.617 82.5455 208.029 83.028C203.024 84.0073 198.14 85.5234 193.46 87.55C189.639 89.2016 185.928 91.0982 182.351 93.228C179.291 95.047 176.877 96.628 175.228 97.7415L173.332 99.0335L172.839 99.3565C172.72 99.433 172.661 99.467 172.652 99.4585C172.698 99.4083 172.75 99.3627 172.805 99.3225L173.281 98.957C173.706 98.651 174.318 98.175 175.134 97.6055C176.749 96.441 179.138 94.8175 182.189 92.9645C185.754 90.7814 189.467 88.8473 193.299 87.176C197.997 85.1141 202.908 83.5776 207.944 82.5945C210.555 82.1078 213.196 81.8067 215.849 81.6935C218.323 81.6075 220.8 81.6955 223.261 81.957C227.429 82.4018 231.514 83.426 235.399 85C238.018 86.0595 240.514 87.399 242.845 88.995C243.695 89.5305 244.265 90.049 244.69 90.355L245.157 90.729C245.268 90.8395 245.319 90.8905 245.31 90.8905Z" fill="#263238"/>
<g opacity="0.3">
<path opacity="0.3" d="M210.647 71.0512C210.425 70.3484 210.03 69.7125 209.498 69.2017C208.966 68.6909 208.315 68.3215 207.604 68.1272C207.005 68.0046 206.385 68.0457 205.807 68.2461C205.23 68.4466 204.717 68.799 204.323 69.2662L204.366 69.1897C203.394 70.2966 202.867 71.7246 202.888 73.1974C202.908 74.6702 203.474 76.0831 204.476 77.1627C204.87 77.6268 205.373 77.9857 205.939 78.2068C206.506 78.4279 207.119 78.5043 207.723 78.4292C209.143 78.1487 210.069 76.7292 210.528 75.3777C211.029 73.9854 211.071 72.469 210.647 71.0512V71.0512Z" fill="black"/>
</g>
<path d="M205.054 76.6868C205.012 76.6868 204.663 76.3808 204.315 75.6838C203.866 74.7629 203.675 73.7379 203.762 72.7173C203.849 71.6968 204.21 70.7188 204.808 69.8868C205.267 69.2578 205.658 68.9858 205.709 69.0368C205.76 69.0878 205.445 69.4363 205.071 70.0738C204.581 70.8951 204.285 71.8169 204.204 72.7697C204.123 73.7224 204.259 74.6811 204.604 75.5733C204.775 75.9353 204.926 76.3071 205.054 76.6868V76.6868Z" fill="white"/>
<g opacity="0.3">
<path opacity="0.3" d="M188.249 80.0444C187.997 79.6683 187.653 79.3621 187.25 79.1541C186.848 78.9461 186.399 78.843 185.946 78.8544C185.578 78.8891 185.227 79.0217 184.928 79.2385C184.629 79.4552 184.393 79.7482 184.246 80.0869V80.0359C183.868 80.8597 183.807 81.794 184.075 82.6598C184.344 83.5256 184.922 84.262 185.699 84.7279C186.012 84.9323 186.371 85.0556 186.744 85.0868C187.116 85.118 187.49 85.056 187.833 84.9064C188.204 84.657 188.503 84.3145 188.7 83.9132C188.897 83.5119 188.985 83.0659 188.955 82.6199C189.003 81.7079 188.755 80.8048 188.249 80.0444V80.0444Z" fill="black"/>
</g>
<path d="M185.989 84.3198C185.989 84.3198 185.683 84.2433 185.334 83.8948C184.895 83.4205 184.6 82.8308 184.484 82.1948C184.351 81.5643 184.404 80.9086 184.637 80.3079C184.816 79.8489 185.02 79.6278 185.071 79.6533C184.878 80.4543 184.826 81.2826 184.918 82.1013C185.146 82.8963 185.508 83.6466 185.989 84.3198V84.3198Z" fill="white"/>
<g opacity="0.3">
<path opacity="0.3" d="M233.087 75.5223C232.989 75.0808 232.782 74.6708 232.485 74.3294C232.188 73.988 231.811 73.7261 231.387 73.5673C231.028 73.457 230.646 73.4471 230.282 73.5385C229.918 73.6299 229.586 73.8191 229.322 74.0858C228.672 74.716 228.276 75.563 228.21 76.4658C228.145 77.3686 228.413 78.2641 228.965 78.9818C229.187 79.2809 229.479 79.521 229.815 79.6811C230.151 79.8411 230.522 79.9162 230.894 79.8998C231.327 79.7999 231.727 79.5914 232.058 79.294C232.388 78.9966 232.637 78.62 232.781 78.1998C233.171 77.3641 233.278 76.4244 233.087 75.5223V75.5223Z" fill="black"/>
</g>
<path d="M229.279 78.7437C229.228 78.7437 229.016 78.5482 228.82 78.1062C228.58 77.5078 228.51 76.855 228.616 76.2192C228.732 75.5832 229.027 74.9935 229.466 74.5192C229.798 74.1622 230.078 74.0347 230.112 74.0772C229.636 74.7497 229.282 75.5006 229.067 76.2957C228.998 77.1178 229.07 77.9457 229.279 78.7437V78.7437Z" fill="white"/>
<g opacity="0.3">
<path opacity="0.3" d="M177.403 89.6578C177.173 89.4353 176.891 89.2737 176.582 89.1876C176.273 89.1015 175.948 89.0937 175.635 89.1648C175.379 89.2395 175.148 89.3826 174.967 89.5788C174.785 89.775 174.661 90.0168 174.607 90.2783V90.2783C174.467 90.9058 174.563 91.5627 174.877 92.1238C175.19 92.685 175.699 93.1112 176.307 93.3213C176.554 93.4149 176.82 93.4468 177.082 93.4142C177.345 93.3816 177.595 93.2855 177.811 93.1343C178.029 92.9048 178.184 92.6232 178.261 92.3166C178.339 92.01 178.336 91.6886 178.253 91.3833C178.172 90.7289 177.873 90.121 177.403 89.6578V89.6578Z" fill="black"/>
</g>
<path d="M176.409 93.0495C176.409 93.1005 176.162 93.0495 175.856 92.8795C175.478 92.6242 175.182 92.2637 175.006 91.8425C174.818 91.4154 174.764 90.9408 174.853 90.4825C174.921 90.134 175.049 89.947 175.1 89.964C175.151 89.981 175.032 90.814 175.414 91.664C175.797 92.514 176.468 92.939 176.409 93.0495Z" fill="white"/>
<g opacity="0.3">
<path opacity="0.3" d="M244.324 83.6996C244.39 83.385 244.375 83.0588 244.282 82.7513C244.188 82.4437 244.019 82.1648 243.789 81.9401C243.587 81.7634 243.341 81.6453 243.078 81.5988C242.814 81.5524 242.542 81.5793 242.293 81.6766V81.6766C241.689 81.8967 241.188 82.331 240.884 82.8968C240.58 83.4626 240.494 84.1204 240.644 84.7451C240.696 85.0055 240.811 85.2489 240.98 85.4536C241.15 85.6583 241.367 85.8179 241.613 85.9181C241.921 85.974 242.239 85.9511 242.536 85.8515C242.833 85.7519 243.1 85.579 243.313 85.3486C243.823 84.9261 244.179 84.3461 244.324 83.6996Z" fill="black"/>
</g>
<path d="M240.933 84.6767C240.873 84.6767 240.78 84.4812 240.78 84.1242C240.782 83.6579 240.924 83.203 241.186 82.8171C241.447 82.4312 241.818 82.1317 242.25 81.9567C242.582 81.8292 242.803 81.8377 242.82 81.8972C242.837 81.9567 242.072 82.2882 241.553 83.0702C241.035 83.8522 241.06 84.6682 240.933 84.6767Z" fill="white"/>
<path d="M161.542 85.3571C159.703 85.0608 157.89 84.6203 156.119 84.0396C154.311 83.5971 152.54 83.0116 150.824 82.2886C152.661 82.5861 154.472 83.0295 156.238 83.6146C158.05 84.0529 159.824 84.6356 161.542 85.3571V85.3571Z" fill="#263238"/>
<path d="M171.743 68.0001C169.981 65.8891 168.336 63.6843 166.813 61.3956C165.163 59.1952 163.636 56.9052 162.24 54.5361C163.997 56.6497 165.643 58.8542 167.17 61.1406C168.819 63.341 170.346 65.631 171.743 68.0001V68.0001Z" fill="#263238"/>
<path d="M192.236 58.4459C192.117 58.4459 191.284 53.9324 190.375 48.3309C189.465 42.7294 188.828 38.1309 188.947 38.1309C189.066 38.1309 189.899 42.6359 190.808 48.2374C191.718 53.8389 192.355 58.4204 192.236 58.4459Z" fill="#263238"/>
<path d="M225.343 30.3789C225.378 30.7152 225.378 31.0541 225.343 31.3904C225.343 32.0449 225.25 32.9799 225.148 34.1359C224.952 36.4564 224.604 39.6524 224.085 43.1629C223.567 46.6734 222.989 49.8354 222.513 52.1049C222.283 53.2439 222.071 54.1619 221.918 54.7994C221.864 55.1336 221.767 55.4594 221.629 55.7684C221.635 55.4309 221.675 55.0949 221.748 54.7654C221.875 54.0259 222.028 53.1249 222.207 52.0539C222.606 49.7589 223.133 46.5969 223.652 43.0949C224.17 39.5929 224.561 36.4139 224.842 34.1019C224.972 33.0252 225.083 32.1157 225.173 31.3734C225.19 31.0363 225.247 30.7025 225.343 30.3789Z" fill="#263238"/>
<path d="M250.444 50.6514C249.032 52.7738 247.496 54.8116 245.846 56.7544C244.308 58.7895 242.653 60.7336 240.89 62.5769C242.307 60.4557 243.845 58.418 245.497 56.4739C247.033 54.4399 248.685 52.4959 250.444 50.6514V50.6514Z" fill="#263238"/>
<path d="M265.412 77.4007C263.308 77.8357 261.174 78.1198 259.029 78.2507C256.896 78.5327 254.746 78.669 252.594 78.6587C254.703 78.2309 256.839 77.947 258.986 77.8087C261.117 77.5294 263.264 77.3931 265.412 77.4007V77.4007Z" fill="#263238"/>
<path d="M325.856 263.806C325.856 263.806 318.342 264.375 318.827 267.384C319.311 270.393 322.949 272.076 327.403 271.405L331.373 266.492L325.856 263.806Z" fill="#EB996E"/>
<path d="M316.268 299.2L325.023 335.495L352.299 294.695L371.849 300.815C371.849 300.815 333.242 388.696 323.909 387.234C314.576 385.772 306.909 385.152 302.285 375.334C297.661 365.517 286.645 329.256 286.645 329.256L283.313 313.208L315.222 299.2" fill="#FFBE9D"/>
<path d="M312.52 248.667C312.52 248.667 347.123 253.904 348.526 254.907C349.928 255.91 374.076 280.661 374.28 287.699C374.339 292.176 373.519 296.62 371.866 300.781L352.75 296.352L343.902 285.489C343.902 285.489 336.66 285.685 334.849 284.478C333.039 283.271 331.024 280.228 331.449 278.647C331.449 278.647 326.018 278.443 327.429 271.405C327.429 271.405 321.19 267.58 325.414 264.163C329.639 260.746 337.484 259.53 337.484 259.53C337.484 259.53 316.166 256.317 313.752 253.903C313.06 253.245 312.574 252.399 312.356 251.469C312.137 250.539 312.194 249.566 312.52 248.667V248.667Z" fill="#FFBE9D"/>
<path d="M339.754 266.807C339.754 266.943 336.923 267.385 333.617 268.634C330.31 269.884 327.862 271.397 327.794 271.278C328.254 270.842 328.775 270.475 329.341 270.19C330.655 269.412 332.034 268.752 333.464 268.218C334.892 267.679 336.365 267.269 337.867 266.994C338.483 266.837 339.119 266.774 339.754 266.807Z" fill="#EB996E"/>
<path d="M342.788 275.57C342.788 275.697 340.281 276.063 337.255 276.862C334.229 277.661 331.84 278.562 331.789 278.443C332.251 278.121 332.758 277.869 333.294 277.695C335.804 276.688 338.431 276.002 341.114 275.655C341.664 275.541 342.229 275.512 342.788 275.57V275.57Z" fill="#EB996E"/>
<path d="M359.711 299.412C358.36 298.936 357.058 298.327 355.827 297.593C354.527 296.986 353.293 296.246 352.146 295.383C353.5 295.855 354.802 296.465 356.031 297.202C357.331 297.809 358.565 298.55 359.711 299.412V299.412Z" fill="#EB996E"/>
<path d="M324.198 352.792C324.146 349.882 324.248 346.971 324.504 344.071C324.602 341.162 324.852 338.259 325.252 335.376C325.371 335.376 325.252 339.286 324.946 344.097C324.64 348.908 324.317 352.801 324.198 352.792Z" fill="#EB996E"/>
<path d="M278.8 234.37C275.757 229.984 271.788 226.202 269.535 221.365C268.19 218.145 267.25 214.77 266.739 211.318L251.362 130.568L170.417 121.805C158.289 143.67 151.779 168.203 151.47 193.205C151.334 206.082 152.269 220.626 143.404 229.967C139.664 233.911 134.249 236.767 132.804 242.054C131.572 246.525 133.722 251.285 133.153 255.892C132.49 261.298 128.299 265.463 125.307 270.011C120.992 276.601 118.977 284.434 119.578 292.289C119.884 296.029 121.074 300.135 124.33 302.005C126.344 303.161 128.775 303.229 131.13 303.271C181.926 304.232 233.266 305.141 282.897 294.312C284.937 284.206 286.986 274.023 286.969 263.712C286.952 253.402 284.665 242.836 278.8 234.37Z" fill="#263238"/>
<path d="M156.536 307.436C156.536 307.436 156.451 307.326 156.307 307.105C156.162 306.884 155.95 306.527 155.678 306.102C154.908 304.8 154.227 303.448 153.638 302.056C152.729 299.836 152.049 297.529 151.606 295.171C151.033 292.04 150.875 288.848 151.139 285.676C151.483 281.827 152.481 278.064 154.088 274.55C155.788 270.767 158.296 267.053 159.877 262.701C160.267 261.593 160.568 260.456 160.778 259.301C160.974 258.127 161.06 256.938 161.033 255.748C160.908 253.28 160.482 250.837 159.766 248.472C159.095 246.049 158.253 243.61 157.548 241.077C156.796 238.517 156.348 235.878 156.213 233.214C155.992 227.791 157.063 222.572 158.27 217.659C159.477 212.746 160.905 208.063 161.866 203.515C163.61 195.468 164.64 187.281 164.943 179.052C165.133 173.504 165 167.95 164.543 162.418C164.373 160.463 164.229 158.941 164.101 157.913C164.05 157.411 164.008 157.02 163.982 156.74C163.957 156.459 163.982 156.34 163.982 156.34C164.012 156.469 164.035 156.6 164.05 156.731C164.093 157.012 164.144 157.403 164.22 157.896C164.373 158.924 164.543 160.446 164.739 162.401C165.266 167.94 165.448 173.507 165.283 179.069C165.024 187.322 164.023 195.535 162.291 203.609C161.339 208.165 159.953 212.865 158.721 217.77C157.488 222.674 156.46 227.842 156.681 233.189C156.902 238.535 158.857 243.482 160.217 248.361C160.944 250.768 161.375 253.254 161.5 255.765C161.525 256.983 161.434 258.202 161.228 259.403C161.012 260.559 160.702 261.696 160.302 262.803C158.687 267.223 156.179 270.92 154.462 274.703C152.859 278.176 151.853 281.894 151.487 285.702C151.206 288.845 151.343 292.012 151.895 295.12C152.316 297.467 152.965 299.767 153.833 301.988C154.407 303.382 155.063 304.742 155.797 306.059C156.052 306.49 156.247 306.83 156.383 307.079C156.477 307.309 156.536 307.436 156.536 307.436Z" fill="#455A64"/>
<path d="M221.179 93.4063C205.743 92.9133 190.774 96.4068 179.767 107.236C169.669 117.181 165.172 126.403 164.348 140.981C164.067 145.979 166.209 156.986 168.232 161.559C170.255 166.132 175.882 177.709 180.566 179.409C185.249 181.109 187.536 173.102 190.766 169.311C192.763 166.999 193.664 163.956 194.548 161.032C198.28 148.656 202.793 136.289 210.52 125.919C218.246 115.549 229.619 107.321 242.48 105.961L250.691 105.774C240.244 95.6418 231.362 93.7378 221.179 93.4063Z" fill="#455A64"/>
<path d="M233.962 109.701L192.007 125.392C190.005 125.83 188.242 127.004 187.064 128.68C185.887 130.356 185.382 132.414 185.649 134.445L200.26 228.149C201.253 234.549 204.334 240.442 209.024 244.911L213.954 249.62C225.199 260.355 244.103 256.267 249.262 241.596C249.578 240.758 249.79 239.884 249.891 238.995C249.96 238.269 249.988 237.539 249.976 236.81C250.02 232.004 249.558 227.206 248.599 222.496C247.749 214.09 247.384 210.639 247.392 210.715C247.401 210.792 264.792 205.811 265.905 182.283C266.458 170.578 263.789 151.785 261.111 136.485C258.697 122.706 247.622 106.709 233.962 109.701Z" fill="#FFBE9D"/>
<path d="M254.329 153.331C254.421 154.107 254.205 154.887 253.728 155.505C253.252 156.123 252.552 156.53 251.779 156.638C251.404 156.71 251.019 156.706 250.646 156.627C250.273 156.548 249.92 156.395 249.607 156.177C249.294 155.959 249.028 155.681 248.824 155.359C248.62 155.036 248.483 154.677 248.421 154.3C248.331 153.526 248.548 152.746 249.024 152.129C249.5 151.511 250.199 151.104 250.971 150.994C251.346 150.921 251.731 150.923 252.104 151.002C252.478 151.081 252.832 151.233 253.145 151.451C253.458 151.67 253.724 151.948 253.928 152.271C254.131 152.594 254.267 152.955 254.329 153.331Z" fill="#263238"/>
<path d="M258.91 146.744C258.579 147.169 256.148 145.758 252.96 146.124C249.773 146.489 247.605 148.342 247.223 147.985C247.027 147.832 247.325 147.135 248.26 146.234C249.537 145.125 251.125 144.436 252.807 144.262C254.466 144.075 256.142 144.42 257.593 145.248C258.655 145.886 259.072 146.549 258.91 146.744Z" fill="#263238"/>
<path d="M224.213 156.196C224.305 156.971 224.09 157.752 223.613 158.37C223.136 158.988 222.436 159.395 221.663 159.503C221.289 159.575 220.904 159.571 220.531 159.492C220.158 159.413 219.804 159.26 219.491 159.042C219.178 158.824 218.912 158.546 218.709 158.224C218.505 157.901 218.368 157.541 218.305 157.165C218.213 156.39 218.429 155.61 218.906 154.991C219.382 154.373 220.082 153.967 220.855 153.859C221.23 153.787 221.615 153.79 221.988 153.869C222.361 153.948 222.714 154.101 223.027 154.319C223.34 154.537 223.606 154.815 223.81 155.138C224.014 155.46 224.151 155.82 224.213 156.196V156.196Z" fill="#263238"/>
<path d="M226.806 149.719C226.483 150.152 224.043 148.733 220.856 149.098C217.668 149.464 215.509 151.317 215.118 150.96C214.931 150.807 215.22 150.11 216.164 149.209C217.436 148.098 219.022 147.409 220.703 147.237C222.365 147.05 224.043 147.395 225.497 148.223C226.551 148.869 226.95 149.532 226.806 149.719Z" fill="#263238"/>
<path d="M241.009 173.196C241.009 173.017 242.921 172.456 246.109 171.691C246.908 171.513 247.664 171.266 247.741 170.697C247.706 169.843 247.41 169.021 246.891 168.342C245.913 166.455 244.876 164.475 243.797 162.392C239.47 153.935 236.24 146.931 236.589 146.761C236.937 146.591 240.711 153.314 245.038 161.78L248.038 167.73C248.446 168.623 249.092 169.617 248.812 170.884C248.726 171.184 248.572 171.46 248.363 171.691C248.154 171.922 247.894 172.103 247.605 172.218C247.169 172.394 246.712 172.511 246.245 172.567C243.049 173.145 241.043 173.4 241.009 173.196Z" fill="#263238"/>
<path d="M247.393 210.715C236.523 212.088 225.485 210.417 215.509 205.887C215.509 205.887 225.072 221.034 247.979 216.308L247.393 210.715Z" fill="#EB996E"/>
<path d="M240.55 181.05C239.86 180.351 239.002 179.84 238.059 179.566C237.116 179.293 236.118 179.265 235.161 179.486C234.465 179.626 233.805 179.907 233.22 180.31C232.636 180.713 232.139 181.231 231.761 181.832C231.4 182.414 231.223 183.091 231.254 183.775C231.284 184.459 231.52 185.118 231.931 185.665C232.926 186.779 234.753 186.855 236.232 186.252C237.68 185.554 238.975 184.574 240.04 183.37C240.385 183.077 240.674 182.723 240.89 182.325C240.986 182.135 241.025 181.921 241.001 181.709C240.976 181.498 240.891 181.298 240.754 181.135" fill="#EB996E"/>
<path d="M231.863 176.443C232.382 176.358 232.764 179.843 236.003 181.951C239.241 184.059 242.888 183.294 242.964 183.778C243.041 183.982 242.216 184.535 240.669 184.756C238.641 185.007 236.589 184.538 234.872 183.43C233.23 182.362 232.066 180.698 231.625 178.789C231.328 177.352 231.625 176.451 231.863 176.443Z" fill="#263238"/>
<path d="M226.584 134.589C226.21 135.439 223.04 134.793 219.249 134.972C215.458 135.15 212.347 135.958 211.905 135.142C211.709 134.751 212.296 133.969 213.605 133.221C215.314 132.303 217.21 131.788 219.149 131.715C221.087 131.641 223.017 132.011 224.791 132.796C226.1 133.45 226.754 134.181 226.584 134.589Z" fill="#263238"/>
<path d="M244.027 139.162C244.622 138.355 247.427 138.746 250.691 138.312C253.955 137.879 256.641 137.029 257.372 137.7C257.703 138.032 257.372 138.814 256.25 139.655C254.694 140.735 252.883 141.392 250.997 141.559C249.13 141.794 247.234 141.536 245.497 140.811C244.248 140.25 243.763 139.562 244.027 139.162Z" fill="#263238"/>
<path d="M196.495 172.457C196.299 170.757 193.86 166.898 192.126 166.821C187.502 166.617 179.376 167.892 180.566 179.435C182.206 195.211 197.702 190.307 197.685 189.848C197.668 189.389 197.2 178.407 196.495 172.457Z" fill="#FFBE9D"/>
<path d="M192.245 184.373C192.168 184.373 191.99 184.594 191.548 184.858C190.923 185.204 190.189 185.295 189.499 185.113C187.799 184.671 186.099 182.172 185.717 179.341C185.532 177.991 185.654 176.617 186.074 175.321C186.173 174.814 186.393 174.338 186.716 173.934C187.038 173.53 187.454 173.21 187.927 173C188.233 172.886 188.57 172.881 188.88 172.986C189.189 173.092 189.453 173.301 189.627 173.578C189.882 174.003 189.814 174.326 189.899 174.343C189.984 174.36 190.213 174.046 190.018 173.408C189.887 173.028 189.633 172.701 189.295 172.482C188.825 172.202 188.263 172.116 187.731 172.244C186.524 172.448 185.547 173.68 185.113 174.981C184.586 176.42 184.417 177.966 184.62 179.486C185.054 182.648 186.992 185.436 189.338 185.878C189.774 185.956 190.223 185.936 190.651 185.818C191.079 185.701 191.476 185.489 191.811 185.198C192.253 184.756 192.304 184.399 192.245 184.373Z" fill="#EB996E"/>
<path d="M250.75 105.239C245.276 100.292 238.128 97.495 230.869 96.152C224.59 94.9404 218.133 94.9837 211.871 96.2795V96.2795C197.795 97.1295 180.88 118.048 178.373 131.92C177.174 138.533 178.109 145.342 179.316 151.955C179.928 155.355 180.634 158.755 182.291 161.721C183.949 164.688 186.711 167.272 190.069 167.884C193.426 168.496 197.302 166.66 198.305 163.387C199.062 160.939 198.169 158.211 198.875 155.737C200.49 150.093 208.956 149.235 211.395 143.888C213.155 140.038 211.106 135.184 213.044 131.419C214.982 127.653 219.649 126.778 223.431 125.069C226.546 123.606 229.268 121.424 231.376 118.704C233.483 115.984 234.914 112.802 235.552 109.421H235.867C251.243 108.945 258.171 125.154 260.474 131.776C261.087 126.897 260.525 121.943 258.833 117.327C257.141 112.71 254.37 108.566 250.75 105.239V105.239Z" fill="#263238"/>
<path d="M187.06 114.512C187.223 114.489 187.389 114.489 187.553 114.512L188.955 114.682C189.567 114.767 190.315 114.852 191.182 114.928C192.049 115.005 193.035 115.124 194.132 115.183C196.316 115.362 198.934 115.438 201.833 115.43C204.731 115.421 207.919 115.234 211.251 114.903C214.583 114.571 217.728 114.053 220.601 113.475C223.474 112.897 225.981 112.259 228.081 111.63C229.143 111.35 230.087 111.035 230.911 110.78C231.736 110.525 232.458 110.287 233.036 110.075L234.379 109.624C234.531 109.559 234.691 109.513 234.855 109.488C234.718 109.578 234.569 109.65 234.413 109.701L233.096 110.236C232.526 110.474 231.821 110.738 230.996 111.018C230.172 111.299 229.228 111.639 228.174 111.945C226.075 112.608 223.525 113.254 220.677 113.883C217.83 114.512 214.668 114.988 211.327 115.353C207.987 115.719 204.782 115.829 201.867 115.846C198.951 115.863 196.333 115.727 194.14 115.506C193.044 115.43 192.058 115.294 191.191 115.183C190.324 115.073 189.576 114.971 188.972 114.86L187.57 114.605C187.397 114.59 187.226 114.558 187.06 114.512Z" fill="#455A64"/>
<path d="M180.957 123.785C181.155 123.803 181.352 123.84 181.543 123.896L183.243 124.287L184.45 124.576C184.892 124.678 185.377 124.746 185.895 124.839C186.941 125.001 188.114 125.273 189.44 125.375L191.505 125.596C192.228 125.681 192.984 125.664 193.766 125.706C195.322 125.817 196.988 125.706 198.739 125.706C202.524 125.463 206.279 124.86 209.95 123.904C213.621 122.886 217.189 121.529 220.609 119.85L222.887 118.66C223.627 118.294 224.29 117.81 224.97 117.436C225.65 117.062 226.296 116.671 226.882 116.246L228.582 115.056C229.696 114.333 230.597 113.534 231.438 112.888C231.846 112.565 232.246 112.268 232.586 111.97L233.504 111.12L234.796 109.99C234.941 109.852 235.097 109.727 235.263 109.616C235.145 109.776 235.008 109.922 234.855 110.049L233.64 111.35L232.739 112.2C232.407 112.506 232.016 112.812 231.608 113.152C230.758 113.815 229.908 114.631 228.778 115.379L227.078 116.594C226.491 117.028 225.82 117.393 225.157 117.818C224.494 118.243 223.822 118.668 223.074 119.068L220.796 120.283C217.358 121.984 213.767 123.353 210.069 124.372C206.356 125.325 202.558 125.911 198.73 126.123C197.059 126.208 195.386 126.208 193.715 126.123C192.933 126.072 192.168 126.123 191.446 125.987L189.363 125.74C188.029 125.621 186.856 125.315 185.81 125.128C185.292 125.026 184.807 124.95 184.365 124.831L183.175 124.499L181.518 124.032C181.323 123.969 181.135 123.886 180.957 123.785V123.785Z" fill="#455A64"/>
<path d="M194.905 193.8C194.905 193.8 194.905 193.876 194.905 194.021C194.909 194.235 194.889 194.449 194.846 194.658C194.662 195.428 194.232 196.117 193.622 196.622C192.722 197.388 191.59 197.828 190.409 197.871C189.682 197.889 188.962 197.74 188.302 197.437C187.642 197.133 187.06 196.683 186.601 196.12C186.124 195.573 185.771 194.931 185.562 194.236C185.354 193.541 185.297 192.81 185.394 192.091C185.586 190.931 186.139 189.86 186.975 189.031C187.523 188.471 188.183 188.034 188.913 187.748C189.181 187.628 189.469 187.562 189.763 187.552C188.804 187.937 187.936 188.516 187.213 189.252C186.466 190.059 185.98 191.072 185.819 192.159C185.744 192.821 185.811 193.492 186.015 194.126C186.219 194.76 186.554 195.344 187 195.84C187.417 196.354 187.945 196.768 188.544 197.05C189.143 197.333 189.797 197.477 190.46 197.472C191.558 197.447 192.62 197.069 193.486 196.392C194.074 195.941 194.514 195.326 194.752 194.624C194.871 194.114 194.854 193.8 194.905 193.8Z" fill="#0B6E4F"/>
<path d="M233.223 173.349C233.223 173.485 231.608 173.919 229.823 174.981C228.038 176.044 226.865 177.251 226.771 177.157C227.534 176.122 228.498 175.251 229.605 174.597C230.712 173.942 231.94 173.518 233.214 173.349H233.223Z" fill="#EB996E"/>
<path d="M189.108 230.579L199.869 226.729L249.05 224.867L265.982 229.806C265.982 229.806 244.46 257.32 225.786 255.425C207.111 253.529 189.108 230.579 189.108 230.579Z" fill="#FFBE9D"/>
<path d="M294.517 241.451L291.236 256.929L283.331 320.186C283.331 320.186 311.117 316.888 320.017 301.078V298.443C320.017 298.443 301.869 243.576 294.517 241.451Z" fill="#0B6E4F"/>
<path d="M294.516 241.451L264.545 227.944C264.545 227.944 258.289 240.456 232.594 244.094C206.898 247.732 188.011 229.644 188.011 229.644C188.011 229.644 178.78 234.251 165.605 239.19L167.365 318.554L172.635 335.027C172.635 335.027 168.028 358.088 166.379 365.007C164.73 371.926 169.345 374.85 169.345 374.85L167.033 397.8H295.188L287.3 352.469L294.516 241.451Z" fill="#0B6E4F"/>
<path d="M165.606 239.173C165.606 239.173 149.252 246.398 143.361 259.802C138.346 271.218 128.495 300.084 128.495 300.084L170 320.186V263.5L165.606 239.173Z" fill="#0B6E4F"/>
<path d="M158.568 280.109C158.687 280.109 161.118 289.714 163.94 301.622C166.762 313.531 168.989 323.204 168.87 323.238C168.751 323.272 166.32 313.633 163.506 301.724C160.693 289.816 158.449 280.134 158.568 280.109Z" fill="#263238"/>
<path d="M293.25 267.546C293.261 267.616 293.261 267.688 293.25 267.758C293.25 267.928 293.25 268.141 293.25 268.404C293.216 268.999 293.174 269.815 293.123 270.852C292.987 273.011 292.791 276.08 292.562 279.854C292.043 287.504 291.338 297.976 290.556 309.561C289.774 321.147 288.966 331.661 288.414 339.26C288.125 343.034 287.887 346.06 287.717 348.253C287.623 349.29 287.555 350.106 287.504 350.701C287.504 350.956 287.453 351.169 287.436 351.33C287.445 351.404 287.445 351.478 287.436 351.551C287.427 351.478 287.427 351.404 287.436 351.33C287.436 351.16 287.436 350.948 287.436 350.693C287.436 350.098 287.513 349.282 287.572 348.245C287.7 346.077 287.895 343.009 288.125 339.235C288.643 331.585 289.357 321.113 290.139 309.485C290.921 297.857 291.729 287.427 292.273 279.794C292.57 276.02 292.808 272.994 292.97 270.793C293.063 269.764 293.131 268.948 293.182 268.353C293.182 268.098 293.233 267.886 293.25 267.716C293.242 267.66 293.242 267.602 293.25 267.546Z" fill="#263238"/>
<path d="M271.15 230.758C271.15 230.758 271.108 230.834 270.997 230.962L270.521 231.506C270.079 231.973 269.501 232.73 268.609 233.563C266.176 235.997 263.482 238.155 260.576 239.997C259.675 240.626 258.655 241.145 257.635 241.757C256.615 242.369 255.485 242.879 254.329 243.457C251.848 244.598 249.292 245.566 246.679 246.355C240.671 248.14 234.423 248.986 228.157 248.863C221.896 248.68 215.687 247.662 209.695 245.837C204.812 244.352 200.079 242.412 195.56 240.04C192.509 238.452 189.555 236.687 186.711 234.753C185.7 234.081 184.952 233.503 184.425 233.129L183.838 232.696C183.768 232.651 183.705 232.597 183.651 232.534L183.872 232.662L184.476 233.061C185.02 233.41 185.776 233.962 186.805 234.608C189.677 236.483 192.648 238.203 195.704 239.759C200.224 242.082 204.947 243.985 209.814 245.446C215.774 247.239 221.944 248.239 228.166 248.421C237.116 248.617 245.997 246.798 254.15 243.1C255.298 242.547 256.411 242.012 257.448 241.451C258.485 240.89 259.488 240.346 260.381 239.751C263.286 237.937 265.995 235.826 268.464 233.452C269.374 232.645 269.969 231.905 270.428 231.463L270.938 230.945C271.001 230.874 271.072 230.812 271.15 230.758V230.758Z" fill="#263238"/>
<path d="M165.75 312.723C165.254 312.612 164.768 312.461 164.296 312.273C163.37 311.95 162.044 311.465 160.412 310.845C157.139 309.604 152.651 307.793 147.764 305.643C142.876 303.492 138.516 301.393 135.396 299.803C133.832 299.013 132.583 298.358 131.724 297.891C131.266 297.671 130.825 297.415 130.407 297.126C130.887 297.293 131.353 297.498 131.801 297.738L135.532 299.523C138.686 301.027 143.063 303.084 147.942 305.235C152.821 307.385 157.292 309.238 160.522 310.556L164.356 312.111C164.835 312.281 165.301 312.485 165.75 312.723V312.723Z" fill="#263238"/>
<path d="M320.144 298.443C319.847 298.781 319.523 299.094 319.175 299.378C318.529 299.956 317.569 300.764 316.362 301.733C313.184 304.226 309.829 306.485 306.323 308.49C302.812 310.485 299.158 312.218 295.392 313.675C293.939 314.228 292.757 314.644 291.933 314.899C291.509 315.051 291.074 315.17 290.632 315.256C291.031 315.05 291.446 314.877 291.873 314.738C292.681 314.432 293.845 313.973 295.273 313.386C302.721 310.335 309.743 306.336 316.166 301.486C317.399 300.56 318.385 299.786 319.065 299.251C319.398 298.948 319.759 298.677 320.144 298.443V298.443Z" fill="#263238"/>
<path d="M260.551 326.544C260.551 326.587 259.837 326.111 258.443 325.55C256.458 324.802 254.35 324.43 252.229 324.453C249.084 324.527 245.977 325.154 243.049 326.306C239.717 327.53 236.181 329.239 232.424 330.905L213.172 339.498L207.315 342.048L205.709 342.72C205.527 342.812 205.336 342.883 205.139 342.932C205.309 342.821 205.488 342.724 205.675 342.643L207.239 341.895L213.044 339.209L232.237 330.497C236.003 328.797 239.539 327.097 242.913 325.915C245.897 324.763 249.065 324.159 252.263 324.13C254.416 324.134 256.547 324.559 258.536 325.38C259.066 325.614 259.58 325.884 260.075 326.187C260.242 326.294 260.402 326.413 260.551 326.544V326.544Z" fill="#263238"/>
<g opacity="0.3">
<path opacity="0.3" d="M206.219 342.456C213.979 347.344 224.306 347.284 232.568 343.264C240.831 339.243 247.095 331.95 251.456 323.884C235.722 328.754 221.06 336.022 206.219 342.456Z" fill="black"/>
</g>
<g opacity="0.3">
<path opacity="0.3" d="M158.95 282.2C157.327 293.862 160.82 307.572 167.603 317.194C165.415 305.357 162.485 293.669 158.831 282.2" fill="black"/>
</g>
<path d="M163.2 299.82C163.141 299.931 156.536 296.684 148.436 292.57C140.335 288.456 133.816 285.03 133.875 284.92C133.935 284.809 140.539 288.056 148.64 292.17C156.74 296.284 163.268 299.71 163.2 299.82Z" fill="white"/>
<path d="M158.567 278.358C158.508 278.46 154.317 276.157 149.217 273.207C144.117 270.257 140.063 267.784 140.122 267.682C140.182 267.58 144.372 269.875 149.472 272.824C154.572 275.774 158.635 278.248 158.567 278.358Z" fill="white"/>
<path d="M305.209 258.238C305.209 258.238 305.073 258.238 304.801 258.315L303.603 258.493L298.987 259.131C296.981 259.411 294.525 259.734 291.669 260.049C288.813 260.363 285.557 260.78 281.953 261.103L276.301 261.655C274.329 261.842 272.28 261.987 270.155 262.165C265.905 262.531 261.375 262.794 256.598 263.092C247.035 263.61 236.512 263.942 225.471 264.018C214.429 264.095 203.889 263.738 194.327 263.279C189.541 263.007 184.977 262.769 180.727 262.429C178.602 262.267 176.553 262.131 174.581 261.953L168.92 261.443C165.316 261.137 162.061 260.746 159.205 260.44C156.349 260.134 153.884 259.828 151.878 259.59L147.254 258.978L146.055 258.808L145.647 258.731H146.064L147.271 258.859L151.895 259.386C153.909 259.624 156.366 259.904 159.23 260.185C162.095 260.465 165.342 260.831 168.954 261.12L174.607 261.604C176.579 261.774 178.627 261.893 180.752 262.055C185.002 262.378 189.533 262.599 194.31 262.862C203.872 263.296 214.387 263.585 225.428 263.568C236.47 263.551 246.984 263.168 256.538 262.718C261.315 262.429 265.888 262.182 270.096 261.868C272.212 261.698 274.269 261.562 276.233 261.383L281.885 260.865C285.498 260.559 288.745 260.168 291.601 259.87C294.457 259.573 296.922 259.275 298.928 259.02L303.56 258.459L304.767 258.332L305.209 258.238Z" fill="white"/>
<path d="M290.445 292.009C290.445 292.128 261.809 292.23 226.483 292.23C191.157 292.23 162.52 292.128 162.52 292.009C162.52 291.89 191.157 291.779 226.483 291.779C261.809 291.779 290.445 291.881 290.445 292.009Z" fill="white"/>
<path d="M242.446 324.947C242.446 325.066 226.44 325.168 206.695 325.168C186.949 325.168 170.995 325.066 170.995 324.947C170.995 324.828 186.992 324.726 206.695 324.726C226.398 324.726 242.446 324.819 242.446 324.947Z" fill="white"/>
<path d="M289.06 325.201C289.06 325.32 282.455 325.422 274.304 325.422C266.152 325.422 259.548 325.32 259.548 325.201C259.548 325.082 266.152 324.98 274.304 324.98C282.455 324.98 289.06 325.074 289.06 325.201Z" fill="white"/>
<path d="M287.121 352.75C287.121 352.869 260.831 352.971 228.403 352.971C195.976 352.971 169.668 352.869 169.668 352.75C169.668 352.631 195.959 352.529 228.403 352.529C260.848 352.529 287.121 352.656 287.121 352.75Z" fill="white"/>
<path d="M292.23 385.458C292.23 385.577 264.911 385.679 231.208 385.679C197.506 385.679 170.178 385.577 170.178 385.458C170.178 385.339 197.497 385.237 231.208 385.237C264.919 385.237 292.23 385.339 292.23 385.458Z" fill="white"/>
<path d="M310.114 273.955C309.926 274.184 309.709 274.386 309.468 274.559C309.043 274.933 308.406 275.451 307.615 276.08C306.034 277.338 303.799 279.03 301.266 280.806C298.733 282.583 296.387 284.104 294.661 285.158C293.811 285.694 293.089 286.11 292.596 286.391C292.349 286.553 292.084 286.684 291.805 286.782C292.013 286.571 292.248 286.389 292.502 286.238L294.491 284.895C296.191 283.773 298.486 282.209 301.011 280.441C303.535 278.673 305.796 277.041 307.428 275.834L309.366 274.423C309.592 274.232 309.844 274.074 310.114 273.955V273.955Z" fill="white"/>
<path d="M318.401 290.793C318.092 291.093 317.753 291.361 317.39 291.592C316.727 292.085 315.749 292.774 314.534 293.615C312.103 295.315 308.686 297.534 304.844 299.888C301.002 302.243 297.44 304.249 294.839 305.651C293.539 306.348 292.476 306.901 291.737 307.275C291.362 307.486 290.969 307.665 290.564 307.81C290.902 307.545 291.267 307.314 291.652 307.122L294.686 305.379C297.236 303.909 300.764 301.86 304.614 299.506C308.465 297.151 311.882 294.958 314.364 293.352L317.296 291.448C317.646 291.199 318.015 290.98 318.401 290.793V290.793Z" fill="white"/>
<path d="M135.269 303.365L124.874 347.199L103.785 303.713H81.6851C81.6851 303.713 90.7801 350.259 107.415 376.609C120.224 396.907 131.903 397.528 139.477 394.663C147.05 391.799 154.496 381.174 161.415 355.784C165.436 341.02 167.96 329.876 168.844 323.238C169.006 322.048 167.34 318.537 167.34 318.537L135.269 303.365Z" fill="#FFBE9D"/>
<path d="M134.759 274.091C134.759 274.091 143.361 273.445 143.361 277.882C143.361 282.319 131.283 282.863 131.283 282.863L129.583 276.649L134.759 274.091Z" fill="#EB996E"/>
<path d="M81.7104 303.713C81.7104 303.713 81.7105 291.193 85.663 285.923C88.859 281.673 106.156 268.311 112.71 263.321C114.323 262.09 116.341 261.51 118.362 261.698L153.782 264.911C153.782 264.911 154.436 269.518 151.147 270.181C147.857 270.844 134.096 270.767 134.096 270.767C134.096 270.767 135.507 276.301 134.835 278.655C134.164 281.01 131.129 282.463 131.129 282.463C131.129 282.463 132.982 285.727 127.381 289.68C127.381 289.68 127.84 296.301 121.575 296.48C119.587 296.511 117.598 296.4 115.625 296.148C115.625 296.148 105.425 303.399 103.725 303.73C102.025 304.062 81.7104 303.713 81.7104 303.713Z" fill="#FFBE9D"/>
<path d="M94.3501 305.941C95.8589 305.382 97.4151 304.961 98.9996 304.683C100.552 304.256 102.139 303.971 103.743 303.833C102.235 304.398 100.679 304.822 99.0931 305.099C97.5415 305.526 95.9537 305.807 94.3501 305.941V305.941Z" fill="#EB996E"/>
<path d="M118.762 284.376C120.35 284.961 121.858 285.743 123.25 286.705C124.723 287.549 126.085 288.575 127.304 289.756C127.228 289.858 125.375 288.566 123.012 287.087C120.649 285.608 118.711 284.495 118.762 284.376Z" fill="#EB996E"/>
<path d="M131.283 282.2C131.198 282.302 129.489 280.747 127.109 279.234C124.729 277.721 122.621 276.794 122.672 276.684C124.349 277.132 125.934 277.872 127.356 278.868C128.851 279.738 130.181 280.866 131.283 282.2V282.2Z" fill="#EB996E"/>
<path d="M125.01 269.05C126.55 269.108 128.081 269.313 129.583 269.662C131.111 269.863 132.617 270.21 134.079 270.699C132.538 270.651 131.006 270.449 129.506 270.096C127.978 269.889 126.472 269.539 125.01 269.05V269.05Z" fill="#EB996E"/>
<path d="M134.079 361.309C132.289 359.03 130.615 356.661 129.064 354.212C127.392 351.848 125.843 349.4 124.423 346.876C126.21 349.154 127.881 351.52 129.43 353.965C131.103 356.333 132.655 358.784 134.079 361.309Z" fill="#EB996E"/>
<path d="M122.4 162.163C122.4 172.646 118.236 182.699 110.823 190.111C103.411 197.524 93.3577 201.688 82.875 201.688C72.3923 201.688 62.339 197.524 54.9266 190.111C47.5142 182.699 43.35 172.646 43.35 162.163C43.35 140.335 61.0385 122.068 82.8665 122.068C104.694 122.068 122.4 140.335 122.4 162.163Z" fill="white"/>
<path d="M75.8284 158.1H78.3784L83.8949 150.45V147.05C83.912 146.831 83.9882 146.622 84.1154 146.443C84.2426 146.265 84.416 146.124 84.6169 146.037C84.8178 145.95 85.0387 145.919 85.2559 145.947C85.4731 145.976 85.6785 146.063 85.8499 146.2C86.6999 147.05 87.5074 148.597 87.2864 151.759C86.8274 158.372 87.2864 156.689 87.2864 156.689C87.2864 156.689 95.5824 156.689 96.2794 157.437C96.7809 157.964 97.0019 166.2 97.1294 170.671C97.187 171.747 96.8838 172.811 96.2678 173.695C95.6519 174.579 94.7585 175.232 93.7294 175.55C93.4518 175.624 93.1664 175.664 92.8794 175.669C90.8054 175.669 80.2314 173.969 80.2314 173.969H75.8284V158.1Z" fill="#455A64"/>
<path d="M68.5864 156.697V174.258L74.4684 173.995V157.046L68.5864 156.697Z" fill="#455A64"/>
<path d="M132.362 172.286C132.362 172.286 131.996 172.516 131.452 173.051C130.707 173.82 130.214 174.799 130.041 175.856C129.916 176.575 129.951 177.312 130.143 178.015C130.376 178.818 130.837 179.535 131.469 180.081C132.169 180.733 133.05 181.158 133.996 181.299C134.942 181.44 135.909 181.29 136.768 180.87C137.627 180.45 138.339 179.78 138.809 178.947C139.279 178.113 139.485 177.157 139.4 176.205C139.361 175.369 139.08 174.563 138.592 173.884C138.158 173.298 137.597 172.816 136.952 172.473C136.014 171.949 134.934 171.735 133.866 171.861C133.11 171.955 132.727 172.142 132.71 172.108C132.693 172.074 132.795 172.04 132.982 171.963C133.095 171.905 133.215 171.862 133.339 171.836C133.505 171.779 133.676 171.739 133.849 171.717C134.783 171.576 135.737 171.686 136.614 172.035C137.49 172.385 138.258 172.961 138.839 173.706C139.372 174.426 139.685 175.285 139.74 176.179C139.802 177.166 139.594 178.15 139.136 179.027C138.657 179.985 137.882 180.763 136.926 181.245C135.958 181.695 134.872 181.826 133.824 181.619C132.853 181.44 131.95 180.996 131.214 180.336C130.54 179.744 130.055 178.966 129.82 178.1C129.621 177.351 129.598 176.565 129.752 175.805C129.954 174.708 130.506 173.706 131.325 172.949C131.449 172.828 131.582 172.717 131.724 172.618C131.826 172.543 131.934 172.477 132.047 172.422C132.145 172.361 132.251 172.315 132.362 172.286V172.286Z" fill="#263238"/>
<path d="M120.7 149.6C120.7 149.6 120.615 149.404 120.453 149.005L119.756 147.254L119.246 145.953C119.042 145.486 118.77 145.001 118.498 144.457L117.606 142.757C117.454 142.43 117.272 142.117 117.062 141.822C116.866 141.508 116.654 141.185 116.441 140.853C114.411 137.607 111.897 134.689 108.987 132.2C105.159 128.867 100.723 126.304 95.9224 124.652L93.8994 123.972C93.2109 123.785 92.4969 123.632 91.7829 123.462L90.6949 123.216C90.3359 123.115 89.9692 123.044 89.5984 123.003L87.3374 122.706L86.1899 122.561H85.0254L82.6114 122.4C81.8209 122.4 81.0134 122.493 80.2059 122.536L78.9819 122.612C78.7779 122.612 78.5739 122.612 78.3699 122.612L77.7579 122.714C76.0933 122.938 74.4461 123.276 72.8279 123.726C71.9779 123.964 71.1279 124.151 70.3459 124.431L67.8979 125.375C67.4899 125.536 67.0479 125.672 66.6739 125.868L65.4499 126.48C64.6594 126.888 63.8434 127.27 63.0614 127.712C61.485 128.649 59.9716 129.689 58.5309 130.823L57.4344 131.673C57.2474 131.818 57.0604 131.962 56.8819 132.115L56.3804 132.6L54.3999 134.589C53.7454 135.277 53.1504 136.025 52.5214 136.748C52.2154 137.122 51.8754 137.462 51.5949 137.861L50.7449 139.051C49.6096 140.656 48.5817 142.334 47.6679 144.075C47.2599 144.976 46.8604 145.885 46.4439 146.803L46.1379 147.483C46.0529 147.721 45.9764 147.959 45.8999 148.197L45.3899 149.6L44.9054 151.036L44.5484 152.524L44.1999 154.045L44.0299 154.793C44.0299 155.048 43.9534 155.303 43.9194 155.558L43.5114 158.627C43.5114 159.655 43.4434 160.701 43.4009 161.738C43.3401 170.278 46.0678 178.604 51.1699 185.453L53.0994 187.901L55.2499 190.136L55.7854 190.689L56.3719 191.182L57.5364 192.185L58.6499 193.171L59.8994 194.021L61.1319 194.871L61.7524 195.304L62.4069 195.67L65.0419 197.2C66.8056 198.065 68.626 198.809 70.4904 199.427L71.8674 199.894C72.3264 200.056 72.8024 200.132 73.2699 200.251C74.2049 200.455 75.1314 200.71 76.0664 200.88L78.8799 201.254L79.5769 201.348H80.2824L81.6764 201.39C83.5085 201.458 85.343 201.401 87.1674 201.22C88.0684 201.118 88.9524 200.94 89.8279 200.804L91.1454 200.583C91.5874 200.506 91.9954 200.362 92.4289 200.251L94.9789 199.571C95.8289 199.308 96.5939 198.968 97.3929 198.67C98.9644 198.075 100.492 197.37 101.966 196.562L102.518 196.282C102.705 196.18 102.867 196.069 103.045 195.959L104.074 195.296C104.754 194.854 105.459 194.446 106.097 193.978L107.958 192.516L108.876 191.794L109.726 190.995L111.367 189.422C111.645 189.161 111.901 188.876 112.132 188.572L112.854 187.722C113.33 187.161 113.823 186.626 114.265 186.022L115.498 184.28C118.375 180.137 120.43 175.479 121.55 170.561C121.677 170.017 121.813 169.49 121.924 168.963C122.034 168.436 122.068 167.9 122.136 167.382C122.204 166.863 122.272 166.362 122.34 165.869C122.34 165.622 122.417 165.376 122.434 165.138V164.407C122.434 163.455 122.502 162.537 122.536 161.661C122.57 160.786 122.451 159.961 122.417 159.171L122.349 158.032C122.336 157.67 122.296 157.309 122.23 156.952C122.119 156.264 122.017 155.618 121.915 155.023C121.813 154.428 121.745 153.867 121.635 153.365C121.524 152.864 121.388 152.422 121.278 152.022C121.074 151.223 120.912 150.62 120.802 150.195C120.691 149.77 120.7 149.6 120.7 149.6C120.7 149.6 120.768 149.812 120.887 150.22C121.006 150.628 121.176 151.249 121.405 152.039L121.779 153.382C121.89 153.884 121.966 154.436 122.077 155.082L122.408 157.012C122.475 157.368 122.514 157.729 122.527 158.091C122.527 158.465 122.587 158.848 122.612 159.239C122.612 160.029 122.748 160.862 122.748 161.738C122.748 162.613 122.689 163.531 122.663 164.5V165.223C122.663 165.469 122.604 165.716 122.578 165.962L122.374 167.492C122.306 168.002 122.238 168.538 122.17 169.073C122.102 169.609 121.932 170.136 121.805 170.688C120.702 175.673 118.647 180.398 115.753 184.603L114.52 186.362C114.07 186.923 113.585 187.467 113.109 188.062L112.378 188.912C112.144 189.214 111.889 189.498 111.613 189.762L109.896 191.25C109.616 191.513 109.335 191.794 109.046 192.049L108.128 192.78L106.25 194.242C105.604 194.726 104.898 195.092 104.218 195.576L103.181 196.248L102.654 196.571L102.102 196.851C100.618 197.67 99.0787 198.383 97.4949 198.985C96.6449 199.282 95.8884 199.639 95.0554 199.894L92.5054 200.591C92.0804 200.702 91.6554 200.846 91.2134 200.931L89.8874 201.152C89.0374 201.288 88.1109 201.475 87.2014 201.577C85.3627 201.757 83.5144 201.816 81.6679 201.756L80.2569 201.713H79.5514L78.8459 201.62L76.0069 201.246C75.0634 201.076 74.1284 200.821 73.1849 200.608C72.7174 200.489 72.2329 200.413 71.7739 200.26L70.3799 199.75C68.4999 199.122 66.6628 198.373 64.8804 197.506L62.2539 196.01L61.5909 195.636L60.9704 195.202L59.7209 194.352L58.4629 193.502L57.2899 192.499L56.0999 191.454L55.5134 190.952L54.9694 190.391L52.8104 188.139C52.1559 187.289 51.5099 186.498 50.8554 185.665C45.7058 178.757 42.9539 170.355 43.0184 161.738C43.0184 160.684 43.0949 159.638 43.1289 158.593C43.1629 157.547 43.4094 156.527 43.5454 155.499C43.5454 155.244 43.6134 154.98 43.6559 154.725L43.8259 153.977L44.1829 152.464L44.5399 150.968L45.0499 149.515L45.5429 148.07L45.7894 147.356L46.1039 146.659C46.5119 145.741 46.9539 144.823 47.3364 143.913C48.2573 142.147 49.2938 140.443 50.4389 138.813L51.2889 137.615C51.5609 137.215 51.9094 136.867 52.2154 136.493C52.8529 135.762 53.4564 135.005 54.1194 134.308L56.1849 132.328L56.6949 131.835C56.8734 131.682 57.0604 131.546 57.2474 131.393L58.3524 130.543C59.799 129.408 61.3181 128.369 62.8999 127.432C63.6904 126.973 64.5234 126.582 65.3139 126.182L66.5209 125.579C66.9204 125.383 67.3709 125.247 67.7619 125.086L70.2269 124.134C71.0769 123.853 71.9269 123.666 72.7259 123.428C74.3664 122.972 76.0364 122.628 77.7239 122.4L78.3359 122.298C78.5399 122.298 78.7439 122.298 78.9564 122.298L80.1804 122.213C81.0304 122.213 81.8124 122.085 82.6114 122.085L84.9999 122.17H86.1729C86.5639 122.213 86.9464 122.272 87.3289 122.323L89.6069 122.629C89.9804 122.671 90.3499 122.742 90.7119 122.842L91.7999 123.097C92.5139 123.275 93.2364 123.42 93.9334 123.615L95.9649 124.304C100.789 125.985 105.242 128.583 109.08 131.954C111.991 134.47 114.499 137.417 116.518 140.692L117.138 141.669C117.341 141.967 117.52 142.279 117.674 142.604L118.524 144.364C118.796 144.908 119.059 145.409 119.263 145.877C119.467 146.344 119.612 146.795 119.756 147.177L120.419 148.954C120.589 149.362 120.7 149.6 120.7 149.6Z" fill="#263238"/>
<path d="M394.672 397.8C394.672 397.919 313.072 398.021 212.508 398.021C111.945 398.021 30.328 397.945 30.328 397.8C30.328 397.656 111.877 397.579 212.508 397.579C313.14 397.579 394.672 397.707 394.672 397.8Z" fill="#263238"/>
</svg>
