<svg width="300" height="300" viewBox="0 0 300 300" fill="none" xmlns="http://www.w3.org/2000/svg">
<path opacity="0.7" d="M40.758 100.254C40.758 100.254 24.03 143.454 47.538 186.954C71.046 230.454 119.466 253.434 158.22 273.084C196.974 292.734 237.216 283.164 256.338 250.98C275.46 218.796 249.234 195.822 249.198 149.928C249.162 104.034 256.068 91.8842 231.198 53.1122C206.328 14.3402 145.362 5.75422 99.258 34.5122C53.154 63.2702 40.758 100.254 40.758 100.254Z" fill="white"/>
<path d="M38.214 83.4964C54.24 52.3924 84 28.8604 121.05 25.5484C146.532 23.3265 171.929 30.674 192.288 46.1584C202.404 53.9584 211.392 63.8884 217.362 75.2224C224.214 88.2424 226.212 103.254 233.262 116.214C242.028 132.324 258.492 138.972 269.55 152.892C278.652 164.358 281.778 179.724 280.734 194.328C278.826 220.986 263.208 246.294 240.234 259.956C220.812 271.506 197.4 274.692 174.834 273.642C140.034 272.028 105.39 260.55 77.982 239.052C50.574 217.554 30.876 185.772 26.208 151.254C23.034 127.8 27.648 103.998 38.214 83.4964Z" fill="#92E3A9"/>
<path opacity="0.7" d="M38.214 83.4964C54.24 52.3924 84 28.8604 121.05 25.5484C146.532 23.3265 171.929 30.674 192.288 46.1584C202.404 53.9584 211.392 63.8884 217.362 75.2224C224.214 88.2424 226.212 103.254 233.262 116.214C242.028 132.324 258.492 138.972 269.55 152.892C278.652 164.358 281.778 179.724 280.734 194.328C278.826 220.986 263.208 246.294 240.234 259.956C220.812 271.506 197.4 274.692 174.834 273.642C140.034 272.028 105.39 260.55 77.982 239.052C50.574 217.554 30.876 185.772 26.208 151.254C23.034 127.8 27.648 103.998 38.214 83.4964Z" fill="white"/>
<path d="M27.642 94.866C28.35 97.674 28.002 92.508 29.388 86.196C30.7739 79.884 33.1559 82.44 33.1559 82.44" stroke="#263238" stroke-linecap="round" stroke-linejoin="round"/>
<path d="M27.2099 88.4159L31.5599 86.6339" stroke="#263238" stroke-linecap="round" stroke-linejoin="round"/>
<path d="M35.154 84.4922C35.154 84.4922 32.556 89.8922 36.474 92.1602" stroke="#263238" stroke-linecap="round" stroke-linejoin="round"/>
<path d="M38.844 82.9801C38.844 82.9801 43.14 85.3801 40.452 90.5281" stroke="#263238" stroke-linecap="round" stroke-linejoin="round"/>
<path d="M35.9039 86.3162L38.9819 88.5602" stroke="#263238" stroke-linecap="round" stroke-linejoin="round"/>
<path d="M38.3159 85.326L35.9099 89.1601" stroke="#263238" stroke-linecap="round" stroke-linejoin="round"/>
<path d="M52.1382 142.79C52.7237 139.223 50.3062 135.856 46.7387 135.271C43.1712 134.685 39.8045 137.103 39.219 140.67C38.6335 144.238 41.0509 147.604 44.6185 148.19C48.186 148.775 51.5527 146.358 52.1382 142.79Z" stroke="#263238" stroke-linecap="round" stroke-linejoin="round"/>
<path d="M56.0211 151.403C59.9489 150.597 62.48 146.76 61.6744 142.832C60.8689 138.904 57.0317 136.373 53.1039 137.179C49.1761 137.984 46.6449 141.821 47.4505 145.749C48.2561 149.677 52.0932 152.208 56.0211 151.403Z" stroke="#263238" stroke-linecap="round" stroke-linejoin="round"/>
<path d="M51.642 139.026L48.63 140.1" stroke="#263238" stroke-linecap="round" stroke-linejoin="round"/>
<path d="M52.062 140.268L47.73 141.834" stroke="#263238" stroke-linecap="round" stroke-linejoin="round"/>
<path d="M52.224 141.768L47.388 143.628" stroke="#263238" stroke-linecap="round" stroke-linejoin="round"/>
<path d="M51.8819 143.814L47.4719 145.83" stroke="#263238" stroke-linecap="round" stroke-linejoin="round"/>
<path d="M51.1019 145.386L47.7539 146.778" stroke="#263238" stroke-linecap="round" stroke-linejoin="round"/>
<path d="M48.84 131.754C48.654 131.154 46.53 130.782 46.44 132.354C46.35 133.926 48.678 132.618 49.338 131.754C49.338 131.754 48.138 133.368 48.642 133.686" stroke="#263238" stroke-linecap="round" stroke-linejoin="round"/>
<path d="M60.5999 133.71L58.7159 137.628C58.7159 137.628 59.6579 135.666 60.6659 135.828C61.9079 136.05 61.0799 138.084 59.5799 137.334" stroke="#263238" stroke-linecap="round" stroke-linejoin="round"/>
<path d="M265.626 197.682L268.584 200.478" stroke="#263238" stroke-linecap="round" stroke-linejoin="round"/>
<path d="M268.584 196.95L266.106 200.652" stroke="#263238" stroke-linecap="round" stroke-linejoin="round"/>
<path d="M271.494 198.012L274.458 196.908" stroke="#263238" stroke-linecap="round" stroke-linejoin="round"/>
<path d="M275.88 193.824L277.68 195.414" stroke="#263238" stroke-linecap="round" stroke-linejoin="round"/>
<path d="M279.06 191.91L276.78 199.734" stroke="#263238" stroke-linecap="round" stroke-linejoin="round"/>
<path d="M140.982 153.732L148.944 148.254L159.486 148.992L160.146 162.36L152.406 167.892L142.854 167.196L140.982 153.732Z" stroke="#263238" stroke-linecap="round" stroke-linejoin="round"/>
<path d="M142.854 167.196L150.564 161.646L160.146 162.36" stroke="#263238" stroke-linecap="round" stroke-linejoin="round"/>
<path d="M150.564 161.646L148.944 148.254" stroke="#263238" stroke-linecap="round" stroke-linejoin="round"/>
<path d="M140.982 153.732L151.5 154.95L159.486 148.992" stroke="#263238" stroke-linecap="round" stroke-linejoin="round"/>
<path d="M151.5 154.95L152.406 167.892" stroke="#263238" stroke-linecap="round" stroke-linejoin="round"/>
<path d="M233.91 108.822L230.382 119.784L241.362 118.302L233.91 108.822Z" stroke="#263238" stroke-linecap="round" stroke-linejoin="round"/>
<path d="M233.91 108.822L235.872 118.98" stroke="#263238" stroke-linecap="round" stroke-linejoin="round"/>
<path d="M235.56 117.354L236.844 117.15L237.144 118.872" stroke="#263238" stroke-linecap="round" stroke-linejoin="round"/>
<path d="M95.6339 209.136L101.118 211.83" stroke="#263238" stroke-linecap="round" stroke-linejoin="round"/>
<path d="M99.3479 207.078L97.7759 212.808" stroke="#263238" stroke-linecap="round" stroke-linejoin="round"/>
<path d="M100.11 204.282C100.2 204.189 100.31 204.118 100.433 204.076C100.555 204.033 100.685 204.019 100.814 204.036C100.942 204.053 101.065 204.1 101.172 204.173C101.279 204.246 101.367 204.343 101.43 204.456C101.982 205.32 100.902 207.132 100.902 207.132L103.104 206.292" stroke="#263238" stroke-linecap="round" stroke-linejoin="round"/>
<path d="M138.69 20.4C143.928 23.346 137.928 30.546 137.928 34.746C137.928 38.946 143.928 38.346 146.928 39.546C148.128 39.546 150.528 39.546 150.462 42.594" stroke="#263238" stroke-linecap="round" stroke-linejoin="round"/>
<path d="M132.852 24.2219C133.764 29.1839 139.452 27.4259 142.944 28.5599C148.944 30.5099 145.614 36.7019 143.826 40.4459C142.752 42.6779 141.684 45.8099 143.604 47.9279" stroke="#263238" stroke-linecap="round" stroke-linejoin="round"/>
<path d="M133.62 26.1483L139.866 20.9583" stroke="#263238" stroke-linecap="round" stroke-linejoin="round"/>
<path d="M136.068 27.6959L140.772 23.7959" stroke="#263238" stroke-linecap="round" stroke-linejoin="round"/>
<path d="M138.834 31.644L142.806 28.524" stroke="#263238" stroke-linecap="round" stroke-linejoin="round"/>
<path d="M138.012 36.3122L145.776 30.7322" stroke="#263238" stroke-linecap="round" stroke-linejoin="round"/>
<path d="M140.988 38.4898L146.4 34.5178" stroke="#263238" stroke-linecap="round" stroke-linejoin="round"/>
<path d="M143.292 46.9321L150.054 41.4241" stroke="#263238" stroke-linecap="round" stroke-linejoin="round"/>
<path d="M143.46 42.5999L147.87 39.4979" stroke="#263238" stroke-linecap="round" stroke-linejoin="round"/>
<path d="M55.1706 212.125C61.6133 209.548 64.7471 202.236 62.1702 195.794C59.5933 189.351 52.2815 186.217 45.8389 188.794C39.3962 191.371 36.2623 198.683 38.8392 205.125C41.4161 211.568 48.7279 214.702 55.1706 212.125Z" stroke="#263238" stroke-linecap="round" stroke-linejoin="round"/>
<path d="M53.664 188.304C58.044 183.162 61.77 180.252 63.204 181.2C65.388 182.634 61.47 192.426 54.456 203.064C47.442 213.702 39.984 221.166 37.8 219.726C36.36 218.784 37.572 214.212 40.572 208.158" stroke="#263238" stroke-linecap="round" stroke-linejoin="round"/>
<path d="M38.2079 203.04C32.0999 201.282 28.1999 199.23 28.4459 197.592C28.7999 195 39.3539 194.4 51.9599 196.29C64.5659 198.18 74.4779 201.762 74.0999 204.342C73.8299 206.142 68.6999 206.964 61.4099 206.688" stroke="#263238" stroke-linecap="round" stroke-linejoin="round"/>
<path d="M39.8099 193.938C35.2019 185.622 32.8979 179.136 34.4579 178.122C36.5099 176.796 44.4419 185.4 52.1759 197.322C59.9099 209.244 64.5119 220.02 62.4659 221.352C61.1099 222.228 57.1799 218.76 52.4339 212.856" stroke="#263238" stroke-linecap="round" stroke-linejoin="round"/>
<path d="M64.974 186.636C64.7503 186.977 64.4305 187.244 64.0551 187.404C63.6796 187.563 63.2653 187.608 62.8645 187.532C62.4637 187.456 62.0944 187.263 61.8031 186.978C61.5119 186.692 61.3118 186.327 61.2281 185.927C61.1444 185.528 61.1809 185.113 61.3329 184.735C61.4849 184.356 61.7457 184.031 62.0823 183.801C62.4189 183.57 62.8162 183.445 63.2241 183.44C63.632 183.435 64.0321 183.551 64.374 183.774C64.6017 183.922 64.7979 184.114 64.9514 184.338C65.1048 184.562 65.2125 184.814 65.2683 185.08C65.324 185.346 65.3267 185.62 65.2762 185.887C65.2257 186.154 65.123 186.409 64.974 186.636Z" fill="#263238"/>
<path d="M58.1399 218.25C57.9162 218.591 57.5964 218.858 57.221 219.018C56.8455 219.177 56.4313 219.222 56.0305 219.146C55.6297 219.07 55.2603 218.877 54.9691 218.592C54.6778 218.306 54.4777 217.941 54.394 217.541C54.3103 217.142 54.3468 216.727 54.4988 216.349C54.6509 215.97 54.9116 215.645 55.2482 215.415C55.5848 215.184 55.9822 215.059 56.39 215.054C56.7979 215.049 57.198 215.165 57.5399 215.388C57.7676 215.536 57.9638 215.728 58.1173 215.952C58.2708 216.176 58.3784 216.428 58.4342 216.694C58.4899 216.96 58.4926 217.235 58.4421 217.501C58.3916 217.768 58.2889 218.023 58.1399 218.25Z" fill="#263238"/>
<path d="M47.112 196.8C46.8883 197.141 46.5685 197.408 46.1931 197.568C45.8176 197.727 45.4033 197.772 45.0025 197.696C44.6018 197.62 44.2324 197.427 43.9412 197.142C43.6499 196.856 43.4498 196.491 43.3661 196.091C43.2824 195.692 43.3189 195.277 43.4709 194.899C43.6229 194.52 43.8837 194.195 44.2203 193.965C44.5569 193.734 44.9542 193.609 45.3621 193.604C45.77 193.599 46.1701 193.715 46.512 193.938C46.9706 194.238 47.2913 194.708 47.4038 195.245C47.5163 195.781 47.4114 196.341 47.112 196.8Z" fill="#263238"/>
<path d="M178.698 106.992H185.766L189.3 100.872L185.766 94.7521H178.698L175.164 100.872L178.698 106.992Z" stroke="#263238" stroke-linecap="round" stroke-linejoin="round"/>
<path d="M177.672 120.426L174.138 114.306H167.07" stroke="#263238" stroke-linecap="round" stroke-linejoin="round"/>
<path d="M168.018 100.872H175.086L178.62 94.7521L175.086 88.6261H168.018L164.484 94.7521L168.018 100.872Z" stroke="#263238" stroke-linecap="round" stroke-linejoin="round"/>
<path d="M178.698 94.7522H185.766L189.3 88.6262L185.766 82.5062H178.698L175.164 88.6262L178.698 94.7522Z" stroke="#263238" stroke-linecap="round" stroke-linejoin="round"/>
<path d="M178.62 95.7001C179.143 95.7001 179.568 95.2757 179.568 94.7521C179.568 94.2285 179.143 93.8041 178.62 93.8041C178.096 93.8041 177.672 94.2285 177.672 94.7521C177.672 95.2757 178.096 95.7001 178.62 95.7001Z" fill="#263238"/>
<path d="M163.86 82.848C164.384 82.848 164.808 82.4236 164.808 81.9C164.808 81.3765 164.384 80.952 163.86 80.952C163.336 80.952 162.912 81.3765 162.912 81.9C162.912 82.4236 163.336 82.848 163.86 82.848Z" fill="#263238"/>
<path d="M176.724 120.426C176.724 120.239 176.78 120.055 176.884 119.899C176.988 119.743 177.136 119.622 177.309 119.55C177.482 119.478 177.673 119.46 177.857 119.496C178.041 119.533 178.21 119.623 178.342 119.756C178.475 119.888 178.565 120.057 178.602 120.241C178.638 120.425 178.62 120.616 178.548 120.789C178.476 120.962 178.355 121.11 178.199 121.214C178.043 121.318 177.859 121.374 177.672 121.374C177.547 121.374 177.424 121.35 177.309 121.302C177.194 121.254 177.09 121.184 177.002 121.096C176.914 121.008 176.844 120.904 176.796 120.789C176.748 120.674 176.724 120.551 176.724 120.426Z" fill="#263238"/>
<path d="M167.07 115.254C167.593 115.254 168.018 114.829 168.018 114.306C168.018 113.782 167.593 113.358 167.07 113.358C166.546 113.358 166.122 113.782 166.122 114.306C166.122 114.829 166.546 115.254 167.07 115.254Z" fill="#263238"/>
<path d="M196.14 88.7999C196.14 88.611 196.196 88.4263 196.301 88.2693C196.406 88.1123 196.556 87.99 196.73 87.918C196.905 87.846 197.097 87.8274 197.282 87.8647C197.468 87.902 197.637 87.9935 197.771 88.1275C197.904 88.2615 197.994 88.4321 198.03 88.6175C198.066 88.803 198.047 88.995 197.974 89.1692C197.9 89.3434 197.777 89.492 197.62 89.5961C197.462 89.7002 197.277 89.7551 197.088 89.7539C196.963 89.7539 196.839 89.7292 196.724 89.6812C196.608 89.6332 196.504 89.5628 196.415 89.4741C196.327 89.3855 196.258 89.2803 196.21 89.1646C196.163 89.0488 196.139 88.9249 196.14 88.7999Z" fill="#263238"/>
<path d="M174.066 115.254C174.59 115.254 175.014 114.829 175.014 114.306C175.014 113.782 174.59 113.358 174.066 113.358C173.542 113.358 173.118 113.782 173.118 114.306C173.118 114.829 173.542 115.254 174.066 115.254Z" fill="#263238"/>
<path d="M188.352 88.7999C188.352 88.6113 188.408 88.4268 188.513 88.2699C188.617 88.113 188.766 87.9908 188.941 87.9186C189.115 87.8464 189.307 87.8275 189.492 87.8643C189.677 87.9011 189.847 87.9919 189.98 88.1254C190.114 88.2588 190.205 88.4288 190.242 88.6138C190.278 88.7989 190.259 88.9907 190.187 89.165C190.115 89.3393 189.993 89.4883 189.836 89.5932C189.679 89.698 189.495 89.7539 189.306 89.7539C189.053 89.7539 188.81 89.6534 188.631 89.4745C188.452 89.2956 188.352 89.053 188.352 88.7999Z" fill="#263238"/>
<path d="M177.672 106.998C177.671 106.809 177.726 106.624 177.83 106.466C177.935 106.308 178.083 106.185 178.258 106.112C178.433 106.039 178.625 106.02 178.811 106.056C178.996 106.093 179.167 106.184 179.3 106.318C179.434 106.451 179.525 106.622 179.562 106.807C179.598 106.993 179.579 107.185 179.506 107.36C179.433 107.535 179.31 107.683 179.152 107.788C178.994 107.892 178.809 107.947 178.62 107.946C178.369 107.945 178.129 107.844 177.951 107.667C177.774 107.489 177.673 107.249 177.672 106.998Z" fill="#263238"/>
<path d="M189.306 88.7881H197.088" stroke="#263238" stroke-linecap="round" stroke-linejoin="round"/>
<path d="M178.62 106.998L174.066 114.306" stroke="#263238" stroke-linecap="round" stroke-linejoin="round"/>
<path d="M168.018 88.626L163.86 81.9" stroke="#263238" stroke-linecap="round" stroke-linejoin="round"/>
<path d="M218.148 64.5001C218.963 61.7446 220.662 59.3338 222.983 57.6396C225.304 55.9454 228.118 55.0619 230.991 55.1254C233.864 55.1888 236.636 56.1957 238.88 57.9908C241.124 59.7858 242.715 62.2693 243.408 65.0581" stroke="#263238" stroke-linecap="round" stroke-linejoin="round"/>
<path d="M229.2 81.204C226.008 80.8387 223.061 79.3116 220.922 76.9138C218.784 74.516 217.602 71.4151 217.602 68.202" stroke="#263238" stroke-linecap="round" stroke-linejoin="round"/>
<path d="M243.786 68.202C243.786 71.6716 242.408 74.9992 239.955 77.4531C237.502 79.907 234.176 81.2864 230.706 81.288" stroke="#263238" stroke-linecap="round" stroke-linejoin="round"/>
<path d="M244.53 59.9041C248.622 59.3821 251.364 59.6641 251.79 60.8881C252.636 63.3241 243.882 68.5741 232.236 72.6181C220.59 76.6621 210.468 77.9581 209.616 75.5161C209.166 74.2141 211.458 72.1081 215.466 69.8101" stroke="#263238" stroke-linecap="round" stroke-linejoin="round"/>
<path d="M174.066 50.9401L175.32 53.4781L178.122 53.8861L176.094 55.8661L176.574 58.6561L174.066 57.3361L171.558 58.6561L172.038 55.8661L170.01 53.8861L172.812 53.4781L174.066 50.9401Z" stroke="#263238" stroke-linecap="round" stroke-linejoin="round"/>
<path d="M85.4819 44.1781C85.4804 46.4346 84.5837 48.5984 82.9886 50.1945C81.3936 51.7907 79.2305 52.6889 76.9739 52.6921C76.6979 52.6921 76.4279 52.6801 76.1639 52.6561C74.5218 52.5003 72.9602 51.8709 71.6691 50.8442C70.3779 49.8176 69.4128 48.438 68.8911 46.8731C68.3693 45.3083 68.3134 43.6255 68.7301 42.0295C69.1467 40.4334 70.0181 38.9928 71.2382 37.8827C72.4583 36.7726 73.9746 36.0408 75.6028 35.7763C77.231 35.5118 78.901 35.726 80.4098 36.3928C81.9185 37.0597 83.2011 38.1504 84.1015 39.5325C85.002 40.9146 85.4815 42.5285 85.4819 44.1781V44.1781Z" stroke="#263238" stroke-linecap="round" stroke-linejoin="round"/>
<path d="M84.12 45.714C84.1212 45.9753 84.0448 46.2311 83.9004 46.449C83.7561 46.6669 83.5504 46.837 83.3093 46.9378C83.0682 47.0386 82.8026 47.0656 82.5462 47.0154C82.2897 46.9651 82.0539 46.8399 81.8687 46.6555C81.6835 46.4712 81.5572 46.236 81.5058 45.9798C81.4544 45.7235 81.4802 45.4578 81.5799 45.2163C81.6796 44.9747 81.8488 44.7682 82.066 44.6229C82.2832 44.4776 82.5387 44.4 82.8 44.4C83.149 44.4 83.4839 44.5383 83.7312 44.7845C83.9786 45.0308 84.1184 45.365 84.12 45.714V45.714Z" stroke="#263238" stroke-linecap="round" stroke-linejoin="round"/>
<path d="M72.27 49.0624C72.2705 49.3751 72.2019 49.6841 72.0691 49.9672C71.9363 50.2504 71.7427 50.5007 71.502 50.7004C70.3831 49.7768 69.5214 48.5803 69 47.2264C69.3301 47.0236 69.7106 46.9176 70.098 46.9204C70.3818 46.9164 70.6636 46.9689 70.9269 47.0747C71.1903 47.1806 71.43 47.3377 71.632 47.537C71.8341 47.7363 71.9946 47.9738 72.1041 48.2357C72.2136 48.4975 72.27 48.7785 72.27 49.0624Z" stroke="#263238" stroke-linecap="round" stroke-linejoin="round"/>
<path d="M82.7999 50.3999C81.2265 51.8901 79.141 52.7191 76.9739 52.7159C76.6979 52.7159 76.4279 52.7039 76.1639 52.6799C76.1156 52.449 76.0915 52.2138 76.0919 51.9779C76.0923 51.1803 76.3621 50.4061 76.8575 49.781C77.3529 49.1558 78.0449 48.7163 78.8213 48.5336C79.5978 48.351 80.4131 48.4359 81.1353 48.7746C81.8574 49.1134 82.444 49.6861 82.7999 50.3999V50.3999Z" stroke="#263238" stroke-linecap="round" stroke-linejoin="round"/>
<path d="M74.9099 40.7997C75.9902 40.7997 76.8659 39.924 76.8659 38.8437C76.8659 37.7634 75.9902 36.8877 74.9099 36.8877C73.8297 36.8877 72.9539 37.7634 72.9539 38.8437C72.9539 39.924 73.8297 40.7997 74.9099 40.7997Z" stroke="#263238" stroke-linecap="round" stroke-linejoin="round"/>
<path d="M76.7219 44.3999C76.7219 44.5791 76.6688 44.7543 76.5692 44.9032C76.4697 45.0522 76.3282 45.1684 76.1626 45.2369C75.9971 45.3055 75.8149 45.3235 75.6392 45.2885C75.4634 45.2535 75.302 45.1672 75.1753 45.0405C75.0486 44.9138 74.9623 44.7524 74.9273 44.5767C74.8924 44.4009 74.9103 44.2187 74.9789 44.0532C75.0475 43.8876 75.1636 43.7461 75.3126 43.6466C75.4616 43.547 75.6367 43.4939 75.8159 43.4939C75.9349 43.4939 76.0527 43.5173 76.1626 43.5629C76.2726 43.6084 76.3724 43.6751 76.4566 43.7593C76.5407 43.8434 76.6074 43.9433 76.653 44.0532C76.6985 44.1631 76.7219 44.2809 76.7219 44.3999Z" stroke="#263238" stroke-linecap="round" stroke-linejoin="round"/>
<path d="M83.88 39.2097C83.6419 39.2878 83.3925 39.3263 83.142 39.3237C82.8145 39.3237 82.4902 39.2591 82.1877 39.1336C81.8852 39.0081 81.6104 38.8242 81.3791 38.5923C81.1479 38.3605 80.9646 38.0853 80.8398 37.7825C80.715 37.4797 80.6512 37.1552 80.652 36.8277C80.6458 36.7238 80.6458 36.6197 80.652 36.5157C81.9371 37.1285 83.0472 38.0549 83.88 39.2097V39.2097Z" stroke="#263238" stroke-linecap="round" stroke-linejoin="round"/>
<path d="M279.51 142.974L280.428 140.91L278.94 140.094C278.995 139.731 279.005 139.362 278.97 138.996L280.494 138.252L279.684 136.146L278.052 136.614C277.833 136.32 277.579 136.054 277.296 135.822L277.854 134.214L275.79 133.296L274.968 134.784C274.603 134.739 274.235 134.739 273.87 134.784L273.132 133.26L271.02 134.07L271.494 135.696C271.2 135.918 270.932 136.174 270.696 136.458L269.094 135.9L268.2 137.934L269.688 138.756C269.633 139.119 269.623 139.488 269.658 139.854L268.128 140.592L268.938 142.704L270.57 142.23C270.79 142.524 271.044 142.792 271.326 143.028L270.774 144.63L272.838 145.548L273.654 144.06C274.017 144.115 274.386 144.125 274.752 144.09L275.496 145.62L277.602 144.81L277.134 143.178C277.426 142.958 277.692 142.704 277.926 142.422L279.51 142.974ZM273.234 141.822C272.76 141.611 272.359 141.265 272.083 140.826C271.806 140.388 271.665 139.877 271.678 139.359C271.692 138.841 271.858 138.338 272.157 137.914C272.456 137.491 272.874 137.165 273.358 136.979C273.842 136.793 274.37 136.754 274.876 136.868C275.382 136.982 275.842 137.244 276.2 137.62C276.557 137.995 276.795 138.469 276.883 138.98C276.971 139.49 276.906 140.016 276.696 140.49C276.412 141.125 275.889 141.621 275.24 141.871C274.591 142.121 273.87 142.103 273.234 141.822V141.822Z" stroke="#263238" stroke-linecap="round" stroke-linejoin="round"/>
<path d="M268.542 153.564L269.79 150.762L267.774 149.646C267.846 149.153 267.858 148.654 267.81 148.158L269.886 147.15L268.8 144.288L266.586 144.93C266.29 144.529 265.945 144.166 265.56 143.85L266.316 141.666L263.49 140.4L262.38 142.416C261.887 142.345 261.388 142.331 260.892 142.374L259.884 140.304L257.016 141.408L257.658 143.616C257.259 143.917 256.897 144.264 256.578 144.648L254.4 143.916L253.152 146.718L255.168 147.834C255.096 148.327 255.084 148.826 255.132 149.322L253.056 150.33L254.16 153.192L256.374 152.556C256.671 152.956 257.016 153.318 257.4 153.636L256.644 155.814L259.452 157.062L260.562 155.04C261.054 155.114 261.554 155.128 262.05 155.082L263.058 157.152L265.926 156.054L265.284 153.84C265.682 153.541 266.045 153.197 266.364 152.814L268.542 153.564ZM260.022 151.998C259.378 151.711 258.833 151.239 258.457 150.643C258.082 150.046 257.891 149.352 257.91 148.647C257.929 147.942 258.156 147.259 258.564 146.683C258.971 146.108 259.54 145.666 260.199 145.414C260.857 145.162 261.576 145.111 262.263 145.268C262.951 145.424 263.577 145.781 264.061 146.293C264.546 146.805 264.868 147.45 264.986 148.145C265.104 148.84 265.014 149.554 264.726 150.198C264.536 150.625 264.263 151.011 263.923 151.333C263.584 151.655 263.184 151.906 262.747 152.074C262.31 152.241 261.845 152.32 261.377 152.307C260.909 152.294 260.449 152.189 260.022 151.998Z" stroke="#263238" stroke-linecap="round" stroke-linejoin="round"/>
<path d="M144.163 126.966C143.34 128.524 142.412 130.023 141.385 131.454C136.054 138.865 128.221 144.097 119.333 146.183C110.444 148.269 101.102 147.067 93.0307 142.8C92.1967 142.362 91.3807 141.894 90.6007 141.402C89.8207 140.91 89.0587 140.406 88.3267 139.866C87.4387 139.224 86.5867 138.54 85.7707 137.826C85.7185 137.787 85.6703 137.742 85.6267 137.694C80.3097 132.988 76.4235 126.882 74.412 120.073C72.4006 113.264 72.3451 106.026 74.2518 99.1867C76.1586 92.3474 79.9507 86.1824 85.1949 81.3959C90.4391 76.6095 96.924 73.3947 103.909 72.1189C110.893 70.843 118.096 71.5576 124.693 74.1809C131.291 76.8042 137.018 81.2305 141.219 86.954C145.421 92.6776 147.928 99.4675 148.454 106.548C148.979 113.629 147.503 120.715 144.193 126.996L144.163 126.966Z" fill="#92E3A9"/>
<g opacity="0.6">
<path opacity="0.6" d="M144.162 126.966C143.34 128.524 142.412 130.023 141.384 131.454L140.652 130.854L139.392 130.188L138.066 129.492L138.288 127.89L138.216 126.444C138.138 124.998 139.182 126.18 140.016 125.742C140.667 125.277 141.192 124.659 141.546 123.942C141.546 123.942 142.146 122.016 141.948 121.242C141.625 120.35 141.244 119.48 140.808 118.638L138.66 121.638L136.86 121.5L135.156 120.6L134.934 118.23L134.058 117.774L133.692 116.412L128.958 115.086L128.418 114.138C127.878 113.19 125.7 112.704 125.7 112.704L126.234 111.468L127.074 110.088C127.92 108.708 128.796 111 128.796 111L129.798 111.522L131.658 109.962L132.15 107.724L135.18 107.898C135.121 107.595 135.167 107.281 135.311 107.008C135.455 106.735 135.688 106.52 135.972 106.398C136.98 106.002 136.536 103.812 136.152 103.002C135.768 102.192 134.352 102.846 134.352 102.846C134.352 102.846 132.81 100.5 132.6 99.5638C132.39 98.6278 135.54 98.9638 136.89 98.0218C138.24 97.0798 137.778 95.2078 137.118 95.1658C136.458 95.1238 138.408 90.9058 142.158 92.0638C143.202 92.3878 143.862 92.2738 144.27 91.9138C147.084 97.331 148.543 103.349 148.525 109.453C148.506 115.557 147.009 121.566 144.162 126.966Z" fill="white"/>
<path opacity="0.6" d="M117.924 110.736L116.64 112.35C116.64 112.35 116.094 111.048 115.314 111.75L114.114 112.818L113.244 115.254L111.684 116.262L110.73 115.764L109.83 115.284L108.852 114.768L107.916 116.568L107.154 118.008C107.525 118.715 107.987 119.37 108.528 119.958L110.184 122.88L112.2 123.9C113.041 123.931 113.878 124.031 114.702 124.2L116.088 124.926L115.596 127.926C115.596 127.926 114.552 129.624 113.856 129.156L113.154 128.694L112.014 132.642L111.966 134.814C111.966 134.814 111.288 135.096 110.604 135.324C109.92 135.552 110.352 135.432 108.918 135.876C107.484 136.32 107.598 136.302 106.434 136.632C105.442 136.979 104.487 137.425 103.584 137.964L103.686 140.052L100.944 140.454L99.4081 139.638L99.7861 138.318L99.9661 136.254L99.7561 134.712L99.0961 133.35L100.944 131.676L100.536 130.626L99.4861 128.538L97.2661 129.738L96.1261 130.338L93.5461 129.18L93.2641 127.614L92.4001 124.8L91.5961 123.048L90.1681 121.116L89.8081 119.454L90.6121 117.93L91.0381 117.126L89.7241 115.356L89.3641 114.096L87.1501 112.086C87.1501 112.086 87.7921 112.044 87.6481 111.15C87.5041 110.256 88.9141 108.75 88.9141 108.75C89.7121 109.17 92.1061 110.838 92.1061 110.838L94.2001 111.126C94.2001 111.126 94.6201 111.126 95.0281 110.334C95.5046 109.605 96.0644 108.935 96.6961 108.336C96.6961 108.336 95.7301 104.982 96.4201 104.532C97.1101 104.082 97.8121 101.886 97.8121 101.886L98.3641 100.836C98.3641 100.836 97.0621 100.266 96.8161 99.5758C96.5701 98.8858 93.3601 99.8038 93.3601 99.8038L91.1461 101.34L89.4001 102.69L88.6441 104.124C88.6441 104.124 87.1021 102.27 87.0961 103.308C86.9784 104.372 86.745 105.42 86.4001 106.434C86.4001 106.434 86.7181 106.602 86.2981 107.406C85.8781 108.21 85.4221 108.168 84.4981 108.282C83.2935 108.294 82.0898 108.212 80.8981 108.036C80.8981 108.036 80.2981 110.256 80.7121 110.64L81.1201 111.012C81.1201 111.012 80.4781 112.626 79.8421 112.29L78.2941 111.474L76.1281 112.35L73.7281 115.002L73.1941 114.894C71.7232 105.028 74.2065 94.9802 80.1041 86.9355C86.0017 78.8907 94.8367 73.4994 104.688 71.9338C104.826 72.5338 104.976 73.0978 104.976 73.0978L104.376 76.0618L103.608 77.5258L102.948 78.7798L102.018 80.5438L104.4 82.7398L103.89 85.3378L102.6 86.1478L102.228 88.0978L104.442 92.4238L105.042 94.1218C104.672 94.9347 104.489 95.8207 104.508 96.7138C104.508 96.7138 104.778 98.3338 105.96 98.9758C107.142 99.6178 108.696 100.374 108.696 100.374L108.57 102.774L108.036 103.374L108.924 105.96C111.63 107.022 111.372 107.91 111.63 107.022L111.894 106.14L113.736 105.474L116.082 108.276C116.355 108.272 116.625 108.337 116.866 108.465C117.107 108.593 117.312 108.78 117.462 109.008C118.146 109.872 119.214 109.122 117.924 110.736Z" fill="white"/>
<path opacity="0.6" d="M86.124 131.634C86.19 132.486 85.11 133.554 85.11 133.554L85.992 134.016L86.262 136.416L85.596 137.688C80.8768 133.519 77.2772 128.234 75.126 122.316L75.606 119.772L77.724 119.472C77.724 119.472 79.62 118.212 80.46 118.548C81.3 118.884 82.068 120.948 82.068 120.948C82.068 120.948 82.668 123.732 82.59 123.678H82.554H82.602L83.466 124.134L83.712 125.232L82.512 127.512H80.58C80.58 127.512 80.196 127.308 80.16 128.31C80.1913 128.657 80.297 128.994 80.4698 129.298C80.6427 129.601 80.8788 129.864 81.162 130.068L83.25 129.534L83.808 127.374L85.86 126.972C85.86 126.972 85.566 128.298 86.046 128.55L86.532 128.808L86.82 130.392C86.6051 130.519 86.4276 130.701 86.3054 130.919C86.1832 131.137 86.1206 131.384 86.124 131.634Z" fill="white"/>
<path opacity="0.6" d="M96.048 135.03C95.862 134.514 95.784 134.064 94.506 133.392C93.228 132.72 93.306 132.96 92.802 133.518C92.585 133.805 92.2886 134.022 91.9495 134.143C91.6105 134.263 91.2435 134.282 90.894 134.196C90.054 134.01 90.492 134.958 90.492 134.958L90.696 137.52L88.326 139.86C89.058 140.4 89.816 140.912 90.6 141.396L91.104 139.848L95.04 141C94.206 140.754 94.698 139.614 94.698 139.614L93.858 139.17C93.858 139.17 96.234 135.534 96.048 135.03Z" fill="white"/>
<path opacity="0.6" d="M120.84 121.71L119.55 120.408L118.074 120.87L117.474 122.07L117.024 122.934L117.624 124.134L118.824 125.592L119.508 124.284C119.508 124.284 121.41 124.284 122.406 123.186C123.402 122.088 120.84 121.71 120.84 121.71Z" fill="white"/>
<path opacity="0.6" d="M117.048 115.836L119.448 117.096L119.544 116.532C119.669 116.08 119.89 115.66 120.192 115.302L118.356 113.358L117.048 115.836Z" fill="white"/>
<path opacity="0.6" d="M116.232 143.766L115.542 142.752L114.738 142.332H112.284L110.886 144.984C110.886 144.984 109.548 144.804 107.79 144.648C106.032 144.492 106.464 145.218 106.464 145.218L106.008 146.886C110.444 147.432 114.941 147.19 119.292 146.172C118.786 145.819 118.261 145.495 117.72 145.2L116.232 143.766Z" fill="white"/>
</g>
<path d="M144.163 126.966C143.34 128.524 142.412 130.023 141.385 131.454C136.054 138.865 128.221 144.097 119.333 146.183C110.445 148.269 101.102 147.067 93.0307 142.8C92.1967 142.362 91.3807 141.894 90.6007 141.402C89.8207 140.91 89.0587 140.406 88.3267 139.866C87.4387 139.224 86.5867 138.54 85.7707 137.826C85.7185 137.787 85.6703 137.742 85.6267 137.694V137.694C80.3097 132.988 76.4235 126.882 74.412 120.073C72.4006 113.264 72.3451 106.026 74.2518 99.1867C76.1586 92.3474 79.9507 86.1824 85.1949 81.3959C90.4391 76.6095 96.924 73.3947 103.909 72.1189C110.893 70.843 118.096 71.5576 124.693 74.1809C131.291 76.8042 137.018 81.2305 141.219 86.954C145.421 92.6776 147.928 99.4675 148.454 106.548C148.979 113.629 147.503 120.715 144.193 126.996L144.163 126.966Z" stroke="#263238" stroke-linecap="round" stroke-linejoin="round"/>
<path d="M119.292 146.172C114.941 147.19 110.444 147.432 106.008 146.886L106.464 145.218C106.464 145.218 106.032 144.492 107.79 144.648C109.548 144.804 110.886 144.984 110.886 144.984L112.284 142.332H114.738L115.542 142.752L116.232 143.766L117.72 145.2C118.261 145.495 118.786 145.819 119.292 146.172Z" stroke="#263238" stroke-linecap="round" stroke-linejoin="round"/>
<path d="M144.294 91.9197C143.886 92.2797 143.226 92.3937 142.182 92.0697C138.432 90.9117 136.488 95.1237 137.142 95.1717C137.796 95.2197 138.258 97.1157 136.914 98.0277C135.57 98.9397 132.414 98.6277 132.624 99.5697C132.834 100.512 134.376 102.852 134.376 102.852C134.376 102.852 135.756 102.204 136.146 103.008C136.536 103.812 136.98 106.008 135.972 106.404C135.688 106.525 135.455 106.741 135.311 107.014C135.167 107.287 135.121 107.601 135.18 107.904L132.15 107.73L131.658 109.968L129.798 111.528L128.796 111.006C128.796 111.006 127.92 108.714 127.074 110.094L126.234 111.474L125.7 112.71C125.7 112.71 127.878 113.196 128.418 114.144L128.958 115.092L133.692 116.418L134.058 117.78L134.934 118.236L135.156 120.606L136.92 121.53L138.72 121.668L140.868 118.668C141.304 119.51 141.685 120.38 142.008 121.272C142.218 122.046 141.606 123.972 141.606 123.972C141.252 124.688 140.727 125.307 140.076 125.772C139.218 126.21 138.168 125.028 138.276 126.474L138.348 127.92L138.126 129.522L139.452 130.218L140.712 130.884L141.444 131.484" stroke="#263238" stroke-linecap="round" stroke-linejoin="round"/>
<path d="M73.2421 114.894L73.7761 115.002L76.1761 112.35L78.3421 111.474L79.8901 112.29C80.5261 112.626 81.1681 111.012 81.1681 111.012L80.7601 110.64C80.3461 110.256 80.9461 108.036 80.9461 108.036C82.1379 108.212 83.3415 108.294 84.5461 108.282C85.4941 108.168 85.9441 108.204 86.3461 107.406C86.7481 106.608 86.4481 106.434 86.4481 106.434C86.7931 105.42 87.0265 104.372 87.1441 103.308C87.1441 102.27 88.6921 104.124 88.6921 104.124L89.4481 102.69L91.1401 101.346L93.3541 99.8098C93.3541 99.8098 96.5641 98.8858 96.8101 99.5818C97.0561 100.278 98.3581 100.842 98.3581 100.842L97.8061 101.892C97.8061 101.892 97.0981 104.076 96.4141 104.538C95.7301 105 96.6901 108.342 96.6901 108.342C96.0584 108.941 95.4987 109.611 95.0221 110.34C94.6021 111.144 94.1941 111.132 94.1941 111.132L92.1001 110.844C92.1001 110.844 89.7001 109.176 88.9081 108.756C88.9081 108.756 87.4981 110.262 87.6421 111.156C87.7861 112.05 87.1441 112.092 87.1441 112.092L89.3581 114.102L89.7181 115.362L91.0321 117.132L90.6061 117.936L89.8021 119.46L90.1621 121.122L91.5901 123.054L92.4001 124.8L93.2761 127.626L93.5581 129.192L96.1381 130.35L97.2781 129.75L99.4981 128.55L100.548 130.638L100.956 131.688L99.1081 133.362L99.7681 134.724L99.9781 136.266L99.7981 138.33L99.4201 139.65L100.956 140.466L103.698 140.07L103.596 137.976C104.499 137.437 105.454 136.991 106.446 136.644C107.61 136.314 107.496 136.332 108.93 135.888C110.364 135.444 109.926 135.564 110.616 135.336C111.306 135.108 111.978 134.826 111.978 134.826L112.026 132.654L113.166 128.706L113.868 129.168C114.564 129.636 115.608 127.938 115.608 127.938L116.1 124.938L114.684 124.2C113.86 124.031 113.023 123.931 112.182 123.9L110.208 122.862L108.552 119.94C108.011 119.352 107.549 118.697 107.178 117.99L107.94 116.55L108.876 114.75L109.854 115.266L110.754 115.746L111.708 116.244L113.268 115.236L114.138 112.8L115.338 111.732C116.118 111.024 116.664 112.332 116.664 112.332L117.948 110.718C119.238 109.104 118.17 109.854 117.51 109.026C117.36 108.798 117.155 108.611 116.914 108.483C116.673 108.355 116.403 108.29 116.13 108.294L113.784 105.492L111.918 106.2L111.654 107.082C111.396 107.97 111.654 107.082 108.948 106.02L108.06 103.434L108.594 102.834L108.72 100.434C108.72 100.434 107.166 99.6718 105.984 99.0358C104.802 98.3998 104.532 96.7738 104.532 96.7738C104.513 95.8806 104.696 94.9947 105.066 94.1818L104.466 92.4838L102.252 88.1578L102.624 86.2078L103.914 85.3978L104.424 82.7998L102.108 80.6038L103.038 78.8398L103.698 77.5858L104.466 76.1218L105.066 73.1578C105.066 73.1578 104.916 72.6058 104.778 71.9938" stroke="#263238" stroke-linecap="round" stroke-linejoin="round"/>
<path d="M85.8001 137.82C85.7535 137.766 85.7012 137.718 85.6441 137.676V137.676L86.3101 136.404L86.0401 134.004L85.1581 133.542C85.1581 133.542 86.2381 132.474 86.1721 131.622C86.1604 131.368 86.2171 131.115 86.3364 130.89C86.4556 130.665 86.633 130.477 86.8501 130.344L86.5621 128.76L86.0761 128.502C85.5961 128.25 85.8901 126.924 85.8901 126.924L83.8381 127.326L83.2801 129.486L81.1921 130.02C80.9088 129.816 80.6728 129.553 80.4999 129.25C80.327 128.946 80.2213 128.609 80.1901 128.262C80.2261 127.26 80.6101 127.464 80.6101 127.464H82.5421L83.7421 125.184L83.4961 124.086L82.6321 123.63" stroke="#263238" stroke-linecap="round" stroke-linejoin="round"/>
<path d="M82.5781 123.63C82.6741 123.684 82.056 120.9 82.056 120.9C82.056 120.9 81.288 118.866 80.448 118.5C79.608 118.134 77.712 119.424 77.712 119.424L75.594 119.724L75.114 122.268" stroke="#263238" stroke-linecap="round" stroke-linejoin="round"/>
<path d="M91.104 139.848L90.6 141.396C89.8 140.908 89.042 140.396 88.326 139.86L90.696 137.52L90.492 134.958C90.492 134.958 90.054 134.01 90.894 134.196C91.2435 134.282 91.6105 134.263 91.9495 134.143C92.2886 134.022 92.585 133.805 92.802 133.518C93.294 132.96 93.234 132.72 94.506 133.392C95.778 134.064 95.862 134.514 96.048 135.03C96.234 135.546 93.858 139.188 93.858 139.188L94.698 139.632C94.698 139.632 94.206 140.772 95.04 141.018L91.104 139.848Z" stroke="#263238" stroke-linecap="round" stroke-linejoin="round"/>
<path d="M118.074 120.87L119.55 120.408L120.84 121.71C120.84 121.71 123.39 122.04 122.394 123.15C121.398 124.26 119.496 124.248 119.496 124.248L118.8 125.556L117.6 124.098L117 122.898L117.45 122.034L118.074 120.87Z" stroke="#263238" stroke-linecap="round" stroke-linejoin="round"/>
<path d="M120.192 115.302C119.89 115.66 119.669 116.08 119.544 116.532L119.448 117.096L117.048 115.836L118.356 113.358L120.192 115.302Z" stroke="#263238" stroke-linecap="round" stroke-linejoin="round"/>
<path d="M250.398 256.83C247.182 259.506 222.408 276.51 187.056 273.768C185.154 257.676 177.9 191.568 186.15 181.2C186.15 181.2 206.166 171.654 224.604 175.662C243.042 179.67 250.218 183.51 251.532 186.834C252.528 189.348 251.106 236.16 250.398 256.83Z" fill="#263238"/>
<path d="M223.992 182.724C213.372 191.922 199.692 189.978 199.992 182.916C200.04 181.812 201.222 180.444 201.222 180.444L200.808 179.808L199.008 177.09C197.694 175.056 196.05 172.5 194.904 170.64C193.944 169.056 217.878 154.332 217.878 162.798C217.878 174.726 223.734 176.97 223.734 176.97C225.942 177.858 228 179.262 223.992 182.724Z" fill="white" stroke="#263238" stroke-linecap="round" stroke-linejoin="round"/>
<path d="M230.706 200.94C230.706 200.94 228.564 208.284 229.578 210.39" stroke="white" stroke-linecap="round" stroke-linejoin="round"/>
<path d="M228.204 179.616C228.204 186.702 207.066 193.644 200.874 186.534" stroke="white" stroke-linecap="round" stroke-linejoin="round"/>
<path d="M210.816 171.438C210.816 171.438 209.4 176.778 202.8 180.948C202.485 180.408 201.977 180.007 201.378 179.826C201.179 179.794 200.977 179.794 200.778 179.826L198.978 177.108C202.392 174.648 210.816 171.438 210.816 171.438Z" fill="#263238"/>
<path d="M213.78 164.874C213.78 164.874 213.708 170.142 212.58 171.216C204.21 179.244 196.026 179.88 194.676 177.762C185.586 163.506 187.734 159.762 186.81 157.32C185.172 153.036 183.162 146.04 184.05 141.804C186.03 132.342 203.85 125.004 213.234 134.52C217.734 139.074 219.156 148.956 218.208 157.188" fill="white"/>
<path d="M213.78 164.874C213.78 164.874 213.708 170.142 212.58 171.216C204.21 179.244 196.026 179.88 194.676 177.762C185.586 163.506 187.734 159.762 186.81 157.32C185.172 153.036 183.162 146.04 184.05 141.804C186.03 132.342 203.85 125.004 213.234 134.52C217.734 139.074 219.156 148.956 218.208 157.188" stroke="#263238" stroke-linecap="round" stroke-linejoin="round"/>
<path d="M187.956 152.916C187.956 152.916 185.454 151.794 184.914 153.132" stroke="#263238" stroke-linecap="round" stroke-linejoin="round"/>
<path d="M194.022 153C194.022 153 199.224 150.822 201.564 153.468" stroke="#263238" stroke-linecap="round" stroke-linejoin="round"/>
<path d="M199.8 156.69C199.884 157.47 199.506 158.148 198.948 158.214C198.39 158.28 197.874 157.686 197.79 156.906C197.706 156.126 198.084 155.442 198.642 155.382C199.2 155.322 199.692 155.91 199.8 156.69Z" fill="#263238"/>
<path d="M189.6 156.924C189.69 157.704 189.306 158.388 188.748 158.448C188.19 158.508 187.674 157.926 187.59 157.146C187.506 156.366 187.884 155.682 188.442 155.622C189 155.562 189.504 156.144 189.6 156.924Z" fill="#263238"/>
<path d="M189.852 154.872C190.578 156.042 190.182 158.04 189.222 160.782C188.262 163.524 189.108 164.514 192.792 164.79" fill="white"/>
<path d="M189.852 154.872C190.578 156.042 190.182 158.04 189.222 160.782C188.262 163.524 189.108 164.514 192.792 164.79" stroke="#263238" stroke-linecap="round" stroke-linejoin="round"/>
<path d="M192.792 169.536C192.792 169.536 197.592 169.098 199.788 167.892" stroke="#263238" stroke-linecap="round" stroke-linejoin="round"/>
<path d="M223.2 142.332C223.2 138.768 219.684 131.454 213.516 130.632C209.97 126.924 204.918 125.562 198.786 126.972C184.614 130.224 180.3 144.216 179.682 146.532C179.622 146.748 179.592 146.868 179.592 146.868L183.384 145.908L181.752 149.094L183.738 150.408L183.282 150.912L185.586 153.132L184.866 149.076C185.31 146.46 188.322 142.8 188.322 142.8C187.223 144.225 186.538 145.925 186.342 147.714C187.542 144.6 194.742 141.714 194.742 141.714C192.408 143.61 191.142 147.318 191.142 147.318C193.362 144.582 198.564 142.812 201.894 141.87C203.016 144.576 204.798 147.402 207.342 148.968C209.742 150.444 209.658 153.492 209.658 153.492C212.24 155.287 214.142 157.899 215.058 160.908L217.962 164.88C217.962 164.88 223.2 158.454 223.2 142.332Z" fill="#263238"/>
<path d="M210.978 154.512C210.006 152.43 213.534 146.79 216.036 147.486C217.44 147.882 219.276 150.444 219.636 153.132C219.996 155.82 218.094 160.932 216.066 162.042C214.776 162.762 213.714 160.8 213.714 160.8" fill="white"/>
<path d="M210.978 154.512C210.006 152.43 213.534 146.79 216.036 147.486C217.44 147.882 219.276 150.444 219.636 153.132C219.996 155.82 218.094 160.932 216.066 162.042C214.776 162.762 213.714 160.8 213.714 160.8" stroke="#263238" stroke-linecap="round" stroke-linejoin="round"/>
<path d="M57.906 256.35L125.7 240.498L267.108 256.83L230.7 281.73L57.906 256.35Z" fill="white"/>
<path d="M57.906 256.35L125.7 240.498L267.108 256.83" fill="white"/>
<path d="M57.906 256.35L125.7 240.498L267.108 256.83" stroke="#263238" stroke-linecap="round" stroke-linejoin="round"/>
<path d="M116.574 259.53L144.018 247.398L178.716 249.192L163.284 262.386L116.574 259.53Z" fill="white" stroke="#263238" stroke-linecap="round" stroke-linejoin="round"/>
<path d="M187.488 180.6C178.686 184.2 176.79 192.294 161.832 224.28C161.832 224.28 155.19 225.642 151.632 233.712C148.074 241.782 154.032 248.154 160.89 247.938C160.89 247.938 163.644 250.338 169.29 250.092C174.936 249.846 199.89 211.662 199.89 211.662L187.488 180.6Z" fill="#263238"/>
<path d="M164.454 226.158C168.39 229.662 170.652 234.804 169.452 240.504" stroke="white" stroke-linecap="round" stroke-linejoin="round"/>
<path d="M168.252 227.844C168.252 227.844 173.088 228.9 173.838 235.092" stroke="white" stroke-linecap="round" stroke-linejoin="round"/>
<path d="M182.4 209.724C180.115 204.086 179.326 197.954 180.108 191.922" stroke="white" stroke-linecap="round" stroke-linejoin="round"/>
<path d="M181.716 201.564C181.35 204.084 183.954 217.5 183.936 231.606" stroke="white" stroke-linecap="round" stroke-linejoin="round"/>
<path d="M247.512 183.252C258.522 188.784 259.83 205.806 249.444 226.158C242.106 240.522 231.978 261.732 225.57 263.154C219.162 264.576 212.91 260.586 212.91 260.586C212.91 260.586 207.51 260.334 205.878 256.494C201.414 246 212.76 232.74 217.2 235.914C217.2 235.914 231.456 204.912 234.054 202.956" fill="#263238"/>
<path d="M204.858 250.116C203.4 242.874 214.8 234.33 217.2 235.914C217.2 235.914 225.666 236.388 226.932 242.244" stroke="white" stroke-linecap="round" stroke-linejoin="round"/>
<path d="M235.872 251.658C240.828 242.916 249.444 226.158 249.444 226.158" stroke="white" stroke-linecap="round" stroke-linejoin="round"/>
<path d="M217.2 235.914C217.2 235.914 223.134 232.362 227.568 235.722" stroke="white" stroke-linecap="round" stroke-linejoin="round"/>
<path d="M219.228 231.6C219.228 231.6 222.504 224.4 225.828 217.8C229.152 211.2 236.76 201.426 239.922 200.952" stroke="white" stroke-linecap="round" stroke-linejoin="round"/>
<path d="M156.696 244.542C155.983 244.507 155.287 244.317 154.656 243.984C144.456 238.662 136.524 229.866 131.748 223.554C129.891 221.142 128.182 218.619 126.63 216L129.078 205.512C129.078 205.512 131.382 211.512 140.64 217.41C149.898 223.308 160.896 225.252 164.454 231.21C167.604 236.4 162.054 244.8 156.696 244.542Z" fill="white"/>
<path opacity="0.4" d="M156.696 244.542C156.582 243.783 156.381 243.04 156.096 242.328C153.954 236.964 140.994 226.302 140.994 226.302C137.91 226.206 134.52 224.922 131.76 223.554C129.899 221.142 128.186 218.619 126.63 216L129.078 205.512C129.078 205.512 131.382 211.512 140.64 217.41C149.898 223.308 160.896 225.252 164.454 231.21C167.604 236.4 162.054 244.8 156.696 244.542Z" fill="#92E3A9"/>
<path d="M156.696 244.542C155.983 244.507 155.287 244.317 154.656 243.984C144.456 238.662 136.524 229.866 131.748 223.554C129.891 221.142 128.182 218.619 126.63 216L129.078 205.512C129.078 205.512 131.382 211.512 140.64 217.41C149.898 223.308 160.896 225.252 164.454 231.21C167.604 236.4 162.054 244.8 156.696 244.542Z" stroke="#263238" stroke-linecap="round" stroke-linejoin="round"/>
<path d="M133.596 215.364C133.596 215.364 132.33 220.956 128.994 219.702C127.194 219.024 123.726 213.648 123.072 210.936L133.596 215.364Z" fill="white" stroke="#263238" stroke-linecap="round" stroke-linejoin="round"/>
<path d="M118.89 180.93L121.614 179.526C121.614 179.526 129.312 179.592 134.088 183.474C138.426 187.002 140.628 192.528 140.628 192.528C140.628 192.528 157.482 183.222 174.696 188.562L181.716 227.688L149.442 229.8L129.3 210.666L118.89 180.93Z" fill="white" stroke="#263238" stroke-linecap="round" stroke-linejoin="round"/>
<path d="M183.936 229.254C183.936 229.254 180.15 229.14 175.086 229.308C167.43 229.548 156.852 230.412 152.016 233.226L151.788 233.148L147.36 231.6L147.27 231.468C146.454 230.268 139.872 220.818 130.47 216.972L117.174 179.82C117.174 179.82 130.974 180.42 138.516 192.888L142.302 194.256C142.302 194.256 164.832 187.584 177.444 189.984L183.936 229.254Z" fill="#92E3A9"/>
<path opacity="0.3" d="M147.27 231.474C146.454 230.274 139.872 220.824 130.47 216.978L117.174 179.826C117.174 179.826 130.974 180.426 138.516 192.894L147.27 231.474Z" fill="black" fill-opacity="0.7"/>
<path opacity="0.3" d="M175.086 229.308C167.43 229.548 156.852 230.412 152.016 233.226L151.788 233.148L142.944 195.6C142.944 195.6 150.18 193.974 152.406 194.796C152.4 194.808 167.112 205.662 175.086 229.308Z" fill="black" fill-opacity="0.7"/>
<path d="M183.936 229.254C183.936 229.254 180.15 229.14 175.086 229.308C167.43 229.548 156.852 230.412 152.016 233.226L151.788 233.148L147.36 231.6L147.27 231.468C146.454 230.268 139.872 220.818 130.47 216.972L117.174 179.82C117.174 179.82 130.974 180.42 138.516 192.888L142.302 194.256C142.302 194.256 164.832 187.584 177.444 189.984L183.936 229.254Z" stroke="#263238" stroke-linecap="round" stroke-linejoin="round"/>
<path d="M142.314 194.262L150.996 230.28" stroke="#263238" stroke-linecap="round" stroke-linejoin="round"/>
<path d="M147.36 231.606L138.924 195.612" stroke="#263238" stroke-linecap="round" stroke-linejoin="round"/>
<path d="M125.928 216.03C124.002 215.496 120.12 203.922 121.896 198.936C121.896 198.936 124.008 195.27 124.896 195.018C126.24 194.628 131.664 194.742 131.4 195.654C130.8 197.766 126.636 197.73 126.636 197.73L125.286 200.202L125.34 201.564C125.34 201.564 127.302 200.136 128.022 200.178C128.394 200.178 130.314 201.138 131.838 201.942C133.14 202.632 133.938 203.01 133.638 203.634C132.672 205.71 128.562 204.234 128.562 204.234L127.014 206.568C127.014 206.568 128.508 206.826 129.162 206.898C129.816 206.97 135.246 210.588 135.084 211.038C134.442 212.802 129.294 210.894 129.294 210.894L128.382 211.656C128.382 211.656 132.174 212.634 132.582 212.778C133.182 213 135.492 214.776 135.456 214.98C135.18 216.54 131.994 215.394 131.994 215.394L129.204 215.28C128.779 215.655 128.268 215.919 127.716 216.048" fill="white"/>
<path d="M125.928 216.03C124.002 215.496 120.12 203.922 121.896 198.936C121.896 198.936 124.008 195.27 124.896 195.018C126.24 194.628 131.664 194.742 131.4 195.654C130.8 197.766 126.636 197.73 126.636 197.73L125.286 200.202L125.34 201.564C125.34 201.564 127.302 200.136 128.022 200.178C128.394 200.178 130.314 201.138 131.838 201.942C133.14 202.632 133.938 203.01 133.638 203.634C132.672 205.71 128.562 204.234 128.562 204.234L127.014 206.568C127.014 206.568 128.508 206.826 129.162 206.898C129.816 206.97 135.246 210.588 135.084 211.038C134.442 212.802 129.294 210.894 129.294 210.894L128.382 211.656C128.382 211.656 132.174 212.634 132.582 212.778C133.182 213 135.492 214.776 135.456 214.98C135.18 216.54 131.994 215.394 131.994 215.394L129.204 215.28C128.779 215.655 128.268 215.919 127.716 216.048" stroke="#263238" stroke-linecap="round" stroke-linejoin="round"/>
<path d="M125.316 201.564C125.316 201.564 123.516 203.076 123.054 203.514C122.592 203.952 122.706 205.344 122.706 205.344" stroke="#263238" stroke-linecap="round" stroke-linejoin="round"/>
<path d="M124.014 208.416C124.014 209.94 125.034 210.864 125.502 211.356C125.97 211.848 124.752 213.186 126.102 214.146" stroke="#263238" stroke-linecap="round" stroke-linejoin="round"/>
<path d="M212.886 256.722C209.076 257.76 204.936 251.064 199.884 243.756C196.548 238.956 192.816 233.838 188.526 230.556C188.184 230.298 187.836 230.046 187.488 229.806L189.996 217.206C195.204 219.936 198.432 224.31 203.838 228.804C212.538 236.046 220.248 240.492 222.384 243.696C224.52 246.9 219.414 254.94 212.886 256.722Z" fill="white"/>
<path opacity="0.4" d="M199.884 243.75C196.548 238.95 192.816 233.832 188.526 230.55C189.091 230.579 189.657 230.493 190.188 230.298C190.188 230.298 196.968 235.8 199.884 243.75Z" fill="#92E3A9"/>
<path d="M212.886 256.722C209.076 257.76 204.936 251.064 199.884 243.756C196.548 238.956 192.816 233.838 188.526 230.556C188.184 230.298 187.836 230.046 187.488 229.806L189.996 217.206C195.204 219.936 198.432 224.31 203.838 228.804C212.538 236.046 220.248 240.492 222.384 243.696C224.52 246.9 219.414 254.94 212.886 256.722Z" stroke="#263238" stroke-linecap="round" stroke-linejoin="round"/>
<path d="M191.4 229.308C191.139 229.774 190.71 230.122 190.2 230.28C190.064 230.333 189.926 230.379 189.786 230.418H189.672C185.646 231.468 176.586 229.284 176.586 229.284C176.586 229.284 170.652 226.464 170.292 225.798C170.041 225.27 169.819 224.73 169.626 224.178L169.464 223.704C169.464 223.704 167.328 222.504 167.064 221.568C166.8 220.632 166.35 220.368 167.664 220.2C168.978 220.032 176.064 220.2 176.064 220.2L168.354 217.056C168.354 217.056 163.248 214.482 162.774 213.576C162.3 212.67 161.706 212.07 164.316 212.43C166.926 212.79 172.626 214.446 172.626 214.446L177.12 215.4L172.656 213.498C172.656 213.498 163.872 212.436 165.534 209.706H170.52C173.345 209.831 176.154 210.188 178.92 210.774C180.372 211.218 189.972 217.182 189.972 217.182" fill="white"/>
<path opacity="0.4" d="M189.66 230.442C185.634 231.492 176.574 229.308 176.574 229.308C176.574 229.308 170.64 226.488 170.28 225.822C170.029 225.294 169.807 224.754 169.614 224.202L176.898 225C176.643 225.459 176.51 225.975 176.51 226.5C176.51 227.025 176.643 227.541 176.898 228C177.708 229.458 186.936 230.934 189.66 230.442Z" fill="#92E3A9"/>
<path d="M191.4 229.308C191.139 229.774 190.71 230.122 190.2 230.28C190.064 230.333 189.926 230.379 189.786 230.418H189.672C185.646 231.468 176.586 229.284 176.586 229.284C176.586 229.284 170.652 226.464 170.292 225.798C170.041 225.27 169.819 224.73 169.626 224.178L169.464 223.704C169.464 223.704 167.328 222.504 167.064 221.568C166.8 220.632 166.35 220.368 167.664 220.2C168.978 220.032 176.064 220.2 176.064 220.2L168.354 217.056C168.354 217.056 163.248 214.482 162.774 213.576C162.3 212.67 161.706 212.07 164.316 212.43C166.926 212.79 172.626 214.446 172.626 214.446L177.12 215.4L172.656 213.498C172.656 213.498 163.872 212.436 165.534 209.706H170.52C173.345 209.831 176.154 210.188 178.92 210.774C180.372 211.218 189.972 217.182 189.972 217.182" stroke="#263238" stroke-linecap="round" stroke-linejoin="round"/>
<path d="M169.452 223.728L178.218 225.018" stroke="#263238" stroke-linecap="round" stroke-linejoin="round"/>
<path d="M82.068 250.572L104.04 257.172L144.24 247.998C144.24 247.998 119.688 241.026 119.46 241.2C119.232 241.374 82.068 250.572 82.068 250.572Z" fill="#92E3A9"/>
<path opacity="0.3" d="M82.068 250.572L104.04 257.172L144.24 247.998C144.24 247.998 119.688 241.026 119.46 241.2C119.232 241.374 82.068 250.572 82.068 250.572Z" fill="black" fill-opacity="0.7"/>
<path d="M82.068 250.572L104.04 257.172L144.24 247.998C144.24 247.998 119.688 241.026 119.46 241.2C119.232 241.374 82.068 250.572 82.068 250.572Z" stroke="#263238" stroke-linecap="round" stroke-linejoin="round"/>
<path d="M82.386 242.832C80.844 242.94 80.46 248.496 82.068 250.572L117.564 243.204L120.408 236.472L82.386 242.832Z" fill="#92E3A9"/>
<path opacity="0.3" d="M82.386 242.832C80.844 242.94 80.46 248.496 82.068 250.572L117.564 243.204L120.408 236.472L82.386 242.832Z" fill="black" fill-opacity="0.7"/>
<path d="M82.386 242.832C80.844 242.94 80.46 248.496 82.068 250.572L117.564 243.204L120.408 236.472L82.386 242.832Z" stroke="#263238" stroke-linecap="round" stroke-linejoin="round"/>
<path d="M142.518 242.754C142.518 242.754 141.99 245.676 142.332 247.476L103.998 256.152L83.7901 250.2C83.7901 250.2 81.6901 246.486 83.5201 243.6L120.444 237.33L142.518 242.754Z" fill="white" stroke="#263238" stroke-linecap="round" stroke-linejoin="round"/>
<path d="M82.386 242.832L120.408 236.472L144.018 242.454L104.31 250.368L82.386 242.832Z" fill="#92E3A9" stroke="#263238" stroke-linecap="round" stroke-linejoin="round"/>
<path d="M83.736 246.384L103.842 252.372L136.752 245.748" stroke="#263238" stroke-linecap="round" stroke-linejoin="round"/>
<path d="M142.224 246.36L106.836 253.908" stroke="#263238" stroke-linecap="round" stroke-linejoin="round"/>
<path d="M84.2099 248.742C84.5159 248.772 99.3659 253.344 99.3659 253.344" stroke="#263238" stroke-linecap="round" stroke-linejoin="round"/>
<path d="M139.332 244.974L142.146 244.518" stroke="#263238" stroke-linecap="round" stroke-linejoin="round"/>
<path d="M103.188 254.454L101.694 254.118" stroke="#263238" stroke-linecap="round" stroke-linejoin="round"/>
<path d="M83.52 243.6C84.3068 244.506 84.7621 245.653 84.8111 246.853C84.8602 248.052 84.5001 249.232 83.79 250.2C83.1326 249.235 82.7588 248.105 82.7111 246.939C82.6634 245.772 82.9436 244.615 83.52 243.6Z" fill="#263238"/>
<path opacity="0.3" d="M83.52 243.6C84.3068 244.506 84.7621 245.653 84.8111 246.853C84.8602 248.052 84.5001 249.232 83.79 250.2C83.1326 249.235 82.7588 248.105 82.7111 246.939C82.6634 245.772 82.9436 244.615 83.52 243.6Z" fill="white" fill-opacity="0.7"/>
<path d="M83.52 243.6C84.3068 244.506 84.7621 245.653 84.8111 246.853C84.8602 248.052 84.5001 249.232 83.79 250.2C83.1326 249.235 82.7588 248.105 82.7111 246.939C82.6634 245.772 82.9436 244.615 83.52 243.6Z" stroke="#263238" stroke-linecap="round" stroke-linejoin="round"/>
<path d="M165.642 252.372L204.012 253.944L200.274 267.15L153.072 265.35L165.642 252.372Z" fill="white"/>
<path opacity="0.4" d="M165.642 252.372L204.012 253.944L200.274 267.15L153.072 265.35L165.642 252.372Z" fill="#92E3A9"/>
<path d="M165.642 252.372L204.012 253.944L200.274 267.15L153.072 265.35L165.642 252.372Z" stroke="#263238" stroke-linecap="round" stroke-linejoin="round"/>
</svg>
