<svg width="500" height="500" viewBox="0 0 500 500" fill="none" xmlns="http://www.w3.org/2000/svg">
<path d="M500 382.4H0V382.65H500V382.4Z" fill="#EBEBEB"/>
<path d="M449.9 398.49H416.78V398.74H449.9V398.49Z" fill="#EBEBEB"/>
<path d="M331.22 401.21H322.53V401.46H331.22V401.21Z" fill="#EBEBEB"/>
<path d="M415.78 389.21H396.59V389.46H415.78V389.21Z" fill="#EBEBEB"/>
<path d="M95.65 390.89H52.46V391.14H95.65V390.89Z" fill="#EBEBEB"/>
<path d="M110.89 390.89H104.56V391.14H110.89V390.89Z" fill="#EBEBEB"/>
<path d="M225.15 395.11H131.47V395.36H225.15V395.11Z" fill="#EBEBEB"/>
<path d="M237 337.8H43.91C42.3974 337.797 40.9476 337.195 39.8789 336.124C38.8102 335.053 38.21 333.603 38.21 332.09V60.66C38.2232 59.156 38.8292 57.718 39.8965 56.6582C40.9637 55.5985 42.406 55.0026 43.91 55H237C238.514 55 239.967 55.6016 241.038 56.6724C242.108 57.7433 242.71 59.1956 242.71 60.71V332.09C242.71 333.604 242.108 335.057 241.038 336.128C239.967 337.198 238.514 337.8 237 337.8ZM43.91 55.2C42.4637 55.2026 41.0775 55.7791 40.0557 56.8027C39.0339 57.8264 38.46 59.2136 38.46 60.66V332.09C38.46 333.536 39.0339 334.924 40.0557 335.947C41.0775 336.971 42.4637 337.547 43.91 337.55H237C238.447 337.547 239.835 336.971 240.858 335.948C241.881 334.924 242.457 333.537 242.46 332.09V60.66C242.457 59.2127 241.881 57.8255 240.858 56.8021C239.835 55.7787 238.447 55.2026 237 55.2H43.91Z" fill="#EBEBEB"/>
<path d="M453.31 337.8H260.21C258.696 337.797 257.246 337.195 256.175 336.125C255.105 335.054 254.503 333.604 254.5 332.09V60.66C254.516 59.1551 255.124 57.7171 256.193 56.6576C257.262 55.5981 258.705 55.0025 260.21 55H453.31C454.812 55.0052 456.252 55.6022 457.317 56.6617C458.382 57.7212 458.987 59.1578 459 60.66V332.09C459 333.601 458.401 335.05 457.335 336.121C456.268 337.191 454.821 337.795 453.31 337.8ZM260.21 55.2C258.763 55.2026 257.375 55.7787 256.352 56.8021C255.329 57.8255 254.753 59.2127 254.75 60.66V332.09C254.753 333.537 255.329 334.924 256.352 335.948C257.375 336.971 258.763 337.547 260.21 337.55H453.31C454.757 337.547 456.145 336.971 457.168 335.948C458.191 334.924 458.767 333.537 458.77 332.09V60.66C458.767 59.2127 458.191 57.8255 457.168 56.8021C456.145 55.7787 454.757 55.2026 453.31 55.2H260.21Z" fill="#EBEBEB"/>
<path d="M426.76 90.84H295.84V235.71H426.76V90.84Z" fill="#E9E9E9"/>
<path d="M421.34 96.58H301.6V230.27H421.34V96.58Z" fill="#F4F4F4"/>
<path d="M335.44 96.58L301.6 223.32V154.71L317.09 96.58H335.44Z" fill="white"/>
<path d="M350.57 96.58L314.88 230.27H308.15L343.83 96.58H350.57Z" fill="white"/>
<path d="M421.34 133.04V201.66L413.76 230.27H395.4L421.34 133.04Z" fill="white"/>
<path d="M363.62 90.84H358.97V235.71H363.62V90.84Z" fill="#E9E9E9"/>
<path d="M424.24 120.24H298.11V124.89H424.24V120.24Z" fill="#E9E9E9"/>
<path d="M250 427.56C357.082 427.56 443.89 422.492 443.89 416.24C443.89 409.988 357.082 404.92 250 404.92C142.917 404.92 56.11 409.988 56.11 416.24C56.11 422.492 142.917 427.56 250 427.56Z" fill="#F5F5F5"/>
<path d="M66.46 414.88H242.48L242.48 194.08L66.46 194.08L66.46 414.88Z" fill="#16A086"/>
<path opacity="0.5" d="M242.57 194.07H66.45V414.3H242.57V194.07Z" fill="white"/>
<path opacity="0.2" d="M237.27 201H97.68V241.67H237.27V201Z" fill="black"/>
<path opacity="0.5" d="M105.61 207.59H97.68V241.68H105.61V207.59Z" fill="white"/>
<path opacity="0.5" d="M143.95 207.59H136.02V241.68H143.95V207.59Z" fill="white"/>
<path opacity="0.5" d="M187.482 206.732L179.667 208.079L185.458 241.674L193.273 240.327L187.482 206.732Z" fill="white"/>
<path opacity="0.5" d="M115.43 212.08H107.5V241.68H115.43V212.08Z" fill="white"/>
<path opacity="0.5" d="M133.66 212.08H125.73V241.68H133.66V212.08Z" fill="white"/>
<path opacity="0.5" d="M179.67 212.08H171.74V241.68H179.67V212.08Z" fill="white"/>
<path opacity="0.5" d="M154.375 211.054L146.634 212.775L153.056 241.67L160.797 239.949L154.375 211.054Z" fill="white"/>
<path opacity="0.5" d="M122.29 205.9H118.33V241.68H122.29V205.9Z" fill="white"/>
<path opacity="0.5" d="M169.45 205.9H165.49V241.68H169.45V205.9Z" fill="white"/>
<path opacity="0.2" d="M97.68 288.79H237.27V248.12H97.68V288.79Z" fill="black"/>
<path opacity="0.5" d="M229.34 288.79H237.27V254.7H229.34V288.79Z" fill="white"/>
<path opacity="0.5" d="M190.99 288.79H198.92V254.7H190.99V288.79Z" fill="white"/>
<path opacity="0.5" d="M141.679 287.439L149.494 288.786L155.284 255.192L147.47 253.845L141.679 287.439Z" fill="white"/>
<path opacity="0.5" d="M219.52 288.79H227.45V259.19H219.52V288.79Z" fill="white"/>
<path opacity="0.5" d="M201.28 288.79H209.21V259.19H201.28V288.79Z" fill="white"/>
<path opacity="0.5" d="M155.28 288.79H163.21V259.19H155.28V288.79Z" fill="white"/>
<path opacity="0.5" d="M174.174 287.06L181.915 288.78L188.337 259.885L180.596 258.165L174.174 287.06Z" fill="white"/>
<path opacity="0.5" d="M212.66 288.79H216.62V253.01H212.66V288.79Z" fill="white"/>
<path opacity="0.5" d="M165.5 288.79H169.46V253.01H165.5V288.79Z" fill="white"/>
<path opacity="0.5" d="M105.61 254.7H97.68V288.79H105.61V254.7Z" fill="white"/>
<path opacity="0.5" d="M115.43 259.19H107.5V288.79H115.43V259.19Z" fill="white"/>
<path opacity="0.5" d="M133.66 259.19H125.73V288.79H133.66V259.19Z" fill="white"/>
<path opacity="0.5" d="M122.29 253.01H118.33V288.79H122.29V253.01Z" fill="white"/>
<path opacity="0.2" d="M237.27 295.23H97.68V335.9H237.27V295.23Z" fill="black"/>
<g opacity="0.5">
<path opacity="0.5" d="M185.73 301.82H177.8V335.91H185.73V301.82Z" fill="white"/>
<path opacity="0.5" d="M229.261 300.956L221.446 302.303L227.237 335.897L235.052 334.55L229.261 300.956Z" fill="white"/>
<path opacity="0.5" d="M157.21 306.31H149.28V335.91H157.21V306.31Z" fill="white"/>
<path opacity="0.5" d="M175.44 306.31H167.51V335.91H175.44V306.31Z" fill="white"/>
<path opacity="0.5" d="M221.44 306.31H213.51V335.91H221.44V306.31Z" fill="white"/>
<path opacity="0.5" d="M196.153 305.276L188.412 306.996L194.834 335.891L202.575 334.171L196.153 305.276Z" fill="white"/>
<path opacity="0.5" d="M164.06 300.12H160.1V335.9H164.06V300.12Z" fill="white"/>
<path opacity="0.5" d="M211.23 300.12H207.27V335.9H211.23V300.12Z" fill="white"/>
<path opacity="0.5" d="M138.037 300.962L130.222 302.309L136.013 335.904L143.828 334.557L138.037 300.962Z" fill="white"/>
<path opacity="0.5" d="M130.21 306.31H122.28V335.91H130.21V306.31Z" fill="white"/>
<path opacity="0.5" d="M104.926 305.288L97.1849 307.009L103.607 335.904L111.348 334.183L104.926 305.288Z" fill="white"/>
<path opacity="0.5" d="M120 300.12H116.04V335.9H120V300.12Z" fill="white"/>
</g>
<path opacity="0.2" d="M66.46 414.88H92.37L92.37 194.08H66.46L66.46 414.88Z" fill="black"/>
<path opacity="0.1" d="M236.23 343.12H170.16V405.69H236.23V343.12Z" fill="black"/>
<path opacity="0.1" d="M164.89 343.12H97.68V405.69H164.89V343.12Z" fill="black"/>
<path opacity="0.2" d="M160.87 371.23C160.87 371.859 160.684 372.474 160.334 372.997C159.985 373.52 159.488 373.927 158.907 374.168C158.326 374.409 157.686 374.472 157.07 374.349C156.453 374.226 155.886 373.923 155.441 373.479C154.997 373.034 154.694 372.467 154.571 371.85C154.448 371.234 154.511 370.594 154.752 370.013C154.993 369.432 155.4 368.935 155.923 368.586C156.446 368.237 157.061 368.05 157.69 368.05C158.533 368.05 159.342 368.385 159.939 368.981C160.535 369.578 160.87 370.387 160.87 371.23Z" fill="black"/>
<path opacity="0.2" d="M179.87 371.23C179.87 371.859 179.684 372.474 179.334 372.997C178.985 373.52 178.488 373.927 177.907 374.168C177.326 374.409 176.686 374.472 176.07 374.349C175.453 374.226 174.886 373.923 174.441 373.479C173.997 373.034 173.694 372.467 173.571 371.85C173.448 371.234 173.511 370.594 173.752 370.013C173.993 369.432 174.4 368.935 174.923 368.586C175.446 368.237 176.061 368.05 176.69 368.05C177.533 368.05 178.342 368.385 178.939 368.981C179.535 369.578 179.87 370.387 179.87 371.23Z" fill="black"/>
<path d="M359.04 215.35H346.19L349.61 252.14L329.29 255.19V257.75H372.09V255.19L363.32 252.14L359.04 215.35Z" fill="#263238"/>
<path d="M309.15 238.7C309.083 239.263 309.137 239.834 309.308 240.375C309.479 240.916 309.763 241.415 310.141 241.837C310.52 242.26 310.984 242.598 311.502 242.827C312.021 243.057 312.583 243.174 313.15 243.17H391C392.217 243.145 393.383 242.678 394.279 241.855C395.176 241.032 395.741 239.91 395.87 238.7L400.49 188.9C400.544 188.415 400.51 187.923 400.39 187.45C400.166 186.582 399.657 185.814 398.944 185.27C398.231 184.726 397.357 184.437 396.46 184.45H318.64C317.423 184.475 316.257 184.942 315.361 185.765C314.464 186.588 313.899 187.71 313.77 188.92L309.15 238.7Z" fill="#263238"/>
<path d="M391 240.67C391.594 240.648 392.16 240.414 392.597 240.01C393.033 239.607 393.311 239.06 393.38 238.47L398 188.67C398.037 188.468 398.037 188.262 398 188.06C397.923 187.725 397.73 187.429 397.456 187.222C397.181 187.015 396.843 186.912 396.5 186.93H318.64C318.047 186.953 317.482 187.187 317.047 187.591C316.612 187.994 316.337 188.54 316.27 189.13L311.65 238.93C311.621 239.155 311.64 239.383 311.705 239.601C311.771 239.818 311.881 240.019 312.03 240.19C312.177 240.349 312.357 240.474 312.557 240.557C312.758 240.64 312.973 240.679 313.19 240.67H391Z" fill="#16A086"/>
<path opacity="0.6" d="M391 240.67C391.594 240.648 392.16 240.414 392.597 240.01C393.033 239.607 393.311 239.06 393.38 238.47L398 188.67C398.037 188.468 398.037 188.262 398 188.06C397.923 187.725 397.73 187.429 397.456 187.222C397.181 187.015 396.843 186.912 396.5 186.93H318.64C318.047 186.953 317.482 187.187 317.047 187.591C316.612 187.994 316.337 188.54 316.27 189.13L311.65 238.93C311.621 239.155 311.64 239.383 311.705 239.601C311.771 239.818 311.881 240.019 312.03 240.19C312.177 240.349 312.357 240.474 312.557 240.557C312.758 240.64 312.973 240.679 313.19 240.67H391Z" fill="white"/>
<path d="M336.91 227.48C336.91 227.48 335.33 199.64 342.19 193.28C349.05 186.92 358.29 188.77 363.19 192.17C368.09 195.57 373.47 204.4 368.59 230.64L336.91 227.48Z" fill="#263238"/>
<path d="M368.41 240.67C368.404 240.627 368.404 240.583 368.41 240.54C369.003 238.64 369.67 236.59 370.41 234.39C370.96 232.72 371.55 230.95 372.21 229.08C368.285 227.826 364.275 226.861 360.21 226.19C355.934 225.432 351.61 224.977 347.27 224.83C341.66 224.78 335.22 225.41 335.22 225.41C335.22 225.41 334.3 225.63 333.73 231.58C333.53 233.72 333.33 236.69 333.22 240.67H368.41Z" fill="#16A086"/>
<path d="M368.41 240.67C368.404 240.627 368.404 240.583 368.41 240.54C369.003 238.64 369.67 236.59 370.41 234.39C370.96 232.72 371.55 230.95 372.21 229.08C368.285 227.826 364.275 226.861 360.21 226.19C355.934 225.432 351.61 224.977 347.27 224.83C341.66 224.78 335.22 225.41 335.22 225.41C335.22 225.41 334.3 225.63 333.73 231.58C333.55 233.5 333.38 236.58 333.29 240.67H368.41Z" fill="#16A086"/>
<g opacity="0.2">
<path opacity="0.2" d="M368.41 240.67C368.404 240.627 368.404 240.583 368.41 240.54C369.003 238.64 369.67 236.59 370.41 234.39C370.96 232.72 371.55 230.95 372.21 229.08C368.285 227.826 364.275 226.861 360.21 226.19C355.934 225.432 351.61 224.977 347.27 224.83C341.66 224.78 335.22 225.41 335.22 225.41C335.22 225.41 334.3 225.63 333.73 231.58C333.53 233.72 333.33 236.69 333.22 240.67H368.41Z" fill="black"/>
<path opacity="0.2" d="M368.41 240.67C368.404 240.627 368.404 240.583 368.41 240.54C369.003 238.64 369.67 236.59 370.41 234.39C370.96 232.72 371.55 230.95 372.21 229.08C368.285 227.826 364.275 226.861 360.21 226.19C355.934 225.432 351.61 224.977 347.27 224.83C341.66 224.78 335.22 225.41 335.22 225.41C335.22 225.41 334.3 225.63 333.73 231.58C333.55 233.5 333.38 236.58 333.29 240.67H368.41Z" fill="black"/>
</g>
<path d="M334.67 240.67L334.17 232.41L333.74 225.41C332.02 225.75 327.45 233.58 323.64 240.67H334.67Z" fill="white"/>
<path opacity="0.2" d="M334.67 240.67L334.17 232.41C332.083 234.906 330.368 237.692 329.08 240.68L334.67 240.67Z" fill="black"/>
<path d="M377.19 240.67C374.13 231.72 372.24 229.08 372.24 229.08L368.13 240.67H377.19Z" fill="white"/>
<path d="M349.7 231.19C356.8 230.28 358.94 227.25 358.94 227.25C354.43 223 358.18 215.63 358.18 215.63L349.63 217.22C349.826 218.411 349.936 219.614 349.96 220.82C350.02 226.01 347.68 226.07 347.68 226.07C346.18 228.88 349.7 231.19 349.7 231.19Z" fill="#EEC1BB"/>
<path opacity="0.2" d="M349.63 217.22C349.826 218.411 349.936 219.614 349.96 220.82C355.74 220.82 358.18 215.63 358.18 215.63L349.63 217.22Z" fill="black"/>
<path d="M354.35 193.31C346.92 192.91 344.35 196.76 343.35 204.39C342.15 213.92 343.9 220.84 353.35 219.3C366.07 217.22 366.7 194 354.35 193.31Z" fill="#EEC1BB"/>
<path d="M348.17 204.23C347.52 205.322 346.737 206.329 345.84 207.23C346.035 207.557 346.317 207.823 346.654 208C346.991 208.176 347.37 208.256 347.75 208.23L348.17 204.23Z" fill="#D4827D"/>
<path d="M353.11 198.75C353.701 198.71 354.294 198.806 354.842 199.031C355.39 199.257 355.878 199.605 356.27 200.05" stroke="#263238" stroke-width="0.72468" stroke-linecap="round" stroke-linejoin="round"/>
<path d="M347.73 198.14C347.229 197.983 346.699 197.941 346.18 198.017C345.66 198.093 345.165 198.286 344.73 198.58" stroke="#263238" stroke-width="0.72468" stroke-linecap="round" stroke-linejoin="round"/>
<path d="M348.68 211.13C348.984 211.988 349.225 212.867 349.4 213.76H349.88C352.06 213.66 353.04 212.9 353.46 212.08C353.66 211.677 353.756 211.23 353.74 210.78C353.748 210.524 353.717 210.268 353.65 210.02C352.337 210.687 350.892 211.056 349.42 211.1C349 211.13 348.68 211.13 348.68 211.13Z" fill="#263238"/>
<path d="M349.42 211.08L349.65 211.85C351.7 211.75 353.13 211.41 353.74 210.76C353.748 210.504 353.717 210.248 353.65 210C352.337 210.667 350.892 211.036 349.42 211.08Z" fill="white"/>
<path d="M349.88 213.74C352.06 213.64 353.04 212.88 353.46 212.06C352.634 212.111 351.825 212.311 351.07 212.65C350.57 212.881 350.154 213.262 349.88 213.74Z" fill="#DE5753"/>
<path d="M361.79 206.29C361.79 206.29 358.65 199.99 359.43 195.29C359.43 195.29 345.03 188.47 343.49 203.38C343.49 203.38 342.78 190.03 355.57 190.43C368.36 190.83 367.29 209.52 360.38 214.73C360.38 214.74 363.73 210.22 361.79 206.29Z" fill="#263238"/>
<path d="M360.49 207.79C360.612 206.936 361.065 206.164 361.752 205.642C362.439 205.119 363.304 204.889 364.16 205C366.45 205.38 367.29 210.17 361.5 211C360.67 211.11 360.25 210.28 360.49 207.79Z" fill="#EEC1BB"/>
<path d="M351.21 203.94C351.21 203.94 353.05 202.33 354.45 203.65C353.382 203.854 352.297 203.952 351.21 203.94Z" fill="#263238"/>
<path d="M347.7 203.85C347.7 203.85 346.03 202.07 344.5 203.24C345.544 203.546 346.616 203.751 347.7 203.85Z" fill="#263238"/>
<path d="M365.53 228C365.53 228 357.18 234.77 349.42 234.66C341.66 234.55 338.92 225.81 338.92 225.81C338.92 225.81 351 222.29 365.53 228Z" fill="#EEC1BB"/>
<path d="M369.63 240.67C370.38 236.67 371.24 232.67 372.23 229.08L364.82 226.76C362.576 231.151 360.954 235.832 360 240.67H369.63Z" fill="white"/>
<path d="M338.74 240.67C339.63 233.35 339.69 224.83 339.69 224.83L333.74 225.41C332.27 229.41 331.49 234.93 331.11 240.67H338.74Z" fill="white"/>
<path d="M351.21 191.61C349.148 191.786 347.192 192.597 345.61 193.931C344.029 195.265 342.9 197.057 342.38 199.06C344.561 197.773 347.108 197.249 349.62 197.57C350.074 196.627 350.606 195.724 351.21 194.87C350.765 195.737 350.471 196.674 350.34 197.64C351.691 197.791 353.029 198.049 354.34 198.41C354.711 197.688 355.171 197.016 355.71 196.41C355.438 197.148 355.286 197.924 355.26 198.71C356.256 199.004 357.234 199.355 358.19 199.76C358.557 197.905 359.321 196.152 360.43 194.62C360.43 194.62 358.55 190.93 351.21 191.61Z" fill="#263238"/>
<path d="M361.86 209.85C361.834 209.818 361.811 209.785 361.79 209.75C361.591 209.387 361.517 208.969 361.58 208.56C361.69 207.69 362.99 205.56 364 206.8C364.231 207.126 364.337 207.523 364.3 207.92C364.279 208.463 364.132 208.994 363.87 209.47C363.773 209.685 363.627 209.873 363.442 210.019C363.258 210.165 363.041 210.265 362.81 210.31C362.626 210.321 362.441 210.284 362.275 210.204C362.109 210.123 361.966 210.002 361.86 209.85Z" fill="#16A086"/>
<path opacity="0.2" d="M361.86 209.85C361.834 209.818 361.811 209.785 361.79 209.75C361.591 209.387 361.517 208.969 361.58 208.56C361.69 207.69 362.99 205.56 364 206.8C364.231 207.126 364.337 207.523 364.3 207.92C364.279 208.463 364.132 208.994 363.87 209.47C363.773 209.685 363.627 209.873 363.442 210.019C363.258 210.165 363.041 210.265 362.81 210.31C362.626 210.321 362.441 210.284 362.275 210.204C362.109 210.123 361.966 210.002 361.86 209.85Z" fill="black"/>
<path d="M362 208.48C362 208.48 362.89 206.6 363.49 206.95C364.09 207.3 363.85 208.95 363.27 209.27C362.91 209.482 362.637 209.815 362.5 210.21C362.5 210.21 360.03 213.21 359.38 212.9V212.06C360.573 211.138 361.482 209.896 362 208.48Z" fill="#16A086"/>
<path d="M346.24 418.16H352.37L363.38 264.92H355.25L346.24 418.16Z" fill="#263238"/>
<path opacity="0.4" d="M346.24 418.16H352.37L362.84 272.53L363.38 265.16H355.25L354.81 272.53L346.24 418.16Z" fill="white"/>
<path opacity="0.2" d="M354.81 272.16H362.84L363.38 265.16H355.25L354.81 272.16Z" fill="black"/>
<path d="M301.28 418.16H307.41L308.41 264.92H300.28L301.28 418.16Z" fill="#263238"/>
<path opacity="0.5" d="M300.28 265.16L300.44 289.89L301.28 418.16H307.41L308.25 289.89L308.41 265.16H300.28Z" fill="white"/>
<path opacity="0.2" d="M300.28 265.16L300.44 290.16H308.25L308.41 265.16H300.28Z" fill="black"/>
<path d="M236.24 418.16H242.37L253.38 264.92H245.25L236.24 418.16Z" fill="#263238"/>
<path opacity="0.5" d="M236.24 418.16H242.37L252.84 272.53L253.38 265.16H245.25L244.81 272.53L236.24 418.16Z" fill="white"/>
<path opacity="0.2" d="M244.81 272.16H252.84L253.38 265.16H245.25L244.81 272.16Z" fill="black"/>
<path d="M416.32 418.16H422.45L413.45 264.92H405.32L416.32 418.16Z" fill="#263238"/>
<path opacity="0.5" d="M405.32 265.16L405.86 272.53L416.33 418.16H422.45L413.89 272.53L413.45 265.16H405.32Z" fill="white"/>
<path opacity="0.2" d="M413.45 265.16H405.32L405.86 272.16H413.89L413.45 265.16Z" fill="black"/>
<path d="M417.69 268.75H240.96C240.676 268.75 240.395 268.694 240.133 268.586C239.871 268.477 239.633 268.318 239.433 268.117C239.232 267.917 239.073 267.679 238.964 267.417C238.856 267.155 238.8 266.874 238.8 266.59V261.08H419.88V266.59C419.88 266.876 419.823 267.16 419.713 267.424C419.602 267.688 419.441 267.927 419.237 268.128C419.033 268.329 418.791 268.488 418.526 268.594C418.26 268.701 417.976 268.754 417.69 268.75Z" fill="#16A086"/>
<path opacity="0.6" d="M417.69 268.75H240.96C240.676 268.75 240.395 268.694 240.133 268.586C239.871 268.477 239.633 268.318 239.433 268.117C239.232 267.917 239.073 267.679 238.964 267.417C238.856 267.155 238.8 266.874 238.8 266.59V261.08H419.88V266.59C419.88 266.876 419.823 267.16 419.713 267.424C419.602 267.688 419.441 267.927 419.237 268.128C419.033 268.329 418.791 268.488 418.526 268.594C418.26 268.701 417.976 268.754 417.69 268.75Z" fill="white"/>
<path opacity="0.2" d="M238.8 264.91H419.88V261.07H238.8V264.91Z" fill="black"/>
<path d="M235 262.08H423.69C423.974 262.08 424.255 262.024 424.517 261.916C424.779 261.807 425.017 261.648 425.217 261.447C425.418 261.247 425.577 261.009 425.686 260.747C425.794 260.485 425.85 260.204 425.85 259.92C425.85 259.346 425.623 258.796 425.218 258.389C424.813 257.982 424.264 257.753 423.69 257.75H235C234.426 257.753 233.877 257.982 233.472 258.389C233.067 258.796 232.84 259.346 232.84 259.92C232.84 260.204 232.896 260.485 233.004 260.747C233.113 261.009 233.272 261.247 233.473 261.447C233.673 261.648 233.911 261.807 234.173 261.916C234.435 262.024 234.716 262.08 235 262.08Z" fill="#16A086"/>
<path opacity="0.6" d="M235 262.08H423.69C423.974 262.08 424.255 262.024 424.517 261.916C424.779 261.807 425.017 261.648 425.217 261.447C425.418 261.247 425.577 261.009 425.686 260.747C425.794 260.485 425.85 260.204 425.85 259.92C425.85 259.346 425.623 258.796 425.218 258.389C424.813 257.982 424.264 257.753 423.69 257.75H235C234.426 257.753 233.877 257.982 233.472 258.389C233.067 258.796 232.84 259.346 232.84 259.92C232.84 260.204 232.896 260.485 233.004 260.747C233.113 261.009 233.272 261.247 233.473 261.447C233.673 261.648 233.911 261.807 234.173 261.916C234.435 262.024 234.716 262.08 235 262.08Z" fill="white"/>
<path d="M346.31 257.75L345.32 254.03H304.77L286.1 255.89L285.39 257.75H346.31Z" fill="#263238"/>
<path opacity="0.4" d="M304.77 254.03V257.75H346.31L345.32 254.03H304.77Z" fill="black"/>
<path d="M421.18 252.31C421.262 254.176 420.92 256.036 420.18 257.75H377.18V256.75H378.05V247.9H377.18V246.9H420.18C420.905 248.609 421.246 250.455 421.18 252.31Z" fill="#263238"/>
<path opacity="0.2" d="M421.18 252.31C421.262 254.176 420.92 256.036 420.18 257.75H377.18V256.75H378.05V247.9H377.18V246.9H420.18C420.905 248.609 421.246 250.455 421.18 252.31Z" fill="white"/>
<path opacity="0.2" d="M398.18 252.31C398.262 254.176 397.92 256.036 397.18 257.75H377.18V256.75H378.05V247.9H377.18V246.9H397.18C397.905 248.609 398.246 250.455 398.18 252.31Z" fill="black"/>
<path opacity="0.8" d="M396.06 252.31C396.127 253.826 395.85 255.337 395.25 256.73H378.06V247.88H395.25C395.842 249.279 396.118 250.792 396.06 252.31Z" fill="white"/>
<path opacity="0.6" d="M414.18 252.31C414.262 254.176 413.92 256.035 413.18 257.75H405.18C405.92 256.035 406.262 254.176 406.18 252.31C406.252 250.442 405.91 248.581 405.18 246.86H413.18C413.91 248.581 414.252 250.442 414.18 252.31Z" fill="white"/>
<path d="M425 241.42C425.082 243.286 424.74 245.145 424 246.86H381V245.86H381.87V237H381V236H424C424.726 237.712 425.067 239.562 425 241.42Z" fill="#16A086"/>
<path opacity="0.2" d="M402 241.42C402.082 243.286 401.74 245.145 401 246.86H381V245.86H381.87V237H381V236H401C401.726 237.712 402.067 239.562 402 241.42Z" fill="black"/>
<path opacity="0.8" d="M399.89 241.42C399.957 242.936 399.68 244.447 399.08 245.84H381.89V237H399.08C399.67 238.396 399.947 239.905 399.89 241.42Z" fill="white"/>
<path opacity="0.2" d="M418 241.42C418.082 243.286 417.74 245.145 417 246.86H409C409.74 245.145 410.082 243.286 410 241.42C410.072 239.552 409.73 237.691 409 235.97H417C417.73 237.691 418.072 239.552 418 241.42Z" fill="black"/>
<path d="M346.88 128.1H316.81C315.137 128.1 313.78 129.457 313.78 131.13V161.2C313.78 162.873 315.137 164.23 316.81 164.23H346.88C348.553 164.23 349.91 162.873 349.91 161.2V131.13C349.91 129.457 348.553 128.1 346.88 128.1Z" fill="#16A086"/>
<path d="M327.71 161C327.71 161 329.55 171.18 343 175.77C343 175.77 335.36 168.39 335.36 161H327.71Z" fill="#16A086"/>
<path d="M323.67 139.4H340.03" stroke="white" stroke-width="2" stroke-miterlimit="10"/>
<path d="M324 146H340.36" stroke="white" stroke-width="2" stroke-miterlimit="10"/>
<path d="M324 153H340.36" stroke="white" stroke-width="2" stroke-miterlimit="10"/>
<path d="M256.19 161C256.19 161 258.03 171.18 271.48 175.77C271.48 175.77 263.84 168.39 263.84 161H256.19Z" fill="#16A086"/>
<path opacity="0.6" d="M256.19 161C256.19 161 258.03 171.18 271.48 175.77C271.48 175.77 263.84 168.39 263.84 161H256.19Z" fill="white"/>
<path d="M275.39 128.1H245.32C243.647 128.1 242.29 129.457 242.29 131.13V161.2C242.29 162.873 243.647 164.23 245.32 164.23H275.39C277.063 164.23 278.42 162.873 278.42 161.2V131.13C278.42 129.457 277.063 128.1 275.39 128.1Z" fill="#16A086"/>
<path opacity="0.6" d="M275.39 128.1H245.32C243.647 128.1 242.29 129.457 242.29 131.13V161.2C242.29 162.873 243.647 164.23 245.32 164.23H275.39C277.063 164.23 278.42 162.873 278.42 161.2V131.13C278.42 129.457 277.063 128.1 275.39 128.1Z" fill="white"/>
<path d="M348.69 240.58L336.35 252L338.06 253.39L350 242C350.177 241.814 350.276 241.567 350.276 241.31C350.276 241.053 350.177 240.806 350 240.62C349.823 240.457 349.593 240.363 349.353 240.355C349.112 240.348 348.877 240.428 348.69 240.58Z" fill="#16A086"/>
<path d="M331.32 249.87L338.57 246.57C338.57 246.57 344.64 245.44 347.14 246C349.64 246.56 355.19 254.09 355.06 255C354.93 255.91 345.45 258.17 345.24 258.17C345.03 258.17 340.93 255.84 340.93 255.84L334.22 258.17L331.32 249.87Z" fill="#E4897B"/>
<path d="M268.53 407.94L276.49 406.85L277.6 387.91L269.64 389.01L268.53 407.94Z" fill="#EBB376"/>
<path opacity="0.2" d="M269.64 389.01L277.6 387.92L276.96 398.75L269.02 399.44L269.64 389.01Z" fill="black"/>
<path d="M268.85 296.62L266.85 284.45L222.19 281.78C222.19 281.78 217.44 307.11 221.09 313.86C227.61 325.91 262.71 319.86 272.98 321.02C266.84 346.13 267.44 395.2 267.44 395.2L282.11 396.32C282.11 396.32 293.4 343.44 295.68 318.32C297.27 301.36 283.23 301.79 268.85 296.62Z" fill="#16A086"/>
<path d="M265.77 395.89L283.4 397.05L284.91 389.5L265.54 388.6L265.77 395.89Z" fill="#16A086"/>
<path opacity="0.2" d="M265.77 395.89L283.4 397.05L284.91 389.5L265.54 388.6L265.77 395.89Z" fill="white"/>
<path d="M277.09 405.89L268.09 405.33C268.016 405.322 267.942 405.328 267.871 405.349C267.8 405.369 267.733 405.404 267.676 405.451C267.618 405.497 267.57 405.555 267.535 405.62C267.499 405.685 267.477 405.756 267.47 405.83L266.59 412.93C266.568 413.303 266.692 413.67 266.937 413.952C267.182 414.234 267.528 414.409 267.9 414.44C271.05 414.58 272.55 414.49 276.52 414.71C280.031 415.074 283.563 415.187 287.09 415.05C290.45 414.72 290.04 411.42 288.59 411.26C285.15 410.87 280.59 408.34 278.45 406.43C278.07 406.102 277.591 405.912 277.09 405.89Z" fill="#263238"/>
<path d="M286.9 407.87L294.92 408.46L299.95 390.17L291.94 389.59L286.9 407.87Z" fill="#EBB376"/>
<path d="M296 408.82C296 408.82 296 408.82 296 408.88H296.07C296.704 409.232 297.375 409.513 298.07 409.72C298.573 409.91 299.127 409.91 299.63 409.72C299.795 409.626 299.93 409.486 300.018 409.318C300.107 409.15 300.146 408.959 300.13 408.77C300.14 408.651 300.121 408.531 300.074 408.421C300.026 408.312 299.953 408.215 299.86 408.14C299.141 407.852 298.343 407.83 297.61 408.08C298.183 407.69 298.603 407.114 298.8 406.45C298.812 406.292 298.77 406.135 298.681 406.005C298.592 405.874 298.461 405.777 298.31 405.73C298.186 405.668 298.049 405.636 297.91 405.636C297.771 405.636 297.634 405.668 297.51 405.73C296.51 406.26 296.15 408.51 296.12 408.63C296.077 408.635 296.033 408.635 295.99 408.63C295.967 408.657 295.956 408.692 295.958 408.727C295.96 408.762 295.975 408.795 296 408.82ZM296.59 408.37L296.41 408.43C296.6 407.69 297.01 406.48 297.59 406.17C297.654 406.131 297.725 406.105 297.799 406.095C297.873 406.085 297.948 406.09 298.02 406.11H298.11C298.36 406.21 298.39 406.36 298.37 406.47C298.35 407 297.42 407.94 296.63 408.37H296.59ZM296.59 408.79C297.65 408.46 299.12 408.18 299.59 408.51C299.638 408.545 299.676 408.592 299.699 408.647C299.722 408.701 299.729 408.761 299.72 408.82C299.73 408.939 299.707 409.059 299.655 409.167C299.602 409.274 299.521 409.365 299.42 409.43C299 409.68 298 409.44 296.66 408.79H296.59Z" fill="#16A086"/>
<path opacity="0.2" d="M291.94 389.59L299.94 390.18L297.07 400.63L289.15 399.66L291.94 389.59Z" fill="black"/>
<path d="M302.66 399.34L288.54 395.19C288.54 395.19 296.97 347.61 305.54 331.11C304.9 330.9 304.05 330.63 303 330.32C301.11 329.75 298.6 329.04 295.65 328.22C275.13 322.53 233.54 311.86 233.54 311.86L252.54 294.13C252.54 294.13 328.22 305.67 329.79 325.61C330.52 335.2 302.66 399.34 302.66 399.34Z" fill="#16A086"/>
<path d="M286.72 395.51L303.72 400.31L306.77 393.24L288.01 388.33L286.72 395.51Z" fill="#16A086"/>
<path opacity="0.2" d="M286.72 395.51L303.72 400.31L306.77 393.24L288.01 388.33L286.72 395.51Z" fill="white"/>
<path d="M295.71 407.65L287 405.22C286.855 405.176 286.699 405.189 286.565 405.259C286.43 405.328 286.328 405.447 286.28 405.59L284 412.36C283.95 412.54 283.937 412.728 283.96 412.913C283.983 413.098 284.043 413.277 284.136 413.439C284.229 413.601 284.354 413.743 284.502 413.856C284.65 413.97 284.819 414.052 285 414.1C288 414.9 289.54 415.1 293.37 416.16C296.729 417.247 300.161 418.096 303.64 418.7C306.99 419.08 307.28 415.76 305.89 415.3C302.61 414.2 298.69 410.79 296.99 408.46C296.668 408.053 296.216 407.767 295.71 407.65Z" fill="#263238"/>
<path d="M277.29 406.87H277.45C277.45 406.87 277.63 406.93 277.66 406.95C277.69 406.97 277.66 406.95 277.66 406.95H277.73C278.41 407.161 279.111 407.299 279.82 407.36C280.35 407.459 280.897 407.352 281.35 407.06C281.486 406.936 281.584 406.777 281.635 406.601C281.687 406.424 281.688 406.237 281.64 406.06C281.625 405.941 281.58 405.828 281.51 405.73C281.44 405.632 281.348 405.553 281.24 405.5C280.458 405.397 279.664 405.574 279 406C279.478 405.507 279.759 404.856 279.79 404.17C279.76 404.008 279.677 403.86 279.554 403.75C279.431 403.639 279.275 403.573 279.11 403.56C278.955 403.533 278.797 403.538 278.644 403.574C278.491 403.611 278.347 403.677 278.22 403.77C277.38 404.49 277.22 406.77 277.22 406.9L277.29 406.87ZM278.15 406.41L277.98 406.5C277.939 405.629 278.177 404.767 278.66 404.04C278.715 403.989 278.779 403.949 278.85 403.923C278.92 403.898 278.995 403.886 279.07 403.89H279.16C279.43 403.89 279.49 404.07 279.5 404.18C279.322 405.057 278.845 405.846 278.15 406.41ZM278.26 406.8C279.26 406.27 280.61 405.68 281.12 405.92C281.173 405.943 281.219 405.981 281.253 406.029C281.286 406.076 281.306 406.132 281.31 406.19C281.341 406.305 281.342 406.427 281.312 406.542C281.282 406.658 281.223 406.764 281.14 406.85C280.74 407.2 279.68 407.17 278.26 406.8Z" fill="#16A086"/>
<path d="M301.49 203.12C301.3 203.54 301.09 203.96 300.87 204.35C299.588 206.639 297.642 208.487 295.29 209.65C294.696 209.946 294.081 210.197 293.45 210.4C291.022 211.223 288.39 211.226 285.96 210.407C283.53 209.589 281.436 207.995 280 205.87C276.17 200.43 277.21 195.08 278.23 185.87C278.432 183.719 279.182 181.655 280.408 179.875C281.633 178.096 283.294 176.659 285.231 175.703C287.169 174.747 289.319 174.302 291.477 174.412C293.635 174.522 295.729 175.182 297.56 176.33C305.91 181.5 304.85 195.26 301.49 203.12Z" fill="#E4897B"/>
<path opacity="0.2" d="M295.29 209.65C294.696 209.946 294.081 210.197 293.45 210.4C291.787 210.95 290.022 211.123 288.284 210.907C286.546 210.691 284.878 210.091 283.4 209.15C283.993 208.125 284.715 207.18 285.55 206.34C289.047 206.485 292.428 207.634 295.29 209.65Z" fill="black"/>
<path d="M271.19 212.09C272.77 218.03 282.96 222.79 282.96 222.79C282.96 222.79 289.83 224.97 289.78 222.35C286.71 219.56 286.08 216.88 286.72 214.35C287.171 212.834 287.915 211.42 288.91 210.19C289.444 209.494 290.015 208.826 290.62 208.19L284.62 192.14C282.45 198.81 277.58 210.41 271.19 212.09Z" fill="#E4897B"/>
<path d="M300.19 183C300.19 183 302.77 191.69 293.86 197.93C293.86 197.93 290.12 205.93 288.03 206.93C285.94 207.93 281.22 207.33 279.63 206.93C278.04 206.53 269.81 199.71 272.19 183.67C274.57 167.63 288.03 172.67 288.03 172.67C288.03 172.67 292.63 168.67 301.18 173.67C308.32 177.81 306.92 185.55 300.19 183Z" fill="#263238"/>
<path d="M292.65 193.77C292.682 194.655 292.909 195.522 293.315 196.308C293.721 197.095 294.297 197.782 295 198.32C296.72 199.42 298.38 197.02 298.57 194.24C298.73 191.77 298.05 188.14 295.99 188.24C293.93 188.34 292.42 191.21 292.65 193.77Z" fill="#E4897B"/>
<path d="M301.29 223.69C301.29 223.69 288.65 209.53 271.76 210.99C254.87 212.45 238 225.5 229.53 246C221.06 266.5 218.58 297.49 218.58 297.49C218.58 297.49 245.91 305.32 273.7 298.18C279.505 272.222 288.785 247.166 301.29 223.69Z" fill="#263238"/>
<path d="M301.29 223.69C305.56 228.12 317.75 248.43 321.22 249.19C324.69 249.95 329.74 246.83 333.69 248.02C337.64 249.21 341.69 252.81 340.79 255.12C339.89 257.43 330.59 263.58 319.06 263.91C309.19 264.2 288.39 239.62 288.39 239.62C288.39 230.12 301.29 223.69 301.29 223.69Z" fill="#263238"/>
<path d="M301.82 206.84V205.84C302.057 205.832 302.29 205.777 302.505 205.678C302.72 205.579 302.913 205.437 303.073 205.262C303.232 205.087 303.355 204.881 303.434 204.657C303.512 204.434 303.545 204.197 303.53 203.96C303.53 202.47 299.83 199.25 297.53 197.57L298.11 196.76C298.77 197.23 304.58 201.48 304.57 203.96C304.586 204.332 304.527 204.703 304.396 205.051C304.265 205.399 304.066 205.717 303.809 205.986C303.552 206.255 303.243 206.469 302.902 206.616C302.56 206.763 302.192 206.839 301.82 206.84Z" fill="#263238"/>
<path d="M301.24 193.42C301.24 197.56 298.82 200.92 295.85 200.92C292.88 200.92 290.46 197.56 290.46 193.42C290.46 189.28 292.87 185.93 295.85 185.93C298.83 185.93 301.24 189.28 301.24 193.42Z" fill="#16A086"/>
<path opacity="0.2" d="M301.24 193.42C301.24 197.56 298.82 200.92 295.85 200.92C292.88 200.92 290.46 197.56 290.46 193.42C290.46 189.28 292.87 185.93 295.85 185.93C298.83 185.93 301.24 189.28 301.24 193.42Z" fill="black"/>
<path d="M297.74 198.36C299.701 198.36 301.29 196.148 301.29 193.42C301.29 190.692 299.701 188.48 297.74 188.48C295.779 188.48 294.19 190.692 294.19 193.42C294.19 196.148 295.779 198.36 297.74 198.36Z" fill="#16A086"/>
<path d="M299.43 189.84C299.43 189.84 299.71 168.22 283.43 171.95C283.43 171.95 295.6 173.42 296.43 190.43L299.43 189.84Z" fill="#16A086"/>
<path d="M302.083 205.543L301.256 205.686C300.978 205.734 300.792 205.998 300.84 206.275L300.918 206.728C300.966 207.006 301.23 207.192 301.508 207.144L302.335 207.001C302.613 206.953 302.799 206.689 302.751 206.412L302.673 205.958C302.625 205.681 302.361 205.495 302.083 205.543Z" fill="#263238"/>
<path d="M211.4 317.18H278.32C279.646 317.18 280.918 317.707 281.855 318.644C282.793 319.582 283.32 320.854 283.32 322.18V328.87H206.4V322.18C206.4 320.854 206.927 319.582 207.864 318.644C208.802 317.707 210.074 317.18 211.4 317.18Z" fill="#16A086"/>
<path opacity="0.3" d="M211.4 317.18H278.32C279.646 317.18 280.918 317.707 281.855 318.644C282.793 319.582 283.32 320.854 283.32 322.18V328.87H206.4V322.18C206.4 320.854 206.927 319.582 207.864 318.644C208.802 317.707 210.074 317.18 211.4 317.18Z" fill="black"/>
<path d="M198.5 272.41H226C234.052 272.41 240.58 265.882 240.58 257.83V247.07C240.58 239.018 234.052 232.49 226 232.49H198.5C190.448 232.49 183.92 239.018 183.92 247.07V257.83C183.92 265.882 190.448 272.41 198.5 272.41Z" fill="#16A086"/>
<g opacity="0.3">
<path opacity="0.3" d="M198.5 272.41H226C234.052 272.41 240.58 265.882 240.58 257.83V247.07C240.58 239.018 234.052 232.49 226 232.49H198.5C190.448 232.49 183.92 239.018 183.92 247.07V257.83C183.92 265.882 190.448 272.41 198.5 272.41Z" fill="black"/>
</g>
<path d="M209.33 395.42L238.15 392.59V352.1H249.57V392.58L278.49 395.42C279.877 395.554 281.165 396.2 282.102 397.231C283.039 398.263 283.559 399.606 283.56 401V405.33H204.27V401C204.271 399.608 204.789 398.266 205.724 397.234C206.659 396.203 207.945 395.556 209.33 395.42Z" fill="#263238"/>
<path opacity="0.2" d="M209.33 395.42L238.15 392.59V352.1H249.57V392.58L278.49 395.42C279.877 395.554 281.165 396.2 282.102 397.231C283.039 398.263 283.559 399.606 283.56 401V405.33H204.27V401C204.271 399.608 204.789 398.266 205.724 397.234C206.659 396.203 207.945 395.556 209.33 395.42Z" fill="white"/>
<path d="M281.728 418.062C285.8 417.401 288.565 413.564 287.904 409.492C287.243 405.42 283.406 402.654 279.334 403.316C275.261 403.977 272.496 407.814 273.157 411.886C273.818 415.958 277.655 418.724 281.728 418.062Z" fill="#263238"/>
<path d="M212.608 415.983C215.525 413.066 215.525 408.336 212.608 405.419C209.691 402.502 204.961 402.502 202.044 405.419C199.127 408.336 199.127 413.066 202.044 415.983C204.961 418.901 209.691 418.901 212.608 415.983Z" fill="#263238"/>
<path d="M247.4 360.8H240.31C239.215 360.8 238.164 360.365 237.39 359.59C236.615 358.816 236.18 357.765 236.18 356.67V324.73H251.53V356.66C251.531 357.203 251.425 357.741 251.219 358.244C251.012 358.746 250.708 359.202 250.324 359.587C249.94 359.971 249.485 360.277 248.983 360.485C248.481 360.693 247.943 360.8 247.4 360.8Z" fill="#263238"/>
<path opacity="0.3" d="M247.4 360.8H240.31C239.215 360.8 238.164 360.365 237.39 359.59C236.615 358.816 236.18 357.765 236.18 356.67V324.73H251.53V356.66C251.531 357.203 251.425 357.741 251.219 358.244C251.012 358.746 250.708 359.202 250.324 359.587C249.94 359.971 249.485 360.277 248.983 360.485C248.481 360.693 247.943 360.8 247.4 360.8Z" fill="white"/>
<path d="M216.56 261.44C216.56 261.44 214.38 315.44 229.41 324.73H212.25C212.25 324.73 198.95 306.34 202.71 261.44H216.56Z" fill="#263238"/>
<path opacity="0.3" d="M216.56 261.44C216.56 261.44 214.38 315.44 229.41 324.73H212.25C212.25 324.73 198.95 306.34 202.71 261.44H216.56Z" fill="white"/>
<path d="M284.52 323.03H205.21C204.1 323.03 203.2 323.93 203.2 325.04V326.86C203.2 327.97 204.1 328.87 205.21 328.87H284.52C285.63 328.87 286.53 327.97 286.53 326.86V325.04C286.53 323.93 285.63 323.03 284.52 323.03Z" fill="#263238"/>
<path opacity="0.6" d="M284.52 323.03H205.21C204.1 323.03 203.2 323.93 203.2 325.04V326.86C203.2 327.97 204.1 328.87 205.21 328.87H284.52C285.63 328.87 286.53 327.97 286.53 326.86V325.04C286.53 323.93 285.63 323.03 284.52 323.03Z" fill="white"/>
<path d="M216.78 244.62H201.25C196.699 244.62 193.01 248.309 193.01 252.86V258.93C193.01 263.481 196.699 267.17 201.25 267.17H216.78C221.331 267.17 225.02 263.481 225.02 258.93V252.86C225.02 248.309 221.331 244.62 216.78 244.62Z" fill="#263238"/>
<path opacity="0.2" d="M216.78 244.62H201.25C196.699 244.62 193.01 248.309 193.01 252.86V258.93C193.01 263.481 196.699 267.17 201.25 267.17H216.78C221.331 267.17 225.02 263.481 225.02 258.93V252.86C225.02 248.309 221.331 244.62 216.78 244.62Z" fill="white"/>
</svg>
