<svg width="453" height="453" viewBox="0 0 453 453" fill="none" xmlns="http://www.w3.org/2000/svg">
<path d="M88.5706 380.466C164.747 420.266 288.253 420.266 364.429 380.466C440.606 340.665 440.615 276.149 364.429 236.348C288.244 196.548 164.747 196.557 88.5615 236.348C12.376 276.14 12.385 340.656 88.5706 380.466Z" fill="#B3DDD4"/>
<path d="M184.824 345.902C205.354 355.687 238.631 355.687 259.116 345.902C279.601 336.117 279.646 320.262 259.116 310.477C238.586 300.692 205.318 300.692 184.824 310.477C164.33 320.262 164.258 336.126 184.824 345.902Z" fill="#EBEBEB"/>
<path d="M362.545 321.684L289.159 364.04C288.551 364.348 287.879 364.508 287.197 364.508C286.516 364.508 285.844 364.348 285.236 364.04L193.503 311.057C193.267 310.977 193.061 310.824 192.916 310.621C192.77 310.418 192.692 310.174 192.692 309.924C192.692 309.675 192.77 309.431 192.916 309.228C193.061 309.025 193.267 308.872 193.503 308.792L266.889 266.436C267.497 266.128 268.169 265.968 268.851 265.968C269.533 265.968 270.204 266.128 270.812 266.436L362.572 319.419C362.808 319.502 363.012 319.657 363.155 319.862C363.298 320.067 363.373 320.312 363.37 320.562C363.367 320.812 363.286 321.054 363.138 321.256C362.99 321.457 362.783 321.607 362.545 321.684Z" fill="#EBEBEB"/>
<path d="M408.354 98.9536V118.405C408.354 118.405 400.363 122.147 385.704 122.147C371.045 122.147 363.054 118.396 363.054 118.396V99.3704L378.347 56.0908C378.139 57.4498 378.936 58.8088 380.73 59.8779C382.042 60.6878 383.534 61.1619 385.073 61.2583C386.612 61.3547 388.151 61.0704 389.554 60.4305C389.948 60.2756 390.33 60.0908 390.696 59.8779C392.598 58.7816 393.414 57.2776 393.042 55.8462L408.354 98.9536Z" fill="#B3DDD4"/>
<path opacity="0.5" d="M408.354 98.9536V118.405C408.354 118.405 400.363 122.147 385.704 122.147C371.045 122.147 363.054 118.396 363.054 118.396V99.3704L378.347 56.0908C378.139 57.4498 378.936 58.8088 380.73 59.8779C382.042 60.6878 383.534 61.1619 385.073 61.2583C386.612 61.3547 388.151 61.0704 389.554 60.4305C389.948 60.2756 390.33 60.0908 390.696 59.8779C392.598 58.7816 393.414 57.2776 393.042 55.8462L408.354 98.9536Z" fill="white"/>
<path d="M406.596 235.307C405.283 237.037 403.619 238.469 401.713 239.51C392.852 244.629 378.492 244.629 369.64 239.51C367.731 238.47 366.064 237.038 364.748 235.307C363.726 233.947 363.121 232.32 363.008 230.623V240.725C363.172 243.95 365.373 247.148 369.64 249.612C378.492 254.722 392.852 254.722 401.713 249.612C406.134 247.057 408.354 243.705 408.354 240.353V230.26C408.32 232.087 407.704 233.855 406.596 235.307Z" fill="#B3DDD4"/>
<path d="M406.596 225.205C405.283 226.935 403.619 228.367 401.713 229.409C401.187 229.708 400.653 229.988 400.1 230.251C391.738 234.238 379.606 234.238 371.253 230.251C370.7 229.988 370.157 229.708 369.64 229.409C367.731 228.368 366.064 226.936 364.748 225.205C363.726 223.849 363.121 222.224 363.008 220.53V230.623C363.121 232.32 363.726 233.947 364.748 235.307C366.064 237.038 367.731 238.47 369.64 239.51C378.492 244.629 392.852 244.629 401.713 239.51C403.619 238.469 405.283 237.037 406.596 235.307C407.704 233.855 408.32 232.087 408.354 230.26V220.158C408.321 221.985 407.705 223.753 406.596 225.205Z" fill="#EBEBEB"/>
<path d="M406.596 215.103C405.281 216.834 403.618 218.269 401.713 219.316C401.187 219.615 400.653 219.887 400.1 220.158C391.738 224.145 379.606 224.145 371.253 220.158C370.7 219.887 370.157 219.615 369.64 219.316C367.733 218.269 366.066 216.834 364.748 215.103C363.726 213.747 363.121 212.122 363.008 210.428V220.53C363.121 222.224 363.726 223.849 364.748 225.205C366.064 226.936 367.731 228.368 369.64 229.409C370.157 229.708 370.7 229.988 371.253 230.251C379.606 234.238 391.738 234.238 400.1 230.251C400.653 229.988 401.187 229.708 401.713 229.409C403.619 228.367 405.283 226.935 406.596 225.205C407.705 223.753 408.321 221.985 408.354 220.158V210.056C408.322 211.883 407.706 213.652 406.596 215.103Z" fill="#B3DDD4"/>
<path d="M363.008 99.3342V210.428C363.121 212.122 363.726 213.747 364.748 215.103C366.066 216.834 367.733 218.269 369.64 219.316C370.157 219.615 370.7 219.887 371.253 220.158C373.443 221.179 375.749 221.93 378.12 222.396L374.016 105.314L363.008 99.3342Z" fill="#B3DDD4"/>
<path d="M397.337 105.314L393.224 222.396C395.595 221.93 397.901 221.179 400.091 220.158C400.644 219.887 401.178 219.615 401.704 219.316C403.609 218.269 405.272 216.834 406.587 215.103C407.697 213.652 408.313 211.883 408.345 210.056V98.9536L397.337 105.314Z" fill="#B3DDD4"/>
<path d="M363.008 99.3342V210.428C363.121 212.122 363.726 213.747 364.748 215.103C366.066 216.834 367.733 218.269 369.64 219.316C370.157 219.615 370.7 219.887 371.253 220.158C373.443 221.179 375.749 221.93 378.12 222.396L374.016 105.314L363.008 99.3342Z" fill="#16A086"/>
<path d="M397.337 105.314L393.224 222.396C395.595 221.93 397.901 221.179 400.091 220.158C400.644 219.887 401.178 219.615 401.704 219.316C403.609 218.269 405.272 216.834 406.587 215.103C407.697 213.652 408.313 211.883 408.345 210.056V98.9536L397.337 105.314Z" fill="#16A086"/>
<path d="M374.016 105.314V221.282C375.358 221.746 376.729 222.121 378.12 222.405C380.608 222.908 383.139 223.16 385.677 223.157C388.214 223.155 390.745 222.903 393.233 222.405C394.624 222.121 395.995 221.746 397.337 221.282V105.314H374.016Z" fill="#EBEBEB"/>
<path d="M390.66 59.8326C390.294 60.0455 389.912 60.2303 389.518 60.3852C388.115 61.0251 386.576 61.3094 385.037 61.213C383.497 61.1166 382.006 60.6425 380.694 59.8326C378.882 58.7997 378.102 57.4045 378.311 56.0455L383.529 41.4317C383.701 41.0044 383.998 40.639 384.381 40.3835C384.764 40.128 385.216 39.9944 385.677 40.0002C386.138 39.9938 386.591 40.1271 386.976 40.3825C387.361 40.6379 387.659 41.0036 387.833 41.4317L392.997 55.7827C393.35 57.2142 392.562 58.7363 390.66 59.8326Z" fill="#16A086"/>
<path d="M401.713 249.612C394.102 254.006 382.433 254.613 373.681 251.424C373.192 251.255 372.712 251.065 372.241 250.854L371.588 250.582C370.909 250.274 370.256 249.939 369.64 249.585C365.373 247.121 363.172 243.923 363.008 240.697V268.222C362.845 271.701 365.047 275.207 369.64 277.852C370.184 278.169 370.755 278.468 371.344 278.758C371.561 278.867 371.797 278.949 372.014 279.048C372.395 279.211 372.766 279.384 373.156 279.529C373.545 279.673 373.763 279.746 374.062 279.846C374.361 279.945 374.705 280.081 375.04 280.181C375.375 280.28 375.783 280.389 376.154 280.489C376.526 280.589 376.725 280.652 377.015 280.715C377.305 280.779 377.876 280.906 378.311 280.987C378.555 280.987 378.8 281.096 379.045 281.132C379.534 281.223 380.032 281.286 380.53 281.359L381.119 281.44C381.672 281.504 382.225 281.549 382.777 281.585H383.212C383.819 281.63 384.426 281.649 385.024 281.658H385.314C385.966 281.658 386.619 281.658 387.271 281.658H387.416C388.105 281.658 388.793 281.576 389.482 281.513C393.517 281.17 397.447 280.044 401.051 278.197C401.251 278.088 401.459 277.997 401.658 277.88C406.08 275.325 408.299 271.972 408.299 268.62V240.353C408.354 243.705 406.134 247.057 401.713 249.612Z" fill="#16A086"/>
<path d="M102.813 255.564C100.195 254.903 86.215 246.948 84.7925 245.979C83.3701 245.01 80.5615 243.007 80.5615 239.555C80.5615 236.502 80.8786 207.71 83.3792 193.802C84.2007 189.476 85.8984 185.364 88.3679 181.718C90.8374 178.072 94.0266 174.97 97.7393 172.602C106.437 167.211 115.18 163.307 122.546 166.369C129.911 169.431 136.634 175.057 139.533 181.852C142.432 188.647 144.416 202.255 144.625 207.519C144.833 212.783 144.625 230.831 144.625 232.434C144.625 234.038 144.335 236.122 135.701 241.494C127.067 246.867 115.144 253.272 111.456 254.93C108.713 256.045 105.689 256.267 102.813 255.564Z" fill="#37474F"/>
<path d="M100.657 176.344C99.8593 176.797 97.5581 175.664 97.2138 175.094C96.8695 174.523 96.7789 169.585 98.5003 166.858C100.222 164.131 110.958 159.103 113.612 159.474C114.607 159.636 115.557 159.999 116.406 160.541C117.255 161.083 117.985 161.793 118.55 162.627C118.876 163.325 119.239 167.918 118.55 168.86C117.862 169.803 115.406 168.353 115.189 167.954C114.971 167.556 115.995 164.194 114.283 163.497C112.706 162.863 105.223 166.043 102.179 168.598C100.856 169.712 100.919 172.475 100.983 173.843C101.046 175.211 101.055 176.108 100.657 176.344Z" fill="#455A64"/>
<path d="M98.5003 208.761C100.041 193.802 102.813 185.069 117.445 178.554C132.077 172.04 137.757 177.585 139.832 182.577C142.55 189.571 144.425 202.437 144.625 207.519C144.833 212.783 144.625 230.831 144.625 232.434C144.625 234.038 144.335 236.122 135.701 241.494C127.067 246.867 115.144 253.272 111.456 254.93C108.716 256.054 105.692 256.286 102.813 255.592C102.235 255.416 101.671 255.195 101.128 254.93C96.5706 249.078 97.087 222.423 98.5003 208.761Z" fill="#455A64"/>
<path d="M132.611 172.711C128.788 170.473 122.518 168.996 113.313 173.1C96.8605 180.43 92.6838 189.608 91.0258 205.716C90.7269 208.67 90.2829 212.185 90.1198 215.963L88.7608 215.139C88.9511 211.062 89.3497 207.574 89.6668 204.421C91.4788 188.194 96.3441 179.225 112.063 172.222C120.77 168.344 126.487 168.851 130.274 170.763C131.087 171.37 131.867 172.02 132.611 172.711Z" fill="#263238"/>
<path d="M133.182 173.128C129.368 170.89 123.089 169.413 113.893 173.517C97.4312 180.847 93.2546 190.024 91.5966 206.133C91.2976 209.087 90.8537 212.602 90.6906 216.38L89.3316 215.556C89.5219 211.479 89.9205 207.99 90.2376 204.838C92.0496 188.611 96.9148 179.633 112.634 172.638C121.341 168.761 127.211 169.404 130.999 171.306C131.76 171.872 132.489 172.48 133.182 173.128Z" fill="#455A64"/>
<path d="M127.855 187.352L122.881 184.507C122.635 184.369 122.345 184.334 122.074 184.408C121.803 184.483 121.572 184.662 121.431 184.906L116.33 193.775C116.188 194.019 116.149 194.31 116.22 194.583C116.291 194.856 116.468 195.09 116.711 195.234L121.621 198.097C121.866 198.239 122.156 198.279 122.429 198.208C122.703 198.136 122.937 197.96 123.08 197.716L128.244 188.792C128.315 188.673 128.361 188.54 128.38 188.402C128.399 188.264 128.39 188.124 128.353 187.99C128.317 187.856 128.254 187.73 128.169 187.62C128.083 187.511 127.976 187.419 127.855 187.352Z" fill="#263238"/>
<path d="M122.518 197.082L127.42 188.629C127.455 188.569 127.478 188.502 127.487 188.432C127.496 188.363 127.491 188.292 127.473 188.225C127.454 188.157 127.422 188.094 127.379 188.039C127.336 187.984 127.282 187.938 127.221 187.904L122.691 185.331C122.568 185.262 122.423 185.245 122.287 185.282C122.151 185.319 122.036 185.409 121.966 185.531L117.119 193.947C117.05 194.07 117.032 194.215 117.069 194.351C117.107 194.486 117.196 194.602 117.318 194.672L121.766 197.272C121.828 197.311 121.896 197.337 121.968 197.349C122.04 197.36 122.113 197.357 122.183 197.339C122.254 197.321 122.32 197.289 122.377 197.245C122.435 197.201 122.483 197.145 122.518 197.082Z" fill="#455A64"/>
<path d="M123.569 193.041C123.7 192.962 123.81 192.854 123.892 192.725C123.974 192.596 124.025 192.45 124.04 192.299V188.249C124.04 187.986 123.832 187.904 123.569 188.049C123.439 188.128 123.328 188.237 123.246 188.365C123.165 188.494 123.114 188.64 123.098 188.792V192.842C123.098 193.105 123.307 193.186 123.569 193.041Z" fill="#37474F"/>
<path d="M120.942 194.564C121.072 194.482 121.182 194.372 121.264 194.242C121.346 194.111 121.397 193.964 121.413 193.812V189.771C121.413 189.508 121.196 189.417 120.942 189.571C120.81 189.649 120.699 189.757 120.617 189.886C120.535 190.016 120.485 190.162 120.471 190.314V194.364C120.498 194.618 120.679 194.708 120.942 194.564Z" fill="#37474F"/>
<path d="M105.277 221.408C105.277 221.408 107.742 223.438 109.517 231.084C111.293 238.731 112.362 248.362 110.423 249.521C108.484 250.681 105.685 248.253 104.987 247.42C103.556 245.707 103.909 227.533 105.277 221.408Z" fill="#263238"/>
<path d="M105.277 221.408C105.277 221.408 107.742 223.438 109.517 231.084C111.293 238.731 112.362 248.362 110.423 249.521L140.321 231.891C142.278 230.731 142.758 220.611 140.992 212.964C139.823 207.936 137.676 205.544 136.353 204.493C136.05 204.259 135.683 204.121 135.3 204.096C134.918 204.072 134.536 204.163 134.206 204.357L105.277 221.408Z" fill="#37474F"/>
<path d="M135.737 205.662C137.168 206.369 139.596 208.317 140.693 213.49C140.878 214.194 140.861 214.936 140.645 215.631C140.428 216.326 140.021 216.947 139.47 217.422C138.473 218.129 117.073 230.296 114.238 231.99C111.791 233.449 110.523 231.51 109.988 230.296C109.082 228.14 108.303 226.464 107.633 225.177C107.121 223.774 106.322 222.494 105.286 221.417L133.798 205.744C134.09 205.572 134.419 205.475 134.757 205.461C135.095 205.447 135.432 205.516 135.737 205.662Z" fill="#263238"/>
<path d="M91.0439 217.223C91.458 218.78 91.7279 220.372 91.8503 221.979C91.8503 222.305 91.4063 222.477 91.2795 222.477C90.2434 222.269 89.2844 221.78 88.5071 221.064C88.6524 219.694 88.9007 218.337 89.2501 217.005L91.0439 217.223Z" fill="#263238"/>
<path d="M91.9681 215.945C91.9681 215.603 91.8666 215.268 91.6764 214.984C91.4863 214.699 91.216 214.477 90.8998 214.346C90.5836 214.215 90.2357 214.181 89.9 214.248C89.5643 214.315 89.256 214.479 89.014 214.721C88.772 214.963 88.6072 215.272 88.5404 215.608C88.4736 215.943 88.5079 216.291 88.6389 216.607C88.7698 216.924 88.9916 217.194 89.2762 217.384C89.5608 217.574 89.8954 217.676 90.2376 217.676C90.6966 217.676 91.1367 217.493 91.4612 217.169C91.7858 216.844 91.9681 216.404 91.9681 215.945Z" fill="#263238"/>
<path d="M113.612 163.415C115.506 163.234 117.291 163.415 117.744 165.309C118.197 167.202 118.034 168.933 117.744 169.168C116.784 169.047 115.889 168.621 115.189 167.954C114.971 167.547 115.995 164.194 114.283 163.497C114.073 163.427 113.851 163.399 113.631 163.415H113.612Z" fill="#263238"/>
<path d="M134.387 204.258C134.68 204.085 135.011 203.987 135.351 203.973C135.691 203.958 136.029 204.028 136.335 204.176C137.766 204.883 140.194 206.831 141.291 212.004C141.474 212.708 141.457 213.45 141.241 214.145C141.025 214.84 140.618 215.46 140.068 215.936C139.071 216.643 117.68 228.81 114.845 230.505C112.398 231.963 111.121 230.024 110.586 228.81C107.624 222.613 105.277 221.408 105.277 221.408L134.387 204.258Z" fill="#37474F"/>
<path d="M129.259 309.662L105.268 295.818C104.642 295.408 104.12 294.857 103.746 294.208C103.371 293.56 103.154 292.833 103.112 292.085V292.357C103.153 291.609 103.369 290.882 103.744 290.233C104.118 289.585 104.641 289.033 105.268 288.624L153.513 260.774C154.179 260.434 154.916 260.257 155.664 260.257C156.412 260.257 157.15 260.434 157.816 260.774L181.807 274.627C182.435 275.033 182.958 275.582 183.333 276.229C183.708 276.876 183.924 277.603 183.963 278.35V278.079C183.923 278.826 183.708 279.553 183.335 280.201C182.962 280.85 182.442 281.401 181.816 281.811L133.572 309.662C132.904 310.001 132.165 310.179 131.415 310.179C130.666 310.179 129.927 310.001 129.259 309.662Z" fill="#92E3A9"/>
<path opacity="0.7" d="M129.259 309.662L105.268 295.818C104.642 295.408 104.12 294.857 103.746 294.208C103.371 293.56 103.154 292.833 103.112 292.085V292.357C103.153 291.609 103.369 290.882 103.744 290.233C104.118 289.585 104.641 289.033 105.268 288.624L153.513 260.774C154.179 260.434 154.916 260.257 155.664 260.257C156.412 260.257 157.15 260.434 157.816 260.774L181.807 274.627C182.435 275.033 182.958 275.582 183.333 276.229C183.708 276.876 183.924 277.603 183.963 278.35V278.079C183.923 278.826 183.708 279.553 183.335 280.201C182.962 280.85 182.442 281.401 181.816 281.811L133.572 309.662C132.904 310.001 132.165 310.179 131.415 310.179C130.666 310.179 129.927 310.001 129.259 309.662Z" fill="black"/>
<path d="M131.37 273.53L105.232 288.624C104.604 289.033 104.082 289.585 103.708 290.233C103.333 290.882 103.116 291.609 103.076 292.357V292.085C103.118 292.833 103.335 293.56 103.709 294.208C104.084 294.857 104.605 295.408 105.232 295.818L129.223 309.662C129.886 310.015 130.628 310.192 131.379 310.178L131.37 273.53Z" fill="#92E3A9"/>
<path opacity="0.7" d="M131.37 273.53L105.232 288.624C104.604 289.033 104.082 289.585 103.708 290.233C103.333 290.882 103.116 291.609 103.076 292.357V292.085C103.118 292.833 103.335 293.56 103.709 294.208C104.084 294.857 104.605 295.408 105.232 295.818L129.223 309.662C129.886 310.015 130.628 310.192 131.379 310.178L131.37 273.53Z" fill="black"/>
<path d="M105.259 291.116L129.241 304.969C129.91 305.304 130.649 305.478 131.397 305.478C132.146 305.478 132.884 305.304 133.553 304.969L181.798 277.109C182.994 276.421 182.994 275.297 181.798 274.627L157.807 260.774C157.141 260.434 156.403 260.257 155.655 260.257C154.907 260.257 154.17 260.434 153.504 260.774L105.259 288.624C104.063 289.313 104.063 290.427 105.259 291.116Z" fill="#92E3A9"/>
<path opacity="0.5" d="M105.259 291.116L129.241 304.969C129.91 305.304 130.649 305.478 131.397 305.478C132.146 305.478 132.884 305.304 133.553 304.969L181.798 277.109C182.994 276.421 182.994 275.297 181.798 274.627L157.807 260.774C157.141 260.434 156.403 260.257 155.655 260.257C154.907 260.257 154.17 260.434 153.504 260.774L105.259 288.624C104.063 289.313 104.063 290.427 105.259 291.116Z" fill="black"/>
<path d="M105.259 286.559V288.86L130.156 303.238C130.535 303.456 130.965 303.571 131.402 303.571C131.839 303.571 132.268 303.456 132.647 303.238L181.798 274.853V272.479L131.397 296.941L105.259 286.559Z" fill="#92E3A9"/>
<path d="M129.25 300.411L105.259 286.559C104.631 286.151 104.108 285.6 103.733 284.951C103.358 284.302 103.142 283.574 103.103 282.826V278.396C103.142 277.647 103.358 276.919 103.733 276.27C104.108 275.622 104.631 275.071 105.259 274.663L153.504 246.803C154.17 246.464 154.907 246.287 155.655 246.287C156.403 246.287 157.141 246.464 157.807 246.803L181.798 260.656C182.426 261.064 182.949 261.615 183.324 262.264C183.699 262.912 183.915 263.641 183.954 264.389V268.828C183.909 269.56 183.69 270.271 183.315 270.901C182.94 271.531 182.42 272.063 181.798 272.452L133.553 300.384C132.889 300.728 132.153 300.91 131.405 300.915C130.657 300.919 129.918 300.747 129.25 300.411Z" fill="#92E3A9"/>
<path opacity="0.6" d="M129.25 300.411L105.259 286.559C104.631 286.151 104.108 285.6 103.733 284.951C103.358 284.302 103.142 283.574 103.103 282.826V278.396C103.142 277.647 103.358 276.919 103.733 276.27C104.108 275.622 104.631 275.071 105.259 274.663L153.504 246.803C154.17 246.464 154.907 246.287 155.655 246.287C156.403 246.287 157.141 246.464 157.807 246.803L181.798 260.656C182.426 261.064 182.949 261.615 183.324 262.264C183.699 262.912 183.915 263.641 183.954 264.389V268.828C183.909 269.56 183.69 270.271 183.315 270.901C182.94 271.531 182.42 272.063 181.798 272.452L133.553 300.384C132.889 300.728 132.153 300.91 131.405 300.915C130.657 300.919 129.918 300.747 129.25 300.411Z" fill="black"/>
<path d="M131.37 259.569L105.232 274.663C104.603 275.071 104.08 275.622 103.706 276.27C103.331 276.919 103.115 277.647 103.076 278.396V282.826C103.115 283.574 103.331 284.302 103.706 284.951C104.08 285.6 104.603 286.151 105.232 286.559L129.223 300.411C129.882 300.766 130.622 300.943 131.37 300.928V259.569Z" fill="#92E3A9"/>
<path opacity="0.7" d="M131.37 259.569L105.232 274.663C104.603 275.071 104.08 275.622 103.706 276.27C103.331 276.919 103.115 277.647 103.076 278.396V282.826C103.115 283.574 103.331 284.302 103.706 284.951C104.08 285.6 104.603 286.151 105.232 286.559L129.223 300.411C129.882 300.766 130.622 300.943 131.37 300.928V259.569Z" fill="black"/>
<path d="M105.259 277.145L129.241 290.998C129.909 291.338 130.648 291.515 131.397 291.515C132.147 291.515 132.885 291.338 133.553 290.998L181.798 263.148C182.994 262.459 182.994 261.336 181.798 260.656L157.807 246.803C157.141 246.464 156.403 246.287 155.655 246.287C154.907 246.287 154.17 246.464 153.504 246.803L105.259 274.663C104.063 275.352 104.063 276.466 105.259 277.145Z" fill="#92E3A9"/>
<path opacity="0.5" d="M105.259 277.145L129.241 290.998C129.909 291.338 130.648 291.515 131.397 291.515C132.147 291.515 132.885 291.338 133.553 290.998L181.798 263.148C182.994 262.459 182.994 261.336 181.798 260.656L157.807 246.803C157.141 246.464 156.403 246.287 155.655 246.287C154.907 246.287 154.17 246.464 153.504 246.803L105.259 274.663C104.063 275.352 104.063 276.466 105.259 277.145Z" fill="black"/>
<path d="M138.718 266.137C136.063 267.678 136.063 270.151 138.718 271.673C140.21 272.424 141.858 272.815 143.529 272.815C145.199 272.815 146.847 272.424 148.339 271.673C150.994 270.151 150.994 267.678 148.339 266.137C146.848 265.383 145.2 264.99 143.529 264.99C141.857 264.99 140.209 265.383 138.718 266.137Z" fill="#92E3A9"/>
<path d="M177.893 267.759C177.647 267.92 177.442 268.137 177.296 268.392C177.149 268.647 177.065 268.933 177.051 269.227C177.051 269.771 177.431 269.997 177.893 269.734C178.139 269.573 178.344 269.357 178.49 269.101C178.637 268.846 178.721 268.56 178.736 268.267C178.736 267.723 178.355 267.497 177.893 267.759Z" fill="#92E3A9"/>
<path d="M177.893 271.012C177.647 271.173 177.442 271.39 177.296 271.645C177.149 271.9 177.065 272.186 177.051 272.48C177.051 273.023 177.431 273.25 177.893 272.987C178.142 272.829 178.349 272.613 178.496 272.357C178.643 272.102 178.725 271.814 178.736 271.519C178.736 270.976 178.355 270.749 177.893 271.012Z" fill="#92E3A9"/>
<path d="M119.202 327.972C119.092 327.972 118.983 327.944 118.885 327.89L95.6373 314.382C95.0354 314.033 94.5358 313.533 94.1884 312.93C93.841 312.327 93.6582 311.644 93.6582 310.948C93.6582 310.253 93.841 309.569 94.1884 308.967C94.5358 308.364 95.0354 307.863 95.6373 307.515L112.679 297.675C112.824 297.602 112.991 297.587 113.147 297.633C113.302 297.679 113.434 297.783 113.515 297.923C113.596 298.064 113.621 298.23 113.583 298.388C113.546 298.545 113.449 298.683 113.313 298.772L96.2806 308.584C95.875 308.824 95.539 309.166 95.3057 309.576C95.0723 309.986 94.9496 310.449 94.9496 310.921C94.9496 311.393 95.0723 311.856 95.3057 312.266C95.539 312.676 95.875 313.018 96.2806 313.259L119.529 326.749C119.607 326.79 119.675 326.847 119.73 326.916C119.784 326.985 119.824 327.066 119.845 327.151C119.866 327.237 119.869 327.326 119.854 327.413C119.838 327.499 119.805 327.582 119.755 327.655C119.701 327.753 119.62 327.835 119.523 327.89C119.426 327.946 119.315 327.975 119.202 327.972Z" fill="#92E3A9"/>
<path d="M148.321 314.926L143.284 294.704C143.212 294.425 143.118 294.152 143.003 293.888L144.471 293.68L141.273 291.868C140.601 291.503 139.844 291.328 139.081 291.362C138.318 291.395 137.578 291.636 136.942 292.058L115.968 304.199C114.528 305.142 113.33 306.411 112.473 307.903C111.615 309.395 111.121 311.069 111.03 312.787V337.104C111.03 339.043 111.501 340.375 112.471 340.837L115.479 342.577L114.754 340.656L114.917 340.593C118.369 338.944 119.619 335.936 120.652 332.955L124.647 321.403C125.68 318.423 128.271 315.007 130.391 313.766C132.512 312.525 135.538 313.766 137.096 316.484L139.107 319.999C139.721 321.115 140.647 322.028 141.771 322.627L144.833 324.439L144.054 323.225C144.691 323.226 145.316 323.057 145.866 322.735C147.959 321.485 149.082 318.006 148.321 314.926Z" fill="#92E3A9"/>
<path opacity="0.7" d="M148.321 314.926L143.284 294.704C143.212 294.425 143.118 294.152 143.003 293.888L144.471 293.68L141.273 291.868C140.601 291.503 139.844 291.328 139.081 291.362C138.318 291.395 137.578 291.636 136.942 292.058L115.968 304.199C114.528 305.142 113.33 306.411 112.473 307.903C111.615 309.395 111.121 311.069 111.03 312.787V337.104C111.03 339.043 111.501 340.375 112.471 340.837L115.479 342.577L114.754 340.656L114.917 340.593C118.369 338.944 119.619 335.936 120.652 332.955L124.647 321.403C125.68 318.423 128.271 315.007 130.391 313.766C132.512 312.525 135.538 313.766 137.096 316.484L139.107 319.999C139.721 321.115 140.647 322.028 141.771 322.627L144.833 324.439L144.054 323.225C144.691 323.226 145.316 323.057 145.866 322.735C147.959 321.485 149.082 318.006 148.321 314.926Z" fill="black"/>
<path d="M143.003 293.888L144.471 293.68L141.273 291.868C140.601 291.503 139.844 291.328 139.081 291.362C138.318 291.395 137.578 291.636 136.942 292.058L115.968 304.199C114.796 304.929 113.795 305.902 113.033 307.052L118.025 310.097L143.556 295.673L143.311 294.704C143.23 294.424 143.127 294.151 143.003 293.888Z" fill="#92E3A9"/>
<path opacity="0.5" d="M143.003 293.888L144.471 293.68L141.273 291.868C140.601 291.503 139.844 291.328 139.081 291.362C138.318 291.395 137.578 291.636 136.942 292.058L115.968 304.199C114.796 304.929 113.795 305.902 113.033 307.052L118.025 310.097L143.556 295.673L143.311 294.704C143.23 294.424 143.127 294.151 143.003 293.888Z" fill="black"/>
<path d="M149.064 324.62C146.917 325.861 143.9 324.62 142.333 321.902L140.33 318.387C138.763 315.669 135.8 314.427 133.617 315.669C131.433 316.91 128.906 320.316 127.873 323.306L123.886 334.849C122.854 337.829 121.594 340.837 118.142 342.486C115.533 343.736 114.274 342.16 114.274 339.007V314.672C114.367 312.954 114.864 311.282 115.723 309.792C116.582 308.301 117.781 307.034 119.221 306.092L140.231 293.906C140.797 293.51 141.454 293.265 142.142 293.194C142.829 293.122 143.523 293.228 144.158 293.5C144.793 293.772 145.348 294.202 145.771 294.749C146.193 295.296 146.469 295.941 146.573 296.624L151.61 316.855C152.353 319.881 151.22 323.379 149.064 324.62Z" fill="#92E3A9"/>
<path opacity="0.6" d="M149.064 324.62C146.917 325.861 143.9 324.62 142.333 321.902L140.33 318.387C138.763 315.669 135.8 314.427 133.617 315.669C131.433 316.91 128.906 320.316 127.873 323.306L123.886 334.849C122.854 337.829 121.594 340.837 118.142 342.486C115.533 343.736 114.274 342.16 114.274 339.007V314.672C114.367 312.954 114.864 311.282 115.723 309.792C116.582 308.301 117.781 307.034 119.221 306.092L140.231 293.906C140.797 293.51 141.454 293.265 142.142 293.194C142.829 293.122 143.523 293.228 144.158 293.5C144.793 293.772 145.348 294.202 145.771 294.749C146.193 295.296 146.469 295.941 146.573 296.624L151.61 316.855C152.353 319.881 151.22 323.379 149.064 324.62Z" fill="black"/>
<path d="M140.919 300.91L141.445 303.891L143.773 302.405L144.29 305.385L141.97 306.88L142.496 309.861L140.176 311.347L139.651 308.366L137.331 309.861L136.806 306.871L139.125 305.385L138.6 302.405L140.919 300.91Z" fill="#263238"/>
<path d="M141.59 301.263L142.115 304.244L144.435 302.758L144.96 305.739L142.641 307.234L143.166 310.214L140.847 311.7L140.321 308.72L138.002 310.205L137.476 307.225L139.796 305.739L139.27 302.758L141.59 301.263Z" fill="#92E3A9"/>
<path d="M123.343 311.465C123.405 311.885 123.353 312.313 123.194 312.707C123.035 313.1 122.773 313.444 122.437 313.703C121.794 314.11 121.159 313.775 121.014 312.951C120.949 312.531 120.999 312.101 121.159 311.707C121.318 311.313 121.582 310.969 121.92 310.713C122.555 310.305 123.216 310.64 123.343 311.465Z" fill="#263238"/>
<path d="M124.394 317.426C124.459 317.846 124.409 318.276 124.249 318.67C124.09 319.064 123.827 319.407 123.488 319.664C122.845 320.072 122.21 319.736 122.065 318.921C121.999 318.501 122.049 318.071 122.208 317.677C122.368 317.283 122.632 316.939 122.971 316.683C123.606 316.266 124.249 316.602 124.394 317.426Z" fill="#263238"/>
<path d="M126.188 312.951C126.254 313.371 126.204 313.801 126.045 314.195C125.885 314.589 125.621 314.932 125.282 315.188C124.638 315.605 124.004 315.27 123.859 314.445C123.793 314.025 123.843 313.595 124.002 313.201C124.162 312.807 124.426 312.464 124.765 312.208C125.409 311.8 126.043 312.126 126.188 312.951Z" fill="#263238"/>
<path d="M121.549 315.931C121.615 316.351 121.565 316.781 121.406 317.176C121.246 317.57 120.983 317.913 120.643 318.169C120 318.586 119.365 318.251 119.221 317.426C119.156 317.006 119.206 316.576 119.365 316.182C119.525 315.788 119.788 315.445 120.127 315.188C120.77 314.781 121.404 315.107 121.549 315.931Z" fill="#263238"/>
<path d="M123.388 311.492C123.453 311.912 123.403 312.342 123.244 312.736C123.084 313.13 122.821 313.473 122.482 313.73C121.839 314.137 121.205 313.811 121.06 312.987C120.994 312.567 121.043 312.137 121.203 311.742C121.362 311.348 121.626 311.005 121.966 310.749C122.609 310.332 123.216 310.667 123.388 311.492Z" fill="#263238"/>
<path d="M124.439 317.453C124.505 317.873 124.456 318.304 124.296 318.698C124.136 319.092 123.873 319.435 123.533 319.691C122.89 320.108 122.256 319.773 122.111 318.948C122.045 318.528 122.094 318.098 122.254 317.704C122.413 317.31 122.677 316.966 123.017 316.71C123.66 316.303 124.294 316.629 124.439 317.453Z" fill="#263238"/>
<path d="M126.233 312.987C126.297 313.405 126.247 313.834 126.087 314.226C125.928 314.618 125.665 314.96 125.327 315.216C124.693 315.632 124.049 315.297 123.905 314.473C123.842 314.053 123.892 313.624 124.052 313.23C124.211 312.836 124.473 312.493 124.811 312.235C125.454 311.827 126.088 312.162 126.233 312.987Z" fill="#263238"/>
<path d="M121.594 315.968C121.659 316.388 121.609 316.817 121.45 317.211C121.29 317.605 121.027 317.949 120.688 318.205C120.054 318.613 119.411 318.278 119.266 317.453C119.204 317.033 119.255 316.605 119.414 316.211C119.574 315.818 119.835 315.474 120.172 315.216C120.815 314.808 121.449 315.143 121.594 315.968Z" fill="#263238"/>
<path d="M123.433 311.519C123.499 311.939 123.45 312.369 123.29 312.763C123.131 313.158 122.867 313.501 122.527 313.757C121.893 314.174 121.25 313.838 121.105 313.014C121.042 312.594 121.093 312.165 121.252 311.771C121.412 311.378 121.674 311.034 122.011 310.776C122.654 310.368 123.288 310.695 123.433 311.519Z" fill="#263238"/>
<path d="M124.484 317.49C124.549 317.908 124.498 318.337 124.339 318.729C124.179 319.121 123.916 319.463 123.578 319.718C122.944 320.135 122.301 319.8 122.156 318.975C122.093 318.555 122.144 318.126 122.303 317.733C122.463 317.339 122.725 316.995 123.062 316.738C123.705 316.33 124.339 316.665 124.484 317.49Z" fill="#263238"/>
<path d="M126.287 313.014C126.35 313.434 126.299 313.863 126.14 314.257C125.981 314.65 125.719 314.994 125.381 315.252C124.738 315.659 124.104 315.324 123.959 314.509C123.893 314.089 123.942 313.659 124.102 313.264C124.262 312.87 124.525 312.527 124.865 312.271C125.499 311.854 126.142 312.189 126.287 313.014Z" fill="#263238"/>
<path d="M121.649 315.995C121.712 316.415 121.661 316.844 121.501 317.237C121.342 317.631 121.08 317.975 120.743 318.232C120.099 318.64 119.465 318.314 119.32 317.49C119.254 317.069 119.304 316.639 119.463 316.245C119.623 315.851 119.887 315.508 120.226 315.252C120.86 314.835 121.504 315.17 121.649 315.995Z" fill="#263238"/>
<path d="M123.488 311.555C123.551 311.975 123.5 312.404 123.341 312.798C123.181 313.192 122.919 313.535 122.582 313.793C121.939 314.201 121.304 313.866 121.159 313.041C121.095 312.622 121.146 312.194 121.305 311.802C121.465 311.409 121.727 311.067 122.065 310.812C122.7 310.396 123.343 310.758 123.488 311.555Z" fill="#263238"/>
<path d="M124.539 317.517C124.602 317.937 124.551 318.366 124.391 318.759C124.232 319.153 123.97 319.497 123.633 319.755C122.989 320.162 122.355 319.836 122.21 319.012C122.144 318.592 122.194 318.161 122.353 317.767C122.513 317.373 122.777 317.03 123.116 316.774C123.751 316.357 124.394 316.692 124.539 317.517Z" fill="#263238"/>
<path d="M126.333 313.041C126.399 313.461 126.349 313.891 126.19 314.285C126.03 314.68 125.766 315.023 125.427 315.279C124.783 315.696 124.149 315.36 124.004 314.536C123.939 314.116 123.989 313.686 124.149 313.292C124.308 312.898 124.571 312.555 124.91 312.298C125.553 311.891 126.188 312.217 126.333 313.041Z" fill="#263238"/>
<path d="M121.694 316.022C121.76 316.442 121.71 316.872 121.551 317.266C121.391 317.66 121.128 318.004 120.788 318.26C120.145 318.676 119.51 318.341 119.365 317.517C119.301 317.097 119.35 316.667 119.51 316.273C119.669 315.879 119.933 315.536 120.271 315.279C120.915 314.871 121.549 315.197 121.694 316.022Z" fill="#263238"/>
<path d="M123.533 311.582C123.598 312.002 123.548 312.432 123.389 312.826C123.229 313.22 122.966 313.564 122.627 313.82C121.984 314.228 121.35 313.902 121.205 313.077C121.139 312.657 121.188 312.227 121.348 311.833C121.507 311.439 121.771 311.095 122.111 310.84C122.754 310.423 123.388 310.758 123.533 311.582Z" fill="#263238"/>
<path d="M124.584 317.544C124.65 317.964 124.6 318.394 124.441 318.788C124.281 319.182 124.018 319.526 123.678 319.782C123.035 320.199 122.401 319.863 122.256 319.039C122.191 318.619 122.241 318.189 122.4 317.795C122.56 317.401 122.823 317.058 123.162 316.801C123.805 316.393 124.439 316.72 124.584 317.544Z" fill="#263238"/>
<path d="M126.378 313.077C126.442 313.497 126.391 313.927 126.232 314.321C126.073 314.714 125.81 315.058 125.472 315.315C124.829 315.723 124.194 315.388 124.049 314.563C123.985 314.143 124.035 313.713 124.194 313.319C124.354 312.925 124.617 312.582 124.955 312.325C125.599 311.918 126.233 312.253 126.378 313.077Z" fill="#263238"/>
<path d="M121.739 316.058C121.804 316.478 121.754 316.908 121.595 317.302C121.435 317.696 121.172 318.039 120.833 318.296C120.199 318.704 119.556 318.368 119.411 317.544C119.349 317.125 119.4 316.698 119.559 316.306C119.719 315.914 119.98 315.572 120.317 315.315C120.96 314.898 121.594 315.234 121.739 316.058Z" fill="#263238"/>
<path d="M123.578 311.61C123.644 312.03 123.595 312.46 123.435 312.854C123.276 313.248 123.012 313.592 122.672 313.847C122.038 314.264 121.395 313.929 121.25 313.105C121.187 312.685 121.238 312.255 121.397 311.862C121.557 311.468 121.819 311.125 122.156 310.867C122.799 310.459 123.433 310.758 123.578 311.61Z" fill="#263238"/>
<path d="M124.629 317.58C124.693 318 124.643 318.43 124.483 318.823C124.324 319.217 124.061 319.561 123.723 319.818C123.089 320.226 122.446 319.89 122.301 319.066C122.238 318.646 122.289 318.217 122.448 317.823C122.608 317.43 122.87 317.086 123.207 316.828C123.85 316.421 124.484 316.756 124.629 317.58Z" fill="#263238"/>
<path d="M126.423 313.105C126.488 313.525 126.438 313.954 126.279 314.348C126.119 314.742 125.856 315.086 125.517 315.342C124.883 315.75 124.24 315.424 124.095 314.599C124.031 314.179 124.081 313.75 124.241 313.356C124.4 312.962 124.663 312.619 125.001 312.362C125.644 311.945 126.278 312.28 126.423 313.105Z" fill="#263238"/>
<path d="M121.794 316.085C121.857 316.505 121.806 316.934 121.646 317.328C121.487 317.722 121.225 318.065 120.888 318.323C120.244 318.731 119.61 318.405 119.465 317.58C119.399 317.16 119.449 316.73 119.608 316.336C119.768 315.942 120.032 315.598 120.371 315.342C121.005 314.926 121.649 315.288 121.794 316.085Z" fill="#263238"/>
<path d="M123.633 311.664C123.696 312.084 123.645 312.513 123.485 312.907C123.326 313.3 123.064 313.644 122.727 313.902C122.083 314.31 121.449 313.974 121.304 313.159C121.238 312.739 121.288 312.309 121.447 311.915C121.607 311.52 121.871 311.177 122.21 310.921C122.845 310.486 123.488 310.821 123.633 311.664Z" fill="#263238"/>
<path d="M124.684 317.607C124.747 318.027 124.696 318.456 124.536 318.85C124.377 319.244 124.115 319.587 123.778 319.845C123.134 320.253 122.5 319.927 122.355 319.102C122.289 318.682 122.339 318.252 122.498 317.858C122.658 317.464 122.922 317.12 123.261 316.864C123.895 316.448 124.539 316.783 124.684 317.607Z" fill="#263238"/>
<path d="M126.478 313.132C126.542 313.552 126.491 313.981 126.332 314.375C126.172 314.769 125.91 315.112 125.572 315.37C124.928 315.786 124.294 315.451 124.149 314.627C124.084 314.207 124.134 313.777 124.294 313.383C124.453 312.989 124.716 312.645 125.055 312.389C125.689 311.981 126.333 312.307 126.478 313.132Z" fill="#263238"/>
<path d="M121.839 316.112C121.905 316.533 121.855 316.963 121.696 317.357C121.536 317.751 121.272 318.094 120.933 318.35C120.29 318.767 119.655 318.432 119.51 317.607C119.446 317.187 119.495 316.758 119.655 316.364C119.814 315.97 120.078 315.626 120.416 315.37C121.06 314.962 121.694 315.288 121.839 316.112Z" fill="#263238"/>
<path d="M123.678 311.664C123.744 312.084 123.695 312.514 123.535 312.908C123.375 313.303 123.112 313.646 122.772 313.902C122.129 314.319 121.495 313.983 121.35 313.159C121.284 312.739 121.333 312.309 121.493 311.915C121.652 311.52 121.916 311.177 122.256 310.921C122.899 310.513 123.533 310.849 123.678 311.664Z" fill="#263238"/>
<path d="M124.729 317.635C124.795 318.055 124.745 318.485 124.586 318.879C124.426 319.273 124.163 319.616 123.823 319.872C123.18 320.289 122.546 319.954 122.401 319.129C122.336 318.709 122.386 318.28 122.545 317.886C122.705 317.492 122.968 317.148 123.307 316.892C123.95 316.484 124.584 316.81 124.729 317.635Z" fill="#263238"/>
<path d="M126.523 313.168C126.588 313.588 126.538 314.018 126.378 314.412C126.219 314.806 125.956 315.149 125.617 315.406C124.974 315.813 124.339 315.478 124.194 314.654C124.13 314.235 124.181 313.807 124.34 313.414C124.5 313.022 124.762 312.68 125.1 312.425C125.744 312.008 126.378 312.343 126.523 313.168Z" fill="#263238"/>
<path d="M121.884 316.194C121.949 316.614 121.899 317.044 121.74 317.438C121.58 317.832 121.317 318.175 120.978 318.432C120.344 318.839 119.701 318.504 119.556 317.689C119.49 317.269 119.539 316.839 119.699 316.445C119.858 316.05 120.122 315.707 120.462 315.451C121.105 314.989 121.739 315.288 121.884 316.194Z" fill="#263238"/>
<path d="M123.723 311.709C123.788 312.128 123.737 312.556 123.578 312.949C123.418 313.341 123.155 313.683 122.817 313.938C122.174 314.355 121.54 314.02 121.395 313.195C121.33 312.775 121.38 312.345 121.539 311.951C121.699 311.557 121.962 311.214 122.301 310.957C122.944 310.55 123.578 310.885 123.723 311.709Z" fill="#263238"/>
<path d="M124.774 317.671C124.839 318.091 124.789 318.521 124.63 318.915C124.47 319.309 124.207 319.652 123.868 319.909C123.234 320.316 122.591 319.981 122.446 319.157C122.382 318.738 122.432 318.31 122.592 317.917C122.751 317.525 123.014 317.183 123.352 316.928C123.995 316.511 124.629 316.846 124.774 317.671Z" fill="#263238"/>
<path d="M126.568 313.195C126.633 313.615 126.583 314.045 126.424 314.439C126.264 314.833 126.001 315.176 125.662 315.433C125.028 315.841 124.385 315.514 124.24 314.69C124.176 314.27 124.226 313.841 124.386 313.447C124.545 313.053 124.808 312.709 125.146 312.452C125.789 312.035 126.423 312.371 126.568 313.195Z" fill="#263238"/>
<path d="M121.929 316.194C121.995 316.614 121.946 317.044 121.786 317.438C121.627 317.833 121.363 318.176 121.023 318.432C120.389 318.849 119.755 318.513 119.601 317.689C119.537 317.269 119.587 316.839 119.747 316.446C119.906 316.052 120.169 315.708 120.507 315.451C121.15 315.016 121.784 315.351 121.929 316.194Z" fill="#263238"/>
<path d="M123.769 311.736C123.834 312.157 123.784 312.586 123.624 312.98C123.465 313.374 123.202 313.718 122.863 313.974C122.228 314.382 121.585 314.047 121.44 313.231C121.376 312.811 121.427 312.382 121.586 311.988C121.746 311.594 122.008 311.251 122.346 310.994C122.989 310.577 123.624 310.912 123.769 311.736Z" fill="#263238"/>
<path d="M124.82 317.698C124.885 318.118 124.835 318.548 124.675 318.942C124.516 319.336 124.252 319.679 123.914 319.936C123.279 320.343 122.645 320.017 122.5 319.193C122.434 318.773 122.484 318.343 122.643 317.948C122.803 317.554 123.067 317.211 123.406 316.955C124.04 316.538 124.675 316.873 124.82 317.698Z" fill="#263238"/>
<path d="M126.623 313.222C126.686 313.642 126.636 314.072 126.477 314.466C126.317 314.859 126.055 315.203 125.717 315.46C125.073 315.877 124.439 315.542 124.294 314.717C124.229 314.297 124.279 313.867 124.439 313.473C124.598 313.079 124.861 312.736 125.2 312.479C125.834 312.072 126.478 312.407 126.623 313.222Z" fill="#263238"/>
<path d="M121.984 316.194C122.046 316.613 121.995 317.04 121.835 317.432C121.676 317.824 121.414 318.166 121.078 318.423C120.435 318.84 119.8 318.504 119.655 317.68C119.59 317.26 119.64 316.83 119.8 316.436C119.959 316.042 120.223 315.699 120.561 315.442C121.196 315.052 121.839 315.388 121.984 316.194Z" fill="#263238"/>
<path d="M123.823 311.764C123.887 312.184 123.837 312.613 123.677 313.007C123.518 313.401 123.255 313.744 122.917 314.001C122.274 314.418 121.64 314.083 121.495 313.259C121.43 312.839 121.48 312.409 121.639 312.015C121.799 311.621 122.062 311.277 122.401 311.021C123.035 310.613 123.678 310.939 123.823 311.764Z" fill="#263238"/>
<path d="M124.874 317.725C124.938 318.145 124.887 318.575 124.728 318.968C124.569 319.362 124.306 319.706 123.968 319.963C123.325 320.38 122.69 320.045 122.546 319.22C122.481 318.8 122.531 318.37 122.69 317.976C122.85 317.582 123.113 317.239 123.452 316.982C124.122 316.574 124.729 316.91 124.874 317.725Z" fill="#263238"/>
<path d="M126.668 313.259C126.733 313.679 126.683 314.108 126.523 314.502C126.364 314.896 126.101 315.24 125.762 315.496C125.119 315.904 124.484 315.569 124.339 314.753C124.274 314.333 124.323 313.903 124.483 313.509C124.642 313.115 124.906 312.772 125.245 312.516C125.934 312.099 126.523 312.434 126.668 313.259Z" fill="#263238"/>
<path d="M122.029 316.239C122.094 316.659 122.044 317.089 121.885 317.483C121.725 317.877 121.462 318.221 121.123 318.477C120.48 318.885 119.846 318.55 119.701 317.734C119.635 317.314 119.684 316.884 119.844 316.49C120.003 316.096 120.267 315.752 120.607 315.496C121.25 315.08 121.884 315.415 122.029 316.239Z" fill="#263238"/>
<path d="M123.868 311.8C123.932 312.22 123.882 312.649 123.722 313.043C123.563 313.437 123.3 313.781 122.962 314.038C122.319 314.445 121.685 314.11 121.54 313.286C121.475 312.866 121.525 312.436 121.684 312.042C121.844 311.648 122.107 311.305 122.446 311.048C123.089 310.64 123.723 310.975 123.868 311.8Z" fill="#263238"/>
<path d="M124.919 317.761C124.984 318.181 124.934 318.611 124.775 319.005C124.615 319.399 124.352 319.743 124.013 319.999C123.37 320.407 122.736 320.072 122.591 319.256C122.525 318.836 122.574 318.406 122.734 318.012C122.894 317.618 123.157 317.274 123.497 317.018C124.122 316.602 124.774 316.937 124.919 317.761Z" fill="#263238"/>
<path d="M126.713 313.286C126.779 313.706 126.73 314.136 126.57 314.53C126.41 314.924 126.147 315.268 125.807 315.524C125.173 315.94 124.53 315.605 124.385 314.781C124.321 314.361 124.371 313.931 124.531 313.537C124.69 313.144 124.953 312.8 125.291 312.543C125.934 312.126 126.568 312.461 126.713 313.286Z" fill="#263238"/>
<path d="M122.074 316.266C122.14 316.687 122.091 317.117 121.931 317.511C121.772 317.905 121.508 318.248 121.168 318.504C120.534 318.921 119.891 318.586 119.746 317.761C119.683 317.341 119.734 316.912 119.893 316.519C120.053 316.125 120.315 315.781 120.652 315.524C121.295 315.116 121.929 315.442 122.074 316.266Z" fill="#263238"/>
<path d="M140.919 300.91L141.59 301.263L139.27 302.758L138.6 302.405L140.919 300.91Z" fill="#263238"/>
<path d="M139.125 305.385L139.796 305.739L137.476 307.225L136.806 306.871L139.125 305.385Z" fill="#263238"/>
<path d="M142.115 304.244L141.988 303.546L143.773 302.405L144.435 302.758L142.115 304.244Z" fill="#263238"/>
<path d="M136.806 306.871L137.476 307.225L138.002 310.205L137.331 309.861L136.806 306.871Z" fill="#263238"/>
<path d="M140.176 311.347L140.847 311.7L140.321 308.72L139.778 309.073L140.176 311.347Z" fill="#263238"/>
<path d="M123.868 311.8C123.932 312.22 123.882 312.649 123.722 313.043C123.563 313.437 123.3 313.781 122.962 314.038C122.319 314.445 121.685 314.11 121.54 313.286C121.475 312.866 121.525 312.436 121.684 312.042C121.844 311.648 122.107 311.305 122.446 311.048C123.089 310.64 123.723 310.975 123.868 311.8Z" fill="#92E3A9"/>
<path d="M124.919 317.761C124.984 318.181 124.934 318.611 124.775 319.005C124.615 319.399 124.352 319.743 124.013 319.999C123.37 320.407 122.736 320.072 122.591 319.256C122.525 318.836 122.574 318.406 122.734 318.012C122.894 317.618 123.157 317.274 123.497 317.018C124.122 316.602 124.774 316.937 124.919 317.761Z" fill="#92E3A9"/>
<path d="M126.713 313.286C126.779 313.706 126.73 314.136 126.57 314.53C126.41 314.924 126.147 315.268 125.807 315.524C125.173 315.94 124.53 315.605 124.385 314.781C124.321 314.361 124.371 313.931 124.531 313.537C124.69 313.144 124.953 312.8 125.291 312.543C125.934 312.126 126.568 312.461 126.713 313.286Z" fill="#92E3A9"/>
<path d="M122.074 316.266C122.14 316.687 122.091 317.117 121.931 317.511C121.772 317.905 121.508 318.248 121.168 318.504C120.534 318.921 119.891 318.586 119.746 317.761C119.683 317.341 119.734 316.912 119.893 316.519C120.053 316.125 120.315 315.781 120.652 315.524C121.295 315.116 121.929 315.442 122.074 316.266Z" fill="#92E3A9"/>
<path d="M146.156 58.6091L136.416 64.2263C136.47 63.7996 136.498 63.3699 136.498 62.9398V60.1222C136.498 55.1029 132.974 53.0644 128.634 55.5922C126.758 56.7416 125.156 58.2878 123.941 60.1222C123.225 53.7802 118.278 51.4608 112.262 54.9308C105.757 58.6907 100.484 67.8232 100.484 75.3248V79.5468C100.443 81.2319 100.784 82.9046 101.481 84.4392L93.3905 89.1051C92.1199 89.9348 91.0625 91.052 90.3038 92.3663C89.5452 93.6805 89.1066 95.155 89.0236 96.6702C89.0236 99.4516 90.9805 100.584 93.3905 99.1889L146.156 68.7292C147.427 67.8994 148.484 66.7822 149.243 65.468C150.001 64.1537 150.44 62.6793 150.523 61.1641C150.523 58.3464 148.584 57.2139 146.156 58.6091Z" fill="#B3DDD4"/>
<path d="M348.511 311.764L346.699 310.74L347.986 310.16C347.986 310.16 348.991 310.432 349.018 310.477C349.01 310.711 348.986 310.944 348.946 311.175L348.511 311.764Z" fill="#E0E0E0"/>
<path d="M348.511 311.764L346.699 310.74L347.986 310.16C347.986 310.16 348.991 310.432 349.018 310.477C349.01 310.711 348.986 310.944 348.946 311.175L348.511 311.764Z" fill="#92E3A9"/>
<path opacity="0.1" d="M348.511 311.764L346.699 310.74L347.986 310.16C347.986 310.16 348.991 310.432 349.018 310.477C349.01 310.711 348.986 310.944 348.946 311.175L348.511 311.764Z" fill="white"/>
<path d="M281.087 345.73C281.89 346.136 282.777 346.348 283.678 346.348C284.578 346.348 285.466 346.136 286.269 345.73L344.38 312.208L257.404 261.979L255.374 260.81L197.263 294.332C195.841 295.157 195.841 296.507 197.263 297.322L281.087 345.73Z" fill="#92E3A9"/>
<path opacity="0.8" d="M281.087 345.73C281.89 346.136 282.777 346.348 283.678 346.348C284.578 346.348 285.466 346.136 286.269 345.73L344.38 312.208L257.404 261.979L255.374 260.81L197.263 294.332C195.841 295.157 195.841 296.507 197.263 297.322L281.087 345.73Z" fill="white"/>
<path d="M302.912 282.346L323.179 294.006L336.298 286.432L351.528 295.256V306.228C351.528 307.56 350.033 309.453 349.49 309.145C348.484 309.388 347.507 309.734 346.572 310.178C345.048 311.045 343.634 312.091 342.359 313.295L295.791 286.414L302.912 282.346Z" fill="#E0E0E0"/>
<path d="M302.912 282.346L323.179 294.006L336.298 286.432L351.528 295.256V306.228C351.528 307.56 350.033 309.453 349.49 309.145C348.484 309.388 347.507 309.734 346.572 310.178C345.048 311.045 343.634 312.091 342.359 313.295L295.791 286.414L302.912 282.346Z" fill="#92E3A9"/>
<path opacity="0.1" d="M302.912 282.346L323.179 294.006L336.298 286.432L351.528 295.256V306.228C351.528 307.56 350.033 309.453 349.49 309.145C348.484 309.388 347.507 309.734 346.572 310.178C345.048 311.045 343.634 312.091 342.359 313.295L295.791 286.414L302.912 282.346Z" fill="white"/>
<path d="M286.296 345.721L289.802 343.691L342.414 313.322C342.453 312.635 342.703 311.977 343.129 311.437C343.751 310.612 344.534 309.921 345.431 309.408C346.181 308.949 347.034 308.684 347.913 308.638C348.501 308.63 349.075 308.818 349.544 309.172C350.229 307.828 350.562 306.332 350.513 304.824H352.506C352.506 307.542 351.6 310.332 350.486 310.966L349.48 311.555C348.91 311.881 348.457 311.9 348.457 311.555V311.021C348.457 310.423 347.551 310.45 346.427 311.102C345.304 311.755 344.407 312.751 344.407 313.349V313.893C344.407 314.201 343.628 314.889 342.685 315.433L291.804 344.815L286.296 347.986C285.499 348.398 284.612 348.607 283.714 348.593V346.291C284.61 346.328 285.499 346.131 286.296 345.721Z" fill="#92E3A9"/>
<path opacity="0.6" d="M286.296 345.721L289.802 343.691L342.414 313.322C342.453 312.635 342.703 311.977 343.129 311.437C343.751 310.612 344.534 309.921 345.431 309.408C346.181 308.949 347.034 308.684 347.913 308.638C348.501 308.63 349.075 308.818 349.544 309.172C350.229 307.828 350.562 306.332 350.513 304.824H352.506C352.506 307.542 351.6 310.332 350.486 310.966L349.48 311.555C348.91 311.881 348.457 311.9 348.457 311.555V311.021C348.457 310.423 347.551 310.45 346.427 311.102C345.304 311.755 344.407 312.751 344.407 313.349V313.893C344.407 314.201 343.628 314.889 342.685 315.433L291.804 344.815L286.296 347.986C285.499 348.398 284.612 348.607 283.714 348.593V346.291C284.61 346.328 285.499 346.131 286.296 345.721Z" fill="white"/>
<path d="M196.176 295.782V298.128C196.206 298.442 196.317 298.742 196.498 298.999C196.679 299.256 196.924 299.462 197.209 299.596L275.551 344.824L281.05 347.995C281.848 348.407 282.735 348.616 283.632 348.602V346.3C282.729 346.322 281.835 346.106 281.041 345.675L277.544 343.655L197.209 297.259C196.923 297.124 196.677 296.917 196.496 296.658C196.315 296.399 196.205 296.097 196.176 295.782Z" fill="#92E3A9"/>
<path opacity="0.1" d="M196.176 295.782V298.128C196.206 298.442 196.317 298.742 196.498 298.999C196.679 299.256 196.924 299.462 197.209 299.596L275.551 344.824L281.05 347.995C281.848 348.407 282.735 348.616 283.632 348.602V346.3C282.729 346.322 281.835 346.106 281.041 345.675L277.544 343.655L197.209 297.259C196.923 297.124 196.677 296.917 196.496 296.658C196.315 296.399 196.205 296.097 196.176 295.782Z" fill="white"/>
<path d="M283.678 330.835V344.28C284.277 344.298 284.871 344.157 285.399 343.872L291.741 340.194L340.294 312.162V298.137L283.678 330.835Z" fill="white"/>
<path d="M198.704 283.451V293.789C198.736 294.387 198.908 294.97 199.207 295.489C199.506 296.009 199.924 296.45 200.425 296.778L275.623 340.176L281.965 343.854C282.494 344.138 283.087 344.279 283.687 344.262V332.257L198.704 283.451Z" fill="#F0F0F0"/>
<path d="M340.33 312.144C340.378 311.456 340.634 310.799 341.064 310.26C341.688 309.439 342.47 308.752 343.365 308.239C344.11 307.773 344.961 307.505 345.838 307.46C346.428 307.456 347.004 307.643 347.478 307.995V293.997L340.348 298.119L340.33 312.144Z" fill="#455A64"/>
<path d="M343.184 308.357C342.358 308.845 341.638 309.492 341.064 310.26C340.634 310.799 340.378 311.456 340.33 312.144V298.772H343.175L343.184 308.357Z" fill="#F5F5F5"/>
<path d="M257.386 245.526L344.362 295.755V296.923C344.362 297.567 345.268 297.829 346.382 297.159C347.496 296.488 348.411 295.709 348.411 294.595L348.52 293.49L259.886 242.319L259.533 242.11C259.44 242.274 259.387 242.457 259.379 242.645V243.189C259.397 243.859 258.5 244.901 257.386 245.526Z" fill="#92E3A9"/>
<path opacity="0.6" d="M257.386 245.526L344.362 295.755V296.923C344.362 297.567 345.268 297.829 346.382 297.159C347.496 296.488 348.411 295.709 348.411 294.595L348.52 293.49L259.886 242.319L259.533 242.11C259.44 242.274 259.387 242.457 259.379 242.645V243.189C259.397 243.859 258.5 244.901 257.386 245.526Z" fill="white"/>
<path d="M286.296 329.34L343.12 296.525C343.836 296.153 344.497 295.845 344.778 295.99L344.407 295.782L257.431 245.553L256.416 244.964C255.96 244.835 255.482 244.804 255.013 244.874C254.544 244.944 254.096 245.114 253.698 245.372L197.318 277.934C195.895 278.758 195.895 280.099 197.318 280.923L281.159 329.34C281.956 329.739 282.836 329.947 283.727 329.947C284.619 329.947 285.499 329.739 286.296 329.34Z" fill="#92E3A9"/>
<path opacity="0.8" d="M286.296 329.34L343.12 296.525C343.836 296.153 344.497 295.845 344.778 295.99L344.407 295.782L257.431 245.553L256.416 244.964C255.96 244.835 255.482 244.804 255.013 244.874C254.544 244.944 254.096 245.114 253.698 245.372L197.318 277.934C195.895 278.758 195.895 280.099 197.318 280.923L281.159 329.34C281.956 329.739 282.836 329.947 283.727 329.947C284.619 329.947 285.499 329.739 286.296 329.34Z" fill="white"/>
<path d="M259.551 242.138L259.904 242.346L348.538 293.544C348.583 293.45 348.648 293.366 348.728 293.299L349.027 293.127L349.671 292.765L350.459 292.303C350.612 292.201 350.795 292.155 350.978 292.171C351.161 292.188 351.332 292.266 351.465 292.393C351.502 292.418 351.536 292.449 351.564 292.484C351.671 292.593 351.76 292.718 351.827 292.855C351.923 293.012 352.002 293.18 352.063 293.354C352.132 293.54 352.189 293.731 352.235 293.925C352.289 294.151 352.325 294.368 352.371 294.604C352.395 294.739 352.41 294.875 352.416 295.012C352.416 295.12 352.416 295.22 352.416 295.347C352.416 295.474 352.416 295.854 352.416 296.117V293.626C352.322 292.807 352.039 292.021 351.59 291.331C351.14 290.641 350.536 290.065 349.825 289.648L265.974 241.232C265.284 240.824 264.508 240.581 263.708 240.523C262.908 240.465 262.105 240.593 261.363 240.896L260.303 241.512L259.85 241.766C259.719 241.861 259.616 241.989 259.551 242.138Z" fill="#92E3A9"/>
<path opacity="0.8" d="M259.551 242.138L259.904 242.346L348.538 293.544C348.583 293.45 348.648 293.366 348.728 293.299L349.027 293.127L349.671 292.765L350.459 292.303C350.612 292.201 350.795 292.155 350.978 292.171C351.161 292.188 351.332 292.266 351.465 292.393C351.502 292.418 351.536 292.449 351.564 292.484C351.671 292.593 351.76 292.718 351.827 292.855C351.923 293.012 352.002 293.18 352.063 293.354C352.132 293.54 352.189 293.731 352.235 293.925C352.289 294.151 352.325 294.368 352.371 294.604C352.395 294.739 352.41 294.875 352.416 295.012C352.416 295.12 352.416 295.22 352.416 295.347C352.416 295.474 352.416 295.854 352.416 296.117V293.626C352.322 292.807 352.039 292.021 351.59 291.331C351.14 290.641 350.536 290.065 349.825 289.648L265.974 241.232C265.284 240.824 264.508 240.581 263.708 240.523C262.908 240.465 262.105 240.593 261.363 240.896L260.303 241.512L259.85 241.766C259.719 241.861 259.616 241.989 259.551 242.138Z" fill="white"/>
<path d="M286.296 329.349L289.811 327.311L330.228 303.99L343.129 296.543C344.035 295.999 344.796 295.809 344.842 296.09V296.67C344.842 297.322 345.748 297.322 346.862 296.67C347.275 296.49 347.637 296.211 347.916 295.856C348.194 295.502 348.38 295.084 348.457 294.64V294.006C348.443 293.865 348.463 293.722 348.515 293.59C348.567 293.458 348.65 293.34 348.756 293.245L349.055 293.073L349.698 292.71L350.486 292.248C350.639 292.147 350.822 292.1 351.005 292.117C351.188 292.133 351.359 292.212 351.492 292.339C351.529 292.364 351.563 292.395 351.591 292.43C351.659 292.5 351.717 292.58 351.764 292.665C351.802 292.704 351.833 292.751 351.854 292.801C351.951 292.958 352.03 293.125 352.09 293.299C352.159 293.486 352.217 293.676 352.262 293.87C352.316 294.097 352.352 294.314 352.398 294.55C352.422 294.684 352.437 294.821 352.443 294.957C352.443 295.066 352.443 295.166 352.443 295.293C352.443 295.419 352.443 295.8 352.443 296.063V304.797H350.45V296.063C350.45 295.854 350.45 295.646 350.45 295.447L350.396 294.948C350.4 294.933 350.4 294.918 350.396 294.903C350.214 296.488 348.701 297.902 347.388 298.645C346.658 299.105 345.821 299.367 344.96 299.406C344.295 299.414 343.65 299.179 343.148 298.744L342.966 298.844L342.622 299.052L291.741 328.434L286.296 331.641C285.511 332.043 284.64 332.245 283.759 332.23V329.929C284.64 329.948 285.511 329.748 286.296 329.349Z" fill="#92E3A9"/>
<path opacity="0.6" d="M286.296 329.349L289.811 327.311L330.228 303.99L343.129 296.543C344.035 295.999 344.796 295.809 344.842 296.09V296.67C344.842 297.322 345.748 297.322 346.862 296.67C347.275 296.49 347.637 296.211 347.916 295.856C348.194 295.502 348.38 295.084 348.457 294.64V294.006C348.443 293.865 348.463 293.722 348.515 293.59C348.567 293.458 348.65 293.34 348.756 293.245L349.055 293.073L349.698 292.71L350.486 292.248C350.639 292.147 350.822 292.1 351.005 292.117C351.188 292.133 351.359 292.212 351.492 292.339C351.529 292.364 351.563 292.395 351.591 292.43C351.659 292.5 351.717 292.58 351.764 292.665C351.802 292.704 351.833 292.751 351.854 292.801C351.951 292.958 352.03 293.125 352.09 293.299C352.159 293.486 352.217 293.676 352.262 293.87C352.316 294.097 352.352 294.314 352.398 294.55C352.422 294.684 352.437 294.821 352.443 294.957C352.443 295.066 352.443 295.166 352.443 295.293C352.443 295.419 352.443 295.8 352.443 296.063V304.797H350.45V296.063C350.45 295.854 350.45 295.646 350.45 295.447L350.396 294.948C350.4 294.933 350.4 294.918 350.396 294.903C350.214 296.488 348.701 297.902 347.388 298.645C346.658 299.105 345.821 299.367 344.96 299.406C344.295 299.414 343.65 299.179 343.148 298.744L342.966 298.844L342.622 299.052L291.741 328.434L286.296 331.641C285.511 332.043 284.64 332.245 283.759 332.23V329.929C284.64 329.948 285.511 329.748 286.296 329.349Z" fill="white"/>
<path d="M196.176 279.401V281.766C196.205 282.081 196.315 282.383 196.496 282.642C196.677 282.901 196.923 283.108 197.209 283.243L275.551 328.47L281.05 331.65C281.848 332.063 282.735 332.271 283.632 332.257V329.956C282.73 329.976 281.838 329.764 281.041 329.34L277.544 327.32L197.209 280.923C196.917 280.785 196.667 280.571 196.485 280.303C196.303 280.036 196.197 279.724 196.176 279.401Z" fill="#92E3A9"/>
<path opacity="0.1" d="M196.176 279.401V281.766C196.205 282.081 196.315 282.383 196.496 282.642C196.677 282.901 196.923 283.108 197.209 283.243L275.551 328.47L281.05 331.65C281.848 332.063 282.735 332.271 283.632 332.257V329.956C282.73 329.976 281.838 329.764 281.041 329.34L277.544 327.32L197.209 280.923C196.917 280.785 196.667 280.571 196.485 280.303C196.303 280.036 196.197 279.724 196.176 279.401Z" fill="white"/>
<path d="M253.626 245.372C254.023 245.114 254.472 244.944 254.941 244.874C255.409 244.804 255.888 244.835 256.344 244.964L257.358 245.553C258.473 244.901 259.37 243.859 259.37 243.216V242.672C259.378 242.484 259.431 242.301 259.524 242.138C259.595 241.99 259.704 241.865 259.841 241.775L260.294 241.521L261.354 240.905C262.096 240.602 262.899 240.474 263.699 240.532C264.499 240.59 265.275 240.833 265.965 241.241L349.816 289.657L349.906 289.712L290.735 323.877C290.201 324.15 289.609 324.292 289.009 324.292C288.409 324.292 287.818 324.15 287.284 323.877L202.89 274.672L253.626 245.372Z" fill="#263238"/>
<path d="M295.474 318.912L293.236 317.625C293.838 317.416 294.485 317.369 295.111 317.49C295.709 317.798 295.474 318.912 295.474 318.912Z" fill="#92E3A9"/>
<path opacity="0.7" d="M295.474 318.912L293.236 317.625C293.838 317.416 294.485 317.369 295.111 317.49C295.709 317.798 295.474 318.912 295.474 318.912Z" fill="black"/>
<path d="M297.014 317.526C296.759 317.25 296.451 317.03 296.107 316.879C295.763 316.729 295.392 316.651 295.016 316.651C294.641 316.651 294.27 316.729 293.926 316.879C293.582 317.03 293.273 317.25 293.019 317.526C290.835 319.528 290.726 321.512 289.82 321.485C288.914 321.458 288.914 305.494 288.914 305.494L297.53 313.476L297.014 317.526Z" fill="#92E3A9"/>
<path opacity="0.7" d="M297.014 317.526C296.759 317.25 296.451 317.03 296.107 316.879C295.763 316.729 295.392 316.651 295.016 316.651C294.641 316.651 294.27 316.729 293.926 316.879C293.582 317.03 293.273 317.25 293.019 317.526C290.835 319.528 290.726 321.512 289.82 321.485C288.914 321.458 288.914 305.494 288.914 305.494L297.53 313.476L297.014 317.526Z" fill="black"/>
<path d="M206.939 259.497L206.794 259.415L208.172 258.618L267.496 224.371L353.938 280.307C355.36 281.132 355.614 282.328 354.5 282.962L352.479 284.131L297.032 316.194L296.633 315.904L206.939 259.497Z" fill="#92E3A9"/>
<path opacity="0.5" d="M206.939 259.497L206.794 259.415L208.172 258.618L267.496 224.371L353.938 280.307C355.36 281.132 355.614 282.328 354.5 282.962L352.479 284.131L297.032 316.194L296.633 315.904L206.939 259.497Z" fill="black"/>
<path d="M289.63 297.938L293.925 297.032V314.246C291.333 315.351 289.684 316.384 289.395 318.55L289.63 297.938Z" fill="#455A64"/>
<path d="M295.818 314.473L350.749 282.763C351.252 282.436 351.671 281.994 351.972 281.475C352.273 280.955 352.446 280.372 352.479 279.773V262.822L297.014 295.12C297.014 295.12 296.353 297.521 294.387 298.273C292.421 299.025 293.925 299.795 293.925 299.795V314.291C295.619 314.047 295.818 314.473 295.818 314.473Z" fill="#F0F0F0"/>
<path d="M290.754 297.349C291.324 297.023 291.777 297.005 291.777 297.349V297.884C291.777 298.482 292.683 298.455 293.807 297.802C294.93 297.15 295.836 296.153 295.836 295.555V295.012C295.836 294.704 296.606 294.015 297.549 293.472L208.181 242.264L206.795 243.062C206.602 243.266 206.482 243.526 206.45 243.805V244.348C206.45 244.946 205.544 245.952 204.43 246.595C203.315 247.238 202.4 247.275 202.4 246.677V246.133C202.4 245.825 201.947 245.852 201.386 246.178L290.754 297.349Z" fill="#92E3A9"/>
<path opacity="0.6" d="M290.754 297.349C291.324 297.023 291.777 297.005 291.777 297.349V297.884C291.777 298.482 292.683 298.455 293.807 297.802C294.93 297.15 295.836 296.153 295.836 295.555V295.012C295.836 294.704 296.606 294.015 297.549 293.472L208.181 242.264L206.795 243.062C206.602 243.266 206.482 243.526 206.45 243.805V244.348C206.45 244.946 205.544 245.952 204.43 246.595C203.315 247.238 202.4 247.275 202.4 246.677V246.133C202.4 245.825 201.947 245.852 201.386 246.178L290.754 297.349Z" fill="black"/>
<path d="M206.939 243.107L206.794 243.025L208.172 242.228L267.496 207.981L353.938 257.902C355.36 258.726 355.614 259.913 354.5 260.557L352.479 261.716L297.014 295.12L206.939 243.107Z" fill="#92E3A9"/>
<path opacity="0.5" d="M206.939 243.107L206.794 243.025L208.172 242.228L267.496 207.981L353.938 257.902C355.36 258.726 355.614 259.913 354.5 260.557L352.479 261.716L297.014 295.12L206.939 243.107Z" fill="black"/>
<path d="M202.382 245.58L291.732 297.168L288.606 299.614L199.592 248.226C199.809 247.565 200.223 246.986 200.779 246.568L202.382 245.58Z" fill="#92E3A9"/>
<path opacity="0.5" d="M202.382 245.58L291.732 297.168L288.606 299.614L199.592 248.226C199.809 247.565 200.223 246.986 200.779 246.568L202.382 245.58Z" fill="black"/>
<path d="M199.891 271.284C199.836 271.249 199.784 271.21 199.737 271.166C199.696 271.145 199.661 271.114 199.637 271.075C199.564 271.004 199.503 270.921 199.456 270.831C199.416 270.796 199.385 270.753 199.365 270.704C199.268 270.548 199.192 270.381 199.139 270.205C199.064 270.017 199.003 269.823 198.958 269.626C198.903 269.408 198.867 269.191 198.831 268.955C198.799 268.821 198.781 268.685 198.776 268.547V268.212C198.776 267.968 198.776 267.705 198.776 267.442V252.683C198.76 251.134 199.043 249.596 199.61 248.153L288.624 299.542L288.996 322.663L199.99 271.256L199.891 271.284Z" fill="#92E3A9"/>
<path opacity="0.7" d="M199.891 271.284C199.836 271.249 199.784 271.21 199.737 271.166C199.696 271.145 199.661 271.114 199.637 271.075C199.564 271.004 199.503 270.921 199.456 270.831C199.416 270.796 199.385 270.753 199.365 270.704C199.268 270.548 199.192 270.381 199.139 270.205C199.064 270.017 199.003 269.823 198.958 269.626C198.903 269.408 198.867 269.191 198.831 268.955C198.799 268.821 198.781 268.685 198.776 268.547V268.212C198.776 267.968 198.776 267.705 198.776 267.442V252.683C198.76 251.134 199.043 249.596 199.61 248.153L288.624 299.542L288.996 322.663L199.99 271.256L199.891 271.284Z" fill="black"/>
<path opacity="0.79" d="M288.561 299.578C288.561 299.578 218.455 266.772 212.076 263.764C207.864 261.78 205.798 265.947 206.795 270.26C207.701 274.029 211.388 277.915 211.388 277.915L199.927 271.293C199.872 271.259 199.82 271.219 199.773 271.175C199.732 271.155 199.697 271.123 199.673 271.084C199.6 271.013 199.539 270.93 199.492 270.84C199.452 270.805 199.421 270.762 199.402 270.713C199.305 270.557 199.228 270.39 199.175 270.214C199.1 270.026 199.039 269.832 198.994 269.635C198.939 269.417 198.903 269.2 198.867 268.964C198.836 268.83 198.817 268.694 198.813 268.557V268.221C198.813 267.977 198.813 267.714 198.813 267.451V252.683C198.796 251.134 199.079 249.596 199.646 248.153L288.561 299.578Z" fill="#263238"/>
<path d="M287.737 304.081H289.73C289.683 302.574 290.013 301.079 290.69 299.732C291.164 300.083 291.74 300.271 292.33 300.267C293.207 300.222 294.059 299.954 294.803 299.487C295.7 298.978 296.483 298.29 297.105 297.467C297.152 297.41 297.194 297.35 297.231 297.286C297.583 296.784 297.787 296.194 297.82 295.582L350.432 265.213L352.244 264.171L354.527 262.858C354.726 262.767 354.896 262.624 355.019 262.443C355.142 262.263 355.213 262.052 355.224 261.834V259.506C355.215 259.728 355.145 259.943 355.022 260.128C354.899 260.313 354.728 260.461 354.527 260.557L348.484 264.036L297.612 293.417C296.661 293.961 295.891 294.649 295.891 294.957V295.501C295.834 295.845 295.669 296.163 295.419 296.407C294.983 296.932 294.455 297.374 293.861 297.712C292.738 298.364 291.832 298.391 291.832 297.793V297.259C291.832 296.942 291.388 296.969 290.817 297.259L289.811 297.847C288.643 298.572 287.737 301.336 287.737 304.081Z" fill="#92E3A9"/>
<path d="M289.73 304.081V318.84C289.73 319.048 289.73 319.256 289.73 319.456L289.775 319.954C289.771 319.969 289.771 319.984 289.775 319.999C289.956 318.414 291.469 317 292.783 316.257C293.515 315.796 294.355 315.534 295.22 315.496C295.885 315.488 296.529 315.723 297.032 316.158L297.204 316.058L297.558 315.85L348.429 286.468L351.356 284.783L352.189 284.294L354.654 282.871C354.816 282.77 354.95 282.63 355.045 282.464C355.14 282.298 355.192 282.111 355.197 281.92V284.248C355.19 284.429 355.141 284.605 355.053 284.762C354.964 284.92 354.84 285.054 354.69 285.154C354.4 285.327 354.092 285.49 353.784 285.68L353.213 286.015L352.235 286.577C352.017 286.713 351.818 286.831 351.628 286.93C351.437 287.03 351.329 287.111 351.202 287.175L350.45 287.619L310.033 310.939L297.132 318.387C296.226 318.93 295.474 319.12 295.419 318.84C295.416 318.806 295.416 318.773 295.419 318.74V318.223C295.419 317.571 294.513 317.571 293.399 318.223C292.986 318.403 292.624 318.683 292.346 319.037C292.067 319.391 291.881 319.809 291.804 320.253V320.887C291.818 321.028 291.798 321.171 291.746 321.303C291.694 321.435 291.612 321.554 291.506 321.648L291.207 321.82L290.572 322.183L289.784 322.645C289.631 322.746 289.448 322.793 289.265 322.776C289.082 322.76 288.911 322.681 288.778 322.554C288.737 322.534 288.703 322.502 288.679 322.464C288.606 322.396 288.545 322.316 288.498 322.228C288.462 322.19 288.432 322.147 288.407 322.101C288.31 321.946 288.234 321.778 288.18 321.603C288.104 321.418 288.043 321.227 287.999 321.032C287.945 320.806 287.909 320.588 287.872 320.353C287.84 320.219 287.822 320.082 287.818 319.945C287.818 319.836 287.818 319.736 287.818 319.61C287.818 319.483 287.818 319.102 287.818 318.84V304.081H289.73Z" fill="#92E3A9"/>
<g opacity="0.6">
<path opacity="0.6" d="M287.737 304.081H289.73C289.683 302.574 290.013 301.079 290.69 299.732C291.164 300.083 291.74 300.271 292.33 300.267C293.207 300.222 294.059 299.954 294.803 299.487C295.7 298.978 296.483 298.29 297.105 297.467C297.152 297.41 297.194 297.35 297.231 297.286C297.583 296.784 297.787 296.194 297.82 295.582L350.432 265.213L352.244 264.171L354.527 262.858C354.726 262.767 354.896 262.624 355.019 262.443C355.142 262.263 355.213 262.052 355.224 261.834V259.506C355.215 259.728 355.145 259.943 355.022 260.128C354.899 260.313 354.728 260.461 354.527 260.557L348.484 264.036L297.612 293.417C296.661 293.961 295.891 294.649 295.891 294.957V295.501C295.834 295.845 295.669 296.163 295.419 296.407C294.983 296.932 294.455 297.374 293.861 297.712C292.738 298.364 291.832 298.391 291.832 297.793V297.259C291.832 296.942 291.388 296.969 290.817 297.259L289.811 297.847C288.643 298.572 287.737 301.336 287.737 304.081Z" fill="black"/>
<path opacity="0.6" d="M289.73 304.081V318.84C289.73 319.048 289.73 319.256 289.73 319.456L289.775 319.954C289.771 319.969 289.771 319.984 289.775 319.999C289.956 318.414 291.469 317 292.783 316.257C293.515 315.796 294.355 315.534 295.22 315.496C295.885 315.488 296.529 315.723 297.032 316.158L297.204 316.058L297.558 315.85L348.429 286.468L351.356 284.783L352.189 284.294L354.654 282.871C354.816 282.77 354.95 282.63 355.045 282.464C355.14 282.298 355.192 282.111 355.197 281.92V284.248C355.19 284.429 355.141 284.605 355.053 284.762C354.964 284.92 354.84 285.054 354.69 285.154C354.4 285.327 354.092 285.49 353.784 285.68L353.213 286.015L352.235 286.577C352.017 286.713 351.818 286.831 351.628 286.93C351.437 287.03 351.329 287.111 351.202 287.175L350.45 287.619L310.033 310.939L297.132 318.387C296.226 318.93 295.474 319.12 295.419 318.84C295.416 318.806 295.416 318.773 295.419 318.74V318.223C295.419 317.571 294.513 317.571 293.399 318.223C292.986 318.403 292.624 318.683 292.346 319.037C292.067 319.391 291.881 319.809 291.804 320.253V320.887C291.818 321.028 291.798 321.171 291.746 321.303C291.694 321.435 291.612 321.554 291.506 321.648L291.207 321.82L290.572 322.183L289.784 322.645C289.631 322.746 289.448 322.793 289.265 322.776C289.082 322.76 288.911 322.681 288.778 322.554C288.737 322.534 288.703 322.502 288.679 322.464C288.606 322.396 288.545 322.316 288.498 322.228C288.462 322.19 288.432 322.147 288.407 322.101C288.31 321.946 288.234 321.778 288.18 321.603C288.104 321.418 288.043 321.227 287.999 321.032C287.945 320.806 287.909 320.588 287.872 320.353C287.84 320.219 287.822 320.082 287.818 319.945C287.818 319.836 287.818 319.736 287.818 319.61C287.818 319.483 287.818 319.102 287.818 318.84V304.081H289.73Z" fill="black"/>
</g>
<path d="M199.547 248.181L284.149 297.032L348.094 260.113C348.303 260.043 348.485 259.909 348.614 259.73C348.742 259.551 348.812 259.336 348.812 259.116C348.812 258.896 348.742 258.681 348.614 258.502C348.485 258.323 348.303 258.189 348.094 258.119L264.38 209.775L208.208 242.228L206.822 243.035C206.634 243.237 206.517 243.494 206.486 243.768V244.312C206.486 244.91 205.58 245.916 204.466 246.559C204.41 246.596 204.349 246.627 204.285 246.649L202.419 245.571L201.513 246.079L201.386 246.142L200.733 246.523C200.179 246.942 199.765 247.52 199.547 248.181Z" fill="#263238"/>
<path d="M343.374 260.475L340.828 259.116L343.148 258.563C343.37 258.824 343.511 259.144 343.551 259.485C343.591 259.825 343.53 260.17 343.374 260.475Z" fill="#E0E0E0"/>
<g style="mix-blend-mode:multiply" opacity="0.5">
<path d="M343.374 260.475L340.828 259.116L343.148 258.563C343.37 258.824 343.511 259.144 343.551 259.485C343.591 259.825 343.53 260.17 343.374 260.475Z" fill="#E0E0E0"/>
</g>
<path d="M275.904 294.45C276.706 294.857 277.592 295.069 278.491 295.069C279.39 295.069 280.276 294.857 281.077 294.45L339.188 260.928L252.212 205.943L250.174 204.765L192.072 243.035C190.65 243.859 190.65 245.2 192.072 246.024L275.904 294.45Z" fill="#92E3A9"/>
<path d="M297.721 226.292L341.625 256.045L317.988 237.925L331.107 230.351L346.364 239.184V254.939C346.364 256.28 344.869 258.174 344.325 257.866C343.32 258.109 342.342 258.455 341.408 258.899C339.884 259.765 338.47 260.811 337.195 262.015L290.636 230.369L297.721 226.292Z" fill="#92E3A9"/>
<path opacity="0.2" d="M297.721 226.292L341.625 256.045L317.988 237.925L331.107 230.351L346.364 239.184V254.939C346.364 256.28 344.869 258.174 344.325 257.866C343.32 258.109 342.342 258.455 341.408 258.899C339.884 259.765 338.47 260.811 337.195 262.015L290.636 230.369L297.721 226.292Z" fill="black"/>
<path d="M278.486 274.781V292.973C279.088 292.987 279.684 292.846 280.217 292.566L286.559 288.887L335.12 260.856V242.065L278.486 274.781Z" fill="white"/>
<path d="M193.513 227.406V242.509C193.546 243.107 193.719 243.689 194.018 244.209C194.317 244.728 194.733 245.17 195.234 245.499L270.432 288.896L276.774 292.575C277.304 292.854 277.896 292.995 278.495 292.982V276.203L193.513 227.406Z" fill="#F0F0F0"/>
<path d="M335.148 260.856C335.192 260.168 335.445 259.511 335.872 258.971C336.491 258.146 337.275 257.458 338.174 256.951C338.921 256.484 339.776 256.216 340.656 256.172C341.227 256.114 341.801 256.248 342.287 256.552V237.943L335.157 242.065L335.148 260.856Z" fill="#455A64"/>
<path d="M337.992 257.059C337.171 257.556 336.451 258.205 335.872 258.971C335.445 259.511 335.192 260.168 335.148 260.856V242.736H337.983L337.992 257.059Z" fill="#F5F5F5"/>
<path d="M252.203 189.499L339.179 239.737V240.896C339.179 241.549 340.085 241.802 341.2 241.141C342.314 240.48 343.238 239.682 343.238 238.568L343.347 237.463L254.713 186.292L254.35 186.083C254.259 186.25 254.21 186.437 254.205 186.627V187.161C254.215 187.805 253.318 188.847 252.203 189.499Z" fill="#92E3A9"/>
<path opacity="0.2" d="M252.203 189.499L339.179 239.737V240.896C339.179 241.549 340.085 241.802 341.2 241.141C342.314 240.48 343.238 239.682 343.238 238.568L343.347 237.463L254.713 186.292L254.35 186.083C254.259 186.25 254.21 186.437 254.205 186.627V187.161C254.215 187.805 253.318 188.847 252.203 189.499Z" fill="black"/>
<path d="M281.077 273.286L337.938 240.48C338.663 240.099 339.324 239.791 339.596 239.936L339.225 239.737L252.249 189.499L251.225 188.919C250.769 188.784 250.29 188.75 249.82 188.821C249.351 188.891 248.902 189.064 248.507 189.327L192.072 221.879C190.65 222.704 190.65 224.054 192.072 224.869L275.922 273.286C276.722 273.69 277.604 273.9 278.5 273.9C279.395 273.9 280.278 273.69 281.077 273.286Z" fill="#92E3A9"/>
<path d="M254.359 186.083L254.722 186.292L343.374 237.463C343.419 237.368 343.484 237.285 343.564 237.218L343.863 237.055L344.497 236.683L345.286 236.221C345.439 236.121 345.622 236.076 345.804 236.092C345.987 236.109 346.158 236.186 346.291 236.312C346.329 236.337 346.362 236.368 346.391 236.403C346.496 236.515 346.587 236.64 346.663 236.774C346.756 236.931 346.832 237.099 346.889 237.272C346.96 237.462 347.021 237.656 347.07 237.852C347.116 238.07 347.161 238.287 347.197 238.523C347.225 238.66 347.243 238.799 347.252 238.939V239.266C347.252 239.51 347.252 239.773 347.252 240.045V237.553C347.161 236.733 346.879 235.945 346.429 235.253C345.979 234.56 345.373 233.983 344.661 233.567L260.81 185.15C260.119 184.743 259.343 184.502 258.543 184.445C257.743 184.389 256.94 184.518 256.199 184.824L255.139 185.44L254.695 185.703C254.549 185.795 254.433 185.927 254.359 186.083Z" fill="#92E3A9"/>
<path d="M281.077 294.45L284.584 292.421L337.195 262.042C337.241 261.356 337.494 260.699 337.92 260.158C338.542 259.335 339.325 258.648 340.221 258.138C340.968 257.678 341.819 257.413 342.695 257.367C343.286 257.355 343.864 257.544 344.334 257.902C345.01 256.551 345.34 255.054 345.295 253.544H347.288C347.288 256.262 346.382 259.053 345.268 259.696L344.262 260.285C343.691 260.611 343.247 260.629 343.247 260.285V259.75C343.247 259.152 342.341 259.179 341.209 259.823C340.076 260.466 339.188 261.481 339.188 262.079V262.613C339.188 262.921 338.418 263.61 337.467 264.162L286.586 293.544L281.077 296.724C280.28 297.137 279.393 297.345 278.495 297.331V295.03C279.391 295.06 280.28 294.861 281.077 294.45Z" fill="#92E3A9"/>
<path opacity="0.4" d="M281.077 294.45L284.584 292.421L337.195 262.042C337.241 261.356 337.494 260.699 337.92 260.158C338.542 259.335 339.325 258.648 340.221 258.138C340.968 257.678 341.819 257.413 342.695 257.367C343.286 257.355 343.864 257.544 344.334 257.902C345.01 256.551 345.34 255.054 345.295 253.544H347.288C347.288 256.262 346.382 259.053 345.268 259.696L344.262 260.285C343.691 260.611 343.247 260.629 343.247 260.285V259.75C343.247 259.152 342.341 259.179 341.209 259.823C340.076 260.466 339.188 261.481 339.188 262.079V262.613C339.188 262.921 338.418 263.61 337.467 264.162L286.586 293.544L281.077 296.724C280.28 297.137 279.393 297.345 278.495 297.331V295.03C279.391 295.06 280.28 294.861 281.077 294.45Z" fill="black"/>
<path d="M281.059 273.295L284.566 271.265L324.982 247.945L337.938 240.48C338.844 239.945 339.605 239.755 339.659 240.036V240.625C339.659 241.268 340.565 241.268 341.68 240.625C342.094 240.444 342.457 240.163 342.735 239.807C343.014 239.451 343.199 239.032 343.274 238.586V237.952C343.261 237.81 343.281 237.668 343.333 237.536C343.385 237.403 343.467 237.285 343.573 237.191L343.872 237.028L344.506 236.656L345.295 236.194C345.448 236.094 345.631 236.049 345.813 236.065C345.996 236.082 346.167 236.159 346.3 236.285C346.338 236.31 346.371 236.341 346.4 236.375C346.47 236.449 346.531 236.531 346.581 236.62C346.616 236.659 346.646 236.702 346.672 236.747C346.765 236.904 346.841 237.071 346.898 237.245C346.97 237.435 347.03 237.628 347.08 237.825C347.125 238.042 347.17 238.26 347.206 238.495C347.234 238.633 347.252 238.772 347.261 238.912V239.238C347.261 239.483 347.261 239.746 347.261 240.018V253.499H345.268V240.09C345.268 239.882 345.268 239.664 345.268 239.465L345.222 238.967C345.041 240.552 343.528 241.965 342.205 242.708C341.477 243.171 340.639 243.434 339.777 243.469C339.113 243.478 338.468 243.243 337.965 242.808L337.793 242.908L337.44 243.116L286.559 272.498L281.05 275.678C280.263 276.08 279.389 276.282 278.504 276.267V273.965C279.399 273.959 280.277 273.729 281.059 273.295Z" fill="#92E3A9"/>
<path opacity="0.4" d="M281.059 273.295L284.566 271.265L324.982 247.945L337.938 240.48C338.844 239.945 339.605 239.755 339.659 240.036V240.625C339.659 241.268 340.565 241.268 341.68 240.625C342.094 240.444 342.457 240.163 342.735 239.807C343.014 239.451 343.199 239.032 343.274 238.586V237.952C343.261 237.81 343.281 237.668 343.333 237.536C343.385 237.403 343.467 237.285 343.573 237.191L343.872 237.028L344.506 236.656L345.295 236.194C345.448 236.094 345.631 236.049 345.813 236.065C345.996 236.082 346.167 236.159 346.3 236.285C346.338 236.31 346.371 236.341 346.4 236.375C346.47 236.449 346.531 236.531 346.581 236.62C346.616 236.659 346.646 236.702 346.672 236.747C346.765 236.904 346.841 237.071 346.898 237.245C346.97 237.435 347.03 237.628 347.08 237.825C347.125 238.042 347.17 238.26 347.206 238.495C347.234 238.633 347.252 238.772 347.261 238.912V239.238C347.261 239.483 347.261 239.746 347.261 240.018V253.499H345.268V240.09C345.268 239.882 345.268 239.664 345.268 239.465L345.222 238.967C345.041 240.552 343.528 241.965 342.205 242.708C341.477 243.171 340.639 243.434 339.777 243.469C339.113 243.478 338.468 243.243 337.965 242.808L337.793 242.908L337.44 243.116L286.559 272.498L281.05 275.678C280.263 276.08 279.389 276.282 278.504 276.267V273.965C279.399 273.959 280.277 273.729 281.059 273.295Z" fill="black"/>
<path d="M190.994 223.347V225.685C191.021 225.999 191.13 226.3 191.31 226.559C191.489 226.818 191.733 227.026 192.018 227.161L270.369 272.389L275.868 275.569C276.663 275.98 277.546 276.188 278.441 276.176V273.875C277.542 273.895 276.652 273.682 275.859 273.259L272.362 271.238L192.072 224.869C191.768 224.742 191.505 224.532 191.314 224.263C191.124 223.994 191.013 223.676 190.994 223.347Z" fill="#92E3A9"/>
<path opacity="0.2" d="M190.994 223.347V225.685C191.021 225.999 191.13 226.3 191.31 226.559C191.489 226.818 191.733 227.026 192.018 227.161L270.369 272.389L275.868 275.569C276.663 275.98 277.546 276.188 278.441 276.176V273.875C277.542 273.895 276.652 273.682 275.859 273.259L272.362 271.238L192.072 224.869C191.768 224.742 191.505 224.532 191.314 224.263C191.124 223.994 191.013 223.676 190.994 223.347Z" fill="black"/>
<path d="M190.994 244.493V246.831C191.021 247.145 191.13 247.446 191.31 247.705C191.489 247.964 191.733 248.172 192.018 248.307L270.405 293.544L275.904 296.724C276.699 297.135 277.583 297.344 278.477 297.331V295.03C277.578 295.05 276.689 294.837 275.895 294.414L272.398 292.393L192.072 246.015C191.768 245.888 191.505 245.678 191.314 245.409C191.124 245.14 191.013 244.822 190.994 244.493Z" fill="#92E3A9"/>
<path opacity="0.2" d="M190.994 244.493V246.831C191.021 247.145 191.13 247.446 191.31 247.705C191.489 247.964 191.733 248.172 192.018 248.307L270.405 293.544L275.904 296.724C276.699 297.135 277.583 297.344 278.477 297.331V295.03C277.578 295.05 276.689 294.837 275.895 294.414L272.398 292.393L192.072 246.015C191.768 245.888 191.505 245.678 191.314 245.409C191.124 245.14 191.013 244.822 190.994 244.493Z" fill="black"/>
<path d="M227.18 162.292L218.862 177.114L230.985 183.565L239.809 170.428L227.18 162.292Z" fill="#FFA8A7"/>
<path d="M256.688 128.906C252.067 128.117 245.073 127.909 240.525 135.71C235.977 143.51 226.174 162.763 226.174 162.763C226.174 162.763 231.9 170.174 240.19 171.524L253.734 150.034L256.688 128.906Z" fill="#92E3A9"/>
<path d="M245.771 310.432H235.424V328.144H245.771V310.432Z" fill="#FFA8A7"/>
<path d="M215.818 306.119L205.472 306.473L204.955 287.727L215.293 287.374L215.818 306.119Z" fill="#FFA8A7"/>
<path d="M235.424 323.034V321.558C234.437 321.983 232.135 330.762 228.031 334.504C224.77 337.485 220.321 340.919 219.189 344.235C218.011 347.687 225.386 349.598 228.43 349.055C231.972 348.429 238.115 345.938 239.655 343.619C241.195 341.299 241.92 337.902 243.17 336.208C244.421 334.513 247.311 332.584 247.99 330.654C248.362 329.576 247.918 327.22 247.401 325.218C246.921 323.406 246.396 321.376 245.771 321.548V322.672C245.019 323.505 242.944 324.33 240.597 324.42C239.084 324.493 235.415 324.194 235.424 323.034Z" fill="#263238"/>
<path d="M205.363 303.284C204.828 303.284 204.394 304.063 203.207 305.34C201.436 307.129 199.378 308.608 197.118 309.716C193.241 311.664 185.73 314.645 182.305 316.194C180.176 317.154 180.276 319.727 182.477 321.195C184.679 322.663 189.988 323.714 196.376 322.282C199.845 321.503 204.375 318.296 207.248 318.468C210.12 318.64 215.474 318.604 217.585 317.145C219.696 315.687 218.853 312.615 218.255 309.897C217.603 306.98 216.67 302.513 215.7 302.713V303.619C214.459 305.503 208.126 306.273 205.39 304.887L205.363 303.284Z" fill="#263238"/>
<path d="M287.447 202.717C289.712 218.708 286.658 221.743 271.465 237.091C263.311 245.327 250.128 257.404 250.128 257.404C250.128 257.404 250.319 262.514 250.418 273.965C250.518 284.049 246.305 316.864 246.305 316.864C246.305 316.864 239.438 319.755 234.726 316.756C234.726 316.756 232.597 292.339 231.447 279.61C229.888 262.396 229.073 253.716 229.952 250.011C230.731 246.74 246.196 227.207 249.766 221.734L216.896 240.833C217.534 245.672 217.855 250.548 217.857 255.429C217.494 269.118 215.809 296.461 215.809 296.461C215.809 296.461 208.289 299.823 204.557 296.923C204.557 296.923 195.089 237.127 195.089 232.217C195.089 224.76 227.469 202.5 233.603 197.318C237.1 194.364 240.996 191.166 240.996 191.166L287.447 202.717Z" fill="#455A64"/>
<path d="M249.766 221.743C246.309 218.944 243.706 215.231 242.255 211.026C242.436 213.769 242.827 216.495 243.424 219.18C244.33 222.731 216.896 240.833 216.896 240.833L249.766 221.743Z" fill="#37474F"/>
<path d="M268.034 100.308C269.885 92.4106 264.984 84.5084 257.087 82.6577C249.19 80.8069 241.288 85.7083 239.437 93.6054C237.586 101.502 242.487 109.405 250.384 111.255C258.281 113.106 266.184 108.205 268.034 100.308Z" fill="#263238"/>
<path d="M284.593 137.803C284.593 137.803 288.217 140.774 288.217 150.16V170.428L287.7 204.511C280.452 212.403 247.836 209.413 239.764 192.199C239.764 192.199 239.827 156.222 239.827 148.158C239.827 140.095 244.357 129.63 256.679 128.906L272.643 132.62L284.593 137.803Z" fill="#16A086"/>
<path d="M279.12 107.397C279.12 107.397 276.738 118.577 275.786 120.416C275.152 121.55 274.103 122.394 272.86 122.772L273.023 114.908L279.12 107.397Z" fill="#263238"/>
<path d="M276.131 91.3792C276.958 91.2862 277.795 91.3822 278.58 91.66C279.365 91.9378 280.076 92.3901 280.661 92.9828C282.618 94.985 281.521 101.255 279.084 107.397L274.6 107.914L276.131 91.3792Z" fill="#263238"/>
<path d="M273.295 107.914C274.201 108.448 275.478 106.727 276.584 105.567C277.689 104.407 281.313 102.849 283.116 106.627C284.919 110.405 281.521 115.624 278.677 116.521C273.766 118.061 273.023 114.908 273.023 114.908L272.652 132.62C268.421 137.35 253.952 136.244 256.679 132.149V126.713C256.679 126.713 252.23 127.393 250.065 127.057C246.441 126.496 244.176 123.651 243.08 119.737C241.322 113.458 240.652 108.394 242.174 96.0451C243.814 82.5094 259.551 82.3735 268.049 87.7189C276.547 93.0643 273.295 107.914 273.295 107.914Z" fill="#FFA8A7"/>
<path d="M260.783 111.012H260.022C258.693 111.012 257.419 110.484 256.479 109.545C255.54 108.605 255.012 107.331 255.012 106.002C255.012 104.673 255.54 103.399 256.479 102.459C257.419 101.52 258.693 100.992 260.022 100.992H260.792C262.121 100.992 263.395 101.52 264.335 102.459C265.274 103.399 265.802 104.673 265.802 106.002C265.802 107.331 265.274 108.605 264.335 109.545C263.395 110.484 262.121 111.012 260.792 111.012H260.783ZM260.022 101.834C258.917 101.834 257.857 102.273 257.075 103.055C256.293 103.837 255.854 104.897 255.854 106.002C255.854 107.107 256.293 108.167 257.075 108.949C257.857 109.731 258.917 110.17 260.022 110.17H260.792C261.897 110.17 262.957 109.731 263.739 108.949C264.521 108.167 264.96 107.107 264.96 106.002C264.96 104.897 264.521 103.837 263.739 103.055C262.957 102.273 261.897 101.834 260.792 101.834H260.022Z" fill="#263238"/>
<path d="M245.526 111.012H244.756C243.427 111.012 242.153 110.484 241.213 109.545C240.274 108.605 239.746 107.331 239.746 106.002C239.746 104.673 240.274 103.399 241.213 102.459C242.153 101.52 243.427 100.992 244.756 100.992H245.526C246.855 100.992 248.129 101.52 249.069 102.459C250.008 103.399 250.536 104.673 250.536 106.002C250.536 107.331 250.008 108.605 249.069 109.545C248.129 110.484 246.855 111.012 245.526 111.012ZM244.756 101.834C243.651 101.834 242.591 102.273 241.809 103.055C241.027 103.837 240.588 104.897 240.588 106.002C240.588 107.107 241.027 108.167 241.809 108.949C242.591 109.731 243.651 110.17 244.756 110.17H245.526C246.631 110.17 247.691 109.731 248.473 108.949C249.255 108.167 249.694 107.107 249.694 106.002C249.694 104.897 249.255 103.837 248.473 103.055C247.691 102.273 246.631 101.834 245.526 101.834H244.756Z" fill="#263238"/>
<path d="M255.066 105.014C254.76 104.599 254.362 104.261 253.903 104.027C253.444 103.792 252.936 103.668 252.421 103.665C251.991 103.621 251.558 103.681 251.156 103.838C250.754 103.996 250.396 104.247 250.11 104.571L249.44 104.063C249.807 103.629 250.275 103.293 250.802 103.082C251.33 102.872 251.901 102.795 252.466 102.858C253.119 102.865 253.762 103.027 254.34 103.331C254.918 103.635 255.415 104.072 255.791 104.607L255.066 105.014Z" fill="#263238"/>
<path d="M275.986 104.978H265.331V105.821H275.986V104.978Z" fill="#263238"/>
<path d="M273.295 109.427C273.748 109.427 275.46 106.582 276.584 105.567C278.133 104.154 276.131 91.3792 276.131 91.3792C276.131 91.3792 277.626 88.1991 274.636 84.9194C272.516 82.5819 268.964 82.3192 262.903 81.3679C259.723 80.8696 254.903 79.9726 251.723 79.3837C247.936 78.677 244.792 77.9341 242.119 80.2897C241.07 81.1992 240.328 82.4112 239.996 83.7594C239.663 85.1075 239.756 86.5255 240.262 87.8186C241.029 89.4313 242.394 90.6822 244.067 91.3067C244.067 91.3067 245.716 92.7744 251.469 93.472C257.222 94.1696 266.183 93.3452 267.406 93.173C269.073 92.9465 269.426 94.5592 270.332 98.9805C271.12 102.831 271.8 109.4 273.295 109.427Z" fill="#263238"/>
<path d="M276.122 92.412L281.558 89.4856C281.383 89.1202 281.137 88.7938 280.834 88.5262C280.53 88.2585 280.175 88.055 279.791 87.928C279.407 87.801 279.001 87.7532 278.597 87.7873C278.194 87.8214 277.802 87.9369 277.444 88.1266C276.718 88.5363 276.176 89.2088 275.93 90.0059C275.684 90.803 275.752 91.664 276.122 92.412Z" fill="#263238"/>
<path d="M256.688 126.758C256.688 126.758 264.751 125.137 267.56 123.642C269.217 122.776 270.575 121.431 271.456 119.782C271.029 121.425 270.278 122.965 269.245 124.312C267.179 126.949 256.679 128.888 256.679 128.888L256.688 126.758Z" fill="#F28F8F"/>
<path d="M258.627 105.902C258.639 106.22 258.745 106.528 258.931 106.786C259.117 107.045 259.375 107.243 259.673 107.355C259.97 107.468 260.295 107.491 260.605 107.421C260.916 107.35 261.199 107.19 261.419 106.96C261.639 106.73 261.787 106.44 261.843 106.127C261.9 105.814 261.863 105.491 261.737 105.198C261.611 104.906 261.402 104.657 261.136 104.482C260.87 104.308 260.558 104.216 260.239 104.217C260.023 104.222 259.809 104.269 259.611 104.356C259.413 104.444 259.234 104.569 259.084 104.726C258.934 104.882 258.817 105.067 258.738 105.269C258.66 105.47 258.622 105.686 258.627 105.902Z" fill="#263238"/>
<path d="M261.218 99.2161L264.679 101.119C264.912 100.647 264.959 100.105 264.809 99.6014C264.66 99.0973 264.325 98.6684 263.873 98.4007C263.646 98.2753 263.396 98.1968 263.138 98.17C262.88 98.1432 262.62 98.1687 262.372 98.2448C262.124 98.3209 261.894 98.4461 261.696 98.613C261.498 98.7798 261.335 98.985 261.218 99.2161Z" fill="#263238"/>
<path d="M257.422 117.055L253.734 118.441C253.814 118.689 253.942 118.918 254.112 119.115C254.282 119.311 254.491 119.471 254.724 119.586C254.958 119.7 255.212 119.766 255.471 119.779C255.731 119.793 255.991 119.754 256.235 119.664C256.732 119.468 257.133 119.086 257.355 118.599C257.576 118.113 257.6 117.559 257.422 117.055Z" fill="#F28F8F"/>
<path d="M243.805 100.629L246.957 98.2104C246.811 97.9992 246.623 97.82 246.405 97.6835C246.187 97.5471 245.944 97.4562 245.69 97.4164C245.435 97.3766 245.176 97.3887 244.927 97.452C244.678 97.5153 244.444 97.6284 244.239 97.7846C243.815 98.1119 243.533 98.5901 243.452 99.1199C243.371 99.6497 243.497 100.19 243.805 100.629Z" fill="#263238"/>
<path d="M245.191 105.44C245.203 105.758 245.309 106.066 245.495 106.324C245.681 106.583 245.939 106.781 246.237 106.893C246.534 107.006 246.859 107.029 247.169 106.959C247.48 106.888 247.763 106.728 247.983 106.498C248.203 106.268 248.351 105.978 248.407 105.665C248.464 105.352 248.427 105.029 248.301 104.736C248.175 104.444 247.966 104.195 247.7 104.02C247.434 103.846 247.122 103.754 246.803 103.755C246.587 103.76 246.373 103.807 246.175 103.894C245.977 103.982 245.798 104.107 245.648 104.264C245.498 104.42 245.381 104.605 245.302 104.806C245.224 105.008 245.186 105.224 245.191 105.44Z" fill="#263238"/>
<path d="M253.173 104.145L252.991 113.939L247.202 112.661L253.173 104.145Z" fill="#F28F8F"/>
<path d="M243.279 185.567V186.473C243.279 186.936 243.156 187.391 242.924 187.792C242.692 188.193 242.358 188.525 241.956 188.756L216.797 203.252C216.396 203.483 215.941 203.605 215.479 203.605C215.016 203.605 214.561 203.483 214.16 203.252L168 176.607C167.598 176.376 167.264 176.043 167.032 175.642C166.8 175.242 166.677 174.787 166.677 174.323V173.68L215.474 201.848L243.279 185.567Z" fill="#92E3A9"/>
<path opacity="0.6" d="M243.279 185.567V186.473C243.279 186.936 243.156 187.391 242.924 187.792C242.692 188.193 242.358 188.525 241.956 188.756L216.797 203.252C216.396 203.483 215.941 203.605 215.479 203.605C215.016 203.605 214.561 203.483 214.16 203.252L168 176.607C167.598 176.376 167.264 176.043 167.032 175.642C166.8 175.242 166.677 174.787 166.677 174.323V173.68L215.474 201.848L243.279 185.567Z" fill="black"/>
<path d="M166.704 173.689L194.074 157.889C194.314 157.75 194.586 157.677 194.862 157.677C195.139 157.677 195.411 157.75 195.651 157.889L243.125 185.304C243.178 185.336 243.221 185.38 243.251 185.433C243.282 185.486 243.298 185.547 243.298 185.608C243.298 185.669 243.282 185.729 243.251 185.782C243.221 185.835 243.178 185.88 243.125 185.911L215.501 201.857L166.704 173.689Z" fill="#92E3A9"/>
<path opacity="0.5" d="M166.704 173.689L194.074 157.889C194.314 157.75 194.586 157.677 194.862 157.677C195.139 157.677 195.411 157.75 195.651 157.889L243.125 185.304C243.178 185.336 243.221 185.38 243.251 185.433C243.282 185.486 243.298 185.547 243.298 185.608C243.298 185.669 243.282 185.729 243.251 185.782C243.221 185.835 243.178 185.88 243.125 185.911L215.501 201.857L166.704 173.689Z" fill="black"/>
<path d="M215.728 199.537L230.486 191.021L187.325 166.106L172.484 174.577L215.728 199.537Z" fill="#263238"/>
<path d="M222.985 175.855L222.713 176.009L215.474 180.185L202.609 172.756L202.346 172.602L209.848 168.271L222.985 175.855Z" fill="#263238"/>
<path d="M222.713 176.009L215.474 180.185L202.609 172.756L209.848 168.579L222.713 176.009Z" fill="#263238"/>
<path opacity="0.7" d="M215.474 201.857V203.614C215.013 203.614 214.56 203.492 214.16 203.261L168 176.616C167.598 176.385 167.264 176.052 167.032 175.651C166.8 175.251 166.677 174.796 166.677 174.333V173.689L215.474 201.857Z" fill="black"/>
<path d="M214.722 202.246C214.283 202.421 213.81 202.493 213.339 202.457C212.868 202.421 212.411 202.278 212.004 202.038L166.052 175.51C165.653 175.281 165.309 174.967 165.046 174.589C164.783 174.212 164.606 173.781 164.53 173.327L159.501 143.32C159.473 143.152 159.458 142.983 159.456 142.813C159.451 141.979 159.776 141.177 160.362 140.584L208.117 168.163C208.42 168.329 208.682 168.561 208.885 168.842C209.087 169.122 209.224 169.444 209.286 169.784L214.722 202.246Z" fill="#92E3A9"/>
<path opacity="0.5" d="M214.722 202.246C214.283 202.421 213.81 202.493 213.339 202.457C212.868 202.421 212.411 202.278 212.004 202.038L166.052 175.51C165.653 175.281 165.309 174.967 165.046 174.589C164.783 174.212 164.606 173.781 164.53 173.327L159.501 143.32C159.473 143.152 159.458 142.983 159.456 142.813C159.451 141.979 159.776 141.177 160.362 140.584L208.117 168.163C208.42 168.329 208.682 168.561 208.885 168.842C209.087 169.122 209.224 169.444 209.286 169.784L214.722 202.246Z" fill="black"/>
<path d="M215.474 201.857L215.166 202.038C215.027 202.118 214.881 202.188 214.731 202.246L209.295 169.784C209.238 169.448 209.108 169.129 208.914 168.849C208.719 168.568 208.466 168.334 208.172 168.163L160.416 140.584C160.606 140.397 160.819 140.236 161.051 140.104L208.905 167.728C209.2 167.899 209.453 168.134 209.647 168.414C209.842 168.694 209.972 169.013 210.029 169.35L215.474 201.857Z" fill="#E0E0E0"/>
<path d="M188.847 174.55C188.511 172.548 186.437 169.875 184.217 168.598C181.997 167.32 180.466 167.9 180.81 169.911C181.155 171.923 183.22 174.586 185.44 175.873C187.66 177.159 189.191 176.561 188.847 174.55Z" fill="#92E3A9"/>
<path d="M198.26 194.083C198.164 192.783 197.912 191.5 197.508 190.26C196.801 188.04 194.699 179.488 189.898 178.201C189.327 178.03 188.721 178.011 188.14 178.147C186.808 178.509 186.201 179.895 185.938 181.137C185.694 182.971 185.694 184.829 185.938 186.663C185.2 185.819 184.335 185.094 183.374 184.516C182.523 183.874 181.495 183.508 180.43 183.465C180.282 183.458 180.134 183.487 180 183.55C179.865 183.613 179.749 183.709 179.66 183.827C179.488 184.144 179.66 184.543 179.932 184.824C180.412 185.404 181.001 185.893 181.481 186.473C181.857 186.979 182.205 187.505 182.523 188.049C183.13 189.028 183.809 189.952 184.489 190.885C185.794 192.824 187.432 194.517 189.327 195.886C191.506 197.361 193.979 198.347 196.575 198.776C200.081 199.211 203.488 199.157 205.698 198.387L198.26 194.083Z" fill="#FFA8A7"/>
<g filter="url(#filter0_d_2968:1897)">
<path d="M283.632 138.065C280.398 136.398 275.669 143.003 277.173 149.907C278.677 156.81 286.088 181.082 286.088 181.082C286.088 181.082 252.611 184.072 249.766 184.425C247.782 184.661 245.562 183.655 243.723 183.048C241.223 182.215 238.695 181.635 236.23 180.729C235.802 180.532 235.334 180.433 234.862 180.439C234.625 180.449 234.398 180.537 234.217 180.69C234.035 180.842 233.908 181.05 233.857 181.282C233.845 181.565 233.917 181.846 234.065 182.088C234.855 183.7 236.043 185.085 237.517 186.111C238.231 186.532 238.91 187.011 239.546 187.542C239.936 187.932 240.797 189.01 240.452 189.599L227.152 197.254C227.152 197.254 230.215 199.918 241.304 196.81C245.302 195.765 249.202 194.379 252.964 192.67C252.964 192.67 292.412 194.31 299.542 192.154C302.06 191.383 302.966 189.599 301.263 181.481C299.315 172.077 293.725 154.926 292.457 150.396C289.675 140.584 289.014 140.811 283.632 138.065Z" fill="#FFA8A7"/>
</g>
<path d="M281.965 136.661C281.965 136.661 287.311 138.165 289.612 141.191C291.913 144.217 300.792 173.49 300.792 173.49C298.471 175.426 295.757 176.834 292.838 177.616C289.918 178.398 286.864 178.536 283.886 178.02C283.886 178.02 276.747 157.771 275.986 152.362C274.636 143.982 278.731 137.386 281.965 136.661Z" fill="#92E3A9"/>
<path d="M253.118 156.303C252.683 154.038 254.097 152.815 256.28 153.585C257.436 154.06 258.464 154.799 259.282 155.743C260.1 156.687 260.686 157.81 260.991 159.021C261.426 161.313 253.544 158.55 253.118 156.303Z" fill="#92E3A9"/>
<path d="M268.058 163.361L261.635 159.275C261.961 161.014 259.614 160.77 257.503 160.036C255.392 159.302 252.81 157.816 252.475 156.077L246.876 156.004C246.36 156.004 246.35 156.675 246.876 157.227C248.262 158.776 251.487 161.522 258.264 163.886C265.041 166.251 267.641 165.517 268.62 164.792C268.937 164.521 268.647 163.732 268.058 163.361Z" fill="#92E3A9"/>
<defs>
<filter id="filter0_d_2968:1897" x="223.152" y="137.805" width="82.9831" height="68.5123" filterUnits="userSpaceOnUse" color-interpolation-filters="sRGB">
<feFlood flood-opacity="0" result="BackgroundImageFix"/>
<feColorMatrix in="SourceAlpha" type="matrix" values="0 0 0 0 0 0 0 0 0 0 0 0 0 0 0 0 0 0 127 0" result="hardAlpha"/>
<feOffset dy="4"/>
<feGaussianBlur stdDeviation="2"/>
<feComposite in2="hardAlpha" operator="out"/>
<feColorMatrix type="matrix" values="0 0 0 0 0 0 0 0 0 0 0 0 0 0 0 0 0 0 0.25 0"/>
<feBlend mode="normal" in2="BackgroundImageFix" result="effect1_dropShadow_2968:1897"/>
<feBlend mode="normal" in="SourceGraphic" in2="effect1_dropShadow_2968:1897" result="shape"/>
</filter>
</defs>
</svg>
