<svg width="26" height="24" viewBox="0 0 26 24" fill="none" xmlns="http://www.w3.org/2000/svg">
<path d="M24.9409 14.1468C24.9409 14.6333 24.5442 15.03 24.0576 15.03H16.0722V14.2294C16.0722 13.2593 15.2825 12.4699 14.3125 12.4699H11.1742C10.2039 12.4699 9.41447 13.2593 9.41447 14.2294V15.03H1.75972C1.27272 15.03 0.87668 14.6333 0.87668 14.1468V6.21895C0.87668 5.73217 1.27272 5.33613 1.75972 5.33613H7.64576C7.66242 5.80077 8.11609 6.16152 8.69624 6.16152C9.27638 6.16152 9.73028 5.80077 9.74716 5.33613H16.0696C16.0862 5.80077 16.5403 6.16152 17.1205 6.16152C17.7006 6.16152 18.1547 5.80077 18.1714 5.33613H24.0576C24.5442 5.33613 24.9409 5.73217 24.9409 6.21895V14.1468ZM10.2911 16.7069V14.2294C10.2911 13.7428 10.6874 13.3466 11.1742 13.3466H14.3125C14.799 13.3466 15.1955 13.7428 15.1955 14.2294V16.7069C15.1955 17.1937 14.799 17.5901 14.3125 17.5901H11.1742C10.6874 17.5901 10.2911 17.1937 10.2911 16.7069ZM23.2884 22.2396C23.2884 22.7268 22.9749 23.1233 22.587 23.1233H3.22882C2.84286 23.1233 2.52857 22.7268 2.52857 22.2396V15.9067H9.41447V16.7069C9.41447 17.6774 10.2039 18.4668 11.1742 18.4668H14.3125C15.2825 18.4668 16.0722 17.6774 16.0722 16.7069V15.9067H23.2884V22.2396ZM16.0665 2.36353V4.45945H9.75022V2.36353H16.0665ZM8.51915 0.914814C8.55794 0.894211 8.64428 0.870977 8.7359 0.878429C8.76132 0.880402 8.78697 0.880402 8.81218 0.877991C8.82073 0.877552 8.8295 0.876678 8.83827 0.876678H16.7661C16.788 0.876678 16.8112 0.879307 16.8356 0.885223C16.8974 0.898813 16.9614 0.899691 17.0229 0.886541C17.1354 0.863308 17.2511 0.889828 17.2978 0.914814V5.24671C17.2645 5.26468 17.2027 5.28484 17.1205 5.28484C17.0379 5.28484 16.9763 5.26468 16.9432 5.24715V1.92518C16.9432 1.68278 16.7468 1.48684 16.5048 1.48684H9.31188C9.06992 1.48684 8.87354 1.68278 8.87354 1.92518V5.24715C8.84045 5.26468 8.77886 5.28484 8.69624 5.28484C8.61405 5.28484 8.55224 5.26468 8.51915 5.24671V0.914814ZM24.0576 4.45945H18.1745V0.851032C18.1745 0.374119 17.7114 0 17.1205 0C17.0589 0 16.9973 0.00415802 16.9359 0.0122662C16.8792 0.00415802 16.8222 0 16.7661 0H8.83827C8.81526 0 8.79245 0.000871658 8.7701 0.00218582C8.74577 0.000871658 8.72144 0 8.69624 0C8.10535 0 7.64246 0.374119 7.64246 0.851032V4.45945H1.75972C0.789451 4.45945 0 5.2489 0 6.21895V14.1468C0 15.0807 0.731811 15.8449 1.65189 15.901V22.2396C1.65189 23.2101 2.35937 24 3.22882 24H22.587C23.4571 24 24.165 23.2101 24.165 22.2396V15.901C25.0856 15.8449 25.8176 15.0807 25.8176 14.1468V6.21895C25.8176 5.2489 25.0264 4.45945 24.0576 4.45945Z" fill="white"/>
<path d="M12.7439 14.366C13.3514 14.366 13.8459 14.8609 13.8459 15.4685C13.8459 16.076 13.3514 16.5704 12.7439 16.5704C12.1361 16.5704 11.6415 16.076 11.6415 15.4685C11.6415 14.8609 12.1361 14.366 12.7439 14.366ZM12.7439 17.0088C13.5934 17.0088 14.2842 16.3182 14.2842 15.4685C14.2842 14.6192 13.5934 13.9277 12.7439 13.9277C11.8944 13.9277 11.2031 14.6192 11.2031 15.4685C11.2031 16.3182 11.8944 17.0088 12.7439 17.0088Z" fill="white"/>
</svg>
