<svg width="409" height="456" viewBox="0 0 409 456" fill="none" xmlns="http://www.w3.org/2000/svg">
<g clip-path="url(#clip0_745:1273)">
<path d="M383.311 237.073C383.203 154.935 395.551 133.246 351.1 63.7779C306.649 -5.58304 197.561 -20.9369 115.101 30.4932C32.5332 81.9234 10.3076 148.171 10.3076 148.171C10.3076 148.171 -19.6486 225.477 22.4404 303.32C60.8788 374.506 136.682 414.985 202.392 448.27H370.426C380.412 439.895 389.001 429.802 396.088 417.884C430.339 360.226 383.418 319.211 383.311 237.073Z" fill="#FBFDFF"/>
<path d="M209.049 222.256L201.962 356.898L112.309 352.281L113.06 338.001L119.395 217.532L175.872 220.431L209.049 222.256Z" fill="white"/>
<path opacity="0.2" d="M181.025 301.173L160.84 302.783L166.745 328.23L113.06 338.001L119.395 217.532L175.871 220.431L181.025 301.173Z" fill="black" fill-opacity="0.7"/>
<path d="M209.049 222.256L201.962 356.898L112.309 352.281L113.06 338.001L119.395 217.532L175.872 220.431L209.049 222.256Z" stroke="#B3DDD4" stroke-miterlimit="10" stroke-linecap="round" stroke-linejoin="round"/>
<path d="M125.73 226.766L149.029 227.947" stroke="#B3DDD4" stroke-width="2" stroke-miterlimit="10" stroke-linecap="round" stroke-linejoin="round"/>
<path d="M125.515 231.168L141.299 232.027" stroke="#B3DDD4" stroke-width="2" stroke-miterlimit="10" stroke-linecap="round" stroke-linejoin="round"/>
<path d="M130.562 242.12L197.668 245.555" stroke="#B3DDD4" stroke-width="2" stroke-miterlimit="10" stroke-linecap="round" stroke-linejoin="round"/>
<path d="M130.347 246.522L197.453 250.065" stroke="#B3DDD4" stroke-width="2" stroke-miterlimit="10" stroke-linecap="round" stroke-linejoin="round"/>
<path d="M130.132 251.783L187.36 254.789" stroke="#B3DDD4" stroke-width="2" stroke-miterlimit="10" stroke-linecap="round" stroke-linejoin="round"/>
<path d="M135.635 256.866L130.167 256.579L129.879 262.047L135.347 262.334L135.635 256.866Z" stroke="#B3DDD4" stroke-miterlimit="10" stroke-linecap="round" stroke-linejoin="round"/>
<path d="M145.518 257.295L140.049 257.007L139.762 262.476L145.23 262.763L145.518 257.295Z" stroke="#B3DDD4" stroke-miterlimit="10" stroke-linecap="round" stroke-linejoin="round"/>
<path d="M155.394 257.831L149.926 257.543L149.639 263.012L155.107 263.299L155.394 257.831Z" stroke="#B3DDD4" stroke-miterlimit="10" stroke-linecap="round" stroke-linejoin="round"/>
<path d="M165.271 258.367L159.803 258.08L159.516 263.548L164.984 263.835L165.271 258.367Z" stroke="#B3DDD4" stroke-miterlimit="10" stroke-linecap="round" stroke-linejoin="round"/>
<path d="M127.018 241.905C127.018 242.656 126.374 243.193 125.622 243.193C124.871 243.193 124.334 242.549 124.334 241.797C124.334 241.046 124.978 240.509 125.73 240.509C126.481 240.509 127.018 241.153 127.018 241.905Z" fill="#B3DDD4"/>
<path d="M129.273 268.21L196.38 271.754" stroke="#B3DDD4" stroke-width="2" stroke-miterlimit="10" stroke-linecap="round" stroke-linejoin="round"/>
<path d="M128.951 272.72L196.057 276.156" stroke="#B3DDD4" stroke-width="2" stroke-miterlimit="10" stroke-linecap="round" stroke-linejoin="round"/>
<path d="M128.736 277.874L185.964 280.88" stroke="#B3DDD4" stroke-width="2" stroke-miterlimit="10" stroke-linecap="round" stroke-linejoin="round"/>
<path d="M134.241 282.955L128.772 282.667L128.485 288.136L133.953 288.423L134.241 282.955Z" stroke="#B3DDD4" stroke-miterlimit="10" stroke-linecap="round" stroke-linejoin="round"/>
<path d="M144.118 283.491L138.649 283.204L138.362 288.672L143.83 288.959L144.118 283.491Z" stroke="#B3DDD4" stroke-miterlimit="10" stroke-linecap="round" stroke-linejoin="round"/>
<path d="M153.995 284.027L148.526 283.74L148.239 289.208L153.707 289.495L153.995 284.027Z" stroke="#B3DDD4" stroke-miterlimit="10" stroke-linecap="round" stroke-linejoin="round"/>
<path d="M163.877 284.456L158.409 284.168L158.121 289.637L163.59 289.924L163.877 284.456Z" stroke="#B3DDD4" stroke-miterlimit="10" stroke-linecap="round" stroke-linejoin="round"/>
<path d="M125.623 267.995C125.623 268.747 124.978 269.284 124.227 269.284C123.475 269.284 122.938 268.64 122.938 267.888C122.938 267.136 123.583 266.6 124.334 266.6C125.086 266.6 125.73 267.244 125.623 267.995Z" fill="#B3DDD4"/>
<path d="M127.877 294.301L194.983 297.844" stroke="#B3DDD4" stroke-width="2" stroke-miterlimit="10" stroke-linecap="round" stroke-linejoin="round"/>
<path d="M127.663 298.811L194.769 302.354" stroke="#B3DDD4" stroke-width="2" stroke-miterlimit="10" stroke-linecap="round" stroke-linejoin="round"/>
<path d="M127.34 304.072L184.568 306.971" stroke="#B3DDD4" stroke-width="2" stroke-miterlimit="10" stroke-linecap="round" stroke-linejoin="round"/>
<path d="M132.847 309.044L127.378 308.757L127.091 314.225L132.559 314.512L132.847 309.044Z" stroke="#B3DDD4" stroke-miterlimit="10" stroke-linecap="round" stroke-linejoin="round"/>
<path d="M142.724 309.58L137.255 309.293L136.968 314.761L142.436 315.048L142.724 309.58Z" stroke="#B3DDD4" stroke-miterlimit="10" stroke-linecap="round" stroke-linejoin="round"/>
<path d="M152.601 310.116L147.132 309.829L146.845 315.297L152.313 315.584L152.601 310.116Z" stroke="#B3DDD4" stroke-miterlimit="10" stroke-linecap="round" stroke-linejoin="round"/>
<path d="M162.477 310.653L157.009 310.365L156.722 315.833L162.19 316.121L162.477 310.653Z" stroke="#B3DDD4" stroke-miterlimit="10" stroke-linecap="round" stroke-linejoin="round"/>
<path d="M124.334 294.086C124.334 294.838 123.69 295.375 122.938 295.375C122.187 295.375 121.65 294.73 121.65 293.979C121.65 293.227 122.294 292.69 123.046 292.69C123.797 292.69 124.334 293.335 124.334 294.086Z" fill="#B3DDD4"/>
<path d="M126.481 321.144L193.587 324.687" stroke="#B3DDD4" stroke-width="2" stroke-miterlimit="10" stroke-linecap="round" stroke-linejoin="round"/>
<path d="M126.159 325.653L193.265 329.197" stroke="#B3DDD4" stroke-width="2" stroke-miterlimit="10" stroke-linecap="round" stroke-linejoin="round"/>
<path d="M125.944 330.914L183.173 333.92" stroke="#B3DDD4" stroke-width="2" stroke-miterlimit="10" stroke-linecap="round" stroke-linejoin="round"/>
<path d="M131.452 335.886L125.984 335.599L125.697 341.067L131.165 341.355L131.452 335.886Z" stroke="#B3DDD4" stroke-miterlimit="10" stroke-linecap="round" stroke-linejoin="round"/>
<path d="M141.33 336.423L135.861 336.135L135.574 341.603L141.042 341.891L141.33 336.423Z" stroke="#B3DDD4" stroke-miterlimit="10" stroke-linecap="round" stroke-linejoin="round"/>
<path d="M151.206 336.959L145.738 336.671L145.451 342.14L150.919 342.427L151.206 336.959Z" stroke="#B3DDD4" stroke-miterlimit="10" stroke-linecap="round" stroke-linejoin="round"/>
<path d="M161.083 337.495L155.615 337.208L155.328 342.676L160.796 342.963L161.083 337.495Z" stroke="#B3DDD4" stroke-miterlimit="10" stroke-linecap="round" stroke-linejoin="round"/>
<path d="M122.831 321.036C122.831 321.788 122.187 322.325 121.435 322.325C120.683 322.325 120.146 321.681 120.146 320.929C120.146 320.177 120.791 319.641 121.542 319.641C122.294 319.641 122.938 320.285 122.831 321.036Z" fill="#B3DDD4"/>
<path d="M131.958 258.869L132.709 260.05L135.608 256.829" stroke="#B3DDD4" stroke-width="2" stroke-miterlimit="10" stroke-linecap="round" stroke-linejoin="round"/>
<path d="M150.425 285.604L151.069 286.892L153.968 283.671" stroke="#B3DDD4" stroke-width="2" stroke-miterlimit="10" stroke-linecap="round" stroke-linejoin="round"/>
<path d="M159.659 313.198L160.303 314.487L163.309 311.266" stroke="#B3DDD4" stroke-width="2" stroke-miterlimit="10" stroke-linecap="round" stroke-linejoin="round"/>
<path d="M137.755 337.786L138.4 339.075L141.406 335.854" stroke="#B3DDD4" stroke-width="2" stroke-miterlimit="10" stroke-linecap="round" stroke-linejoin="round"/>
<path d="M149.459 318.781L62.9186 342.832L26.8423 212.807L62.7038 202.929L113.382 188.864L146.13 306.756L149.459 318.781Z" fill="white"/>
<path opacity="0.2" d="M146.131 306.756L79.2391 311.051L62.7041 202.929L113.383 188.864L146.131 306.756Z" fill="black" fill-opacity="0.7"/>
<path d="M149.459 318.781L62.9186 342.832L26.8423 212.807L62.7038 202.929L113.382 188.864L146.13 306.756L149.459 318.781Z" stroke="#B3DDD4" stroke-miterlimit="10" stroke-linecap="round" stroke-linejoin="round"/>
<path d="M35.7539 219.572L58.3016 213.344" stroke="#B3DDD4" stroke-width="2" stroke-miterlimit="10" stroke-linecap="round" stroke-linejoin="round"/>
<path d="M36.9351 223.866L52.289 219.679" stroke="#B3DDD4" stroke-width="2" stroke-miterlimit="10" stroke-linecap="round" stroke-linejoin="round"/>
<path d="M45.3101 232.563L110.054 214.632" stroke="#B3DDD4" stroke-width="2" stroke-miterlimit="10" stroke-linecap="round" stroke-linejoin="round"/>
<path d="M46.4912 236.858L111.235 218.927" stroke="#B3DDD4" stroke-width="2" stroke-miterlimit="10" stroke-linecap="round" stroke-linejoin="round"/>
<path d="M47.8867 241.904L103.075 226.55" stroke="#B3DDD4" stroke-width="2" stroke-miterlimit="10" stroke-linecap="round" stroke-linejoin="round"/>
<path d="M54.6827 245.043L49.4067 246.509L50.8726 251.785L56.1486 250.319L54.6827 245.043Z" stroke="#B3DDD4" stroke-miterlimit="10" stroke-linecap="round" stroke-linejoin="round"/>
<path d="M64.2335 242.355L58.9575 243.821L60.4234 249.097L65.6994 247.631L64.2335 242.355Z" stroke="#B3DDD4" stroke-miterlimit="10" stroke-linecap="round" stroke-linejoin="round"/>
<path d="M73.7809 239.669L68.5049 241.135L69.9708 246.411L75.2468 244.945L73.7809 239.669Z" stroke="#B3DDD4" stroke-miterlimit="10" stroke-linecap="round" stroke-linejoin="round"/>
<path d="M83.3566 237.086L78.0806 238.552L79.5465 243.828L84.8224 242.362L83.3566 237.086Z" stroke="#B3DDD4" stroke-miterlimit="10" stroke-linecap="round" stroke-linejoin="round"/>
<path d="M41.8743 233.529C42.089 234.281 41.6595 235.033 40.908 235.247C40.1564 235.462 39.4048 235.033 39.19 234.281C38.9753 233.529 39.4048 232.778 40.1564 232.563C40.908 232.348 41.6596 232.778 41.8743 233.529Z" fill="#B3DDD4"/>
<path d="M52.2891 257.795L117.033 239.757" stroke="#B3DDD4" stroke-width="2" stroke-miterlimit="10" stroke-linecap="round" stroke-linejoin="round"/>
<path d="M53.4702 262.09L118.214 244.16" stroke="#B3DDD4" stroke-width="2" stroke-miterlimit="10" stroke-linecap="round" stroke-linejoin="round"/>
<path d="M54.8662 267.137L110.162 251.783" stroke="#B3DDD4" stroke-width="2" stroke-miterlimit="10" stroke-linecap="round" stroke-linejoin="round"/>
<path d="M61.7472 270.147L56.4712 271.613L57.9371 276.889L63.2131 275.423L61.7472 270.147Z" stroke="#B3DDD4" stroke-miterlimit="10" stroke-linecap="round" stroke-linejoin="round"/>
<path d="M71.3195 267.567L66.0435 269.033L67.5093 274.309L72.7853 272.843L71.3195 267.567Z" stroke="#B3DDD4" stroke-miterlimit="10" stroke-linecap="round" stroke-linejoin="round"/>
<path d="M80.7628 264.909L75.4868 266.375L76.9527 271.651L82.2287 270.185L80.7628 264.909Z" stroke="#B3DDD4" stroke-miterlimit="10" stroke-linecap="round" stroke-linejoin="round"/>
<path d="M90.3141 262.22L85.0381 263.686L86.504 268.962L91.78 267.496L90.3141 262.22Z" stroke="#B3DDD4" stroke-miterlimit="10" stroke-linecap="round" stroke-linejoin="round"/>
<path d="M48.8533 258.761C49.068 259.513 48.6386 260.265 47.887 260.479C47.1354 260.694 46.3838 260.265 46.169 259.513C45.9543 258.761 46.3838 258.01 47.1354 257.795C47.887 257.58 48.6386 258.01 48.8533 258.761Z" fill="#B3DDD4"/>
<path d="M59.2681 283.027L124.012 264.989" stroke="#B3DDD4" stroke-width="2" stroke-miterlimit="10" stroke-linecap="round" stroke-linejoin="round"/>
<path d="M60.5566 287.322L125.193 269.284" stroke="#B3DDD4" stroke-width="2" stroke-miterlimit="10" stroke-linecap="round" stroke-linejoin="round"/>
<path d="M61.9521 292.369L117.14 277.015" stroke="#B3DDD4" stroke-width="2" stroke-miterlimit="10" stroke-linecap="round" stroke-linejoin="round"/>
<path d="M68.7306 295.387L63.4546 296.853L64.9205 302.129L70.1965 300.663L68.7306 295.387Z" stroke="#B3DDD4" stroke-miterlimit="10" stroke-linecap="round" stroke-linejoin="round"/>
<path d="M78.2809 292.699L73.0049 294.165L74.4708 299.441L79.7468 297.975L78.2809 292.699Z" stroke="#B3DDD4" stroke-miterlimit="10" stroke-linecap="round" stroke-linejoin="round"/>
<path d="M87.8531 290.118L82.5771 291.584L84.043 296.86L89.319 295.394L87.8531 290.118Z" stroke="#B3DDD4" stroke-miterlimit="10" stroke-linecap="round" stroke-linejoin="round"/>
<path d="M97.4 287.432L92.124 288.898L93.5899 294.174L98.8659 292.708L97.4 287.432Z" stroke="#B3DDD4" stroke-miterlimit="10" stroke-linecap="round" stroke-linejoin="round"/>
<path d="M55.8323 283.993C56.047 284.745 55.6176 285.496 54.866 285.711C54.1144 285.926 53.3628 285.496 53.1481 284.745C52.9333 283.993 53.3628 283.242 54.1144 283.027C54.866 282.812 55.6176 283.242 55.8323 283.993Z" fill="#B3DDD4"/>
<path d="M66.4619 308.903L131.206 290.973" stroke="#B3DDD4" stroke-width="2" stroke-miterlimit="10" stroke-linecap="round" stroke-linejoin="round"/>
<path d="M67.7505 313.198L132.495 295.268" stroke="#B3DDD4" stroke-width="2" stroke-miterlimit="10" stroke-linecap="round" stroke-linejoin="round"/>
<path d="M69.146 318.245L124.334 302.891" stroke="#B3DDD4" stroke-width="2" stroke-miterlimit="10" stroke-linecap="round" stroke-linejoin="round"/>
<path d="M75.9435 321.369L70.6675 322.835L72.1334 328.111L77.4094 326.645L75.9435 321.369Z" stroke="#B3DDD4" stroke-miterlimit="10" stroke-linecap="round" stroke-linejoin="round"/>
<path d="M85.4903 318.683L80.2144 320.149L81.6802 325.425L86.9562 323.959L85.4903 318.683Z" stroke="#B3DDD4" stroke-miterlimit="10" stroke-linecap="round" stroke-linejoin="round"/>
<path d="M95.0372 315.997L89.7612 317.463L91.2271 322.739L96.5031 321.273L95.0372 315.997Z" stroke="#B3DDD4" stroke-miterlimit="10" stroke-linecap="round" stroke-linejoin="round"/>
<path d="M104.584 313.31L99.3081 314.776L100.774 320.052L106.05 318.586L104.584 313.31Z" stroke="#B3DDD4" stroke-miterlimit="10" stroke-linecap="round" stroke-linejoin="round"/>
<path d="M63.0261 309.87C63.2409 310.621 62.8114 311.373 62.0598 311.588C61.3082 311.802 60.5566 311.373 60.3419 310.621C60.1272 309.87 60.5566 309.118 61.3082 308.903C62.0598 308.689 62.8114 309.118 63.0261 309.87Z" fill="#B3DDD4"/>
<path d="M60.8784 245.555L61.9521 246.414L63.67 242.441" stroke="#B3DDD4" stroke-width="2" stroke-miterlimit="10" stroke-linecap="round" stroke-linejoin="round"/>
<path d="M58.3018 273.686L59.3755 274.545L61.0934 270.572" stroke="#B3DDD4" stroke-width="2" stroke-miterlimit="10" stroke-linecap="round" stroke-linejoin="round"/>
<path d="M65.2808 298.596L66.3545 299.562L68.0724 295.589" stroke="#B3DDD4" stroke-width="2" stroke-miterlimit="10" stroke-linecap="round" stroke-linejoin="round"/>
<path d="M91.5864 318.996L92.6601 319.962L94.378 315.99" stroke="#B3DDD4" stroke-width="2" stroke-miterlimit="10" stroke-linecap="round" stroke-linejoin="round"/>
<path d="M157.937 158.784L68.5884 167.366L81.4927 301.709L170.841 293.127L157.937 158.784Z" fill="white" stroke="#B3DDD4" stroke-miterlimit="10" stroke-linecap="round" stroke-linejoin="round"/>
<path d="M76.125 175.55L99.4243 173.295" stroke="#B3DDD4" stroke-width="2" stroke-miterlimit="10" stroke-linecap="round" stroke-linejoin="round"/>
<path d="M76.5542 180.059L92.4449 178.556" stroke="#B3DDD4" stroke-width="2" stroke-miterlimit="10" stroke-linecap="round" stroke-linejoin="round"/>
<path d="M83.3188 190.045L150.21 183.603" stroke="#B3DDD4" stroke-width="2" stroke-miterlimit="10" stroke-linecap="round" stroke-linejoin="round"/>
<path d="M83.7485 194.447L150.533 188.112" stroke="#B3DDD4" stroke-width="2" stroke-miterlimit="10" stroke-linecap="round" stroke-linejoin="round"/>
<path d="M84.1777 199.708L141.299 194.232" stroke="#B3DDD4" stroke-width="2" stroke-miterlimit="10" stroke-linecap="round" stroke-linejoin="round"/>
<path d="M90.3408 203.862L84.8901 204.385L85.4138 209.836L90.8645 209.312L90.3408 203.862Z" stroke="#B3DDD4" stroke-miterlimit="10" stroke-linecap="round" stroke-linejoin="round"/>
<path d="M100.227 203L94.7764 203.524L95.2999 208.975L100.751 208.451L100.227 203Z" stroke="#B3DDD4" stroke-miterlimit="10" stroke-linecap="round" stroke-linejoin="round"/>
<path d="M110.103 202.033L104.652 202.556L105.176 208.007L110.627 207.483L110.103 202.033Z" stroke="#B3DDD4" stroke-miterlimit="10" stroke-linecap="round" stroke-linejoin="round"/>
<path d="M119.979 201.064L114.528 201.588L115.051 207.039L120.502 206.515L119.979 201.064Z" stroke="#B3DDD4" stroke-miterlimit="10" stroke-linecap="round" stroke-linejoin="round"/>
<path d="M79.6681 190.367C79.7755 191.119 79.2387 191.763 78.4871 191.87C77.7355 191.978 77.0913 191.441 76.9839 190.689C76.8765 189.938 77.4134 189.293 78.165 189.186C79.0239 189.079 79.6681 189.616 79.6681 190.367Z" fill="#B3DDD4"/>
<path d="M85.7881 216.028L152.68 209.693" stroke="#B3DDD4" stroke-width="2" stroke-miterlimit="10" stroke-linecap="round" stroke-linejoin="round"/>
<path d="M86.2178 220.538L153.109 214.096" stroke="#B3DDD4" stroke-width="2" stroke-miterlimit="10" stroke-linecap="round" stroke-linejoin="round"/>
<path d="M86.7544 225.799L143.768 220.216" stroke="#B3DDD4" stroke-width="2" stroke-miterlimit="10" stroke-linecap="round" stroke-linejoin="round"/>
<path d="M92.9224 229.945L87.4717 230.468L87.9952 235.919L93.4459 235.395L92.9224 229.945Z" stroke="#B3DDD4" stroke-miterlimit="10" stroke-linecap="round" stroke-linejoin="round"/>
<path d="M102.798 228.976L97.3477 229.5L97.8712 234.951L103.322 234.427L102.798 228.976Z" stroke="#B3DDD4" stroke-miterlimit="10" stroke-linecap="round" stroke-linejoin="round"/>
<path d="M112.567 228.019L107.117 228.542L107.64 233.993L113.091 233.469L112.567 228.019Z" stroke="#B3DDD4" stroke-miterlimit="10" stroke-linecap="round" stroke-linejoin="round"/>
<path d="M122.443 227.051L116.993 227.575L117.516 233.025L122.967 232.502L122.443 227.051Z" stroke="#B3DDD4" stroke-miterlimit="10" stroke-linecap="round" stroke-linejoin="round"/>
<path d="M82.2448 216.458C82.3522 217.209 81.8153 217.854 81.0637 217.961C80.3121 218.068 79.6679 217.531 79.5606 216.78C79.4532 216.028 79.99 215.384 80.7416 215.277C81.4932 215.062 82.1374 215.706 82.2448 216.458Z" fill="#B3DDD4"/>
<path d="M88.2578 242.119L155.149 235.677" stroke="#B3DDD4" stroke-width="2" stroke-miterlimit="10" stroke-linecap="round" stroke-linejoin="round"/>
<path d="M88.6875 246.629L155.579 240.187" stroke="#B3DDD4" stroke-width="2" stroke-miterlimit="10" stroke-linecap="round" stroke-linejoin="round"/>
<path d="M89.2241 251.783L146.238 246.307" stroke="#B3DDD4" stroke-width="2" stroke-miterlimit="10" stroke-linecap="round" stroke-linejoin="round"/>
<path d="M95.3867 255.931L89.936 256.455L90.4596 261.905L95.9103 261.382L95.3867 255.931Z" stroke="#B3DDD4" stroke-miterlimit="10" stroke-linecap="round" stroke-linejoin="round"/>
<path d="M105.273 255.07L99.8223 255.594L100.346 261.044L105.797 260.521L105.273 255.07Z" stroke="#B3DDD4" stroke-miterlimit="10" stroke-linecap="round" stroke-linejoin="round"/>
<path d="M115.149 254.102L109.698 254.625L110.222 260.076L115.672 259.552L115.149 254.102Z" stroke="#B3DDD4" stroke-miterlimit="10" stroke-linecap="round" stroke-linejoin="round"/>
<path d="M125.025 253.134L119.574 253.657L120.098 259.108L125.548 258.584L125.025 253.134Z" stroke="#B3DDD4" stroke-miterlimit="10" stroke-linecap="round" stroke-linejoin="round"/>
<path d="M84.7145 242.441C84.8219 243.193 84.2851 243.837 83.5335 243.945C82.7819 244.052 82.1377 243.515 82.0303 242.763C81.9229 242.012 82.4598 241.368 83.2113 241.26C83.9629 241.153 84.6072 241.69 84.7145 242.441Z" fill="#B3DDD4"/>
<path d="M90.8345 268.854L157.726 262.52" stroke="#B3DDD4" stroke-width="2" stroke-miterlimit="10" stroke-linecap="round" stroke-linejoin="round"/>
<path d="M91.2642 273.364L158.156 266.922" stroke="#B3DDD4" stroke-width="2" stroke-miterlimit="10" stroke-linecap="round" stroke-linejoin="round"/>
<path d="M91.8008 278.518L148.814 273.042" stroke="#B3DDD4" stroke-width="2" stroke-miterlimit="10" stroke-linecap="round" stroke-linejoin="round"/>
<path d="M97.9687 282.772L92.5181 283.296L93.0416 288.747L98.4923 288.223L97.9687 282.772Z" stroke="#B3DDD4" stroke-miterlimit="10" stroke-linecap="round" stroke-linejoin="round"/>
<path d="M107.845 281.804L102.394 282.328L102.918 287.778L108.368 287.255L107.845 281.804Z" stroke="#B3DDD4" stroke-miterlimit="10" stroke-linecap="round" stroke-linejoin="round"/>
<path d="M117.721 280.836L112.27 281.36L112.794 286.811L118.244 286.287L117.721 280.836Z" stroke="#B3DDD4" stroke-miterlimit="10" stroke-linecap="round" stroke-linejoin="round"/>
<path d="M127.489 279.878L122.039 280.401L122.562 285.852L128.013 285.329L127.489 279.878Z" stroke="#B3DDD4" stroke-miterlimit="10" stroke-linecap="round" stroke-linejoin="round"/>
<path d="M87.2912 269.284C87.3986 270.036 86.8617 270.68 86.1101 270.787C85.3585 270.895 84.7143 270.358 84.6069 269.606C84.4996 268.855 85.0364 268.21 85.788 268.103C86.5396 267.888 87.1838 268.532 87.2912 269.284Z" fill="#B3DDD4"/>
<path d="M87.0767 206.365L87.9356 207.546L90.4051 203.896" stroke="#B3DDD4" stroke-width="2" stroke-miterlimit="10" stroke-linecap="round" stroke-linejoin="round"/>
<path d="M109.302 230.201L110.161 231.275L112.631 227.732" stroke="#B3DDD4" stroke-width="2" stroke-miterlimit="10" stroke-linecap="round" stroke-linejoin="round"/>
<path d="M102.001 257.795L102.86 258.869L105.222 255.218" stroke="#B3DDD4" stroke-width="2" stroke-miterlimit="10" stroke-linecap="round" stroke-linejoin="round"/>
<path d="M124.119 282.383L124.978 283.564L127.448 279.914" stroke="#B3DDD4" stroke-width="2" stroke-miterlimit="10" stroke-linecap="round" stroke-linejoin="round"/>
<path d="M267.136 105.867H211.626C207.546 105.867 204.217 109.195 204.217 113.275V160.947C204.217 165.028 207.546 168.356 211.626 168.356H236.214L250.279 185.32L246.736 168.356H267.029C271.109 168.356 274.437 165.028 274.437 160.947V113.275C274.545 109.195 271.216 105.867 267.136 105.867Z" fill="white" stroke="#0E6656" stroke-miterlimit="10" stroke-linecap="round" stroke-linejoin="round"/>
<path d="M243.837 132.065V127.018L240.079 126.696C239.864 125.945 239.542 125.086 239.112 124.442L241.582 121.543L238.039 117.999L235.14 120.469C234.388 120.039 233.637 119.717 232.885 119.503L232.563 115.745H227.517L227.194 119.503C226.443 119.717 225.584 120.039 224.94 120.469L222.041 117.999L218.497 121.543L220.967 124.442C220.537 125.193 220.215 125.945 220.001 126.696L216.243 127.018V132.065L220.001 132.387C220.215 133.139 220.537 133.998 220.967 134.642L218.497 137.541L222.041 141.084L224.94 138.614C225.691 139.044 226.443 139.366 227.194 139.581L227.517 143.339H232.563L232.885 139.581C233.637 139.366 234.496 139.044 235.14 138.614L238.039 141.084L241.582 137.541L239.112 134.642C239.542 133.89 239.864 133.139 240.079 132.387L243.837 132.065ZM229.986 135.393C226.765 135.393 224.081 132.816 224.081 129.488C224.081 126.267 226.658 123.583 229.986 123.583C233.314 123.583 235.891 126.16 235.891 129.488C235.891 132.709 233.207 135.393 229.986 135.393Z" fill="#1BBC9B"/>
<path d="M260.587 143.339V139.795L257.902 139.581C257.795 139.044 257.473 138.507 257.258 137.97L258.976 135.93L256.399 133.353L254.359 135.071C253.822 134.749 253.286 134.534 252.749 134.427L252.534 131.743H248.991L248.776 134.427C248.239 134.534 247.702 134.856 247.165 135.071L245.125 133.353L242.549 135.93L244.266 137.97C243.944 138.507 243.73 139.044 243.622 139.581L240.938 139.795V143.339L243.622 143.553C243.73 144.09 244.052 144.627 244.266 145.164L242.549 147.204L245.125 149.781L247.165 148.063C247.702 148.385 248.239 148.6 248.776 148.707L248.991 151.391H252.534L252.749 148.707C253.286 148.6 253.822 148.278 254.359 148.063L256.399 149.781L258.976 147.204L257.258 145.164C257.58 144.627 257.795 144.09 257.902 143.553L260.587 143.339ZM250.709 145.701C248.454 145.701 246.521 143.875 246.521 141.513C246.521 139.259 248.347 137.326 250.709 137.326C252.963 137.326 254.896 139.151 254.896 141.513C254.896 143.768 252.963 145.701 250.709 145.701Z" fill="#1BBC9B"/>
<path d="M242.978 151.606V149.029L241.045 148.815C240.937 148.385 240.723 148.063 240.615 147.634L241.904 146.13L240.079 144.305L238.575 145.594C238.253 145.379 237.824 145.271 237.394 145.164L237.18 143.231H234.603L234.388 145.164C233.958 145.271 233.636 145.486 233.207 145.594L231.704 144.305L229.878 146.13L231.167 147.634C230.952 147.956 230.845 148.385 230.737 148.815L228.805 149.029V151.606L230.737 151.821C230.845 152.251 231.059 152.573 231.167 153.002L229.878 154.505L231.704 156.331L233.207 155.042C233.529 155.257 233.958 155.364 234.388 155.472L234.603 157.404H237.18L237.394 155.472C237.824 155.364 238.146 155.15 238.575 155.042L240.079 156.331L241.904 154.505L240.615 153.002C240.83 152.68 240.937 152.251 241.045 151.821L242.978 151.606ZM235.998 153.324C234.388 153.324 232.992 152.036 232.992 150.318C232.992 148.707 234.281 147.312 235.998 147.312C237.716 147.312 239.005 148.6 239.005 150.318C239.005 152.036 237.609 153.324 235.998 153.324Z" fill="#1BBC9B"/>
<path d="M237.932 289.147L281.202 448.591H287.644L244.374 289.147H237.932Z" fill="#B3DDD4" stroke="#B3DDD4" stroke-miterlimit="10" stroke-linecap="round" stroke-linejoin="round"/>
<path d="M335.424 403.389H253.393V410.046H335.424V403.389Z" fill="#B3DDD4" stroke="#B3DDD4" stroke-miterlimit="10" stroke-linecap="round" stroke-linejoin="round"/>
<path d="M379.123 253.286L326.19 448.699H319.747L372.681 253.286C374.613 246.092 370.104 240.186 362.695 240.186H317.063C309.655 240.186 301.924 246.092 299.991 253.286L247.058 448.699H240.616L293.549 253.286C296.448 242.656 307.722 233.959 318.781 233.959H364.413C375.365 233.959 382.022 242.549 379.123 253.286Z" fill="#B3DDD4" stroke="#B3DDD4" stroke-miterlimit="10" stroke-linecap="round" stroke-linejoin="round"/>
<path d="M379.875 253.286L366.776 301.817C365.702 305.789 361.407 309.118 357.327 309.118H282.383C278.195 309.118 275.726 305.897 276.8 301.817L290.006 253.286C291.08 249.313 295.375 245.984 299.455 245.984H374.399C378.479 246.092 381.056 249.313 379.875 253.286Z" fill="#1BBC9B"/>
<path d="M379.875 253.286L366.776 301.817C365.702 305.789 361.407 309.118 357.327 309.118H282.383C278.195 309.118 275.726 305.897 276.8 301.817L290.006 253.286C291.08 249.313 295.375 245.984 299.455 245.984H338.215C354.965 263.164 352.818 294.838 351.744 304.394C355.18 303.535 358.293 300.743 359.26 297.415L372.466 248.883C372.788 247.81 372.788 246.843 372.681 245.984H374.614C378.479 246.092 381.056 249.313 379.875 253.286Z" fill="#1DB193"/>
<path d="M379.875 253.286L366.776 301.817C365.702 305.789 361.407 309.118 357.327 309.118H282.383C278.195 309.118 275.726 305.897 276.8 301.817L290.006 253.286C291.08 249.313 295.375 245.984 299.455 245.984H374.399C378.479 246.092 381.056 249.313 379.875 253.286Z" stroke="#B3DDD4" stroke-miterlimit="10" stroke-linecap="round" stroke-linejoin="round"/>
<path d="M335.853 358.186L360.333 448.591H366.776L342.295 358.186H335.853Z" fill="#B3DDD4" stroke="#B3DDD4" stroke-miterlimit="10" stroke-linecap="round" stroke-linejoin="round"/>
<path d="M342.295 347.771V356.576H245.77V347.771C245.77 344.121 248.669 341.222 252.319 341.222H335.853C338.859 341.222 341.436 343.262 342.188 346.053C342.295 346.59 342.295 347.234 342.295 347.771Z" fill="#1BBC9B"/>
<path d="M342.08 346.053C338.967 349.704 333.383 353.462 323.72 356.576H245.77V347.771C245.77 344.121 248.669 341.222 252.319 341.222H335.853C338.859 341.329 341.329 343.369 342.08 346.053Z" fill="#1DB193"/>
<path d="M342.295 347.771V356.576H245.77V347.771C245.77 344.121 248.669 341.222 252.319 341.222H335.853C338.859 341.222 341.436 343.262 342.188 346.053C342.295 346.59 342.295 347.234 342.295 347.771Z" stroke="#B3DDD4" stroke-miterlimit="10" stroke-linecap="round" stroke-linejoin="round"/>
<path d="M345.623 362.266H243.407C242.441 362.266 241.582 361.407 241.582 360.441V355.824C241.582 354.857 242.441 353.999 243.407 353.999H345.623C346.59 353.999 347.449 354.857 347.449 355.824V360.441C347.449 361.407 346.59 362.266 345.623 362.266Z" fill="#B3DDD4" stroke="#B3DDD4" stroke-miterlimit="10" stroke-linecap="round" stroke-linejoin="round"/>
<path d="M242.656 354.213C238.039 358.937 260.479 433.022 260.479 433.022C258.01 435.17 254.467 436.136 251.031 436.565C246.092 437.21 241.582 436.673 241.582 436.673C241.582 436.673 209.479 358.722 218.283 339.396C227.087 320.069 282.061 311.157 282.061 311.157L284.423 305.359L312.876 301.387L317.6 336.175C317.6 336.175 312.983 336.604 305.897 337.57C286.892 339.932 251.138 345.623 242.656 354.213Z" fill="#0E6656"/>
<path opacity="0.3" d="M260.479 433.022C258.01 435.169 254.466 436.136 251.031 436.565C244.803 413.373 228.912 351.528 234.925 343.905C242.334 334.564 279.054 326.082 279.054 326.082C279.162 321.357 292.046 317.062 292.046 317.062L305.682 337.57C286.892 340.04 251.138 345.623 242.548 354.212C238.039 358.937 260.479 433.022 260.479 433.022Z" fill="#0A473C"/>
<path d="M242.656 354.213C238.039 358.937 260.479 433.022 260.479 433.022C258.01 435.17 254.467 436.136 251.031 436.565C246.092 437.21 241.582 436.673 241.582 436.673C241.582 436.673 209.479 358.722 218.283 339.396C227.087 320.069 282.061 311.157 282.061 311.157L284.423 305.359L312.876 301.387L317.6 336.175C317.6 336.175 312.983 336.604 305.897 337.57C286.892 339.932 251.138 345.623 242.656 354.213Z" stroke="#0E6656" stroke-miterlimit="10" stroke-linecap="round" stroke-linejoin="round"/>
<path d="M226.765 284.101C222.04 283.242 255.647 253.822 255.647 253.822L271.86 264.667C271.86 264.667 244.373 284.101 239.971 284.637C235.569 285.174 226.765 284.101 226.765 284.101Z" fill="white"/>
<path d="M226.765 284.101C222.04 283.242 255.647 253.822 255.647 253.822L271.86 264.667C271.86 264.667 244.373 284.101 239.971 284.637C235.569 285.174 226.765 284.101 226.765 284.101Z" fill="#1DB193"/>
<path d="M226.765 284.101C222.04 283.242 255.647 253.822 255.647 253.822L271.86 264.667C271.86 264.667 244.373 284.101 239.971 284.637C235.569 285.174 226.765 284.101 226.765 284.101Z" stroke="#0E6656" stroke-miterlimit="10" stroke-linecap="round" stroke-linejoin="round"/>
<path d="M232.67 271.752C232.67 271.752 239.757 273.47 241.904 274.974C244.052 276.477 243.407 281.738 243.407 281.738C243.407 281.738 233.959 279.054 232.67 271.752Z" fill="white" stroke="#0E6656" stroke-miterlimit="10" stroke-linecap="round" stroke-linejoin="round"/>
<path d="M228.161 258.224L241.26 283.349H242.763L230.415 257.043L228.161 258.224Z" fill="#0E6656"/>
<path d="M239.972 276.37C239.972 276.37 231.704 270.464 229.664 270.464C227.624 270.464 221.611 277.658 221.611 281.201C221.611 284.745 234.818 286.785 237.395 283.671C238.683 282.168 236.106 278.517 236.106 278.517C236.106 278.517 239.972 282.49 241.045 283.134C242.119 283.778 244.159 282.919 244.159 282.919C244.159 282.919 241.475 278.624 239.972 276.37Z" fill="white" stroke="#0E6656" stroke-miterlimit="10" stroke-linecap="round" stroke-linejoin="round"/>
<path d="M236.106 284.637C236.106 284.637 232.992 280.557 229.234 278.624" stroke="#0E6656" stroke-miterlimit="10" stroke-linecap="round" stroke-linejoin="round"/>
<path d="M236.106 278.625C236.106 278.625 233.207 276.155 231.274 275.618" stroke="#0E6656" stroke-miterlimit="10" stroke-linecap="round" stroke-linejoin="round"/>
<path d="M227.087 281.738C227.087 281.738 231.704 284.208 232.885 285.174" stroke="#0E6656" stroke-miterlimit="10" stroke-linecap="round" stroke-linejoin="round"/>
<path d="M266.062 241.045C261.875 243.944 242.871 263.485 242.871 263.485C242.871 263.485 251.782 273.578 259.513 275.081L280.557 264.881L266.062 241.045Z" fill="#1BBC9B" stroke="#0E6656" stroke-miterlimit="10" stroke-linecap="round" stroke-linejoin="round"/>
<path opacity="0.4" d="M266.062 241.045C261.875 243.944 242.871 263.485 242.871 263.485C242.871 263.485 251.782 273.578 259.513 275.081L280.557 264.881L266.062 241.045Z" fill="white" stroke="#0E6656" stroke-miterlimit="10" stroke-linecap="round" stroke-linejoin="round"/>
<path d="M255.97 425.185L264.881 448.699C264.881 448.699 266.385 454.711 239.435 452.886L224.618 451.598L255.97 425.185Z" fill="#1BBC9B"/>
<path opacity="0.3" d="M255.97 425.185L264.881 448.699C264.881 448.699 266.385 454.711 239.435 452.886L224.618 451.598L255.97 425.185Z" fill="#0A473C"/>
<path d="M255.97 425.185L264.881 448.699C264.881 448.699 266.385 454.711 239.435 452.886L224.618 451.598L255.97 425.185Z" stroke="#0E6656" stroke-miterlimit="10" stroke-linecap="round" stroke-linejoin="round"/>
<path d="M252.534 436.458C252.534 436.458 254.466 445.584 252.534 452.349C252.534 452.349 224.081 456.858 217.746 455.14C211.411 453.423 207.546 450.309 207.331 448.698C207.331 448.698 207.546 444.296 213.881 443.115C220.215 441.827 232.992 440.968 237.931 433.774C242.978 426.473 252.534 436.458 252.534 436.458Z" fill="#1BBC9B" stroke="#0E6656" stroke-miterlimit="10" stroke-linecap="round" stroke-linejoin="round"/>
<path d="M290.113 304.501C299.24 291.509 341.007 307.185 341.007 307.185C341.007 307.185 344.979 338.429 328.337 346.697C311.695 355.072 287.644 354.535 281.202 361.299L254.789 439.25C254.789 439.25 245.34 443.222 231.489 436.995C231.489 436.995 248.239 378.156 253.178 357.219C258.01 336.497 289.576 322.539 289.576 322.539C289.576 322.539 286.892 319.532 285.926 315.989" fill="#0E6656"/>
<path d="M290.113 304.501C299.24 291.509 341.007 307.185 341.007 307.185C341.007 307.185 344.979 338.429 328.337 346.697C311.695 355.072 287.644 354.535 281.202 361.299L254.789 439.25C254.789 439.25 245.34 443.222 231.489 436.995C231.489 436.995 248.239 378.156 253.178 357.219C258.01 336.497 289.576 322.539 289.576 322.539C289.576 322.539 286.892 319.532 285.926 315.989" stroke="#0E6656" stroke-miterlimit="10" stroke-linecap="round" stroke-linejoin="round"/>
<path d="M332.417 334.35C331.128 335.531 329.625 336.604 328.229 337.678" stroke="white" stroke-miterlimit="10" stroke-linecap="round" stroke-linejoin="round"/>
<path d="M335.853 307.937C339.289 315.345 339.504 324.794 334.779 331.558" stroke="white" stroke-miterlimit="10" stroke-linecap="round" stroke-linejoin="round"/>
<path d="M326.297 309.118C326.297 309.118 325.438 314.808 328.015 317.063C330.592 319.318 338.323 320.499 338.323 320.499" stroke="white" stroke-miterlimit="10" stroke-linecap="round" stroke-linejoin="round"/>
<path d="M292.046 309.333C292.046 309.333 292.368 315.023 290.113 314.808C287.858 314.486 287.644 317.063 287.644 317.063" stroke="white" stroke-miterlimit="10" stroke-linecap="round" stroke-linejoin="round"/>
<path d="M266.707 245.34C266.385 243.837 266.17 242.333 266.17 240.938C266.17 240.938 279.054 230.093 295.589 230.093C315.345 230.201 327.371 236.428 332.31 245.018C339.933 258.654 341.007 307.077 341.007 307.077C341.007 307.077 291.402 314.701 284.315 305.36C283.134 303.749 283.993 292.153 283.993 292.153C283.993 292.153 278.41 277.551 277.229 266.277C277.229 266.277 275.082 263.378 272.719 259.298C271.109 256.614 269.391 253.393 268.103 250.064" fill="#1BBC9B"/>
<path d="M266.707 245.34C266.385 243.837 266.17 242.333 266.17 240.938C266.17 240.938 279.054 230.093 295.589 230.093C315.345 230.201 327.371 236.428 332.31 245.018C339.933 258.654 341.007 307.077 341.007 307.077C341.007 307.077 291.402 314.701 284.315 305.36C283.134 303.749 283.993 292.153 283.993 292.153C283.993 292.153 278.41 277.551 277.229 266.277C277.229 266.277 275.082 263.378 272.719 259.298C271.109 256.614 269.391 253.393 268.103 250.064" stroke="#0E6656" stroke-miterlimit="10" stroke-linecap="round" stroke-linejoin="round"/>
<g opacity="0.6">
<path d="M266.707 245.34C266.385 243.837 266.17 242.333 266.17 240.938C266.17 240.938 279.054 230.093 295.589 230.093C315.345 230.201 327.371 236.428 332.31 245.018C339.933 258.654 341.007 307.077 341.007 307.077C341.007 307.077 291.402 314.701 284.315 305.36C283.134 303.749 283.993 292.153 283.993 292.153C283.993 292.153 278.41 277.551 277.229 266.277C277.229 266.277 275.082 263.378 272.719 259.298C271.109 256.614 269.391 253.393 268.103 250.064" fill="white"/>
<path d="M266.707 245.34C266.385 243.837 266.17 242.333 266.17 240.938C266.17 240.938 279.054 230.093 295.589 230.093C315.345 230.201 327.371 236.428 332.31 245.018C339.933 258.654 341.007 307.077 341.007 307.077C341.007 307.077 291.402 314.701 284.315 305.36C283.134 303.749 283.993 292.153 283.993 292.153C283.993 292.153 278.41 277.551 277.229 266.277C277.229 266.277 275.082 263.378 272.719 259.298C271.109 256.614 269.391 253.393 268.103 250.064" stroke="#0E6656" stroke-miterlimit="10" stroke-linecap="round" stroke-linejoin="round"/>
</g>
<path d="M285.604 257.043C285.604 257.043 293.12 286.462 292.046 292.905C291.509 296.126 293.12 299.454 293.12 299.454C293.12 299.454 289.684 302.89 292.046 307.399" stroke="#0E6656" stroke-miterlimit="10" stroke-linecap="round" stroke-linejoin="round"/>
<path d="M305.682 281.309C304.179 281.201 302.891 280.879 301.924 280.128L299.669 270.25C299.669 270.25 306.541 271.001 312.983 269.283L315.345 280.02C315.345 280.02 313.52 280.557 311.265 280.879" stroke="#0E6656" stroke-miterlimit="10" stroke-linecap="round" stroke-linejoin="round"/>
<path d="M280.235 260.801C280.235 260.801 273.793 233.314 290.006 230.201C306.219 226.98 309.655 234.603 308.688 239.757C307.4 246.628 293.979 263.485 293.979 263.485L285.604 257.043L280.235 260.801Z" fill="#1BBC9B" stroke="#0E6656" stroke-miterlimit="10" stroke-linecap="round" stroke-linejoin="round"/>
<path opacity="0.4" d="M280.235 260.801C280.235 260.801 273.793 233.314 290.006 230.201C306.219 226.98 309.655 234.603 308.688 239.757C307.4 246.628 293.979 263.485 293.979 263.485L285.604 257.043L280.235 260.801Z" fill="white" stroke="#0E6656" stroke-miterlimit="10" stroke-linecap="round" stroke-linejoin="round"/>
<path d="M258.976 345.516C258.976 345.516 269.498 333.383 293.227 324.257C293.227 324.257 287.107 322.324 285.711 319.854" stroke="white" stroke-miterlimit="10" stroke-linecap="round" stroke-linejoin="round"/>
<path d="M246.629 382.666L236.965 417.561" stroke="white" stroke-miterlimit="10" stroke-linecap="round" stroke-linejoin="round"/>
<path d="M320.821 282.275C320.821 282.275 325.116 289.576 342.832 288.825C342.832 288.825 338 283.349 330.806 281.309C323.505 279.376 320.821 282.275 320.821 282.275Z" fill="#1BBC9B" stroke="#0E6656" stroke-miterlimit="10" stroke-linecap="round" stroke-linejoin="round"/>
<path d="M252.212 285.174C252.212 285.174 256.292 278.839 260.05 277.551C263.808 276.263 274.867 276.155 276.585 276.155C278.303 276.155 308.581 283.778 322.861 288.61L321.573 264.881L340.685 266.385C340.685 266.385 339.933 295.374 336.927 303.105C333.92 310.836 329.733 308.903 322.432 305.789C293.871 293.442 277.122 284.852 275.511 285.389C274.008 285.604 252.212 285.174 252.212 285.174Z" fill="white" stroke="#0E6656" stroke-miterlimit="10" stroke-linecap="round" stroke-linejoin="round"/>
<path d="M316.741 250.923C316.204 252.963 316.097 255.11 316.312 256.936C317.171 264.344 320.821 282.168 320.821 282.168C320.821 282.168 338.645 284.745 342.832 288.717C342.832 288.717 345.731 265.096 339.826 253.07C333.813 241.152 327.586 239.757 327.586 239.757C323.72 238.79 320.07 242.441 318.03 247.165" fill="#1BBC9B"/>
<path d="M316.741 250.923C316.204 252.963 316.097 255.11 316.312 256.936C317.171 264.344 320.821 282.168 320.821 282.168C320.821 282.168 338.645 284.745 342.832 288.717C342.832 288.717 345.731 265.096 339.826 253.07C333.813 241.152 327.586 239.757 327.586 239.757C323.72 238.79 320.07 242.441 318.03 247.165" stroke="#0E6656" stroke-miterlimit="10" stroke-linecap="round" stroke-linejoin="round"/>
<g opacity="0.4">
<g opacity="0.4">
<path d="M316.741 250.923C316.204 252.963 316.097 255.11 316.312 256.936C317.171 264.344 320.821 282.168 320.821 282.168C320.821 282.168 338.645 284.745 342.832 288.717C342.832 288.717 345.731 265.096 339.826 253.07C333.813 241.152 327.586 239.757 327.586 239.757C323.72 238.79 320.07 242.441 318.03 247.165" fill="white"/>
<path d="M316.741 250.923C316.204 252.963 316.097 255.11 316.312 256.936C317.171 264.344 320.821 282.168 320.821 282.168C320.821 282.168 338.645 284.745 342.832 288.717C342.832 288.717 345.731 265.096 339.826 253.07C333.813 241.152 327.586 239.757 327.586 239.757C323.72 238.79 320.07 242.441 318.03 247.165" stroke="#0E6656" stroke-miterlimit="10" stroke-linecap="round" stroke-linejoin="round"/>
</g>
</g>
<path d="M264.344 260.157C264.344 260.157 267.887 263.27 273.471 264.774" stroke="#0E6656" stroke-miterlimit="10" stroke-linecap="round" stroke-linejoin="round"/>
<path d="M320.821 260.157C320.821 260.157 327.263 272.29 335.423 274.974" stroke="#0E6656" stroke-miterlimit="10" stroke-linecap="round" stroke-linejoin="round"/>
<path d="M279.054 353.891C279.054 353.891 280.235 354.75 280.772 358.078" stroke="white" stroke-miterlimit="10" stroke-linecap="round" stroke-linejoin="round"/>
<path d="M274.652 358.078C274.652 358.078 277.98 358.293 279.913 361.084" stroke="white" stroke-miterlimit="10" stroke-linecap="round" stroke-linejoin="round"/>
<path d="M239.112 345.516C239.112 345.516 242.548 347.234 241.797 352.173" stroke="white" stroke-miterlimit="10" stroke-linecap="round" stroke-linejoin="round"/>
<path d="M235.462 349.811C235.462 349.811 240.186 352.602 240.508 355.072" stroke="white" stroke-miterlimit="10" stroke-linecap="round" stroke-linejoin="round"/>
<path d="M289.898 319.747C289.898 319.747 300.313 321.25 302.675 319.747" stroke="white" stroke-miterlimit="10" stroke-linecap="round" stroke-linejoin="round"/>
<path d="M285.604 255.862C285.604 255.862 284.316 252.641 284.53 247.917C284.53 247.058 284.638 246.092 284.852 245.125L283.027 242.226L280.665 238.576L283.349 227.731C283.349 227.731 300.528 231.06 301.817 235.784C303.213 240.616 285.604 255.862 285.604 255.862Z" fill="white"/>
<path d="M284.531 247.809C284.531 246.95 284.638 245.984 284.853 245.018L283.027 242.119C286.034 241.475 289.255 240.186 291.402 237.395C291.402 237.502 291.939 245.018 284.531 247.809Z" fill="#1DB193"/>
<path d="M285.604 255.862C285.604 255.862 284.316 252.641 284.53 247.917C284.53 247.058 284.638 246.092 284.852 245.125L283.027 242.226L280.665 238.576L283.349 227.731C283.349 227.731 300.528 231.06 301.817 235.784C303.213 240.616 285.604 255.862 285.604 255.862Z" stroke="#0E6656" stroke-miterlimit="10" stroke-linecap="round" stroke-linejoin="round"/>
<path d="M296.448 228.697C301.71 214.739 298.274 191.011 272.505 195.52C257.366 198.204 255.541 216.457 260.587 224.617C265.633 232.778 260.265 232.992 267.888 239.005C271.002 241.475 273.471 245.555 277.122 245.877C281.524 246.199 287.107 242.011 291.295 237.609" fill="white"/>
<path d="M296.448 228.697C301.71 214.739 298.274 191.011 272.505 195.52C257.366 198.204 255.541 216.457 260.587 224.617C265.633 232.778 260.265 232.992 267.888 239.005C271.002 241.475 273.471 245.555 277.122 245.877C281.524 246.199 287.107 242.011 291.295 237.609" stroke="#0E6656" stroke-miterlimit="10" stroke-linecap="round" stroke-linejoin="round"/>
<path d="M271.002 224.618C271.002 224.618 274.76 221.182 279.269 222.578" stroke="#0E6656" stroke-miterlimit="10" stroke-linecap="round" stroke-linejoin="round"/>
<path d="M263.916 224.618C263.916 224.618 262.627 221.933 258.977 221.289" stroke="#0E6656" stroke-miterlimit="10" stroke-linecap="round" stroke-linejoin="round"/>
<path d="M266.385 229.557C266.385 229.557 265.848 232.348 265.096 235.14C264.452 237.824 269.606 236.428 269.391 235.999" fill="white"/>
<path d="M266.385 229.557C266.385 229.557 265.848 232.348 265.096 235.14C264.452 237.824 269.606 236.428 269.391 235.999" stroke="#0E6656" stroke-miterlimit="10" stroke-linecap="round" stroke-linejoin="round"/>
<path d="M272.183 239.65C272.183 239.65 275.511 238.898 277.873 235.892" stroke="#0E6656" stroke-miterlimit="10" stroke-linecap="round" stroke-linejoin="round"/>
<path d="M276.37 228.161C276.585 228.913 276.263 229.664 275.619 229.879C274.975 230.094 274.33 229.557 274.116 228.805C273.901 228.054 274.223 227.302 274.867 227.087C275.404 226.873 276.156 227.409 276.37 228.161Z" fill="#0E6656"/>
<path d="M264.882 227.946C265.096 228.698 264.989 229.449 264.559 229.557C264.13 229.664 263.701 229.127 263.486 228.376C263.271 227.624 263.378 226.872 263.808 226.765C264.13 226.55 264.667 227.087 264.882 227.946Z" fill="#0E6656"/>
<path d="M280.558 210.23C280.558 210.23 276.585 220.645 266.707 220.43C266.707 220.43 270.143 217.853 271.109 215.276C271.109 215.276 263.486 222.792 255.863 218.927C248.239 215.062 251.997 197.346 263.701 190.259C275.404 183.173 287.215 185.106 291.295 191.87C291.295 191.87 299.455 191.118 302.998 203.144C306.219 213.881 301.065 230.201 296.019 230.308C288.181 230.63 286.678 222.148 286.678 222.148C286.678 222.148 281.954 218.068 280.558 210.23Z" fill="#0E6656" stroke="#0E6656" stroke-miterlimit="10" stroke-linecap="round" stroke-linejoin="round"/>
<path d="M289.147 228.805C289.147 228.805 288.932 218.927 294.516 220.108C300.099 221.289 296.019 232.671 291.831 232.563" fill="white"/>
<path d="M289.147 228.805C289.147 228.805 288.932 218.927 294.516 220.108C300.099 221.289 296.019 232.671 291.831 232.563" stroke="#0E6656" stroke-miterlimit="10" stroke-linecap="round" stroke-linejoin="round"/>
<path d="M271.753 290.65H185.213C184.247 290.65 183.495 289.899 183.495 288.932V285.926C183.495 284.96 184.247 284.208 185.213 284.208H271.753C272.72 284.208 273.471 284.96 273.471 285.926V288.932C273.471 289.791 272.72 290.65 271.753 290.65Z" fill="#1BBC9B" stroke="#0E6656" stroke-miterlimit="10" stroke-linecap="round" stroke-linejoin="round"/>
<path d="M57.4428 415.199H20.937L24.695 448.591H53.5775L57.4428 415.199Z" fill="#0E6656" stroke="#0E6656" stroke-miterlimit="10" stroke-linecap="round" stroke-linejoin="round"/>
<path d="M61.7376 392.008C61.7376 392.008 45.7394 393.296 45.0952 405C45.0952 405 61.3081 412.515 61.7376 392.008Z" fill="#1BBC9B" stroke="#0E6656" stroke-miterlimit="10" stroke-linecap="round" stroke-linejoin="round"/>
<path d="M30.1709 394.907C30.1709 394.907 21.2591 382.881 6.87158 389.001C6.87158 389.109 15.6759 403.604 30.1709 394.907Z" fill="#1BBC9B" stroke="#0E6656" stroke-miterlimit="10" stroke-linecap="round" stroke-linejoin="round"/>
<path d="M8.15995 356.898C8.15995 356.898 5.58307 380.089 26.7349 373.647C26.6276 373.647 19.9706 356.683 8.15995 356.898Z" fill="#1BBC9B" stroke="#0E6656" stroke-miterlimit="10" stroke-linecap="round" stroke-linejoin="round"/>
<path d="M34.0359 344.013C34.0359 344.013 17.3935 353.032 29.6337 366.668C29.6337 366.668 41.337 356.898 34.0359 344.013Z" fill="#1BBC9B" stroke="#0E6656" stroke-miterlimit="10" stroke-linecap="round" stroke-linejoin="round"/>
<path d="M54.544 364.736C54.544 364.736 36.3984 362.91 36.3984 379.66C36.3984 379.66 54.544 380.412 54.544 364.736Z" fill="#1BBC9B" stroke="#0E6656" stroke-miterlimit="10" stroke-linecap="round" stroke-linejoin="round"/>
<path d="M37.4722 429.05C37.4722 429.05 45.7397 411.656 37.7943 394.048C29.8489 376.331 27.1647 361.514 31.3521 350.992" stroke="#0E6656" stroke-miterlimit="10" stroke-linecap="round" stroke-linejoin="round"/>
<path d="M48.531 369.245C48.531 369.245 37.6867 373.54 33.9287 384.814" stroke="#0E6656" stroke-miterlimit="10" stroke-linecap="round" stroke-linejoin="round"/>
<path d="M13.8506 366.131C13.8506 366.131 20.1854 374.721 30.815 373.755" stroke="#0E6656" stroke-miterlimit="10" stroke-linecap="round" stroke-linejoin="round"/>
<path d="M13.8506 391.578C13.8506 391.578 31.2445 396.624 38.1162 394.907" stroke="#0E6656" stroke-miterlimit="10" stroke-linecap="round" stroke-linejoin="round"/>
<path d="M56.5838 397.269C56.5838 397.269 48.8531 405.858 41.0151 405.643" stroke="#0E6656" stroke-miterlimit="10" stroke-linecap="round" stroke-linejoin="round"/>
<path d="M19.3742 419.181H58.9937V414.456H19.3742V419.181Z" fill="#0E6656" stroke="#0E6656" stroke-miterlimit="10" stroke-linecap="round" stroke-linejoin="round"/>
<path d="M346.698 384.277C346.698 384.277 333.384 392.115 323.935 407.898C314.487 423.682 306.971 445.907 318.674 448.699L329.733 448.269L350.992 440.968L348.738 436.673C348.738 436.673 330.055 446.551 326.942 446.551C323.828 446.551 319.64 447.303 317.815 446.122C316.097 444.833 323.935 416.166 340.792 406.61C357.757 396.839 346.698 384.277 346.698 384.277Z" fill="#1BBC9B"/>
<path opacity="0.5" d="M346.698 384.277C346.698 384.277 333.384 392.115 323.935 407.898C314.487 423.682 306.971 445.907 318.674 448.699L329.733 448.269L350.992 440.968L348.738 436.673C348.738 436.673 330.055 446.551 326.942 446.551C323.828 446.551 319.64 447.303 317.815 446.122C316.097 444.833 323.935 416.166 340.792 406.61C357.757 396.839 346.698 384.277 346.698 384.277Z" fill="black" fill-opacity="0.7"/>
<path d="M346.698 384.277C346.698 384.277 333.384 392.115 323.935 407.898C314.487 423.682 306.971 445.907 318.674 448.699L329.733 448.269L350.992 440.968L348.738 436.673C348.738 436.673 330.055 446.551 326.942 446.551C323.828 446.551 319.64 447.303 317.815 446.122C316.097 444.833 323.935 416.166 340.792 406.61C357.757 396.839 346.698 384.277 346.698 384.277Z" stroke="#0E6656" stroke-miterlimit="10" stroke-linecap="round" stroke-linejoin="round"/>
<path d="M358.831 373.862C358.831 373.862 358.831 369.245 365.81 368.601C372.789 367.957 373.862 374.721 373.862 374.721H371.5C371.5 374.721 371.608 370.641 366.454 370.319C361.3 369.997 361.515 374.721 361.515 374.721L358.831 373.862Z" fill="#1BBC9B" stroke="#0E6656" stroke-miterlimit="10" stroke-linecap="round" stroke-linejoin="round"/>
<path d="M348.523 448.592C333.706 448.592 336.497 382.13 338.215 378.801C339.933 375.473 382.989 373.862 387.176 375.258C391.363 376.654 408.435 442.901 399.094 448.162L348.523 448.592Z" fill="#1BBC9B"/>
<path opacity="0.2" d="M348.523 448.592C333.706 448.592 336.497 382.13 338.215 378.801C339.933 375.473 382.989 373.862 387.176 375.258C391.363 376.654 408.435 442.901 399.094 448.162L348.523 448.592Z" fill="black" fill-opacity="0.7"/>
<path d="M348.523 448.592C333.706 448.592 336.497 382.13 338.215 378.801C339.933 375.473 382.989 373.862 387.176 375.258C391.363 376.654 408.435 442.901 399.094 448.162L348.523 448.592Z" stroke="#0E6656" stroke-miterlimit="10" stroke-linecap="round" stroke-linejoin="round"/>
<path d="M338.215 378.801C343.584 379.982 346.698 401.671 353.891 407.254C361.085 412.837 395.229 411.549 399.094 407.254C402.959 402.959 395.443 378.479 389.968 374.721C384.492 370.963 380.626 374.613 365.165 372.896C342.188 370.426 338.215 378.801 338.215 378.801Z" fill="#1BBC9B" stroke="#0E6656" stroke-miterlimit="10" stroke-linecap="round" stroke-linejoin="round"/>
<path d="M377.298 391.363L383.633 396.517C383.955 396.839 384.062 397.376 383.74 397.698L378.801 402.959C378.479 403.281 377.942 403.281 377.62 402.959L371.392 397.054C371.07 396.732 371.07 396.195 371.392 395.873L376.224 391.363C376.439 391.041 376.976 391.041 377.298 391.363Z" fill="#1BBC9B"/>
<path opacity="0.2" d="M377.298 391.363L383.633 396.517C383.955 396.839 384.062 397.376 383.74 397.698L378.801 402.959C378.479 403.281 377.942 403.281 377.62 402.959L371.392 397.054C371.07 396.732 371.07 396.195 371.392 395.873L376.224 391.363C376.439 391.041 376.976 391.041 377.298 391.363Z" fill="black" fill-opacity="0.7"/>
<path d="M377.298 391.363L383.633 396.517C383.955 396.839 384.062 397.376 383.74 397.698L378.801 402.959C378.479 403.281 377.942 403.281 377.62 402.959L371.392 397.054C371.07 396.732 371.07 396.195 371.392 395.873L376.224 391.363C376.439 391.041 376.976 391.041 377.298 391.363Z" stroke="#0E6656" stroke-miterlimit="10" stroke-linecap="round" stroke-linejoin="round"/>
<path d="M356.468 418.42C356.468 418.42 385.029 420.782 398.987 417.132C398.987 417.132 401.671 419.064 402.96 422.822C404.248 426.688 406.932 439.68 398.987 443.115C391.042 446.444 362.481 445.8 358.723 442.042C354.858 438.176 356.468 418.42 356.468 418.42Z" fill="#1BBC9B"/>
<path opacity="0.4" d="M356.468 418.42C356.468 418.42 385.029 420.782 398.987 417.132C398.987 417.132 401.671 419.064 402.96 422.822C404.248 426.688 406.932 439.68 398.987 443.115C391.042 446.444 362.481 445.8 358.723 442.042C354.858 438.176 356.468 418.42 356.468 418.42Z" fill="black" fill-opacity="0.7"/>
<path d="M356.468 418.42C356.468 418.42 385.029 420.782 398.987 417.132C398.987 417.132 401.671 419.064 402.96 422.822C404.248 426.688 406.932 439.68 398.987 443.115C391.042 446.444 362.481 445.8 358.723 442.042C354.858 438.176 356.468 418.42 356.468 418.42Z" stroke="#0E6656" stroke-miterlimit="10" stroke-linecap="round" stroke-linejoin="round"/>
<path d="M356.468 418.42C356.468 418.42 359.797 427.439 361.622 428.835C363.34 430.231 400.49 430.231 404.57 426.903C408.65 423.574 403.067 417.454 399.094 417.132C398.987 417.132 373.003 420.138 356.468 418.42Z" fill="#1BBC9B" stroke="#0E6656" stroke-miterlimit="10" stroke-linecap="round" stroke-linejoin="round"/>
<path d="M344.443 416.488C344.443 416.488 345.409 435.492 347.342 439.787C347.342 439.787 342.94 442.364 338.108 439.787C333.277 437.21 334.028 420.89 334.995 420.89C336.068 420.997 344.443 416.488 344.443 416.488Z" fill="#1BBC9B"/>
<path opacity="0.4" d="M344.443 416.488C344.443 416.488 345.409 435.492 347.342 439.787C347.342 439.787 342.94 442.364 338.108 439.787C333.277 437.21 334.028 420.89 334.995 420.89C336.068 420.997 344.443 416.488 344.443 416.488Z" fill="black" fill-opacity="0.7"/>
<path d="M344.443 416.488C344.443 416.488 345.409 435.492 347.342 439.787C347.342 439.787 342.94 442.364 338.108 439.787C333.277 437.21 334.028 420.89 334.995 420.89C336.068 420.997 344.443 416.488 344.443 416.488Z" stroke="#0E6656" stroke-miterlimit="10" stroke-linecap="round" stroke-linejoin="round"/>
<path d="M344.443 416.488L337.249 417.884C337.249 417.884 330.377 423.145 333.384 424.863C336.497 426.688 344.335 422.393 344.443 416.488Z" fill="#1BBC9B" stroke="#0E6656" stroke-miterlimit="10" stroke-linecap="round" stroke-linejoin="round"/>
</g>
<defs>
<clipPath id="clip0_745:1273">
<rect width="408.542" height="456" fill="white"/>
</clipPath>
</defs>
</svg>
