<svg width="80" height="80" viewBox="0 0 80 80" fill="none" xmlns="http://www.w3.org/2000/svg">
<g clip-path="url(#clip0_258_6006)" filter="url(#filter0_d_258_6006)">
<g filter="url(#filter1_d_258_6006)">
<path d="M10 39C10 55.56 23.44 69 40 69C56.56 69 70 55.56 70 39C70 22.44 56.56 9 40 9C23.44 9 10 22.44 10 39ZM39.13 27.63L48.37 36.87C49.54 38.04 49.54 39.93 48.37 41.13L39.13 50.37C37.96 51.54 36.04 51.54 34.87 50.37C33.7 49.2 33.7 47.31 34.87 46.14L42.01 39L34.87 31.86C33.7 30.69 33.7 28.8 34.87 27.63C36.04 26.46 37.96 26.46 39.13 27.63Z" fill="white"/>
</g>
</g>
<defs>
<filter id="filter0_d_258_6006" x="-6" y="-6" width="92" height="92" filterUnits="userSpaceOnUse" color-interpolation-filters="sRGB">
<feFlood flood-opacity="0" result="BackgroundImageFix"/>
<feColorMatrix in="SourceAlpha" type="matrix" values="0 0 0 0 0 0 0 0 0 0 0 0 0 0 0 0 0 0 127 0" result="hardAlpha"/>
<feOffset dy="1"/>
<feGaussianBlur stdDeviation="5"/>
<feColorMatrix type="matrix" values="0 0 0 0 0 0 0 0 0 0 0 0 0 0 0 0 0 0 0.12 0"/>
<feBlend mode="normal" in2="BackgroundImageFix" result="effect1_dropShadow_258_6006"/>
<feBlend mode="normal" in="SourceGraphic" in2="effect1_dropShadow_258_6006" result="shape"/>
</filter>
<filter id="filter1_d_258_6006" x="6" y="9" width="68" height="68" filterUnits="userSpaceOnUse" color-interpolation-filters="sRGB">
<feFlood flood-opacity="0" result="BackgroundImageFix"/>
<feColorMatrix in="SourceAlpha" type="matrix" values="0 0 0 0 0 0 0 0 0 0 0 0 0 0 0 0 0 0 127 0" result="hardAlpha"/>
<feOffset dy="4"/>
<feGaussianBlur stdDeviation="2"/>
<feComposite in2="hardAlpha" operator="out"/>
<feColorMatrix type="matrix" values="0 0 0 0 0 0 0 0 0 0 0 0 0 0 0 0 0 0 0.13 0"/>
<feBlend mode="normal" in2="BackgroundImageFix" result="effect1_dropShadow_258_6006"/>
<feBlend mode="normal" in="SourceGraphic" in2="effect1_dropShadow_258_6006" result="shape"/>
</filter>
<clipPath id="clip0_258_6006">
<rect width="72" height="72" fill="white" transform="translate(4 75) rotate(-90)"/>
</clipPath>
</defs>
</svg>
