<svg width="70" height="38" viewBox="0 0 70 38" fill="none" xmlns="http://www.w3.org/2000/svg">
<path d="M31.8631 13.1118C31.8631 12.671 33.0853 12.0302 35.0009 12.0302C36.9159 12.0302 38.1381 12.671 38.1381 13.1118C38.1381 13.5531 36.9159 14.1933 35.0009 14.1933C33.0853 14.1933 31.8631 13.5531 31.8631 13.1118ZM4.42245 12.4592C11.8257 10.332 29.6044 4.16068 34.4573 2.46815L65.8522 12.3499L35.0014 24.6903L14.6285 16.5411L31.8299 14.4483C32.5811 14.8741 33.7025 15.1362 35.0009 15.1362C37.3721 15.1362 39.1608 14.2659 39.1608 13.1118C39.1608 11.9581 37.3721 11.0864 35.0009 11.0864C32.9549 11.0864 31.3461 11.737 30.9416 12.6545L10.9814 15.0825L4.42245 12.4592ZM51.99 34.4833C51.99 35.2278 51.3345 35.8322 50.5275 35.8322H21.6849C20.8784 35.8322 20.2223 35.2278 20.2223 34.4833V20.8342L34.5943 26.5831C34.7242 26.635 34.8623 26.6609 35.0014 26.6609C35.14 26.6609 35.2785 26.635 35.4079 26.5831L51.99 19.9502V34.4833ZM9.20901 30.3317L10.2635 24.5752C10.3238 24.2447 10.1893 23.9095 9.91009 23.695C9.73623 23.5602 9.63651 23.3641 9.63651 23.1557C9.63651 22.7691 9.97811 22.4541 10.3974 22.4541C10.8178 22.4541 11.1599 22.7691 11.1599 23.1557C11.1599 23.3716 11.0566 23.5253 10.9707 23.6167C10.7769 23.8218 10.6884 24.0948 10.7293 24.3645L11.6232 30.3317H9.20901ZM9.8114 20.6258C8.54423 20.8752 7.59094 21.9143 7.59094 23.1557C7.59094 23.728 7.79431 24.2744 8.16224 24.72L6.9909 31.1176C6.94038 31.3911 7.02368 31.6716 7.218 31.8832C7.41217 32.0954 7.69782 32.2175 7.99906 32.2175H12.7968C13.0923 32.2175 13.3736 32.0997 13.5679 31.8936C13.7617 31.6886 13.8502 31.4156 13.8093 31.145L12.8106 24.4762C13.0673 24.0788 13.2054 23.6229 13.2054 23.1557C13.2054 22.2222 12.6638 21.4047 11.8569 20.9492V17.4888L18.1769 20.0162V34.4833C18.1769 36.2673 19.7503 37.718 21.6849 37.718H50.5275C52.462 37.718 54.0355 36.2673 54.0355 34.4833V19.1322L69.0912 13.1099C69.4783 12.9548 69.7227 12.5965 69.7059 12.2066C69.689 11.8172 69.4139 11.4777 69.0145 11.3551L34.7697 0.572933C34.5447 0.502216 34.2998 0.506924 34.0773 0.58707C22.3527 4.67931 3.09811 11.2043 1.30971 11.3033C0.828304 11.308 0.414402 11.6192 0.316168 12.0529C0.218293 12.4909 0.465743 12.9322 0.910787 13.1099L9.8114 16.6698V20.6258Z" fill="white"/>
</svg>
