<svg width="116" height="116" viewBox="0 0 116 116" fill="none" xmlns="http://www.w3.org/2000/svg">
<g filter="url(#filter0_d_23_5835)">
<circle cx="58" cy="54" r="42" fill="#0B6E4F"/>
</g>
<path d="M69.6667 37H46.3333C44.5 37 43 38.5 43 40.3333V63.6667C43 65.5 44.5 67 46.3333 67H69.6667C71.5 67 73 65.5 73 63.6667V40.3333C73 38.5 71.5 37 69.6667 37ZM69.6667 63.6667H46.3333V40.3333H69.6667V63.6667ZM49.6667 48.6667H53V60.3333H49.6667V48.6667ZM56.3333 43.6667H59.6667V60.3333H56.3333V43.6667ZM63 53.6667H66.3333V60.3333H63V53.6667Z" fill="#FDFFFC"/>
<defs>
<filter id="filter0_d_23_5835" x="0" y="0" width="116" height="116" filterUnits="userSpaceOnUse" color-interpolation-filters="sRGB">
<feFlood flood-opacity="0" result="BackgroundImageFix"/>
<feColorMatrix in="SourceAlpha" type="matrix" values="0 0 0 0 0 0 0 0 0 0 0 0 0 0 0 0 0 0 127 0" result="hardAlpha"/>
<feOffset dy="4"/>
<feGaussianBlur stdDeviation="8"/>
<feComposite in2="hardAlpha" operator="out"/>
<feColorMatrix type="matrix" values="0 0 0 0 0 0 0 0 0 0 0 0 0 0 0 0 0 0 0.13 0"/>
<feBlend mode="normal" in2="BackgroundImageFix" result="effect1_dropShadow_23_5835"/>
<feBlend mode="normal" in="SourceGraphic" in2="effect1_dropShadow_23_5835" result="shape"/>
</filter>
</defs>
</svg>
