<svg width="116" height="116" viewBox="0 0 116 116" fill="none" xmlns="http://www.w3.org/2000/svg">
<g filter="url(#filter0_d_23_5835)">
<circle cx="58" cy="54" r="42" fill="#0B6E4F"/>
</g>
<path d="M64 39.9V53.55H44.34L43.16 54.7005L42 55.8315V39.9H64ZM66 36H40C38.9 36 38 36.8775 38 37.95V65.25L46 57.45H66C67.1 57.45 68 56.5725 68 55.5V37.95C68 36.8775 67.1 36 66 36ZM76 43.8H72V61.35H46V65.25C46 66.3225 46.9 67.2 48 67.2H70L78 75V45.75C78 44.6775 77.1 43.8 76 43.8Z" fill="#FDFFFC"/>
<defs>
<filter id="filter0_d_23_5835" x="0" y="0" width="116" height="116" filterUnits="userSpaceOnUse" color-interpolation-filters="sRGB">
<feFlood flood-opacity="0" result="BackgroundImageFix"/>
<feColorMatrix in="SourceAlpha" type="matrix" values="0 0 0 0 0 0 0 0 0 0 0 0 0 0 0 0 0 0 127 0" result="hardAlpha"/>
<feOffset dy="4"/>
<feGaussianBlur stdDeviation="8"/>
<feComposite in2="hardAlpha" operator="out"/>
<feColorMatrix type="matrix" values="0 0 0 0 0 0 0 0 0 0 0 0 0 0 0 0 0 0 0.13 0"/>
<feBlend mode="normal" in2="BackgroundImageFix" result="effect1_dropShadow_23_5835"/>
<feBlend mode="normal" in="SourceGraphic" in2="effect1_dropShadow_23_5835" result="shape"/>
</filter>
</defs>
</svg>
