<svg width="36" height="36" viewBox="0 0 36 36" fill="none" xmlns="http://www.w3.org/2000/svg">
<path d="M18.6031 26.5767L25.4985 30.9454C26.38 31.5038 27.4743 30.6733 27.2127 29.6444L25.2205 21.8074C25.1644 21.5891 25.171 21.3594 25.2397 21.1447C25.3083 20.9301 25.4361 20.7391 25.6084 20.5939L31.7919 15.4473C32.6043 14.7711 32.185 13.4227 31.1411 13.3549L23.066 12.8309C22.8485 12.8153 22.6399 12.7383 22.4644 12.6088C22.289 12.4793 22.154 12.3026 22.0751 12.0993L19.0634 4.51513C18.9815 4.29936 18.8359 4.11361 18.646 3.98253C18.4561 3.85145 18.2308 3.78125 18 3.78125C17.7692 3.78125 17.5439 3.85145 17.354 3.98253C17.1641 4.11361 17.0185 4.29936 16.9366 4.51513L13.9249 12.0993C13.846 12.3026 13.711 12.4793 13.5356 12.6088C13.3601 12.7383 13.1515 12.8153 12.934 12.8309L4.85887 13.3549C3.81501 13.4227 3.39566 14.7711 4.20814 15.4473L10.3916 20.5939C10.5639 20.7391 10.6917 20.9301 10.7603 21.1447C10.829 21.3594 10.8356 21.5891 10.7795 21.8074L8.93191 29.0754C8.61805 30.31 9.93126 31.3067 10.989 30.6366L17.3969 26.5767C17.5772 26.462 17.7864 26.4011 18 26.4011C18.2136 26.4011 18.4229 26.462 18.6031 26.5767Z" fill="white"/>
</svg>
