<svg width="563" height="616" viewBox="0 0 563 616" fill="none" xmlns="http://www.w3.org/2000/svg">
<g clip-path="url(#clip0_301:369)">
<g opacity="0.4">
<path opacity="0.4" d="M547.55 493.058C559.394 435.048 555.116 381.415 524.781 330.36C503.179 293.993 465.631 263.593 422.71 262.816C382.228 262.075 345.741 286.931 305.754 293.216C239.922 303.561 171.898 262.887 107.975 281.494C73.7513 291.451 45.9619 317.932 30.2288 349.356C14.5309 380.815 10.0762 416.793 12.551 451.713C16.9351 513.749 44.8306 575.431 92.419 615.576H480.197C512.724 578.291 539.877 530.59 547.55 493.058Z" fill="#E8F3FF"/>
</g>
<path d="M227.441 561.414H195.869C194.561 561.414 193.465 560.355 193.465 559.013V550.539C193.465 549.233 194.525 548.138 195.869 548.138H227.406C228.714 548.138 229.81 549.197 229.81 550.539V559.013C229.846 560.319 228.75 561.414 227.441 561.414Z" fill="#CFDFDC"/>
<path d="M268.666 561.414H237.129C235.821 561.414 234.724 560.355 234.724 559.013V550.539C234.724 549.233 235.785 548.138 237.129 548.138H268.666C269.974 548.138 271.07 549.197 271.07 550.539V559.013C271.07 560.319 270.009 561.414 268.666 561.414Z" fill="#CFDFDC"/>
<path d="M247.771 543.16H216.234C214.926 543.16 213.83 542.101 213.83 540.759V532.285C213.83 530.979 214.89 529.884 216.234 529.884H247.771C249.079 529.884 250.175 530.943 250.175 532.285V540.759C250.175 542.101 249.079 543.16 247.771 543.16Z" fill="#CFDFDC"/>
<path d="M423.381 232.169C423.381 227.614 419.669 223.907 415.108 223.907H139.972C135.411 223.907 131.699 227.614 131.699 232.169V238.948H423.381V232.169Z" fill="white"/>
<path d="M423.841 239.372H131.275V232.169C131.275 227.367 135.164 223.483 139.972 223.483H415.108C419.917 223.483 423.806 227.367 423.806 232.169V239.372H423.841ZM132.159 238.489H422.957V232.169C422.957 227.861 419.457 224.366 415.144 224.366H139.972C135.659 224.366 132.159 227.861 132.159 232.169V238.489V238.489Z" fill="#16A086"/>
<path d="M131.699 238.912V414.216C131.699 418.77 135.411 422.478 139.972 422.478H415.108C419.669 422.478 423.381 418.77 423.381 414.216V238.912H131.699Z" fill="white"/>
<path d="M415.144 422.901H139.972C135.164 422.901 131.275 419.018 131.275 414.216V238.489H423.841V414.216C423.841 419.018 419.917 422.901 415.144 422.901ZM132.159 239.372V414.216C132.159 418.523 135.659 422.019 139.972 422.019H415.108C419.422 422.019 422.922 418.523 422.922 414.216V239.372H132.159Z" fill="#16A086"/>
<path d="M146.112 234.351C147.726 234.205 148.916 232.781 148.771 231.169C148.625 229.557 147.199 228.368 145.585 228.513C143.97 228.658 142.78 230.083 142.925 231.695C143.071 233.307 144.498 234.496 146.112 234.351Z" fill="white"/>
<path d="M145.841 234.817C143.968 234.817 142.447 233.299 142.447 231.427C142.447 229.556 143.968 228.038 145.841 228.038C147.715 228.038 149.236 229.556 149.236 231.427C149.236 233.299 147.715 234.817 145.841 234.817ZM145.841 228.92C144.463 228.92 143.331 230.05 143.331 231.427C143.331 232.804 144.463 233.934 145.841 233.934C147.22 233.934 148.352 232.804 148.352 231.427C148.352 230.05 147.256 228.92 145.841 228.92Z" fill="#16A086"/>
<path d="M157.603 234.351C159.217 234.205 160.408 232.781 160.262 231.169C160.117 229.557 158.69 228.368 157.076 228.513C155.462 228.658 154.271 230.083 154.417 231.695C154.562 233.307 155.989 234.496 157.603 234.351Z" fill="white"/>
<path d="M157.332 234.817C155.458 234.817 153.938 233.299 153.938 231.427C153.938 229.556 155.458 228.038 157.332 228.038C159.206 228.038 160.726 229.556 160.726 231.427C160.726 233.299 159.206 234.817 157.332 234.817ZM157.332 228.92C155.953 228.92 154.822 230.05 154.822 231.427C154.822 232.804 155.953 233.934 157.332 233.934C158.711 233.934 159.842 232.804 159.842 231.427C159.842 230.05 158.746 228.92 157.332 228.92Z" fill="#16A086"/>
<path d="M169.094 234.351C170.708 234.205 171.898 232.781 171.753 231.169C171.607 229.557 170.181 228.368 168.567 228.513C166.952 228.658 165.762 230.083 165.907 231.695C166.053 233.307 167.479 234.496 169.094 234.351Z" fill="white"/>
<path d="M168.823 234.817C166.949 234.817 165.428 233.299 165.428 231.427C165.428 229.556 166.949 228.038 168.823 228.038C170.696 228.038 172.217 229.556 172.217 231.427C172.217 233.299 170.696 234.817 168.823 234.817ZM168.823 228.92C167.444 228.92 166.312 230.05 166.312 231.427C166.312 232.804 167.444 233.934 168.823 233.934C170.201 233.934 171.333 232.804 171.333 231.427C171.333 230.05 170.237 228.92 168.823 228.92Z" fill="#16A086"/>
<path opacity="0.4" d="M392.976 258.049H162.105V396.456H392.976V258.049Z" fill="#CFDFDC"/>
<path d="M319.507 421.984H244.13C241.336 395.997 240.629 372.694 243.104 357.194C243.776 352.957 244.695 349.32 245.862 346.39L277.611 339.928L314.522 343.247C320.745 359.242 321.735 388.088 319.507 421.984Z" fill="#0E6656"/>
<path d="M280.44 347.131H279.556V377.143H280.44V347.131Z" fill="#0E6656"/>
<path opacity="0.2" d="M314.558 343.212C314.558 343.212 284.859 364.008 243.14 357.194C243.811 352.957 244.731 349.32 245.897 346.39L277.647 339.928L314.558 343.212Z" fill="#404040"/>
<path d="M262.691 225.602C262.691 225.602 248.372 243.821 251.837 259.321L302.112 257.238C302.112 257.238 302.536 226.908 291.541 224.331L262.691 225.602Z" fill="#0E6656"/>
<path d="M306.002 255.401H305.118C305.118 235.523 294.758 226.414 294.652 226.308L295.218 225.637C295.324 225.743 306.002 235.135 306.002 255.401Z" fill="#0E6656"/>
<path d="M250.423 329.159C250.352 331.242 249.963 333.22 249.256 335.091C247.417 340.034 243.599 344.024 238.685 345.966C237.518 346.46 236.245 346.813 234.937 347.025C232.568 347.413 229.81 347.661 226.558 347.661C210.294 347.661 198.485 335.338 197.107 331.56C195.728 327.782 199.652 329.124 199.652 329.124C201.102 325.911 204.284 328.488 204.284 328.488C205.238 325.134 208.279 328.277 208.279 328.277C208.279 328.277 208.385 326.441 210.117 326.547C211.178 326.617 214.643 328.736 217.153 330.324C218.461 331.137 219.946 331.56 221.431 331.56C222.032 331.56 222.633 331.49 223.234 331.348C226.31 330.642 228.679 328.171 229.245 325.064L234.124 298.547H245.65L249.362 303.279C250.812 309.175 250.705 321.144 250.423 329.159Z" fill="#FFBC96"/>
<path opacity="0.4" d="M249.256 335.091C247.417 340.034 243.599 344.024 238.684 345.966C238.296 344.977 238.048 343.918 238.048 342.788C238.048 338.233 241.725 334.561 246.286 334.561C247.347 334.561 248.337 334.738 249.256 335.091Z" fill="#FE5B52"/>
<path d="M275.348 247.845L251.66 252.683C242.963 254.448 236.104 261.227 234.265 269.913L227.831 300.348L249.362 303.349L275.348 247.845Z" fill="#16A086"/>
<path d="M283.622 247.845L307.31 252.683C316.007 254.448 322.866 261.227 324.705 269.913L327.639 291.521L306.744 295.193L283.622 247.845Z" fill="#16A086"/>
<path d="M249.362 303.349C249.362 303.349 248.231 338.057 245.932 346.389C245.932 346.389 278.106 357.582 314.593 343.247L311.729 279.269L283.657 247.845H275.384L247.382 284.142L249.362 303.349Z" fill="#16A086"/>
<path d="M355.181 248.728C355.322 250.988 351.574 257.873 348.711 262.781C346.589 266.382 345.246 270.407 344.751 274.574C341.038 305.644 338.599 331.631 327.78 338.94C325.27 340.634 322.3 341.305 318.8 340.846C316.325 340.493 314.274 339.505 312.613 338.022C301.193 327.888 306.744 295.264 306.744 295.264L320.886 292.828C320.886 292.828 324.032 266.135 326.048 256.955C328.063 247.775 331.21 252.647 331.21 252.647C332.376 249.788 335.523 251.482 335.523 251.482C337.821 247.775 340.685 250.635 340.685 250.635C342.417 247.21 347.296 253.212 347.296 253.212C350.443 251.729 354.898 243.962 355.181 248.728Z" fill="#FFBC96"/>
<path d="M250.3 274.18L248.907 303.312L249.79 303.354L251.183 274.222L250.3 274.18Z" fill="#0E6656"/>
<path d="M306.319 295.688L304.516 272.491L305.4 272.455L307.133 294.664L320.78 292.298L320.957 293.181L306.319 295.688Z" fill="#0E6656"/>
<path d="M323.829 268.034L317.353 316.86L318.229 316.976L324.705 268.15L323.829 268.034Z" fill="#D28572"/>
<path opacity="0.4" d="M327.78 338.904C325.27 340.599 322.3 341.27 318.8 340.811C316.325 340.458 314.275 339.469 312.613 337.986C313.957 335.268 316.785 333.432 320.002 333.432C323.573 333.396 326.649 335.691 327.78 338.904Z" fill="#FE5B52"/>
<path d="M331.65 252.523L330.776 252.657L331.591 257.926L332.465 257.792L331.65 252.523Z" fill="#D28572"/>
<path d="M336.078 251.336L335.239 251.612L336.938 256.778L337.778 256.502L336.078 251.336Z" fill="#D28572"/>
<path d="M341.122 250.009L340.29 250.305L342.211 255.694L343.043 255.398L341.122 250.009Z" fill="#D28572"/>
<path d="M297.799 273.867H288.571C288.288 273.867 288.041 273.62 288.041 273.338V271.184C288.041 270.902 288.288 270.654 288.571 270.654H297.799C298.082 270.654 298.329 270.902 298.329 271.184V273.338C298.329 273.62 298.082 273.867 297.799 273.867Z" fill="#B3DDD4"/>
<path d="M278.742 263.911C272.661 263.911 268.489 260.203 268.419 260.168L269.02 259.497C269.373 259.815 278.035 267.371 288.501 259.462L289.031 260.168C285.319 262.957 281.818 263.911 278.742 263.911Z" fill="#0E6656"/>
<path d="M213.653 332.973C211.779 332.231 209.729 330.678 207.749 328.453L208.42 327.853C210.33 329.971 212.239 331.454 214.007 332.161L213.653 332.973Z" fill="#D28572"/>
<path d="M208.597 334.279C206.794 333.149 205.203 331.278 203.683 328.594L204.461 328.171C205.875 330.713 207.395 332.478 209.057 333.537L208.597 334.279Z" fill="#D28572"/>
<path d="M205.026 335.903C202.87 334.315 200.89 332.055 198.945 329.054L199.688 328.595C201.562 331.49 203.471 333.679 205.557 335.197L205.026 335.903Z" fill="#D28572"/>
<path d="M278.742 258.191C273.792 258.191 269.762 254.166 269.762 249.222V234.075H287.722V249.222C287.687 254.166 283.692 258.191 278.742 258.191Z" fill="#FFBC96"/>
<path d="M269.762 235.629C275.313 244.951 281.252 245.692 287.722 235.7L269.762 235.629Z" fill="#D28572"/>
<path d="M278.743 239.477C271.884 239.477 266.297 233.899 266.297 227.049V206.076H291.188V227.049C291.188 233.899 285.601 239.477 278.743 239.477Z" fill="#FFBC96"/>
<path d="M278.495 227.332C277.045 225.955 276.479 224.86 276.833 224.013C277.151 223.201 278.176 222.918 278.742 222.848L278.707 220.129H279.591L279.626 223.695H279.202C278.777 223.695 277.823 223.872 277.646 224.331C277.575 224.542 277.54 225.213 279.096 226.696L278.495 227.332Z" fill="#0E6656"/>
<path d="M283.162 230.05C283.692 229.203 283.975 228.497 283.975 228.497C280.97 228.744 274.57 228.744 274.57 228.744C274.57 228.744 274.747 229.485 275.277 230.333C277.187 230.403 280.298 230.439 283.162 230.05Z" fill="white"/>
<path d="M275.277 230.333C275.914 231.356 277.116 232.486 279.131 232.557C281.076 232.628 282.384 231.215 283.162 230.05C280.298 230.438 277.187 230.403 275.277 230.333Z" fill="#0E6656"/>
<path d="M291.046 219.246C291.046 219.741 291.505 209.325 275.242 207.1C275.242 207.1 266.085 212.326 267.11 219.917L262.125 218.964C260.216 213.738 260.852 199.721 272.131 200.71C272.131 200.71 274.57 197.25 278.53 197.179C298.753 196.861 295.571 219.246 295.076 219.882L291.046 219.246Z" fill="#0E6656"/>
<path d="M297.449 224.051C298.403 221.162 297.237 218.181 294.845 217.393C292.453 216.605 289.74 218.309 288.786 221.198C287.832 224.086 288.998 227.067 291.39 227.855C293.782 228.643 296.495 226.94 297.449 224.051Z" fill="#FFBC96"/>
<path d="M292.496 224.224L291.612 224.119C291.753 222.918 292.637 220.552 294.865 220.447L294.9 221.329C292.849 221.435 292.496 224.189 292.496 224.224Z" fill="#0E6656"/>
<path d="M265.976 227.873C268.368 227.085 269.534 224.104 268.58 221.215C267.626 218.326 264.913 216.623 262.521 217.411C260.129 218.199 258.963 221.179 259.917 224.068C260.871 226.957 263.584 228.661 265.976 227.873Z" fill="#FFBC96"/>
<path d="M264.883 224.225C264.883 224.119 264.494 221.435 262.443 221.294L262.479 220.411C264.706 220.553 265.59 222.883 265.731 224.083L264.883 224.225Z" fill="#0E6656"/>
<path d="M285.142 217.552C285.142 218.364 284.541 218.999 283.798 218.999C283.056 218.999 282.455 218.364 282.455 217.552C282.455 216.739 283.056 216.104 283.798 216.104C284.541 216.104 285.142 216.739 285.142 217.552Z" fill="#0E6656"/>
<path d="M286.202 214.409L282.066 213.915C281.677 213.879 281.394 213.526 281.429 213.103L281.465 212.891C281.5 212.502 281.854 212.22 282.278 212.255L286.414 212.749C286.803 212.785 287.086 213.138 287.051 213.562L287.015 213.773C286.945 214.162 286.591 214.444 286.202 214.409Z" fill="#0E6656"/>
<path d="M272.237 217.552C272.237 218.364 272.838 218.999 273.58 218.999C274.323 218.999 274.924 218.364 274.924 217.552C274.924 216.739 274.323 216.104 273.58 216.104C272.838 216.104 272.237 216.739 272.237 217.552Z" fill="#0E6656"/>
<path d="M271.176 214.409L275.313 213.915C275.702 213.879 275.985 213.526 275.949 213.103L275.914 212.891C275.879 212.502 275.525 212.22 275.101 212.255L270.964 212.749C270.575 212.785 270.293 213.138 270.328 213.562L270.363 213.773C270.399 214.162 270.788 214.444 271.176 214.409Z" fill="#0E6656"/>
<path opacity="0.4" d="M286.308 226.131C287.91 226.131 289.208 224.835 289.208 223.236C289.208 221.637 287.91 220.341 286.308 220.341C284.707 220.341 283.409 221.637 283.409 223.236C283.409 224.835 284.707 226.131 286.308 226.131Z" fill="#FE5B52"/>
<path opacity="0.4" d="M271.07 226.131C272.671 226.131 273.969 224.835 273.969 223.236C273.969 221.637 272.671 220.341 271.07 220.341C269.469 220.341 268.171 221.637 268.171 223.236C268.171 224.835 269.469 226.131 271.07 226.131Z" fill="#FE5B52"/>
<path d="M197.071 315.425H110.768C108.294 315.425 106.314 313.448 106.314 310.976V275.527C106.314 273.055 108.294 271.078 110.768 271.078H197.071C199.546 271.078 201.526 273.055 201.526 275.527V310.976C201.526 313.448 199.546 315.425 197.071 315.425Z" fill="white"/>
<path d="M197.071 315.849H110.768C108.081 315.849 105.889 313.659 105.889 310.976V275.527C105.889 272.844 108.081 270.655 110.768 270.655H197.071C199.758 270.655 201.95 272.844 201.95 275.527V310.976C201.95 313.659 199.758 315.849 197.071 315.849ZM110.768 271.537C108.541 271.537 106.738 273.338 106.738 275.562V311.011C106.738 313.236 108.541 315.036 110.768 315.036H197.071C199.299 315.036 201.102 313.236 201.102 311.011V275.527C201.102 273.303 199.299 271.502 197.071 271.502H110.768V271.537Z" fill="#16A086"/>
<path d="M190.955 282.024H116.92V282.906H190.955V282.024Z" fill="#CFDFDC"/>
<path d="M190.955 292.828H116.92V293.711H190.955V292.828Z" fill="#CFDFDC"/>
<path d="M190.955 303.632H116.92V304.515H190.955V303.632Z" fill="#CFDFDC"/>
<path d="M118.158 304.585L117.451 304.056L122.718 297.418L131.805 300.49L139.618 292.016L147.573 298.407L156.907 287.991L165.393 297.736L172.923 278.175L180.772 290.498L189.894 277.363L190.636 277.857L180.772 292.086L173.135 280.152L165.675 299.43L156.907 289.332L147.679 299.642L139.724 293.216L132.052 301.514L123.037 298.442L118.158 304.585Z" fill="#16A086"/>
<path d="M356.772 195.131L352.529 160.706C335.346 162.789 322.053 177.406 322.053 195.131C322.053 214.303 337.609 229.803 356.772 229.803C375.97 229.803 391.491 214.268 391.491 195.131C391.491 194.107 391.456 193.118 391.349 192.13L356.772 195.131Z" fill="white"/>
<path d="M356.772 230.262C337.362 230.262 321.593 214.515 321.593 195.131C321.593 177.407 334.851 162.436 352.458 160.282L352.883 160.212L357.161 194.637L391.774 191.636L391.809 192.059C391.915 193.154 391.95 194.142 391.95 195.096C391.95 214.48 376.182 230.262 356.772 230.262ZM352.14 161.2C335.205 163.495 322.512 178.007 322.512 195.131C322.512 214.021 337.892 229.38 356.807 229.38C375.722 229.38 391.102 214.021 391.102 195.131C391.102 194.319 391.067 193.507 390.996 192.589L356.418 195.59L352.14 161.2Z" fill="#16A086"/>
<path d="M374.909 188.07L409.487 185.068C408.921 178.607 406.588 172.64 402.982 167.662L374.909 188.07Z" fill="#1BBC9B"/>
<path d="M384.844 174.723C378.516 166.073 368.298 160.459 356.772 160.459C355.322 160.459 353.908 160.565 352.494 160.741L356.772 195.166L384.844 174.723Z" fill="#CFDFDC"/>
<path d="M356.418 195.908L352.034 160.318L352.459 160.247C353.944 160.071 355.358 159.965 356.772 159.965C367.98 159.965 378.586 165.367 385.198 174.405L385.445 174.759L356.418 195.908ZM353.024 161.094L357.126 194.319L384.243 174.617C377.773 166.002 367.555 160.883 356.772 160.883C355.535 160.883 354.297 160.953 353.024 161.094Z" fill="#16A086"/>
<path d="M443.923 374.565H380.495C377.454 374.565 375.015 372.129 375.015 369.093V299.607C375.015 296.57 377.454 294.134 380.495 294.134H443.923C446.963 294.134 449.403 296.57 449.403 299.607V369.128C449.403 372.129 446.963 374.565 443.923 374.565Z" fill="white"/>
<path d="M443.923 374.989H380.495C377.242 374.989 374.591 372.341 374.591 369.093V299.607C374.591 296.359 377.242 293.71 380.495 293.71H443.923C447.176 293.71 449.827 296.359 449.827 299.607V369.128C449.827 372.341 447.176 374.989 443.923 374.989ZM380.495 294.523C377.702 294.523 375.439 296.782 375.439 299.572V369.093C375.439 371.882 377.702 374.142 380.495 374.142H443.923C446.716 374.142 448.979 371.882 448.979 369.093V299.607C448.979 296.818 446.716 294.558 443.923 294.558H380.495V294.523Z" fill="#16A086"/>
<path d="M440.953 305.645H383.5V306.563H440.953V305.645Z" fill="#CFDFDC"/>
<path d="M440.953 319.768H383.5V320.686H440.953V319.768Z" fill="#CFDFDC"/>
<path d="M440.953 333.891H383.5V334.809H440.953V333.891Z" fill="#CFDFDC"/>
<path d="M440.953 348.014H383.5V348.932H440.953V348.014Z" fill="#CFDFDC"/>
<path d="M440.953 362.137H383.5V363.055H440.953V362.137Z" fill="#CFDFDC"/>
<path d="M388.379 324.605H383.5V363.055H388.379V324.605Z" fill="#B3DDD4"/>
<path d="M398.986 338.904H394.107V363.055H398.986V338.904Z" fill="#CFDFDC"/>
<path d="M409.628 330.006H404.749V363.055H409.628V330.006Z" fill="#B3DDD4"/>
<path d="M420.27 324.075H415.391V363.055H420.27V324.075Z" fill="#CFDFDC"/>
<path d="M430.912 316.872H426.033V363.055H430.912V316.872Z" fill="#B3DDD4"/>
<path d="M441.554 309.21H436.675V363.055H441.554V309.21Z" fill="#CFDFDC"/>
<path d="M232.639 165.508H189.293C186.464 165.508 184.131 167.803 184.131 170.663V188.175C184.131 191 186.429 193.33 189.293 193.33H218.885L230.27 203.04V193.33H232.639C235.467 193.33 237.801 191.035 237.801 188.175V170.663C237.765 167.838 235.467 165.508 232.639 165.508Z" fill="white"/>
<path d="M230.729 204.028L218.709 193.789H189.293C186.182 193.789 183.671 191.282 183.671 188.175V170.663C183.671 167.556 186.182 165.049 189.293 165.049H232.639C235.75 165.049 238.26 167.556 238.26 170.663V188.175C238.26 191.282 235.75 193.789 232.639 193.789H230.729V204.028ZM189.293 165.967C186.712 165.967 184.591 168.05 184.591 170.663V188.175C184.591 190.753 186.677 192.871 189.293 192.871H219.062L229.81 202.051V192.871H232.639C235.22 192.871 237.341 190.788 237.341 188.175V170.663C237.341 168.085 235.255 165.967 232.639 165.967H189.293Z" fill="#16A086"/>
<path d="M225.391 172.569H190.707V173.452H225.391V172.569Z" fill="#1BBC9B"/>
<path d="M230.057 178.536H190.707V179.419H230.057V178.536Z" fill="#1BBC9B"/>
<path d="M218.32 184.504H190.707V185.386H218.32V184.504Z" fill="#1BBC9B"/>
<path d="M221.077 465.447H208.703V615.506H221.077V465.447Z" fill="#B3DDD4"/>
<path d="M347.013 465.447H334.639V615.506H347.013V465.447Z" fill="#B3DDD4"/>
<path opacity="0.3" d="M221.077 465.059H208.703V491.504H221.077V465.059Z" fill="#0E6656"/>
<path opacity="0.3" d="M347.013 465.059H334.639V491.504H347.013V465.059Z" fill="#0E6656"/>
<path d="M416.84 460.328H138.911V472.756H416.84V460.328Z" fill="#B3DDD4"/>
<path d="M384.137 456.091H351.963V460.363H384.137V456.091Z" fill="#0E6656"/>
<path d="M356.701 460.363H351.928L332.942 410.367C332.376 408.92 333.472 407.366 335.028 407.366C335.947 407.366 336.796 407.931 337.114 408.814L356.701 460.363Z" fill="#0E6656"/>
<path d="M178.927 460.353H211.101V456.081H178.927V460.353Z" fill="#0E6656"/>
<path d="M206.334 460.363H211.107L230.093 410.367C230.659 408.92 229.562 407.366 228.007 407.366C227.088 407.366 226.239 407.931 225.921 408.814L206.334 460.363Z" fill="#0E6656"/>
<path d="M115.648 402.811L133.22 405.636L133.397 396.032L133.609 386.464L133.75 378.272L128.871 375.977L120.527 385.757L115.648 402.811Z" fill="#D28572"/>
<path d="M126.219 386.358C126.219 386.358 128.341 390.807 133.396 396.032L133.573 386.464L126.219 386.358Z" fill="#925D4F"/>
<path d="M145.771 374.53C145.983 374.636 151.322 382.827 148.917 383.569C146.513 384.31 143.473 384.028 143.473 384.028L145.771 374.53Z" fill="#925D4F"/>
<path d="M147.503 367.574L145.276 387.947C145.099 389.677 143.968 391.16 142.341 391.795C141.21 392.219 139.937 392.219 138.841 391.725L126.219 386.358L124.522 374.883L134.74 364.185L147.503 367.574Z" fill="#D28572"/>
<path d="M117.168 391.619L111.123 405.036L134.563 408.708L136.19 398.257L117.168 391.619Z" fill="#B3DDD4"/>
<path d="M132.548 374.848C132.548 374.848 142.907 373.118 147.503 367.574C147.503 367.574 149.2 356.841 133.432 355.428C116.284 353.875 100.233 378.096 100.233 378.096L121.163 396.35L132.548 374.848Z" fill="#0E6656"/>
<path d="M134.008 379.906C135.762 379.006 136.228 376.42 135.049 374.131C133.871 371.842 131.493 370.716 129.74 371.617C127.986 372.518 127.52 375.103 128.698 377.393C129.877 379.682 132.254 380.807 134.008 379.906Z" fill="#D28572"/>
<path d="M132.619 377.425C132.548 376.93 132.194 375.553 131.452 375.024C131.169 374.812 130.851 374.777 130.462 374.847L130.285 374C130.922 373.859 131.487 373.965 131.982 374.318C133.22 375.165 133.538 377.213 133.538 377.319L132.619 377.425Z" fill="#0E6656"/>
<path opacity="0.3" d="M140.043 383.392C141.937 383.392 143.473 381.859 143.473 379.967C143.473 378.076 141.937 376.542 140.043 376.542C138.149 376.542 136.614 378.076 136.614 379.967C136.614 381.859 138.149 383.392 140.043 383.392Z" fill="#BE443D"/>
<path d="M142.2 435.047C140.821 440.132 137.25 444.475 132.194 446.558C131.911 446.664 131.593 446.805 131.275 446.911C130.957 447.017 130.674 447.123 130.391 447.229C120.951 450.936 113.562 458.704 110.592 468.449C110.415 469.014 110.274 469.543 110.168 470.037C110.168 470.037 90.5103 472.897 70.6051 461.881C70.6051 461.881 81.5653 423.043 105.748 404.577C111.335 400.305 118.689 399.069 125.406 401.187C128.341 402.141 131.098 403.518 133.573 405.283C136.048 407.048 138.24 409.237 140.043 411.709L140.467 412.309L142.589 427.88C142.978 430.352 142.801 432.752 142.2 435.047Z" fill="#0E6656"/>
<path d="M142.2 435.047C140.821 440.132 137.25 444.474 132.194 446.558C131.912 446.664 131.593 446.805 131.275 446.911C130.957 447.017 130.674 447.123 130.391 447.228C127.351 439.743 124.805 427.809 124.805 427.809L139.548 429.751L142.2 435.047Z" fill="#0C584A"/>
<path d="M174.02 418.418C174.02 418.418 186.96 404.612 191.026 405.601C192.794 406.06 187.49 411.568 187.49 411.568C187.49 411.568 192.546 411.674 200.642 407.472C201.526 407.013 202.622 407.402 203.011 408.32C203.259 408.884 203.153 409.555 202.764 410.05C201.031 412.168 195.94 417.888 188.798 420.395L185.793 424.279L178.192 427.88L174.02 418.418Z" fill="#D28572"/>
<path d="M185.828 424.314L168.893 454.467C166.772 458.21 162.847 460.505 158.534 460.505C156.801 460.505 155.14 460.116 153.619 459.445C152.099 458.739 150.72 457.715 149.589 456.409L124.84 427.845L140.538 412.345L157.721 435.86L174.09 418.418L185.828 424.314Z" fill="#0E6656"/>
<path d="M162.494 444.58C152.559 429.116 139.372 410.791 132.3 404.753L132.866 404.082C141.033 411.038 155.776 432.54 163.236 444.121L162.494 444.58Z" fill="#16A086"/>
<path d="M158.994 461.317C157.19 461.317 155.317 460.822 153.407 459.798C147.998 456.868 125.441 429.292 124.487 428.092L125.158 427.527C125.406 427.809 148.528 456.162 153.796 458.986C159.771 462.199 163.837 459.269 165.746 457.256C168.752 454.008 185.263 424.349 185.404 424.067L186.182 424.491C185.51 425.726 169.459 454.537 166.383 457.856C164.297 460.151 161.716 461.317 158.994 461.317Z" fill="#16A086"/>
<path d="M131.169 580.692L115.931 610.703L119.254 611.163L124.77 603.324L142.094 615.541L152.241 615.505C152.241 615.505 154.291 613.458 149.023 607.985C142.836 601.559 139.265 593.12 139.442 584.293V583.516L135.27 579.28L131.169 580.692Z" fill="#0E6656"/>
<path d="M131.805 590.049L128.446 615.47H131.805L136.189 606.926L152.347 615.117H165.11C165.11 615.117 166.878 612.822 160.867 608.126C153.832 602.618 149.129 594.744 148.033 586.023L147.927 585.282L143.225 581.681L131.805 590.049Z" fill="#12806B"/>
<path d="M149.73 593.191L173.383 510.112C175.292 503.403 172.11 496.306 165.817 493.305L144.498 483.066L143.225 581.716L149.73 593.191Z" fill="#0E6656"/>
<path d="M70.605 461.881L65.832 484.549C63.0389 497.789 73.1506 510.218 86.6917 510.218H131.275C126.82 532.002 129.719 561.943 131.275 592.767L149.695 593.226L162.388 514.031C164.509 500.79 157.014 487.868 144.463 483.101L110.132 470.108L70.605 461.881Z" fill="#16A086"/>
<path opacity="0.4" d="M144.427 593.226L143.543 593.12C143.649 592.379 153.231 518.303 150.614 504.709C147.927 490.657 120.774 486.596 106.208 484.407C104.9 484.231 103.733 484.019 102.637 483.878C98.9955 483.313 96.3792 481.724 94.9296 479.182C92.0304 474.203 94.5407 467.389 94.6467 467.071L95.4599 467.389C95.4246 467.46 92.985 474.133 95.672 478.723C97.0156 481.018 99.3844 482.43 102.778 482.96C103.839 483.136 105.041 483.313 106.314 483.489C121.093 485.714 148.634 489.81 151.463 504.498C152.559 510.288 151.71 526.953 148.917 554.105C146.867 574.301 144.427 593.05 144.427 593.226Z" fill="white"/>
<path d="M80.7519 513.784L77.7113 531.403L63.1095 615.647H56.9577L71.5595 531.403L74.6001 513.784H80.7519Z" fill="#B3DDD4"/>
<path d="M121.411 615.647H115.259L100.692 531.403L97.6165 513.784H103.768L106.809 531.403L121.411 615.647Z" fill="#B3DDD4"/>
<path opacity="0.3" d="M80.7519 513.784L77.7114 531.403H71.5595L74.6001 513.784H80.7519Z" fill="#0E6656"/>
<path opacity="0.3" d="M106.809 531.403H100.692L97.6165 513.784H103.768L106.809 531.403Z" fill="#0E6656"/>
<path d="M116.284 518.586H58.8667V510.182H116.284C118.617 510.182 120.491 512.054 120.491 514.384C120.491 516.714 118.582 518.586 116.284 518.586Z" fill="#B3DDD4"/>
<path d="M66.9632 518.586H58.8668L31.5017 451.607C30.7239 449.736 31.5724 447.617 33.4109 446.734C35.3908 445.816 37.7242 446.734 38.5374 448.747L66.9632 518.586Z" fill="#B3DDD4"/>
<path d="M439.822 373.965C439.61 374.071 433.953 381.98 436.286 382.827C438.655 383.675 441.66 383.534 441.66 383.534L439.822 373.965Z" fill="#D28572"/>
<path d="M468.495 403.376L449.58 405.601L449.933 396.032L450.287 386.499L450.605 378.343L455.944 376.225L464.288 386.217L468.495 403.376Z" fill="#FFBC96"/>
<path d="M458.171 386.641C458.171 386.641 455.661 390.983 449.969 396.033L450.323 386.499L458.171 386.641Z" fill="#D28572"/>
<path d="M438.372 366.939L439.68 387.276C439.786 389.006 440.847 390.524 442.438 391.23C443.534 391.725 444.807 391.76 445.938 391.336L458.701 386.57L460.893 375.236L451.206 364.185L438.372 366.939Z" fill="#FFBC96"/>
<path d="M453.151 375.201C453.151 375.201 450.004 369.128 446.751 368.175C446.751 368.175 434.165 372.27 431.407 362.631C431.407 362.631 438.478 362.702 444.559 358.465C450.64 354.228 456.969 356.241 461.353 360.23C461.353 360.23 475.672 360.936 464.394 386.182C464.394 386.182 461.565 387.135 454.317 377.037L453.151 375.201Z" fill="#0E6656"/>
<path d="M456.686 377.284C455.413 379.508 453.009 380.532 451.312 379.543C449.615 378.59 449.262 375.977 450.534 373.788C451.807 371.599 454.211 370.54 455.908 371.529C457.606 372.482 457.959 375.059 456.686 377.284Z" fill="#FFBC96"/>
<path opacity="0.4" d="M445.761 382.439C447.675 382.439 449.226 380.858 449.226 378.908C449.226 376.958 447.675 375.378 445.761 375.378C443.848 375.378 442.297 376.958 442.297 378.908C442.297 380.858 443.848 382.439 445.761 382.439Z" fill="#FE5B52"/>
<path d="M452.585 377.108C452.409 375.978 452.727 373.612 455.166 372.906L455.414 373.753C453.116 374.424 453.434 376.86 453.469 376.966L452.585 377.108Z" fill="#0E6656"/>
<path d="M449.58 405.601L449.792 395.75L466.444 391.478L471.323 403.694L449.58 405.601Z" fill="#B3DDD4"/>
<path d="M452.16 401.646C443.816 409.767 437.735 421.948 430.063 434.306C430.063 434.306 404.112 441.015 396.652 448.429L410.017 455.208L455.696 442.568L452.16 401.646Z" fill="#0E6656"/>
<path d="M384.632 585.918L374.202 615.435L341.604 607.314C341.604 607.314 346.66 600.394 361.969 602.371L370.101 579.562L384.632 585.918Z" fill="#0E6656"/>
<path d="M449.792 469.155L402.734 484.443C391.668 488.045 383.253 497.013 380.389 508.276L361.439 586.589L387.071 593.227C397.112 569.429 406.87 541.042 413.588 513.502L449.792 469.155Z" fill="#12806B"/>
<path d="M432.715 588.177L436.533 615.541H400.895C400.895 615.541 404.148 607.597 419.457 605.831L418.573 589.343L432.715 588.177Z" fill="#0E6656"/>
<path d="M492.465 461.352L497.238 484.02C500.031 497.26 490.097 510.43 476.555 510.43H433.669C436.073 532.427 438.407 561.414 436.851 592.238L413.375 592.697L400.683 513.502C398.561 500.261 406.057 487.338 418.608 482.572L449.827 469.19L492.465 461.352Z" fill="#16A086"/>
<path d="M493.986 468.731C490.133 431.905 484.617 397.162 456.828 398.751C455.166 398.857 453.646 399.599 452.479 400.764C447.706 405.53 445.267 412.168 445.797 418.877L449.828 469.19C449.792 469.155 471.465 473.145 493.986 468.731Z" fill="#0E6656"/>
<path d="M396.652 448.076C396.652 448.076 380.283 451.183 377.631 460.434H400.824L405.244 457.327L396.652 448.076Z" fill="#FFBC96"/>
<path d="M456.969 406.836L435.755 439.708L396.652 448.111L400.86 460.469L433.669 460.292C442.473 460.116 450.004 455.526 454.918 448.217L473.161 422.054L456.969 406.836Z" fill="#0E6656"/>
<path d="M396.759 448.535L396.582 447.688L435.437 439.355C436.463 436.425 437.488 433.424 438.513 430.493C442.579 418.488 446.468 407.155 451.241 400.976L451.949 401.505C447.246 407.578 443.428 418.841 439.362 430.775C438.337 433.777 437.276 436.884 436.215 439.885L436.145 440.132L435.897 440.167L396.759 448.535Z" fill="#16A086"/>
<path d="M420.093 461.069C411.007 461.069 401.567 460.893 400.86 460.893V460.01C401.178 460.01 432.786 460.54 436.675 459.692L436.781 459.657C446.15 457.574 453.929 451.007 457.605 442.109L461.99 431.481L462.803 431.835L458.419 442.462C454.636 451.642 446.645 458.386 436.958 460.54L436.852 460.575C435.049 460.963 427.695 461.069 420.093 461.069Z" fill="#16A086"/>
<path d="M501.906 615.612H508.058L490.415 513.784H484.264L501.906 615.612Z" fill="#B3DDD4"/>
<path d="M449.757 615.612H443.605L461.247 513.784H467.399L449.757 615.612Z" fill="#B3DDD4"/>
<path opacity="0.3" d="M467.399 513.784L464.323 531.403H458.206L461.247 513.784H467.399Z" fill="#0E6656"/>
<path opacity="0.3" d="M493.456 531.403H487.304L484.264 513.784H490.415L493.456 531.403Z" fill="#0E6656"/>
<path d="M448.732 518.586H506.149V510.182H448.732C446.398 510.182 444.524 512.054 444.524 514.384C444.56 516.714 446.434 518.586 448.732 518.586Z" fill="#B3DDD4"/>
<path d="M498.052 518.586H506.149L533.514 451.607C534.292 449.736 533.443 447.617 531.605 446.734C529.625 445.816 527.291 446.734 526.478 448.747L498.052 518.586Z" fill="#B3DDD4"/>
</g>
<path d="M189.811 24.72C189.811 26.2133 189.451 27.6133 188.731 28.92C188.038 30.2267 186.931 31.28 185.411 32.08C183.918 32.88 182.024 33.28 179.731 33.28H175.051V44H169.451V16.08H179.731C181.891 16.08 183.731 16.4533 185.251 17.2C186.771 17.9467 187.904 18.9733 188.651 20.28C189.424 21.5867 189.811 23.0667 189.811 24.72ZM179.491 28.76C181.038 28.76 182.184 28.4133 182.931 27.72C183.678 27 184.051 26 184.051 24.72C184.051 22 182.531 20.64 179.491 20.64H175.051V28.76H179.491ZM196.627 19.2C195.64 19.2 194.814 18.8933 194.147 18.28C193.507 17.64 193.187 16.8533 193.187 15.92C193.187 14.9867 193.507 14.2133 194.147 13.6C194.814 12.96 195.64 12.64 196.627 12.64C197.614 12.64 198.427 12.96 199.067 13.6C199.734 14.2133 200.067 14.9867 200.067 15.92C200.067 16.8533 199.734 17.64 199.067 18.28C198.427 18.8933 197.614 19.2 196.627 19.2ZM199.387 21.84V44H193.787V21.84H199.387ZM203.48 32.92C203.48 30.6267 203.946 28.6267 204.88 26.92C205.813 25.1867 207.106 23.8533 208.76 22.92C210.413 21.96 212.306 21.48 214.44 21.48C217.186 21.48 219.453 22.1733 221.24 23.56C223.053 24.92 224.266 26.84 224.88 29.32H218.84C218.52 28.36 217.973 27.6133 217.2 27.08C216.453 26.52 215.52 26.24 214.4 26.24C212.8 26.24 211.533 26.8267 210.6 28C209.666 29.1467 209.2 30.7867 209.2 32.92C209.2 35.0267 209.666 36.6667 210.6 37.84C211.533 38.9867 212.8 39.56 214.4 39.56C216.666 39.56 218.146 38.5467 218.84 36.52H224.88C224.266 38.92 223.053 40.8267 221.24 42.24C219.426 43.6533 217.16 44.36 214.44 44.36C212.306 44.36 210.413 43.8933 208.76 42.96C207.106 42 205.813 40.6667 204.88 38.96C203.946 37.2267 203.48 35.2133 203.48 32.92ZM242.102 44L234.582 34.56V44H228.982V14.4H234.582V31.24L242.022 21.84H249.302L239.542 32.96L249.382 44H242.102ZM260.433 32.84C260.433 30.6 260.873 28.6133 261.753 26.88C262.659 25.1467 263.873 23.8133 265.393 22.88C266.939 21.9467 268.659 21.48 270.553 21.48C272.206 21.48 273.646 21.8133 274.873 22.48C276.126 23.1467 277.126 23.9867 277.873 25V21.84H283.513V44H277.873V40.76C277.153 41.8 276.153 42.6667 274.873 43.36C273.619 44.0267 272.166 44.36 270.513 44.36C268.646 44.36 266.939 43.88 265.393 42.92C263.873 41.96 262.659 40.6133 261.753 38.88C260.873 37.12 260.433 35.1067 260.433 32.84ZM277.873 32.92C277.873 31.56 277.606 30.4 277.073 29.44C276.539 28.4533 275.819 27.7067 274.913 27.2C274.006 26.6667 273.033 26.4 271.993 26.4C270.953 26.4 269.993 26.6533 269.113 27.16C268.233 27.6667 267.513 28.4133 266.953 29.4C266.419 30.36 266.153 31.5067 266.153 32.84C266.153 34.1733 266.419 35.3467 266.953 36.36C267.513 37.3467 268.233 38.1067 269.113 38.64C270.019 39.1733 270.979 39.44 271.993 39.44C273.033 39.44 274.006 39.1867 274.913 38.68C275.819 38.1467 276.539 37.4 277.073 36.44C277.606 35.4533 277.873 34.28 277.873 32.92ZM297.073 32.88C297.073 30.6667 297.527 28.7067 298.433 27C299.367 25.2667 300.62 23.92 302.193 22.96C303.767 22 305.5 21.52 307.393 21.52C308.967 21.52 310.353 21.8267 311.553 22.44C312.78 23.0267 313.767 23.7867 314.513 24.72V21.84H320.153V54.56H314.513V40.96C313.767 41.92 312.767 42.72 311.513 43.36C310.26 44 308.847 44.32 307.273 44.32C305.407 44.32 303.687 43.84 302.113 42.88C300.567 41.8933 299.34 40.5333 298.433 38.8C297.527 37.0667 297.073 35.0933 297.073 32.88ZM314.513 32.92C314.513 31.56 314.233 30.3867 313.673 29.4C313.113 28.4133 312.38 27.6667 311.473 27.16C310.593 26.6533 309.647 26.4 308.633 26.4C307.647 26.4 306.7 26.6533 305.793 27.16C304.913 27.6667 304.193 28.4133 303.633 29.4C303.073 30.36 302.793 31.52 302.793 32.88C302.793 34.24 303.073 35.4267 303.633 36.44C304.193 37.4267 304.913 38.1733 305.793 38.68C306.7 39.1867 307.647 39.44 308.633 39.44C309.647 39.44 310.593 39.1867 311.473 38.68C312.38 38.1733 313.113 37.4267 313.673 36.44C314.233 35.4533 314.513 34.28 314.513 32.92ZM346.543 21.84V44H340.903V41.2C340.183 42.16 339.236 42.92 338.063 43.48C336.916 44.0133 335.663 44.28 334.303 44.28C332.569 44.28 331.036 43.92 329.703 43.2C328.369 42.4533 327.316 41.3733 326.543 39.96C325.796 38.52 325.423 36.8133 325.423 34.84V21.84H331.023V34.04C331.023 35.8 331.463 37.16 332.343 38.12C333.223 39.0533 334.423 39.52 335.943 39.52C337.489 39.52 338.703 39.0533 339.583 38.12C340.463 37.16 340.903 35.8 340.903 34.04V21.84H346.543ZM354.908 19.2C353.921 19.2 353.095 18.8933 352.428 18.28C351.788 17.64 351.468 16.8533 351.468 15.92C351.468 14.9867 351.788 14.2133 352.428 13.6C353.095 12.96 353.921 12.64 354.908 12.64C355.895 12.64 356.708 12.96 357.348 13.6C358.015 14.2133 358.348 14.9867 358.348 15.92C358.348 16.8533 358.015 17.64 357.348 18.28C356.708 18.8933 355.895 19.2 354.908 19.2ZM357.668 21.84V44H352.068V21.84H357.668ZM368.321 39.4H378.201V44H361.961V39.48L371.641 26.44H362.001V21.84H378.081V26.36L368.321 39.4ZM148.71 104L145.07 100.32C143.71 101.733 142.257 102.787 140.71 103.48C139.163 104.147 137.417 104.48 135.47 104.48C133.55 104.48 131.843 104.133 130.35 103.44C128.883 102.747 127.737 101.76 126.91 100.48C126.11 99.2 125.71 97.7067 125.71 96C125.71 94.0533 126.257 92.3467 127.35 90.88C128.47 89.3867 130.11 88.2133 132.27 87.36C131.417 86.3467 130.803 85.4133 130.43 84.56C130.057 83.7067 129.87 82.7733 129.87 81.76C129.87 80.5867 130.163 79.5333 130.75 78.6C131.363 77.64 132.23 76.8933 133.35 76.36C134.47 75.8267 135.763 75.56 137.23 75.56C138.67 75.56 139.923 75.84 140.99 76.4C142.057 76.96 142.857 77.7467 143.39 78.76C143.923 79.7467 144.163 80.8533 144.11 82.08H140.47C140.497 80.9867 140.19 80.1333 139.55 79.52C138.91 78.88 138.083 78.56 137.07 78.56C136.003 78.56 135.137 78.8667 134.47 79.48C133.83 80.0667 133.51 80.8267 133.51 81.76C133.51 82.56 133.723 83.3333 134.15 84.08C134.603 84.8267 135.35 85.7467 136.39 86.84L144.71 95.2L145.43 94.08L148.15 89.52H152.07L148.79 95.2C148.337 96 147.803 96.84 147.19 97.72L153.47 104H148.71ZM135.47 101.36C136.91 101.36 138.203 101.08 139.35 100.52C140.523 99.96 141.63 99.0933 142.67 97.92L134.47 89.68C131.057 90.9867 129.35 93.0533 129.35 95.88C129.35 97.4533 129.91 98.76 131.03 99.8C132.177 100.84 133.657 101.36 135.47 101.36ZM175.304 104.36C173.624 104.36 172.118 104.08 170.784 103.52C169.451 102.933 168.398 102.133 167.624 101.12C166.851 100.08 166.424 98.8933 166.344 97.56H170.104C170.211 98.6533 170.718 99.5467 171.624 100.24C172.558 100.933 173.771 101.28 175.264 101.28C176.651 101.28 177.744 100.973 178.544 100.36C179.344 99.7467 179.744 98.9733 179.744 98.04C179.744 97.08 179.318 96.3733 178.464 95.92C177.611 95.44 176.291 94.9733 174.504 94.52C172.878 94.0933 171.544 93.6667 170.504 93.24C169.491 92.7867 168.611 92.1333 167.864 91.28C167.144 90.4 166.784 89.2533 166.784 87.84C166.784 86.72 167.118 85.6933 167.784 84.76C168.451 83.8267 169.398 83.0933 170.624 82.56C171.851 82 173.251 81.72 174.824 81.72C177.251 81.72 179.211 82.3333 180.704 83.56C182.198 84.7867 182.998 86.4667 183.104 88.6H179.464C179.384 87.4533 178.918 86.5333 178.064 85.84C177.238 85.1467 176.118 84.8 174.704 84.8C173.398 84.8 172.358 85.08 171.584 85.64C170.811 86.2 170.424 86.9333 170.424 87.84C170.424 88.56 170.651 89.16 171.104 89.64C171.584 90.0933 172.171 90.4667 172.864 90.76C173.584 91.0267 174.571 91.3333 175.824 91.68C177.398 92.1067 178.678 92.5333 179.664 92.96C180.651 93.36 181.491 93.9733 182.184 94.8C182.904 95.6267 183.278 96.7067 183.304 98.04C183.304 99.24 182.971 100.32 182.304 101.28C181.638 102.24 180.691 103 179.464 103.56C178.264 104.093 176.878 104.36 175.304 104.36ZM192.883 85.08V98C192.883 99.0667 193.109 99.8267 193.563 100.28C194.016 100.707 194.803 100.92 195.923 100.92H198.603V104H195.323C193.296 104 191.776 103.533 190.763 102.6C189.749 101.667 189.243 100.133 189.243 98V85.08H186.403V82.08H189.243V76.56H192.883V82.08H198.603V85.08H192.883ZM201.653 92.96C201.653 90.72 202.106 88.76 203.013 87.08C203.92 85.3733 205.16 84.0533 206.733 83.12C208.333 82.1867 210.106 81.72 212.053 81.72C213.973 81.72 215.64 82.1333 217.053 82.96C218.466 83.7867 219.52 84.8267 220.213 86.08V82.08H223.893V104H220.213V99.92C219.493 101.2 218.413 102.267 216.973 103.12C215.56 103.947 213.906 104.36 212.013 104.36C210.066 104.36 208.306 103.88 206.733 102.92C205.16 101.96 203.92 100.613 203.013 98.88C202.106 97.1467 201.653 95.1733 201.653 92.96ZM220.213 93C220.213 91.3467 219.88 89.9067 219.213 88.68C218.546 87.4533 217.64 86.52 216.493 85.88C215.373 85.2133 214.133 84.88 212.773 84.88C211.413 84.88 210.173 85.2 209.053 85.84C207.933 86.48 207.04 87.4133 206.373 88.64C205.706 89.8667 205.373 91.3067 205.373 92.96C205.373 94.64 205.706 96.1067 206.373 97.36C207.04 98.5867 207.933 99.5333 209.053 100.2C210.173 100.84 211.413 101.16 212.773 101.16C214.133 101.16 215.373 100.84 216.493 100.2C217.64 99.5333 218.546 98.5867 219.213 97.36C219.88 96.1067 220.213 94.6533 220.213 93ZM233.684 85.64C234.324 84.3867 235.231 83.4133 236.404 82.72C237.604 82.0267 239.058 81.68 240.764 81.68V85.44H239.804C235.724 85.44 233.684 87.6533 233.684 92.08V104H230.044V82.08H233.684V85.64ZM249.406 85.08V98C249.406 99.0667 249.633 99.8267 250.086 100.28C250.54 100.707 251.326 100.92 252.446 100.92H255.126V104H251.846C249.82 104 248.3 103.533 247.286 102.6C246.273 101.667 245.766 100.133 245.766 98V85.08H242.926V82.08H245.766V76.56H249.406V82.08H255.126V85.08H249.406ZM273.841 74.4V104H270.201V74.4H273.841ZM300.044 92.2C300.044 92.8933 300.004 93.6267 299.924 94.4H282.404C282.538 96.56 283.271 98.2533 284.604 99.48C285.964 100.68 287.604 101.28 289.524 101.28C291.098 101.28 292.404 100.92 293.444 100.2C294.511 99.4533 295.258 98.4667 295.684 97.24H299.604C299.018 99.3467 297.844 101.067 296.084 102.4C294.324 103.707 292.138 104.36 289.524 104.36C287.444 104.36 285.578 103.893 283.924 102.96C282.298 102.027 281.018 100.707 280.084 99C279.151 97.2667 278.684 95.2667 278.684 93C278.684 90.7333 279.138 88.7467 280.044 87.04C280.951 85.3333 282.218 84.0267 283.844 83.12C285.498 82.1867 287.391 81.72 289.524 81.72C291.604 81.72 293.444 82.1733 295.044 83.08C296.644 83.9867 297.871 85.24 298.724 86.84C299.604 88.4133 300.044 90.2 300.044 92.2ZM296.284 91.44C296.284 90.0533 295.978 88.8667 295.364 87.88C294.751 86.8667 293.911 86.1067 292.844 85.6C291.804 85.0667 290.644 84.8 289.364 84.8C287.524 84.8 285.951 85.3867 284.644 86.56C283.364 87.7333 282.631 89.36 282.444 91.44H296.284ZM303.489 92.96C303.489 90.72 303.942 88.76 304.849 87.08C305.756 85.3733 306.996 84.0533 308.569 83.12C310.169 82.1867 311.942 81.72 313.889 81.72C315.809 81.72 317.476 82.1333 318.889 82.96C320.302 83.7867 321.356 84.8267 322.049 86.08V82.08H325.729V104H322.049V99.92C321.329 101.2 320.249 102.267 318.809 103.12C317.396 103.947 315.742 104.36 313.849 104.36C311.902 104.36 310.142 103.88 308.569 102.92C306.996 101.96 305.756 100.613 304.849 98.88C303.942 97.1467 303.489 95.1733 303.489 92.96ZM322.049 93C322.049 91.3467 321.716 89.9067 321.049 88.68C320.382 87.4533 319.476 86.52 318.329 85.88C317.209 85.2133 315.969 84.88 314.609 84.88C313.249 84.88 312.009 85.2 310.889 85.84C309.769 86.48 308.876 87.4133 308.209 88.64C307.542 89.8667 307.209 91.3067 307.209 92.96C307.209 94.64 307.542 96.1067 308.209 97.36C308.876 98.5867 309.769 99.5333 310.889 100.2C312.009 100.84 313.249 101.16 314.609 101.16C315.969 101.16 317.209 100.84 318.329 100.2C319.476 99.5333 320.382 98.5867 321.049 97.36C321.716 96.1067 322.049 94.6533 322.049 93ZM335.52 85.64C336.16 84.3867 337.067 83.4133 338.24 82.72C339.44 82.0267 340.894 81.68 342.6 81.68V85.44H341.64C337.56 85.44 335.52 87.6533 335.52 92.08V104H331.88V82.08H335.52V85.64ZM357.482 81.68C360.149 81.68 362.309 82.4933 363.962 84.12C365.616 85.72 366.442 88.04 366.442 91.08V104H362.842V91.6C362.842 89.4133 362.296 87.7467 361.202 86.6C360.109 85.4267 358.616 84.84 356.722 84.84C354.802 84.84 353.269 85.44 352.122 86.64C351.002 87.84 350.442 89.5867 350.442 91.88V104H346.802V82.08H350.442V85.2C351.162 84.08 352.136 83.2133 353.362 82.6C354.616 81.9867 355.989 81.68 357.482 81.68ZM374.268 78.52C373.575 78.52 372.988 78.28 372.508 77.8C372.028 77.32 371.788 76.7333 371.788 76.04C371.788 75.3467 372.028 74.76 372.508 74.28C372.988 73.8 373.575 73.56 374.268 73.56C374.935 73.56 375.495 73.8 375.948 74.28C376.428 74.76 376.668 75.3467 376.668 76.04C376.668 76.7333 376.428 77.32 375.948 77.8C375.495 78.28 374.935 78.52 374.268 78.52ZM376.028 82.08V104H372.388V82.08H376.028ZM392.912 81.68C395.579 81.68 397.739 82.4933 399.392 84.12C401.045 85.72 401.872 88.04 401.872 91.08V104H398.272V91.6C398.272 89.4133 397.725 87.7467 396.632 86.6C395.539 85.4267 394.045 84.84 392.152 84.84C390.232 84.84 388.699 85.44 387.552 86.64C386.432 87.84 385.872 89.5867 385.872 91.88V104H382.232V82.08H385.872V85.2C386.592 84.08 387.565 83.2133 388.792 82.6C390.045 81.9867 391.419 81.68 392.912 81.68ZM416.858 81.72C418.751 81.72 420.404 82.1333 421.818 82.96C423.258 83.7867 424.324 84.8267 425.018 86.08V82.08H428.698V104.48C428.698 106.48 428.271 108.253 427.418 109.8C426.564 111.373 425.338 112.6 423.738 113.48C422.164 114.36 420.324 114.8 418.218 114.8C415.338 114.8 412.938 114.12 411.018 112.76C409.098 111.4 407.964 109.547 407.618 107.2H411.218C411.618 108.533 412.444 109.6 413.698 110.4C414.951 111.227 416.458 111.64 418.218 111.64C420.218 111.64 421.844 111.013 423.098 109.76C424.378 108.507 425.018 106.747 425.018 104.48V99.88C424.298 101.16 423.231 102.227 421.818 103.08C420.404 103.933 418.751 104.36 416.858 104.36C414.911 104.36 413.138 103.88 411.538 102.92C409.964 101.96 408.724 100.613 407.818 98.88C406.911 97.1467 406.458 95.1733 406.458 92.96C406.458 90.72 406.911 88.76 407.818 87.08C408.724 85.3733 409.964 84.0533 411.538 83.12C413.138 82.1867 414.911 81.72 416.858 81.72ZM425.018 93C425.018 91.3467 424.684 89.9067 424.018 88.68C423.351 87.4533 422.444 86.52 421.298 85.88C420.178 85.2133 418.938 84.88 417.578 84.88C416.218 84.88 414.978 85.2 413.858 85.84C412.738 86.48 411.844 87.4133 411.178 88.64C410.511 89.8667 410.178 91.3067 410.178 92.96C410.178 94.64 410.511 96.1067 411.178 97.36C411.844 98.5867 412.738 99.5333 413.858 100.2C414.978 100.84 416.218 101.16 417.578 101.16C418.938 101.16 420.178 100.84 421.298 100.2C422.444 99.5333 423.351 98.5867 424.018 97.36C424.684 96.1067 425.018 94.6533 425.018 93Z" fill="url(#paint0_linear_301:369)"/>
<defs>
<linearGradient id="paint0_linear_301:369" x1="124" y1="120" x2="442.471" y2="76.2878" gradientUnits="userSpaceOnUse">
<stop stop-color="#1BBC9B"/>
<stop offset="0.0001" stop-color="#1BBC9B"/>
<stop offset="1" stop-color="#16A086"/>
</linearGradient>
<clipPath id="clip0_301:369">
<rect width="563" height="456" fill="white" transform="translate(0 160)"/>
</clipPath>
</defs>
</svg>
