<svg width="100" height="100" viewBox="0 0 100 100" fill="none" xmlns="http://www.w3.org/2000/svg">
<circle cx="50" cy="50" r="50" fill="url(#paint0_linear)"/>
<path d="M77.2422 69.0927C77.2422 69.9122 76.5194 70.5786 75.6274 70.5786H54.6179V60.4348C54.6179 59.9773 54.2155 59.6063 53.7198 59.6063H46.9074C46.4117 59.6063 46.0093 59.9773 46.0093 60.4348V70.5786H24.2897C23.4019 70.5786 22.6796 69.9122 22.6796 69.0927V54.2709C22.6796 53.4518 23.4019 52.7854 24.2897 52.7854H40.3714C40.6205 52.7854 40.8594 52.6895 41.0286 52.5217C41.1988 52.3544 41.286 52.1285 41.268 51.8988C41.2629 51.8322 41.2588 51.7655 41.2588 51.6965V46.1844C41.2588 45.1002 41.9965 44.1842 42.87 44.1842H58.5831C59.4561 44.1842 60.1932 45.1002 60.1932 46.1844V51.6965C60.1932 51.7646 60.1901 51.8312 60.1845 51.8974C60.1666 52.1271 60.2527 52.3525 60.4229 52.5208C60.5926 52.6895 60.831 52.7854 61.0806 52.7854H75.6274C76.5194 52.7854 77.2422 53.4518 77.2422 54.2709V69.0927ZM52.8211 70.4552H47.8056V61.2633H52.8211V70.4552ZM50.7265 30.3687L59.4581 42.5272H41.9944L50.7265 30.3687ZM51.5032 21.6952L55.2515 23.1187L51.5032 24.5417V21.6952ZM75.6274 51.1284H61.99V46.1844C61.99 45.4296 61.7752 44.7263 61.4082 44.1427C61.625 44.0779 61.8106 43.938 61.9213 43.7471C62.0782 43.4791 62.0618 43.1525 61.8788 42.8978L51.5995 28.5831V26.2966L57.952 23.8848C58.2883 23.7563 58.5083 23.4552 58.5083 23.1187C58.5083 22.7836 58.2883 22.4811 57.952 22.3535L50.947 19.6922C50.6696 19.5868 50.3539 19.6157 50.1052 19.7707C49.8561 19.9238 49.7064 20.1819 49.7064 20.4579V25.7795C49.7064 25.909 49.7423 26.0338 49.8028 26.1463V28.6545L39.5733 42.8978C39.3908 43.1525 39.3744 43.4791 39.5312 43.7471C39.642 43.938 39.8275 44.0779 40.0439 44.1427C39.6768 44.7263 39.462 45.4296 39.462 46.1844V51.1284H24.2897C22.411 51.1284 20.8828 52.5387 20.8828 54.2709V69.0927C20.8828 70.8253 22.411 72.2351 24.2897 72.2351H75.6274C77.5088 72.2351 79.0364 70.8253 79.0364 69.0927V54.2709C79.0364 52.5387 77.5088 51.1284 75.6274 51.1284Z" fill="white"/>
<path d="M48.7035 51.7939H45.111V48.4828H48.7035V51.7939ZM49.1526 47.6543H44.6619C44.4138 47.6543 44.2129 47.839 44.2129 48.0683V52.2075C44.2129 52.4362 44.4138 52.6219 44.6619 52.6219H49.1526C49.4007 52.6219 49.6017 52.4362 49.6017 52.2075V48.0683C49.6017 47.839 49.4007 47.6543 49.1526 47.6543Z" fill="white"/>
<path d="M55.9022 51.7939H52.3102V48.4828H55.9022V51.7939ZM56.3513 47.6543H51.8612C51.613 47.6543 51.4121 47.839 51.4121 48.0683V52.2075C51.4121 52.4362 51.613 52.6219 51.8612 52.6219H56.3513C56.5994 52.6219 56.8003 52.4362 56.8003 52.2075V48.0683C56.8003 47.839 56.5994 47.6543 56.3513 47.6543Z" fill="white"/>
<path d="M31.8598 63.4909H28.2673V60.1798H31.8598V63.4909ZM32.3088 59.3513H27.8182C27.5706 59.3513 27.3691 59.5361 27.3691 59.7653V63.9045C27.3691 64.1332 27.5706 64.319 27.8182 64.319H32.3088C32.5564 64.319 32.7579 64.1332 32.7579 63.9045V59.7653C32.7579 59.5361 32.5564 59.3513 32.3088 59.3513Z" fill="white"/>
<path d="M39.0599 63.4909H35.4685V60.1798H39.0599V63.4909ZM39.509 59.3513H35.0194C34.7713 59.3513 34.5703 59.5361 34.5703 59.7653V63.9045C34.5703 64.1332 34.7713 64.319 35.0194 64.319H39.509C39.7576 64.319 39.9586 64.1332 39.9586 63.9045V59.7653C39.9586 59.5361 39.7576 59.3513 39.509 59.3513Z" fill="white"/>
<path d="M65.2563 63.4909H61.6623V60.1798H65.2563V63.4909ZM65.7023 59.3513H61.2132C60.9651 59.3513 60.7637 59.5361 60.7637 59.7653V63.9045C60.7637 64.1332 60.9651 64.319 61.2132 64.319H65.7023C65.9535 64.319 66.1534 64.1332 66.1534 63.9045V59.7653C66.1534 59.5361 65.9535 59.3513 65.7023 59.3513Z" fill="white"/>
<path d="M72.4535 63.4909H68.86V60.1798H72.4535V63.4909ZM72.9046 59.3513H68.414C68.1629 59.3513 67.9629 59.5361 67.9629 59.7653V63.9045C67.9629 64.1332 68.1629 64.319 68.414 64.319H72.9046C73.1507 64.319 73.3506 64.1332 73.3506 63.9045V59.7653C73.3506 59.5361 73.1507 59.3513 72.9046 59.3513Z" fill="white"/>
<defs>
<linearGradient id="paint0_linear" x1="3.72529e-07" y1="100" x2="105.047" y2="94.3825" gradientUnits="userSpaceOnUse">
<stop stop-color="#1BBC9B"/>
<stop offset="0.0001" stop-color="#1BBC9B"/>
<stop offset="1" stop-color="#16A086"/>
</linearGradient>
</defs>
</svg>
