<svg width="308" height="308" viewBox="0 0 308 308" fill="none" xmlns="http://www.w3.org/2000/svg">
<path d="M294.245 142.197C291.017 126.409 285.35 110.997 278.611 96.8291C266.993 72.3862 247.958 52.089 223.608 40.04C163.856 10.472 120.736 22.792 97.328 46.816C73.92 70.84 80.696 112.112 55.44 129.976C30.184 147.84 12.32 155.848 11.088 188.496C9.85601 221.144 25.872 245.784 51.744 253.792C77.616 261.8 116.424 287.672 194.04 272.888C271.656 258.104 290.752 216.832 295.68 187.264C298.144 172.388 297.294 157.123 294.245 142.197Z" fill="#92E3A9"/>
<path opacity="0.7" d="M294.245 142.197C291.017 126.409 285.35 110.997 278.611 96.8291C266.993 72.3862 247.958 52.089 223.608 40.04C163.856 10.472 120.736 22.792 97.328 46.816C73.92 70.84 80.696 112.112 55.44 129.976C30.184 147.84 12.32 155.848 11.088 188.496C9.85601 221.144 25.872 245.784 51.744 253.792C77.616 261.8 116.424 287.672 194.04 272.888C271.656 258.104 290.752 216.832 295.68 187.264C298.144 172.388 297.294 157.123 294.245 142.197Z" fill="white"/>
<path d="M112.309 52.0643H106.728V76.7967H112.309V52.0643Z" fill="#C9C9C9" stroke="#263238" stroke-linecap="round" stroke-linejoin="round"/>
<path d="M112.309 55.7849H106.728V58.1996H112.309V55.7849Z" fill="white" stroke="#263238" stroke-linecap="round" stroke-linejoin="round"/>
<path d="M112.309 71.1295H106.728V73.5442H112.309V71.1295Z" fill="white" stroke="#263238" stroke-linecap="round" stroke-linejoin="round"/>
<path d="M118.82 52.0643H111.009V76.7967H118.82V52.0643Z" fill="#878787" stroke="#263238" stroke-linecap="round" stroke-linejoin="round"/>
<path d="M118.266 52.0643H112.685V76.7967H118.266V52.0643Z" fill="#C9C9C9" stroke="#263238" stroke-linecap="round" stroke-linejoin="round"/>
<path d="M118.266 55.7849H112.685V58.1996H118.266V55.7849Z" fill="white" stroke="#263238" stroke-linecap="round" stroke-linejoin="round"/>
<path d="M118.266 71.1295H112.685V73.5442H118.266V71.1295Z" fill="white" stroke="#263238" stroke-linecap="round" stroke-linejoin="round"/>
<path d="M124.771 52.0643H116.96V76.7967H124.771V52.0643Z" fill="#878787" stroke="#263238" stroke-linecap="round" stroke-linejoin="round"/>
<path d="M124.216 52.0643H118.635V76.7967H124.216V52.0643Z" fill="#C9C9C9" stroke="#263238" stroke-linecap="round" stroke-linejoin="round"/>
<path d="M124.216 55.7849H118.635V58.1996H124.216V55.7849Z" fill="white" stroke="#263238" stroke-linecap="round" stroke-linejoin="round"/>
<path d="M124.216 71.1295H118.635V73.5442H124.216V71.1295Z" fill="white" stroke="#263238" stroke-linecap="round" stroke-linejoin="round"/>
<path d="M130.721 52.0643H122.91V76.7967H130.721V52.0643Z" fill="#C9C9C9" stroke="#263238" stroke-linecap="round" stroke-linejoin="round"/>
<path d="M135.81 77.0493H148.918L152.405 73.8954H135.81V77.0493Z" fill="white" stroke="#263238" stroke-linecap="round" stroke-linejoin="round"/>
<path d="M150.92 77.2094L150.501 76.4887L135.538 76.4579L135.97 77.2094H150.92Z" fill="white" stroke="#263238" stroke-linecap="round" stroke-linejoin="round"/>
<path d="M128.22 52.5792L123.389 55.373L135.77 76.7833L140.601 73.9894L128.22 52.5792Z" fill="#C9C9C9" stroke="#263238" stroke-linecap="round" stroke-linejoin="round"/>
<path d="M130.084 55.7915L125.253 58.5853L126.462 60.6757L131.293 57.8818L130.084 55.7915Z" fill="white" stroke="#263238" stroke-linecap="round" stroke-linejoin="round"/>
<path d="M137.771 69.0733L132.939 71.8672L134.148 73.9575L138.98 71.1637L137.771 69.0733Z" fill="white" stroke="#263238" stroke-linecap="round" stroke-linejoin="round"/>
<path d="M152.318 74.1109L140.473 74.0801L128.091 52.668L139.937 52.6988L152.318 74.1109Z" fill="#C9C9C9" stroke="#263238" stroke-linecap="round" stroke-linejoin="round"/>
<path d="M158.774 64.526C158.774 64.526 156.618 63.756 156.002 60.368C155.386 56.98 154.308 52.206 155.54 51.128C156.772 50.05 159.082 49.434 159.39 51.59C159.698 53.746 159.236 57.904 159.698 58.828C160.16 59.752 161.7 59.136 161.7 57.288C161.7 54.245 160.468 51.128 160.905 48.048C161.521 43.7914 165.833 43.3233 166.295 48.048C166.554 50.6598 166.628 53.3271 166.628 55.9513C166.628 57.0293 168.476 57.6453 168.322 55.0273C168.211 53.1793 169.554 51.0233 171.402 51.6393C173.25 52.2553 171.71 60.4173 171.094 61.8033C170.478 63.1893 166.628 63.448 166.628 63.448V66.99L162.008 67.144L161.854 63.602C160.913 64.1457 159.859 64.4622 158.774 64.526Z" fill="#92E3A9" stroke="#263238" stroke-linecap="round" stroke-linejoin="round"/>
<path d="M162.932 57.7747C162.987 58.5447 163.024 59.0067 163.024 59.0067" stroke="#263238" stroke-linecap="round" stroke-linejoin="round"/>
<path d="M163.24 45.8304C163.24 45.8304 162.23 46.5327 162.304 48.6394C162.353 49.9207 162.599 53.4688 162.79 56.0622" stroke="#263238" stroke-linecap="round" stroke-linejoin="round"/>
<path d="M164.977 53.093L165.137 58.2489" stroke="#263238" stroke-linecap="round" stroke-linejoin="round"/>
<path d="M167.232 61.6C166.875 61.6555 166.515 61.6864 166.154 61.6924" stroke="#263238" stroke-linecap="round" stroke-linejoin="round"/>
<path d="M170.447 52.939C170.091 53.6132 169.903 54.3634 169.899 55.1258C169.899 56.3578 169.979 59.8135 169.197 60.7498C169.006 60.9601 168.773 61.1279 168.513 61.2426" stroke="#263238" stroke-linecap="round" stroke-linejoin="round"/>
<path d="M157.08 59.869C157.265 60.7952 157.709 61.6497 158.361 62.333C158.747 62.6416 159.223 62.8158 159.716 62.8291C160.21 62.8425 160.695 62.6942 161.096 62.4069" stroke="#263238" stroke-linecap="round" stroke-linejoin="round"/>
<path d="M156.932 51.5345C156.932 51.5345 155.374 51.5345 155.916 54.2634C156.15 55.4153 156.365 56.8321 156.643 58.1689" stroke="#263238" stroke-linecap="round" stroke-linejoin="round"/>
<path d="M162.79 61.9203L163.104 65.2775" stroke="#263238" stroke-linecap="round" stroke-linejoin="round"/>
<path d="M170.786 65.604L170.225 70.1994L169.844 73.3286L169.4 76.9692H158.318L157.875 73.3286L157.493 70.1994L156.932 65.604H170.786Z" fill="white" stroke="#263238" stroke-linecap="round" stroke-linejoin="round"/>
<path d="M170.225 70.1993L169.844 73.3286H157.875L157.493 70.1993H170.225Z" fill="#92E3A9" stroke="#263238" stroke-linecap="round" stroke-linejoin="round"/>
<path d="M176.872 76.9692H105.743V81.6816H176.872V76.9692Z" fill="white" stroke="#263238" stroke-linecap="round" stroke-linejoin="round"/>
<path d="M176.872 76.9692H160.474V81.6816H176.872V76.9692Z" fill="white" stroke="#263238" stroke-linecap="round" stroke-linejoin="round"/>
<path d="M158.879 81.7001C166.499 84.509 165.125 89.8189 165.125 89.8189H172.338V81.7001H158.879Z" fill="#919191" stroke="#263238" stroke-linecap="round" stroke-linejoin="round"/>
<path d="M161.312 81.7001C168.926 84.509 167.552 89.8189 167.552 89.8189H174.771V81.7001H161.312Z" fill="white" stroke="#263238" stroke-linecap="round" stroke-linejoin="round"/>
<path d="M110.061 81.7001C117.681 84.509 116.307 89.8189 116.307 89.8189H123.52V81.7001H110.061Z" fill="#919191" stroke="#263238" stroke-linecap="round" stroke-linejoin="round"/>
<path d="M112.494 81.7001C120.108 84.509 118.734 89.8189 118.734 89.8189H125.954V81.7001H112.494Z" fill="white" stroke="#263238" stroke-linecap="round" stroke-linejoin="round"/>
<path d="M275.993 52.9452H212.2V141.501H275.993V52.9452Z" fill="#919191" stroke="#263238" stroke-linecap="round" stroke-linejoin="round"/>
<path d="M273.227 56.7891H214.972V137.658H273.227V56.7891Z" fill="#92E3A9"/>
<path opacity="0.5" d="M273.227 56.7891H214.972V137.658H273.227V56.7891Z" fill="white"/>
<path d="M227.778 131.516C226.216 133.899 224.243 135.984 221.951 137.676H273.227V56.7891H263.777L262.545 57.1771C253.305 60.0908 243.757 68.5239 238.343 83.8499" stroke="#263238" stroke-linecap="round" stroke-linejoin="round"/>
<path d="M237.443 86.5356C235.292 93.8447 234.104 101.403 233.908 109.02C233.569 118.161 231.622 124.734 229.023 129.459" stroke="#263238" stroke-linecap="round" stroke-linejoin="round"/>
<path d="M267.529 77.3141C259.059 82.2421 249.197 90.5211 245.513 103.217C243.536 109.993 245.39 116.104 249.055 121.333" stroke="#263238" stroke-linecap="round" stroke-linejoin="round"/>
<path d="M251.039 123.884C256.121 129.834 263.359 134.516 269.217 137.664H273.227V74.3265C272.081 74.8625 270.861 75.4661 269.592 76.1745" stroke="#263238" stroke-linecap="round" stroke-linejoin="round"/>
<path d="M224.655 77.8747C229.115 68.7826 229.583 61.5692 229.072 56.7891H214.984V93.786C217.066 90.8231 219.616 86.8622 222.696 81.5523C222.887 81.2258 223.066 80.9363 223.245 80.5913" stroke="#263238" stroke-linecap="round" stroke-linejoin="round"/>
<path d="M230.175 112.894C229.491 117.373 227.433 120.625 225.006 120.625C222.019 120.625 219.592 115.697 219.592 109.599C219.592 103.5 222.019 98.5723 225.006 98.5723C227.994 98.5723 230.421 103.5 230.421 109.599" stroke="#263238" stroke-linecap="round" stroke-linejoin="round"/>
<path d="M232.743 86.9669C232.743 89.3138 231.708 91.2234 230.421 91.2234C229.134 91.2234 228.105 89.3138 228.105 86.9669C228.105 84.6199 229.14 82.7103 230.421 82.7103C231.702 82.7103 232.743 84.6138 232.743 86.9669Z" stroke="#263238" stroke-linecap="round" stroke-linejoin="round"/>
<path d="M262.299 104.948C264.535 106.014 265.995 107.874 265.995 109.987C265.995 113.295 262.361 115.98 257.87 115.98C253.379 115.98 249.751 113.295 249.751 109.987C249.751 106.679 253.385 103.987 257.87 103.987C258.586 103.986 259.299 104.057 260.001 104.196" stroke="#263238" stroke-linecap="round" stroke-linejoin="round"/>
<path d="M261.295 109.987C261.295 111.373 259.773 112.5 257.888 112.5C256.003 112.5 254.482 111.373 254.482 109.987C254.482 108.601 256.01 107.467 257.888 107.467C259.767 107.467 261.295 108.595 261.295 109.987Z" stroke="#263238" stroke-linecap="round" stroke-linejoin="round"/>
<path d="M266.79 94.7038C266.79 96.6257 264.886 98.1842 262.533 98.1842C260.18 98.1842 258.276 96.6257 258.276 94.7038C258.276 92.7819 260.18 91.2234 262.533 91.2234C264.886 91.2234 266.79 92.7819 266.79 94.7038Z" stroke="#263238" stroke-linecap="round" stroke-linejoin="round"/>
<path d="M236.033 75.3614C237.635 75.3614 238.934 72.1567 238.934 68.2035C238.934 64.2502 237.635 61.0455 236.033 61.0455C234.43 61.0455 233.131 64.2502 233.131 68.2035C233.131 72.1567 234.43 75.3614 236.033 75.3614Z" stroke="#263238" stroke-linecap="round" stroke-linejoin="round"/>
<path d="M243.967 129.717C243.967 130.521 243.728 131.307 243.282 131.976C242.835 132.645 242.2 133.166 241.457 133.473C240.714 133.781 239.897 133.862 239.108 133.705C238.319 133.548 237.595 133.161 237.026 132.592C236.458 132.023 236.071 131.299 235.914 130.51C235.757 129.722 235.837 128.904 236.145 128.161C236.453 127.418 236.974 126.784 237.642 126.337C238.311 125.89 239.097 125.652 239.901 125.652C240.979 125.652 242.014 126.08 242.776 126.842C243.538 127.605 243.967 128.639 243.967 129.717Z" stroke="#263238" stroke-linecap="round" stroke-linejoin="round"/>
<path d="M262.921 69.3616C262.922 69.8604 262.775 70.3483 262.499 70.7636C262.223 71.1789 261.829 71.5027 261.369 71.6942C260.908 71.8856 260.401 71.9361 259.912 71.839C259.422 71.742 258.973 71.5019 258.62 71.1492C258.267 70.7965 258.027 70.347 257.93 69.8577C257.833 69.3684 257.884 68.8613 258.075 68.4007C258.267 67.9401 258.591 67.5467 259.006 67.2703C259.421 66.9939 259.909 66.8471 260.408 66.8483C261.074 66.8499 261.712 67.1152 262.183 67.5862C262.654 68.0572 262.92 68.6955 262.921 69.3616Z" stroke="#263238" stroke-linecap="round" stroke-linejoin="round"/>
<path d="M247.059 87.1579C247.06 87.4262 246.982 87.6888 246.834 87.9125C246.686 88.1361 246.474 88.3108 246.227 88.4143C245.979 88.5178 245.707 88.5455 245.443 88.4939C245.18 88.4424 244.938 88.3138 244.748 88.1245C244.558 87.9352 244.428 87.6938 244.375 87.4307C244.322 87.1677 244.349 86.8949 244.451 86.6469C244.554 86.3989 244.727 86.1869 244.95 86.0377C245.173 85.8885 245.436 85.8089 245.704 85.8089C245.882 85.808 246.058 85.8423 246.222 85.9098C246.386 85.9772 246.536 86.0764 246.662 86.2018C246.788 86.3271 246.888 86.4761 246.956 86.6402C247.024 86.8043 247.059 86.9802 247.059 87.1579V87.1579Z" stroke="#263238" stroke-linecap="round" stroke-linejoin="round"/>
<path d="M273.227 56.7891H214.972V137.658H273.227V56.7891Z" stroke="#263238" stroke-linecap="round" stroke-linejoin="round"/>
<path d="M178.018 172.104H162.193V178.061H178.018V172.104Z" fill="#263238" stroke="#263238" stroke-linecap="round" stroke-linejoin="round"/>
<path d="M199.251 173.004H136.265L139.247 124.179H202.239L199.251 173.004Z" fill="#919191" stroke="#263238" stroke-linecap="round" stroke-linejoin="round"/>
<path d="M197.446 173.004H134.461L137.442 124.179H200.428L197.446 173.004Z" fill="#263238" stroke="#263238" stroke-linecap="round" stroke-linejoin="round"/>
<path d="M194.114 170.287H138.126L140.775 126.89H196.763L194.114 170.287Z" fill="white" stroke="#263238" stroke-linecap="round" stroke-linejoin="round"/>
<path d="M177.827 163.819H139.795L141.834 130.376H179.872L177.827 163.819Z" fill="#919191" stroke="#263238" stroke-linecap="round" stroke-linejoin="round"/>
<path d="M154.801 149.454C154.801 149.454 146.879 152.589 146.83 153.433C146.781 154.277 145.228 163.819 145.228 163.819H168.784L166.8 152.83L158.084 149.208L154.801 149.454Z" fill="white" stroke="#263238" stroke-linecap="round" stroke-linejoin="round"/>
<path d="M155.035 147.52C154.439 147.677 153.885 147.965 153.415 148.364C152.799 148.98 152.047 151.019 152.047 151.019L152.017 153.433L155.14 151.745L158.312 151.536L161.281 154.314L161.663 150.088C161.663 150.088 161.207 147.674 160.246 147.551C159.285 147.427 155.035 147.52 155.035 147.52Z" fill="white" stroke="#263238" stroke-linecap="round" stroke-linejoin="round"/>
<path d="M154.936 145.228L154.801 149.454L156.667 152.472L159.753 149.331L160.234 145.468L154.936 145.228Z" fill="white" stroke="#263238" stroke-linecap="round" stroke-linejoin="round"/>
<path d="M162.55 140.288C162.328 143.83 159.975 148.123 157.394 148.123C154.813 148.123 152.984 143.811 153.199 140.288C153.415 136.764 155.663 133.875 158.263 133.875C160.862 133.875 162.766 136.752 162.55 140.288Z" fill="white" stroke="#263238" stroke-linecap="round" stroke-linejoin="round"/>
<path d="M153.156 140.756C153.156 140.756 152.325 138.588 151.98 140.276C151.635 141.963 153.335 143.774 153.335 143.774L153.156 140.756Z" fill="white" stroke="#263238" stroke-linecap="round" stroke-linejoin="round"/>
<path d="M162.55 140.288C162.55 140.288 164.589 139.432 163.992 141.243C163.84 141.755 163.575 142.227 163.217 142.624C162.859 143.02 162.416 143.331 161.922 143.534L162.55 140.288Z" fill="white" stroke="#263238" stroke-linecap="round" stroke-linejoin="round"/>
<path d="M157.142 140.756C157.158 140.539 157.129 140.32 157.056 140.114C156.983 139.909 156.868 139.721 156.719 139.562C156.569 139.403 156.388 139.277 156.188 139.192C155.987 139.107 155.77 139.065 155.552 139.068C155.098 139.08 154.665 139.259 154.334 139.57C154.003 139.881 153.799 140.304 153.76 140.756C153.744 140.974 153.773 141.193 153.845 141.398C153.918 141.604 154.033 141.793 154.182 141.952C154.332 142.111 154.513 142.238 154.713 142.324C154.914 142.409 155.131 142.452 155.349 142.45C155.804 142.438 156.239 142.258 156.569 141.946C156.9 141.633 157.104 141.21 157.142 140.756Z" fill="white" stroke="#263238" stroke-linecap="round" stroke-linejoin="round"/>
<path d="M161.244 140.756L163.086 140.276" stroke="#263238" stroke-linecap="round" stroke-linejoin="round"/>
<path d="M161.244 140.756C161.26 140.539 161.231 140.321 161.159 140.116C161.087 139.911 160.972 139.723 160.823 139.564C160.675 139.406 160.494 139.28 160.294 139.194C160.094 139.109 159.879 139.066 159.661 139.068C159.206 139.079 158.771 139.257 158.439 139.568C158.107 139.88 157.902 140.303 157.862 140.756C157.846 140.974 157.875 141.193 157.948 141.398C158.021 141.604 158.135 141.793 158.285 141.952C158.434 142.111 158.615 142.238 158.816 142.324C159.017 142.409 159.233 142.452 159.452 142.45C159.907 142.438 160.341 142.258 160.672 141.946C161.003 141.633 161.206 141.21 161.244 140.756Z" fill="white" stroke="#263238" stroke-linecap="round" stroke-linejoin="round"/>
<path d="M157.844 133.148C157.844 133.148 155.996 132.187 154.61 132.791C153.224 133.395 152.201 136.653 152.269 137.497C152.486 138.603 152.783 139.692 153.156 140.756L154.622 136.53L158.466 134.842L157.844 133.148Z" fill="#263238" stroke="#263238" stroke-linecap="round" stroke-linejoin="round"/>
<path d="M155.984 133.998C155.984 133.998 159.027 131.584 161.491 132.766C162.245 133.094 162.868 133.664 163.262 134.386C163.656 135.108 163.798 135.94 163.665 136.752C163.628 137.368 163.579 140.128 163.579 140.128L162.113 140.374L161.392 138.101C160.559 137.772 159.749 137.389 158.965 136.955C158.965 136.955 155.706 136.53 155.984 133.998Z" fill="#263238" stroke="#263238" stroke-linecap="round" stroke-linejoin="round"/>
<path d="M157.142 140.756L156.926 144.261H157.77" fill="white"/>
<path d="M157.142 140.756L156.926 144.261H157.77" stroke="#263238" stroke-linecap="round" stroke-linejoin="round"/>
<path d="M156.483 145.585H158.294" stroke="#263238" stroke-linecap="round" stroke-linejoin="round"/>
<path d="M156.667 152.472L155.996 163.456" stroke="#263238" stroke-linecap="round" stroke-linejoin="round"/>
<path d="M166.788 152.83C166.788 152.83 164.269 158.509 164.195 159.716C164.121 160.924 163.838 163.579 163.838 163.579" stroke="#263238" stroke-linecap="round" stroke-linejoin="round"/>
<path d="M146.83 153.433C146.83 153.433 149.337 157.782 149.663 158.361C149.99 158.94 149.589 163.554 149.589 163.554" stroke="#263238" stroke-linecap="round" stroke-linejoin="round"/>
<path d="M168.47 156.938L169.301 153.193L170.718 151.745L172.055 149.571H172.659L171.919 151.869L173.792 150.778L174.999 148.85L175.702 149.208L173.977 153.68L171.242 155.004L170.768 156.815L168.47 156.938Z" fill="white" stroke="#263238" stroke-linecap="round" stroke-linejoin="round"/>
<path d="M170.811 163.819L171.039 156.335L168.291 155.848L166.123 163.819H170.811Z" fill="white" stroke="#263238" stroke-linecap="round" stroke-linejoin="round"/>
<path d="M177.661 166.597H139.623L139.795 163.819H177.827L177.661 166.597Z" fill="white" stroke="#263238" stroke-linecap="round" stroke-linejoin="round"/>
<path d="M141.175 164.909H176.071" stroke="#263238" stroke-linecap="round" stroke-linejoin="round"/>
<path d="M194.176 139.302H181.375L181.917 130.487H194.718L194.176 139.302Z" fill="#92E3A9" stroke="#263238" stroke-linecap="round" stroke-linejoin="round"/>
<path d="M194.176 139.302H181.375L181.467 137.855H194.268L194.176 139.302Z" fill="white" stroke="#263238" stroke-linecap="round" stroke-linejoin="round"/>
<path d="M190.042 134.38L186.716 132.391L186.476 136.37L190.042 134.38Z" fill="white" stroke="#263238" stroke-linecap="round" stroke-linejoin="round"/>
<path d="M193.344 152.947H180.543L181.079 144.138H193.88L193.344 152.947Z" fill="#92E3A9" stroke="#263238" stroke-linecap="round" stroke-linejoin="round"/>
<path d="M193.344 152.947H180.543L180.636 151.499H193.43L193.344 152.947Z" fill="white" stroke="#263238" stroke-linecap="round" stroke-linejoin="round"/>
<path d="M189.211 148.031L185.884 146.041L185.644 150.021L189.211 148.031Z" fill="white" stroke="#263238" stroke-linecap="round" stroke-linejoin="round"/>
<path d="M192.506 166.597H179.712L180.248 157.782H193.048L192.506 166.597Z" fill="#92E3A9" stroke="#263238" stroke-linecap="round" stroke-linejoin="round"/>
<path d="M192.506 166.597H179.712L179.798 165.15H192.599L192.506 166.597Z" fill="white" stroke="#263238" stroke-linecap="round" stroke-linejoin="round"/>
<path d="M188.373 161.675L185.053 159.686L184.806 163.665L188.373 161.675Z" fill="white" stroke="#263238" stroke-linecap="round" stroke-linejoin="round"/>
<path d="M181.412 140.756H193.843" stroke="#263238" stroke-linecap="round" stroke-linejoin="round"/>
<path d="M181.32 142.21H193.757" stroke="#263238" stroke-linecap="round" stroke-linejoin="round"/>
<path d="M180.568 154.524H193.005" stroke="#263238" stroke-linecap="round" stroke-linejoin="round"/>
<path d="M180.482 155.971H192.919" stroke="#263238" stroke-linecap="round" stroke-linejoin="round"/>
<path d="M175.055 178.061H165.704C165.704 177.128 166.075 176.233 166.734 175.574C167.394 174.914 168.289 174.544 169.221 174.544H171.525C172.458 174.544 173.353 174.914 174.012 175.574C174.672 176.233 175.043 177.128 175.043 178.061H175.055Z" fill="white" stroke="#263238" stroke-linecap="round" stroke-linejoin="round"/>
<path d="M161.25 176.145H115.531V178.061H161.25V176.145Z" fill="#919191" stroke="#263238" stroke-linecap="round" stroke-linejoin="round"/>
<path d="M161.238 176.145H149.75V178.061H161.238V176.145Z" fill="white" stroke="#263238" stroke-linecap="round" stroke-linejoin="round"/>
<path d="M96.7921 84.1641V47.7646" stroke="#263238" stroke-linecap="round" stroke-linejoin="round"/>
<path d="M96.7921 266.334V87.7861" stroke="#263238" stroke-linecap="round" stroke-linejoin="round"/>
<path d="M179.915 190.837L185.459 265.576C185.488 265.849 185.62 266.1 185.827 266.279C186.035 266.458 186.303 266.552 186.577 266.54C186.851 266.528 187.111 266.412 187.302 266.216C187.494 266.02 187.604 265.758 187.609 265.484L186.777 190.837H179.915Z" fill="#919191" stroke="#263238" stroke-linecap="round" stroke-linejoin="round"/>
<path d="M184.098 190.837L187.024 266.438C187.196 266.346 187.34 266.208 187.44 266.04C187.54 265.872 187.592 265.679 187.59 265.484L186.777 190.837H184.098Z" fill="white" stroke="#263238" stroke-linecap="round" stroke-linejoin="round"/>
<path d="M214.762 190.837L220.306 265.576C220.335 265.849 220.467 266.1 220.675 266.279C220.882 266.458 221.151 266.552 221.425 266.54C221.699 266.528 221.958 266.412 222.149 266.216C222.341 266.02 222.451 265.758 222.456 265.484L221.624 190.837H214.762Z" fill="#919191" stroke="#263238" stroke-linecap="round" stroke-linejoin="round"/>
<path d="M218.618 190.837L222.031 266.327C222.159 266.227 222.262 266.099 222.333 265.953C222.403 265.807 222.439 265.646 222.438 265.484L221.624 190.837H218.618Z" fill="white" stroke="#263238" stroke-linecap="round" stroke-linejoin="round"/>
<path d="M122.904 191.65L117.36 265.57C117.342 265.841 117.22 266.095 117.021 266.28C116.822 266.466 116.56 266.568 116.288 266.568C116.146 266.57 116.004 266.544 115.872 266.492C115.739 266.439 115.618 266.361 115.516 266.261C115.414 266.161 115.333 266.042 115.278 265.911C115.222 265.78 115.193 265.639 115.192 265.496L116.011 191.453L122.904 191.65Z" fill="#263238" stroke="#263238" stroke-linecap="round" stroke-linejoin="round"/>
<path d="M88.088 191.65L82.544 265.57C82.5252 265.841 82.4041 266.095 82.205 266.28C82.006 266.466 81.744 266.568 81.4721 266.568C81.33 266.567 81.1895 266.538 81.0586 266.483C80.9277 266.427 80.8091 266.347 80.7095 266.245C80.6098 266.144 80.5313 266.024 80.4782 265.892C80.4251 265.761 80.3987 265.62 80.4003 265.477L81.2196 191.434L88.088 191.65Z" fill="#263238" stroke="#263238" stroke-linecap="round" stroke-linejoin="round"/>
<path d="M223.663 179.798H79.1313V191.44H223.663V179.798Z" fill="#919191" stroke="#263238" stroke-linecap="round" stroke-linejoin="round"/>
<path d="M223.663 179.798H182.244V191.44H223.663V179.798Z" fill="white" stroke="#263238" stroke-linecap="round" stroke-linejoin="round"/>
<path d="M223.663 181.646H79.1313V184.855H223.663V181.646Z" fill="#263238" stroke="#263238" stroke-linecap="round" stroke-linejoin="round"/>
<path d="M225.746 178.129H77.0493V182.022H225.746V178.129Z" fill="#919191" stroke="#263238" stroke-linecap="round" stroke-linejoin="round"/>
<path d="M225.739 178.129H184.905V182.022H225.739V178.129Z" fill="white" stroke="#263238" stroke-linecap="round" stroke-linejoin="round"/>
<path d="M181.899 105.952H161.829C160.784 105.952 159.781 106.367 159.042 107.107C158.302 107.846 157.887 108.849 157.887 109.894V117.286C157.886 117.804 157.988 118.317 158.185 118.796C158.383 119.275 158.674 119.71 159.04 120.076C159.406 120.442 159.841 120.733 160.32 120.93C160.798 121.128 161.311 121.23 161.829 121.229H172.338L168.402 132.224L175.942 121.229H181.899C182.417 121.23 182.93 121.128 183.408 120.93C183.887 120.733 184.322 120.442 184.688 120.076C185.054 119.71 185.345 119.275 185.543 118.796C185.74 118.317 185.842 117.804 185.841 117.286V109.894C185.841 108.849 185.426 107.846 184.686 107.107C183.947 106.367 182.944 105.952 181.899 105.952Z" fill="white" stroke="#263238" stroke-linecap="round" stroke-linejoin="round"/>
<path d="M166.486 115.272C167.279 115.272 167.922 114.63 167.922 113.837C167.922 113.044 167.279 112.402 166.486 112.402C165.694 112.402 165.051 113.044 165.051 113.837C165.051 114.63 165.694 115.272 166.486 115.272Z" fill="#263238"/>
<path d="M171.864 115.272C172.657 115.272 173.299 114.63 173.299 113.837C173.299 113.044 172.657 112.402 171.864 112.402C171.071 112.402 170.429 113.044 170.429 113.837C170.429 114.63 171.071 115.272 171.864 115.272Z" fill="#263238"/>
<path d="M178.671 113.837C178.671 113.553 178.586 113.275 178.429 113.039C178.271 112.803 178.046 112.619 177.783 112.51C177.521 112.402 177.232 112.374 176.953 112.43C176.675 112.486 176.419 112.623 176.218 112.824C176.018 113.026 175.882 113.282 175.827 113.561C175.772 113.839 175.802 114.128 175.911 114.39C176.021 114.653 176.206 114.876 176.443 115.033C176.679 115.19 176.958 115.273 177.242 115.272C177.43 115.272 177.616 115.235 177.79 115.163C177.964 115.091 178.122 114.985 178.254 114.851C178.387 114.718 178.492 114.56 178.564 114.386C178.635 114.212 178.672 114.025 178.671 113.837Z" fill="#263238"/>
<path d="M277.2 266.728H293.832" stroke="#263238" stroke-linecap="round" stroke-linejoin="round"/>
<path d="M14.784 266.728H268.576" stroke="#263238" stroke-linecap="round" stroke-linejoin="round"/>
<path d="M112.506 157.868C110.701 154.788 105.391 142.93 105.391 142.93C105.551 141.664 105.811 140.411 106.168 139.185C106.605 137.953 107.708 134.22 107.486 133.444C107.264 132.668 104.067 131.239 103.741 131.128C103.414 131.017 104.178 129.144 102.964 128.701C101.751 128.257 101.313 128.923 101.313 128.923L100.851 132.003L99.4347 134.22C98.8447 133.772 98.2275 133.36 97.5867 132.988C96.5949 132.434 94.2788 132.212 94.1679 133.099C94.057 133.986 96.0159 134.75 96.6996 135.304C97.3834 135.859 98.2458 138.501 99.022 139.278C99.7272 140.047 100.389 140.856 101.005 141.698L101.449 143.134C101.449 143.134 102.958 157.665 103.137 161.281C103.315 164.897 103.858 174.463 104.942 175.905C106.026 177.346 106.211 178.258 109.254 177.174C112.297 176.09 112.863 174.642 113.566 171.39C114.268 168.137 114.311 160.936 112.506 157.868Z" fill="white" stroke="#263238" stroke-linecap="round" stroke-linejoin="round"/>
<path d="M113.59 171.408C114.311 168.162 114.311 160.936 112.506 157.856C112.309 157.517 112.069 157.08 111.798 156.563C107.714 155.374 103.833 157.314 103.833 157.314L102.847 157.745C102.977 159.254 103.075 160.517 103.112 161.287C103.297 164.897 103.833 174.47 104.917 175.911C106.001 177.353 106.186 178.264 109.229 177.18C112.272 176.096 112.863 174.661 113.59 171.408Z" fill="#92E3A9" stroke="#263238" stroke-linecap="round" stroke-linejoin="round"/>
<path d="M99.3361 109.032C99.781 110.666 100.029 112.347 100.075 114.04C100.075 116.449 99.3361 117.933 100.451 118.672C101.566 119.412 102.49 119.418 102.299 120.902C102.226 121.722 101.901 122.499 101.369 123.126C101.369 123.126 100.999 130.727 100.63 131.473C100.26 132.218 95.4369 131.288 94.3219 131.097C93.2069 130.906 90.0592 132.397 88.0141 128.319C85.969 124.241 87.6445 118.118 91.3528 114.964C93.9035 112.842 96.5686 110.862 99.3361 109.032Z" fill="white" stroke="#263238" stroke-linecap="round" stroke-linejoin="round"/>
<path d="M100.075 114.009C100.075 114.009 99.0713 113.258 98.5415 114.576" stroke="#263238" stroke-linecap="round" stroke-linejoin="round"/>
<path d="M99.176 117.077C99.0318 117.824 99.0784 118.595 99.3115 119.319" stroke="#263238" stroke-linecap="round" stroke-linejoin="round"/>
<path d="M101.024 125.787C100.859 125.84 100.685 125.858 100.514 125.839C100.342 125.82 100.176 125.765 100.026 125.678C99.8771 125.591 99.7478 125.473 99.6469 125.333C99.546 125.193 99.4758 125.032 99.4409 124.863" stroke="#263238" stroke-linecap="round" stroke-linejoin="round"/>
<path d="M103.125 160.653C103.125 160.653 102.509 163.474 101.96 164.965C101.412 166.455 91.5807 169.19 87.2995 169.757C84.4792 170.109 81.6408 170.297 78.7987 170.318L79.0697 178.116C79.0697 178.116 87.3611 178.283 87.9463 178.116C88.5315 177.95 102.49 171.71 102.49 171.71L108.515 170.921C108.515 170.921 111.046 170.305 111.145 168.34C111.243 166.375 109.007 160.788 107.991 159.92C106.975 159.051 104.831 156.747 103.543 158.164C102.256 159.581 103.125 160.653 103.125 160.653Z" fill="white" stroke="#263238" stroke-linecap="round" stroke-linejoin="round"/>
<path d="M84.6384 174.654C84.6384 171.285 85.5008 171.199 86.4864 169.862C83.9396 170.146 81.3797 170.299 78.8172 170.318L78.6139 177.476C78.6139 177.476 83.1538 177.895 85.9196 178.092C85.6917 178.443 84.6384 176.823 84.6384 174.654Z" fill="#92E3A9" stroke="#263238" stroke-linecap="round" stroke-linejoin="round"/>
<path d="M111.41 189.808C108.13 186.122 103.96 183.338 99.2992 181.72L88.4822 186.334C87.6422 184.271 86.5274 182.332 85.1681 180.568L83.1477 178.104L84.4474 171.039C84.4474 171.039 92.2337 165.704 93.2377 163.394L93.2747 163.32C94.8393 165.741 101.628 176.219 102.903 177.235C104.344 178.394 108.669 178.535 110.541 176.804C112.414 175.073 113.282 173.921 112.851 171.328C112.851 171.328 109.968 165.125 108.379 162.384C106.79 159.643 103.334 149.842 101.603 146.811C100.371 144.643 99.8597 143.115 98.985 142.093C98.3778 141.047 97.6612 140.068 96.8475 139.173C95.1165 137.325 90.3549 136.863 89.3446 136.432C88.3344 136 88.1927 135.853 82.4269 134.128C76.6612 132.403 70.1685 131.387 65.5547 134.99C65.5547 134.99 59.3577 142.345 56.9307 154.456C54.5037 166.566 54.3312 178.825 54.0478 180.987C53.7645 183.149 51.3066 193.677 50.5859 199.732C49.8652 205.787 56.1853 211.867 60.0785 213.752C63.9716 215.637 80.696 215.914 90.5027 213.752C100.309 211.59 115.882 201.783 115.882 201.783C115.882 201.783 116.455 195.722 111.41 189.808Z" fill="#92E3A9" stroke="#263238" stroke-linecap="round" stroke-linejoin="round"/>
<path d="M85.9135 163.166L83.9362 163.098" stroke="#263238" stroke-linecap="round" stroke-linejoin="round"/>
<path d="M85.1681 160.018C87.938 160.952 90.6352 162.088 93.2377 163.419L88.1619 163.246" stroke="#263238" stroke-linecap="round" stroke-linejoin="round"/>
<path d="M111.958 163.659C112.527 164.552 112.877 165.567 112.981 166.622C112.981 167.983 113.208 169.807 112.642 169.24C112.075 168.673 111.841 166.733 111.841 166.733L111.958 163.659Z" fill="white" stroke="#263238" stroke-linecap="round" stroke-linejoin="round"/>
<path d="M108.545 162.07C108.545 162.07 110.677 160.911 111.625 162.304C112.574 163.696 112.321 166.474 111.625 167.848C110.929 169.221 110.135 167.909 110.233 166.69C110.332 165.47 108.545 162.07 108.545 162.07Z" fill="white" stroke="#263238" stroke-linecap="round" stroke-linejoin="round"/>
<path d="M107.745 160.591C107.745 160.591 109.882 159.433 110.825 160.825C111.767 162.217 111.514 164.989 110.825 166.369C110.135 167.749 109.334 166.431 109.432 165.211C109.531 163.992 107.745 160.591 107.745 160.591Z" fill="white" stroke="#263238" stroke-linecap="round" stroke-linejoin="round"/>
<path d="M106.765 158.996C106.765 158.996 108.903 157.838 109.845 159.23C110.788 160.622 110.541 163.4 109.845 164.774C109.149 166.147 108.354 164.835 108.453 163.616C108.551 162.396 106.765 158.996 106.765 158.996Z" fill="white" stroke="#263238" stroke-linecap="round" stroke-linejoin="round"/>
<path d="M101.357 103.248C101.392 105.462 100.821 107.643 99.7057 109.556C96.5518 114.379 93.5889 113.818 92.3137 117.718C91.0386 121.617 89.1352 125.664 91.168 127.919C93.2008 130.173 94.864 128.843 94.864 128.843C94.864 128.843 96.1637 132.181 92.825 135.52C89.4863 138.859 83.739 137.559 82.2545 137.005C81.3196 136.644 80.4451 136.144 79.6611 135.52C79.6611 135.52 78.7309 138.119 74.1171 138.119C69.5033 138.119 64.2611 134.966 64.2611 129.212C64.2611 123.459 67.4089 119.572 68.1542 117.342C68.8996 115.112 66.8545 108.256 70.0022 103.993C73.15 99.7304 78.0102 96.6011 81.7062 96.6011C85.4022 96.6011 92.6156 98.6277 92.6464 98.64C93.133 98.9049 96.25 97.6359 97.0939 97.6914C100.192 97.8639 101.32 100.408 101.357 103.248Z" fill="#263238" stroke="#263238" stroke-linecap="round" stroke-linejoin="round"/>
<path d="M89.32 129.631C89.9925 129.721 90.674 129.721 91.3466 129.631" stroke="#919191" stroke-linecap="round" stroke-linejoin="round"/>
<path d="M98.6832 106.482C98.3907 108.133 97.782 109.712 96.8906 111.132C94.0077 115.66 90.7306 117.292 86.8067 121.604C84.2873 124.395 84.7616 127.179 86.8067 128.639" stroke="#919191" stroke-linecap="round" stroke-linejoin="round"/>
<path d="M98.7386 101.671C98.8587 102.35 98.9185 103.038 98.9173 103.728" stroke="#919191" stroke-linecap="round" stroke-linejoin="round"/>
<path d="M94.864 105.989C94.864 105.989 94.248 112.364 91.5745 116.067C88.9011 119.769 83.5665 121.611 83.7575 125.528" stroke="#919191" stroke-linecap="round" stroke-linejoin="round"/>
<path d="M119.689 212.711C119.689 212.711 123.533 232.46 126.822 242.057C130.112 251.654 133.401 260.432 134.214 261.258C135.027 262.083 137.232 265.096 137.232 265.096C136.213 265.91 134.968 266.389 133.666 266.469C131.744 266.469 129.28 264.005 127.081 262.625C124.882 261.246 124.617 260.432 120.225 258.788C115.833 257.143 119.405 252.757 120.502 250.558C121.136 249.371 121.51 248.063 121.598 246.72C119.855 240.543 116.765 234.83 112.549 229.99C105.706 222.314 104.332 204.512 104.332 204.512L117.496 199.584L119.689 212.711Z" fill="white" stroke="#263238" stroke-linecap="round" stroke-linejoin="round"/>
<path d="M133.672 260.272L132.877 260.432C132.877 260.432 128.214 254.125 124.654 251.932C123.44 251.094 122.013 250.619 120.539 250.564C119.436 252.757 115.876 257.143 120.262 258.788C124.648 260.432 124.925 261.252 127.118 262.625C129.311 263.999 131.781 266.469 133.703 266.469C135.005 266.389 136.25 265.909 137.269 265.096C137.269 265.096 135.07 262.077 134.251 261.258C134.018 260.955 133.823 260.624 133.672 260.272Z" fill="#92E3A9" stroke="#263238" stroke-linecap="round" stroke-linejoin="round"/>
<path d="M131.461 265.687C129.292 264.19 127.333 260.864 123.804 258.788C120.594 256.903 118.943 256.829 118.26 256.971C118.427 257.41 118.696 257.804 119.045 258.12C119.395 258.436 119.813 258.665 120.268 258.788C124.66 260.432 124.931 261.252 127.124 262.625C128.51 263.512 130.038 264.88 131.461 265.687Z" fill="#92E3A9" stroke="#263238" stroke-linecap="round" stroke-linejoin="round"/>
<path d="M133.672 266.469C133.532 266.464 133.392 266.45 133.253 266.426C133.391 266.452 133.531 266.467 133.672 266.469Z" fill="#92E3A9" stroke="#263238" stroke-linecap="round" stroke-linejoin="round"/>
<path d="M95.2459 182.952C95.2459 182.952 108.428 178.283 109.66 181.363C110.892 184.443 116.535 195.931 114.477 200.65C112.42 205.368 97.9563 187.098 95.8988 186.703C93.8414 186.309 95.0056 184.332 95.2459 182.952Z" fill="white" stroke="#263238" stroke-linecap="round" stroke-linejoin="round"/>
<path d="M108.163 188.97C108.163 188.97 123.151 187.738 126.027 190.412C128.904 193.085 119.048 225.111 113.707 235.17C105.336 250.903 107.868 255.024 107.868 255.024C107.868 255.024 108.484 257.488 112.592 261.393C116.701 265.299 117.933 265.909 116.492 266.525C115.05 267.141 108.896 266.525 108.28 266.112C107.664 265.699 103.149 262.009 99.0405 260.777C94.9317 259.545 95.5477 258.72 97.3957 255.024C99.2437 251.328 99.0405 254.408 101.092 248.045C103.551 240.203 105.493 232.209 106.907 224.113C107.997 217.516 109.66 210.272 109.192 203.563L108.163 188.97Z" fill="white" stroke="#263238" stroke-linecap="round" stroke-linejoin="round"/>
<path d="M119.141 198.999C117.571 195.212 114.871 192.003 111.41 189.808C104.856 185.625 99.2992 181.72 99.2992 181.72L88.4822 186.334C88.4822 186.334 91.1187 190.806 77.5667 193.067C67.1317 194.804 57.5529 192.284 52.3846 189.247C51.6639 192.826 50.9124 196.806 50.5366 199.719C49.8159 205.775 56.1607 211.83 60.0538 213.709C63.947 215.588 95.3137 219.475 103.759 214.048C119.141 204.21 119.141 198.999 119.141 198.999Z" fill="#263238" stroke="#263238" stroke-linecap="round" stroke-linejoin="round"/>
<path d="M87.2564 189.728C85.8088 190.917 82.9875 192.192 77.5667 193.073C67.1316 194.81 57.5528 192.291 52.3846 189.254C52.1998 190.172 52.015 191.102 51.8302 192.056C55.3722 194.188 62.8135 197.798 71.2034 196.769C81.2134 195.543 85.6609 192.808 87.2564 189.728Z" fill="#92E3A9" stroke="#263238" stroke-linecap="round" stroke-linejoin="round"/>
<path d="M79.2607 202.923C78.7802 203.539 78.2812 204.155 77.7761 204.771" stroke="white" stroke-linecap="round" stroke-linejoin="round"/>
<path d="M86.8067 191.231C84.911 194.717 82.7959 198.079 80.4742 201.296" stroke="white" stroke-linecap="round" stroke-linejoin="round"/>
<path d="M82.2914 195.13C82.2914 195.13 78.5954 200.058 74.6961 202.935" stroke="white" stroke-linecap="round" stroke-linejoin="round"/>
<path d="M112.592 261.381C108.484 257.488 107.868 255.024 107.868 255.024C107.73 254.896 107.621 254.741 107.547 254.568C107.27 254.858 106.432 255.406 104.381 254.617C102.601 253.934 100.913 252.769 99.1328 251.987C98.7078 252.745 98.2951 253.219 97.3957 255.024C95.5477 258.72 94.9317 259.545 99.0405 260.777C103.149 262.009 107.664 265.705 108.28 266.112C108.896 266.519 115.056 267.141 116.492 266.525C117.927 265.909 116.701 265.28 112.592 261.381Z" fill="#92E3A9" stroke="#263238" stroke-linecap="round" stroke-linejoin="round"/>
<path d="M116.375 201.087L123.36 196.775" stroke="#263238" stroke-linecap="round" stroke-linejoin="round"/>
<path d="M32.9252 162.045C32.9252 162.045 55.1751 159.261 69.3924 163.277L71.5545 217.368H38.192C38.192 217.368 40.3418 188.311 32.9252 162.045Z" fill="#919191" stroke="#263238" stroke-linecap="round" stroke-linejoin="round"/>
<path d="M69.3924 163.277C55.1751 159.261 32.9252 162.045 32.9252 162.045C35.3062 170.799 36.8876 179.751 37.6499 188.792C50.0739 194.995 61.453 203.101 71.3759 212.816L69.3924 163.277Z" fill="#757575" stroke="#263238" stroke-linecap="round" stroke-linejoin="round"/>
<path d="M111.348 267.96C111.096 267.961 110.85 267.884 110.643 267.741C110.436 267.598 110.278 267.395 110.19 267.159C105.262 253.878 104.03 219.401 103.956 217.941C103.945 217.614 104.064 217.296 104.286 217.057C104.509 216.818 104.818 216.677 105.145 216.666C105.472 216.654 105.79 216.773 106.029 216.996C106.268 217.219 106.409 217.528 106.42 217.855C106.42 218.212 107.701 253.392 112.5 266.297C112.614 266.603 112.601 266.942 112.464 267.239C112.328 267.536 112.079 267.766 111.773 267.88C111.638 267.934 111.494 267.961 111.348 267.96Z" fill="white" stroke="#263238" stroke-linecap="round" stroke-linejoin="round"/>
<path d="M84.5214 267.96C84.2707 267.96 84.0261 267.883 83.8203 267.74C83.6145 267.596 83.4572 267.394 83.3694 267.159C78.4414 253.878 77.2094 219.401 77.1294 217.941C77.1179 217.614 77.2368 217.296 77.4597 217.057C77.6827 216.818 77.9915 216.677 78.3182 216.666C78.645 216.654 78.9629 216.773 79.202 216.996C79.4412 217.219 79.5819 217.528 79.5934 217.855C79.5934 218.212 80.8746 253.392 85.6794 266.297C85.7929 266.603 85.7801 266.942 85.6438 267.239C85.5075 267.536 85.2589 267.766 84.9526 267.88C84.8152 267.934 84.6689 267.961 84.5214 267.96Z" fill="white" stroke="#263238" stroke-linecap="round" stroke-linejoin="round"/>
<path d="M111.015 217.343H37.6068V214.879H108.564C109.217 214.879 109.844 215.139 110.306 215.601C110.768 216.063 111.028 216.69 111.028 217.343H111.015Z" fill="#919191" stroke="#263238" stroke-linecap="round" stroke-linejoin="round"/>
<path d="M111.009 216.746H37.6068V219.191H111.009V216.746Z" fill="white" stroke="#263238" stroke-linecap="round" stroke-linejoin="round"/>
<path d="M68.8442 267.96C68.6587 267.964 68.4748 267.926 68.3061 267.849C68.1374 267.772 67.9883 267.658 67.8699 267.515C67.7514 267.372 67.6668 267.205 67.6221 267.025C67.5775 266.845 67.5741 266.657 67.6122 266.475C74.5791 233.47 68.2282 164.065 68.1419 163.369C68.127 163.207 68.144 163.044 68.1921 162.889C68.2402 162.734 68.3184 162.59 68.4222 162.465C68.526 162.34 68.6534 162.236 68.7972 162.161C68.9409 162.085 69.0982 162.038 69.26 162.023C69.5867 161.993 69.9121 162.094 70.1645 162.304C70.4169 162.513 70.5757 162.815 70.6059 163.141C70.6737 163.844 77.0739 233.612 70.033 266.98C69.9757 267.255 69.8266 267.501 69.6105 267.679C69.3944 267.857 69.1241 267.956 68.8442 267.96Z" fill="white" stroke="#263238" stroke-linecap="round" stroke-linejoin="round"/>
<path d="M30.6521 267.061C30.5373 267.062 30.423 267.045 30.3133 267.011C30.0002 266.922 29.735 266.713 29.5757 266.429C29.4164 266.145 29.376 265.81 29.4633 265.496C45.4793 208.639 31.8841 162.858 31.7486 162.402C31.671 162.096 31.7142 161.771 31.8694 161.495C32.0245 161.22 32.2797 161.014 32.5821 160.922C32.8845 160.829 33.2109 160.856 33.4938 160.998C33.7767 161.139 33.9944 161.384 34.1017 161.681C34.2434 162.143 48.0726 208.577 31.8349 266.161C31.7625 266.419 31.6078 266.647 31.3943 266.809C31.1809 266.972 30.9203 267.06 30.6521 267.061Z" fill="white" stroke="#263238" stroke-linecap="round" stroke-linejoin="round"/>
<path d="M255.874 165.488C255.874 165.488 248.303 161.281 247.743 170.817C247.182 180.352 245.784 242.328 245.784 242.328" stroke="#263238" stroke-width="2" stroke-linecap="round" stroke-linejoin="round"/>
<path d="M243.813 171.655C243.813 171.655 249.973 185.398 247.182 241.49" stroke="#263238" stroke-width="2" stroke-linecap="round" stroke-linejoin="round"/>
<path d="M249.88 167.41C249.88 167.41 246.979 169.258 245.334 167.139C243.69 165.02 246.449 161.127 244.016 159.464C241.583 157.801 237.376 160.339 237.376 160.339C237.376 160.339 240.61 161.287 240.505 163.055C240.4 164.823 238.842 165.488 238.657 164.718C238.472 163.948 236.901 160.055 234.277 161.675C233.519 162.122 232.859 162.718 232.338 163.428C231.817 164.137 231.446 164.945 231.246 165.803C231.246 165.803 237.363 165.15 237.733 167.447C238.102 169.745 235.226 167.047 232.7 166.899C230.175 166.751 227.871 167.121 228.037 168.648C228.093 170 228.013 171.354 227.797 172.689C229.18 171.541 230.927 170.925 232.725 170.952C235.503 171.119 235.398 172.887 232.873 172.739C230.347 172.591 228.179 174.993 228.179 174.993C228.179 174.993 230.483 178.929 233.409 180.876C236.335 182.823 237.388 182.108 237.721 180.623C238.053 179.139 237.277 175.277 239.045 175.381C240.813 175.486 236.119 182.046 238.374 182.435C240.628 182.823 242.445 182.17 243.037 180.685L243.653 179.201C243.653 179.201 242.864 175.351 243.209 173.854C243.554 172.357 243.967 173.897 244.367 175.702C244.768 177.507 245.02 181.819 245.79 181.609C246.56 181.4 249.03 178.258 249.609 177.02C250.188 175.782 246.357 172.018 246.4 171.26C246.443 170.503 249.4 171.944 249.862 172.733C250.197 173.331 250.5 173.948 250.767 174.581C250.767 174.581 252.615 173.422 252.566 169.874C252.517 166.326 249.88 167.41 249.88 167.41Z" fill="#92E3A9"/>
<path opacity="0.3" d="M249.88 167.41C249.88 167.41 246.979 169.258 245.334 167.139C243.69 165.02 246.449 161.127 244.016 159.464C241.583 157.801 237.376 160.339 237.376 160.339C237.376 160.339 240.61 161.287 240.505 163.055C240.4 164.823 238.842 165.488 238.657 164.718C238.472 163.948 236.901 160.055 234.277 161.675C233.519 162.122 232.859 162.718 232.338 163.428C231.817 164.137 231.446 164.945 231.246 165.803C231.246 165.803 237.363 165.15 237.733 167.447C238.102 169.745 235.226 167.047 232.7 166.899C230.175 166.751 227.871 167.121 228.037 168.648C228.093 170 228.013 171.354 227.797 172.689C229.18 171.541 230.927 170.925 232.725 170.952C235.503 171.119 235.398 172.887 232.873 172.739C230.347 172.591 228.179 174.993 228.179 174.993C228.179 174.993 230.483 178.929 233.409 180.876C236.335 182.823 237.388 182.108 237.721 180.623C238.053 179.139 237.277 175.277 239.045 175.381C240.813 175.486 236.119 182.046 238.374 182.435C240.628 182.823 242.445 182.17 243.037 180.685L243.653 179.201C243.653 179.201 242.864 175.351 243.209 173.854C243.554 172.357 243.967 173.897 244.367 175.702C244.768 177.507 245.02 181.819 245.79 181.609C246.56 181.4 249.03 178.258 249.609 177.02C250.188 175.782 246.357 172.018 246.4 171.26C246.443 170.503 249.4 171.944 249.862 172.733C250.197 173.331 250.5 173.948 250.767 174.581C250.767 174.581 252.615 173.422 252.566 169.874C252.517 166.326 249.88 167.41 249.88 167.41Z" fill="#263238"/>
<path d="M235.195 175.732C237.086 173.398 239.864 170.238 242.199 168.729" stroke="#263238" stroke-linecap="round" stroke-linejoin="round"/>
<path d="M233.008 178.572C233.008 178.572 233.489 177.901 234.277 176.891" stroke="#263238" stroke-linecap="round" stroke-linejoin="round"/>
<path d="M243.431 169.308C243.431 169.308 246.24 173.275 246.757 177.359" stroke="#263238" stroke-linecap="round" stroke-linejoin="round"/>
<path d="M240.24 171.655C240.24 171.655 241.028 171.193 240.733 176.244" stroke="#263238" stroke-linecap="round" stroke-linejoin="round"/>
<path d="M242.304 166.936C242.304 166.936 243.911 165.513 243.061 162.673" stroke="#263238" stroke-linecap="round" stroke-linejoin="round"/>
<path d="M240.135 169.369L238.99 167.275" stroke="#263238" stroke-linecap="round" stroke-linejoin="round"/>
<path d="M237.727 171.507C237.727 171.507 234.092 168.759 231.819 168.624" stroke="#263238" stroke-linecap="round" stroke-linejoin="round"/>
<path d="M260.205 159.926C260.205 159.926 260.087 164.09 256.835 164.293C253.583 164.497 251.574 159.076 248.248 160.382C244.922 161.688 244.601 167.626 244.601 167.626C244.601 167.626 247.755 165.033 249.455 166.338C251.155 167.644 250.761 169.665 249.843 169.345C248.926 169.024 243.985 167.922 243.813 171.655C243.744 172.719 243.891 173.786 244.246 174.792C244.6 175.797 245.155 176.721 245.876 177.507C245.876 177.507 249.394 170.934 251.956 172.129C254.519 173.324 249.843 174.371 247.971 176.798C246.098 179.225 244.891 181.782 246.548 182.662C247.939 183.524 249.24 184.525 250.429 185.65C250.429 185.65 249.985 182.213 252.043 179.545C254.1 176.878 255.794 178.184 253.928 180.611C252.061 183.038 252.985 186.851 252.985 186.851C252.985 186.851 258.492 187.227 262.434 185.619C266.377 184.011 266.401 182.484 265.133 181.122C263.864 179.761 259.478 177.925 260.784 176.194C262.089 174.463 265.465 183.667 267.393 181.671C269.321 179.675 269.9 177.414 268.816 175.806L267.732 174.205C267.732 174.205 263.346 172.357 262.077 171.002C260.808 169.646 262.638 170.275 264.714 171.1C266.79 171.926 271.28 174.617 271.601 173.7C271.921 172.782 270.449 168.156 269.611 166.751C268.773 165.347 262.379 166.597 261.652 166.037C260.925 165.476 264.381 163.499 265.484 163.573C266.31 163.641 267.133 163.754 267.948 163.911C267.948 163.911 268.046 161.275 264.461 158.903C260.876 156.532 260.205 159.926 260.205 159.926Z" fill="#92E3A9"/>
<path opacity="0.2" d="M260.205 159.926C260.205 159.926 260.087 164.09 256.835 164.293C253.583 164.497 251.574 159.076 248.248 160.382C244.922 161.688 244.601 167.626 244.601 167.626C244.601 167.626 247.755 165.033 249.455 166.338C251.155 167.644 250.761 169.665 249.843 169.345C248.926 169.024 243.985 167.922 243.813 171.655C243.744 172.719 243.891 173.786 244.246 174.792C244.6 175.797 245.155 176.721 245.876 177.507C245.876 177.507 249.394 170.934 251.956 172.129C254.519 173.324 249.843 174.371 247.971 176.798C246.098 179.225 244.891 181.782 246.548 182.662C247.939 183.524 249.24 184.525 250.429 185.65C250.429 185.65 249.985 182.213 252.043 179.545C254.1 176.878 255.794 178.184 253.928 180.611C252.061 183.038 252.985 186.851 252.985 186.851C252.985 186.851 258.492 187.227 262.434 185.619C266.377 184.011 266.401 182.484 265.133 181.122C263.864 179.761 259.478 177.925 260.784 176.194C262.089 174.463 265.465 183.667 267.393 181.671C269.321 179.675 269.9 177.414 268.816 175.806L267.732 174.205C267.732 174.205 263.346 172.357 262.077 171.002C260.808 169.646 262.638 170.275 264.714 171.1C266.79 171.926 271.28 174.617 271.601 173.7C271.921 172.782 270.449 168.156 269.611 166.751C268.773 165.347 262.379 166.597 261.652 166.037C260.925 165.476 264.381 163.499 265.484 163.573C266.31 163.641 267.133 163.754 267.948 163.911C267.948 163.911 268.046 161.275 264.461 158.903C260.876 156.532 260.205 159.926 260.205 159.926Z" fill="#263238"/>
<path d="M258.529 180.297C257.488 176.792 256.207 171.864 256.293 168.513" stroke="#263238" stroke-linecap="round" stroke-linejoin="round"/>
<path d="M259.878 184.43C259.878 184.43 259.533 183.482 259.059 182.01" stroke="#263238" stroke-linecap="round" stroke-linejoin="round"/>
<path d="M257.71 167.675C257.71 167.675 263.593 167.564 268.034 169.831" stroke="#263238" stroke-linecap="round" stroke-linejoin="round"/>
<path d="M257.895 172.48C257.895 172.48 257.968 171.377 262.823 175.117" stroke="#263238" stroke-linecap="round" stroke-linejoin="round"/>
<path d="M254.593 167.201C254.593 167.201 254.26 164.626 250.841 163.542" stroke="#263238" stroke-linecap="round" stroke-linejoin="round"/>
<path d="M255.523 171.014L252.646 170.731" stroke="#263238" stroke-linecap="round" stroke-linejoin="round"/>
<path d="M256.022 174.882C256.022 174.882 250.792 176.65 249.11 178.837" stroke="#263238" stroke-linecap="round" stroke-linejoin="round"/>
<path d="M225.308 187.646C225.308 187.646 241.854 198.58 241.577 240.93" stroke="#263238" stroke-width="2" stroke-linecap="round" stroke-linejoin="round"/>
<path d="M245.71 184.757C245.71 184.757 245.18 189.549 241.398 189.475C237.616 189.401 235.854 182.958 231.862 184.153C227.871 185.348 226.965 192.161 226.965 192.161C226.965 192.161 230.858 189.463 232.694 191.139C234.53 192.814 233.883 195.099 232.854 194.644C231.825 194.188 226.226 192.445 225.678 196.738C225.499 197.96 225.571 199.206 225.889 200.399C226.207 201.592 226.764 202.709 227.526 203.68C227.526 203.68 232.207 196.43 235.047 198.056C237.887 199.683 232.398 200.44 230.008 203.064C227.618 205.689 225.998 208.522 227.809 209.693C229.336 210.819 230.744 212.099 232.01 213.512C232.01 213.512 231.819 209.508 234.443 206.619C237.068 203.73 238.909 205.387 236.519 208.029C234.129 210.672 234.844 215.138 234.844 215.138C234.844 215.138 241.17 216.093 245.87 214.614C250.57 213.136 250.737 211.374 249.4 209.686C248.063 207.999 243.178 205.461 244.848 203.625C246.517 201.789 249.542 212.692 251.956 210.567C254.371 208.442 255.246 205.898 254.149 203.939L253.053 201.98C253.053 201.98 248.168 199.448 246.831 197.754C245.494 196.06 247.546 196.972 249.862 198.118C252.178 199.264 257.112 202.793 257.562 201.771C258.012 200.748 256.755 195.278 255.923 193.559C255.092 191.841 247.595 192.697 246.807 191.983C246.018 191.268 250.201 189.315 251.464 189.519C252.404 189.675 253.335 189.881 254.254 190.135C254.254 190.135 254.611 187.104 250.7 184.024C246.788 180.944 245.71 184.757 245.71 184.757Z" fill="#92E3A9"/>
<path opacity="0.3" d="M245.71 184.757C245.71 184.757 245.18 189.549 241.398 189.475C237.616 189.401 235.854 182.958 231.862 184.153C227.871 185.348 226.965 192.161 226.965 192.161C226.965 192.161 230.858 189.463 232.694 191.139C234.53 192.814 233.883 195.099 232.854 194.644C231.825 194.188 226.226 192.445 225.678 196.738C225.499 197.96 225.571 199.206 225.889 200.399C226.207 201.592 226.764 202.709 227.526 203.68C227.526 203.68 232.207 196.43 235.047 198.056C237.887 199.683 232.398 200.44 230.008 203.064C227.618 205.689 225.998 208.522 227.809 209.693C229.336 210.819 230.744 212.099 232.01 213.512C232.01 213.512 231.819 209.508 234.443 206.619C237.068 203.73 238.909 205.387 236.519 208.029C234.129 210.672 234.844 215.138 234.844 215.138C234.844 215.138 241.17 216.093 245.87 214.614C250.57 213.136 250.737 211.374 249.4 209.686C248.063 207.999 243.178 205.461 244.848 203.625C246.517 201.789 249.542 212.692 251.956 210.567C254.371 208.442 255.246 205.898 254.149 203.939L253.053 201.98C253.053 201.98 248.168 199.448 246.831 197.754C245.494 196.06 247.546 196.972 249.862 198.118C252.178 199.264 257.112 202.793 257.562 201.771C258.012 200.748 256.755 195.278 255.923 193.559C255.092 191.841 247.595 192.697 246.807 191.983C246.018 191.268 250.201 189.315 251.464 189.519C252.404 189.675 253.335 189.881 254.254 190.135C254.254 190.135 254.611 187.104 250.7 184.024C246.788 180.944 245.71 184.757 245.71 184.757Z" fill="#263238"/>
<path d="M241.854 208.103C240.967 203.988 239.975 198.167 240.382 194.292" stroke="#263238" stroke-linecap="round" stroke-linejoin="round"/>
<path d="M243.024 213C243.024 213 242.716 211.873 242.304 210.13" stroke="#263238" stroke-linecap="round" stroke-linejoin="round"/>
<path d="M242.088 193.461C242.088 193.461 248.864 193.892 253.792 196.923" stroke="#263238" stroke-linecap="round" stroke-linejoin="round"/>
<path d="M241.86 198.968C241.86 198.968 242.051 197.705 247.299 202.479" stroke="#263238" stroke-linecap="round" stroke-linejoin="round"/>
<path d="M238.546 192.623C238.546 192.623 238.404 189.617 234.567 188.04" stroke="#263238" stroke-linecap="round" stroke-linejoin="round"/>
<path d="M239.261 197.108L235.971 196.51" stroke="#263238" stroke-linecap="round" stroke-linejoin="round"/>
<path d="M239.476 201.617C239.476 201.617 233.273 203.169 231.123 205.528" stroke="#263238" stroke-linecap="round" stroke-linejoin="round"/>
<path d="M231.758 221.015C231.758 221.015 242.414 229.146 243.536 241.207L241.293 200.816" stroke="#263238" stroke-width="2" stroke-linecap="round" stroke-linejoin="round"/>
<path d="M257.556 215.126C243.536 212.6 243.536 241.207 243.536 241.207" stroke="#263238" stroke-width="2" stroke-linecap="round" stroke-linejoin="round"/>
<path d="M245.217 240.93C245.217 240.93 237.086 181.757 260.617 181.757" stroke="#263238" stroke-width="2" stroke-linecap="round" stroke-linejoin="round"/>
<path d="M252.215 213.426C250.299 211.27 246.228 211.27 243.837 216.777C241.447 222.284 243.597 221.329 243.597 221.329C243.597 221.329 248.143 219.887 251.02 218.933C253.897 217.978 257.722 215.582 257.962 217.017C258.203 218.452 256.047 219.887 253.41 220.368C250.774 220.848 243.837 222.764 244.552 224.224C245.267 225.684 246.948 229.971 246.948 229.971C248.993 228.234 251.152 226.635 253.41 225.185C256.527 223.269 258.443 223.984 256.767 226.14C255.092 228.296 250.299 230.686 251.26 233.563C252.221 236.439 257.962 240.024 257.962 240.024C257.962 240.024 258.683 234.043 260.359 232.127C262.034 230.212 262.034 232.368 261.554 235.719C261.313 237.146 261.153 238.585 261.073 240.031L267.775 242.427C268.871 240.758 270.071 239.159 271.366 237.64L272.598 236.408C272.598 236.408 267.332 231.862 267.091 229.016C266.851 226.171 270.683 229.016 271.878 229.497C273.073 229.977 274.989 233.328 274.989 233.328C274.989 233.328 276.19 227.821 276.43 225.906L276.67 223.99C276.67 223.99 271.638 222.074 269.722 222.074C267.806 222.074 266.851 223.509 266.851 221.6C266.851 219.69 268.767 218.483 270.923 218.723C272.874 219.049 274.795 219.529 276.67 220.158C276.67 220.158 278.106 218.963 277.625 215.372C277.145 211.781 275.95 211.781 273.079 212.736C270.208 213.69 268.286 215.853 266.13 215.853C263.974 215.853 265.176 213.216 266.611 212.502C268.046 211.787 271.638 210.346 272.358 210.105C273.079 209.865 268.527 206.514 266.13 206.034C263.734 205.553 260.636 207.266 260.864 209.625C261.313 214.621 254.131 215.6 252.215 213.426Z" fill="#92E3A9"/>
<path d="M267.627 238.078C267.701 238.796 267.751 239.517 267.775 240.24" stroke="#263238" stroke-linecap="round" stroke-linejoin="round"/>
<path d="M262.816 220.891C264.927 225.632 266.447 230.614 267.344 235.725" stroke="#263238" stroke-linecap="round" stroke-linejoin="round"/>
<path d="M261.954 218.97C260.771 216.419 259.878 214.861 259.878 214.861C261.185 214.245 262.271 213.243 262.989 211.99C263.549 210.855 264.37 209.87 265.385 209.114" stroke="#263238" stroke-linecap="round" stroke-linejoin="round"/>
<path d="M251.5 222.992C251.5 222.992 260.124 219.401 260.124 220.115" stroke="#263238" stroke-linecap="round" stroke-linejoin="round"/>
<path d="M264.88 218.452C264.88 218.452 268.712 216.536 272.063 216.536" stroke="#263238" stroke-linecap="round" stroke-linejoin="round"/>
<path d="M263.469 224.224C261.808 225.59 260.283 227.114 258.917 228.776C257.52 230.424 256.39 232.28 255.566 234.277" stroke="#263238" stroke-linecap="round" stroke-linejoin="round"/>
<path d="M266.112 225.16C266.112 225.16 271.145 223.719 273.775 226.115" stroke="#263238" stroke-linecap="round" stroke-linejoin="round"/>
<path d="M275.21 192.808C272.605 191.268 269.722 191.231 268.305 189.605C266.888 187.978 269.666 187.141 271.151 187.757C272.635 188.373 276.079 190.141 276.726 190.523C277.372 190.905 276.929 185.28 275.722 183.131C274.514 180.981 271.206 179.773 269.562 181.51C266.081 185.163 260.648 180.371 261.018 177.513C261.387 174.654 258.72 171.581 253.01 173.379C247.299 175.178 249.418 176.182 249.418 176.182C249.418 176.182 253.484 178.677 256.096 180.217C258.708 181.757 263.02 183.081 262.089 184.202C261.159 185.324 258.665 184.64 256.576 182.97C254.488 181.301 248.494 177.309 247.878 178.794C247.262 180.278 245.106 184.369 245.106 184.369C247.76 184.775 250.384 185.358 252.96 186.112C256.447 187.209 257.161 189.124 254.439 189.272C251.716 189.42 246.763 187.375 245.199 189.981C243.634 192.586 244.712 199.276 244.712 199.276C244.712 199.276 249.702 195.9 252.246 195.906C254.79 195.913 253.164 197.329 250.318 199.165C249.083 199.919 247.893 200.741 246.751 201.629L249.338 208.263C251.317 207.995 253.311 207.851 255.307 207.832L256.995 207.955C256.995 207.955 256.995 200.995 258.991 198.931C260.987 196.867 261.344 201.641 261.769 202.861C262.194 204.081 260.919 207.721 260.919 207.721C260.919 207.721 265.847 205.017 267.461 203.939L269.069 202.867C269.069 202.867 267.221 197.81 265.958 196.368C264.695 194.927 262.995 195.136 264.436 193.904C265.878 192.672 268.046 193.288 269.278 195.099C270.311 196.785 271.207 198.55 271.958 200.379C271.958 200.379 273.806 200.68 276.202 197.964C278.598 195.247 277.816 194.348 275.21 192.808ZM252.56 200.471C250.644 199.51 255.19 197.594 255.19 197.594C256.872 197.36 254.47 201.432 252.56 200.471ZM255.782 191.533C254.969 191.126 257.414 190.301 257.414 190.301C260.95 190.96 256.595 191.939 255.775 191.533H255.782Z" fill="#92E3A9"/>
<path d="M252.498 205.35C252.006 205.873 251.488 206.385 250.965 206.877" stroke="#263238" stroke-linecap="round" stroke-linejoin="round"/>
<path d="M262.324 190.449C260.123 195.146 257.353 199.555 254.075 203.576" stroke="#263238" stroke-linecap="round" stroke-linejoin="round"/>
<path d="M263.211 188.539C264.363 185.97 264.948 184.276 264.948 184.276C266.272 184.857 267.742 185.021 269.161 184.745C270.384 184.421 271.665 184.394 272.9 184.664" stroke="#263238" stroke-linecap="round" stroke-linejoin="round"/>
<path d="M261.129 187.911C261.671 187.436 253.312 183.285 253.312 183.285" stroke="#263238" stroke-linecap="round" stroke-linejoin="round"/>
<path d="M265.533 190.424C265.533 190.424 269.494 192.063 271.693 194.594" stroke="#263238" stroke-linecap="round" stroke-linejoin="round"/>
<path d="M260.254 193.11C258.134 192.75 255.984 192.598 253.835 192.654C251.673 192.681 249.528 193.045 247.478 193.732" stroke="#263238" stroke-linecap="round" stroke-linejoin="round"/>
<path d="M261.258 195.728C261.258 195.728 265.638 198.58 265.57 202.14" stroke="#263238" stroke-linecap="round" stroke-linejoin="round"/>
<path d="M238.004 225.98C235.91 224.748 233.587 224.717 232.46 223.405C231.333 222.093 233.55 221.433 234.745 221.926C235.94 222.419 238.712 223.848 239.236 224.156C239.76 224.464 239.396 219.93 238.423 218.224C237.449 216.518 234.788 215.526 233.464 216.918C230.661 219.863 226.288 216 226.589 213.703C226.891 211.405 224.741 208.929 220.128 210.376C215.514 211.824 217.239 212.631 217.239 212.631C217.239 212.631 220.51 214.639 222.61 215.877C224.711 217.115 228.185 218.187 227.433 219.086C226.682 219.986 224.68 219.444 222.998 218.095C221.316 216.746 216.493 213.536 216 214.731C215.508 215.926 213.77 219.216 213.77 219.216C215.906 219.545 218.017 220.014 220.091 220.62C222.893 221.501 223.466 223.041 221.273 223.158C219.08 223.275 215.113 221.631 213.881 223.731C212.649 225.832 213.487 231.216 213.487 231.216C213.487 231.216 217.503 228.493 219.549 228.499C221.594 228.505 220.288 229.645 218.002 231.123C217.009 231.73 216.051 232.392 215.132 233.107L217.208 238.441C218.801 238.227 220.405 238.114 222.013 238.102L223.374 238.195C223.374 238.195 223.374 232.595 224.982 230.932C226.589 229.269 226.873 233.113 227.212 234.098C227.55 235.084 226.528 238.01 226.528 238.01C226.528 238.01 230.507 235.829 231.795 234.967L233.088 234.098C233.088 234.098 231.597 230.033 230.587 228.869C229.577 227.704 228.197 227.883 229.355 226.873C230.513 225.862 232.257 226.392 233.248 227.828C234.08 229.185 234.803 230.606 235.411 232.078C235.411 232.078 236.895 232.318 238.823 230.138C240.751 227.957 240.104 227.224 238.004 225.98ZM219.77 232.14C218.23 231.37 221.889 229.83 221.889 229.83C223.238 229.645 221.31 232.922 219.77 232.146V232.14ZM222.376 224.957C221.717 224.624 223.688 223.971 223.688 223.971C226.528 224.52 223.023 225.283 222.376 224.957Z" fill="#92E3A9"/>
<path d="M219.733 236.076C219.333 236.495 218.92 236.907 218.501 237.308" stroke="#263238" stroke-linecap="round" stroke-linejoin="round"/>
<path d="M227.637 224.082C225.867 227.863 223.639 231.411 221.002 234.647" stroke="#263238" stroke-linecap="round" stroke-linejoin="round"/>
<path d="M228.351 222.542C229.275 220.479 229.75 219.117 229.75 219.117C230.815 219.583 231.996 219.715 233.138 219.493C234.12 219.233 235.151 219.212 236.144 219.431" stroke="#263238" stroke-linecap="round" stroke-linejoin="round"/>
<path d="M220.38 218.317C220.38 218.317 227.113 221.661 226.676 222.013" stroke="#263238" stroke-linecap="round" stroke-linejoin="round"/>
<path d="M230.218 224.064C230.218 224.064 233.402 225.382 235.146 227.421" stroke="#263238" stroke-linecap="round" stroke-linejoin="round"/>
<path d="M225.967 226.226C224.262 225.937 222.534 225.815 220.805 225.862C219.066 225.879 217.34 226.172 215.692 226.731" stroke="#263238" stroke-linecap="round" stroke-linejoin="round"/>
<path d="M226.78 228.333C226.78 228.333 230.304 230.63 230.236 233.489" stroke="#263238" stroke-linecap="round" stroke-linejoin="round"/>
<path d="M229.454 186.445C229.454 186.445 226.817 188.36 225.142 186.445C223.466 184.529 225.863 180.697 223.466 179.262C221.07 177.827 217.245 180.457 217.245 180.457C217.245 180.457 220.355 181.178 220.355 182.853C220.355 184.529 218.92 185.25 218.68 184.529C218.44 183.808 216.764 180.217 214.368 181.899C213.678 182.363 213.089 182.963 212.637 183.662C212.185 184.361 211.879 185.144 211.738 185.964C211.738 185.964 217.479 185.009 217.959 187.165C218.44 189.321 215.569 186.925 213.173 186.925C210.777 186.925 208.621 187.406 208.861 188.841C208.991 190.115 208.991 191.399 208.861 192.672C210.101 191.511 211.716 190.832 213.413 190.757C216.044 190.757 216.043 192.432 213.653 192.432C211.263 192.432 209.341 194.828 209.341 194.828C209.341 194.828 211.738 198.42 214.608 200.095C217.479 201.771 218.44 201.05 218.68 199.615C218.92 198.179 217.959 194.588 219.635 194.588C221.31 194.588 217.245 201.05 219.395 201.29C221.544 201.531 223.226 200.81 223.707 199.375L224.187 197.939C224.187 197.939 223.226 194.348 223.466 192.913C223.707 191.477 224.187 192.913 224.661 194.588C225.136 196.264 225.622 200.329 226.343 200.095C227.064 199.861 229.214 196.738 229.694 195.543C230.175 194.348 226.343 190.997 226.343 190.276C226.343 189.555 229.214 190.757 229.694 191.471C230.175 192.186 230.649 193.147 230.649 193.147C230.649 193.147 232.324 191.952 232.084 188.601C231.844 185.25 229.454 186.445 229.454 186.445Z" fill="#92E3A9"/>
<path d="M216.037 195.13C217.694 192.82 220.152 189.679 222.271 188.12" stroke="#263238" stroke-linecap="round" stroke-linejoin="round"/>
<path d="M214.128 197.939C214.128 197.939 214.553 197.274 215.237 196.276" stroke="#263238" stroke-linecap="round" stroke-linejoin="round"/>
<path d="M223.466 188.601C223.466 188.601 226.343 192.192 227.058 196.023" stroke="#263238" stroke-linecap="round" stroke-linejoin="round"/>
<path d="M220.596 190.997C220.596 190.997 221.31 190.516 221.31 195.309" stroke="#263238" stroke-linecap="round" stroke-linejoin="round"/>
<path d="M222.271 186.445C222.271 186.445 223.706 185.009 222.752 182.373" stroke="#263238" stroke-linecap="round" stroke-linejoin="round"/>
<path d="M220.355 188.841L219.16 186.925" stroke="#263238" stroke-linecap="round" stroke-linejoin="round"/>
<path d="M218.2 190.997C218.2 190.997 214.608 188.601 212.452 188.601" stroke="#263238" stroke-linecap="round" stroke-linejoin="round"/>
<path d="M253.632 240.086H235.121V266.728H253.632V240.086Z" fill="#263238" stroke="#263238" stroke-width="2" stroke-linecap="round" stroke-linejoin="round"/>
</svg>
